<svg width="2688" height="740" viewBox="0 0 2688 740" fill="none" xmlns="http://www.w3.org/2000/svg">
<mask id="path-1-inside-1_226_2798" fill="white">
<path d="M0.00213623 317.237C0.00213623 485.815 136.661 622.474 305.239 622.474C473.817 622.474 610.477 485.815 610.477 317.237C610.477 148.659 473.817 12 305.239 12C136.661 12 0.00213623 148.659 0.00213623 317.237ZM464.478 317.237C464.478 405.182 393.184 476.476 305.239 476.476C217.294 476.476 146.001 405.182 146.001 317.237C146.001 229.292 217.294 157.999 305.239 157.999C393.184 157.999 464.478 229.292 464.478 317.237Z"/>
</mask>
<path d="M0.00213623 317.237C0.00213623 485.815 136.661 622.474 305.239 622.474C473.817 622.474 610.477 485.815 610.477 317.237C610.477 148.659 473.817 12 305.239 12C136.661 12 0.00213623 148.659 0.00213623 317.237ZM464.478 317.237C464.478 405.182 393.184 476.476 305.239 476.476C217.294 476.476 146.001 405.182 146.001 317.237C146.001 229.292 217.294 157.999 305.239 157.999C393.184 157.999 464.478 229.292 464.478 317.237Z" fill="#FCDC94" stroke="#8C5A2E" stroke-width="40" mask="url(#path-1-inside-1_226_2798)"/>
<path d="M430 284.706V355.413C430 394.467 374.037 426.12 305 426.12C235.963 426.12 180 394.467 180 355.413V284.706" fill="#FCDC94"/>
<path d="M430 284.706V355.413C430 394.467 374.037 426.12 305 426.12C235.963 426.12 180 394.467 180 355.413V284.706" stroke="#8C5A2E" stroke-width="20" stroke-linecap="round" stroke-linejoin="round"/>
<path d="M430 284.707C430 323.761 374.037 355.414 305 355.414C235.963 355.414 180 323.761 180 284.707C180 245.653 235.963 214 305 214C374.037 214 430 245.653 430 284.707Z" fill="#FCDC94" stroke="#8C5A2E" stroke-width="20" stroke-linecap="round" stroke-linejoin="round"/>
<path d="M305 259.418C342.5 242.766 367.5 269.588 367.5 282.138C367.5 319.495 242.5 317.551 242.5 271.532C242.5 243.438 267.5 214 305 214" fill="#FCDC94"/>
<path d="M305 259.418C342.5 242.766 367.5 269.588 367.5 282.138C367.5 319.495 242.5 317.551 242.5 271.532C242.5 243.438 267.5 214 305 214" stroke="#8C5A2E" stroke-width="20" stroke-linecap="round" stroke-linejoin="round"/>
<ellipse cx="6.32183" cy="6.32183" rx="6.32183" ry="6.32183" transform="matrix(0.997756 -0.06695 0.0413471 0.999145 312 373.474)" fill="#8C5A2E"/>
<ellipse cx="6.32183" cy="6.32183" rx="6.32183" ry="6.32183" transform="matrix(0.997756 -0.06695 0.0413471 0.999145 353.861 371.721)" fill="#8C5A2E"/>
<path d="M324.039 400.457C329.602 402.872 335.478 403.799 341.228 403.157C347.1 402.502 352.663 400.23 357.489 396.535C358.541 395.73 358.669 394.054 357.863 392.776C356.966 391.352 355.29 390.973 354.16 391.811C350.042 394.863 345.336 396.739 340.383 397.292C335.46 397.841 330.436 397.067 325.673 395.042C324.29 394.454 322.794 395.05 322.325 396.543C321.86 398.02 322.595 399.831 324.039 400.457Z" fill="#8C5A2E" stroke="#8C5A2E"/>
<path d="M796.563 613.75L762.063 680.2V718H744.963V680.2L710.313 613.75H729.363L753.513 664.9L777.663 613.75H796.563ZM845.983 719.35C838.183 719.35 831.133 717.6 824.833 714.1C818.533 710.5 813.583 705.5 809.983 699.1C806.383 692.6 804.583 685.1 804.583 676.6C804.583 668.2 806.433 660.75 810.133 654.25C813.833 647.75 818.883 642.75 825.283 639.25C831.683 635.75 838.833 634 846.733 634C854.633 634 861.783 635.75 868.183 639.25C874.583 642.75 879.633 647.75 883.333 654.25C887.033 660.75 888.883 668.2 888.883 676.6C888.883 685 886.983 692.45 883.183 698.95C879.383 705.45 874.183 710.5 867.583 714.1C861.083 717.6 853.883 719.35 845.983 719.35ZM845.983 704.5C850.383 704.5 854.483 703.45 858.283 701.35C862.183 699.25 865.333 696.1 867.733 691.9C870.133 687.7 871.333 682.6 871.333 676.6C871.333 670.6 870.183 665.55 867.883 661.45C865.583 657.25 862.533 654.1 858.733 652C854.933 649.9 850.833 648.85 846.433 648.85C842.033 648.85 837.933 649.9 834.133 652C830.433 654.1 827.483 657.25 825.283 661.45C823.083 665.55 821.983 670.6 821.983 676.6C821.983 685.5 824.233 692.4 828.733 697.3C833.333 702.1 839.083 704.5 845.983 704.5ZM980.637 635.35V718H963.537V708.25C960.837 711.65 957.287 714.35 952.887 716.35C948.587 718.25 943.987 719.2 939.087 719.2C932.587 719.2 926.737 717.85 921.537 715.15C916.437 712.45 912.387 708.45 909.387 703.15C906.487 697.85 905.037 691.45 905.037 683.95V635.35H921.987V681.4C921.987 688.8 923.837 694.5 927.537 698.5C931.237 702.4 936.287 704.35 942.687 704.35C949.087 704.35 954.137 702.4 957.837 698.5C961.637 694.5 963.537 688.8 963.537 681.4V635.35H980.637ZM1020.3 647.35C1022.8 643.15 1026.1 639.9 1030.2 637.6C1034.4 635.2 1039.35 634 1045.05 634V651.7H1040.7C1034 651.7 1028.9 653.4 1025.4 656.8C1022 660.2 1020.3 666.1 1020.3 674.5V718H1003.2V635.35H1020.3V647.35ZM1134.08 719.05C1127.08 719.05 1120.78 717.85 1115.18 715.45C1109.58 712.95 1105.18 709.45 1101.98 704.95C1098.78 700.45 1097.18 695.2 1097.18 689.2H1115.48C1115.88 693.7 1117.63 697.4 1120.73 700.3C1123.93 703.2 1128.38 704.65 1134.08 704.65C1139.98 704.65 1144.58 703.25 1147.88 700.45C1151.18 697.55 1152.83 693.85 1152.83 689.35C1152.83 685.85 1151.78 683 1149.68 680.8C1147.68 678.6 1145.13 676.9 1142.03 675.7C1139.03 674.5 1134.83 673.2 1129.43 671.8C1122.63 670 1117.08 668.2 1112.78 666.4C1108.58 664.5 1104.98 661.6 1101.98 657.7C1098.98 653.8 1097.48 648.6 1097.48 642.1C1097.48 636.1 1098.98 630.85 1101.98 626.35C1104.98 621.85 1109.18 618.4 1114.58 616C1119.98 613.6 1126.23 612.4 1133.33 612.4C1143.43 612.4 1151.68 614.95 1158.08 620.05C1164.58 625.05 1168.18 631.95 1168.88 640.75H1149.98C1149.68 636.95 1147.88 633.7 1144.58 631C1141.28 628.3 1136.93 626.95 1131.53 626.95C1126.63 626.95 1122.63 628.2 1119.53 630.7C1116.43 633.2 1114.88 636.8 1114.88 641.5C1114.88 644.7 1115.83 647.35 1117.73 649.45C1119.73 651.45 1122.23 653.05 1125.23 654.25C1128.23 655.45 1132.33 656.75 1137.53 658.15C1144.43 660.05 1150.03 661.95 1154.33 663.85C1158.73 665.75 1162.43 668.7 1165.43 672.7C1168.53 676.6 1170.08 681.85 1170.08 688.45C1170.08 693.75 1168.63 698.75 1165.73 703.45C1162.93 708.15 1158.78 711.95 1153.28 714.85C1147.88 717.65 1141.48 719.05 1134.08 719.05ZM1301.26 635.35L1275.61 718H1257.61L1240.96 656.95L1224.31 718H1206.31L1180.51 635.35H1197.91L1215.16 701.8L1232.71 635.35H1250.56L1267.36 701.5L1284.46 635.35H1301.26ZM1389.79 674.65C1389.79 677.75 1389.59 680.55 1389.19 683.05H1326.04C1326.54 689.65 1328.99 694.95 1333.39 698.95C1337.79 702.95 1343.19 704.95 1349.59 704.95C1358.79 704.95 1365.29 701.1 1369.09 693.4H1387.54C1385.04 701 1380.49 707.25 1373.89 712.15C1367.39 716.95 1359.29 719.35 1349.59 719.35C1341.69 719.35 1334.59 717.6 1328.29 714.1C1322.09 710.5 1317.19 705.5 1313.59 699.1C1310.09 692.6 1308.34 685.1 1308.34 676.6C1308.34 668.1 1310.04 660.65 1313.44 654.25C1316.94 647.75 1321.79 642.75 1327.99 639.25C1334.29 635.75 1341.49 634 1349.59 634C1357.39 634 1364.34 635.7 1370.44 639.1C1376.54 642.5 1381.29 647.3 1384.69 653.5C1388.09 659.6 1389.79 666.65 1389.79 674.65ZM1371.94 669.25C1371.84 662.95 1369.59 657.9 1365.19 654.1C1360.79 650.3 1355.34 648.4 1348.84 648.4C1342.94 648.4 1337.89 650.3 1333.69 654.1C1329.49 657.8 1326.99 662.85 1326.19 669.25H1371.94ZM1482.37 674.65C1482.37 677.75 1482.17 680.55 1481.77 683.05H1418.62C1419.12 689.65 1421.57 694.95 1425.97 698.95C1430.37 702.95 1435.77 704.95 1442.17 704.95C1451.37 704.95 1457.87 701.1 1461.67 693.4H1480.12C1477.62 701 1473.07 707.25 1466.47 712.15C1459.97 716.95 1451.87 719.35 1442.17 719.35C1434.27 719.35 1427.17 717.6 1420.87 714.1C1414.67 710.5 1409.77 705.5 1406.17 699.1C1402.67 692.6 1400.92 685.1 1400.92 676.6C1400.92 668.1 1402.62 660.65 1406.02 654.25C1409.52 647.75 1414.37 642.75 1420.57 639.25C1426.87 635.75 1434.07 634 1442.17 634C1449.97 634 1456.92 635.7 1463.02 639.1C1469.12 642.5 1473.87 647.3 1477.27 653.5C1480.67 659.6 1482.37 666.65 1482.37 674.65ZM1464.52 669.25C1464.42 662.95 1462.17 657.9 1457.77 654.1C1453.37 650.3 1447.92 648.4 1441.42 648.4C1435.52 648.4 1430.47 650.3 1426.27 654.1C1422.07 657.8 1419.57 662.85 1418.77 669.25H1464.52ZM1519.15 649.3V695.05C1519.15 698.15 1519.85 700.4 1521.25 701.8C1522.75 703.1 1525.25 703.75 1528.75 703.75H1539.25V718H1525.75C1518.05 718 1512.15 716.2 1508.05 712.6C1503.95 709 1501.9 703.15 1501.9 695.05V649.3H1492.15V635.35H1501.9V614.8H1519.15V635.35H1539.25V649.3H1519.15ZM1669.42 643.75C1666.72 638.55 1662.97 634.65 1658.17 632.05C1653.37 629.35 1647.82 628 1641.52 628C1634.62 628 1628.47 629.55 1623.07 632.65C1617.67 635.75 1613.42 640.15 1610.32 645.85C1607.32 651.55 1605.82 658.15 1605.82 665.65C1605.82 673.15 1607.32 679.8 1610.32 685.6C1613.42 691.3 1617.67 695.7 1623.07 698.8C1628.47 701.9 1634.62 703.45 1641.52 703.45C1650.82 703.45 1658.37 700.85 1664.17 695.65C1669.97 690.45 1673.52 683.4 1674.82 674.5H1635.67V660.85H1693.12V674.2C1692.02 682.3 1689.12 689.75 1684.42 696.55C1679.82 703.35 1673.77 708.8 1666.27 712.9C1658.87 716.9 1650.62 718.9 1641.52 718.9C1631.72 718.9 1622.77 716.65 1614.67 712.15C1606.57 707.55 1600.12 701.2 1595.32 693.1C1590.62 685 1588.27 675.85 1588.27 665.65C1588.27 655.45 1590.62 646.3 1595.32 638.2C1600.12 630.1 1606.57 623.8 1614.67 619.3C1622.87 614.7 1631.82 612.4 1641.52 612.4C1652.62 612.4 1662.47 615.15 1671.07 620.65C1679.77 626.05 1686.07 633.75 1689.97 643.75H1669.42ZM1784.84 635.35V718H1767.74V708.25C1765.04 711.65 1761.49 714.35 1757.09 716.35C1752.79 718.25 1748.19 719.2 1743.29 719.2C1736.79 719.2 1730.94 717.85 1725.74 715.15C1720.64 712.45 1716.59 708.45 1713.59 703.15C1710.69 697.85 1709.24 691.45 1709.24 683.95V635.35H1726.19V681.4C1726.19 688.8 1728.04 694.5 1731.74 698.5C1735.44 702.4 1740.49 704.35 1746.89 704.35C1753.29 704.35 1758.34 702.4 1762.04 698.5C1765.84 694.5 1767.74 688.8 1767.74 681.4V635.35H1784.84ZM1816.1 624.4C1813 624.4 1810.4 623.35 1808.3 621.25C1806.2 619.15 1805.15 616.55 1805.15 613.45C1805.15 610.35 1806.2 607.75 1808.3 605.65C1810.4 603.55 1813 602.5 1816.1 602.5C1819.1 602.5 1821.65 603.55 1823.75 605.65C1825.85 607.75 1826.9 610.35 1826.9 613.45C1826.9 616.55 1825.85 619.15 1823.75 621.25C1821.65 623.35 1819.1 624.4 1816.1 624.4ZM1824.5 635.35V718H1807.4V635.35H1824.5ZM1841.25 676.3C1841.25 668 1842.95 660.65 1846.35 654.25C1849.85 647.85 1854.55 642.9 1860.45 639.4C1866.45 635.8 1873.1 634 1880.4 634C1885.8 634 1891.1 635.2 1896.3 637.6C1901.6 639.9 1905.8 643 1908.9 646.9V607H1926.15V718H1908.9V705.55C1906.1 709.55 1902.2 712.85 1897.2 715.45C1892.3 718.05 1886.65 719.35 1880.25 719.35C1873.05 719.35 1866.45 717.55 1860.45 713.95C1854.55 710.25 1849.85 705.15 1846.35 698.65C1842.95 692.05 1841.25 684.6 1841.25 676.3ZM1908.9 676.6C1908.9 670.9 1907.7 665.95 1905.3 661.75C1903 657.55 1899.95 654.35 1896.15 652.15C1892.35 649.95 1888.25 648.85 1883.85 648.85C1879.45 648.85 1875.35 649.95 1871.55 652.15C1867.75 654.25 1864.65 657.4 1862.25 661.6C1859.95 665.7 1858.8 670.6 1858.8 676.3C1858.8 682 1859.95 687 1862.25 691.3C1864.65 695.6 1867.75 698.9 1871.55 701.2C1875.45 703.4 1879.55 704.5 1883.85 704.5C1888.25 704.5 1892.35 703.4 1896.15 701.2C1899.95 699 1903 695.8 1905.3 691.6C1907.7 687.3 1908.9 682.3 1908.9 676.6ZM2024.36 674.65C2024.36 677.75 2024.16 680.55 2023.76 683.05H1960.61C1961.11 689.65 1963.56 694.95 1967.96 698.95C1972.36 702.95 1977.76 704.95 1984.16 704.95C1993.36 704.95 1999.86 701.1 2003.66 693.4H2022.11C2019.61 701 2015.06 707.25 2008.46 712.15C2001.96 716.95 1993.86 719.35 1984.16 719.35C1976.26 719.35 1969.16 717.6 1962.86 714.1C1956.66 710.5 1951.76 705.5 1948.16 699.1C1944.66 692.6 1942.91 685.1 1942.91 676.6C1942.91 668.1 1944.61 660.65 1948.01 654.25C1951.51 647.75 1956.36 642.75 1962.56 639.25C1968.86 635.75 1976.06 634 1984.16 634C1991.96 634 1998.91 635.7 2005.01 639.1C2011.11 642.5 2015.86 647.3 2019.26 653.5C2022.66 659.6 2024.36 666.65 2024.36 674.65ZM2006.51 669.25C2006.41 662.95 2004.16 657.9 1999.76 654.1C1995.36 650.3 1989.91 648.4 1983.41 648.4C1977.51 648.4 1972.46 650.3 1968.26 654.1C1964.06 657.8 1961.56 662.85 1960.76 669.25H2006.51Z" fill="#8C5A2E"/>
<path d="M801.691 475.45C784.658 475.45 769.258 472.533 755.491 466.7C741.958 460.867 731.225 452.467 723.291 441.5C715.358 430.533 711.275 417.583 711.041 402.65H763.541C764.241 412.683 767.741 420.617 774.041 426.45C780.575 432.283 789.441 435.2 800.641 435.2C812.075 435.2 821.058 432.517 827.591 427.15C834.125 421.55 837.391 414.317 837.391 405.45C837.391 398.217 835.175 392.267 830.741 387.6C826.308 382.933 820.708 379.317 813.941 376.75C807.408 373.95 798.308 370.917 786.641 367.65C770.775 362.983 757.825 358.433 747.791 354C737.991 349.333 729.475 342.45 722.241 333.35C715.241 324.017 711.741 311.65 711.741 296.25C711.741 281.783 715.358 269.183 722.591 258.45C729.825 247.717 739.975 239.55 753.041 233.95C766.108 228.117 781.041 225.2 797.841 225.2C823.041 225.2 843.458 231.383 859.091 243.75C874.958 255.883 883.708 272.917 885.341 294.85H831.441C830.975 286.45 827.358 279.567 820.591 274.2C814.058 268.6 805.308 265.8 794.341 265.8C784.775 265.8 777.075 268.25 771.241 273.15C765.641 278.05 762.841 285.167 762.841 294.5C762.841 301.033 764.941 306.517 769.141 310.95C773.575 315.15 778.941 318.65 785.241 321.45C791.775 324.017 800.875 327.05 812.541 330.55C828.408 335.217 841.358 339.883 851.391 344.55C861.425 349.217 870.058 356.217 877.291 365.55C884.525 374.883 888.141 387.133 888.141 402.3C888.141 415.367 884.758 427.5 877.991 438.7C871.225 449.9 861.308 458.883 848.241 465.65C835.175 472.183 819.658 475.45 801.691 475.45ZM1106.67 279.1V473H1057.32V448.5C1051.02 456.9 1042.74 463.55 1032.47 468.45C1022.44 473.117 1011.47 475.45 999.573 475.45C984.406 475.45 970.989 472.3 959.323 466C947.656 459.467 938.439 450.017 931.673 437.65C925.139 425.05 921.873 410.117 921.873 392.85V279.1H970.873V385.85C970.873 401.25 974.723 413.15 982.423 421.55C990.123 429.717 1000.62 433.8 1013.92 433.8C1027.46 433.8 1038.07 429.717 1045.77 421.55C1053.47 413.15 1057.32 401.25 1057.32 385.85V279.1H1106.67ZM1223.97 275.95C1238.44 275.95 1251.15 278.867 1262.12 284.7C1273.09 290.3 1281.72 297.65 1288.02 306.75V279.1H1337.37V474.4C1337.37 492.367 1333.75 508.35 1326.52 522.35C1319.29 536.583 1308.44 547.783 1293.97 555.95C1279.5 564.35 1262 568.55 1241.47 568.55C1213.94 568.55 1191.3 562.133 1173.57 549.3C1156.07 536.467 1146.15 518.967 1143.82 496.8H1192.47C1195.04 505.667 1200.52 512.667 1208.92 517.8C1217.55 523.167 1227.94 525.85 1240.07 525.85C1254.3 525.85 1265.85 521.533 1274.72 512.9C1283.59 504.5 1288.02 491.667 1288.02 474.4V444.3C1281.72 453.4 1272.97 460.983 1261.77 467.05C1250.8 473.117 1238.2 476.15 1223.97 476.15C1207.64 476.15 1192.7 471.95 1179.17 463.55C1165.64 455.15 1154.9 443.367 1146.97 428.2C1139.27 412.8 1135.42 395.183 1135.42 375.35C1135.42 355.75 1139.27 338.367 1146.97 323.2C1154.9 308.033 1165.52 296.367 1178.82 288.2C1192.35 280.033 1207.4 275.95 1223.97 275.95ZM1288.02 376.05C1288.02 364.15 1285.69 354 1281.02 345.6C1276.35 336.967 1270.05 330.433 1262.12 326C1254.19 321.333 1245.67 319 1236.57 319C1227.47 319 1219.07 321.217 1211.37 325.65C1203.67 330.083 1197.37 336.617 1192.47 345.25C1187.8 353.65 1185.47 363.683 1185.47 375.35C1185.47 387.017 1187.8 397.283 1192.47 406.15C1197.37 414.783 1203.67 421.433 1211.37 426.1C1219.3 430.767 1227.7 433.1 1236.57 433.1C1245.67 433.1 1254.19 430.883 1262.12 426.45C1270.05 421.783 1276.35 415.25 1281.02 406.85C1285.69 398.217 1288.02 387.95 1288.02 376.05ZM1365.63 375.35C1365.63 355.75 1369.48 338.367 1377.18 323.2C1385.11 308.033 1395.73 296.367 1409.03 288.2C1422.56 280.033 1437.61 275.95 1454.18 275.95C1468.64 275.95 1481.24 278.867 1491.98 284.7C1502.94 290.533 1511.69 297.883 1518.23 306.75V279.1H1567.58V473H1518.23V444.65C1511.93 453.75 1503.18 461.333 1491.98 467.4C1481.01 473.233 1468.29 476.15 1453.83 476.15C1437.49 476.15 1422.56 471.95 1409.03 463.55C1395.73 455.15 1385.11 443.367 1377.18 428.2C1369.48 412.8 1365.63 395.183 1365.63 375.35ZM1518.23 376.05C1518.23 364.15 1515.89 354 1511.23 345.6C1506.56 336.967 1500.26 330.433 1492.33 326C1484.39 321.333 1475.88 319 1466.78 319C1457.68 319 1449.28 321.217 1441.58 325.65C1433.88 330.083 1427.58 336.617 1422.68 345.25C1418.01 353.65 1415.68 363.683 1415.68 375.35C1415.68 387.017 1418.01 397.283 1422.68 406.15C1427.58 414.783 1433.88 421.433 1441.58 426.1C1449.51 430.767 1457.91 433.1 1466.78 433.1C1475.88 433.1 1484.39 430.883 1492.33 426.45C1500.26 421.783 1506.56 415.25 1511.23 406.85C1515.89 398.217 1518.23 387.95 1518.23 376.05ZM1657.43 309.2C1663.73 298.933 1671.9 290.883 1681.93 285.05C1692.2 279.217 1703.87 276.3 1716.93 276.3V327.75H1703.98C1688.58 327.75 1676.92 331.367 1668.98 338.6C1661.28 345.833 1657.43 358.433 1657.43 376.4V473H1608.43V279.1H1657.43V309.2ZM1909.19 228.7V268.25H1844.09V473H1795.09V268.25H1729.99V228.7H1909.19ZM2024.04 476.15C2005.37 476.15 1988.57 472.067 1973.64 463.9C1958.71 455.5 1946.92 443.717 1938.29 428.55C1929.89 413.383 1925.69 395.883 1925.69 376.05C1925.69 356.217 1930.01 338.717 1938.64 323.55C1947.51 308.383 1959.52 296.717 1974.69 288.55C1989.86 280.15 2006.77 275.95 2025.44 275.95C2044.11 275.95 2061.02 280.15 2076.19 288.55C2091.36 296.717 2103.26 308.383 2111.89 323.55C2120.76 338.717 2125.19 356.217 2125.19 376.05C2125.19 395.883 2120.64 413.383 2111.54 428.55C2102.67 443.717 2090.54 455.5 2075.14 463.9C2059.97 472.067 2042.94 476.15 2024.04 476.15ZM2024.04 433.45C2032.91 433.45 2041.19 431.35 2048.89 427.15C2056.82 422.717 2063.12 416.183 2067.79 407.55C2072.46 398.917 2074.79 388.417 2074.79 376.05C2074.79 357.617 2069.89 343.5 2060.09 333.7C2050.52 323.667 2038.74 318.65 2024.74 318.65C2010.74 318.65 1998.96 323.667 1989.39 333.7C1980.06 343.5 1975.39 357.617 1975.39 376.05C1975.39 394.483 1979.94 408.717 1989.04 418.75C1998.37 428.55 2010.04 433.45 2024.04 433.45ZM2203.13 307.1C2209.43 298.233 2218.07 290.883 2229.03 285.05C2240.23 278.983 2252.95 275.95 2267.18 275.95C2283.75 275.95 2298.68 280.033 2311.98 288.2C2325.52 296.367 2336.13 308.033 2343.83 323.2C2351.77 338.133 2355.73 355.517 2355.73 375.35C2355.73 395.183 2351.77 412.8 2343.83 428.2C2336.13 443.367 2325.52 455.15 2311.98 463.55C2298.68 471.95 2283.75 476.15 2267.18 476.15C2252.95 476.15 2240.35 473.233 2229.38 467.4C2218.65 461.567 2209.9 454.217 2203.13 445.35V565.4H2154.13V279.1H2203.13V307.1ZM2305.68 375.35C2305.68 363.683 2303.23 353.65 2298.33 345.25C2293.67 336.617 2287.37 330.083 2279.43 325.65C2271.73 321.217 2263.33 319 2254.23 319C2245.37 319 2236.97 321.333 2229.03 326C2221.33 330.433 2215.03 336.967 2210.13 345.6C2205.47 354.233 2203.13 364.383 2203.13 376.05C2203.13 387.717 2205.47 397.867 2210.13 406.5C2215.03 415.133 2221.33 421.783 2229.03 426.45C2236.97 430.883 2245.37 433.1 2254.23 433.1C2263.33 433.1 2271.73 430.767 2279.43 426.1C2287.37 421.433 2293.67 414.783 2298.33 406.15C2303.23 397.517 2305.68 387.25 2305.68 375.35ZM2409.19 256C2400.56 256 2393.32 253.317 2387.49 247.95C2381.89 242.35 2379.09 235.467 2379.09 227.3C2379.09 219.133 2381.89 212.367 2387.49 207C2393.32 201.4 2400.56 198.6 2409.19 198.6C2417.82 198.6 2424.94 201.4 2430.54 207C2436.37 212.367 2439.29 219.133 2439.29 227.3C2439.29 235.467 2436.37 242.35 2430.54 247.95C2424.94 253.317 2417.82 256 2409.19 256ZM2433.34 279.1V473H2384.34V279.1H2433.34ZM2462.15 375.35C2462.15 355.75 2466 338.367 2473.7 323.2C2481.63 308.033 2492.25 296.367 2505.55 288.2C2519.08 280.033 2534.13 275.95 2550.7 275.95C2565.17 275.95 2577.77 278.867 2588.5 284.7C2599.47 290.533 2608.22 297.883 2614.75 306.75V279.1H2664.1V473H2614.75V444.65C2608.45 453.75 2599.7 461.333 2588.5 467.4C2577.53 473.233 2564.82 476.15 2550.35 476.15C2534.02 476.15 2519.08 471.95 2505.55 463.55C2492.25 455.15 2481.63 443.367 2473.7 428.2C2466 412.8 2462.15 395.183 2462.15 375.35ZM2614.75 376.05C2614.75 364.15 2612.42 354 2607.75 345.6C2603.08 336.967 2596.78 330.433 2588.85 326C2580.92 321.333 2572.4 319 2563.3 319C2554.2 319 2545.8 321.217 2538.1 325.65C2530.4 330.083 2524.1 336.617 2519.2 345.25C2514.53 353.65 2512.2 363.683 2512.2 375.35C2512.2 387.017 2514.53 397.283 2519.2 406.15C2524.1 414.783 2530.4 421.433 2538.1 426.1C2546.03 430.767 2554.43 433.1 2563.3 433.1C2572.4 433.1 2580.92 430.883 2588.85 426.45C2596.78 421.783 2603.08 415.25 2607.75 406.85C2612.42 398.217 2614.75 387.95 2614.75 376.05Z" fill="#8C5A2E"/>
</svg>
