<svg width="3075" height="722" viewBox="0 0 3075 722" fill="none" xmlns="http://www.w3.org/2000/svg">
<path d="M818.563 615.75L784.063 682.2V720H766.963V682.2L732.313 615.75H751.363L775.513 666.9L799.663 615.75H818.563ZM867.983 721.35C860.183 721.35 853.133 719.6 846.833 716.1C840.533 712.5 835.583 707.5 831.983 701.1C828.383 694.6 826.583 687.1 826.583 678.6C826.583 670.2 828.433 662.75 832.133 656.25C835.833 649.75 840.883 644.75 847.283 641.25C853.683 637.75 860.833 636 868.733 636C876.633 636 883.783 637.75 890.183 641.25C896.583 644.75 901.633 649.75 905.333 656.25C909.033 662.75 910.883 670.2 910.883 678.6C910.883 687 908.983 694.45 905.183 700.95C901.383 707.45 896.183 712.5 889.583 716.1C883.083 719.6 875.883 721.35 867.983 721.35ZM867.983 706.5C872.383 706.5 876.483 705.45 880.283 703.35C884.183 701.25 887.333 698.1 889.733 693.9C892.133 689.7 893.333 684.6 893.333 678.6C893.333 672.6 892.183 667.55 889.883 663.45C887.583 659.25 884.533 656.1 880.733 654C876.933 651.9 872.833 650.85 868.433 650.85C864.033 650.85 859.933 651.9 856.133 654C852.433 656.1 849.483 659.25 847.283 663.45C845.083 667.55 843.983 672.6 843.983 678.6C843.983 687.5 846.233 694.4 850.733 699.3C855.333 704.1 861.083 706.5 867.983 706.5ZM1002.64 637.35V720H985.537V710.25C982.837 713.65 979.287 716.35 974.887 718.35C970.587 720.25 965.987 721.2 961.087 721.2C954.587 721.2 948.737 719.85 943.537 717.15C938.437 714.45 934.387 710.45 931.387 705.15C928.487 699.85 927.037 693.45 927.037 685.95V637.35H943.987V683.4C943.987 690.8 945.837 696.5 949.537 700.5C953.237 704.4 958.287 706.35 964.687 706.35C971.087 706.35 976.137 704.4 979.837 700.5C983.637 696.5 985.537 690.8 985.537 683.4V637.35H1002.64ZM1042.3 649.35C1044.8 645.15 1048.1 641.9 1052.2 639.6C1056.4 637.2 1061.35 636 1067.05 636V653.7H1062.7C1056 653.7 1050.9 655.4 1047.4 658.8C1044 662.2 1042.3 668.1 1042.3 676.5V720H1025.2V637.35H1042.3V649.35ZM1156.08 721.05C1149.08 721.05 1142.78 719.85 1137.18 717.45C1131.58 714.95 1127.18 711.45 1123.98 706.95C1120.78 702.45 1119.18 697.2 1119.18 691.2H1137.48C1137.88 695.7 1139.63 699.4 1142.73 702.3C1145.93 705.2 1150.38 706.65 1156.08 706.65C1161.98 706.65 1166.58 705.25 1169.88 702.45C1173.18 699.55 1174.83 695.85 1174.83 691.35C1174.83 687.85 1173.78 685 1171.68 682.8C1169.68 680.6 1167.13 678.9 1164.03 677.7C1161.03 676.5 1156.83 675.2 1151.43 673.8C1144.63 672 1139.08 670.2 1134.78 668.4C1130.58 666.5 1126.98 663.6 1123.98 659.7C1120.98 655.8 1119.48 650.6 1119.48 644.1C1119.48 638.1 1120.98 632.85 1123.98 628.35C1126.98 623.85 1131.18 620.4 1136.58 618C1141.98 615.6 1148.23 614.4 1155.33 614.4C1165.43 614.4 1173.68 616.95 1180.08 622.05C1186.58 627.05 1190.18 633.95 1190.88 642.75H1171.98C1171.68 638.95 1169.88 635.7 1166.58 633C1163.28 630.3 1158.93 628.95 1153.53 628.95C1148.63 628.95 1144.63 630.2 1141.53 632.7C1138.43 635.2 1136.88 638.8 1136.88 643.5C1136.88 646.7 1137.83 649.35 1139.73 651.45C1141.73 653.45 1144.23 655.05 1147.23 656.25C1150.23 657.45 1154.33 658.75 1159.53 660.15C1166.43 662.05 1172.03 663.95 1176.33 665.85C1180.73 667.75 1184.43 670.7 1187.43 674.7C1190.53 678.6 1192.08 683.85 1192.08 690.45C1192.08 695.75 1190.63 700.75 1187.73 705.45C1184.93 710.15 1180.78 713.95 1175.28 716.85C1169.88 719.65 1163.48 721.05 1156.08 721.05ZM1323.26 637.35L1297.61 720H1279.61L1262.96 658.95L1246.31 720H1228.31L1202.51 637.35H1219.91L1237.16 703.8L1254.71 637.35H1272.56L1289.36 703.5L1306.46 637.35H1323.26ZM1411.79 676.65C1411.79 679.75 1411.59 682.55 1411.19 685.05H1348.04C1348.54 691.65 1350.99 696.95 1355.39 700.95C1359.79 704.95 1365.19 706.95 1371.59 706.95C1380.79 706.95 1387.29 703.1 1391.09 695.4H1409.54C1407.04 703 1402.49 709.25 1395.89 714.15C1389.39 718.95 1381.29 721.35 1371.59 721.35C1363.69 721.35 1356.59 719.6 1350.29 716.1C1344.09 712.5 1339.19 707.5 1335.59 701.1C1332.09 694.6 1330.34 687.1 1330.34 678.6C1330.34 670.1 1332.04 662.65 1335.44 656.25C1338.94 649.75 1343.79 644.75 1349.99 641.25C1356.29 637.75 1363.49 636 1371.59 636C1379.39 636 1386.34 637.7 1392.44 641.1C1398.54 644.5 1403.29 649.3 1406.69 655.5C1410.09 661.6 1411.79 668.65 1411.79 676.65ZM1393.94 671.25C1393.84 664.95 1391.59 659.9 1387.19 656.1C1382.79 652.3 1377.34 650.4 1370.84 650.4C1364.94 650.4 1359.89 652.3 1355.69 656.1C1351.49 659.8 1348.99 664.85 1348.19 671.25H1393.94ZM1504.37 676.65C1504.37 679.75 1504.17 682.55 1503.77 685.05H1440.62C1441.12 691.65 1443.57 696.95 1447.97 700.95C1452.37 704.95 1457.77 706.95 1464.17 706.95C1473.37 706.95 1479.87 703.1 1483.67 695.4H1502.12C1499.62 703 1495.07 709.25 1488.47 714.15C1481.97 718.95 1473.87 721.35 1464.17 721.35C1456.27 721.35 1449.17 719.6 1442.87 716.1C1436.67 712.5 1431.77 707.5 1428.17 701.1C1424.67 694.6 1422.92 687.1 1422.92 678.6C1422.92 670.1 1424.62 662.65 1428.02 656.25C1431.52 649.75 1436.37 644.75 1442.57 641.25C1448.87 637.75 1456.07 636 1464.17 636C1471.97 636 1478.92 637.7 1485.02 641.1C1491.12 644.5 1495.87 649.3 1499.27 655.5C1502.67 661.6 1504.37 668.65 1504.37 676.65ZM1486.52 671.25C1486.42 664.95 1484.17 659.9 1479.77 656.1C1475.37 652.3 1469.92 650.4 1463.42 650.4C1457.52 650.4 1452.47 652.3 1448.27 656.1C1444.07 659.8 1441.57 664.85 1440.77 671.25H1486.52ZM1541.15 651.3V697.05C1541.15 700.15 1541.85 702.4 1543.25 703.8C1544.75 705.1 1547.25 705.75 1550.75 705.75H1561.25V720H1547.75C1540.05 720 1534.15 718.2 1530.05 714.6C1525.95 711 1523.9 705.15 1523.9 697.05V651.3H1514.15V637.35H1523.9V616.8H1541.15V637.35H1561.25V651.3H1541.15ZM1691.42 645.75C1688.72 640.55 1684.97 636.65 1680.17 634.05C1675.37 631.35 1669.82 630 1663.52 630C1656.62 630 1650.47 631.55 1645.07 634.65C1639.67 637.75 1635.42 642.15 1632.32 647.85C1629.32 653.55 1627.82 660.15 1627.82 667.65C1627.82 675.15 1629.32 681.8 1632.32 687.6C1635.42 693.3 1639.67 697.7 1645.07 700.8C1650.47 703.9 1656.62 705.45 1663.52 705.45C1672.82 705.45 1680.37 702.85 1686.17 697.65C1691.97 692.45 1695.52 685.4 1696.82 676.5H1657.67V662.85H1715.12V676.2C1714.02 684.3 1711.12 691.75 1706.42 698.55C1701.82 705.35 1695.77 710.8 1688.27 714.9C1680.87 718.9 1672.62 720.9 1663.52 720.9C1653.72 720.9 1644.77 718.65 1636.67 714.15C1628.57 709.55 1622.12 703.2 1617.32 695.1C1612.62 687 1610.27 677.85 1610.27 667.65C1610.27 657.45 1612.62 648.3 1617.32 640.2C1622.12 632.1 1628.57 625.8 1636.67 621.3C1644.87 616.7 1653.82 614.4 1663.52 614.4C1674.62 614.4 1684.47 617.15 1693.07 622.65C1701.77 628.05 1708.07 635.75 1711.97 645.75H1691.42ZM1806.84 637.35V720H1789.74V710.25C1787.04 713.65 1783.49 716.35 1779.09 718.35C1774.79 720.25 1770.19 721.2 1765.29 721.2C1758.79 721.2 1752.94 719.85 1747.74 717.15C1742.64 714.45 1738.59 710.45 1735.59 705.15C1732.69 699.85 1731.24 693.45 1731.24 685.95V637.35H1748.19V683.4C1748.19 690.8 1750.04 696.5 1753.74 700.5C1757.44 704.4 1762.49 706.35 1768.89 706.35C1775.29 706.35 1780.34 704.4 1784.04 700.5C1787.84 696.5 1789.74 690.8 1789.74 683.4V637.35H1806.84ZM1838.1 626.4C1835 626.4 1832.4 625.35 1830.3 623.25C1828.2 621.15 1827.15 618.55 1827.15 615.45C1827.15 612.35 1828.2 609.75 1830.3 607.65C1832.4 605.55 1835 604.5 1838.1 604.5C1841.1 604.5 1843.65 605.55 1845.75 607.65C1847.85 609.75 1848.9 612.35 1848.9 615.45C1848.9 618.55 1847.85 621.15 1845.75 623.25C1843.65 625.35 1841.1 626.4 1838.1 626.4ZM1846.5 637.35V720H1829.4V637.35H1846.5ZM1863.25 678.3C1863.25 670 1864.95 662.65 1868.35 656.25C1871.85 649.85 1876.55 644.9 1882.45 641.4C1888.45 637.8 1895.1 636 1902.4 636C1907.8 636 1913.1 637.2 1918.3 639.6C1923.6 641.9 1927.8 645 1930.9 648.9V609H1948.15V720H1930.9V707.55C1928.1 711.55 1924.2 714.85 1919.2 717.45C1914.3 720.05 1908.65 721.35 1902.25 721.35C1895.05 721.35 1888.45 719.55 1882.45 715.95C1876.55 712.25 1871.85 707.15 1868.35 700.65C1864.95 694.05 1863.25 686.6 1863.25 678.3ZM1930.9 678.6C1930.9 672.9 1929.7 667.95 1927.3 663.75C1925 659.55 1921.95 656.35 1918.15 654.15C1914.35 651.95 1910.25 650.85 1905.85 650.85C1901.45 650.85 1897.35 651.95 1893.55 654.15C1889.75 656.25 1886.65 659.4 1884.25 663.6C1881.95 667.7 1880.8 672.6 1880.8 678.3C1880.8 684 1881.95 689 1884.25 693.3C1886.65 697.6 1889.75 700.9 1893.55 703.2C1897.45 705.4 1901.55 706.5 1905.85 706.5C1910.25 706.5 1914.35 705.4 1918.15 703.2C1921.95 701 1925 697.8 1927.3 693.6C1929.7 689.3 1930.9 684.3 1930.9 678.6ZM2046.36 676.65C2046.36 679.75 2046.16 682.55 2045.76 685.05H1982.61C1983.11 691.65 1985.56 696.95 1989.96 700.95C1994.36 704.95 1999.76 706.95 2006.16 706.95C2015.36 706.95 2021.86 703.1 2025.66 695.4H2044.11C2041.61 703 2037.06 709.25 2030.46 714.15C2023.96 718.95 2015.86 721.35 2006.16 721.35C1998.26 721.35 1991.16 719.6 1984.86 716.1C1978.66 712.5 1973.76 707.5 1970.16 701.1C1966.66 694.6 1964.91 687.1 1964.91 678.6C1964.91 670.1 1966.61 662.65 1970.01 656.25C1973.51 649.75 1978.36 644.75 1984.56 641.25C1990.86 637.75 1998.06 636 2006.16 636C2013.96 636 2020.91 637.7 2027.01 641.1C2033.11 644.5 2037.86 649.3 2041.26 655.5C2044.66 661.6 2046.36 668.65 2046.36 676.65ZM2028.51 671.25C2028.41 664.95 2026.16 659.9 2021.76 656.1C2017.36 652.3 2011.91 650.4 2005.41 650.4C1999.51 650.4 1994.46 652.3 1990.26 656.1C1986.06 659.8 1983.56 664.85 1982.76 671.25H2028.51Z" fill="#8C5A2E"/>
<path d="M819.58 435.8C799.046 435.8 780.646 432.467 764.38 425.8C748.113 419.133 735.046 409.267 725.18 396.2C715.58 383.133 710.513 367.4 709.98 349H782.78C783.846 359.4 787.446 367.4 793.58 373C799.713 378.333 807.713 381 817.58 381C827.713 381 835.713 378.733 841.58 374.2C847.446 369.4 850.38 362.867 850.38 354.6C850.38 347.667 847.98 341.933 843.18 337.4C838.646 332.867 832.913 329.133 825.98 326.2C819.313 323.267 809.713 319.933 797.18 316.2C779.046 310.6 764.246 305 752.78 299.4C741.313 293.8 731.446 285.533 723.18 274.6C714.913 263.667 710.78 249.4 710.78 231.8C710.78 205.667 720.246 185.267 739.18 170.6C758.113 155.667 782.78 148.2 813.18 148.2C844.113 148.2 869.046 155.667 887.98 170.6C906.913 185.267 917.046 205.8 918.38 232.2H844.38C843.846 223.133 840.513 216.067 834.38 211C828.246 205.667 820.38 203 810.78 203C802.513 203 795.846 205.267 790.78 209.8C785.713 214.067 783.18 220.333 783.18 228.6C783.18 237.667 787.446 244.733 795.98 249.8C804.513 254.867 817.846 260.333 835.98 266.2C854.113 272.333 868.78 278.2 879.98 283.8C891.446 289.4 901.313 297.533 909.58 308.2C917.846 318.867 921.98 332.6 921.98 349.4C921.98 365.4 917.846 379.933 909.58 393C901.58 406.067 889.846 416.467 874.38 424.2C858.913 431.933 840.646 435.8 819.58 435.8ZM1184.47 209.8V433H1116.07V402.6C1109.14 412.467 1099.67 420.467 1087.67 426.6C1075.94 432.467 1062.87 435.4 1048.47 435.4C1031.41 435.4 1016.34 431.667 1003.27 424.2C990.207 416.467 980.073 405.4 972.873 391C965.673 376.6 962.073 359.667 962.073 340.2V209.8H1030.07V331C1030.07 345.933 1033.94 357.533 1041.67 365.8C1049.41 374.067 1059.81 378.2 1072.87 378.2C1086.21 378.2 1096.74 374.067 1104.47 365.8C1112.21 357.533 1116.07 345.933 1116.07 331V209.8H1184.47ZM1318.4 206.6C1334.14 206.6 1347.87 209.8 1359.6 216.2C1371.6 222.6 1380.8 231 1387.2 241.4V209.8H1455.6V432.6C1455.6 453.133 1451.47 471.667 1443.2 488.2C1435.2 505 1422.8 518.333 1406 528.2C1389.47 538.067 1368.8 543 1344 543C1310.94 543 1284.14 535.133 1263.6 519.4C1243.07 503.933 1231.34 482.867 1228.4 456.2H1296C1298.14 464.733 1303.2 471.4 1311.2 476.2C1319.2 481.267 1329.07 483.8 1340.8 483.8C1354.94 483.8 1366.14 479.667 1374.4 471.4C1382.94 463.4 1387.2 450.467 1387.2 432.6V401C1380.54 411.4 1371.34 419.933 1359.6 426.6C1347.87 433 1334.14 436.2 1318.4 436.2C1300 436.2 1283.34 431.533 1268.4 422.2C1253.47 412.6 1241.6 399.133 1232.8 381.8C1224.27 364.2 1220 343.933 1220 321C1220 298.067 1224.27 277.933 1232.8 260.6C1241.6 243.267 1253.47 229.933 1268.4 220.6C1283.34 211.267 1300 206.6 1318.4 206.6ZM1387.2 321.4C1387.2 304.333 1382.4 290.867 1372.8 281C1363.47 271.133 1352 266.2 1338.4 266.2C1324.8 266.2 1313.2 271.133 1303.6 281C1294.27 290.6 1289.6 303.933 1289.6 321C1289.6 338.067 1294.27 351.667 1303.6 361.8C1313.2 371.667 1324.8 376.6 1338.4 376.6C1352 376.6 1363.47 371.667 1372.8 361.8C1382.4 351.933 1387.2 338.467 1387.2 321.4ZM1491.49 321C1491.49 298.067 1495.76 277.933 1504.29 260.6C1513.09 243.267 1524.96 229.933 1539.89 220.6C1554.82 211.267 1571.49 206.6 1589.89 206.6C1605.62 206.6 1619.36 209.8 1631.09 216.2C1643.09 222.6 1652.29 231 1658.69 241.4V209.8H1727.09V433H1658.69V401.4C1652.02 411.8 1642.69 420.2 1630.69 426.6C1618.96 433 1605.22 436.2 1589.49 436.2C1571.36 436.2 1554.82 431.533 1539.89 422.2C1524.96 412.6 1513.09 399.133 1504.29 381.8C1495.76 364.2 1491.49 343.933 1491.49 321ZM1658.69 321.4C1658.69 304.333 1653.89 290.867 1644.29 281C1634.96 271.133 1623.49 266.2 1609.89 266.2C1596.29 266.2 1584.69 271.133 1575.09 281C1565.76 290.6 1561.09 303.933 1561.09 321C1561.09 338.067 1565.76 351.667 1575.09 361.8C1584.69 371.667 1596.29 376.6 1609.89 376.6C1623.49 376.6 1634.96 371.667 1644.29 361.8C1653.89 351.933 1658.69 338.467 1658.69 321.4ZM1844.97 247C1852.97 234.733 1862.97 225.133 1874.97 218.2C1886.97 211 1900.31 207.4 1914.97 207.4V279.8H1896.17C1879.11 279.8 1866.31 283.533 1857.77 291C1849.24 298.2 1844.97 311 1844.97 329.4V433H1776.57V209.8H1844.97V247ZM2149.67 152.2V207H2075.27V433H2006.87V207H1932.47V152.2H2149.67ZM2285.6 436.2C2263.73 436.2 2244 431.533 2226.4 422.2C2209.06 412.867 2195.33 399.533 2185.2 382.2C2175.33 364.867 2170.4 344.6 2170.4 321.4C2170.4 298.467 2175.46 278.333 2185.6 261C2195.73 243.4 2209.6 229.933 2227.2 220.6C2244.8 211.267 2264.53 206.6 2286.4 206.6C2308.26 206.6 2328 211.267 2345.6 220.6C2363.2 229.933 2377.06 243.4 2387.2 261C2397.33 278.333 2402.4 298.467 2402.4 321.4C2402.4 344.333 2397.2 364.6 2386.8 382.2C2376.66 399.533 2362.66 412.867 2344.8 422.2C2327.2 431.533 2307.46 436.2 2285.6 436.2ZM2285.6 377C2298.66 377 2309.73 372.2 2318.8 362.6C2328.13 353 2332.8 339.267 2332.8 321.4C2332.8 303.533 2328.26 289.8 2319.2 280.2C2310.4 270.6 2299.46 265.8 2286.4 265.8C2273.06 265.8 2262 270.6 2253.2 280.2C2244.4 289.533 2240 303.267 2240 321.4C2240 339.267 2244.26 353 2252.8 362.6C2261.6 372.2 2272.53 377 2285.6 377ZM2507.08 241.4C2513.75 231 2522.95 222.6 2534.68 216.2C2546.42 209.8 2560.15 206.6 2575.88 206.6C2594.28 206.6 2610.95 211.267 2625.88 220.6C2640.82 229.933 2652.55 243.267 2661.08 260.6C2669.88 277.933 2674.28 298.067 2674.28 321C2674.28 343.933 2669.88 364.2 2661.08 381.8C2652.55 399.133 2640.82 412.6 2625.88 422.2C2610.95 431.533 2594.28 436.2 2575.88 436.2C2560.42 436.2 2546.68 433 2534.68 426.6C2522.95 420.2 2513.75 411.933 2507.08 401.8V539.4H2438.68V209.8H2507.08V241.4ZM2604.68 321C2604.68 303.933 2599.88 290.6 2590.28 281C2580.95 271.133 2569.35 266.2 2555.48 266.2C2541.88 266.2 2530.28 271.133 2520.68 281C2511.35 290.867 2506.68 304.333 2506.68 321.4C2506.68 338.467 2511.35 351.933 2520.68 361.8C2530.28 371.667 2541.88 376.6 2555.48 376.6C2569.08 376.6 2580.68 371.667 2590.28 361.8C2599.88 351.667 2604.68 338.067 2604.68 321ZM2744.57 186.6C2732.57 186.6 2722.7 183.133 2714.97 176.2C2707.5 169 2703.77 160.2 2703.77 149.8C2703.77 139.133 2707.5 130.333 2714.97 123.4C2722.7 116.2 2732.57 112.6 2744.57 112.6C2756.3 112.6 2765.9 116.2 2773.37 123.4C2781.1 130.333 2784.97 139.133 2784.97 149.8C2784.97 160.2 2781.1 169 2773.37 176.2C2765.9 183.133 2756.3 186.6 2744.57 186.6ZM2778.57 209.8V433H2710.17V209.8H2778.57ZM2814.54 321C2814.54 298.067 2818.8 277.933 2827.34 260.6C2836.14 243.267 2848 229.933 2862.94 220.6C2877.87 211.267 2894.54 206.6 2912.94 206.6C2928.67 206.6 2942.4 209.8 2954.14 216.2C2966.14 222.6 2975.34 231 2981.74 241.4V209.8H3050.14V433H2981.74V401.4C2975.07 411.8 2965.74 420.2 2953.74 426.6C2942 433 2928.27 436.2 2912.54 436.2C2894.4 436.2 2877.87 431.533 2862.94 422.2C2848 412.6 2836.14 399.133 2827.34 381.8C2818.8 364.2 2814.54 343.933 2814.54 321ZM2981.74 321.4C2981.74 304.333 2976.94 290.867 2967.34 281C2958 271.133 2946.54 266.2 2932.94 266.2C2919.34 266.2 2907.74 271.133 2898.14 281C2888.8 290.6 2884.14 303.933 2884.14 321C2884.14 338.067 2888.8 351.667 2898.14 361.8C2907.74 371.667 2919.34 376.6 2932.94 376.6C2946.54 376.6 2958 371.667 2967.34 361.8C2976.94 351.933 2981.74 338.467 2981.74 321.4Z" fill="#8C5A2E"/>
<mask id="path-3-inside-1_226_2727" fill="white">
<path d="M10.0002 321.237C10.0002 489.815 146.66 626.474 315.237 626.474C483.815 626.474 620.475 489.815 620.475 321.237C620.475 152.659 483.815 16 315.237 16C146.66 16 10.0002 152.659 10.0002 321.237ZM505.376 321.237C505.376 426.248 420.248 511.376 315.237 511.376C210.227 511.376 125.099 426.248 125.099 321.237C125.099 216.227 210.227 131.099 315.237 131.099C420.248 131.099 505.376 216.227 505.376 321.237Z"/>
</mask>
<path d="M10.0002 321.237C10.0002 489.815 146.66 626.474 315.237 626.474C483.815 626.474 620.475 489.815 620.475 321.237C620.475 152.659 483.815 16 315.237 16C146.66 16 10.0002 152.659 10.0002 321.237ZM505.376 321.237C505.376 426.248 420.248 511.376 315.237 511.376C210.227 511.376 125.099 426.248 125.099 321.237C125.099 216.227 210.227 131.099 315.237 131.099C420.248 131.099 505.376 216.227 505.376 321.237Z" fill="#FCDC94" stroke="#8C5A2E" stroke-width="40" mask="url(#path-3-inside-1_226_2727)"/>
<path d="M440 294.706V365.413C440 404.467 384.037 436.12 315 436.12C245.963 436.12 190 404.467 190 365.413V294.706" fill="#FCDC94"/>
<path d="M440 294.706V365.413C440 404.467 384.037 436.12 315 436.12C245.963 436.12 190 404.467 190 365.413V294.706" stroke="#8C5A2E" stroke-width="20" stroke-linecap="round" stroke-linejoin="round"/>
<path d="M440 294.707C440 333.761 384.037 365.414 315 365.414C245.963 365.414 190 333.761 190 294.707C190 255.653 245.963 224 315 224C384.037 224 440 255.653 440 294.707Z" fill="#FCDC94" stroke="#8C5A2E" stroke-width="20" stroke-linecap="round" stroke-linejoin="round"/>
<path d="M315 269.418C352.5 252.766 377.5 279.588 377.5 292.138C377.5 329.495 252.5 327.551 252.5 281.532C252.5 253.438 277.5 224 315 224" fill="#FCDC94"/>
<path d="M315 269.418C352.5 252.766 377.5 279.588 377.5 292.138C377.5 329.495 252.5 327.551 252.5 281.532C252.5 253.438 277.5 224 315 224" stroke="#8C5A2E" stroke-width="20" stroke-linecap="round" stroke-linejoin="round"/>
<ellipse cx="6.32183" cy="6.32183" rx="6.32183" ry="6.32183" transform="matrix(0.997756 -0.06695 0.0413471 0.999145 322 383.474)" fill="#8C5A2E"/>
<ellipse cx="6.32183" cy="6.32183" rx="6.32183" ry="6.32183" transform="matrix(0.997756 -0.06695 0.0413471 0.999145 363.862 381.721)" fill="#8C5A2E"/>
<path d="M332.325 406.543C331.86 408.02 332.595 409.831 334.039 410.457C339.602 412.872 345.478 413.799 351.228 413.157C357.1 412.502 362.663 410.23 367.489 406.535C368.541 405.73 368.669 404.054 367.863 402.776C366.966 401.352 365.29 400.973 364.16 401.811C360.042 404.863 355.336 406.739 350.383 407.292C345.46 407.841 340.436 407.067 335.673 405.042C334.29 404.454 332.794 405.05 332.325 406.543Z" fill="#8C5A2E" stroke="#8C5A2E"/>
</svg>
