<svg width="2223" height="592" viewBox="0 0 2223 592" fill="none" xmlns="http://www.w3.org/2000/svg">
<path d="M468 154.807V293.616C468 370.285 366.82 432.425 242 432.425C117.18 432.425 16 370.285 16 293.616V154.807" fill="#FCDC94"/>
<path d="M468 154.807V293.616C468 370.285 366.82 432.425 242 432.425C117.18 432.425 16 370.285 16 293.616V154.807" stroke="#8C5A2E" stroke-width="32" stroke-linecap="round" stroke-linejoin="round"/>
<path d="M468 154.809C468 231.478 366.82 293.618 242 293.618C117.18 293.618 16 231.478 16 154.809C16 78.1401 117.18 16 242 16C366.82 16 468 78.1401 468 154.809Z" fill="#FCDC94" stroke="#8C5A2E" stroke-width="32" stroke-linecap="round" stroke-linejoin="round"/>
<path d="M242 105.162C309.8 72.4721 355 125.127 355 149.765C355 223.103 129 219.286 129 128.944C129 73.7907 174.2 16 242 16" fill="#FCDC94"/>
<path d="M242 105.162C309.8 72.4721 355 125.127 355 149.765C355 223.103 129 219.286 129 128.944C129 73.7907 174.2 16 242 16" stroke="#8C5A2E" stroke-width="32" stroke-linecap="round" stroke-linejoin="round"/>
<ellipse cx="13.5" cy="13.7535" rx="13.5" ry="13.7535" transform="matrix(0.997671 -0.0682092 0.0405816 0.999176 243 328.418)" fill="#8C5A2E"/>
<ellipse cx="13.5" cy="13.7535" rx="13.5" ry="13.7535" transform="matrix(0.997671 -0.0682092 0.0405816 0.999176 328.316 324.776)" fill="#8C5A2E"/>
<path d="M267.605 384.441C278.925 389.435 290.878 391.352 302.574 390.022C314.561 388.659 325.916 383.928 335.761 376.232C337.859 374.592 338.106 371.194 336.487 368.577C334.654 365.615 331.214 364.807 328.916 366.541C320.523 372.874 310.933 376.766 300.844 377.913C290.828 379.052 280.606 377.453 270.914 373.265C268.074 372.038 265.015 373.253 264.064 376.334C263.124 379.382 264.643 383.134 267.605 384.441Z" fill="#8C5A2E" stroke="#8C5A2E" stroke-width="2"/>
<path d="M640.563 465.75L606.063 532.2V570H588.963V532.2L554.313 465.75H573.363L597.513 516.9L621.663 465.75H640.563ZM689.983 571.35C682.183 571.35 675.133 569.6 668.833 566.1C662.533 562.5 657.583 557.5 653.983 551.1C650.383 544.6 648.583 537.1 648.583 528.6C648.583 520.2 650.433 512.75 654.133 506.25C657.833 499.75 662.883 494.75 669.283 491.25C675.683 487.75 682.833 486 690.733 486C698.633 486 705.783 487.75 712.183 491.25C718.583 494.75 723.633 499.75 727.333 506.25C731.033 512.75 732.883 520.2 732.883 528.6C732.883 537 730.983 544.45 727.183 550.95C723.383 557.45 718.183 562.5 711.583 566.1C705.083 569.6 697.883 571.35 689.983 571.35ZM689.983 556.5C694.383 556.5 698.483 555.45 702.283 553.35C706.183 551.25 709.333 548.1 711.733 543.9C714.133 539.7 715.333 534.6 715.333 528.6C715.333 522.6 714.183 517.55 711.883 513.45C709.583 509.25 706.533 506.1 702.733 504C698.933 501.9 694.833 500.85 690.433 500.85C686.033 500.85 681.933 501.9 678.133 504C674.433 506.1 671.483 509.25 669.283 513.45C667.083 517.55 665.983 522.6 665.983 528.6C665.983 537.5 668.233 544.4 672.733 549.3C677.333 554.1 683.083 556.5 689.983 556.5ZM824.637 487.35V570H807.537V560.25C804.837 563.65 801.287 566.35 796.887 568.35C792.587 570.25 787.987 571.2 783.087 571.2C776.587 571.2 770.737 569.85 765.537 567.15C760.437 564.45 756.387 560.45 753.387 555.15C750.487 549.85 749.037 543.45 749.037 535.95V487.35H765.987V533.4C765.987 540.8 767.837 546.5 771.537 550.5C775.237 554.4 780.287 556.35 786.687 556.35C793.087 556.35 798.137 554.4 801.837 550.5C805.637 546.5 807.537 540.8 807.537 533.4V487.35H824.637ZM864.299 499.35C866.799 495.15 870.099 491.9 874.199 489.6C878.399 487.2 883.349 486 889.049 486V503.7H884.699C877.999 503.7 872.899 505.4 869.399 508.8C865.999 512.2 864.299 518.1 864.299 526.5V570H847.199V487.35H864.299V499.35ZM978.082 571.05C971.082 571.05 964.782 569.85 959.182 567.45C953.582 564.95 949.182 561.45 945.982 556.95C942.782 552.45 941.182 547.2 941.182 541.2H959.482C959.882 545.7 961.632 549.4 964.732 552.3C967.932 555.2 972.382 556.65 978.082 556.65C983.982 556.65 988.582 555.25 991.882 552.45C995.182 549.55 996.832 545.85 996.832 541.35C996.832 537.85 995.782 535 993.682 532.8C991.682 530.6 989.132 528.9 986.032 527.7C983.032 526.5 978.832 525.2 973.432 523.8C966.632 522 961.082 520.2 956.782 518.4C952.582 516.5 948.982 513.6 945.982 509.7C942.982 505.8 941.482 500.6 941.482 494.1C941.482 488.1 942.982 482.85 945.982 478.35C948.982 473.85 953.182 470.4 958.582 468C963.982 465.6 970.232 464.4 977.332 464.4C987.432 464.4 995.682 466.95 1002.08 472.05C1008.58 477.05 1012.18 483.95 1012.88 492.75H993.982C993.682 488.95 991.882 485.7 988.582 483C985.282 480.3 980.932 478.95 975.532 478.95C970.632 478.95 966.632 480.2 963.532 482.7C960.432 485.2 958.882 488.8 958.882 493.5C958.882 496.7 959.832 499.35 961.732 501.45C963.732 503.45 966.232 505.05 969.232 506.25C972.232 507.45 976.332 508.75 981.532 510.15C988.432 512.05 994.032 513.95 998.332 515.85C1002.73 517.75 1006.43 520.7 1009.43 524.7C1012.53 528.6 1014.08 533.85 1014.08 540.45C1014.08 545.75 1012.63 550.75 1009.73 555.45C1006.93 560.15 1002.78 563.95 997.282 566.85C991.882 569.65 985.482 571.05 978.082 571.05ZM1145.26 487.35L1119.61 570H1101.61L1084.96 508.95L1068.31 570H1050.31L1024.51 487.35H1041.91L1059.16 553.8L1076.71 487.35H1094.56L1111.36 553.5L1128.46 487.35H1145.26ZM1233.79 526.65C1233.79 529.75 1233.59 532.55 1233.19 535.05H1170.04C1170.54 541.65 1172.99 546.95 1177.39 550.95C1181.79 554.95 1187.19 556.95 1193.59 556.95C1202.79 556.95 1209.29 553.1 1213.09 545.4H1231.54C1229.04 553 1224.49 559.25 1217.89 564.15C1211.39 568.95 1203.29 571.35 1193.59 571.35C1185.69 571.35 1178.59 569.6 1172.29 566.1C1166.09 562.5 1161.19 557.5 1157.59 551.1C1154.09 544.6 1152.34 537.1 1152.34 528.6C1152.34 520.1 1154.04 512.65 1157.44 506.25C1160.94 499.75 1165.79 494.75 1171.99 491.25C1178.29 487.75 1185.49 486 1193.59 486C1201.39 486 1208.34 487.7 1214.44 491.1C1220.54 494.5 1225.29 499.3 1228.69 505.5C1232.09 511.6 1233.79 518.65 1233.79 526.65ZM1215.94 521.25C1215.84 514.95 1213.59 509.9 1209.19 506.1C1204.79 502.3 1199.34 500.4 1192.84 500.4C1186.94 500.4 1181.89 502.3 1177.69 506.1C1173.49 509.8 1170.99 514.85 1170.19 521.25H1215.94ZM1326.37 526.65C1326.37 529.75 1326.17 532.55 1325.77 535.05H1262.62C1263.12 541.65 1265.57 546.95 1269.97 550.95C1274.37 554.95 1279.77 556.95 1286.17 556.95C1295.37 556.95 1301.87 553.1 1305.67 545.4H1324.12C1321.62 553 1317.07 559.25 1310.47 564.15C1303.97 568.95 1295.87 571.35 1286.17 571.35C1278.27 571.35 1271.17 569.6 1264.87 566.1C1258.67 562.5 1253.77 557.5 1250.17 551.1C1246.67 544.6 1244.92 537.1 1244.92 528.6C1244.92 520.1 1246.62 512.65 1250.02 506.25C1253.52 499.75 1258.37 494.75 1264.57 491.25C1270.87 487.75 1278.07 486 1286.17 486C1293.97 486 1300.92 487.7 1307.02 491.1C1313.12 494.5 1317.87 499.3 1321.27 505.5C1324.67 511.6 1326.37 518.65 1326.37 526.65ZM1308.52 521.25C1308.42 514.95 1306.17 509.9 1301.77 506.1C1297.37 502.3 1291.92 500.4 1285.42 500.4C1279.52 500.4 1274.47 502.3 1270.27 506.1C1266.07 509.8 1263.57 514.85 1262.77 521.25H1308.52ZM1363.15 501.3V547.05C1363.15 550.15 1363.85 552.4 1365.25 553.8C1366.75 555.1 1369.25 555.75 1372.75 555.75H1383.25V570H1369.75C1362.05 570 1356.15 568.2 1352.05 564.6C1347.95 561 1345.9 555.15 1345.9 547.05V501.3H1336.15V487.35H1345.9V466.8H1363.15V487.35H1383.25V501.3H1363.15ZM1513.42 495.75C1510.72 490.55 1506.97 486.65 1502.17 484.05C1497.37 481.35 1491.82 480 1485.52 480C1478.62 480 1472.47 481.55 1467.07 484.65C1461.67 487.75 1457.42 492.15 1454.32 497.85C1451.32 503.55 1449.82 510.15 1449.82 517.65C1449.82 525.15 1451.32 531.8 1454.32 537.6C1457.42 543.3 1461.67 547.7 1467.07 550.8C1472.47 553.9 1478.62 555.45 1485.52 555.45C1494.82 555.45 1502.37 552.85 1508.17 547.65C1513.97 542.45 1517.52 535.4 1518.82 526.5H1479.67V512.85H1537.12V526.2C1536.02 534.3 1533.12 541.75 1528.42 548.55C1523.82 555.35 1517.77 560.8 1510.27 564.9C1502.87 568.9 1494.62 570.9 1485.52 570.9C1475.72 570.9 1466.77 568.65 1458.67 564.15C1450.57 559.55 1444.12 553.2 1439.32 545.1C1434.62 537 1432.27 527.85 1432.27 517.65C1432.27 507.45 1434.62 498.3 1439.32 490.2C1444.12 482.1 1450.57 475.8 1458.67 471.3C1466.87 466.7 1475.82 464.4 1485.52 464.4C1496.62 464.4 1506.47 467.15 1515.07 472.65C1523.77 478.05 1530.07 485.75 1533.97 495.75H1513.42ZM1628.84 487.35V570H1611.74V560.25C1609.04 563.65 1605.49 566.35 1601.09 568.35C1596.79 570.25 1592.19 571.2 1587.29 571.2C1580.79 571.2 1574.94 569.85 1569.74 567.15C1564.64 564.45 1560.59 560.45 1557.59 555.15C1554.69 549.85 1553.24 543.45 1553.24 535.95V487.35H1570.19V533.4C1570.19 540.8 1572.04 546.5 1575.74 550.5C1579.44 554.4 1584.49 556.35 1590.89 556.35C1597.29 556.35 1602.34 554.4 1606.04 550.5C1609.84 546.5 1611.74 540.8 1611.74 533.4V487.35H1628.84ZM1660.1 476.4C1657 476.4 1654.4 475.35 1652.3 473.25C1650.2 471.15 1649.15 468.55 1649.15 465.45C1649.15 462.35 1650.2 459.75 1652.3 457.65C1654.4 455.55 1657 454.5 1660.1 454.5C1663.1 454.5 1665.65 455.55 1667.75 457.65C1669.85 459.75 1670.9 462.35 1670.9 465.45C1670.9 468.55 1669.85 471.15 1667.75 473.25C1665.65 475.35 1663.1 476.4 1660.1 476.4ZM1668.5 487.35V570H1651.4V487.35H1668.5ZM1685.25 528.3C1685.25 520 1686.95 512.65 1690.35 506.25C1693.85 499.85 1698.55 494.9 1704.45 491.4C1710.45 487.8 1717.1 486 1724.4 486C1729.8 486 1735.1 487.2 1740.3 489.6C1745.6 491.9 1749.8 495 1752.9 498.9V459H1770.15V570H1752.9V557.55C1750.1 561.55 1746.2 564.85 1741.2 567.45C1736.3 570.05 1730.65 571.35 1724.25 571.35C1717.05 571.35 1710.45 569.55 1704.45 565.95C1698.55 562.25 1693.85 557.15 1690.35 550.65C1686.95 544.05 1685.25 536.6 1685.25 528.3ZM1752.9 528.6C1752.9 522.9 1751.7 517.95 1749.3 513.75C1747 509.55 1743.95 506.35 1740.15 504.15C1736.35 501.95 1732.25 500.85 1727.85 500.85C1723.45 500.85 1719.35 501.95 1715.55 504.15C1711.75 506.25 1708.65 509.4 1706.25 513.6C1703.95 517.7 1702.8 522.6 1702.8 528.3C1702.8 534 1703.95 539 1706.25 543.3C1708.65 547.6 1711.75 550.9 1715.55 553.2C1719.45 555.4 1723.55 556.5 1727.85 556.5C1732.25 556.5 1736.35 555.4 1740.15 553.2C1743.95 551 1747 547.8 1749.3 543.6C1751.7 539.3 1752.9 534.3 1752.9 528.6ZM1868.36 526.65C1868.36 529.75 1868.16 532.55 1867.76 535.05H1804.61C1805.11 541.65 1807.56 546.95 1811.96 550.95C1816.36 554.95 1821.76 556.95 1828.16 556.95C1837.36 556.95 1843.86 553.1 1847.66 545.4H1866.11C1863.61 553 1859.06 559.25 1852.46 564.15C1845.96 568.95 1837.86 571.35 1828.16 571.35C1820.26 571.35 1813.16 569.6 1806.86 566.1C1800.66 562.5 1795.76 557.5 1792.16 551.1C1788.66 544.6 1786.91 537.1 1786.91 528.6C1786.91 520.1 1788.61 512.65 1792.01 506.25C1795.51 499.75 1800.36 494.75 1806.56 491.25C1812.86 487.75 1820.06 486 1828.16 486C1835.96 486 1842.91 487.7 1849.01 491.1C1855.11 494.5 1859.86 499.3 1863.26 505.5C1866.66 511.6 1868.36 518.65 1868.36 526.65ZM1850.51 521.25C1850.41 514.95 1848.16 509.9 1843.76 506.1C1839.36 502.3 1833.91 500.4 1827.41 500.4C1821.51 500.4 1816.46 502.3 1812.26 506.1C1808.06 509.8 1805.56 514.85 1804.76 521.25H1850.51Z" fill="#8C5A2E"/>
<path d="M639.185 349.1C623.785 349.1 609.985 346.6 597.785 341.6C585.585 336.6 575.785 329.2 568.385 319.4C561.185 309.6 557.385 297.8 556.985 284H611.585C612.385 291.8 615.085 297.8 619.685 302C624.285 306 630.285 308 637.685 308C645.285 308 651.285 306.3 655.685 302.9C660.085 299.3 662.285 294.4 662.285 288.2C662.285 283 660.485 278.7 656.885 275.3C653.485 271.9 649.185 269.1 643.985 266.9C638.985 264.7 631.785 262.2 622.385 259.4C608.785 255.2 597.685 251 589.085 246.8C580.485 242.6 573.085 236.4 566.885 228.2C560.685 220 557.585 209.3 557.585 196.1C557.585 176.5 564.685 161.2 578.885 150.2C593.085 139 611.585 133.4 634.385 133.4C657.585 133.4 676.285 139 690.485 150.2C704.685 161.2 712.285 176.6 713.285 196.4H657.785C657.385 189.6 654.885 184.3 650.285 180.5C645.685 176.5 639.785 174.5 632.585 174.5C626.385 174.5 621.385 176.2 617.585 179.6C613.785 182.8 611.885 187.5 611.885 193.7C611.885 200.5 615.085 205.8 621.485 209.6C627.885 213.4 637.885 217.5 651.485 221.9C665.085 226.5 676.085 230.9 684.485 235.1C693.085 239.3 700.485 245.4 706.685 253.4C712.885 261.4 715.985 271.7 715.985 284.3C715.985 296.3 712.885 307.2 706.685 317C700.685 326.8 691.885 334.6 680.285 340.4C668.685 346.2 654.985 349.1 639.185 349.1ZM900.855 179.6V347H849.555V324.2C844.355 331.6 837.255 337.6 828.255 342.2C819.455 346.6 809.655 348.8 798.855 348.8C786.055 348.8 774.755 346 764.955 340.4C755.155 334.6 747.555 326.3 742.155 315.5C736.755 304.7 734.055 292 734.055 277.4V179.6H785.055V270.5C785.055 281.7 787.955 290.4 793.755 296.6C799.555 302.8 807.355 305.9 817.155 305.9C827.155 305.9 835.055 302.8 840.855 296.6C846.655 290.4 849.555 281.7 849.555 270.5V179.6H900.855ZM989.304 177.2C1001.1 177.2 1011.4 179.6 1020.2 184.4C1029.2 189.2 1036.1 195.5 1040.9 203.3V179.6H1092.2V346.7C1092.2 362.1 1089.1 376 1082.9 388.4C1076.9 401 1067.6 411 1055 418.4C1042.6 425.8 1027.1 429.5 1008.5 429.5C983.704 429.5 963.604 423.6 948.204 411.8C932.804 400.2 924.004 384.4 921.804 364.4H972.504C974.104 370.8 977.904 375.8 983.904 379.4C989.904 383.2 997.304 385.1 1006.1 385.1C1016.7 385.1 1025.1 382 1031.3 375.8C1037.7 369.8 1040.9 360.1 1040.9 346.7V323C1035.9 330.8 1029 337.2 1020.2 342.2C1011.4 347 1001.1 349.4 989.304 349.4C975.504 349.4 963.004 345.9 951.804 338.9C940.604 331.7 931.704 321.6 925.104 308.6C918.704 295.4 915.504 280.2 915.504 263C915.504 245.8 918.704 230.7 925.104 217.7C931.704 204.7 940.604 194.7 951.804 187.7C963.004 180.7 975.504 177.2 989.304 177.2ZM1040.9 263.3C1040.9 250.5 1037.3 240.4 1030.1 233C1023.1 225.6 1014.5 221.9 1004.3 221.9C994.104 221.9 985.404 225.6 978.204 233C971.204 240.2 967.704 250.2 967.704 263C967.704 275.8 971.204 286 978.204 293.6C985.404 301 994.104 304.7 1004.3 304.7C1014.5 304.7 1023.1 301 1030.1 293.6C1037.3 286.2 1040.9 276.1 1040.9 263.3ZM1107.12 263C1107.12 245.8 1110.32 230.7 1116.72 217.7C1123.32 204.7 1132.22 194.7 1143.42 187.7C1154.62 180.7 1167.12 177.2 1180.92 177.2C1192.72 177.2 1203.02 179.6 1211.82 184.4C1220.82 189.2 1227.72 195.5 1232.52 203.3V179.6H1283.82V347H1232.52V323.3C1227.52 331.1 1220.52 337.4 1211.52 342.2C1202.72 347 1192.42 349.4 1180.62 349.4C1167.02 349.4 1154.62 345.9 1143.42 338.9C1132.22 331.7 1123.32 321.6 1116.72 308.6C1110.32 295.4 1107.12 280.2 1107.12 263ZM1232.52 263.3C1232.52 250.5 1228.92 240.4 1221.72 233C1214.72 225.6 1206.12 221.9 1195.92 221.9C1185.72 221.9 1177.02 225.6 1169.82 233C1162.82 240.2 1159.32 250.2 1159.32 263C1159.32 275.8 1162.82 286 1169.82 293.6C1177.02 301 1185.72 304.7 1195.92 304.7C1206.12 304.7 1214.72 301 1221.72 293.6C1228.92 286.2 1232.52 276.1 1232.52 263.3ZM1360.23 207.5C1366.23 198.3 1373.73 191.1 1382.73 185.9C1391.73 180.5 1401.73 177.8 1412.73 177.8V232.1H1398.63C1385.83 232.1 1376.23 234.9 1369.83 240.5C1363.43 245.9 1360.23 255.5 1360.23 269.3V347H1308.93V179.6H1360.23V207.5ZM1576.75 136.4V177.5H1520.95V347H1469.65V177.5H1413.85V136.4H1576.75ZM1666.7 349.4C1650.3 349.4 1635.5 345.9 1622.3 338.9C1609.3 331.9 1599 321.9 1591.4 308.9C1584 295.9 1580.3 280.7 1580.3 263.3C1580.3 246.1 1584.1 231 1591.7 218C1599.3 204.8 1609.7 194.7 1622.9 187.7C1636.1 180.7 1650.9 177.2 1667.3 177.2C1683.7 177.2 1698.5 180.7 1711.7 187.7C1724.9 194.7 1735.3 204.8 1742.9 218C1750.5 231 1754.3 246.1 1754.3 263.3C1754.3 280.5 1750.4 295.7 1742.6 308.9C1735 321.9 1724.5 331.9 1711.1 338.9C1697.9 345.9 1683.1 349.4 1666.7 349.4ZM1666.7 305C1676.5 305 1684.8 301.4 1691.6 294.2C1698.6 287 1702.1 276.7 1702.1 263.3C1702.1 249.9 1698.7 239.6 1691.9 232.4C1685.3 225.2 1677.1 221.6 1667.3 221.6C1657.3 221.6 1649 225.2 1642.4 232.4C1635.8 239.4 1632.5 249.7 1632.5 263.3C1632.5 276.7 1635.7 287 1642.1 294.2C1648.7 301.4 1656.9 305 1666.7 305ZM1820.81 203.3C1825.81 195.5 1832.71 189.2 1841.51 184.4C1850.31 179.6 1860.61 177.2 1872.41 177.2C1886.21 177.2 1898.71 180.7 1909.91 187.7C1921.11 194.7 1929.91 204.7 1936.31 217.7C1942.91 230.7 1946.21 245.8 1946.21 263C1946.21 280.2 1942.91 295.4 1936.31 308.6C1929.91 321.6 1921.11 331.7 1909.91 338.9C1898.71 345.9 1886.21 349.4 1872.41 349.4C1860.81 349.4 1850.51 347 1841.51 342.2C1832.71 337.4 1825.81 331.2 1820.81 323.6V426.8H1769.51V179.6H1820.81V203.3ZM1894.01 263C1894.01 250.2 1890.41 240.2 1883.21 233C1876.21 225.6 1867.51 221.9 1857.11 221.9C1846.91 221.9 1838.21 225.6 1831.01 233C1824.01 240.4 1820.51 250.5 1820.51 263.3C1820.51 276.1 1824.01 286.2 1831.01 293.6C1838.21 301 1846.91 304.7 1857.11 304.7C1867.31 304.7 1876.01 301 1883.21 293.6C1890.41 286 1894.01 275.8 1894.01 263ZM1986.93 162.2C1977.93 162.2 1970.53 159.6 1964.73 154.4C1959.13 149 1956.33 142.4 1956.33 134.6C1956.33 126.6 1959.13 120 1964.73 114.8C1970.53 109.4 1977.93 106.7 1986.93 106.7C1995.73 106.7 2002.93 109.4 2008.53 114.8C2014.33 120 2017.23 126.6 2017.23 134.6C2017.23 142.4 2014.33 149 2008.53 154.4C2002.93 159.6 1995.73 162.2 1986.93 162.2ZM2012.43 179.6V347H1961.13V179.6H2012.43ZM2027.4 263C2027.4 245.8 2030.6 230.7 2037 217.7C2043.6 204.7 2052.5 194.7 2063.7 187.7C2074.9 180.7 2087.4 177.2 2101.2 177.2C2113 177.2 2123.3 179.6 2132.1 184.4C2141.1 189.2 2148 195.5 2152.8 203.3V179.6H2204.1V347H2152.8V323.3C2147.8 331.1 2140.8 337.4 2131.8 342.2C2123 347 2112.7 349.4 2100.9 349.4C2087.3 349.4 2074.9 345.9 2063.7 338.9C2052.5 331.7 2043.6 321.6 2037 308.6C2030.6 295.4 2027.4 280.2 2027.4 263ZM2152.8 263.3C2152.8 250.5 2149.2 240.4 2142 233C2135 225.6 2126.4 221.9 2116.2 221.9C2106 221.9 2097.3 225.6 2090.1 233C2083.1 240.2 2079.6 250.2 2079.6 263C2079.6 275.8 2083.1 286 2090.1 293.6C2097.3 301 2106 304.7 2116.2 304.7C2126.4 304.7 2135 301 2142 293.6C2149.2 286.2 2152.8 276.1 2152.8 263.3Z" fill="#8C5A2E"/>
</svg>
