<svg width="2751" height="740" viewBox="0 0 2751 740" fill="none" xmlns="http://www.w3.org/2000/svg">
<mask id="path-1-inside-1_226_2780" fill="white">
<path d="M0.00213623 317.237C0.00213623 485.815 136.661 622.474 305.239 622.474C473.817 622.474 610.477 485.815 610.477 317.237C610.477 148.659 473.817 12 305.239 12C136.661 12 0.00213623 148.659 0.00213623 317.237ZM464.478 317.237C464.478 405.182 393.184 476.476 305.239 476.476C217.294 476.476 146.001 405.182 146.001 317.237C146.001 229.292 217.294 157.999 305.239 157.999C393.184 157.999 464.478 229.292 464.478 317.237Z"/>
</mask>
<path d="M0.00213623 317.237C0.00213623 485.815 136.661 622.474 305.239 622.474C473.817 622.474 610.477 485.815 610.477 317.237C610.477 148.659 473.817 12 305.239 12C136.661 12 0.00213623 148.659 0.00213623 317.237ZM464.478 317.237C464.478 405.182 393.184 476.476 305.239 476.476C217.294 476.476 146.001 405.182 146.001 317.237C146.001 229.292 217.294 157.999 305.239 157.999C393.184 157.999 464.478 229.292 464.478 317.237Z" fill="#FCDC94" stroke="#8C5A2E" stroke-width="40" mask="url(#path-1-inside-1_226_2780)"/>
<rect x="13.7079" y="-1.06498" width="130" height="230" rx="65" transform="matrix(0.629143 -0.777289 0.741646 0.670791 497.358 562.959)" fill="#FCDC94" stroke="#8C5A2E" stroke-width="20"/>
<path d="M430 284.706V355.413C430 394.467 374.037 426.12 305 426.12C235.963 426.12 180 394.467 180 355.413V284.706" fill="#FCDC94"/>
<path d="M430 284.706V355.413C430 394.467 374.037 426.12 305 426.12C235.963 426.12 180 394.467 180 355.413V284.706" stroke="#8C5A2E" stroke-width="20" stroke-linecap="round" stroke-linejoin="round"/>
<path d="M430 284.707C430 323.761 374.037 355.414 305 355.414C235.963 355.414 180 323.761 180 284.707C180 245.653 235.963 214 305 214C374.037 214 430 245.653 430 284.707Z" fill="#FCDC94" stroke="#8C5A2E" stroke-width="20" stroke-linecap="round" stroke-linejoin="round"/>
<path d="M305 259.418C342.5 242.766 367.5 269.588 367.5 282.138C367.5 319.495 242.5 317.551 242.5 271.532C242.5 243.438 267.5 214 305 214" fill="#FCDC94"/>
<path d="M305 259.418C342.5 242.766 367.5 269.588 367.5 282.138C367.5 319.495 242.5 317.551 242.5 271.532C242.5 243.438 267.5 214 305 214" stroke="#8C5A2E" stroke-width="20" stroke-linecap="round" stroke-linejoin="round"/>
<ellipse cx="6.32183" cy="6.32183" rx="6.32183" ry="6.32183" transform="matrix(0.997756 -0.06695 0.0413471 0.999145 312 373.474)" fill="#8C5A2E"/>
<ellipse cx="6.32183" cy="6.32183" rx="6.32183" ry="6.32183" transform="matrix(0.997756 -0.06695 0.0413471 0.999145 353.861 371.72)" fill="#8C5A2E"/>
<path d="M324.039 400.457C329.602 402.872 335.478 403.799 341.228 403.157C347.1 402.502 352.663 400.23 357.489 396.535C358.541 395.73 358.669 394.054 357.863 392.776C356.966 391.352 355.29 390.973 354.16 391.811C350.042 394.863 345.336 396.739 340.383 397.292C335.46 397.841 330.436 397.067 325.673 395.042C324.29 394.454 322.794 395.05 322.325 396.543C321.86 398.02 322.595 399.831 324.039 400.457Z" fill="#8C5A2E" stroke="#8C5A2E"/>
<path d="M882.563 613.75L848.063 680.2V718H830.963V680.2L796.313 613.75H815.363L839.513 664.9L863.663 613.75H882.563ZM931.983 719.35C924.183 719.35 917.133 717.6 910.833 714.1C904.533 710.5 899.583 705.5 895.983 699.1C892.383 692.6 890.583 685.1 890.583 676.6C890.583 668.2 892.433 660.75 896.133 654.25C899.833 647.75 904.883 642.75 911.283 639.25C917.683 635.75 924.833 634 932.733 634C940.633 634 947.783 635.75 954.183 639.25C960.583 642.75 965.633 647.75 969.333 654.25C973.033 660.75 974.883 668.2 974.883 676.6C974.883 685 972.983 692.45 969.183 698.95C965.383 705.45 960.183 710.5 953.583 714.1C947.083 717.6 939.883 719.35 931.983 719.35ZM931.983 704.5C936.383 704.5 940.483 703.45 944.283 701.35C948.183 699.25 951.333 696.1 953.733 691.9C956.133 687.7 957.333 682.6 957.333 676.6C957.333 670.6 956.183 665.55 953.883 661.45C951.583 657.25 948.533 654.1 944.733 652C940.933 649.9 936.833 648.85 932.433 648.85C928.033 648.85 923.933 649.9 920.133 652C916.433 654.1 913.483 657.25 911.283 661.45C909.083 665.55 907.983 670.6 907.983 676.6C907.983 685.5 910.233 692.4 914.733 697.3C919.333 702.1 925.083 704.5 931.983 704.5ZM1066.64 635.35V718H1049.54V708.25C1046.84 711.65 1043.29 714.35 1038.89 716.35C1034.59 718.25 1029.99 719.2 1025.09 719.2C1018.59 719.2 1012.74 717.85 1007.54 715.15C1002.44 712.45 998.387 708.45 995.387 703.15C992.487 697.85 991.037 691.45 991.037 683.95V635.35H1007.99V681.4C1007.99 688.8 1009.84 694.5 1013.54 698.5C1017.24 702.4 1022.29 704.35 1028.69 704.35C1035.09 704.35 1040.14 702.4 1043.84 698.5C1047.64 694.5 1049.54 688.8 1049.54 681.4V635.35H1066.64ZM1106.3 647.35C1108.8 643.15 1112.1 639.9 1116.2 637.6C1120.4 635.2 1125.35 634 1131.05 634V651.7H1126.7C1120 651.7 1114.9 653.4 1111.4 656.8C1108 660.2 1106.3 666.1 1106.3 674.5V718H1089.2V635.35H1106.3V647.35ZM1220.08 719.05C1213.08 719.05 1206.78 717.85 1201.18 715.45C1195.58 712.95 1191.18 709.45 1187.98 704.95C1184.78 700.45 1183.18 695.2 1183.18 689.2H1201.48C1201.88 693.7 1203.63 697.4 1206.73 700.3C1209.93 703.2 1214.38 704.65 1220.08 704.65C1225.98 704.65 1230.58 703.25 1233.88 700.45C1237.18 697.55 1238.83 693.85 1238.83 689.35C1238.83 685.85 1237.78 683 1235.68 680.8C1233.68 678.6 1231.13 676.9 1228.03 675.7C1225.03 674.5 1220.83 673.2 1215.43 671.8C1208.63 670 1203.08 668.2 1198.78 666.4C1194.58 664.5 1190.98 661.6 1187.98 657.7C1184.98 653.8 1183.48 648.6 1183.48 642.1C1183.48 636.1 1184.98 630.85 1187.98 626.35C1190.98 621.85 1195.18 618.4 1200.58 616C1205.98 613.6 1212.23 612.4 1219.33 612.4C1229.43 612.4 1237.68 614.95 1244.08 620.05C1250.58 625.05 1254.18 631.95 1254.88 640.75H1235.98C1235.68 636.95 1233.88 633.7 1230.58 631C1227.28 628.3 1222.93 626.95 1217.53 626.95C1212.63 626.95 1208.63 628.2 1205.53 630.7C1202.43 633.2 1200.88 636.8 1200.88 641.5C1200.88 644.7 1201.83 647.35 1203.73 649.45C1205.73 651.45 1208.23 653.05 1211.23 654.25C1214.23 655.45 1218.33 656.75 1223.53 658.15C1230.43 660.05 1236.03 661.95 1240.33 663.85C1244.73 665.75 1248.43 668.7 1251.43 672.7C1254.53 676.6 1256.08 681.85 1256.08 688.45C1256.08 693.75 1254.63 698.75 1251.73 703.45C1248.93 708.15 1244.78 711.95 1239.28 714.85C1233.88 717.65 1227.48 719.05 1220.08 719.05ZM1387.26 635.35L1361.61 718H1343.61L1326.96 656.95L1310.31 718H1292.31L1266.51 635.35H1283.91L1301.16 701.8L1318.71 635.35H1336.56L1353.36 701.5L1370.46 635.35H1387.26ZM1475.79 674.65C1475.79 677.75 1475.59 680.55 1475.19 683.05H1412.04C1412.54 689.65 1414.99 694.95 1419.39 698.95C1423.79 702.95 1429.19 704.95 1435.59 704.95C1444.79 704.95 1451.29 701.1 1455.09 693.4H1473.54C1471.04 701 1466.49 707.25 1459.89 712.15C1453.39 716.95 1445.29 719.35 1435.59 719.35C1427.69 719.35 1420.59 717.6 1414.29 714.1C1408.09 710.5 1403.19 705.5 1399.59 699.1C1396.09 692.6 1394.34 685.1 1394.34 676.6C1394.34 668.1 1396.04 660.65 1399.44 654.25C1402.94 647.75 1407.79 642.75 1413.99 639.25C1420.29 635.75 1427.49 634 1435.59 634C1443.39 634 1450.34 635.7 1456.44 639.1C1462.54 642.5 1467.29 647.3 1470.69 653.5C1474.09 659.6 1475.79 666.65 1475.79 674.65ZM1457.94 669.25C1457.84 662.95 1455.59 657.9 1451.19 654.1C1446.79 650.3 1441.34 648.4 1434.84 648.4C1428.94 648.4 1423.89 650.3 1419.69 654.1C1415.49 657.8 1412.99 662.85 1412.19 669.25H1457.94ZM1568.37 674.65C1568.37 677.75 1568.17 680.55 1567.77 683.05H1504.62C1505.12 689.65 1507.57 694.95 1511.97 698.95C1516.37 702.95 1521.77 704.95 1528.17 704.95C1537.37 704.95 1543.87 701.1 1547.67 693.4H1566.12C1563.62 701 1559.07 707.25 1552.47 712.15C1545.97 716.95 1537.87 719.35 1528.17 719.35C1520.27 719.35 1513.17 717.6 1506.87 714.1C1500.67 710.5 1495.77 705.5 1492.17 699.1C1488.67 692.6 1486.92 685.1 1486.92 676.6C1486.92 668.1 1488.62 660.65 1492.02 654.25C1495.52 647.75 1500.37 642.75 1506.57 639.25C1512.87 635.75 1520.07 634 1528.17 634C1535.97 634 1542.92 635.7 1549.02 639.1C1555.12 642.5 1559.87 647.3 1563.27 653.5C1566.67 659.6 1568.37 666.65 1568.37 674.65ZM1550.52 669.25C1550.42 662.95 1548.17 657.9 1543.77 654.1C1539.37 650.3 1533.92 648.4 1527.42 648.4C1521.52 648.4 1516.47 650.3 1512.27 654.1C1508.07 657.8 1505.57 662.85 1504.77 669.25H1550.52ZM1605.15 649.3V695.05C1605.15 698.15 1605.85 700.4 1607.25 701.8C1608.75 703.1 1611.25 703.75 1614.75 703.75H1625.25V718H1611.75C1604.05 718 1598.15 716.2 1594.05 712.6C1589.95 709 1587.9 703.15 1587.9 695.05V649.3H1578.15V635.35H1587.9V614.8H1605.15V635.35H1625.25V649.3H1605.15ZM1755.42 643.75C1752.72 638.55 1748.97 634.65 1744.17 632.05C1739.37 629.35 1733.82 628 1727.52 628C1720.62 628 1714.47 629.55 1709.07 632.65C1703.67 635.75 1699.42 640.15 1696.32 645.85C1693.32 651.55 1691.82 658.15 1691.82 665.65C1691.82 673.15 1693.32 679.8 1696.32 685.6C1699.42 691.3 1703.67 695.7 1709.07 698.8C1714.47 701.9 1720.62 703.45 1727.52 703.45C1736.82 703.45 1744.37 700.85 1750.17 695.65C1755.97 690.45 1759.52 683.4 1760.82 674.5H1721.67V660.85H1779.12V674.2C1778.02 682.3 1775.12 689.75 1770.42 696.55C1765.82 703.35 1759.77 708.8 1752.27 712.9C1744.87 716.9 1736.62 718.9 1727.52 718.9C1717.72 718.9 1708.77 716.65 1700.67 712.15C1692.57 707.55 1686.12 701.2 1681.32 693.1C1676.62 685 1674.27 675.85 1674.27 665.65C1674.27 655.45 1676.62 646.3 1681.32 638.2C1686.12 630.1 1692.57 623.8 1700.67 619.3C1708.87 614.7 1717.82 612.4 1727.52 612.4C1738.62 612.4 1748.47 615.15 1757.07 620.65C1765.77 626.05 1772.07 633.75 1775.97 643.75H1755.42ZM1870.84 635.35V718H1853.74V708.25C1851.04 711.65 1847.49 714.35 1843.09 716.35C1838.79 718.25 1834.19 719.2 1829.29 719.2C1822.79 719.2 1816.94 717.85 1811.74 715.15C1806.64 712.45 1802.59 708.45 1799.59 703.15C1796.69 697.85 1795.24 691.45 1795.24 683.95V635.35H1812.19V681.4C1812.19 688.8 1814.04 694.5 1817.74 698.5C1821.44 702.4 1826.49 704.35 1832.89 704.35C1839.29 704.35 1844.34 702.4 1848.04 698.5C1851.84 694.5 1853.74 688.8 1853.74 681.4V635.35H1870.84ZM1902.1 624.4C1899 624.4 1896.4 623.35 1894.3 621.25C1892.2 619.15 1891.15 616.55 1891.15 613.45C1891.15 610.35 1892.2 607.75 1894.3 605.65C1896.4 603.55 1899 602.5 1902.1 602.5C1905.1 602.5 1907.65 603.55 1909.75 605.65C1911.85 607.75 1912.9 610.35 1912.9 613.45C1912.9 616.55 1911.85 619.15 1909.75 621.25C1907.65 623.35 1905.1 624.4 1902.1 624.4ZM1910.5 635.35V718H1893.4V635.35H1910.5ZM1927.25 676.3C1927.25 668 1928.95 660.65 1932.35 654.25C1935.85 647.85 1940.55 642.9 1946.45 639.4C1952.45 635.8 1959.1 634 1966.4 634C1971.8 634 1977.1 635.2 1982.3 637.6C1987.6 639.9 1991.8 643 1994.9 646.9V607H2012.15V718H1994.9V705.55C1992.1 709.55 1988.2 712.85 1983.2 715.45C1978.3 718.05 1972.65 719.35 1966.25 719.35C1959.05 719.35 1952.45 717.55 1946.45 713.95C1940.55 710.25 1935.85 705.15 1932.35 698.65C1928.95 692.05 1927.25 684.6 1927.25 676.3ZM1994.9 676.6C1994.9 670.9 1993.7 665.95 1991.3 661.75C1989 657.55 1985.95 654.35 1982.15 652.15C1978.35 649.95 1974.25 648.85 1969.85 648.85C1965.45 648.85 1961.35 649.95 1957.55 652.15C1953.75 654.25 1950.65 657.4 1948.25 661.6C1945.95 665.7 1944.8 670.6 1944.8 676.3C1944.8 682 1945.95 687 1948.25 691.3C1950.65 695.6 1953.75 698.9 1957.55 701.2C1961.45 703.4 1965.55 704.5 1969.85 704.5C1974.25 704.5 1978.35 703.4 1982.15 701.2C1985.95 699 1989 695.8 1991.3 691.6C1993.7 687.3 1994.9 682.3 1994.9 676.6ZM2110.36 674.65C2110.36 677.75 2110.16 680.55 2109.76 683.05H2046.61C2047.11 689.65 2049.56 694.95 2053.96 698.95C2058.36 702.95 2063.76 704.95 2070.16 704.95C2079.36 704.95 2085.86 701.1 2089.66 693.4H2108.11C2105.61 701 2101.06 707.25 2094.46 712.15C2087.96 716.95 2079.86 719.35 2070.16 719.35C2062.26 719.35 2055.16 717.6 2048.86 714.1C2042.66 710.5 2037.76 705.5 2034.16 699.1C2030.66 692.6 2028.91 685.1 2028.91 676.6C2028.91 668.1 2030.61 660.65 2034.01 654.25C2037.51 647.75 2042.36 642.75 2048.56 639.25C2054.86 635.75 2062.06 634 2070.16 634C2077.96 634 2084.91 635.7 2091.01 639.1C2097.11 642.5 2101.86 647.3 2105.26 653.5C2108.66 659.6 2110.36 666.65 2110.36 674.65ZM2092.51 669.25C2092.41 662.95 2090.16 657.9 2085.76 654.1C2081.36 650.3 2075.91 648.4 2069.41 648.4C2063.51 648.4 2058.46 650.3 2054.26 654.1C2050.06 657.8 2047.56 662.85 2046.76 669.25H2092.51Z" fill="#8C5A2E"/>
<path d="M864.691 475.45C847.658 475.45 832.258 472.533 818.491 466.7C804.958 460.867 794.225 452.467 786.291 441.5C778.358 430.533 774.275 417.583 774.041 402.65H826.541C827.241 412.683 830.741 420.617 837.041 426.45C843.575 432.283 852.441 435.2 863.641 435.2C875.075 435.2 884.058 432.517 890.591 427.15C897.125 421.55 900.391 414.317 900.391 405.45C900.391 398.217 898.175 392.267 893.741 387.6C889.308 382.933 883.708 379.317 876.941 376.75C870.408 373.95 861.308 370.917 849.641 367.65C833.775 362.983 820.825 358.433 810.791 354C800.991 349.333 792.475 342.45 785.241 333.35C778.241 324.017 774.741 311.65 774.741 296.25C774.741 281.783 778.358 269.183 785.591 258.45C792.825 247.717 802.975 239.55 816.041 233.95C829.108 228.117 844.041 225.2 860.841 225.2C886.041 225.2 906.458 231.383 922.091 243.75C937.958 255.883 946.708 272.917 948.341 294.85H894.441C893.975 286.45 890.358 279.567 883.591 274.2C877.058 268.6 868.308 265.8 857.341 265.8C847.775 265.8 840.075 268.25 834.241 273.15C828.641 278.05 825.841 285.167 825.841 294.5C825.841 301.033 827.941 306.517 832.141 310.95C836.575 315.15 841.941 318.65 848.241 321.45C854.775 324.017 863.875 327.05 875.541 330.55C891.408 335.217 904.358 339.883 914.391 344.55C924.425 349.217 933.058 356.217 940.291 365.55C947.525 374.883 951.141 387.133 951.141 402.3C951.141 415.367 947.758 427.5 940.991 438.7C934.225 449.9 924.308 458.883 911.241 465.65C898.175 472.183 882.658 475.45 864.691 475.45ZM1169.67 279.1V473H1120.32V448.5C1114.02 456.9 1105.74 463.55 1095.47 468.45C1085.44 473.117 1074.47 475.45 1062.57 475.45C1047.41 475.45 1033.99 472.3 1022.32 466C1010.66 459.467 1001.44 450.017 994.673 437.65C988.139 425.05 984.873 410.117 984.873 392.85V279.1H1033.87V385.85C1033.87 401.25 1037.72 413.15 1045.42 421.55C1053.12 429.717 1063.62 433.8 1076.92 433.8C1090.46 433.8 1101.07 429.717 1108.77 421.55C1116.47 413.15 1120.32 401.25 1120.32 385.85V279.1H1169.67ZM1286.97 275.95C1301.44 275.95 1314.15 278.867 1325.12 284.7C1336.09 290.3 1344.72 297.65 1351.02 306.75V279.1H1400.37V474.4C1400.37 492.367 1396.75 508.35 1389.52 522.35C1382.29 536.583 1371.44 547.783 1356.97 555.95C1342.5 564.35 1325 568.55 1304.47 568.55C1276.94 568.55 1254.3 562.133 1236.57 549.3C1219.07 536.467 1209.15 518.967 1206.82 496.8H1255.47C1258.04 505.667 1263.52 512.667 1271.92 517.8C1280.55 523.167 1290.94 525.85 1303.07 525.85C1317.3 525.85 1328.85 521.533 1337.72 512.9C1346.59 504.5 1351.02 491.667 1351.02 474.4V444.3C1344.72 453.4 1335.97 460.983 1324.77 467.05C1313.8 473.117 1301.2 476.15 1286.97 476.15C1270.64 476.15 1255.7 471.95 1242.17 463.55C1228.64 455.15 1217.9 443.367 1209.97 428.2C1202.27 412.8 1198.42 395.183 1198.42 375.35C1198.42 355.75 1202.27 338.367 1209.97 323.2C1217.9 308.033 1228.52 296.367 1241.82 288.2C1255.35 280.033 1270.4 275.95 1286.97 275.95ZM1351.02 376.05C1351.02 364.15 1348.69 354 1344.02 345.6C1339.35 336.967 1333.05 330.433 1325.12 326C1317.19 321.333 1308.67 319 1299.57 319C1290.47 319 1282.07 321.217 1274.37 325.65C1266.67 330.083 1260.37 336.617 1255.47 345.25C1250.8 353.65 1248.47 363.683 1248.47 375.35C1248.47 387.017 1250.8 397.283 1255.47 406.15C1260.37 414.783 1266.67 421.433 1274.37 426.1C1282.3 430.767 1290.7 433.1 1299.57 433.1C1308.67 433.1 1317.19 430.883 1325.12 426.45C1333.05 421.783 1339.35 415.25 1344.02 406.85C1348.69 398.217 1351.02 387.95 1351.02 376.05ZM1428.63 375.35C1428.63 355.75 1432.48 338.367 1440.18 323.2C1448.11 308.033 1458.73 296.367 1472.03 288.2C1485.56 280.033 1500.61 275.95 1517.18 275.95C1531.64 275.95 1544.24 278.867 1554.98 284.7C1565.94 290.533 1574.69 297.883 1581.23 306.75V279.1H1630.58V473H1581.23V444.65C1574.93 453.75 1566.18 461.333 1554.98 467.4C1544.01 473.233 1531.29 476.15 1516.83 476.15C1500.49 476.15 1485.56 471.95 1472.03 463.55C1458.73 455.15 1448.11 443.367 1440.18 428.2C1432.48 412.8 1428.63 395.183 1428.63 375.35ZM1581.23 376.05C1581.23 364.15 1578.89 354 1574.23 345.6C1569.56 336.967 1563.26 330.433 1555.33 326C1547.39 321.333 1538.88 319 1529.78 319C1520.68 319 1512.28 321.217 1504.58 325.65C1496.88 330.083 1490.58 336.617 1485.68 345.25C1481.01 353.65 1478.68 363.683 1478.68 375.35C1478.68 387.017 1481.01 397.283 1485.68 406.15C1490.58 414.783 1496.88 421.433 1504.58 426.1C1512.51 430.767 1520.91 433.1 1529.78 433.1C1538.88 433.1 1547.39 430.883 1555.33 426.45C1563.26 421.783 1569.56 415.25 1574.23 406.85C1578.89 398.217 1581.23 387.95 1581.23 376.05ZM1720.43 309.2C1726.73 298.933 1734.9 290.883 1744.93 285.05C1755.2 279.217 1766.87 276.3 1779.93 276.3V327.75H1766.98C1751.58 327.75 1739.92 331.367 1731.98 338.6C1724.28 345.833 1720.43 358.433 1720.43 376.4V473H1671.43V279.1H1720.43V309.2ZM1972.19 228.7V268.25H1907.09V473H1858.09V268.25H1792.99V228.7H1972.19ZM2087.04 476.15C2068.37 476.15 2051.57 472.067 2036.64 463.9C2021.71 455.5 2009.92 443.717 2001.29 428.55C1992.89 413.383 1988.69 395.883 1988.69 376.05C1988.69 356.217 1993.01 338.717 2001.64 323.55C2010.51 308.383 2022.52 296.717 2037.69 288.55C2052.86 280.15 2069.77 275.95 2088.44 275.95C2107.11 275.95 2124.02 280.15 2139.19 288.55C2154.36 296.717 2166.26 308.383 2174.89 323.55C2183.76 338.717 2188.19 356.217 2188.19 376.05C2188.19 395.883 2183.64 413.383 2174.54 428.55C2165.67 443.717 2153.54 455.5 2138.14 463.9C2122.97 472.067 2105.94 476.15 2087.04 476.15ZM2087.04 433.45C2095.91 433.45 2104.19 431.35 2111.89 427.15C2119.82 422.717 2126.12 416.183 2130.79 407.55C2135.46 398.917 2137.79 388.417 2137.79 376.05C2137.79 357.617 2132.89 343.5 2123.09 333.7C2113.52 323.667 2101.74 318.65 2087.74 318.65C2073.74 318.65 2061.96 323.667 2052.39 333.7C2043.06 343.5 2038.39 357.617 2038.39 376.05C2038.39 394.483 2042.94 408.717 2052.04 418.75C2061.37 428.55 2073.04 433.45 2087.04 433.45ZM2266.13 307.1C2272.43 298.233 2281.07 290.883 2292.03 285.05C2303.23 278.983 2315.95 275.95 2330.18 275.95C2346.75 275.95 2361.68 280.033 2374.98 288.2C2388.52 296.367 2399.13 308.033 2406.83 323.2C2414.77 338.133 2418.73 355.517 2418.73 375.35C2418.73 395.183 2414.77 412.8 2406.83 428.2C2399.13 443.367 2388.52 455.15 2374.98 463.55C2361.68 471.95 2346.75 476.15 2330.18 476.15C2315.95 476.15 2303.35 473.233 2292.38 467.4C2281.65 461.567 2272.9 454.217 2266.13 445.35V565.4H2217.13V279.1H2266.13V307.1ZM2368.68 375.35C2368.68 363.683 2366.23 353.65 2361.33 345.25C2356.67 336.617 2350.37 330.083 2342.43 325.65C2334.73 321.217 2326.33 319 2317.23 319C2308.37 319 2299.97 321.333 2292.03 326C2284.33 330.433 2278.03 336.967 2273.13 345.6C2268.47 354.233 2266.13 364.383 2266.13 376.05C2266.13 387.717 2268.47 397.867 2273.13 406.5C2278.03 415.133 2284.33 421.783 2292.03 426.45C2299.97 430.883 2308.37 433.1 2317.23 433.1C2326.33 433.1 2334.73 430.767 2342.43 426.1C2350.37 421.433 2356.67 414.783 2361.33 406.15C2366.23 397.517 2368.68 387.25 2368.68 375.35ZM2472.19 256C2463.56 256 2456.32 253.317 2450.49 247.95C2444.89 242.35 2442.09 235.467 2442.09 227.3C2442.09 219.133 2444.89 212.367 2450.49 207C2456.32 201.4 2463.56 198.6 2472.19 198.6C2480.82 198.6 2487.94 201.4 2493.54 207C2499.37 212.367 2502.29 219.133 2502.29 227.3C2502.29 235.467 2499.37 242.35 2493.54 247.95C2487.94 253.317 2480.82 256 2472.19 256ZM2496.34 279.1V473H2447.34V279.1H2496.34ZM2525.15 375.35C2525.15 355.75 2529 338.367 2536.7 323.2C2544.63 308.033 2555.25 296.367 2568.55 288.2C2582.08 280.033 2597.13 275.95 2613.7 275.95C2628.17 275.95 2640.77 278.867 2651.5 284.7C2662.47 290.533 2671.22 297.883 2677.75 306.75V279.1H2727.1V473H2677.75V444.65C2671.45 453.75 2662.7 461.333 2651.5 467.4C2640.53 473.233 2627.82 476.15 2613.35 476.15C2597.02 476.15 2582.08 471.95 2568.55 463.55C2555.25 455.15 2544.63 443.367 2536.7 428.2C2529 412.8 2525.15 395.183 2525.15 375.35ZM2677.75 376.05C2677.75 364.15 2675.42 354 2670.75 345.6C2666.08 336.967 2659.78 330.433 2651.85 326C2643.92 321.333 2635.4 319 2626.3 319C2617.2 319 2608.8 321.217 2601.1 325.65C2593.4 330.083 2587.1 336.617 2582.2 345.25C2577.53 353.65 2575.2 363.683 2575.2 375.35C2575.2 387.017 2577.53 397.283 2582.2 406.15C2587.1 414.783 2593.4 421.433 2601.1 426.1C2609.03 430.767 2617.43 433.1 2626.3 433.1C2635.4 433.1 2643.92 430.883 2651.85 426.45C2659.78 421.783 2666.08 415.25 2670.75 406.85C2675.42 398.217 2677.75 387.95 2677.75 376.05Z" fill="#8C5A2E"/>
</svg>
