<svg width="1935" height="449" viewBox="0 0 1935 449" fill="none" xmlns="http://www.w3.org/2000/svg">
<path d="M468 154.807V293.616C468 370.285 366.82 432.425 242 432.425C117.18 432.425 16 370.285 16 293.616V154.807" fill="#FCDC94"/>
<path d="M468 154.807V293.616C468 370.285 366.82 432.425 242 432.425C117.18 432.425 16 370.285 16 293.616V154.807" stroke="#8C5A2E" stroke-width="32" stroke-linecap="round" stroke-linejoin="round"/>
<path d="M468 154.809C468 231.478 366.82 293.618 242 293.618C117.18 293.618 16 231.478 16 154.809C16 78.1401 117.18 16 242 16C366.82 16 468 78.1401 468 154.809Z" fill="#FCDC94" stroke="#8C5A2E" stroke-width="32" stroke-linecap="round" stroke-linejoin="round"/>
<path d="M242 105.162C309.8 72.4721 355 125.127 355 149.765C355 223.103 129 219.286 129 128.944C129 73.7907 174.2 16 242 16" fill="#FCDC94"/>
<path d="M242 105.162C309.8 72.4721 355 125.127 355 149.765C355 223.103 129 219.286 129 128.944C129 73.7907 174.2 16 242 16" stroke="#8C5A2E" stroke-width="32" stroke-linecap="round" stroke-linejoin="round"/>
<ellipse cx="13.5" cy="13.7535" rx="13.5" ry="13.7535" transform="matrix(0.997671 -0.0682092 0.0405816 0.999176 243 328.418)" fill="#8C5A2E"/>
<ellipse cx="13.5" cy="13.7535" rx="13.5" ry="13.7535" transform="matrix(0.997671 -0.0682092 0.0405816 0.999176 328.316 324.776)" fill="#8C5A2E"/>
<path d="M267.605 384.441C278.925 389.435 290.878 391.352 302.574 390.022C314.561 388.659 325.916 383.928 335.761 376.232C337.859 374.592 338.106 371.194 336.487 368.577C334.654 365.615 331.214 364.807 328.916 366.541C320.523 372.874 310.933 376.766 300.844 377.913C290.828 379.052 280.606 377.453 270.914 373.265C268.074 372.038 265.015 373.253 264.064 376.334C263.124 379.382 264.643 383.134 267.605 384.441Z" fill="#8C5A2E" stroke="#8C5A2E" stroke-width="2"/>
<path d="M627.05 330.6L599.45 383.76V414H585.77V383.76L558.05 330.6H573.29L592.61 371.52L611.93 330.6H627.05ZM664.186 415.08C657.946 415.08 652.306 413.68 647.266 410.88C642.226 408 638.266 404 635.386 398.88C632.506 393.68 631.066 387.68 631.066 380.88C631.066 374.16 632.546 368.2 635.506 363C638.466 357.8 642.506 353.8 647.626 351C652.746 348.2 658.466 346.8 664.786 346.8C671.106 346.8 676.826 348.2 681.946 351C687.066 353.8 691.106 357.8 694.066 363C697.026 368.2 698.506 374.16 698.506 380.88C698.506 387.6 696.986 393.56 693.946 398.76C690.906 403.96 686.746 408 681.466 410.88C676.266 413.68 670.506 415.08 664.186 415.08ZM664.186 403.2C667.706 403.2 670.986 402.36 674.026 400.68C677.146 399 679.666 396.48 681.586 393.12C683.506 389.76 684.466 385.68 684.466 380.88C684.466 376.08 683.546 372.04 681.706 368.76C679.866 365.4 677.426 362.88 674.386 361.2C671.346 359.52 668.066 358.68 664.546 358.68C661.026 358.68 657.746 359.52 654.706 361.2C651.746 362.88 649.386 365.4 647.626 368.76C645.866 372.04 644.986 376.08 644.986 380.88C644.986 388 646.786 393.52 650.386 397.44C654.066 401.28 658.666 403.2 664.186 403.2ZM769.51 347.88V414H755.83V406.2C753.67 408.92 750.83 411.08 747.31 412.68C743.87 414.2 740.19 414.96 736.27 414.96C731.07 414.96 726.39 413.88 722.23 411.72C718.15 409.56 714.91 406.36 712.51 402.12C710.19 397.88 709.03 392.76 709.03 386.76V347.88H722.59V384.72C722.59 390.64 724.07 395.2 727.03 398.4C729.99 401.52 734.03 403.08 739.15 403.08C744.27 403.08 748.31 401.52 751.27 398.4C754.31 395.2 755.83 390.64 755.83 384.72V347.88H769.51ZM798.839 357.48C800.839 354.12 803.479 351.52 806.759 349.68C810.119 347.76 814.079 346.8 818.639 346.8V360.96H815.159C809.799 360.96 805.719 362.32 802.919 365.04C800.199 367.76 798.839 372.48 798.839 379.2V414H785.159V347.88H798.839V357.48ZM885.066 414.84C879.466 414.84 874.426 413.88 869.946 411.96C865.466 409.96 861.946 407.16 859.386 403.56C856.826 399.96 855.546 395.76 855.546 390.96H870.186C870.506 394.56 871.906 397.52 874.386 399.84C876.946 402.16 880.506 403.32 885.066 403.32C889.786 403.32 893.466 402.2 896.106 399.96C898.746 397.64 900.066 394.68 900.066 391.08C900.066 388.28 899.226 386 897.546 384.24C895.946 382.48 893.906 381.12 891.426 380.16C889.026 379.2 885.666 378.16 881.346 377.04C875.906 375.6 871.466 374.16 868.026 372.72C864.666 371.2 861.786 368.88 859.386 365.76C856.986 362.64 855.786 358.48 855.786 353.28C855.786 348.48 856.986 344.28 859.386 340.68C861.786 337.08 865.146 334.32 869.466 332.4C873.786 330.48 878.786 329.52 884.466 329.52C892.546 329.52 899.146 331.56 904.266 335.64C909.466 339.64 912.346 345.16 912.906 352.2H897.786C897.546 349.16 896.106 346.56 893.466 344.4C890.826 342.24 887.346 341.16 883.026 341.16C879.106 341.16 875.906 342.16 873.426 344.16C870.946 346.16 869.706 349.04 869.706 352.8C869.706 355.36 870.466 357.48 871.986 359.16C873.586 360.76 875.586 362.04 877.986 363C880.386 363.96 883.666 365 887.826 366.12C893.346 367.64 897.826 369.16 901.266 370.68C904.786 372.2 907.746 374.56 910.146 377.76C912.626 380.88 913.866 385.08 913.866 390.36C913.866 394.6 912.706 398.6 910.386 402.36C908.146 406.12 904.826 409.16 900.426 411.48C896.106 413.72 890.986 414.84 885.066 414.84ZM1016.41 347.88L995.888 414H981.488L968.168 365.16L954.848 414H940.448L919.808 347.88H933.728L947.528 401.04L961.568 347.88H975.848L989.288 400.8L1002.97 347.88H1016.41ZM1084.83 379.32C1084.83 381.8 1084.67 384.04 1084.35 386.04H1033.83C1034.23 391.32 1036.19 395.56 1039.71 398.76C1043.23 401.96 1047.55 403.56 1052.67 403.56C1060.03 403.56 1065.23 400.48 1068.27 394.32H1083.03C1081.03 400.4 1077.39 405.4 1072.11 409.32C1066.91 413.16 1060.43 415.08 1052.67 415.08C1046.35 415.08 1040.67 413.68 1035.63 410.88C1030.67 408 1026.75 404 1023.87 398.88C1021.07 393.68 1019.67 387.68 1019.67 380.88C1019.67 374.08 1021.03 368.12 1023.75 363C1026.55 357.8 1030.43 353.8 1035.39 351C1040.43 348.2 1046.19 346.8 1052.67 346.8C1058.91 346.8 1064.47 348.16 1069.35 350.88C1074.23 353.6 1078.03 357.44 1080.75 362.4C1083.47 367.28 1084.83 372.92 1084.83 379.32ZM1070.55 375C1070.47 369.96 1068.67 365.92 1065.15 362.88C1061.63 359.84 1057.27 358.32 1052.07 358.32C1047.35 358.32 1043.31 359.84 1039.95 362.88C1036.59 365.84 1034.59 369.88 1033.95 375H1070.55ZM1156.49 379.32C1156.49 381.8 1156.33 384.04 1156.01 386.04H1105.49C1105.89 391.32 1107.85 395.56 1111.37 398.76C1114.89 401.96 1119.21 403.56 1124.33 403.56C1131.69 403.56 1136.89 400.48 1139.93 394.32H1154.69C1152.69 400.4 1149.05 405.4 1143.77 409.32C1138.57 413.16 1132.09 415.08 1124.33 415.08C1118.01 415.08 1112.33 413.68 1107.29 410.88C1102.33 408 1098.41 404 1095.53 398.88C1092.73 393.68 1091.33 387.68 1091.33 380.88C1091.33 374.08 1092.69 368.12 1095.41 363C1098.21 357.8 1102.09 353.8 1107.05 351C1112.09 348.2 1117.85 346.8 1124.33 346.8C1130.57 346.8 1136.13 348.16 1141.01 350.88C1145.89 353.6 1149.69 357.44 1152.41 362.4C1155.13 367.28 1156.49 372.92 1156.49 379.32ZM1142.21 375C1142.13 369.96 1140.33 365.92 1136.81 362.88C1133.29 359.84 1128.93 358.32 1123.73 358.32C1119.01 358.32 1114.97 359.84 1111.61 362.88C1108.25 365.84 1106.25 369.88 1105.61 375H1142.21ZM1183.52 359.04V395.64C1183.52 398.12 1184.08 399.92 1185.2 401.04C1186.4 402.08 1188.4 402.6 1191.2 402.6H1199.6V414H1188.8C1182.64 414 1177.92 412.56 1174.64 409.68C1171.36 406.8 1169.72 402.12 1169.72 395.64V359.04H1161.92V347.88H1169.72V331.44H1183.52V347.88H1199.6V359.04H1183.52ZM1298.94 354.6C1296.78 350.44 1293.78 347.32 1289.94 345.24C1286.1 343.08 1281.66 342 1276.62 342C1271.1 342 1266.18 343.24 1261.86 345.72C1257.54 348.2 1254.14 351.72 1251.66 356.28C1249.26 360.84 1248.06 366.12 1248.06 372.12C1248.06 378.12 1249.26 383.44 1251.66 388.08C1254.14 392.64 1257.54 396.16 1261.86 398.64C1266.18 401.12 1271.1 402.36 1276.62 402.36C1284.06 402.36 1290.1 400.28 1294.74 396.12C1299.38 391.96 1302.22 386.32 1303.26 379.2H1271.94V368.28H1317.9V378.96C1317.02 385.44 1314.7 391.4 1310.94 396.84C1307.26 402.28 1302.42 406.64 1296.42 409.92C1290.5 413.12 1283.9 414.72 1276.62 414.72C1268.78 414.72 1261.62 412.92 1255.14 409.32C1248.66 405.64 1243.5 400.56 1239.66 394.08C1235.9 387.6 1234.02 380.28 1234.02 372.12C1234.02 363.96 1235.9 356.64 1239.66 350.16C1243.5 343.68 1248.66 338.64 1255.14 335.04C1261.7 331.36 1268.86 329.52 1276.62 329.52C1285.5 329.52 1293.38 331.72 1300.26 336.12C1307.22 340.44 1312.26 346.6 1315.38 354.6H1298.94ZM1388.87 347.88V414H1375.19V406.2C1373.03 408.92 1370.19 411.08 1366.67 412.68C1363.23 414.2 1359.55 414.96 1355.63 414.96C1350.43 414.96 1345.75 413.88 1341.59 411.72C1337.51 409.56 1334.27 406.36 1331.87 402.12C1329.55 397.88 1328.39 392.76 1328.39 386.76V347.88H1341.95V384.72C1341.95 390.64 1343.43 395.2 1346.39 398.4C1349.35 401.52 1353.39 403.08 1358.51 403.08C1363.63 403.08 1367.67 401.52 1370.63 398.4C1373.67 395.2 1375.19 390.64 1375.19 384.72V347.88H1388.87ZM1411.48 339.12C1409 339.12 1406.92 338.28 1405.24 336.6C1403.56 334.92 1402.72 332.84 1402.72 330.36C1402.72 327.88 1403.56 325.8 1405.24 324.12C1406.92 322.44 1409 321.6 1411.48 321.6C1413.88 321.6 1415.92 322.44 1417.6 324.12C1419.28 325.8 1420.12 327.88 1420.12 330.36C1420.12 332.84 1419.28 334.92 1417.6 336.6C1415.92 338.28 1413.88 339.12 1411.48 339.12ZM1418.2 347.88V414H1404.52V347.88H1418.2ZM1429.2 380.64C1429.2 374 1430.56 368.12 1433.28 363C1436.08 357.88 1439.84 353.92 1444.56 351.12C1449.36 348.24 1454.68 346.8 1460.52 346.8C1464.84 346.8 1469.08 347.76 1473.24 349.68C1477.48 351.52 1480.84 354 1483.32 357.12V325.2H1497.12V414H1483.32V404.04C1481.08 407.24 1477.96 409.88 1473.96 411.96C1470.04 414.04 1465.52 415.08 1460.4 415.08C1454.64 415.08 1449.36 413.64 1444.56 410.76C1439.84 407.8 1436.08 403.72 1433.28 398.52C1430.56 393.24 1429.2 387.28 1429.2 380.64ZM1483.32 380.88C1483.32 376.32 1482.36 372.36 1480.44 369C1478.6 365.64 1476.16 363.08 1473.12 361.32C1470.08 359.56 1466.8 358.68 1463.28 358.68C1459.76 358.68 1456.48 359.56 1453.44 361.32C1450.4 363 1447.92 365.52 1446 368.88C1444.16 372.16 1443.24 376.08 1443.24 380.64C1443.24 385.2 1444.16 389.2 1446 392.64C1447.92 396.08 1450.4 398.72 1453.44 400.56C1456.56 402.32 1459.84 403.2 1463.28 403.2C1466.8 403.2 1470.08 402.32 1473.12 400.56C1476.16 398.8 1478.6 396.24 1480.44 392.88C1482.36 389.44 1483.32 385.44 1483.32 380.88ZM1573.29 379.32C1573.29 381.8 1573.13 384.04 1572.81 386.04H1522.29C1522.69 391.32 1524.65 395.56 1528.17 398.76C1531.69 401.96 1536.01 403.56 1541.13 403.56C1548.49 403.56 1553.69 400.48 1556.73 394.32H1571.49C1569.49 400.4 1565.85 405.4 1560.57 409.32C1555.37 413.16 1548.89 415.08 1541.13 415.08C1534.81 415.08 1529.13 413.68 1524.09 410.88C1519.13 408 1515.21 404 1512.33 398.88C1509.53 393.68 1508.13 387.68 1508.13 380.88C1508.13 374.08 1509.49 368.12 1512.21 363C1515.01 357.8 1518.89 353.8 1523.85 351C1528.89 348.2 1534.65 346.8 1541.13 346.8C1547.37 346.8 1552.93 348.16 1557.81 350.88C1562.69 353.6 1566.49 357.44 1569.21 362.4C1571.93 367.28 1573.29 372.92 1573.29 379.32ZM1559.01 375C1558.93 369.96 1557.13 365.92 1553.61 362.88C1550.09 359.84 1545.73 358.32 1540.53 358.32C1535.81 358.32 1531.77 359.84 1528.41 362.88C1525.05 365.84 1523.05 369.88 1522.41 375H1559.01Z" fill="#8C5A2E"/>
<path d="M592.487 230.75C579.654 230.75 568.154 228.667 557.987 224.5C547.821 220.333 539.654 214.167 533.487 206C527.487 197.833 524.321 188 523.987 176.5H569.487C570.154 183 572.404 188 576.237 191.5C580.071 194.833 585.071 196.5 591.237 196.5C597.571 196.5 602.571 195.083 606.237 192.25C609.904 189.25 611.737 185.167 611.737 180C611.737 175.667 610.237 172.083 607.237 169.25C604.404 166.417 600.821 164.083 596.487 162.25C592.321 160.417 586.321 158.333 578.487 156C567.154 152.5 557.904 149 550.737 145.5C543.571 142 537.404 136.833 532.237 130C527.071 123.167 524.487 114.25 524.487 103.25C524.487 86.9167 530.404 74.1667 542.237 65C554.071 55.6667 569.487 51 588.487 51C607.821 51 623.404 55.6667 635.237 65C647.071 74.1667 653.404 87 654.237 103.5H607.987C607.654 97.8333 605.571 93.4167 601.737 90.25C597.904 86.9167 592.987 85.25 586.987 85.25C581.821 85.25 577.654 86.6667 574.487 89.5C571.321 92.1667 569.737 96.0833 569.737 101.25C569.737 106.917 572.404 111.333 577.737 114.5C583.071 117.667 591.404 121.083 602.737 124.75C614.071 128.583 623.237 132.25 630.237 135.75C637.404 139.25 643.571 144.333 648.737 151C653.904 157.667 656.487 166.25 656.487 176.75C656.487 186.75 653.904 195.833 648.737 204C643.737 212.167 636.404 218.667 626.737 223.5C617.071 228.333 605.654 230.75 592.487 230.75ZM813.046 89.5V229H770.296V210C765.963 216.167 760.046 221.167 752.546 225C745.213 228.667 737.046 230.5 728.046 230.5C717.379 230.5 707.963 228.167 699.796 223.5C691.629 218.667 685.296 211.75 680.796 202.75C676.296 193.75 674.046 183.167 674.046 171V89.5H716.546V165.25C716.546 174.583 718.963 181.833 723.796 187C728.629 192.167 735.129 194.75 743.296 194.75C751.629 194.75 758.213 192.167 763.046 187C767.879 181.833 770.296 174.583 770.296 165.25V89.5H813.046ZM889.253 87.5C899.086 87.5 907.67 89.5 915.003 93.5C922.503 97.5 928.253 102.75 932.253 109.25V89.5H975.003V228.75C975.003 241.583 972.42 253.167 967.253 263.5C962.253 274 954.503 282.333 944.003 288.5C933.67 294.667 920.753 297.75 905.253 297.75C884.586 297.75 867.836 292.833 855.003 283C842.17 273.333 834.836 260.167 833.003 243.5H875.253C876.586 248.833 879.753 253 884.753 256C889.753 259.167 895.92 260.75 903.253 260.75C912.086 260.75 919.086 258.167 924.253 253C929.586 248 932.253 239.917 932.253 228.75V209C928.086 215.5 922.336 220.833 915.003 225C907.67 229 899.086 231 889.253 231C877.753 231 867.336 228.083 858.003 222.25C848.67 216.25 841.253 207.833 835.753 197C830.42 186 827.753 173.333 827.753 159C827.753 144.667 830.42 132.083 835.753 121.25C841.253 110.417 848.67 102.083 858.003 96.25C867.336 90.4167 877.753 87.5 889.253 87.5ZM932.253 159.25C932.253 148.583 929.253 140.167 923.253 134C917.42 127.833 910.253 124.75 901.753 124.75C893.253 124.75 886.003 127.833 880.003 134C874.17 140 871.253 148.333 871.253 159C871.253 169.667 874.17 178.167 880.003 184.5C886.003 190.667 893.253 193.75 901.753 193.75C910.253 193.75 917.42 190.667 923.253 184.5C929.253 178.333 932.253 169.917 932.253 159.25ZM989.931 159C989.931 144.667 992.597 132.083 997.931 121.25C1003.43 110.417 1010.85 102.083 1020.18 96.25C1029.51 90.4167 1039.93 87.5 1051.43 87.5C1061.26 87.5 1069.85 89.5 1077.18 93.5C1084.68 97.5 1090.43 102.75 1094.43 109.25V89.5H1137.18V229H1094.43V209.25C1090.26 215.75 1084.43 221 1076.93 225C1069.6 229 1061.01 231 1051.18 231C1039.85 231 1029.51 228.083 1020.18 222.25C1010.85 216.25 1003.43 207.833 997.931 197C992.597 186 989.931 173.333 989.931 159ZM1094.43 159.25C1094.43 148.583 1091.43 140.167 1085.43 134C1079.6 127.833 1072.43 124.75 1063.93 124.75C1055.43 124.75 1048.18 127.833 1042.18 134C1036.35 140 1033.43 148.333 1033.43 159C1033.43 169.667 1036.35 178.167 1042.18 184.5C1048.18 190.667 1055.43 193.75 1063.93 193.75C1072.43 193.75 1079.6 190.667 1085.43 184.5C1091.43 178.333 1094.43 169.917 1094.43 159.25ZM1203.36 112.75C1208.36 105.083 1214.61 99.0833 1222.11 94.75C1229.61 90.25 1237.94 88 1247.11 88V133.25H1235.36C1224.69 133.25 1216.69 135.583 1211.36 140.25C1206.03 144.75 1203.36 152.75 1203.36 164.25V229H1160.61V89.5H1203.36V112.75ZM1386.29 53.5V87.75H1339.79V229H1297.04V87.75H1250.54V53.5H1386.29ZM1463.75 231C1450.08 231 1437.75 228.083 1426.75 222.25C1415.91 216.417 1407.33 208.083 1401 197.25C1394.83 186.417 1391.75 173.75 1391.75 159.25C1391.75 144.917 1394.91 132.333 1401.25 121.5C1407.58 110.5 1416.25 102.083 1427.25 96.25C1438.25 90.4167 1450.58 87.5 1464.25 87.5C1477.91 87.5 1490.25 90.4167 1501.25 96.25C1512.25 102.083 1520.91 110.5 1527.25 121.5C1533.58 132.333 1536.75 144.917 1536.75 159.25C1536.75 173.583 1533.5 186.25 1527 197.25C1520.66 208.083 1511.91 216.417 1500.75 222.25C1489.75 228.083 1477.41 231 1463.75 231ZM1463.75 194C1471.91 194 1478.83 191 1484.5 185C1490.33 179 1493.25 170.417 1493.25 159.25C1493.25 148.083 1490.41 139.5 1484.75 133.5C1479.25 127.5 1472.41 124.5 1464.25 124.5C1455.91 124.5 1449 127.5 1443.5 133.5C1438 139.333 1435.25 147.917 1435.25 159.25C1435.25 170.417 1437.91 179 1443.25 185C1448.75 191 1455.58 194 1463.75 194ZM1594.68 109.25C1598.84 102.75 1604.59 97.5 1611.93 93.5C1619.26 89.5 1627.84 87.5 1637.68 87.5C1649.18 87.5 1659.59 90.4167 1668.93 96.25C1678.26 102.083 1685.59 110.417 1690.93 121.25C1696.43 132.083 1699.18 144.667 1699.18 159C1699.18 173.333 1696.43 186 1690.93 197C1685.59 207.833 1678.26 216.25 1668.93 222.25C1659.59 228.083 1649.18 231 1637.68 231C1628.01 231 1619.43 229 1611.93 225C1604.59 221 1598.84 215.833 1594.68 209.5V295.5H1551.93V89.5H1594.68V109.25ZM1655.68 159C1655.68 148.333 1652.68 140 1646.68 134C1640.84 127.833 1633.59 124.75 1624.93 124.75C1616.43 124.75 1609.18 127.833 1603.18 134C1597.34 140.167 1594.43 148.583 1594.43 159.25C1594.43 169.917 1597.34 178.333 1603.18 184.5C1609.18 190.667 1616.43 193.75 1624.93 193.75C1633.43 193.75 1640.68 190.667 1646.68 184.5C1652.68 178.167 1655.68 169.667 1655.68 159ZM1735.6 75C1728.1 75 1721.94 72.8333 1717.1 68.5C1712.44 64 1710.1 58.5 1710.1 52C1710.1 45.3333 1712.44 39.8333 1717.1 35.5C1721.94 31 1728.1 28.75 1735.6 28.75C1742.94 28.75 1748.94 31 1753.6 35.5C1758.44 39.8333 1760.85 45.3333 1760.85 52C1760.85 58.5 1758.44 64 1753.6 68.5C1748.94 72.8333 1742.94 75 1735.6 75ZM1756.85 89.5V229H1714.1V89.5H1756.85ZM1771.83 159C1771.83 144.667 1774.5 132.083 1779.83 121.25C1785.33 110.417 1792.75 102.083 1802.08 96.25C1811.42 90.4167 1821.83 87.5 1833.33 87.5C1843.17 87.5 1851.75 89.5 1859.08 93.5C1866.58 97.5 1872.33 102.75 1876.33 109.25V89.5H1919.08V229H1876.33V209.25C1872.17 215.75 1866.33 221 1858.83 225C1851.5 229 1842.92 231 1833.08 231C1821.75 231 1811.42 228.083 1802.08 222.25C1792.75 216.25 1785.33 207.833 1779.83 197C1774.5 186 1771.83 173.333 1771.83 159ZM1876.33 159.25C1876.33 148.583 1873.33 140.167 1867.33 134C1861.5 127.833 1854.33 124.75 1845.83 124.75C1837.33 124.75 1830.08 127.833 1824.08 134C1818.25 140 1815.33 148.333 1815.33 159C1815.33 169.667 1818.25 178.167 1824.08 184.5C1830.08 190.667 1837.33 193.75 1845.83 193.75C1854.33 193.75 1861.5 190.667 1867.33 184.5C1873.33 178.333 1876.33 169.917 1876.33 159.25Z" fill="#8C5A2E"/>
</svg>
