<svg width="2223" height="525" viewBox="0 0 2223 525" fill="none" xmlns="http://www.w3.org/2000/svg">
<path d="M468 154.807V293.616C468 370.285 366.82 432.425 242 432.425C117.18 432.425 16 370.285 16 293.616V154.807" fill="#FCDC94"/>
<path d="M468 154.807V293.616C468 370.285 366.82 432.425 242 432.425C117.18 432.425 16 370.285 16 293.616V154.807" stroke="#8C5A2E" stroke-width="32" stroke-linecap="round" stroke-linejoin="round"/>
<path d="M468 154.809C468 231.478 366.82 293.618 242 293.618C117.18 293.618 16 231.478 16 154.809C16 78.1401 117.18 16 242 16C366.82 16 468 78.1401 468 154.809Z" fill="#FCDC94" stroke="#8C5A2E" stroke-width="32" stroke-linecap="round" stroke-linejoin="round"/>
<path d="M242 105.162C309.8 72.4721 355 125.127 355 149.765C355 223.103 129 219.286 129 128.944C129 73.7907 174.2 16 242 16" fill="#FCDC94"/>
<path d="M242 105.162C309.8 72.4721 355 125.127 355 149.765C355 223.103 129 219.286 129 128.944C129 73.7907 174.2 16 242 16" stroke="#8C5A2E" stroke-width="32" stroke-linecap="round" stroke-linejoin="round"/>
<ellipse cx="13.5" cy="13.7535" rx="13.5" ry="13.7535" transform="matrix(0.997671 -0.0682092 0.0405816 0.999176 243 328.418)" fill="#8C5A2E"/>
<ellipse cx="13.5" cy="13.7535" rx="13.5" ry="13.7535" transform="matrix(0.997671 -0.0682092 0.0405816 0.999176 328.316 324.776)" fill="#8C5A2E"/>
<path d="M267.605 384.441C278.925 389.435 290.878 391.352 302.574 390.022C314.561 388.659 325.916 383.928 335.761 376.232C337.859 374.592 338.106 371.194 336.487 368.577C334.654 365.615 331.214 364.807 328.916 366.541C320.523 372.874 310.933 376.766 300.844 377.913C290.828 379.052 280.606 377.453 270.914 373.265C268.074 372.038 265.015 373.253 264.064 376.334C263.124 379.382 264.643 383.134 267.605 384.441Z" fill="#8C5A2E" stroke="#8C5A2E" stroke-width="2"/>
<path d="M650.05 408.6L622.45 461.76V492H608.77V461.76L581.05 408.6H596.29L615.61 449.52L634.93 408.6H650.05ZM689.586 493.08C683.346 493.08 677.706 491.68 672.666 488.88C667.626 486 663.666 482 660.786 476.88C657.906 471.68 656.466 465.68 656.466 458.88C656.466 452.16 657.946 446.2 660.906 441C663.866 435.8 667.906 431.8 673.026 429C678.146 426.2 683.866 424.8 690.186 424.8C696.506 424.8 702.226 426.2 707.346 429C712.466 431.8 716.506 435.8 719.466 441C722.426 446.2 723.906 452.16 723.906 458.88C723.906 465.6 722.386 471.56 719.346 476.76C716.306 481.96 712.146 486 706.866 488.88C701.666 491.68 695.906 493.08 689.586 493.08ZM689.586 481.2C693.106 481.2 696.386 480.36 699.426 478.68C702.546 477 705.066 474.48 706.986 471.12C708.906 467.76 709.866 463.68 709.866 458.88C709.866 454.08 708.946 450.04 707.106 446.76C705.266 443.4 702.826 440.88 699.786 439.2C696.746 437.52 693.466 436.68 689.946 436.68C686.426 436.68 683.146 437.52 680.106 439.2C677.146 440.88 674.786 443.4 673.026 446.76C671.266 450.04 670.386 454.08 670.386 458.88C670.386 466 672.186 471.52 675.786 475.44C679.466 479.28 684.066 481.2 689.586 481.2ZM797.31 425.88V492H783.63V484.2C781.47 486.92 778.63 489.08 775.11 490.68C771.67 492.2 767.99 492.96 764.07 492.96C758.87 492.96 754.19 491.88 750.03 489.72C745.95 487.56 742.71 484.36 740.31 480.12C737.99 475.88 736.83 470.76 736.83 464.76V425.88H750.39V462.72C750.39 468.64 751.87 473.2 754.83 476.4C757.79 479.52 761.83 481.08 766.95 481.08C772.07 481.08 776.11 479.52 779.07 476.4C782.11 473.2 783.63 468.64 783.63 462.72V425.88H797.31ZM829.039 435.48C831.039 432.12 833.679 429.52 836.959 427.68C840.319 425.76 844.279 424.8 848.839 424.8V438.96H845.359C839.999 438.96 835.919 440.32 833.119 443.04C830.399 445.76 829.039 450.48 829.039 457.2V492H815.359V425.88H829.039V435.48ZM920.066 492.84C914.466 492.84 909.426 491.88 904.946 489.96C900.466 487.96 896.946 485.16 894.386 481.56C891.826 477.96 890.546 473.76 890.546 468.96H905.186C905.506 472.56 906.906 475.52 909.386 477.84C911.946 480.16 915.506 481.32 920.066 481.32C924.786 481.32 928.466 480.2 931.106 477.96C933.746 475.64 935.066 472.68 935.066 469.08C935.066 466.28 934.226 464 932.546 462.24C930.946 460.48 928.906 459.12 926.426 458.16C924.026 457.2 920.666 456.16 916.346 455.04C910.906 453.6 906.466 452.16 903.026 450.72C899.666 449.2 896.786 446.88 894.386 443.76C891.986 440.64 890.786 436.48 890.786 431.28C890.786 426.48 891.986 422.28 894.386 418.68C896.786 415.08 900.146 412.32 904.466 410.4C908.786 408.48 913.786 407.52 919.466 407.52C927.546 407.52 934.146 409.56 939.266 413.64C944.466 417.64 947.346 423.16 947.906 430.2H932.786C932.546 427.16 931.106 424.56 928.466 422.4C925.826 420.24 922.346 419.16 918.026 419.16C914.106 419.16 910.906 420.16 908.426 422.16C905.946 424.16 904.706 427.04 904.706 430.8C904.706 433.36 905.466 435.48 906.986 437.16C908.586 438.76 910.586 440.04 912.986 441C915.386 441.96 918.666 443 922.826 444.12C928.346 445.64 932.826 447.16 936.266 448.68C939.786 450.2 942.746 452.56 945.146 455.76C947.626 458.88 948.866 463.08 948.866 468.36C948.866 472.6 947.706 476.6 945.386 480.36C943.146 484.12 939.826 487.16 935.426 489.48C931.106 491.72 925.986 492.84 920.066 492.84ZM1053.81 425.88L1033.29 492H1018.89L1005.57 443.16L992.248 492H977.848L957.208 425.88H971.128L984.928 479.04L998.968 425.88H1013.25L1026.69 478.8L1040.37 425.88H1053.81ZM1124.63 457.32C1124.63 459.8 1124.47 462.04 1124.15 464.04H1073.63C1074.03 469.32 1075.99 473.56 1079.51 476.76C1083.03 479.96 1087.35 481.56 1092.47 481.56C1099.83 481.56 1105.03 478.48 1108.07 472.32H1122.83C1120.83 478.4 1117.19 483.4 1111.91 487.32C1106.71 491.16 1100.23 493.08 1092.47 493.08C1086.15 493.08 1080.47 491.68 1075.43 488.88C1070.47 486 1066.55 482 1063.67 476.88C1060.87 471.68 1059.47 465.68 1059.47 458.88C1059.47 452.08 1060.83 446.12 1063.55 441C1066.35 435.8 1070.23 431.8 1075.19 429C1080.23 426.2 1085.99 424.8 1092.47 424.8C1098.71 424.8 1104.27 426.16 1109.15 428.88C1114.03 431.6 1117.83 435.44 1120.55 440.4C1123.27 445.28 1124.63 450.92 1124.63 457.32ZM1110.35 453C1110.27 447.96 1108.47 443.92 1104.95 440.88C1101.43 437.84 1097.07 436.32 1091.87 436.32C1087.15 436.32 1083.11 437.84 1079.75 440.88C1076.39 443.84 1074.39 447.88 1073.75 453H1110.35ZM1198.69 457.32C1198.69 459.8 1198.53 462.04 1198.21 464.04H1147.69C1148.09 469.32 1150.05 473.56 1153.57 476.76C1157.09 479.96 1161.41 481.56 1166.53 481.56C1173.89 481.56 1179.09 478.48 1182.13 472.32H1196.89C1194.89 478.4 1191.25 483.4 1185.97 487.32C1180.77 491.16 1174.29 493.08 1166.53 493.08C1160.21 493.08 1154.53 491.68 1149.49 488.88C1144.53 486 1140.61 482 1137.73 476.88C1134.93 471.68 1133.53 465.68 1133.53 458.88C1133.53 452.08 1134.89 446.12 1137.61 441C1140.41 435.8 1144.29 431.8 1149.25 429C1154.29 426.2 1160.05 424.8 1166.53 424.8C1172.77 424.8 1178.33 426.16 1183.21 428.88C1188.09 431.6 1191.89 435.44 1194.61 440.4C1197.33 445.28 1198.69 450.92 1198.69 457.32ZM1184.41 453C1184.33 447.96 1182.53 443.92 1179.01 440.88C1175.49 437.84 1171.13 436.32 1165.93 436.32C1161.21 436.32 1157.17 437.84 1153.81 440.88C1150.45 443.84 1148.45 447.88 1147.81 453H1184.41ZM1228.12 437.04V473.64C1228.12 476.12 1228.68 477.92 1229.8 479.04C1231 480.08 1233 480.6 1235.8 480.6H1244.2V492H1233.4C1227.24 492 1222.52 490.56 1219.24 487.68C1215.96 484.8 1214.32 480.12 1214.32 473.64V437.04H1206.52V425.88H1214.32V409.44H1228.12V425.88H1244.2V437.04H1228.12ZM1348.34 432.6C1346.18 428.44 1343.18 425.32 1339.34 423.24C1335.5 421.08 1331.06 420 1326.02 420C1320.5 420 1315.58 421.24 1311.26 423.72C1306.94 426.2 1303.54 429.72 1301.06 434.28C1298.66 438.84 1297.46 444.12 1297.46 450.12C1297.46 456.12 1298.66 461.44 1301.06 466.08C1303.54 470.64 1306.94 474.16 1311.26 476.64C1315.58 479.12 1320.5 480.36 1326.02 480.36C1333.46 480.36 1339.5 478.28 1344.14 474.12C1348.78 469.96 1351.62 464.32 1352.66 457.2H1321.34V446.28H1367.3V456.96C1366.42 463.44 1364.1 469.4 1360.34 474.84C1356.66 480.28 1351.82 484.64 1345.82 487.92C1339.9 491.12 1333.3 492.72 1326.02 492.72C1318.18 492.72 1311.02 490.92 1304.54 487.32C1298.06 483.64 1292.9 478.56 1289.06 472.08C1285.3 465.6 1283.42 458.28 1283.42 450.12C1283.42 441.96 1285.3 434.64 1289.06 428.16C1292.9 421.68 1298.06 416.64 1304.54 413.04C1311.1 409.36 1318.26 407.52 1326.02 407.52C1334.9 407.52 1342.78 409.72 1349.66 414.12C1356.62 418.44 1361.66 424.6 1364.78 432.6H1348.34ZM1440.67 425.88V492H1426.99V484.2C1424.83 486.92 1421.99 489.08 1418.47 490.68C1415.03 492.2 1411.35 492.96 1407.43 492.96C1402.23 492.96 1397.55 491.88 1393.39 489.72C1389.31 487.56 1386.07 484.36 1383.67 480.12C1381.35 475.88 1380.19 470.76 1380.19 464.76V425.88H1393.75V462.72C1393.75 468.64 1395.23 473.2 1398.19 476.4C1401.15 479.52 1405.19 481.08 1410.31 481.08C1415.43 481.08 1419.47 479.52 1422.43 476.4C1425.47 473.2 1426.99 468.64 1426.99 462.72V425.88H1440.67ZM1465.68 417.12C1463.2 417.12 1461.12 416.28 1459.44 414.6C1457.76 412.92 1456.92 410.84 1456.92 408.36C1456.92 405.88 1457.76 403.8 1459.44 402.12C1461.12 400.44 1463.2 399.6 1465.68 399.6C1468.08 399.6 1470.12 400.44 1471.8 402.12C1473.48 403.8 1474.32 405.88 1474.32 408.36C1474.32 410.84 1473.48 412.92 1471.8 414.6C1470.12 416.28 1468.08 417.12 1465.68 417.12ZM1472.4 425.88V492H1458.72V425.88H1472.4ZM1485.8 458.64C1485.8 452 1487.16 446.12 1489.88 441C1492.68 435.88 1496.44 431.92 1501.16 429.12C1505.96 426.24 1511.28 424.8 1517.12 424.8C1521.44 424.8 1525.68 425.76 1529.84 427.68C1534.08 429.52 1537.44 432 1539.92 435.12V403.2H1553.72V492H1539.92V482.04C1537.68 485.24 1534.56 487.88 1530.56 489.96C1526.64 492.04 1522.12 493.08 1517 493.08C1511.24 493.08 1505.96 491.64 1501.16 488.76C1496.44 485.8 1492.68 481.72 1489.88 476.52C1487.16 471.24 1485.8 465.28 1485.8 458.64ZM1539.92 458.88C1539.92 454.32 1538.96 450.36 1537.04 447C1535.2 443.64 1532.76 441.08 1529.72 439.32C1526.68 437.56 1523.4 436.68 1519.88 436.68C1516.36 436.68 1513.08 437.56 1510.04 439.32C1507 441 1504.52 443.52 1502.6 446.88C1500.76 450.16 1499.84 454.08 1499.84 458.64C1499.84 463.2 1500.76 467.2 1502.6 470.64C1504.52 474.08 1507 476.72 1510.04 478.56C1513.16 480.32 1516.44 481.2 1519.88 481.2C1523.4 481.2 1526.68 480.32 1529.72 478.56C1532.76 476.8 1535.2 474.24 1537.04 470.88C1538.96 467.44 1539.92 463.44 1539.92 458.88ZM1632.29 457.32C1632.29 459.8 1632.13 462.04 1631.81 464.04H1581.29C1581.69 469.32 1583.65 473.56 1587.17 476.76C1590.69 479.96 1595.01 481.56 1600.13 481.56C1607.49 481.56 1612.69 478.48 1615.73 472.32H1630.49C1628.49 478.4 1624.85 483.4 1619.57 487.32C1614.37 491.16 1607.89 493.08 1600.13 493.08C1593.81 493.08 1588.13 491.68 1583.09 488.88C1578.13 486 1574.21 482 1571.33 476.88C1568.53 471.68 1567.13 465.68 1567.13 458.88C1567.13 452.08 1568.49 446.12 1571.21 441C1574.01 435.8 1577.89 431.8 1582.85 429C1587.89 426.2 1593.65 424.8 1600.13 424.8C1606.37 424.8 1611.93 426.16 1616.81 428.88C1621.69 431.6 1625.49 435.44 1628.21 440.4C1630.93 445.28 1632.29 450.92 1632.29 457.32ZM1618.01 453C1617.93 447.96 1616.13 443.92 1612.61 440.88C1609.09 437.84 1604.73 436.32 1599.53 436.32C1594.81 436.32 1590.77 437.84 1587.41 440.88C1584.05 443.84 1582.05 447.88 1581.41 453H1618.01Z" fill="#8C5A2E"/>
<path d="M639.185 273.1C623.785 273.1 609.985 270.6 597.785 265.6C585.585 260.6 575.785 253.2 568.385 243.4C561.185 233.6 557.385 221.8 556.985 208H611.585C612.385 215.8 615.085 221.8 619.685 226C624.285 230 630.285 232 637.685 232C645.285 232 651.285 230.3 655.685 226.9C660.085 223.3 662.285 218.4 662.285 212.2C662.285 207 660.485 202.7 656.885 199.3C653.485 195.9 649.185 193.1 643.985 190.9C638.985 188.7 631.785 186.2 622.385 183.4C608.785 179.2 597.685 175 589.085 170.8C580.485 166.6 573.085 160.4 566.885 152.2C560.685 144 557.585 133.3 557.585 120.1C557.585 100.5 564.685 85.2 578.885 74.2C593.085 63 611.585 57.4 634.385 57.4C657.585 57.4 676.285 63 690.485 74.2C704.685 85.2 712.285 100.6 713.285 120.4H657.785C657.385 113.6 654.885 108.3 650.285 104.5C645.685 100.5 639.785 98.5 632.585 98.5C626.385 98.5 621.385 100.2 617.585 103.6C613.785 106.8 611.885 111.5 611.885 117.7C611.885 124.5 615.085 129.8 621.485 133.6C627.885 137.4 637.885 141.5 651.485 145.9C665.085 150.5 676.085 154.9 684.485 159.1C693.085 163.3 700.485 169.4 706.685 177.4C712.885 185.4 715.985 195.7 715.985 208.3C715.985 220.3 712.885 231.2 706.685 241C700.685 250.8 691.885 258.6 680.285 264.4C668.685 270.2 654.985 273.1 639.185 273.1ZM900.855 103.6V271H849.555V248.2C844.355 255.6 837.255 261.6 828.255 266.2C819.455 270.6 809.655 272.8 798.855 272.8C786.055 272.8 774.755 270 764.955 264.4C755.155 258.6 747.555 250.3 742.155 239.5C736.755 228.7 734.055 216 734.055 201.4V103.6H785.055V194.5C785.055 205.7 787.955 214.4 793.755 220.6C799.555 226.8 807.355 229.9 817.155 229.9C827.155 229.9 835.055 226.8 840.855 220.6C846.655 214.4 849.555 205.7 849.555 194.5V103.6H900.855ZM989.304 101.2C1001.1 101.2 1011.4 103.6 1020.2 108.4C1029.2 113.2 1036.1 119.5 1040.9 127.3V103.6H1092.2V270.7C1092.2 286.1 1089.1 300 1082.9 312.4C1076.9 325 1067.6 335 1055 342.4C1042.6 349.8 1027.1 353.5 1008.5 353.5C983.704 353.5 963.604 347.6 948.204 335.8C932.804 324.2 924.004 308.4 921.804 288.4H972.504C974.104 294.8 977.904 299.8 983.904 303.4C989.904 307.2 997.304 309.1 1006.1 309.1C1016.7 309.1 1025.1 306 1031.3 299.8C1037.7 293.8 1040.9 284.1 1040.9 270.7V247C1035.9 254.8 1029 261.2 1020.2 266.2C1011.4 271 1001.1 273.4 989.304 273.4C975.504 273.4 963.004 269.9 951.804 262.9C940.604 255.7 931.704 245.6 925.104 232.6C918.704 219.4 915.504 204.2 915.504 187C915.504 169.8 918.704 154.7 925.104 141.7C931.704 128.7 940.604 118.7 951.804 111.7C963.004 104.7 975.504 101.2 989.304 101.2ZM1040.9 187.3C1040.9 174.5 1037.3 164.4 1030.1 157C1023.1 149.6 1014.5 145.9 1004.3 145.9C994.104 145.9 985.404 149.6 978.204 157C971.204 164.2 967.704 174.2 967.704 187C967.704 199.8 971.204 210 978.204 217.6C985.404 225 994.104 228.7 1004.3 228.7C1014.5 228.7 1023.1 225 1030.1 217.6C1037.3 210.2 1040.9 200.1 1040.9 187.3ZM1107.12 187C1107.12 169.8 1110.32 154.7 1116.72 141.7C1123.32 128.7 1132.22 118.7 1143.42 111.7C1154.62 104.7 1167.12 101.2 1180.92 101.2C1192.72 101.2 1203.02 103.6 1211.82 108.4C1220.82 113.2 1227.72 119.5 1232.52 127.3V103.6H1283.82V271H1232.52V247.3C1227.52 255.1 1220.52 261.4 1211.52 266.2C1202.72 271 1192.42 273.4 1180.62 273.4C1167.02 273.4 1154.62 269.9 1143.42 262.9C1132.22 255.7 1123.32 245.6 1116.72 232.6C1110.32 219.4 1107.12 204.2 1107.12 187ZM1232.52 187.3C1232.52 174.5 1228.92 164.4 1221.72 157C1214.72 149.6 1206.12 145.9 1195.92 145.9C1185.72 145.9 1177.02 149.6 1169.82 157C1162.82 164.2 1159.32 174.2 1159.32 187C1159.32 199.8 1162.82 210 1169.82 217.6C1177.02 225 1185.72 228.7 1195.92 228.7C1206.12 228.7 1214.72 225 1221.72 217.6C1228.92 210.2 1232.52 200.1 1232.52 187.3ZM1360.23 131.5C1366.23 122.3 1373.73 115.1 1382.73 109.9C1391.73 104.5 1401.73 101.8 1412.73 101.8V156.1H1398.63C1385.83 156.1 1376.23 158.9 1369.83 164.5C1363.43 169.9 1360.23 179.5 1360.23 193.3V271H1308.93V103.6H1360.23V131.5ZM1576.75 60.4V101.5H1520.95V271H1469.65V101.5H1413.85V60.4H1576.75ZM1666.7 273.4C1650.3 273.4 1635.5 269.9 1622.3 262.9C1609.3 255.9 1599 245.9 1591.4 232.9C1584 219.9 1580.3 204.7 1580.3 187.3C1580.3 170.1 1584.1 155 1591.7 142C1599.3 128.8 1609.7 118.7 1622.9 111.7C1636.1 104.7 1650.9 101.2 1667.3 101.2C1683.7 101.2 1698.5 104.7 1711.7 111.7C1724.9 118.7 1735.3 128.8 1742.9 142C1750.5 155 1754.3 170.1 1754.3 187.3C1754.3 204.5 1750.4 219.7 1742.6 232.9C1735 245.9 1724.5 255.9 1711.1 262.9C1697.9 269.9 1683.1 273.4 1666.7 273.4ZM1666.7 229C1676.5 229 1684.8 225.4 1691.6 218.2C1698.6 211 1702.1 200.7 1702.1 187.3C1702.1 173.9 1698.7 163.6 1691.9 156.4C1685.3 149.2 1677.1 145.6 1667.3 145.6C1657.3 145.6 1649 149.2 1642.4 156.4C1635.8 163.4 1632.5 173.7 1632.5 187.3C1632.5 200.7 1635.7 211 1642.1 218.2C1648.7 225.4 1656.9 229 1666.7 229ZM1820.81 127.3C1825.81 119.5 1832.71 113.2 1841.51 108.4C1850.31 103.6 1860.61 101.2 1872.41 101.2C1886.21 101.2 1898.71 104.7 1909.91 111.7C1921.11 118.7 1929.91 128.7 1936.31 141.7C1942.91 154.7 1946.21 169.8 1946.21 187C1946.21 204.2 1942.91 219.4 1936.31 232.6C1929.91 245.6 1921.11 255.7 1909.91 262.9C1898.71 269.9 1886.21 273.4 1872.41 273.4C1860.81 273.4 1850.51 271 1841.51 266.2C1832.71 261.4 1825.81 255.2 1820.81 247.6V350.8H1769.51V103.6H1820.81V127.3ZM1894.01 187C1894.01 174.2 1890.41 164.2 1883.21 157C1876.21 149.6 1867.51 145.9 1857.11 145.9C1846.91 145.9 1838.21 149.6 1831.01 157C1824.01 164.4 1820.51 174.5 1820.51 187.3C1820.51 200.1 1824.01 210.2 1831.01 217.6C1838.21 225 1846.91 228.7 1857.11 228.7C1867.31 228.7 1876.01 225 1883.21 217.6C1890.41 210 1894.01 199.8 1894.01 187ZM1986.93 86.2C1977.93 86.2 1970.53 83.6 1964.73 78.4C1959.13 73 1956.33 66.4 1956.33 58.6C1956.33 50.6 1959.13 44 1964.73 38.8C1970.53 33.4 1977.93 30.7 1986.93 30.7C1995.73 30.7 2002.93 33.4 2008.53 38.8C2014.33 44 2017.23 50.6 2017.23 58.6C2017.23 66.4 2014.33 73 2008.53 78.4C2002.93 83.6 1995.73 86.2 1986.93 86.2ZM2012.43 103.6V271H1961.13V103.6H2012.43ZM2027.4 187C2027.4 169.8 2030.6 154.7 2037 141.7C2043.6 128.7 2052.5 118.7 2063.7 111.7C2074.9 104.7 2087.4 101.2 2101.2 101.2C2113 101.2 2123.3 103.6 2132.1 108.4C2141.1 113.2 2148 119.5 2152.8 127.3V103.6H2204.1V271H2152.8V247.3C2147.8 255.1 2140.8 261.4 2131.8 266.2C2123 271 2112.7 273.4 2100.9 273.4C2087.3 273.4 2074.9 269.9 2063.7 262.9C2052.5 255.7 2043.6 245.6 2037 232.6C2030.6 219.4 2027.4 204.2 2027.4 187ZM2152.8 187.3C2152.8 174.5 2149.2 164.4 2142 157C2135 149.6 2126.4 145.9 2116.2 145.9C2106 145.9 2097.3 149.6 2090.1 157C2083.1 164.2 2079.6 174.2 2079.6 187C2079.6 199.8 2083.1 210 2090.1 217.6C2097.3 225 2106 228.7 2116.2 228.7C2126.4 228.7 2135 225 2142 217.6C2149.2 210.2 2152.8 200.1 2152.8 187.3Z" fill="#8C5A2E"/>
</svg>
