<svg width="1665" height="720" viewBox="0 0 1665 720" fill="none" xmlns="http://www.w3.org/2000/svg">
<mask id="path-1-inside-1_216_4480" fill="white">
<path d="M10.0002 321.237C10.0002 489.815 146.66 626.474 315.237 626.474C483.815 626.474 620.475 489.815 620.475 321.237C620.475 152.659 483.815 16 315.237 16C146.66 16 10.0002 152.659 10.0002 321.237ZM505.376 321.237C505.376 426.248 420.248 511.376 315.237 511.376C210.227 511.376 125.099 426.248 125.099 321.237C125.099 216.227 210.227 131.099 315.237 131.099C420.248 131.099 505.376 216.227 505.376 321.237Z"/>
</mask>
<path d="M10.0002 321.237C10.0002 489.815 146.66 626.474 315.237 626.474C483.815 626.474 620.475 489.815 620.475 321.237C620.475 152.659 483.815 16 315.237 16C146.66 16 10.0002 152.659 10.0002 321.237ZM505.376 321.237C505.376 426.248 420.248 511.376 315.237 511.376C210.227 511.376 125.099 426.248 125.099 321.237C125.099 216.227 210.227 131.099 315.237 131.099C420.248 131.099 505.376 216.227 505.376 321.237Z" fill="#FCDC94" stroke="#8C5A2E" stroke-width="34" mask="url(#path-1-inside-1_216_4480)"/>
<rect x="11.6517" y="-0.905231" width="114.863" height="202.771" rx="57.4313" transform="matrix(0.629143 -0.777289 0.741646 0.670791 506.477 571.413)" fill="#FCDC94" stroke="#8C5A2E" stroke-width="17"/>
<path d="M440 294.706V365.413C440 404.467 384.037 436.12 315 436.12C245.963 436.12 190 404.467 190 365.413V294.706" fill="#FCDC94"/>
<path d="M440 294.706V365.413C440 404.467 384.037 436.12 315 436.12C245.963 436.12 190 404.467 190 365.413V294.706" stroke="#8C5A2E" stroke-width="16" stroke-linecap="round" stroke-linejoin="round"/>
<path d="M440 294.707C440 333.761 384.037 365.414 315 365.414C245.963 365.414 190 333.761 190 294.707C190 255.653 245.963 224 315 224C384.037 224 440 255.653 440 294.707Z" fill="#FCDC94" stroke="#8C5A2E" stroke-width="16" stroke-linecap="round" stroke-linejoin="round"/>
<path d="M315 269.418C352.5 252.766 377.5 279.588 377.5 292.138C377.5 329.495 252.5 327.551 252.5 281.532C252.5 253.438 277.5 224 315 224" fill="#FCDC94"/>
<path d="M315 269.418C352.5 252.766 377.5 279.588 377.5 292.138C377.5 329.495 252.5 327.551 252.5 281.532C252.5 253.438 277.5 224 315 224" stroke="#8C5A2E" stroke-width="16" stroke-linecap="round" stroke-linejoin="round"/>
<ellipse cx="6.32183" cy="6.32183" rx="6.32183" ry="6.32183" transform="matrix(0.997756 -0.06695 0.0413471 0.999145 322 383.474)" fill="#8C5A2E"/>
<ellipse cx="6.32183" cy="6.32183" rx="6.32183" ry="6.32183" transform="matrix(0.997756 -0.06695 0.0413471 0.999145 363.862 381.721)" fill="#8C5A2E"/>
<path d="M334.039 410.457C339.602 412.872 345.478 413.799 351.228 413.157C357.1 412.502 362.663 410.23 367.489 406.535C368.541 405.73 368.669 404.054 367.863 402.776C366.966 401.352 365.29 400.973 364.16 401.811C360.042 404.863 355.336 406.739 350.383 407.292C345.46 407.841 340.436 407.067 335.673 405.042C334.29 404.454 332.794 405.05 332.325 406.543C331.86 408.02 332.595 409.831 334.039 410.457Z" fill="#8C5A2E" stroke="#8C5A2E"/>
<path d="M745.036 352.12C731.916 352.12 721.142 349.027 712.716 342.84C704.289 336.547 699.756 327.587 699.116 315.96H732.556C732.876 319.907 734.049 322.787 736.076 324.6C738.102 326.413 740.716 327.32 743.916 327.32C746.796 327.32 749.142 326.627 750.956 325.24C752.876 323.747 753.836 321.72 753.836 319.16C753.836 315.853 752.289 313.293 749.196 311.48C746.102 309.667 741.089 307.64 734.156 305.4C726.796 302.947 720.822 300.6 716.236 298.36C711.756 296.013 707.809 292.653 704.396 288.28C701.089 283.8 699.436 277.987 699.436 270.84C699.436 263.587 701.249 257.4 704.876 252.28C708.502 247.053 713.516 243.107 719.916 240.44C726.316 237.773 733.569 236.44 741.676 236.44C754.796 236.44 765.249 239.533 773.036 245.72C780.929 251.8 785.142 260.387 785.676 271.48H751.596C751.489 268.067 750.422 265.507 748.396 263.8C746.476 262.093 743.969 261.24 740.876 261.24C738.529 261.24 736.609 261.933 735.116 263.32C733.622 264.707 732.876 266.68 732.876 269.24C732.876 271.373 733.676 273.24 735.276 274.84C736.982 276.333 739.062 277.667 741.516 278.84C743.969 279.907 747.596 281.293 752.396 283C759.542 285.453 765.409 287.907 769.996 290.36C774.689 292.707 778.689 296.067 781.996 300.44C785.409 304.707 787.116 310.147 787.116 316.76C787.116 323.48 785.409 329.507 781.996 334.84C778.689 340.173 773.836 344.387 767.436 347.48C761.142 350.573 753.676 352.12 745.036 352.12ZM893.534 261.24V351H862.014V338.2C859.348 342.253 855.668 345.56 850.974 348.12C846.281 350.573 840.894 351.8 834.814 351.8C824.361 351.8 816.094 348.387 810.014 341.56C804.041 334.627 801.054 325.24 801.054 313.4V261.24H832.254V309.4C832.254 314.52 833.588 318.573 836.254 321.56C839.028 324.44 842.654 325.88 847.134 325.88C851.721 325.88 855.348 324.44 858.014 321.56C860.681 318.573 862.014 314.52 862.014 309.4V261.24H893.534ZM944.502 260.12C950.582 260.12 955.862 261.347 960.342 263.8C964.929 266.253 968.449 269.56 970.902 273.72V261.24H1002.26V350.04C1002.26 358.467 1000.66 366.04 997.462 372.76C994.262 379.587 989.249 385.027 982.422 389.08C975.702 393.133 967.169 395.16 956.822 395.16C942.955 395.16 931.862 391.907 923.542 385.4C915.222 378.893 910.475 370.04 909.302 358.84H940.182C940.822 361.72 942.422 363.96 944.982 365.56C947.542 367.16 950.849 367.96 954.902 367.96C965.569 367.96 970.902 361.987 970.902 350.04V338.52C968.449 342.68 964.929 345.987 960.342 348.44C955.862 350.893 950.582 352.12 944.502 352.12C937.355 352.12 930.849 350.253 924.982 346.52C919.222 342.787 914.635 337.453 911.222 330.52C907.915 323.48 906.262 315.32 906.262 306.04C906.262 296.76 907.915 288.653 911.222 281.72C914.635 274.787 919.222 269.453 924.982 265.72C930.849 261.987 937.355 260.12 944.502 260.12ZM970.902 306.04C970.902 300.28 969.302 295.747 966.102 292.44C963.009 289.133 959.169 287.48 954.582 287.48C949.889 287.48 945.995 289.133 942.902 292.44C939.809 295.64 938.262 300.173 938.262 306.04C938.262 311.8 939.809 316.387 942.902 319.8C945.995 323.107 949.889 324.76 954.582 324.76C959.169 324.76 963.009 323.107 966.102 319.8C969.302 316.493 970.902 311.907 970.902 306.04ZM1015.01 306.04C1015.01 296.76 1016.67 288.653 1019.97 281.72C1023.39 274.787 1027.97 269.453 1033.73 265.72C1039.6 261.987 1046.11 260.12 1053.25 260.12C1059.44 260.12 1064.77 261.347 1069.25 263.8C1073.73 266.253 1077.2 269.56 1079.65 273.72V261.24H1111.01V351H1079.65V338.52C1077.2 342.68 1073.68 345.987 1069.09 348.44C1064.61 350.893 1059.33 352.12 1053.25 352.12C1046.11 352.12 1039.6 350.253 1033.73 346.52C1027.97 342.787 1023.39 337.453 1019.97 330.52C1016.67 323.48 1015.01 315.32 1015.01 306.04ZM1079.65 306.04C1079.65 300.28 1078.05 295.747 1074.85 292.44C1071.76 289.133 1067.92 287.48 1063.33 287.48C1058.64 287.48 1054.75 289.133 1051.65 292.44C1048.56 295.64 1047.01 300.173 1047.01 306.04C1047.01 311.8 1048.56 316.387 1051.65 319.8C1054.75 323.107 1058.64 324.76 1063.33 324.76C1067.92 324.76 1071.76 323.107 1074.85 319.8C1078.05 316.493 1079.65 311.907 1079.65 306.04ZM1160.24 277.08C1163.76 271.96 1168.03 267.907 1173.04 264.92C1178.06 261.933 1183.44 260.44 1189.2 260.44V293.88H1180.4C1173.58 293.88 1168.51 295.213 1165.2 297.88C1161.9 300.547 1160.24 305.187 1160.24 311.8V351H1128.88V261.24H1160.24V277.08ZM1285.4 238.2V263.16H1255.32V351H1223.96V263.16H1194.2V238.2H1285.4ZM1338.77 352.12C1329.81 352.12 1321.75 350.253 1314.61 346.52C1307.57 342.787 1302.02 337.453 1297.97 330.52C1293.91 323.587 1291.89 315.427 1291.89 306.04C1291.89 296.76 1293.91 288.653 1297.97 281.72C1302.13 274.787 1307.73 269.453 1314.77 265.72C1321.91 261.987 1329.97 260.12 1338.93 260.12C1347.89 260.12 1355.89 261.987 1362.93 265.72C1370.07 269.453 1375.67 274.787 1379.73 281.72C1383.89 288.653 1385.97 296.76 1385.97 306.04C1385.97 315.32 1383.89 323.48 1379.73 330.52C1375.67 337.453 1370.07 342.787 1362.93 346.52C1355.78 350.253 1347.73 352.12 1338.77 352.12ZM1338.77 324.92C1343.14 324.92 1346.77 323.32 1349.65 320.12C1352.63 316.813 1354.13 312.12 1354.13 306.04C1354.13 299.96 1352.63 295.32 1349.65 292.12C1346.77 288.92 1343.19 287.32 1338.93 287.32C1334.66 287.32 1331.09 288.92 1328.21 292.12C1325.33 295.32 1323.89 299.96 1323.89 306.04C1323.89 312.227 1325.27 316.92 1328.05 320.12C1330.82 323.32 1334.39 324.92 1338.77 324.92ZM1430.09 273.72C1432.54 269.56 1436.01 266.253 1440.49 263.8C1444.97 261.347 1450.25 260.12 1456.33 260.12C1463.47 260.12 1469.93 261.987 1475.69 265.72C1481.55 269.453 1486.14 274.787 1489.45 281.72C1492.86 288.653 1494.57 296.76 1494.57 306.04C1494.57 315.32 1492.86 323.48 1489.45 330.52C1486.14 337.453 1481.55 342.787 1475.69 346.52C1469.93 350.253 1463.47 352.12 1456.33 352.12C1450.25 352.12 1444.97 350.893 1440.49 348.44C1436.11 345.987 1432.65 342.68 1430.09 338.52V393.88H1398.73V261.24H1430.09V273.72ZM1462.73 306.04C1462.73 300.173 1461.13 295.64 1457.93 292.44C1454.83 289.133 1450.99 287.48 1446.41 287.48C1441.82 287.48 1437.93 289.133 1434.73 292.44C1431.63 295.747 1430.09 300.28 1430.09 306.04C1430.09 311.907 1431.63 316.493 1434.73 319.8C1437.93 323.107 1441.82 324.76 1446.41 324.76C1450.99 324.76 1454.83 323.107 1457.93 319.8C1461.13 316.387 1462.73 311.8 1462.73 306.04ZM1523.32 252.92C1517.77 252.92 1513.29 251.427 1509.88 248.44C1506.57 245.347 1504.92 241.507 1504.92 236.92C1504.92 232.227 1506.57 228.333 1509.88 225.24C1513.29 222.147 1517.77 220.6 1523.32 220.6C1528.76 220.6 1533.13 222.147 1536.44 225.24C1539.85 228.333 1541.56 232.227 1541.56 236.92C1541.56 241.507 1539.85 245.347 1536.44 248.44C1533.13 251.427 1528.76 252.92 1523.32 252.92ZM1538.84 261.24V351H1507.48V261.24H1538.84ZM1551.57 306.04C1551.57 296.76 1553.23 288.653 1556.53 281.72C1559.95 274.787 1564.53 269.453 1570.29 265.72C1576.16 261.987 1582.67 260.12 1589.81 260.12C1596 260.12 1601.33 261.347 1605.81 263.8C1610.29 266.253 1613.76 269.56 1616.21 273.72V261.24H1647.57V351H1616.21V338.52C1613.76 342.68 1610.24 345.987 1605.65 348.44C1601.17 350.893 1595.89 352.12 1589.81 352.12C1582.67 352.12 1576.16 350.253 1570.29 346.52C1564.53 342.787 1559.95 337.453 1556.53 330.52C1553.23 323.48 1551.57 315.32 1551.57 306.04ZM1616.21 306.04C1616.21 300.28 1614.61 295.747 1611.41 292.44C1608.32 289.133 1604.48 287.48 1599.89 287.48C1595.2 287.48 1591.31 289.133 1588.21 292.44C1585.12 295.64 1583.57 300.173 1583.57 306.04C1583.57 311.8 1585.12 316.387 1588.21 319.8C1591.31 323.107 1595.2 324.76 1599.89 324.76C1604.48 324.76 1608.32 323.107 1611.41 319.8C1614.61 316.493 1616.21 311.907 1616.21 306.04Z" fill="#8C5A2E"/>
<path d="M830.727 428.82L808.857 471.12V492H793.467V471.12L771.597 428.82H789.057L801.297 455.28L813.447 428.82H830.727ZM859.788 492.72C854.868 492.72 850.428 491.67 846.468 489.57C842.568 487.47 839.478 484.47 837.198 480.57C834.978 476.67 833.868 472.11 833.868 466.89C833.868 461.73 835.008 457.2 837.288 453.3C839.568 449.34 842.688 446.31 846.648 444.21C850.608 442.11 855.048 441.06 859.968 441.06C864.888 441.06 869.328 442.11 873.288 444.21C877.248 446.31 880.368 449.34 882.648 453.3C884.928 457.2 886.068 461.73 886.068 466.89C886.068 472.05 884.898 476.61 882.558 480.57C880.278 484.47 877.128 487.47 873.108 489.57C869.148 491.67 864.708 492.72 859.788 492.72ZM859.788 479.4C862.728 479.4 865.218 478.32 867.258 476.16C869.358 474 870.408 470.91 870.408 466.89C870.408 462.87 869.388 459.78 867.348 457.62C865.368 455.46 862.908 454.38 859.968 454.38C856.968 454.38 854.478 455.46 852.498 457.62C850.518 459.72 849.528 462.81 849.528 466.89C849.528 470.91 850.488 474 852.408 476.16C854.388 478.32 856.848 479.4 859.788 479.4ZM943.822 441.78V492H928.432V485.16C926.872 487.38 924.742 489.18 922.042 490.56C919.402 491.88 916.462 492.54 913.222 492.54C909.382 492.54 905.992 491.7 903.052 490.02C900.112 488.28 897.832 485.79 896.212 482.55C894.592 479.31 893.782 475.5 893.782 471.12V441.78H909.082V469.05C909.082 472.41 909.952 475.02 911.692 476.88C913.432 478.74 915.772 479.67 918.712 479.67C921.712 479.67 924.082 478.74 925.822 476.88C927.562 475.02 928.432 472.41 928.432 469.05V441.78H943.822ZM970.267 450.15C972.067 447.39 974.317 445.23 977.017 443.67C979.717 442.05 982.717 441.24 986.017 441.24V457.53H981.787C977.947 457.53 975.067 458.37 973.147 460.05C971.227 461.67 970.267 464.55 970.267 468.69V492H954.877V441.78H970.267V450.15ZM1035.31 492.63C1030.69 492.63 1026.55 491.88 1022.89 490.38C1019.23 488.88 1016.29 486.66 1014.07 483.72C1011.91 480.78 1010.77 477.24 1010.65 473.1H1027.03C1027.27 475.44 1028.08 477.24 1029.46 478.5C1030.84 479.7 1032.64 480.3 1034.86 480.3C1037.14 480.3 1038.94 479.79 1040.26 478.77C1041.58 477.69 1042.24 476.22 1042.24 474.36C1042.24 472.8 1041.7 471.51 1040.62 470.49C1039.6 469.47 1038.31 468.63 1036.75 467.97C1035.25 467.31 1033.09 466.56 1030.27 465.72C1026.19 464.46 1022.86 463.2 1020.28 461.94C1017.7 460.68 1015.48 458.82 1013.62 456.36C1011.76 453.9 1010.83 450.69 1010.83 446.73C1010.83 440.85 1012.96 436.26 1017.22 432.96C1021.48 429.6 1027.03 427.92 1033.87 427.92C1040.83 427.92 1046.44 429.6 1050.7 432.96C1054.96 436.26 1057.24 440.88 1057.54 446.82H1040.89C1040.77 444.78 1040.02 443.19 1038.64 442.05C1037.26 440.85 1035.49 440.25 1033.33 440.25C1031.47 440.25 1029.97 440.76 1028.83 441.78C1027.69 442.74 1027.12 444.15 1027.12 446.01C1027.12 448.05 1028.08 449.64 1030 450.78C1031.92 451.92 1034.92 453.15 1039 454.47C1043.08 455.85 1046.38 457.17 1048.9 458.43C1051.48 459.69 1053.7 461.52 1055.56 463.92C1057.42 466.32 1058.35 469.41 1058.35 473.19C1058.35 476.79 1057.42 480.06 1055.56 483C1053.76 485.94 1051.12 488.28 1047.64 490.02C1044.16 491.76 1040.05 492.63 1035.31 492.63ZM1139.91 441.78L1126.32 492H1109.31L1101.39 459.42L1093.2 492H1076.28L1062.6 441.78H1077.99L1085.1 477.69L1093.56 441.78H1109.85L1118.4 477.51L1125.42 441.78H1139.91ZM1193.12 466.08C1193.12 467.52 1193.03 469.02 1192.85 470.58H1158.02C1158.26 473.7 1159.25 476.1 1160.99 477.78C1162.79 479.4 1164.98 480.21 1167.56 480.21C1171.4 480.21 1174.07 478.59 1175.57 475.35H1191.95C1191.11 478.65 1189.58 481.62 1187.36 484.26C1185.2 486.9 1182.47 488.97 1179.17 490.47C1175.87 491.97 1172.18 492.72 1168.1 492.72C1163.18 492.72 1158.8 491.67 1154.96 489.57C1151.12 487.47 1148.12 484.47 1145.96 480.57C1143.8 476.67 1142.72 472.11 1142.72 466.89C1142.72 461.67 1143.77 457.11 1145.87 453.21C1148.03 449.31 1151.03 446.31 1154.87 444.21C1158.71 442.11 1163.12 441.06 1168.1 441.06C1172.96 441.06 1177.28 442.08 1181.06 444.12C1184.84 446.16 1187.78 449.07 1189.88 452.85C1192.04 456.63 1193.12 461.04 1193.12 466.08ZM1177.37 462.03C1177.37 459.39 1176.47 457.29 1174.67 455.73C1172.87 454.17 1170.62 453.39 1167.92 453.39C1165.34 453.39 1163.15 454.14 1161.35 455.64C1159.61 457.14 1158.53 459.27 1158.11 462.03H1177.37ZM1248.57 466.08C1248.57 467.52 1248.48 469.02 1248.3 470.58H1213.47C1213.71 473.7 1214.7 476.1 1216.44 477.78C1218.24 479.4 1220.43 480.21 1223.01 480.21C1226.85 480.21 1229.52 478.59 1231.02 475.35H1247.4C1246.56 478.65 1245.03 481.62 1242.81 484.26C1240.65 486.9 1237.92 488.97 1234.62 490.47C1231.32 491.97 1227.63 492.72 1223.55 492.72C1218.63 492.72 1214.25 491.67 1210.41 489.57C1206.57 487.47 1203.57 484.47 1201.41 480.57C1199.25 476.67 1198.17 472.11 1198.17 466.89C1198.17 461.67 1199.22 457.11 1201.32 453.21C1203.48 449.31 1206.48 446.31 1210.32 444.21C1214.16 442.11 1218.57 441.06 1223.55 441.06C1228.41 441.06 1232.73 442.08 1236.51 444.12C1240.29 446.16 1243.23 449.07 1245.33 452.85C1247.49 456.63 1248.57 461.04 1248.57 466.08ZM1232.82 462.03C1232.82 459.39 1231.92 457.29 1230.12 455.73C1228.32 454.17 1226.07 453.39 1223.37 453.39C1220.79 453.39 1218.6 454.14 1216.8 455.64C1215.06 457.14 1213.98 459.27 1213.56 462.03H1232.82ZM1284.68 478.95V492H1276.85C1271.27 492 1266.92 490.65 1263.8 487.95C1260.68 485.19 1259.12 480.72 1259.12 474.54V454.56H1253V441.78H1259.12V429.54H1274.51V441.78H1284.59V454.56H1274.51V474.72C1274.51 476.22 1274.87 477.3 1275.59 477.96C1276.31 478.62 1277.51 478.95 1279.19 478.95H1284.68ZM1354.27 448.8C1353.13 446.7 1351.48 445.11 1349.32 444.03C1347.22 442.89 1344.73 442.32 1341.85 442.32C1336.87 442.32 1332.88 443.97 1329.88 447.27C1326.88 450.51 1325.38 454.86 1325.38 460.32C1325.38 466.14 1326.94 470.7 1330.06 474C1333.24 477.24 1337.59 478.86 1343.11 478.86C1346.89 478.86 1350.07 477.9 1352.65 475.98C1355.29 474.06 1357.21 471.3 1358.41 467.7H1338.88V456.36H1372.36V470.67C1371.22 474.51 1369.27 478.08 1366.51 481.38C1363.81 484.68 1360.36 487.35 1356.16 489.39C1351.96 491.43 1347.22 492.45 1341.94 492.45C1335.7 492.45 1330.12 491.1 1325.2 488.4C1320.34 485.64 1316.53 481.83 1313.77 476.97C1311.07 472.11 1309.72 466.56 1309.72 460.32C1309.72 454.08 1311.07 448.53 1313.77 443.67C1316.53 438.75 1320.34 434.94 1325.2 432.24C1330.06 429.48 1335.61 428.1 1341.85 428.1C1349.41 428.1 1355.77 429.93 1360.93 433.59C1366.15 437.25 1369.6 442.32 1371.28 448.8H1354.27ZM1430.47 441.78V492H1415.08V485.16C1413.52 487.38 1411.39 489.18 1408.69 490.56C1406.05 491.88 1403.11 492.54 1399.87 492.54C1396.03 492.54 1392.64 491.7 1389.7 490.02C1386.76 488.28 1384.48 485.79 1382.86 482.55C1381.24 479.31 1380.43 475.5 1380.43 471.12V441.78H1395.73V469.05C1395.73 472.41 1396.6 475.02 1398.34 476.88C1400.08 478.74 1402.42 479.67 1405.36 479.67C1408.36 479.67 1410.73 478.74 1412.47 476.88C1414.21 475.02 1415.08 472.41 1415.08 469.05V441.78H1430.47ZM1449.27 436.56C1446.57 436.56 1444.35 435.78 1442.61 434.22C1440.93 432.6 1440.09 430.62 1440.09 428.28C1440.09 425.88 1440.93 423.9 1442.61 422.34C1444.35 420.72 1446.57 419.91 1449.27 419.91C1451.91 419.91 1454.07 420.72 1455.75 422.34C1457.49 423.9 1458.36 425.88 1458.36 428.28C1458.36 430.62 1457.49 432.6 1455.75 434.22C1454.07 435.78 1451.91 436.56 1449.27 436.56ZM1456.92 441.78V492H1441.53V441.78H1456.92ZM1465.01 466.8C1465.01 461.64 1465.97 457.11 1467.89 453.21C1469.87 449.31 1472.54 446.31 1475.9 444.21C1479.26 442.11 1483.01 441.06 1487.15 441.06C1490.45 441.06 1493.45 441.75 1496.15 443.13C1498.91 444.51 1501.07 446.37 1502.63 448.71V425.4H1518.02V492H1502.63V484.8C1501.19 487.2 1499.12 489.12 1496.42 490.56C1493.78 492 1490.69 492.72 1487.15 492.72C1483.01 492.72 1479.26 491.67 1475.9 489.57C1472.54 487.41 1469.87 484.38 1467.89 480.48C1465.97 476.52 1465.01 471.96 1465.01 466.8ZM1502.63 466.89C1502.63 463.05 1501.55 460.02 1499.39 457.8C1497.29 455.58 1494.71 454.47 1491.65 454.47C1488.59 454.47 1485.98 455.58 1483.82 457.8C1481.72 459.96 1480.67 462.96 1480.67 466.8C1480.67 470.64 1481.72 473.7 1483.82 475.98C1485.98 478.2 1488.59 479.31 1491.65 479.31C1494.71 479.31 1497.29 478.2 1499.39 475.98C1501.55 473.76 1502.63 470.73 1502.63 466.89ZM1576.49 466.08C1576.49 467.52 1576.4 469.02 1576.22 470.58H1541.39C1541.63 473.7 1542.62 476.1 1544.36 477.78C1546.16 479.4 1548.35 480.21 1550.93 480.21C1554.77 480.21 1557.44 478.59 1558.94 475.35H1575.32C1574.48 478.65 1572.95 481.62 1570.73 484.26C1568.57 486.9 1565.84 488.97 1562.54 490.47C1559.24 491.97 1555.55 492.72 1551.47 492.72C1546.55 492.72 1542.17 491.67 1538.33 489.57C1534.49 487.47 1531.49 484.47 1529.33 480.57C1527.17 476.67 1526.09 472.11 1526.09 466.89C1526.09 461.67 1527.14 457.11 1529.24 453.21C1531.4 449.31 1534.4 446.31 1538.24 444.21C1542.08 442.11 1546.49 441.06 1551.47 441.06C1556.33 441.06 1560.65 442.08 1564.43 444.12C1568.21 446.16 1571.15 449.07 1573.25 452.85C1575.41 456.63 1576.49 461.04 1576.49 466.08ZM1560.74 462.03C1560.74 459.39 1559.84 457.29 1558.04 455.73C1556.24 454.17 1553.99 453.39 1551.29 453.39C1548.71 453.39 1546.52 454.14 1544.72 455.64C1542.98 457.14 1541.9 459.27 1541.48 462.03H1560.74Z" fill="#8C5A2E"/>
</svg>
