<svg width="1609" height="923" viewBox="0 0 1609 923" fill="none" xmlns="http://www.w3.org/2000/svg">
<rect x="569.5" y="20" width="470" height="410.467" rx="62.6667" fill="#FCDC94"/>
<rect x="569.5" y="20" width="470" height="410.467" rx="62.6667" stroke="#59391D" stroke-width="29.2444"/>
<path d="M1041.59 74.0283C1041.59 110.209 990.153 139.533 926.7 139.533C863.247 139.533 811.811 110.209 811.811 74.0283C811.811 37.8477 863.247 8.52332 926.7 8.52332C990.153 8.52332 1041.59 37.8477 1041.59 74.0283Z" fill="#FCDC94" stroke="#59391D" stroke-width="27.5733" stroke-linecap="round" stroke-linejoin="round"/>
<path d="M926.7 50.5993C961.167 35.1729 984.144 60.0211 984.144 71.6483C984.144 106.257 869.256 104.455 869.256 61.8225C869.256 35.7952 892.233 8.52332 926.7 8.52332" fill="#FCDC94"/>
<path d="M926.7 50.5993C961.167 35.1729 984.144 60.0211 984.144 71.6483C984.144 106.257 869.256 104.455 869.256 61.8225C869.256 35.7952 892.233 8.52332 926.7 8.52332" stroke="#59391D" stroke-width="27.5733" stroke-linecap="round" stroke-linejoin="round"/>
<rect x="569.5" y="20" width="470" height="410.467" rx="62.6667" fill="#FCDC94"/>
<rect x="569.5" y="20" width="470" height="410.467" rx="62.6667" stroke="#59391D" stroke-width="29.2444"/>
<path d="M1041.59 74.0283C1041.59 110.209 990.153 139.533 926.7 139.533C863.247 139.533 811.811 110.209 811.811 74.0283C811.811 37.8477 863.247 8.52332 926.7 8.52332C990.153 8.52332 1041.59 37.8477 1041.59 74.0283Z" fill="#FCDC94" stroke="#59391D" stroke-width="27.5733" stroke-linecap="round" stroke-linejoin="round"/>
<path d="M926.7 50.5993C961.167 35.1729 984.144 60.0211 984.144 71.6483C984.144 106.257 869.256 104.455 869.256 61.8225C869.256 35.7952 892.233 8.52332 926.7 8.52332" fill="#FCDC94"/>
<path d="M926.7 50.5993C961.167 35.1729 984.144 60.0211 984.144 71.6483C984.144 106.257 869.256 104.455 869.256 61.8225C869.256 35.7952 892.233 8.52332 926.7 8.52332" stroke="#59391D" stroke-width="27.5733" stroke-linecap="round" stroke-linejoin="round"/>
<mask id="path-9-outside-1_280_2440" maskUnits="userSpaceOnUse" x="627.9" y="300.23" width="84" height="82" fill="black">
<rect fill="white" x="627.9" y="300.23" width="84" height="82"/>
<path d="M644.985 327.525V314.105C641.089 314.971 637.279 315.664 633.903 316.183C633.729 316.183 633.47 316.183 633.297 316.183C631.738 316.183 630.699 315.144 630.613 313.586C630.526 313.326 630.526 313.066 630.526 312.893C630.526 311.421 631.305 310.382 633.037 310.209C641.262 309.084 652.604 306.227 659.357 303.023C659.876 302.677 660.396 302.59 660.915 302.59C662.127 302.59 663.08 303.283 663.599 304.495C663.772 304.928 663.859 305.447 663.859 305.88C663.859 307.179 663.08 308.305 661.868 308.911C659.011 310.123 655.288 311.421 651.218 312.547V327.525H663.513C665.071 327.525 665.937 328.91 665.937 330.555C665.937 332.374 665.158 333.499 663.599 333.499H651.218V347.352H656.153C660.915 347.352 663.166 349.17 663.166 354.018V373.239C663.166 378.26 660.829 380.165 655.894 380.165H640.05C635.115 380.165 632.777 378.26 632.777 373.239V354.018C632.777 349.17 635.028 347.352 639.79 347.352H644.985V333.499H631.998C630.439 333.499 629.574 332.287 629.574 330.469C629.574 328.737 630.439 327.525 631.998 327.525H644.985ZM639.184 355.317V372.027C639.184 373.758 639.963 374.278 641.695 374.278H654.682C656.327 374.278 656.759 373.758 656.759 372.027V355.317C656.759 353.499 656.327 353.066 654.682 353.066H641.695C639.963 353.066 639.184 353.499 639.184 355.317ZM670.872 324.668H665.591C664.119 324.668 663.166 323.369 663.166 321.638C663.166 319.82 664.032 318.694 665.504 318.694H670.872V305.361C670.872 303.716 672.171 302.937 674.162 302.937C676.153 302.937 677.452 303.716 677.452 305.361V318.694H696.326V305.361C696.326 303.716 697.625 302.937 699.616 302.937C701.607 302.937 702.906 303.716 702.906 305.361V318.694H707.928C709.486 318.694 710.352 319.906 710.352 321.724C710.352 323.456 709.486 324.668 707.928 324.668H702.906V373.152C702.906 378.174 700.568 380.079 695.633 380.079H678.058C673.21 380.079 670.872 378.174 670.872 373.152V324.668ZM677.452 350.469V371.854C677.452 373.585 678.231 374.105 679.963 374.105H693.729C695.46 374.105 696.326 373.585 696.326 371.854V350.469H677.452ZM696.326 344.581V324.668H677.452V344.581H696.326Z"/>
</mask>
<path d="M644.985 327.525V314.105C641.089 314.971 637.279 315.664 633.903 316.183C633.729 316.183 633.47 316.183 633.297 316.183C631.738 316.183 630.699 315.144 630.613 313.586C630.526 313.326 630.526 313.066 630.526 312.893C630.526 311.421 631.305 310.382 633.037 310.209C641.262 309.084 652.604 306.227 659.357 303.023C659.876 302.677 660.396 302.59 660.915 302.59C662.127 302.59 663.08 303.283 663.599 304.495C663.772 304.928 663.859 305.447 663.859 305.88C663.859 307.179 663.08 308.305 661.868 308.911C659.011 310.123 655.288 311.421 651.218 312.547V327.525H663.513C665.071 327.525 665.937 328.91 665.937 330.555C665.937 332.374 665.158 333.499 663.599 333.499H651.218V347.352H656.153C660.915 347.352 663.166 349.17 663.166 354.018V373.239C663.166 378.26 660.829 380.165 655.894 380.165H640.05C635.115 380.165 632.777 378.26 632.777 373.239V354.018C632.777 349.17 635.028 347.352 639.79 347.352H644.985V333.499H631.998C630.439 333.499 629.574 332.287 629.574 330.469C629.574 328.737 630.439 327.525 631.998 327.525H644.985ZM639.184 355.317V372.027C639.184 373.758 639.963 374.278 641.695 374.278H654.682C656.327 374.278 656.759 373.758 656.759 372.027V355.317C656.759 353.499 656.327 353.066 654.682 353.066H641.695C639.963 353.066 639.184 353.499 639.184 355.317ZM670.872 324.668H665.591C664.119 324.668 663.166 323.369 663.166 321.638C663.166 319.82 664.032 318.694 665.504 318.694H670.872V305.361C670.872 303.716 672.171 302.937 674.162 302.937C676.153 302.937 677.452 303.716 677.452 305.361V318.694H696.326V305.361C696.326 303.716 697.625 302.937 699.616 302.937C701.607 302.937 702.906 303.716 702.906 305.361V318.694H707.928C709.486 318.694 710.352 319.906 710.352 321.724C710.352 323.456 709.486 324.668 707.928 324.668H702.906V373.152C702.906 378.174 700.568 380.079 695.633 380.079H678.058C673.21 380.079 670.872 378.174 670.872 373.152V324.668ZM677.452 350.469V371.854C677.452 373.585 678.231 374.105 679.963 374.105H693.729C695.46 374.105 696.326 373.585 696.326 371.854V350.469H677.452ZM696.326 344.581V324.668H677.452V344.581H696.326Z" fill="#59391D"/>
<path d="M644.985 327.525V329.071H646.531V327.525H644.985ZM644.985 314.105H646.531V312.178L644.649 312.596L644.985 314.105ZM633.903 316.183V317.729H634.021L634.138 317.711L633.903 316.183ZM630.613 313.586L632.156 313.5L632.145 313.293L632.079 313.097L630.613 313.586ZM633.037 310.209L633.191 311.748L633.219 311.745L633.246 311.741L633.037 310.209ZM659.357 303.023L660.019 304.42L660.121 304.372L660.214 304.31L659.357 303.023ZM663.599 304.495L665.035 303.921L665.028 303.903L665.02 303.886L663.599 304.495ZM661.868 308.911L662.471 310.334L662.516 310.315L662.559 310.293L661.868 308.911ZM651.218 312.547L650.806 311.057L649.672 311.37V312.547H651.218ZM651.218 327.525H649.672V329.071H651.218V327.525ZM651.218 333.499V331.953H649.672V333.499H651.218ZM651.218 347.352H649.672V348.898H651.218V347.352ZM644.985 347.352V348.898H646.531V347.352H644.985ZM644.985 333.499H646.531V331.953H644.985V333.499ZM670.872 324.668H672.418V323.122H670.872V324.668ZM670.872 318.694V320.24H672.418V318.694H670.872ZM677.452 318.694H675.906V320.24H677.452V318.694ZM696.326 318.694V320.24H697.872V318.694H696.326ZM702.906 318.694H701.36V320.24H702.906V318.694ZM702.906 324.668V323.122H701.36V324.668H702.906ZM677.452 350.469V348.922H675.906V350.469H677.452ZM696.326 350.469H697.872V348.922H696.326V350.469ZM696.326 344.581V346.127H697.872V344.581H696.326ZM696.326 324.668H697.872V323.122H696.326V324.668ZM677.452 324.668V323.122H675.906V324.668H677.452ZM677.452 344.581H675.906V346.127H677.452V344.581ZM646.531 327.525V314.105H643.439V327.525H646.531ZM644.649 312.596C640.79 313.454 637.014 314.14 633.668 314.655L634.138 317.711C637.544 317.187 641.388 316.489 645.32 315.615L644.649 312.596ZM633.903 314.637C633.902 314.637 633.902 314.637 633.902 314.637C633.901 314.637 633.901 314.637 633.901 314.637C633.9 314.637 633.9 314.637 633.9 314.637C633.899 314.637 633.899 314.637 633.899 314.637C633.898 314.637 633.898 314.637 633.898 314.637C633.897 314.637 633.897 314.637 633.897 314.637C633.896 314.637 633.896 314.637 633.896 314.637C633.895 314.637 633.895 314.637 633.894 314.637C633.894 314.637 633.894 314.637 633.893 314.637C633.893 314.637 633.893 314.637 633.892 314.637C633.892 314.637 633.892 314.637 633.891 314.637C633.891 314.637 633.891 314.637 633.89 314.637C633.89 314.637 633.89 314.637 633.889 314.637C633.889 314.637 633.889 314.637 633.888 314.637C633.888 314.637 633.888 314.637 633.887 314.637C633.887 314.637 633.887 314.637 633.886 314.637C633.886 314.637 633.885 314.637 633.885 314.637C633.885 314.637 633.884 314.637 633.884 314.637C633.884 314.637 633.883 314.637 633.883 314.637C633.883 314.637 633.882 314.637 633.882 314.637C633.882 314.637 633.881 314.637 633.881 314.637C633.881 314.637 633.88 314.637 633.88 314.637C633.88 314.637 633.879 314.637 633.879 314.637C633.878 314.637 633.878 314.637 633.878 314.637C633.877 314.637 633.877 314.637 633.877 314.637C633.876 314.637 633.876 314.637 633.876 314.637C633.875 314.637 633.875 314.637 633.875 314.637C633.874 314.637 633.874 314.637 633.873 314.637C633.873 314.637 633.873 314.637 633.872 314.637C633.872 314.637 633.872 314.637 633.871 314.637C633.871 314.637 633.871 314.637 633.87 314.637C633.87 314.637 633.87 314.637 633.869 314.637C633.869 314.637 633.868 314.637 633.868 314.637C633.868 314.637 633.867 314.637 633.867 314.637C633.867 314.637 633.866 314.637 633.866 314.637C633.866 314.637 633.865 314.637 633.865 314.637C633.865 314.637 633.864 314.637 633.864 314.637C633.863 314.637 633.863 314.637 633.863 314.637C633.862 314.637 633.862 314.637 633.862 314.637C633.861 314.637 633.861 314.637 633.861 314.637C633.86 314.637 633.86 314.637 633.859 314.637C633.859 314.637 633.859 314.637 633.858 314.637C633.858 314.637 633.858 314.637 633.857 314.637C633.857 314.637 633.857 314.637 633.856 314.637C633.856 314.637 633.855 314.637 633.855 314.637C633.855 314.637 633.854 314.637 633.854 314.637C633.854 314.637 633.853 314.637 633.853 314.637C633.853 314.637 633.852 314.637 633.852 314.637C633.851 314.637 633.851 314.637 633.851 314.637C633.85 314.637 633.85 314.637 633.85 314.637C633.849 314.637 633.849 314.637 633.849 314.637C633.848 314.637 633.848 314.637 633.847 314.637C633.847 314.637 633.847 314.637 633.846 314.637C633.846 314.637 633.846 314.637 633.845 314.637C633.845 314.637 633.844 314.637 633.844 314.637C633.844 314.637 633.843 314.637 633.843 314.637C633.843 314.637 633.842 314.637 633.842 314.637C633.841 314.637 633.841 314.637 633.841 314.637C633.84 314.637 633.84 314.637 633.84 314.637C633.839 314.637 633.839 314.637 633.838 314.637C633.838 314.637 633.838 314.637 633.837 314.637C633.837 314.637 633.837 314.637 633.836 314.637C633.836 314.637 633.835 314.637 633.835 314.637C633.835 314.637 633.834 314.637 633.834 314.637C633.834 314.637 633.833 314.637 633.833 314.637C633.832 314.637 633.832 314.637 633.832 314.637C633.831 314.637 633.831 314.637 633.831 314.637C633.83 314.637 633.83 314.637 633.829 314.637C633.829 314.637 633.829 314.637 633.828 314.637C633.828 314.637 633.828 314.637 633.827 314.637C633.827 314.637 633.826 314.637 633.826 314.637C633.826 314.637 633.825 314.637 633.825 314.637C633.825 314.637 633.824 314.637 633.824 314.637C633.823 314.637 633.823 314.637 633.823 314.637C633.822 314.637 633.822 314.637 633.822 314.637C633.821 314.637 633.821 314.637 633.82 314.637C633.82 314.637 633.82 314.637 633.819 314.637C633.819 314.637 633.818 314.637 633.818 314.637C633.818 314.637 633.817 314.637 633.817 314.637C633.817 314.637 633.816 314.637 633.816 314.637C633.815 314.637 633.815 314.637 633.815 314.637C633.814 314.637 633.814 314.637 633.814 314.637C633.813 314.637 633.813 314.637 633.812 314.637C633.812 314.637 633.812 314.637 633.811 314.637C633.811 314.637 633.81 314.637 633.81 314.637C633.81 314.637 633.809 314.637 633.809 314.637C633.809 314.637 633.808 314.637 633.808 314.637C633.807 314.637 633.807 314.637 633.807 314.637C633.806 314.637 633.806 314.637 633.805 314.637C633.805 314.637 633.805 314.637 633.804 314.637C633.804 314.637 633.803 314.637 633.803 314.637C633.803 314.637 633.802 314.637 633.802 314.637C633.802 314.637 633.801 314.637 633.801 314.637C633.8 314.637 633.8 314.637 633.8 314.637C633.799 314.637 633.799 314.637 633.798 314.637C633.798 314.637 633.798 314.637 633.797 314.637C633.797 314.637 633.796 314.637 633.796 314.637C633.796 314.637 633.795 314.637 633.795 314.637C633.795 314.637 633.794 314.637 633.794 314.637C633.793 314.637 633.793 314.637 633.793 314.637C633.792 314.637 633.792 314.637 633.791 314.637C633.791 314.637 633.791 314.637 633.79 314.637C633.79 314.637 633.789 314.637 633.789 314.637C633.789 314.637 633.788 314.637 633.788 314.637C633.787 314.637 633.787 314.637 633.787 314.637C633.786 314.637 633.786 314.637 633.786 314.637C633.785 314.637 633.785 314.637 633.784 314.637C633.784 314.637 633.784 314.637 633.783 314.637C633.783 314.637 633.782 314.637 633.782 314.637C633.782 314.637 633.781 314.637 633.781 314.637C633.78 314.637 633.78 314.637 633.78 314.637C633.779 314.637 633.779 314.637 633.778 314.637C633.778 314.637 633.778 314.637 633.777 314.637C633.777 314.637 633.776 314.637 633.776 314.637C633.776 314.637 633.775 314.637 633.775 314.637C633.774 314.637 633.774 314.637 633.774 314.637C633.773 314.637 633.773 314.637 633.772 314.637C633.772 314.637 633.772 314.637 633.771 314.637C633.771 314.637 633.77 314.637 633.77 314.637C633.77 314.637 633.769 314.637 633.769 314.637C633.768 314.637 633.768 314.637 633.768 314.637C633.767 314.637 633.767 314.637 633.766 314.637C633.766 314.637 633.766 314.637 633.765 314.637C633.765 314.637 633.764 314.637 633.764 314.637C633.764 314.637 633.763 314.637 633.763 314.637C633.762 314.637 633.762 314.637 633.762 314.637C633.761 314.637 633.761 314.637 633.76 314.637C633.76 314.637 633.76 314.637 633.759 314.637C633.759 314.637 633.758 314.637 633.758 314.637C633.758 314.637 633.757 314.637 633.757 314.637C633.756 314.637 633.756 314.637 633.756 314.637C633.755 314.637 633.755 314.637 633.754 314.637C633.754 314.637 633.754 314.637 633.753 314.637C633.753 314.637 633.752 314.637 633.752 314.637C633.752 314.637 633.751 314.637 633.751 314.637C633.75 314.637 633.75 314.637 633.75 314.637C633.749 314.637 633.749 314.637 633.748 314.637C633.748 314.637 633.748 314.637 633.747 314.637C633.747 314.637 633.746 314.637 633.746 314.637C633.746 314.637 633.745 314.637 633.745 314.637C633.744 314.637 633.744 314.637 633.744 314.637C633.743 314.637 633.743 314.637 633.742 314.637C633.742 314.637 633.741 314.637 633.741 314.637C633.741 314.637 633.74 314.637 633.74 314.637C633.739 314.637 633.739 314.637 633.739 314.637C633.738 314.637 633.738 314.637 633.737 314.637C633.737 314.637 633.737 314.637 633.736 314.637C633.736 314.637 633.735 314.637 633.735 314.637C633.735 314.637 633.734 314.637 633.734 314.637C633.733 314.637 633.733 314.637 633.733 314.637C633.732 314.637 633.732 314.637 633.731 314.637C633.731 314.637 633.73 314.637 633.73 314.637C633.73 314.637 633.729 314.637 633.729 314.637C633.728 314.637 633.728 314.637 633.728 314.637C633.727 314.637 633.727 314.637 633.726 314.637C633.726 314.637 633.726 314.637 633.725 314.637C633.725 314.637 633.724 314.637 633.724 314.637C633.724 314.637 633.723 314.637 633.723 314.637C633.722 314.637 633.722 314.637 633.721 314.637C633.721 314.637 633.721 314.637 633.72 314.637C633.72 314.637 633.719 314.637 633.719 314.637C633.719 314.637 633.718 314.637 633.718 314.637C633.717 314.637 633.717 314.637 633.717 314.637C633.716 314.637 633.716 314.637 633.715 314.637C633.715 314.637 633.714 314.637 633.714 314.637C633.714 314.637 633.713 314.637 633.713 314.637C633.712 314.637 633.712 314.637 633.712 314.637C633.711 314.637 633.711 314.637 633.71 314.637C633.71 314.637 633.71 314.637 633.709 314.637C633.709 314.637 633.708 314.637 633.708 314.637C633.707 314.637 633.707 314.637 633.707 314.637C633.706 314.637 633.706 314.637 633.705 314.637C633.705 314.637 633.705 314.637 633.704 314.637C633.704 314.637 633.703 314.637 633.703 314.637C633.702 314.637 633.702 314.637 633.702 314.637C633.701 314.637 633.701 314.637 633.7 314.637C633.7 314.637 633.7 314.637 633.699 314.637C633.699 314.637 633.698 314.637 633.698 314.637C633.698 314.637 633.697 314.637 633.697 314.637C633.696 314.637 633.696 314.637 633.695 314.637C633.695 314.637 633.695 314.637 633.694 314.637C633.694 314.637 633.693 314.637 633.693 314.637C633.693 314.637 633.692 314.637 633.692 314.637C633.691 314.637 633.691 314.637 633.69 314.637C633.69 314.637 633.69 314.637 633.689 314.637C633.689 314.637 633.688 314.637 633.688 314.637C633.688 314.637 633.687 314.637 633.687 314.637C633.686 314.637 633.686 314.637 633.685 314.637C633.685 314.637 633.685 314.637 633.684 314.637C633.684 314.637 633.683 314.637 633.683 314.637C633.683 314.637 633.682 314.637 633.682 314.637C633.681 314.637 633.681 314.637 633.68 314.637C633.68 314.637 633.68 314.637 633.679 314.637C633.679 314.637 633.678 314.637 633.678 314.637C633.678 314.637 633.677 314.637 633.677 314.637C633.676 314.637 633.676 314.637 633.675 314.637C633.675 314.637 633.675 314.637 633.674 314.637C633.674 314.637 633.673 314.637 633.673 314.637C633.673 314.637 633.672 314.637 633.672 314.637C633.671 314.637 633.671 314.637 633.67 314.637C633.67 314.637 633.67 314.637 633.669 314.637C633.669 314.637 633.668 314.637 633.668 314.637C633.667 314.637 633.667 314.637 633.667 314.637C633.666 314.637 633.666 314.637 633.665 314.637C633.665 314.637 633.665 314.637 633.664 314.637C633.664 314.637 633.663 314.637 633.663 314.637C633.662 314.637 633.662 314.637 633.662 314.637C633.661 314.637 633.661 314.637 633.66 314.637C633.66 314.637 633.66 314.637 633.659 314.637C633.659 314.637 633.658 314.637 633.658 314.637C633.657 314.637 633.657 314.637 633.657 314.637C633.656 314.637 633.656 314.637 633.655 314.637C633.655 314.637 633.654 314.637 633.654 314.637C633.654 314.637 633.653 314.637 633.653 314.637C633.652 314.637 633.652 314.637 633.652 314.637C633.651 314.637 633.651 314.637 633.65 314.637C633.65 314.637 633.649 314.637 633.649 314.637C633.649 314.637 633.648 314.637 633.648 314.637C633.647 314.637 633.647 314.637 633.646 314.637C633.646 314.637 633.646 314.637 633.645 314.637C633.645 314.637 633.644 314.637 633.644 314.637C633.644 314.637 633.643 314.637 633.643 314.637C633.642 314.637 633.642 314.637 633.641 314.637C633.641 314.637 633.641 314.637 633.64 314.637C633.64 314.637 633.639 314.637 633.639 314.637C633.638 314.637 633.638 314.637 633.638 314.637C633.637 314.637 633.637 314.637 633.636 314.637C633.636 314.637 633.636 314.637 633.635 314.637C633.635 314.637 633.634 314.637 633.634 314.637C633.633 314.637 633.633 314.637 633.633 314.637C633.632 314.637 633.632 314.637 633.631 314.637C633.631 314.637 633.63 314.637 633.63 314.637C633.63 314.637 633.629 314.637 633.629 314.637C633.628 314.637 633.628 314.637 633.628 314.637C633.627 314.637 633.627 314.637 633.626 314.637C633.626 314.637 633.625 314.637 633.625 314.637C633.625 314.637 633.624 314.637 633.624 314.637C633.623 314.637 633.623 314.637 633.622 314.637C633.622 314.637 633.622 314.637 633.621 314.637C633.621 314.637 633.62 314.637 633.62 314.637C633.619 314.637 633.619 314.637 633.619 314.637C633.618 314.637 633.618 314.637 633.617 314.637C633.617 314.637 633.617 314.637 633.616 314.637C633.616 314.637 633.615 314.637 633.615 314.637C633.614 314.637 633.614 314.637 633.614 314.637C633.613 314.637 633.613 314.637 633.612 314.637C633.612 314.637 633.611 314.637 633.611 314.637C633.611 314.637 633.61 314.637 633.61 314.637C633.609 314.637 633.609 314.637 633.609 314.637C633.608 314.637 633.608 314.637 633.607 314.637C633.607 314.637 633.606 314.637 633.606 314.637C633.606 314.637 633.605 314.637 633.605 314.637C633.604 314.637 633.604 314.637 633.603 314.637C633.603 314.637 633.603 314.637 633.602 314.637C633.602 314.637 633.601 314.637 633.601 314.637C633.6 314.637 633.6 314.637 633.6 314.637C633.599 314.637 633.599 314.637 633.598 314.637C633.598 314.637 633.598 314.637 633.597 314.637C633.597 314.637 633.596 314.637 633.596 314.637C633.595 314.637 633.595 314.637 633.595 314.637C633.594 314.637 633.594 314.637 633.593 314.637C633.593 314.637 633.592 314.637 633.592 314.637C633.592 314.637 633.591 314.637 633.591 314.637C633.59 314.637 633.59 314.637 633.589 314.637C633.589 314.637 633.589 314.637 633.588 314.637C633.588 314.637 633.587 314.637 633.587 314.637C633.587 314.637 633.586 314.637 633.586 314.637C633.585 314.637 633.585 314.637 633.584 314.637C633.584 314.637 633.584 314.637 633.583 314.637C633.583 314.637 633.582 314.637 633.582 314.637C633.581 314.637 633.581 314.637 633.581 314.637C633.58 314.637 633.58 314.637 633.579 314.637C633.579 314.637 633.578 314.637 633.578 314.637C633.578 314.637 633.577 314.637 633.577 314.637C633.576 314.637 633.576 314.637 633.576 314.637C633.575 314.637 633.575 314.637 633.574 314.637C633.574 314.637 633.573 314.637 633.573 314.637C633.573 314.637 633.572 314.637 633.572 314.637C633.571 314.637 633.571 314.637 633.57 314.637C633.57 314.637 633.57 314.637 633.569 314.637C633.569 314.637 633.568 314.637 633.568 314.637C633.568 314.637 633.567 314.637 633.567 314.637C633.566 314.637 633.566 314.637 633.565 314.637C633.565 314.637 633.565 314.637 633.564 314.637C633.564 314.637 633.563 314.637 633.563 314.637C633.562 314.637 633.562 314.637 633.562 314.637C633.561 314.637 633.561 314.637 633.56 314.637C633.56 314.637 633.56 314.637 633.559 314.637C633.559 314.637 633.558 314.637 633.558 314.637C633.557 314.637 633.557 314.637 633.557 314.637C633.556 314.637 633.556 314.637 633.555 314.637C633.555 314.637 633.554 314.637 633.554 314.637C633.554 314.637 633.553 314.637 633.553 314.637C633.552 314.637 633.552 314.637 633.552 314.637C633.551 314.637 633.551 314.637 633.55 314.637C633.55 314.637 633.549 314.637 633.549 314.637C633.549 314.637 633.548 314.637 633.548 314.637C633.547 314.637 633.547 314.637 633.546 314.637C633.546 314.637 633.546 314.637 633.545 314.637C633.545 314.637 633.544 314.637 633.544 314.637C633.544 314.637 633.543 314.637 633.543 314.637C633.542 314.637 633.542 314.637 633.541 314.637C633.541 314.637 633.541 314.637 633.54 314.637C633.54 314.637 633.539 314.637 633.539 314.637C633.538 314.637 633.538 314.637 633.538 314.637C633.537 314.637 633.537 314.637 633.536 314.637C633.536 314.637 633.536 314.637 633.535 314.637C633.535 314.637 633.534 314.637 633.534 314.637C633.533 314.637 633.533 314.637 633.533 314.637C633.532 314.637 633.532 314.637 633.531 314.637C633.531 314.637 633.531 314.637 633.53 314.637C633.53 314.637 633.529 314.637 633.529 314.637C633.528 314.637 633.528 314.637 633.528 314.637C633.527 314.637 633.527 314.637 633.526 314.637C633.526 314.637 633.525 314.637 633.525 314.637C633.525 314.637 633.524 314.637 633.524 314.637C633.523 314.637 633.523 314.637 633.523 314.637C633.522 314.637 633.522 314.637 633.521 314.637C633.521 314.637 633.52 314.637 633.52 314.637C633.52 314.637 633.519 314.637 633.519 314.637C633.518 314.637 633.518 314.637 633.518 314.637C633.517 314.637 633.517 314.637 633.516 314.637C633.516 314.637 633.515 314.637 633.515 314.637C633.515 314.637 633.514 314.637 633.514 314.637C633.513 314.637 633.513 314.637 633.513 314.637C633.512 314.637 633.512 314.637 633.511 314.637C633.511 314.637 633.51 314.637 633.51 314.637C633.51 314.637 633.509 314.637 633.509 314.637C633.508 314.637 633.508 314.637 633.508 314.637C633.507 314.637 633.507 314.637 633.506 314.637C633.506 314.637 633.505 314.637 633.505 314.637C633.505 314.637 633.504 314.637 633.504 314.637C633.503 314.637 633.503 314.637 633.503 314.637C633.502 314.637 633.502 314.637 633.501 314.637C633.501 314.637 633.5 314.637 633.5 314.637C633.5 314.637 633.499 314.637 633.499 314.637C633.498 314.637 633.498 314.637 633.498 314.637C633.497 314.637 633.497 314.637 633.496 314.637C633.496 314.637 633.496 314.637 633.495 314.637C633.495 314.637 633.494 314.637 633.494 314.637C633.493 314.637 633.493 314.637 633.493 314.637C633.492 314.637 633.492 314.637 633.491 314.637C633.491 314.637 633.491 314.637 633.49 314.637C633.49 314.637 633.489 314.637 633.489 314.637C633.488 314.637 633.488 314.637 633.488 314.637C633.487 314.637 633.487 314.637 633.486 314.637C633.486 314.637 633.486 314.637 633.485 314.637C633.485 314.637 633.484 314.637 633.484 314.637C633.484 314.637 633.483 314.637 633.483 314.637C633.482 314.637 633.482 314.637 633.481 314.637C633.481 314.637 633.481 314.637 633.48 314.637C633.48 314.637 633.479 314.637 633.479 314.637C633.479 314.637 633.478 314.637 633.478 314.637C633.477 314.637 633.477 314.637 633.477 314.637C633.476 314.637 633.476 314.637 633.475 314.637C633.475 314.637 633.475 314.637 633.474 314.637C633.474 314.637 633.473 314.637 633.473 314.637C633.472 314.637 633.472 314.637 633.472 314.637C633.471 314.637 633.471 314.637 633.47 314.637C633.47 314.637 633.47 314.637 633.469 314.637C633.469 314.637 633.468 314.637 633.468 314.637C633.468 314.637 633.467 314.637 633.467 314.637C633.466 314.637 633.466 314.637 633.466 314.637C633.465 314.637 633.465 314.637 633.464 314.637C633.464 314.637 633.463 314.637 633.463 314.637C633.463 314.637 633.462 314.637 633.462 314.637C633.461 314.637 633.461 314.637 633.461 314.637C633.46 314.637 633.46 314.637 633.459 314.637C633.459 314.637 633.459 314.637 633.458 314.637C633.458 314.637 633.457 314.637 633.457 314.637C633.457 314.637 633.456 314.637 633.456 314.637C633.455 314.637 633.455 314.637 633.455 314.637C633.454 314.637 633.454 314.637 633.453 314.637C633.453 314.637 633.452 314.637 633.452 314.637C633.452 314.637 633.451 314.637 633.451 314.637C633.45 314.637 633.45 314.637 633.45 314.637C633.449 314.637 633.449 314.637 633.448 314.637C633.448 314.637 633.448 314.637 633.447 314.637C633.447 314.637 633.446 314.637 633.446 314.637C633.446 314.637 633.445 314.637 633.445 314.637C633.444 314.637 633.444 314.637 633.444 314.637C633.443 314.637 633.443 314.637 633.442 314.637C633.442 314.637 633.442 314.637 633.441 314.637C633.441 314.637 633.44 314.637 633.44 314.637C633.44 314.637 633.439 314.637 633.439 314.637C633.438 314.637 633.438 314.637 633.438 314.637C633.437 314.637 633.437 314.637 633.436 314.637C633.436 314.637 633.436 314.637 633.435 314.637C633.435 314.637 633.434 314.637 633.434 314.637C633.434 314.637 633.433 314.637 633.433 314.637C633.432 314.637 633.432 314.637 633.432 314.637C633.431 314.637 633.431 314.637 633.43 314.637C633.43 314.637 633.43 314.637 633.429 314.637C633.429 314.637 633.428 314.637 633.428 314.637C633.428 314.637 633.427 314.637 633.427 314.637C633.426 314.637 633.426 314.637 633.426 314.637C633.425 314.637 633.425 314.637 633.424 314.637C633.424 314.637 633.424 314.637 633.423 314.637C633.423 314.637 633.422 314.637 633.422 314.637C633.422 314.637 633.421 314.637 633.421 314.637C633.42 314.637 633.42 314.637 633.42 314.637C633.419 314.637 633.419 314.637 633.418 314.637C633.418 314.637 633.418 314.637 633.417 314.637C633.417 314.637 633.417 314.637 633.416 314.637C633.416 314.637 633.415 314.637 633.415 314.637C633.415 314.637 633.414 314.637 633.414 314.637C633.413 314.637 633.413 314.637 633.413 314.637C633.412 314.637 633.412 314.637 633.411 314.637C633.411 314.637 633.411 314.637 633.41 314.637C633.41 314.637 633.409 314.637 633.409 314.637C633.409 314.637 633.408 314.637 633.408 314.637C633.407 314.637 633.407 314.637 633.407 314.637C633.406 314.637 633.406 314.637 633.406 314.637C633.405 314.637 633.405 314.637 633.404 314.637C633.404 314.637 633.404 314.637 633.403 314.637C633.403 314.637 633.402 314.637 633.402 314.637C633.402 314.637 633.401 314.637 633.401 314.637C633.4 314.637 633.4 314.637 633.4 314.637C633.399 314.637 633.399 314.637 633.398 314.637C633.398 314.637 633.398 314.637 633.397 314.637C633.397 314.637 633.397 314.637 633.396 314.637C633.396 314.637 633.395 314.637 633.395 314.637C633.395 314.637 633.394 314.637 633.394 314.637C633.393 314.637 633.393 314.637 633.393 314.637C633.392 314.637 633.392 314.637 633.392 314.637C633.391 314.637 633.391 314.637 633.39 314.637C633.39 314.637 633.39 314.637 633.389 314.637C633.389 314.637 633.388 314.637 633.388 314.637C633.388 314.637 633.387 314.637 633.387 314.637C633.387 314.637 633.386 314.637 633.386 314.637C633.385 314.637 633.385 314.637 633.385 314.637C633.384 314.637 633.384 314.637 633.383 314.637C633.383 314.637 633.383 314.637 633.382 314.637C633.382 314.637 633.382 314.637 633.381 314.637C633.381 314.637 633.38 314.637 633.38 314.637C633.38 314.637 633.379 314.637 633.379 314.637C633.378 314.637 633.378 314.637 633.378 314.637C633.377 314.637 633.377 314.637 633.377 314.637C633.376 314.637 633.376 314.637 633.375 314.637C633.375 314.637 633.375 314.637 633.374 314.637C633.374 314.637 633.374 314.637 633.373 314.637C633.373 314.637 633.372 314.637 633.372 314.637C633.372 314.637 633.371 314.637 633.371 314.637C633.371 314.637 633.37 314.637 633.37 314.637C633.369 314.637 633.369 314.637 633.369 314.637C633.368 314.637 633.368 314.637 633.368 314.637C633.367 314.637 633.367 314.637 633.366 314.637C633.366 314.637 633.366 314.637 633.365 314.637C633.365 314.637 633.365 314.637 633.364 314.637C633.364 314.637 633.363 314.637 633.363 314.637C633.363 314.637 633.362 314.637 633.362 314.637C633.362 314.637 633.361 314.637 633.361 314.637C633.36 314.637 633.36 314.637 633.36 314.637C633.359 314.637 633.359 314.637 633.359 314.637C633.358 314.637 633.358 314.637 633.357 314.637C633.357 314.637 633.357 314.637 633.356 314.637C633.356 314.637 633.356 314.637 633.355 314.637C633.355 314.637 633.354 314.637 633.354 314.637C633.354 314.637 633.353 314.637 633.353 314.637C633.353 314.637 633.352 314.637 633.352 314.637C633.351 314.637 633.351 314.637 633.351 314.637C633.35 314.637 633.35 314.637 633.35 314.637C633.349 314.637 633.349 314.637 633.349 314.637C633.348 314.637 633.348 314.637 633.347 314.637C633.347 314.637 633.347 314.637 633.346 314.637C633.346 314.637 633.346 314.637 633.345 314.637C633.345 314.637 633.345 314.637 633.344 314.637C633.344 314.637 633.343 314.637 633.343 314.637C633.343 314.637 633.342 314.637 633.342 314.637C633.342 314.637 633.341 314.637 633.341 314.637C633.341 314.637 633.34 314.637 633.34 314.637C633.339 314.637 633.339 314.637 633.339 314.637C633.338 314.637 633.338 314.637 633.338 314.637C633.337 314.637 633.337 314.637 633.337 314.637C633.336 314.637 633.336 314.637 633.335 314.637C633.335 314.637 633.335 314.637 633.334 314.637C633.334 314.637 633.334 314.637 633.333 314.637C633.333 314.637 633.333 314.637 633.332 314.637C633.332 314.637 633.331 314.637 633.331 314.637C633.331 314.637 633.33 314.637 633.33 314.637C633.33 314.637 633.329 314.637 633.329 314.637C633.329 314.637 633.328 314.637 633.328 314.637C633.328 314.637 633.327 314.637 633.327 314.637C633.326 314.637 633.326 314.637 633.326 314.637C633.325 314.637 633.325 314.637 633.325 314.637C633.324 314.637 633.324 314.637 633.324 314.637C633.323 314.637 633.323 314.637 633.323 314.637C633.322 314.637 633.322 314.637 633.322 314.637C633.321 314.637 633.321 314.637 633.32 314.637C633.32 314.637 633.32 314.637 633.319 314.637C633.319 314.637 633.319 314.637 633.318 314.637C633.318 314.637 633.318 314.637 633.317 314.637C633.317 314.637 633.317 314.637 633.316 314.637C633.316 314.637 633.316 314.637 633.315 314.637C633.315 314.637 633.314 314.637 633.314 314.637C633.314 314.637 633.313 314.637 633.313 314.637C633.313 314.637 633.312 314.637 633.312 314.637C633.312 314.637 633.311 314.637 633.311 314.637C633.311 314.637 633.31 314.637 633.31 314.637C633.31 314.637 633.309 314.637 633.309 314.637C633.309 314.637 633.308 314.637 633.308 314.637C633.308 314.637 633.307 314.637 633.307 314.637C633.306 314.637 633.306 314.637 633.306 314.637C633.305 314.637 633.305 314.637 633.305 314.637C633.304 314.637 633.304 314.637 633.304 314.637C633.303 314.637 633.303 314.637 633.303 314.637C633.302 314.637 633.302 314.637 633.302 314.637C633.301 314.637 633.301 314.637 633.301 314.637C633.3 314.637 633.3 314.637 633.3 314.637C633.299 314.637 633.299 314.637 633.299 314.637C633.298 314.637 633.298 314.637 633.298 314.637C633.297 314.637 633.297 314.637 633.297 314.637V317.729C633.297 317.729 633.297 317.729 633.298 317.729C633.298 317.729 633.298 317.729 633.299 317.729C633.299 317.729 633.299 317.729 633.3 317.729C633.3 317.729 633.3 317.729 633.301 317.729C633.301 317.729 633.301 317.729 633.302 317.729C633.302 317.729 633.302 317.729 633.303 317.729C633.303 317.729 633.303 317.729 633.304 317.729C633.304 317.729 633.304 317.729 633.305 317.729C633.305 317.729 633.305 317.729 633.306 317.729C633.306 317.729 633.306 317.729 633.307 317.729C633.307 317.729 633.308 317.729 633.308 317.729C633.308 317.729 633.309 317.729 633.309 317.729C633.309 317.729 633.31 317.729 633.31 317.729C633.31 317.729 633.311 317.729 633.311 317.729C633.311 317.729 633.312 317.729 633.312 317.729C633.312 317.729 633.313 317.729 633.313 317.729C633.313 317.729 633.314 317.729 633.314 317.729C633.314 317.729 633.315 317.729 633.315 317.729C633.316 317.729 633.316 317.729 633.316 317.729C633.317 317.729 633.317 317.729 633.317 317.729C633.318 317.729 633.318 317.729 633.318 317.729C633.319 317.729 633.319 317.729 633.319 317.729C633.32 317.729 633.32 317.729 633.32 317.729C633.321 317.729 633.321 317.729 633.322 317.729C633.322 317.729 633.322 317.729 633.323 317.729C633.323 317.729 633.323 317.729 633.324 317.729C633.324 317.729 633.324 317.729 633.325 317.729C633.325 317.729 633.325 317.729 633.326 317.729C633.326 317.729 633.326 317.729 633.327 317.729C633.327 317.729 633.328 317.729 633.328 317.729C633.328 317.729 633.329 317.729 633.329 317.729C633.329 317.729 633.33 317.729 633.33 317.729C633.33 317.729 633.331 317.729 633.331 317.729C633.331 317.729 633.332 317.729 633.332 317.729C633.333 317.729 633.333 317.729 633.333 317.729C633.334 317.729 633.334 317.729 633.334 317.729C633.335 317.729 633.335 317.729 633.335 317.729C633.336 317.729 633.336 317.729 633.337 317.729C633.337 317.729 633.337 317.729 633.338 317.729C633.338 317.729 633.338 317.729 633.339 317.729C633.339 317.729 633.339 317.729 633.34 317.729C633.34 317.729 633.341 317.729 633.341 317.729C633.341 317.729 633.342 317.729 633.342 317.729C633.342 317.729 633.343 317.729 633.343 317.729C633.343 317.729 633.344 317.729 633.344 317.729C633.345 317.729 633.345 317.729 633.345 317.729C633.346 317.729 633.346 317.729 633.346 317.729C633.347 317.729 633.347 317.729 633.347 317.729C633.348 317.729 633.348 317.729 633.349 317.729C633.349 317.729 633.349 317.729 633.35 317.729C633.35 317.729 633.35 317.729 633.351 317.729C633.351 317.729 633.351 317.729 633.352 317.729C633.352 317.729 633.353 317.729 633.353 317.729C633.353 317.729 633.354 317.729 633.354 317.729C633.354 317.729 633.355 317.729 633.355 317.729C633.356 317.729 633.356 317.729 633.356 317.729C633.357 317.729 633.357 317.729 633.357 317.729C633.358 317.729 633.358 317.729 633.359 317.729C633.359 317.729 633.359 317.729 633.36 317.729C633.36 317.729 633.36 317.729 633.361 317.729C633.361 317.729 633.362 317.729 633.362 317.729C633.362 317.729 633.363 317.729 633.363 317.729C633.363 317.729 633.364 317.729 633.364 317.729C633.365 317.729 633.365 317.729 633.365 317.729C633.366 317.729 633.366 317.729 633.366 317.729C633.367 317.729 633.367 317.729 633.368 317.729C633.368 317.729 633.368 317.729 633.369 317.729C633.369 317.729 633.369 317.729 633.37 317.729C633.37 317.729 633.371 317.729 633.371 317.729C633.371 317.729 633.372 317.729 633.372 317.729C633.372 317.729 633.373 317.729 633.373 317.729C633.374 317.729 633.374 317.729 633.374 317.729C633.375 317.729 633.375 317.729 633.375 317.729C633.376 317.729 633.376 317.729 633.377 317.729C633.377 317.729 633.377 317.729 633.378 317.729C633.378 317.729 633.378 317.729 633.379 317.729C633.379 317.729 633.38 317.729 633.38 317.729C633.38 317.729 633.381 317.729 633.381 317.729C633.382 317.729 633.382 317.729 633.382 317.729C633.383 317.729 633.383 317.729 633.383 317.729C633.384 317.729 633.384 317.729 633.385 317.729C633.385 317.729 633.385 317.729 633.386 317.729C633.386 317.729 633.387 317.729 633.387 317.729C633.387 317.729 633.388 317.729 633.388 317.729C633.388 317.729 633.389 317.729 633.389 317.729C633.39 317.729 633.39 317.729 633.39 317.729C633.391 317.729 633.391 317.729 633.392 317.729C633.392 317.729 633.392 317.729 633.393 317.729C633.393 317.729 633.393 317.729 633.394 317.729C633.394 317.729 633.395 317.729 633.395 317.729C633.395 317.729 633.396 317.729 633.396 317.729C633.397 317.729 633.397 317.729 633.397 317.729C633.398 317.729 633.398 317.729 633.398 317.729C633.399 317.729 633.399 317.729 633.4 317.729C633.4 317.729 633.4 317.729 633.401 317.729C633.401 317.729 633.402 317.729 633.402 317.729C633.402 317.729 633.403 317.729 633.403 317.729C633.404 317.729 633.404 317.729 633.404 317.729C633.405 317.729 633.405 317.729 633.406 317.729C633.406 317.729 633.406 317.729 633.407 317.729C633.407 317.729 633.407 317.729 633.408 317.729C633.408 317.729 633.409 317.729 633.409 317.729C633.409 317.729 633.41 317.729 633.41 317.729C633.411 317.729 633.411 317.729 633.411 317.729C633.412 317.729 633.412 317.729 633.413 317.729C633.413 317.729 633.413 317.729 633.414 317.729C633.414 317.729 633.415 317.729 633.415 317.729C633.415 317.729 633.416 317.729 633.416 317.729C633.417 317.729 633.417 317.729 633.417 317.729C633.418 317.729 633.418 317.729 633.418 317.729C633.419 317.729 633.419 317.729 633.42 317.729C633.42 317.729 633.42 317.729 633.421 317.729C633.421 317.729 633.422 317.729 633.422 317.729C633.422 317.729 633.423 317.729 633.423 317.729C633.424 317.729 633.424 317.729 633.424 317.729C633.425 317.729 633.425 317.729 633.426 317.729C633.426 317.729 633.426 317.729 633.427 317.729C633.427 317.729 633.428 317.729 633.428 317.729C633.428 317.729 633.429 317.729 633.429 317.729C633.43 317.729 633.43 317.729 633.43 317.729C633.431 317.729 633.431 317.729 633.432 317.729C633.432 317.729 633.432 317.729 633.433 317.729C633.433 317.729 633.434 317.729 633.434 317.729C633.434 317.729 633.435 317.729 633.435 317.729C633.436 317.729 633.436 317.729 633.436 317.729C633.437 317.729 633.437 317.729 633.438 317.729C633.438 317.729 633.438 317.729 633.439 317.729C633.439 317.729 633.44 317.729 633.44 317.729C633.44 317.729 633.441 317.729 633.441 317.729C633.442 317.729 633.442 317.729 633.442 317.729C633.443 317.729 633.443 317.729 633.444 317.729C633.444 317.729 633.444 317.729 633.445 317.729C633.445 317.729 633.446 317.729 633.446 317.729C633.446 317.729 633.447 317.729 633.447 317.729C633.448 317.729 633.448 317.729 633.448 317.729C633.449 317.729 633.449 317.729 633.45 317.729C633.45 317.729 633.45 317.729 633.451 317.729C633.451 317.729 633.452 317.729 633.452 317.729C633.452 317.729 633.453 317.729 633.453 317.729C633.454 317.729 633.454 317.729 633.455 317.729C633.455 317.729 633.455 317.729 633.456 317.729C633.456 317.729 633.457 317.729 633.457 317.729C633.457 317.729 633.458 317.729 633.458 317.729C633.459 317.729 633.459 317.729 633.459 317.729C633.46 317.729 633.46 317.729 633.461 317.729C633.461 317.729 633.461 317.729 633.462 317.729C633.462 317.729 633.463 317.729 633.463 317.729C633.463 317.729 633.464 317.729 633.464 317.729C633.465 317.729 633.465 317.729 633.466 317.729C633.466 317.729 633.466 317.729 633.467 317.729C633.467 317.729 633.468 317.729 633.468 317.729C633.468 317.729 633.469 317.729 633.469 317.729C633.47 317.729 633.47 317.729 633.47 317.729C633.471 317.729 633.471 317.729 633.472 317.729C633.472 317.729 633.472 317.729 633.473 317.729C633.473 317.729 633.474 317.729 633.474 317.729C633.475 317.729 633.475 317.729 633.475 317.729C633.476 317.729 633.476 317.729 633.477 317.729C633.477 317.729 633.477 317.729 633.478 317.729C633.478 317.729 633.479 317.729 633.479 317.729C633.479 317.729 633.48 317.729 633.48 317.729C633.481 317.729 633.481 317.729 633.481 317.729C633.482 317.729 633.482 317.729 633.483 317.729C633.483 317.729 633.484 317.729 633.484 317.729C633.484 317.729 633.485 317.729 633.485 317.729C633.486 317.729 633.486 317.729 633.486 317.729C633.487 317.729 633.487 317.729 633.488 317.729C633.488 317.729 633.488 317.729 633.489 317.729C633.489 317.729 633.49 317.729 633.49 317.729C633.491 317.729 633.491 317.729 633.491 317.729C633.492 317.729 633.492 317.729 633.493 317.729C633.493 317.729 633.493 317.729 633.494 317.729C633.494 317.729 633.495 317.729 633.495 317.729C633.496 317.729 633.496 317.729 633.496 317.729C633.497 317.729 633.497 317.729 633.498 317.729C633.498 317.729 633.498 317.729 633.499 317.729C633.499 317.729 633.5 317.729 633.5 317.729C633.5 317.729 633.501 317.729 633.501 317.729C633.502 317.729 633.502 317.729 633.503 317.729C633.503 317.729 633.503 317.729 633.504 317.729C633.504 317.729 633.505 317.729 633.505 317.729C633.505 317.729 633.506 317.729 633.506 317.729C633.507 317.729 633.507 317.729 633.508 317.729C633.508 317.729 633.508 317.729 633.509 317.729C633.509 317.729 633.51 317.729 633.51 317.729C633.51 317.729 633.511 317.729 633.511 317.729C633.512 317.729 633.512 317.729 633.513 317.729C633.513 317.729 633.513 317.729 633.514 317.729C633.514 317.729 633.515 317.729 633.515 317.729C633.515 317.729 633.516 317.729 633.516 317.729C633.517 317.729 633.517 317.729 633.518 317.729C633.518 317.729 633.518 317.729 633.519 317.729C633.519 317.729 633.52 317.729 633.52 317.729C633.52 317.729 633.521 317.729 633.521 317.729C633.522 317.729 633.522 317.729 633.523 317.729C633.523 317.729 633.523 317.729 633.524 317.729C633.524 317.729 633.525 317.729 633.525 317.729C633.525 317.729 633.526 317.729 633.526 317.729C633.527 317.729 633.527 317.729 633.528 317.729C633.528 317.729 633.528 317.729 633.529 317.729C633.529 317.729 633.53 317.729 633.53 317.729C633.531 317.729 633.531 317.729 633.531 317.729C633.532 317.729 633.532 317.729 633.533 317.729C633.533 317.729 633.533 317.729 633.534 317.729C633.534 317.729 633.535 317.729 633.535 317.729C633.536 317.729 633.536 317.729 633.536 317.729C633.537 317.729 633.537 317.729 633.538 317.729C633.538 317.729 633.538 317.729 633.539 317.729C633.539 317.729 633.54 317.729 633.54 317.729C633.541 317.729 633.541 317.729 633.541 317.729C633.542 317.729 633.542 317.729 633.543 317.729C633.543 317.729 633.544 317.729 633.544 317.729C633.544 317.729 633.545 317.729 633.545 317.729C633.546 317.729 633.546 317.729 633.546 317.729C633.547 317.729 633.547 317.729 633.548 317.729C633.548 317.729 633.549 317.729 633.549 317.729C633.549 317.729 633.55 317.729 633.55 317.729C633.551 317.729 633.551 317.729 633.552 317.729C633.552 317.729 633.552 317.729 633.553 317.729C633.553 317.729 633.554 317.729 633.554 317.729C633.554 317.729 633.555 317.729 633.555 317.729C633.556 317.729 633.556 317.729 633.557 317.729C633.557 317.729 633.557 317.729 633.558 317.729C633.558 317.729 633.559 317.729 633.559 317.729C633.56 317.729 633.56 317.729 633.56 317.729C633.561 317.729 633.561 317.729 633.562 317.729C633.562 317.729 633.562 317.729 633.563 317.729C633.563 317.729 633.564 317.729 633.564 317.729C633.565 317.729 633.565 317.729 633.565 317.729C633.566 317.729 633.566 317.729 633.567 317.729C633.567 317.729 633.568 317.729 633.568 317.729C633.568 317.729 633.569 317.729 633.569 317.729C633.57 317.729 633.57 317.729 633.57 317.729C633.571 317.729 633.571 317.729 633.572 317.729C633.572 317.729 633.573 317.729 633.573 317.729C633.573 317.729 633.574 317.729 633.574 317.729C633.575 317.729 633.575 317.729 633.576 317.729C633.576 317.729 633.576 317.729 633.577 317.729C633.577 317.729 633.578 317.729 633.578 317.729C633.578 317.729 633.579 317.729 633.579 317.729C633.58 317.729 633.58 317.729 633.581 317.729C633.581 317.729 633.581 317.729 633.582 317.729C633.582 317.729 633.583 317.729 633.583 317.729C633.584 317.729 633.584 317.729 633.584 317.729C633.585 317.729 633.585 317.729 633.586 317.729C633.586 317.729 633.587 317.729 633.587 317.729C633.587 317.729 633.588 317.729 633.588 317.729C633.589 317.729 633.589 317.729 633.589 317.729C633.59 317.729 633.59 317.729 633.591 317.729C633.591 317.729 633.592 317.729 633.592 317.729C633.592 317.729 633.593 317.729 633.593 317.729C633.594 317.729 633.594 317.729 633.595 317.729C633.595 317.729 633.595 317.729 633.596 317.729C633.596 317.729 633.597 317.729 633.597 317.729C633.598 317.729 633.598 317.729 633.598 317.729C633.599 317.729 633.599 317.729 633.6 317.729C633.6 317.729 633.6 317.729 633.601 317.729C633.601 317.729 633.602 317.729 633.602 317.729C633.603 317.729 633.603 317.729 633.603 317.729C633.604 317.729 633.604 317.729 633.605 317.729C633.605 317.729 633.606 317.729 633.606 317.729C633.606 317.729 633.607 317.729 633.607 317.729C633.608 317.729 633.608 317.729 633.609 317.729C633.609 317.729 633.609 317.729 633.61 317.729C633.61 317.729 633.611 317.729 633.611 317.729C633.611 317.729 633.612 317.729 633.612 317.729C633.613 317.729 633.613 317.729 633.614 317.729C633.614 317.729 633.614 317.729 633.615 317.729C633.615 317.729 633.616 317.729 633.616 317.729C633.617 317.729 633.617 317.729 633.617 317.729C633.618 317.729 633.618 317.729 633.619 317.729C633.619 317.729 633.619 317.729 633.62 317.729C633.62 317.729 633.621 317.729 633.621 317.729C633.622 317.729 633.622 317.729 633.622 317.729C633.623 317.729 633.623 317.729 633.624 317.729C633.624 317.729 633.625 317.729 633.625 317.729C633.625 317.729 633.626 317.729 633.626 317.729C633.627 317.729 633.627 317.729 633.628 317.729C633.628 317.729 633.628 317.729 633.629 317.729C633.629 317.729 633.63 317.729 633.63 317.729C633.63 317.729 633.631 317.729 633.631 317.729C633.632 317.729 633.632 317.729 633.633 317.729C633.633 317.729 633.633 317.729 633.634 317.729C633.634 317.729 633.635 317.729 633.635 317.729C633.636 317.729 633.636 317.729 633.636 317.729C633.637 317.729 633.637 317.729 633.638 317.729C633.638 317.729 633.638 317.729 633.639 317.729C633.639 317.729 633.64 317.729 633.64 317.729C633.641 317.729 633.641 317.729 633.641 317.729C633.642 317.729 633.642 317.729 633.643 317.729C633.643 317.729 633.644 317.729 633.644 317.729C633.644 317.729 633.645 317.729 633.645 317.729C633.646 317.729 633.646 317.729 633.646 317.729C633.647 317.729 633.647 317.729 633.648 317.729C633.648 317.729 633.649 317.729 633.649 317.729C633.649 317.729 633.65 317.729 633.65 317.729C633.651 317.729 633.651 317.729 633.652 317.729C633.652 317.729 633.652 317.729 633.653 317.729C633.653 317.729 633.654 317.729 633.654 317.729C633.654 317.729 633.655 317.729 633.655 317.729C633.656 317.729 633.656 317.729 633.657 317.729C633.657 317.729 633.657 317.729 633.658 317.729C633.658 317.729 633.659 317.729 633.659 317.729C633.66 317.729 633.66 317.729 633.66 317.729C633.661 317.729 633.661 317.729 633.662 317.729C633.662 317.729 633.662 317.729 633.663 317.729C633.663 317.729 633.664 317.729 633.664 317.729C633.665 317.729 633.665 317.729 633.665 317.729C633.666 317.729 633.666 317.729 633.667 317.729C633.667 317.729 633.667 317.729 633.668 317.729C633.668 317.729 633.669 317.729 633.669 317.729C633.67 317.729 633.67 317.729 633.67 317.729C633.671 317.729 633.671 317.729 633.672 317.729C633.672 317.729 633.673 317.729 633.673 317.729C633.673 317.729 633.674 317.729 633.674 317.729C633.675 317.729 633.675 317.729 633.675 317.729C633.676 317.729 633.676 317.729 633.677 317.729C633.677 317.729 633.678 317.729 633.678 317.729C633.678 317.729 633.679 317.729 633.679 317.729C633.68 317.729 633.68 317.729 633.68 317.729C633.681 317.729 633.681 317.729 633.682 317.729C633.682 317.729 633.683 317.729 633.683 317.729C633.683 317.729 633.684 317.729 633.684 317.729C633.685 317.729 633.685 317.729 633.685 317.729C633.686 317.729 633.686 317.729 633.687 317.729C633.687 317.729 633.688 317.729 633.688 317.729C633.688 317.729 633.689 317.729 633.689 317.729C633.69 317.729 633.69 317.729 633.69 317.729C633.691 317.729 633.691 317.729 633.692 317.729C633.692 317.729 633.693 317.729 633.693 317.729C633.693 317.729 633.694 317.729 633.694 317.729C633.695 317.729 633.695 317.729 633.695 317.729C633.696 317.729 633.696 317.729 633.697 317.729C633.697 317.729 633.698 317.729 633.698 317.729C633.698 317.729 633.699 317.729 633.699 317.729C633.7 317.729 633.7 317.729 633.7 317.729C633.701 317.729 633.701 317.729 633.702 317.729C633.702 317.729 633.702 317.729 633.703 317.729C633.703 317.729 633.704 317.729 633.704 317.729C633.705 317.729 633.705 317.729 633.705 317.729C633.706 317.729 633.706 317.729 633.707 317.729C633.707 317.729 633.707 317.729 633.708 317.729C633.708 317.729 633.709 317.729 633.709 317.729C633.71 317.729 633.71 317.729 633.71 317.729C633.711 317.729 633.711 317.729 633.712 317.729C633.712 317.729 633.712 317.729 633.713 317.729C633.713 317.729 633.714 317.729 633.714 317.729C633.714 317.729 633.715 317.729 633.715 317.729C633.716 317.729 633.716 317.729 633.717 317.729C633.717 317.729 633.717 317.729 633.718 317.729C633.718 317.729 633.719 317.729 633.719 317.729C633.719 317.729 633.72 317.729 633.72 317.729C633.721 317.729 633.721 317.729 633.721 317.729C633.722 317.729 633.722 317.729 633.723 317.729C633.723 317.729 633.724 317.729 633.724 317.729C633.724 317.729 633.725 317.729 633.725 317.729C633.726 317.729 633.726 317.729 633.726 317.729C633.727 317.729 633.727 317.729 633.728 317.729C633.728 317.729 633.728 317.729 633.729 317.729C633.729 317.729 633.73 317.729 633.73 317.729C633.73 317.729 633.731 317.729 633.731 317.729C633.732 317.729 633.732 317.729 633.733 317.729C633.733 317.729 633.733 317.729 633.734 317.729C633.734 317.729 633.735 317.729 633.735 317.729C633.735 317.729 633.736 317.729 633.736 317.729C633.737 317.729 633.737 317.729 633.737 317.729C633.738 317.729 633.738 317.729 633.739 317.729C633.739 317.729 633.739 317.729 633.74 317.729C633.74 317.729 633.741 317.729 633.741 317.729C633.741 317.729 633.742 317.729 633.742 317.729C633.743 317.729 633.743 317.729 633.744 317.729C633.744 317.729 633.744 317.729 633.745 317.729C633.745 317.729 633.746 317.729 633.746 317.729C633.746 317.729 633.747 317.729 633.747 317.729C633.748 317.729 633.748 317.729 633.748 317.729C633.749 317.729 633.749 317.729 633.75 317.729C633.75 317.729 633.75 317.729 633.751 317.729C633.751 317.729 633.752 317.729 633.752 317.729C633.752 317.729 633.753 317.729 633.753 317.729C633.754 317.729 633.754 317.729 633.754 317.729C633.755 317.729 633.755 317.729 633.756 317.729C633.756 317.729 633.756 317.729 633.757 317.729C633.757 317.729 633.758 317.729 633.758 317.729C633.758 317.729 633.759 317.729 633.759 317.729C633.76 317.729 633.76 317.729 633.76 317.729C633.761 317.729 633.761 317.729 633.762 317.729C633.762 317.729 633.762 317.729 633.763 317.729C633.763 317.729 633.764 317.729 633.764 317.729C633.764 317.729 633.765 317.729 633.765 317.729C633.766 317.729 633.766 317.729 633.766 317.729C633.767 317.729 633.767 317.729 633.768 317.729C633.768 317.729 633.768 317.729 633.769 317.729C633.769 317.729 633.77 317.729 633.77 317.729C633.77 317.729 633.771 317.729 633.771 317.729C633.772 317.729 633.772 317.729 633.772 317.729C633.773 317.729 633.773 317.729 633.774 317.729C633.774 317.729 633.774 317.729 633.775 317.729C633.775 317.729 633.776 317.729 633.776 317.729C633.776 317.729 633.777 317.729 633.777 317.729C633.778 317.729 633.778 317.729 633.778 317.729C633.779 317.729 633.779 317.729 633.78 317.729C633.78 317.729 633.78 317.729 633.781 317.729C633.781 317.729 633.782 317.729 633.782 317.729C633.782 317.729 633.783 317.729 633.783 317.729C633.784 317.729 633.784 317.729 633.784 317.729C633.785 317.729 633.785 317.729 633.786 317.729C633.786 317.729 633.786 317.729 633.787 317.729C633.787 317.729 633.787 317.729 633.788 317.729C633.788 317.729 633.789 317.729 633.789 317.729C633.789 317.729 633.79 317.729 633.79 317.729C633.791 317.729 633.791 317.729 633.791 317.729C633.792 317.729 633.792 317.729 633.793 317.729C633.793 317.729 633.793 317.729 633.794 317.729C633.794 317.729 633.795 317.729 633.795 317.729C633.795 317.729 633.796 317.729 633.796 317.729C633.796 317.729 633.797 317.729 633.797 317.729C633.798 317.729 633.798 317.729 633.798 317.729C633.799 317.729 633.799 317.729 633.8 317.729C633.8 317.729 633.8 317.729 633.801 317.729C633.801 317.729 633.802 317.729 633.802 317.729C633.802 317.729 633.803 317.729 633.803 317.729C633.803 317.729 633.804 317.729 633.804 317.729C633.805 317.729 633.805 317.729 633.805 317.729C633.806 317.729 633.806 317.729 633.807 317.729C633.807 317.729 633.807 317.729 633.808 317.729C633.808 317.729 633.809 317.729 633.809 317.729C633.809 317.729 633.81 317.729 633.81 317.729C633.81 317.729 633.811 317.729 633.811 317.729C633.812 317.729 633.812 317.729 633.812 317.729C633.813 317.729 633.813 317.729 633.814 317.729C633.814 317.729 633.814 317.729 633.815 317.729C633.815 317.729 633.815 317.729 633.816 317.729C633.816 317.729 633.817 317.729 633.817 317.729C633.817 317.729 633.818 317.729 633.818 317.729C633.818 317.729 633.819 317.729 633.819 317.729C633.82 317.729 633.82 317.729 633.82 317.729C633.821 317.729 633.821 317.729 633.822 317.729C633.822 317.729 633.822 317.729 633.823 317.729C633.823 317.729 633.823 317.729 633.824 317.729C633.824 317.729 633.825 317.729 633.825 317.729C633.825 317.729 633.826 317.729 633.826 317.729C633.826 317.729 633.827 317.729 633.827 317.729C633.828 317.729 633.828 317.729 633.828 317.729C633.829 317.729 633.829 317.729 633.829 317.729C633.83 317.729 633.83 317.729 633.831 317.729C633.831 317.729 633.831 317.729 633.832 317.729C633.832 317.729 633.832 317.729 633.833 317.729C633.833 317.729 633.834 317.729 633.834 317.729C633.834 317.729 633.835 317.729 633.835 317.729C633.835 317.729 633.836 317.729 633.836 317.729C633.837 317.729 633.837 317.729 633.837 317.729C633.838 317.729 633.838 317.729 633.838 317.729C633.839 317.729 633.839 317.729 633.84 317.729C633.84 317.729 633.84 317.729 633.841 317.729C633.841 317.729 633.841 317.729 633.842 317.729C633.842 317.729 633.843 317.729 633.843 317.729C633.843 317.729 633.844 317.729 633.844 317.729C633.844 317.729 633.845 317.729 633.845 317.729C633.846 317.729 633.846 317.729 633.846 317.729C633.847 317.729 633.847 317.729 633.847 317.729C633.848 317.729 633.848 317.729 633.849 317.729C633.849 317.729 633.849 317.729 633.85 317.729C633.85 317.729 633.85 317.729 633.851 317.729C633.851 317.729 633.851 317.729 633.852 317.729C633.852 317.729 633.853 317.729 633.853 317.729C633.853 317.729 633.854 317.729 633.854 317.729C633.854 317.729 633.855 317.729 633.855 317.729C633.855 317.729 633.856 317.729 633.856 317.729C633.857 317.729 633.857 317.729 633.857 317.729C633.858 317.729 633.858 317.729 633.858 317.729C633.859 317.729 633.859 317.729 633.859 317.729C633.86 317.729 633.86 317.729 633.861 317.729C633.861 317.729 633.861 317.729 633.862 317.729C633.862 317.729 633.862 317.729 633.863 317.729C633.863 317.729 633.863 317.729 633.864 317.729C633.864 317.729 633.865 317.729 633.865 317.729C633.865 317.729 633.866 317.729 633.866 317.729C633.866 317.729 633.867 317.729 633.867 317.729C633.867 317.729 633.868 317.729 633.868 317.729C633.868 317.729 633.869 317.729 633.869 317.729C633.87 317.729 633.87 317.729 633.87 317.729C633.871 317.729 633.871 317.729 633.871 317.729C633.872 317.729 633.872 317.729 633.872 317.729C633.873 317.729 633.873 317.729 633.873 317.729C633.874 317.729 633.874 317.729 633.875 317.729C633.875 317.729 633.875 317.729 633.876 317.729C633.876 317.729 633.876 317.729 633.877 317.729C633.877 317.729 633.877 317.729 633.878 317.729C633.878 317.729 633.878 317.729 633.879 317.729C633.879 317.729 633.88 317.729 633.88 317.729C633.88 317.729 633.881 317.729 633.881 317.729C633.881 317.729 633.882 317.729 633.882 317.729C633.882 317.729 633.883 317.729 633.883 317.729C633.883 317.729 633.884 317.729 633.884 317.729C633.884 317.729 633.885 317.729 633.885 317.729C633.885 317.729 633.886 317.729 633.886 317.729C633.887 317.729 633.887 317.729 633.887 317.729C633.888 317.729 633.888 317.729 633.888 317.729C633.889 317.729 633.889 317.729 633.889 317.729C633.89 317.729 633.89 317.729 633.89 317.729C633.891 317.729 633.891 317.729 633.891 317.729C633.892 317.729 633.892 317.729 633.892 317.729C633.893 317.729 633.893 317.729 633.893 317.729C633.894 317.729 633.894 317.729 633.894 317.729C633.895 317.729 633.895 317.729 633.896 317.729C633.896 317.729 633.896 317.729 633.897 317.729C633.897 317.729 633.897 317.729 633.898 317.729C633.898 317.729 633.898 317.729 633.899 317.729C633.899 317.729 633.899 317.729 633.9 317.729C633.9 317.729 633.9 317.729 633.901 317.729C633.901 317.729 633.901 317.729 633.902 317.729C633.902 317.729 633.902 317.729 633.903 317.729V314.637ZM633.297 314.637C632.873 314.637 632.627 314.503 632.483 314.363C632.334 314.218 632.181 313.953 632.156 313.5L629.069 313.672C629.13 314.777 629.541 315.811 630.322 316.575C631.109 317.344 632.162 317.729 633.297 317.729V314.637ZM632.079 313.097C632.084 313.111 632.08 313.105 632.077 313.067C632.073 313.026 632.072 312.983 632.072 312.893H628.98C628.98 313.054 628.971 313.548 629.146 314.075L632.079 313.097ZM632.072 312.893C632.072 312.425 632.193 312.198 632.291 312.088C632.382 311.984 632.609 311.806 633.191 311.748L632.883 308.671C631.733 308.786 630.704 309.214 629.974 310.04C629.249 310.861 628.98 311.89 628.98 312.893H632.072ZM633.246 311.741C641.563 310.603 653.074 307.715 660.019 304.42L658.694 301.626C652.134 304.738 640.96 307.565 632.827 308.678L633.246 311.741ZM660.214 304.31C660.399 304.186 660.587 304.136 660.915 304.136V301.044C660.205 301.044 659.353 301.167 658.499 301.737L660.214 304.31ZM660.915 304.136C661.419 304.136 661.865 304.373 662.178 305.104L665.02 303.886C664.294 302.193 662.835 301.044 660.915 301.044V304.136ZM662.164 305.069C662.256 305.3 662.313 305.622 662.313 305.88H665.405C665.405 305.273 665.289 304.556 665.035 303.921L662.164 305.069ZM662.313 305.88C662.313 306.512 661.941 307.145 661.176 307.528L662.559 310.293C664.218 309.464 665.405 307.846 665.405 305.88H662.313ZM661.264 307.487C658.478 308.669 654.82 309.947 650.806 311.057L651.631 314.037C655.755 312.896 659.543 311.576 662.471 310.334L661.264 307.487ZM649.672 312.547V327.525H652.764V312.547H649.672ZM651.218 329.071H663.513V325.979H651.218V329.071ZM663.513 329.071C663.775 329.071 663.932 329.163 664.069 329.347C664.238 329.573 664.391 329.983 664.391 330.555H667.483C667.483 329.482 667.203 328.378 666.549 327.5C665.864 326.58 664.809 325.979 663.513 325.979V329.071ZM664.391 330.555C664.391 331.275 664.232 331.629 664.125 331.769C664.067 331.845 663.965 331.953 663.599 331.953V335.045C664.791 335.045 665.859 334.591 666.58 333.649C667.252 332.771 667.483 331.653 667.483 330.555H664.391ZM663.599 331.953H651.218V335.045H663.599V331.953ZM649.672 333.499V347.352H652.764V333.499H649.672ZM651.218 348.898H656.153V345.806H651.218V348.898ZM656.153 348.898C658.392 348.898 659.668 349.335 660.401 350.007C661.104 350.65 661.62 351.801 661.62 354.018H664.712C664.712 351.388 664.103 349.205 662.49 347.727C660.907 346.277 658.677 345.806 656.153 345.806V348.898ZM661.62 354.018V373.239H664.712V354.018H661.62ZM661.62 373.239C661.62 375.542 661.083 376.759 660.335 377.447C659.557 378.161 658.215 378.619 655.894 378.619V381.711C658.507 381.711 660.802 381.217 662.427 379.723C664.081 378.203 664.712 375.957 664.712 373.239H661.62ZM655.894 378.619H640.05V381.711H655.894V378.619ZM640.05 378.619C637.728 378.619 636.387 378.161 635.609 377.447C634.861 376.759 634.323 375.542 634.323 373.239H631.231C631.231 375.957 631.862 378.203 633.517 379.723C635.142 381.217 637.436 381.711 640.05 381.711V378.619ZM634.323 373.239V354.018H631.231V373.239H634.323ZM634.323 354.018C634.323 351.801 634.84 350.65 635.542 350.007C636.275 349.335 637.552 348.898 639.79 348.898V345.806C637.267 345.806 635.036 346.277 633.454 347.727C631.84 349.205 631.231 351.388 631.231 354.018H634.323ZM639.79 348.898H644.985V345.806H639.79V348.898ZM646.531 347.352V333.499H643.439V347.352H646.531ZM644.985 331.953H631.998V335.045H644.985V331.953ZM631.998 331.953C631.664 331.953 631.522 331.846 631.423 331.718C631.286 331.541 631.12 331.155 631.12 330.469H628.028C628.028 331.6 628.295 332.73 628.98 333.613C629.703 334.546 630.773 335.045 631.998 335.045V331.953ZM631.12 330.469C631.12 329.841 631.279 329.478 631.414 329.307C631.514 329.18 631.662 329.071 631.998 329.071V325.979C630.775 325.979 629.711 326.476 628.989 327.388C628.302 328.256 628.028 329.365 628.028 330.469H631.12ZM631.998 329.071H644.985V325.979H631.998V329.071ZM637.638 355.317V372.027H640.73V355.317H637.638ZM637.638 372.027C637.638 373.082 637.872 374.207 638.794 374.984C639.646 375.702 640.756 375.824 641.695 375.824V372.732C641.329 372.732 641.087 372.703 640.932 372.666C640.783 372.63 640.762 372.599 640.786 372.619C640.886 372.703 640.73 372.703 640.73 372.027H637.638ZM641.695 375.824H654.682V372.732H641.695V375.824ZM654.682 375.824C655.56 375.824 656.693 375.712 657.483 374.84C658.229 374.017 658.306 372.897 658.306 372.027H655.213C655.213 372.41 655.188 372.637 655.158 372.767C655.131 372.886 655.119 372.844 655.192 372.763C655.273 372.674 655.342 372.664 655.285 372.68C655.206 372.702 655.028 372.732 654.682 372.732V375.824ZM658.306 372.027V355.317H655.213V372.027H658.306ZM658.306 355.317C658.306 354.428 658.237 353.277 657.466 352.453C656.66 351.591 655.505 351.52 654.682 351.52V354.612C655.044 354.612 655.231 354.638 655.32 354.661C655.386 354.677 655.304 354.668 655.208 354.566C655.12 354.471 655.13 354.414 655.157 354.536C655.187 354.67 655.213 354.907 655.213 355.317H658.306ZM654.682 351.52H641.695V354.612H654.682V351.52ZM641.695 351.52C640.801 351.52 639.677 351.607 638.813 352.312C637.86 353.089 637.638 354.244 637.638 355.317H640.73C640.73 354.572 640.897 354.601 640.767 354.708C640.732 354.737 640.745 354.707 640.901 354.673C641.064 354.637 641.314 354.612 641.695 354.612V351.52ZM670.872 323.122H665.591V326.214H670.872V323.122ZM665.591 323.122C665.357 323.122 665.191 323.037 665.046 322.851C664.877 322.636 664.712 322.234 664.712 321.638H661.62C661.62 322.773 661.931 323.886 662.607 324.753C663.306 325.649 664.353 326.214 665.591 326.214V323.122ZM664.712 321.638C664.712 320.952 664.878 320.593 664.998 320.44C665.082 320.334 665.203 320.24 665.504 320.24V317.148C664.333 317.148 663.285 317.617 662.568 318.528C661.888 319.392 661.62 320.505 661.62 321.638H664.712ZM665.504 320.24H670.872V317.148H665.504V320.24ZM672.418 318.694V305.361H669.326V318.694H672.418ZM672.418 305.361C672.418 305.156 672.457 305.042 672.488 304.982C672.516 304.925 672.562 304.864 672.655 304.8C672.868 304.651 673.331 304.483 674.162 304.483V301.391C673.001 301.391 671.82 301.612 670.885 302.264C669.869 302.974 669.326 304.069 669.326 305.361H672.418ZM674.162 304.483C674.993 304.483 675.456 304.651 675.669 304.8C675.761 304.864 675.807 304.925 675.836 304.982C675.866 305.042 675.906 305.156 675.906 305.361H678.998C678.998 304.069 678.455 302.974 677.439 302.264C676.504 301.612 675.323 301.391 674.162 301.391V304.483ZM675.906 305.361V318.694H678.998V305.361H675.906ZM677.452 320.24H696.326V317.148H677.452V320.24ZM697.872 318.694V305.361H694.78V318.694H697.872ZM697.872 305.361C697.872 305.156 697.911 305.042 697.942 304.982C697.971 304.925 698.017 304.864 698.109 304.8C698.322 304.651 698.785 304.483 699.616 304.483V301.391C698.455 301.391 697.274 301.612 696.339 302.264C695.323 302.974 694.78 304.069 694.78 305.361H697.872ZM699.616 304.483C700.447 304.483 700.91 304.651 701.123 304.8C701.216 304.864 701.262 304.925 701.29 304.982C701.321 305.042 701.36 305.156 701.36 305.361H704.452C704.452 304.069 703.909 302.974 702.893 302.264C701.958 301.612 700.777 301.391 699.616 301.391V304.483ZM701.36 305.361V318.694H704.452V305.361H701.36ZM702.906 320.24H707.928V317.148H702.906V320.24ZM707.928 320.24C708.261 320.24 708.403 320.347 708.502 320.475C708.64 320.652 708.806 321.038 708.806 321.724H711.898C711.898 320.593 711.631 319.463 710.946 318.58C710.223 317.647 709.153 317.148 707.928 317.148V320.24ZM708.806 321.724C708.806 322.353 708.647 322.715 708.512 322.886C708.411 323.013 708.263 323.122 707.928 323.122V326.214C709.15 326.214 710.214 325.717 710.936 324.805C711.624 323.937 711.898 322.828 711.898 321.724H708.806ZM707.928 323.122H702.906V326.214H707.928V323.122ZM701.36 324.668V373.152H704.452V324.668H701.36ZM701.36 373.152C701.36 375.455 700.822 376.673 700.074 377.36C699.297 378.075 697.955 378.532 695.633 378.532V381.625C698.247 381.625 700.542 381.13 702.166 379.637C703.821 378.116 704.452 375.871 704.452 373.152H701.36ZM695.633 378.532H678.058V381.625H695.633V378.532ZM678.058 378.532C675.786 378.532 674.466 378.077 673.698 377.365C672.956 376.677 672.418 375.455 672.418 373.152H669.326C669.326 375.871 669.957 378.113 671.596 379.632C673.208 381.128 675.482 381.625 678.058 381.625V378.532ZM672.418 373.152V324.668H669.326V373.152H672.418ZM675.906 350.469V371.854H678.998V350.469H675.906ZM675.906 371.854C675.906 372.909 676.14 374.034 677.062 374.811C677.914 375.529 679.024 375.651 679.963 375.651V372.559C679.597 372.559 679.355 372.53 679.2 372.493C679.051 372.457 679.03 372.425 679.054 372.446C679.154 372.53 678.998 372.53 678.998 371.854H675.906ZM679.963 375.651H693.729V372.559H679.963V375.651ZM693.729 375.651C694.673 375.651 695.78 375.526 696.643 374.836C697.592 374.076 697.872 372.955 697.872 371.854H694.78C694.78 372.483 694.627 372.488 694.711 372.421C694.719 372.414 694.678 372.452 694.514 372.491C694.344 372.53 694.093 372.559 693.729 372.559V375.651ZM697.872 371.854V350.469H694.78V371.854H697.872ZM696.326 348.922H677.452V352.015H696.326V348.922ZM697.872 344.581V324.668H694.78V344.581H697.872ZM696.326 323.122H677.452V326.214H696.326V323.122ZM675.906 324.668V344.581H678.998V324.668H675.906ZM677.452 346.127H696.326V343.035H677.452V346.127Z" fill="#59391D" mask="url(#path-9-outside-1_280_2440)"/>
<ellipse cx="15.4605" cy="15.7508" rx="15.4605" ry="15.7508" transform="matrix(0.999947 -0.0103167 -0.0173517 0.999849 805.613 208.722)" fill="#59391D"/>
<ellipse cx="15.4605" cy="15.7508" rx="15.4605" ry="15.7508" transform="matrix(0.999947 -0.0103167 -0.0173517 0.999849 946.055 211.229)" fill="#59391D"/>
<path d="M829.25 277.575C827.598 281.996 829.531 287.621 833.742 289.779C851.479 298.866 870.525 303.065 889.465 302.017C908.879 300.944 927.597 294.391 944.166 282.919C947.355 280.712 948.019 275.776 945.866 271.797C943.437 267.31 938.451 265.804 934.903 268.172C920.625 277.701 904.621 283.141 888.054 284.057C871.608 284.967 855.079 281.391 839.656 273.639C835.531 271.566 830.91 273.128 829.25 277.575Z" fill="#59391D" stroke="#59391D" stroke-width="1.54605"/>
<path d="M141.459 681.217C128.626 681.217 117.126 679.133 106.959 674.967C96.7923 670.8 88.6257 664.633 82.459 656.467C76.459 648.3 73.2923 638.467 72.959 626.967H118.459C119.126 633.467 121.376 638.467 125.209 641.967C129.042 645.3 134.042 646.967 140.209 646.967C146.542 646.967 151.542 645.55 155.209 642.717C158.876 639.717 160.709 635.633 160.709 630.467C160.709 626.133 159.209 622.55 156.209 619.717C153.376 616.883 149.792 614.55 145.459 612.717C141.292 610.883 135.292 608.8 127.459 606.467C116.126 602.967 106.876 599.467 99.709 595.967C92.5423 592.467 86.3757 587.3 81.209 580.467C76.0423 573.633 73.459 564.717 73.459 553.717C73.459 537.383 79.3757 524.633 91.209 515.467C103.042 506.133 118.459 501.467 137.459 501.467C156.792 501.467 172.376 506.133 184.209 515.467C196.042 524.633 202.376 537.467 203.209 553.967H156.959C156.626 548.3 154.542 543.883 150.709 540.717C146.876 537.383 141.959 535.717 135.959 535.717C130.792 535.717 126.626 537.133 123.459 539.967C120.292 542.633 118.709 546.55 118.709 551.717C118.709 557.383 121.376 561.8 126.709 564.967C132.042 568.133 140.376 571.55 151.709 575.217C163.042 579.05 172.209 582.717 179.209 586.217C186.376 589.717 192.542 594.8 197.709 601.467C202.876 608.133 205.459 616.717 205.459 627.217C205.459 637.217 202.876 646.3 197.709 654.467C192.709 662.633 185.376 669.133 175.709 673.967C166.042 678.8 154.626 681.217 141.459 681.217ZM362.018 539.967V679.467H319.268V660.467C314.934 666.633 309.018 671.633 301.518 675.467C294.184 679.133 286.018 680.967 277.018 680.967C266.351 680.967 256.934 678.633 248.768 673.967C240.601 669.133 234.268 662.217 229.768 653.217C225.268 644.217 223.018 633.633 223.018 621.467V539.967H265.518V615.717C265.518 625.05 267.934 632.3 272.768 637.467C277.601 642.633 284.101 645.217 292.268 645.217C300.601 645.217 307.184 642.633 312.018 637.467C316.851 632.3 319.268 625.05 319.268 615.717V539.967H362.018ZM438.225 537.967C448.058 537.967 456.641 539.967 463.975 543.967C471.475 547.967 477.225 553.217 481.225 559.717V539.967H523.975V679.217C523.975 692.05 521.391 703.633 516.225 713.967C511.225 724.467 503.475 732.8 492.975 738.967C482.641 745.133 469.725 748.217 454.225 748.217C433.558 748.217 416.808 743.3 403.975 733.467C391.141 723.8 383.808 710.633 381.975 693.967H424.225C425.558 699.3 428.725 703.467 433.725 706.467C438.725 709.633 444.891 711.217 452.225 711.217C461.058 711.217 468.058 708.633 473.225 703.467C478.558 698.467 481.225 690.383 481.225 679.217V659.467C477.058 665.967 471.308 671.3 463.975 675.467C456.641 679.467 448.058 681.467 438.225 681.467C426.725 681.467 416.308 678.55 406.975 672.717C397.641 666.717 390.225 658.3 384.725 647.467C379.391 636.467 376.725 623.8 376.725 609.467C376.725 595.133 379.391 582.55 384.725 571.717C390.225 560.883 397.641 552.55 406.975 546.717C416.308 540.883 426.725 537.967 438.225 537.967ZM481.225 609.717C481.225 599.05 478.225 590.633 472.225 584.467C466.391 578.3 459.225 575.217 450.725 575.217C442.225 575.217 434.975 578.3 428.975 584.467C423.141 590.467 420.225 598.8 420.225 609.467C420.225 620.133 423.141 628.633 428.975 634.967C434.975 641.133 442.225 644.217 450.725 644.217C459.225 644.217 466.391 641.133 472.225 634.967C478.225 628.8 481.225 620.383 481.225 609.717ZM538.902 609.467C538.902 595.133 541.569 582.55 546.902 571.717C552.402 560.883 559.819 552.55 569.152 546.717C578.486 540.883 588.902 537.967 600.402 537.967C610.236 537.967 618.819 539.967 626.152 543.967C633.652 547.967 639.402 553.217 643.402 559.717V539.967H686.152V679.467H643.402V659.717C639.236 666.217 633.402 671.467 625.902 675.467C618.569 679.467 609.986 681.467 600.152 681.467C588.819 681.467 578.486 678.55 569.152 672.717C559.819 666.717 552.402 658.3 546.902 647.467C541.569 636.467 538.902 623.8 538.902 609.467ZM643.402 609.717C643.402 599.05 640.402 590.633 634.402 584.467C628.569 578.3 621.402 575.217 612.902 575.217C604.402 575.217 597.152 578.3 591.152 584.467C585.319 590.467 582.402 598.8 582.402 609.467C582.402 620.133 585.319 628.633 591.152 634.967C597.152 641.133 604.402 644.217 612.902 644.217C621.402 644.217 628.569 641.133 634.402 634.967C640.402 628.8 643.402 620.383 643.402 609.717ZM752.33 563.217C757.33 555.55 763.58 549.55 771.08 545.217C778.58 540.717 786.913 538.467 796.08 538.467V583.717H784.33C773.663 583.717 765.663 586.05 760.33 590.717C754.997 595.217 752.33 603.217 752.33 614.717V679.467H709.58V539.967H752.33V563.217ZM829.014 681.467C821.514 681.467 815.347 679.3 810.514 674.967C805.847 670.467 803.514 664.967 803.514 658.467C803.514 651.8 805.847 646.217 810.514 641.717C815.347 637.217 821.514 634.967 829.014 634.967C836.347 634.967 842.347 637.217 847.014 641.717C851.847 646.217 854.264 651.8 854.264 658.467C854.264 664.967 851.847 670.467 847.014 674.967C842.347 679.3 836.347 681.467 829.014 681.467ZM998.32 503.967V538.217H951.82V679.467H909.07V538.217H862.57V503.967H998.32ZM1075.78 681.467C1062.11 681.467 1049.78 678.55 1038.78 672.717C1027.94 666.883 1019.36 658.55 1013.03 647.717C1006.86 636.883 1003.78 624.217 1003.78 609.717C1003.78 595.383 1006.94 582.8 1013.28 571.967C1019.61 560.967 1028.28 552.55 1039.28 546.717C1050.28 540.883 1062.61 537.967 1076.28 537.967C1089.94 537.967 1102.28 540.883 1113.28 546.717C1124.28 552.55 1132.94 560.967 1139.28 571.967C1145.61 582.8 1148.78 595.383 1148.78 609.717C1148.78 624.05 1145.53 636.717 1139.03 647.717C1132.69 658.55 1123.94 666.883 1112.78 672.717C1101.78 678.55 1089.44 681.467 1075.78 681.467ZM1075.78 644.467C1083.94 644.467 1090.86 641.467 1096.53 635.467C1102.36 629.467 1105.28 620.883 1105.28 609.717C1105.28 598.55 1102.44 589.967 1096.78 583.967C1091.28 577.967 1084.44 574.967 1076.28 574.967C1067.94 574.967 1061.03 577.967 1055.53 583.967C1050.03 589.8 1047.28 598.383 1047.28 609.717C1047.28 620.883 1049.94 629.467 1055.28 635.467C1060.78 641.467 1067.61 644.467 1075.78 644.467ZM1206.71 559.717C1210.87 553.217 1216.62 547.967 1223.96 543.967C1231.29 539.967 1239.87 537.967 1249.71 537.967C1261.21 537.967 1271.62 540.883 1280.96 546.717C1290.29 552.55 1297.62 560.883 1302.96 571.717C1308.46 582.55 1311.21 595.133 1311.21 609.467C1311.21 623.8 1308.46 636.467 1302.96 647.467C1297.62 658.3 1290.29 666.717 1280.96 672.717C1271.62 678.55 1261.21 681.467 1249.71 681.467C1240.04 681.467 1231.46 679.467 1223.96 675.467C1216.62 671.467 1210.87 666.3 1206.71 659.967V745.967H1163.96V539.967H1206.71V559.717ZM1267.71 609.467C1267.71 598.8 1264.71 590.467 1258.71 584.467C1252.87 578.3 1245.62 575.217 1236.96 575.217C1228.46 575.217 1221.21 578.3 1215.21 584.467C1209.37 590.633 1206.46 599.05 1206.46 609.717C1206.46 620.383 1209.37 628.8 1215.21 634.967C1221.21 641.133 1228.46 644.217 1236.96 644.217C1245.46 644.217 1252.71 641.133 1258.71 634.967C1264.71 628.633 1267.71 620.133 1267.71 609.467ZM1347.63 525.467C1340.13 525.467 1333.97 523.3 1329.13 518.967C1324.47 514.467 1322.13 508.967 1322.13 502.467C1322.13 495.8 1324.47 490.3 1329.13 485.967C1333.97 481.467 1340.13 479.217 1347.63 479.217C1354.97 479.217 1360.97 481.467 1365.63 485.967C1370.47 490.3 1372.88 495.8 1372.88 502.467C1372.88 508.967 1370.47 514.467 1365.63 518.967C1360.97 523.3 1354.97 525.467 1347.63 525.467ZM1368.88 539.967V679.467H1326.13V539.967H1368.88ZM1383.86 609.467C1383.86 595.133 1386.53 582.55 1391.86 571.717C1397.36 560.883 1404.78 552.55 1414.11 546.717C1423.45 540.883 1433.86 537.967 1445.36 537.967C1455.2 537.967 1463.78 539.967 1471.11 543.967C1478.61 547.967 1484.36 553.217 1488.36 559.717V539.967H1531.11V679.467H1488.36V659.717C1484.2 666.217 1478.36 671.467 1470.86 675.467C1463.53 679.467 1454.95 681.467 1445.11 681.467C1433.78 681.467 1423.45 678.55 1414.11 672.717C1404.78 666.717 1397.36 658.3 1391.86 647.467C1386.53 636.467 1383.86 623.8 1383.86 609.467ZM1488.36 609.717C1488.36 599.05 1485.36 590.633 1479.36 584.467C1473.53 578.3 1466.36 575.217 1457.86 575.217C1449.36 575.217 1442.11 578.3 1436.11 584.467C1430.28 590.467 1427.36 598.8 1427.36 609.467C1427.36 620.133 1430.28 628.633 1436.11 634.967C1442.11 641.133 1449.36 644.217 1457.86 644.217C1466.36 644.217 1473.53 641.133 1479.36 634.967C1485.36 628.8 1488.36 620.383 1488.36 609.717Z" fill="#59391D"/>
<path d="M364.55 796.067L336.95 849.227V879.467H323.27V849.227L295.55 796.067H310.79L330.11 836.987L349.43 796.067H364.55ZM401.686 880.547C395.446 880.547 389.806 879.147 384.766 876.347C379.726 873.467 375.766 869.467 372.886 864.347C370.006 859.147 368.566 853.147 368.566 846.347C368.566 839.627 370.046 833.667 373.006 828.467C375.966 823.267 380.006 819.267 385.126 816.467C390.246 813.667 395.966 812.267 402.286 812.267C408.606 812.267 414.326 813.667 419.446 816.467C424.566 819.267 428.606 823.267 431.566 828.467C434.526 833.667 436.006 839.627 436.006 846.347C436.006 853.067 434.486 859.027 431.446 864.227C428.406 869.427 424.246 873.467 418.966 876.347C413.766 879.147 408.006 880.547 401.686 880.547ZM401.686 868.667C405.206 868.667 408.486 867.827 411.526 866.147C414.646 864.467 417.166 861.947 419.086 858.587C421.006 855.227 421.966 851.147 421.966 846.347C421.966 841.547 421.046 837.507 419.206 834.227C417.366 830.867 414.926 828.347 411.886 826.667C408.846 824.987 405.566 824.147 402.046 824.147C398.526 824.147 395.246 824.987 392.206 826.667C389.246 828.347 386.886 830.867 385.126 834.227C383.366 837.507 382.486 841.547 382.486 846.347C382.486 853.467 384.286 858.987 387.886 862.907C391.566 866.747 396.166 868.667 401.686 868.667ZM507.01 813.347V879.467H493.33V871.667C491.17 874.387 488.33 876.547 484.81 878.147C481.37 879.667 477.69 880.427 473.77 880.427C468.57 880.427 463.89 879.347 459.73 877.187C455.65 875.027 452.41 871.827 450.01 867.587C447.69 863.347 446.53 858.227 446.53 852.227V813.347H460.09V850.187C460.09 856.107 461.57 860.667 464.53 863.867C467.49 866.987 471.53 868.547 476.65 868.547C481.77 868.547 485.81 866.987 488.77 863.867C491.81 860.667 493.33 856.107 493.33 850.187V813.347H507.01ZM536.339 822.947C538.339 819.587 540.979 816.987 544.259 815.147C547.619 813.227 551.579 812.267 556.139 812.267V826.427H552.659C547.299 826.427 543.219 827.787 540.419 830.507C537.699 833.227 536.339 837.947 536.339 844.667V879.467H522.659V813.347H536.339V822.947ZM622.566 880.307C616.966 880.307 611.926 879.347 607.446 877.427C602.966 875.427 599.446 872.627 596.886 869.027C594.326 865.427 593.046 861.227 593.046 856.427H607.686C608.006 860.027 609.406 862.987 611.886 865.307C614.446 867.627 618.006 868.787 622.566 868.787C627.286 868.787 630.966 867.667 633.606 865.427C636.246 863.107 637.566 860.147 637.566 856.547C637.566 853.747 636.726 851.467 635.046 849.707C633.446 847.947 631.406 846.587 628.926 845.627C626.526 844.667 623.166 843.627 618.846 842.507C613.406 841.067 608.966 839.627 605.526 838.187C602.166 836.667 599.286 834.347 596.886 831.227C594.486 828.107 593.286 823.947 593.286 818.747C593.286 813.947 594.486 809.747 596.886 806.147C599.286 802.547 602.646 799.787 606.966 797.867C611.286 795.947 616.286 794.987 621.966 794.987C630.046 794.987 636.646 797.027 641.766 801.107C646.966 805.107 649.846 810.627 650.406 817.667H635.286C635.046 814.627 633.606 812.027 630.966 809.867C628.326 807.707 624.846 806.627 620.526 806.627C616.606 806.627 613.406 807.627 610.926 809.627C608.446 811.627 607.206 814.507 607.206 818.267C607.206 820.827 607.966 822.947 609.486 824.627C611.086 826.227 613.086 827.507 615.486 828.467C617.886 829.427 621.166 830.467 625.326 831.587C630.846 833.107 635.326 834.627 638.766 836.147C642.286 837.667 645.246 840.027 647.646 843.227C650.126 846.347 651.366 850.547 651.366 855.827C651.366 860.067 650.206 864.067 647.886 867.827C645.646 871.587 642.326 874.627 637.926 876.947C633.606 879.187 628.486 880.307 622.566 880.307ZM753.908 813.347L733.388 879.467H718.988L705.668 830.627L692.348 879.467H677.948L657.308 813.347H671.228L685.028 866.507L699.068 813.347H713.348L726.788 866.267L740.468 813.347H753.908ZM822.331 844.787C822.331 847.267 822.171 849.507 821.851 851.507H771.331C771.731 856.787 773.691 861.027 777.211 864.227C780.731 867.427 785.051 869.027 790.171 869.027C797.531 869.027 802.731 865.947 805.771 859.787H820.531C818.531 865.867 814.891 870.867 809.611 874.787C804.411 878.627 797.931 880.547 790.171 880.547C783.851 880.547 778.171 879.147 773.131 876.347C768.171 873.467 764.251 869.467 761.371 864.347C758.571 859.147 757.171 853.147 757.171 846.347C757.171 839.547 758.531 833.587 761.251 828.467C764.051 823.267 767.931 819.267 772.891 816.467C777.931 813.667 783.691 812.267 790.171 812.267C796.411 812.267 801.971 813.627 806.851 816.347C811.731 819.067 815.531 822.907 818.251 827.867C820.971 832.747 822.331 838.387 822.331 844.787ZM808.051 840.467C807.971 835.427 806.171 831.387 802.651 828.347C799.131 825.307 794.771 823.787 789.571 823.787C784.851 823.787 780.811 825.307 777.451 828.347C774.091 831.307 772.091 835.347 771.451 840.467H808.051ZM893.994 844.787C893.994 847.267 893.834 849.507 893.514 851.507H842.994C843.394 856.787 845.354 861.027 848.874 864.227C852.394 867.427 856.714 869.027 861.834 869.027C869.194 869.027 874.394 865.947 877.434 859.787H892.194C890.194 865.867 886.554 870.867 881.274 874.787C876.074 878.627 869.594 880.547 861.834 880.547C855.514 880.547 849.834 879.147 844.794 876.347C839.834 873.467 835.914 869.467 833.034 864.347C830.234 859.147 828.834 853.147 828.834 846.347C828.834 839.547 830.194 833.587 832.914 828.467C835.714 823.267 839.594 819.267 844.554 816.467C849.594 813.667 855.354 812.267 861.834 812.267C868.074 812.267 873.634 813.627 878.514 816.347C883.394 819.067 887.194 822.907 889.914 827.867C892.634 832.747 893.994 838.387 893.994 844.787ZM879.714 840.467C879.634 835.427 877.834 831.387 874.314 828.347C870.794 825.307 866.434 823.787 861.234 823.787C856.514 823.787 852.474 825.307 849.114 828.347C845.754 831.307 843.754 835.347 843.114 840.467H879.714ZM921.016 824.507V861.107C921.016 863.587 921.576 865.387 922.696 866.507C923.896 867.547 925.896 868.067 928.696 868.067H937.096V879.467H926.296C920.136 879.467 915.416 878.027 912.136 875.147C908.856 872.267 907.216 867.587 907.216 861.107V824.507H899.416V813.347H907.216V796.907H921.016V813.347H937.096V824.507H921.016ZM1036.44 820.067C1034.28 815.907 1031.28 812.787 1027.44 810.707C1023.6 808.547 1019.16 807.467 1014.12 807.467C1008.6 807.467 1003.68 808.707 999.357 811.187C995.037 813.667 991.637 817.187 989.157 821.747C986.757 826.307 985.557 831.587 985.557 837.587C985.557 843.587 986.757 848.907 989.157 853.547C991.637 858.107 995.037 861.627 999.357 864.107C1003.68 866.587 1008.6 867.827 1014.12 867.827C1021.56 867.827 1027.6 865.747 1032.24 861.587C1036.88 857.427 1039.72 851.787 1040.76 844.667H1009.44V833.747H1055.4V844.427C1054.52 850.907 1052.2 856.867 1048.44 862.307C1044.76 867.747 1039.92 872.107 1033.92 875.387C1028 878.587 1021.4 880.187 1014.12 880.187C1006.28 880.187 999.117 878.387 992.637 874.787C986.157 871.107 980.997 866.027 977.157 859.547C973.397 853.067 971.517 845.747 971.517 837.587C971.517 829.427 973.397 822.107 977.157 815.627C980.997 809.147 986.157 804.107 992.637 800.507C999.197 796.827 1006.36 794.987 1014.12 794.987C1023 794.987 1030.88 797.187 1037.76 801.587C1044.72 805.907 1049.76 812.067 1052.88 820.067H1036.44ZM1126.37 813.347V879.467H1112.69V871.667C1110.53 874.387 1107.69 876.547 1104.17 878.147C1100.73 879.667 1097.05 880.427 1093.13 880.427C1087.93 880.427 1083.25 879.347 1079.09 877.187C1075.01 875.027 1071.77 871.827 1069.37 867.587C1067.05 863.347 1065.89 858.227 1065.89 852.227V813.347H1079.45V850.187C1079.45 856.107 1080.93 860.667 1083.89 863.867C1086.85 866.987 1090.89 868.547 1096.01 868.547C1101.13 868.547 1105.17 866.987 1108.13 863.867C1111.17 860.667 1112.69 856.107 1112.69 850.187V813.347H1126.37ZM1148.98 804.587C1146.5 804.587 1144.42 803.747 1142.74 802.067C1141.06 800.387 1140.22 798.307 1140.22 795.827C1140.22 793.347 1141.06 791.267 1142.74 789.587C1144.42 787.907 1146.5 787.067 1148.98 787.067C1151.38 787.067 1153.42 787.907 1155.1 789.587C1156.78 791.267 1157.62 793.347 1157.62 795.827C1157.62 798.307 1156.78 800.387 1155.1 802.067C1153.42 803.747 1151.38 804.587 1148.98 804.587ZM1155.7 813.347V879.467H1142.02V813.347H1155.7ZM1166.7 846.107C1166.7 839.467 1168.06 833.587 1170.78 828.467C1173.58 823.347 1177.34 819.387 1182.06 816.587C1186.86 813.707 1192.18 812.267 1198.02 812.267C1202.34 812.267 1206.58 813.227 1210.74 815.147C1214.98 816.987 1218.34 819.467 1220.82 822.587V790.667H1234.62V879.467H1220.82V869.507C1218.58 872.707 1215.46 875.347 1211.46 877.427C1207.54 879.507 1203.02 880.547 1197.9 880.547C1192.14 880.547 1186.86 879.107 1182.06 876.227C1177.34 873.267 1173.58 869.187 1170.78 863.987C1168.06 858.707 1166.7 852.747 1166.7 846.107ZM1220.82 846.347C1220.82 841.787 1219.86 837.827 1217.94 834.467C1216.1 831.107 1213.66 828.547 1210.62 826.787C1207.58 825.027 1204.3 824.147 1200.78 824.147C1197.26 824.147 1193.98 825.027 1190.94 826.787C1187.9 828.467 1185.42 830.987 1183.5 834.347C1181.66 837.627 1180.74 841.547 1180.74 846.107C1180.74 850.667 1181.66 854.667 1183.5 858.107C1185.42 861.547 1187.9 864.187 1190.94 866.027C1194.06 867.787 1197.34 868.667 1200.78 868.667C1204.3 868.667 1207.58 867.787 1210.62 866.027C1213.66 864.267 1216.1 861.707 1217.94 858.347C1219.86 854.907 1220.82 850.907 1220.82 846.347ZM1310.79 844.787C1310.79 847.267 1310.63 849.507 1310.31 851.507H1259.79C1260.19 856.787 1262.15 861.027 1265.67 864.227C1269.19 867.427 1273.51 869.027 1278.63 869.027C1285.99 869.027 1291.19 865.947 1294.23 859.787H1308.99C1306.99 865.867 1303.35 870.867 1298.07 874.787C1292.87 878.627 1286.39 880.547 1278.63 880.547C1272.31 880.547 1266.63 879.147 1261.59 876.347C1256.63 873.467 1252.71 869.467 1249.83 864.347C1247.03 859.147 1245.63 853.147 1245.63 846.347C1245.63 839.547 1246.99 833.587 1249.71 828.467C1252.51 823.267 1256.39 819.267 1261.35 816.467C1266.39 813.667 1272.15 812.267 1278.63 812.267C1284.87 812.267 1290.43 813.627 1295.31 816.347C1300.19 819.067 1303.99 822.907 1306.71 827.867C1309.43 832.747 1310.79 838.387 1310.79 844.787ZM1296.51 840.467C1296.43 835.427 1294.63 831.387 1291.11 828.347C1287.59 825.307 1283.23 823.787 1278.03 823.787C1273.31 823.787 1269.27 825.307 1265.91 828.347C1262.55 831.307 1260.55 835.347 1259.91 840.467H1296.51Z" fill="#59391D"/>
</svg>
