<svg width="230" height="173" viewBox="0 0 230 173" fill="none" xmlns="http://www.w3.org/2000/svg">
<rect x="2" y="2" width="226" height="169" rx="14" stroke="#FFA518" stroke-width="4"/>
<path d="M138.333 59C138.333 62.3271 136.077 65.6236 131.82 68.1777C127.597 70.712 121.654 72.3333 115 72.3333C108.346 72.3333 102.403 70.712 98.1797 68.1777C93.9227 65.6236 91.6667 62.3271 91.6667 59C91.6667 55.6729 93.9227 52.3764 98.1797 49.8223C102.403 47.288 108.346 45.6667 115 45.6667C121.654 45.6667 127.597 47.288 131.82 49.8223C136.077 52.3764 138.333 55.6729 138.333 59Z" stroke="#FFA518" stroke-width="3.33333" stroke-linecap="round" stroke-linejoin="round"/>
<mask id="path-3-inside-1_18_1851" fill="white">
<path d="M115 53.635C122.5 50.1025 127.5 55.7925 127.5 58.455C127.5 66.38 102.5 65.9675 102.5 56.205C102.5 50.245 107.5 44 115 44"/>
</mask>
<path d="M113.58 50.6194C111.914 51.4038 111.2 53.3899 111.984 55.0553C112.769 56.7208 114.755 57.435 116.42 56.6506L113.58 50.6194ZM115 47.3333C116.841 47.3333 118.333 45.8409 118.333 44C118.333 42.1591 116.841 40.6667 115 40.6667V47.3333ZM116.42 56.6506C119.159 55.3605 121.108 55.8358 122.346 56.5795C123.022 56.9855 123.533 57.5022 123.854 57.9697C124.225 58.5093 124.167 58.7075 124.167 58.455H130.833C130.833 56.8713 130.15 55.3598 129.349 54.194C128.498 52.9563 127.29 51.772 125.779 50.8643C122.642 48.9804 118.341 48.377 113.58 50.6194L116.42 56.6506ZM124.167 58.455C124.167 58.4791 124.186 58.55 123.996 58.7525C123.756 59.0079 123.257 59.3698 122.372 59.7183C120.596 60.418 117.977 60.7833 115.177 60.6342C112.377 60.4851 109.784 59.842 108.011 58.8681C106.245 57.8979 105.833 56.9592 105.833 56.205H99.1667C99.1667 60.332 101.88 63.1058 104.801 64.711C107.716 66.3125 111.373 67.1077 114.823 67.2914C118.273 67.4751 121.904 67.0678 124.815 65.921C127.566 64.8375 130.833 62.5456 130.833 58.455H124.167ZM105.833 56.205C105.833 51.9177 109.505 47.3333 115 47.3333V40.6667C105.495 40.6667 99.1667 48.5723 99.1667 56.205H105.833Z" fill="#FFA518" mask="url(#path-3-inside-1_18_1851)"/>
<mask id="path-5-inside-2_18_1851" fill="white">
<path d="M140 59V74C140 82.285 128.807 89 115 89C101.193 89 90 82.285 90 74V59"/>
</mask>
<path d="M143.333 59C143.333 57.1591 141.841 55.6667 140 55.6667C138.159 55.6667 136.667 57.1591 136.667 59H143.333ZM93.3333 59C93.3333 57.1591 91.8409 55.6667 90 55.6667C88.1591 55.6667 86.6667 57.1591 86.6667 59H93.3333ZM136.667 59V74H143.333V59H136.667ZM136.667 74C136.667 76.5117 134.953 79.3547 130.963 81.7485C127.039 84.1027 121.404 85.6667 115 85.6667V92.3333C122.404 92.3333 129.268 90.5398 134.393 87.4652C139.451 84.4303 143.333 79.7733 143.333 74H136.667ZM115 85.6667C108.596 85.6667 102.961 84.1027 99.0371 81.7485C95.0473 79.3547 93.3333 76.5117 93.3333 74H86.6667C86.6667 79.7733 90.549 84.4303 95.6072 87.4652C100.732 90.5398 107.596 92.3333 115 92.3333V85.6667ZM93.3333 74V59H86.6667V74H93.3333Z" fill="#FFA518" mask="url(#path-5-inside-2_18_1851)"/>
<path d="M42.4961 119.445H45.4258C45.332 120.562 45.0195 121.559 44.4883 122.434C43.957 123.301 43.2109 123.984 42.25 124.484C41.2891 124.984 40.1211 125.234 38.7461 125.234C37.6914 125.234 36.7422 125.047 35.8984 124.672C35.0547 124.289 34.332 123.75 33.7305 123.055C33.1289 122.352 32.668 121.504 32.3477 120.512C32.0352 119.52 31.8789 118.41 31.8789 117.184V115.766C31.8789 114.539 32.0391 113.43 32.3594 112.438C32.6875 111.445 33.1562 110.598 33.7656 109.895C34.375 109.184 35.1055 108.641 35.957 108.266C36.8164 107.891 37.7812 107.703 38.8516 107.703C40.2109 107.703 41.3594 107.953 42.2969 108.453C43.2344 108.953 43.9609 109.645 44.4766 110.527C45 111.41 45.3203 112.422 45.4375 113.562H42.5078C42.4297 112.828 42.2578 112.199 41.9922 111.676C41.7344 111.152 41.3516 110.754 40.8438 110.48C40.3359 110.199 39.6719 110.059 38.8516 110.059C38.1797 110.059 37.5938 110.184 37.0938 110.434C36.5938 110.684 36.1758 111.051 35.8398 111.535C35.5039 112.02 35.25 112.617 35.0781 113.328C34.9141 114.031 34.832 114.836 34.832 115.742V117.184C34.832 118.043 34.9062 118.824 35.0547 119.527C35.2109 120.223 35.4453 120.82 35.7578 121.32C36.0781 121.82 36.4844 122.207 36.9766 122.48C37.4688 122.754 38.0586 122.891 38.7461 122.891C39.582 122.891 40.2578 122.758 40.7734 122.492C41.2969 122.227 41.6914 121.84 41.957 121.332C42.2305 120.816 42.4102 120.188 42.4961 119.445ZM50.8398 112.32V125H48.0039V112.32H50.8398ZM47.8164 108.992C47.8164 108.562 47.957 108.207 48.2383 107.926C48.5273 107.637 48.9258 107.492 49.4336 107.492C49.9336 107.492 50.3281 107.637 50.6172 107.926C50.9062 108.207 51.0508 108.562 51.0508 108.992C51.0508 109.414 50.9062 109.766 50.6172 110.047C50.3281 110.328 49.9336 110.469 49.4336 110.469C48.9258 110.469 48.5273 110.328 48.2383 110.047C47.957 109.766 47.8164 109.414 47.8164 108.992ZM56.7344 115.027V125H53.9102V112.32H56.5703L56.7344 115.027ZM56.2305 118.191L55.3164 118.18C55.3242 117.281 55.4492 116.457 55.6914 115.707C55.9414 114.957 56.2852 114.312 56.7227 113.773C57.168 113.234 57.6992 112.82 58.3164 112.531C58.9336 112.234 59.6211 112.086 60.3789 112.086C60.9883 112.086 61.5391 112.172 62.0312 112.344C62.5312 112.508 62.957 112.777 63.3086 113.152C63.668 113.527 63.9414 114.016 64.1289 114.617C64.3164 115.211 64.4102 115.941 64.4102 116.809V125H61.5742V116.797C61.5742 116.188 61.4844 115.707 61.3047 115.355C61.1328 114.996 60.8789 114.742 60.543 114.594C60.2148 114.438 59.8047 114.359 59.3125 114.359C58.8281 114.359 58.3945 114.461 58.0117 114.664C57.6289 114.867 57.3047 115.145 57.0391 115.496C56.7812 115.848 56.582 116.254 56.4414 116.715C56.3008 117.176 56.2305 117.668 56.2305 118.191ZM70.0938 115.027V125H67.2695V112.32H69.9297L70.0938 115.027ZM69.5898 118.191L68.6758 118.18C68.6836 117.281 68.8086 116.457 69.0508 115.707C69.3008 114.957 69.6445 114.312 70.082 113.773C70.5273 113.234 71.0586 112.82 71.6758 112.531C72.293 112.234 72.9805 112.086 73.7383 112.086C74.3477 112.086 74.8984 112.172 75.3906 112.344C75.8906 112.508 76.3164 112.777 76.668 113.152C77.0273 113.527 77.3008 114.016 77.4883 114.617C77.6758 115.211 77.7695 115.941 77.7695 116.809V125H74.9336V116.797C74.9336 116.188 74.8438 115.707 74.6641 115.355C74.4922 114.996 74.2383 114.742 73.9023 114.594C73.5742 114.438 73.1641 114.359 72.6719 114.359C72.1875 114.359 71.7539 114.461 71.3711 114.664C70.9883 114.867 70.6641 115.145 70.3984 115.496C70.1406 115.848 69.9414 116.254 69.8008 116.715C69.6602 117.176 69.5898 117.668 69.5898 118.191ZM87.8008 122.457V116.41C87.8008 115.957 87.7188 115.566 87.5547 115.238C87.3906 114.91 87.1406 114.656 86.8047 114.477C86.4766 114.297 86.0625 114.207 85.5625 114.207C85.1016 114.207 84.7031 114.285 84.3672 114.441C84.0312 114.598 83.7695 114.809 83.582 115.074C83.3945 115.34 83.3008 115.641 83.3008 115.977H80.4883C80.4883 115.477 80.6094 114.992 80.8516 114.523C81.0938 114.055 81.4453 113.637 81.9062 113.27C82.3672 112.902 82.918 112.613 83.5586 112.402C84.1992 112.191 84.918 112.086 85.7148 112.086C86.668 112.086 87.5117 112.246 88.2461 112.566C88.9883 112.887 89.5703 113.371 89.9922 114.02C90.4219 114.66 90.6367 115.465 90.6367 116.434V122.07C90.6367 122.648 90.6758 123.168 90.7539 123.629C90.8398 124.082 90.9609 124.477 91.1172 124.812V125H88.2227C88.0898 124.695 87.9844 124.309 87.9062 123.84C87.8359 123.363 87.8008 122.902 87.8008 122.457ZM88.2109 117.289L88.2344 119.035H86.207C85.6836 119.035 85.2227 119.086 84.8242 119.188C84.4258 119.281 84.0938 119.422 83.8281 119.609C83.5625 119.797 83.3633 120.023 83.2305 120.289C83.0977 120.555 83.0312 120.855 83.0312 121.191C83.0312 121.527 83.1094 121.836 83.2656 122.117C83.4219 122.391 83.6484 122.605 83.9453 122.762C84.25 122.918 84.6172 122.996 85.0469 122.996C85.625 122.996 86.1289 122.879 86.5586 122.645C86.9961 122.402 87.3398 122.109 87.5898 121.766C87.8398 121.414 87.9727 121.082 87.9883 120.77L88.9023 122.023C88.8086 122.344 88.6484 122.688 88.4219 123.055C88.1953 123.422 87.8984 123.773 87.5312 124.109C87.1719 124.438 86.7383 124.707 86.2305 124.918C85.7305 125.129 85.1523 125.234 84.4961 125.234C83.668 125.234 82.9297 125.07 82.2812 124.742C81.6328 124.406 81.125 123.957 80.7578 123.395C80.3906 122.824 80.207 122.18 80.207 121.461C80.207 120.789 80.332 120.195 80.582 119.68C80.8398 119.156 81.2148 118.719 81.707 118.367C82.207 118.016 82.8164 117.75 83.5352 117.57C84.2539 117.383 85.0742 117.289 85.9961 117.289H88.2109ZM96.4141 114.898V125H93.5898V112.32H96.25L96.4141 114.898ZM95.957 118.191L94.9961 118.18C94.9961 117.305 95.1055 116.496 95.3242 115.754C95.543 115.012 95.8633 114.367 96.2852 113.82C96.707 113.266 97.2305 112.84 97.8555 112.543C98.4883 112.238 99.2188 112.086 100.047 112.086C100.625 112.086 101.152 112.172 101.629 112.344C102.113 112.508 102.531 112.77 102.883 113.129C103.242 113.488 103.516 113.949 103.703 114.512C103.898 115.074 103.996 115.754 103.996 116.551V125H101.172V116.797C101.172 116.18 101.078 115.695 100.891 115.344C100.711 114.992 100.449 114.742 100.105 114.594C99.7695 114.438 99.3672 114.359 98.8984 114.359C98.3672 114.359 97.9141 114.461 97.5391 114.664C97.1719 114.867 96.8711 115.145 96.6367 115.496C96.4023 115.848 96.2305 116.254 96.1211 116.715C96.0117 117.176 95.957 117.668 95.957 118.191ZM103.82 117.441L102.496 117.734C102.496 116.969 102.602 116.246 102.812 115.566C103.031 114.879 103.348 114.277 103.762 113.762C104.184 113.238 104.703 112.828 105.32 112.531C105.938 112.234 106.645 112.086 107.441 112.086C108.09 112.086 108.668 112.176 109.176 112.355C109.691 112.527 110.129 112.801 110.488 113.176C110.848 113.551 111.121 114.039 111.309 114.641C111.496 115.234 111.59 115.953 111.59 116.797V125H108.754V116.785C108.754 116.145 108.66 115.648 108.473 115.297C108.293 114.945 108.035 114.703 107.699 114.57C107.363 114.43 106.961 114.359 106.492 114.359C106.055 114.359 105.668 114.441 105.332 114.605C105.004 114.762 104.727 114.984 104.5 115.273C104.273 115.555 104.102 115.879 103.984 116.246C103.875 116.613 103.82 117.012 103.82 117.441ZM113.957 118.801V118.531C113.957 117.617 114.09 116.77 114.355 115.988C114.621 115.199 115.004 114.516 115.504 113.938C116.012 113.352 116.629 112.898 117.355 112.578C118.09 112.25 118.918 112.086 119.84 112.086C120.77 112.086 121.598 112.25 122.324 112.578C123.059 112.898 123.68 113.352 124.188 113.938C124.695 114.516 125.082 115.199 125.348 115.988C125.613 116.77 125.746 117.617 125.746 118.531V118.801C125.746 119.715 125.613 120.562 125.348 121.344C125.082 122.125 124.695 122.809 124.188 123.395C123.68 123.973 123.062 124.426 122.336 124.754C121.609 125.074 120.785 125.234 119.863 125.234C118.934 125.234 118.102 125.074 117.367 124.754C116.641 124.426 116.023 123.973 115.516 123.395C115.008 122.809 114.621 122.125 114.355 121.344C114.09 120.562 113.957 119.715 113.957 118.801ZM116.781 118.531V118.801C116.781 119.371 116.84 119.91 116.957 120.418C117.074 120.926 117.258 121.371 117.508 121.754C117.758 122.137 118.078 122.438 118.469 122.656C118.859 122.875 119.324 122.984 119.863 122.984C120.387 122.984 120.84 122.875 121.223 122.656C121.613 122.438 121.934 122.137 122.184 121.754C122.434 121.371 122.617 120.926 122.734 120.418C122.859 119.91 122.922 119.371 122.922 118.801V118.531C122.922 117.969 122.859 117.438 122.734 116.938C122.617 116.43 122.43 115.98 122.172 115.59C121.922 115.199 121.602 114.895 121.211 114.676C120.828 114.449 120.371 114.336 119.84 114.336C119.309 114.336 118.848 114.449 118.457 114.676C118.074 114.895 117.758 115.199 117.508 115.59C117.258 115.98 117.074 116.43 116.957 116.938C116.84 117.438 116.781 117.969 116.781 118.531ZM130.914 115.027V125H128.09V112.32H130.75L130.914 115.027ZM130.41 118.191L129.496 118.18C129.504 117.281 129.629 116.457 129.871 115.707C130.121 114.957 130.465 114.312 130.902 113.773C131.348 113.234 131.879 112.82 132.496 112.531C133.113 112.234 133.801 112.086 134.559 112.086C135.168 112.086 135.719 112.172 136.211 112.344C136.711 112.508 137.137 112.777 137.488 113.152C137.848 113.527 138.121 114.016 138.309 114.617C138.496 115.211 138.59 115.941 138.59 116.809V125H135.754V116.797C135.754 116.188 135.664 115.707 135.484 115.355C135.312 114.996 135.059 114.742 134.723 114.594C134.395 114.438 133.984 114.359 133.492 114.359C133.008 114.359 132.574 114.461 132.191 114.664C131.809 114.867 131.484 115.145 131.219 115.496C130.961 115.848 130.762 116.254 130.621 116.715C130.48 117.176 130.41 117.668 130.41 118.191ZM147.73 107.938H153.766C155.062 107.938 156.168 108.133 157.082 108.523C157.996 108.914 158.695 109.492 159.18 110.258C159.672 111.016 159.918 111.953 159.918 113.07C159.918 113.922 159.762 114.672 159.449 115.32C159.137 115.969 158.695 116.516 158.125 116.961C157.555 117.398 156.875 117.738 156.086 117.98L155.195 118.414H149.77L149.746 116.082H153.812C154.516 116.082 155.102 115.957 155.57 115.707C156.039 115.457 156.391 115.117 156.625 114.688C156.867 114.25 156.988 113.758 156.988 113.211C156.988 112.617 156.871 112.102 156.637 111.664C156.41 111.219 156.059 110.879 155.582 110.645C155.105 110.402 154.5 110.281 153.766 110.281H150.672V125H147.73V107.938ZM157.469 125L153.461 117.336L156.543 117.324L160.609 124.848V125H157.469ZM162.027 118.801V118.531C162.027 117.617 162.16 116.77 162.426 115.988C162.691 115.199 163.074 114.516 163.574 113.938C164.082 113.352 164.699 112.898 165.426 112.578C166.16 112.25 166.988 112.086 167.91 112.086C168.84 112.086 169.668 112.25 170.395 112.578C171.129 112.898 171.75 113.352 172.258 113.938C172.766 114.516 173.152 115.199 173.418 115.988C173.684 116.77 173.816 117.617 173.816 118.531V118.801C173.816 119.715 173.684 120.562 173.418 121.344C173.152 122.125 172.766 122.809 172.258 123.395C171.75 123.973 171.133 124.426 170.406 124.754C169.68 125.074 168.855 125.234 167.934 125.234C167.004 125.234 166.172 125.074 165.438 124.754C164.711 124.426 164.094 123.973 163.586 123.395C163.078 122.809 162.691 122.125 162.426 121.344C162.16 120.562 162.027 119.715 162.027 118.801ZM164.852 118.531V118.801C164.852 119.371 164.91 119.91 165.027 120.418C165.145 120.926 165.328 121.371 165.578 121.754C165.828 122.137 166.148 122.438 166.539 122.656C166.93 122.875 167.395 122.984 167.934 122.984C168.457 122.984 168.91 122.875 169.293 122.656C169.684 122.438 170.004 122.137 170.254 121.754C170.504 121.371 170.688 120.926 170.805 120.418C170.93 119.91 170.992 119.371 170.992 118.801V118.531C170.992 117.969 170.93 117.438 170.805 116.938C170.688 116.43 170.5 115.98 170.242 115.59C169.992 115.199 169.672 114.895 169.281 114.676C168.898 114.449 168.441 114.336 167.91 114.336C167.379 114.336 166.918 114.449 166.527 114.676C166.145 114.895 165.828 115.199 165.578 115.59C165.328 115.98 165.145 116.43 165.027 116.938C164.91 117.438 164.852 117.969 164.852 118.531ZM179.207 107V125H176.371V107H179.207ZM185.324 107V125H182.488V107H185.324ZM195.531 121.566C195.531 121.285 195.461 121.031 195.32 120.805C195.18 120.57 194.91 120.359 194.512 120.172C194.121 119.984 193.543 119.812 192.777 119.656C192.105 119.508 191.488 119.332 190.926 119.129C190.371 118.918 189.895 118.664 189.496 118.367C189.098 118.07 188.789 117.719 188.57 117.312C188.352 116.906 188.242 116.438 188.242 115.906C188.242 115.391 188.355 114.902 188.582 114.441C188.809 113.98 189.133 113.574 189.555 113.223C189.977 112.871 190.488 112.594 191.09 112.391C191.699 112.188 192.379 112.086 193.129 112.086C194.191 112.086 195.102 112.266 195.859 112.625C196.625 112.977 197.211 113.457 197.617 114.066C198.023 114.668 198.227 115.348 198.227 116.105H195.402C195.402 115.77 195.316 115.457 195.145 115.168C194.98 114.871 194.73 114.633 194.395 114.453C194.059 114.266 193.637 114.172 193.129 114.172C192.645 114.172 192.242 114.25 191.922 114.406C191.609 114.555 191.375 114.75 191.219 114.992C191.07 115.234 190.996 115.5 190.996 115.789C190.996 116 191.035 116.191 191.113 116.363C191.199 116.527 191.34 116.68 191.535 116.82C191.73 116.953 191.996 117.078 192.332 117.195C192.676 117.312 193.105 117.426 193.621 117.535C194.59 117.738 195.422 118 196.117 118.32C196.82 118.633 197.359 119.039 197.734 119.539C198.109 120.031 198.297 120.656 198.297 121.414C198.297 121.977 198.176 122.492 197.934 122.961C197.699 123.422 197.355 123.824 196.902 124.168C196.449 124.504 195.906 124.766 195.273 124.953C194.648 125.141 193.945 125.234 193.164 125.234C192.016 125.234 191.043 125.031 190.246 124.625C189.449 124.211 188.844 123.684 188.43 123.043C188.023 122.395 187.82 121.723 187.82 121.027H190.551C190.582 121.551 190.727 121.969 190.984 122.281C191.25 122.586 191.578 122.809 191.969 122.949C192.367 123.082 192.777 123.148 193.199 123.148C193.707 123.148 194.133 123.082 194.477 122.949C194.82 122.809 195.082 122.621 195.262 122.387C195.441 122.145 195.531 121.871 195.531 121.566Z" fill="#FFA518"/>
</svg>
