<svg width="230" height="178" viewBox="0 0 230 178" fill="none" xmlns="http://www.w3.org/2000/svg">
<rect x="2" y="2" width="226" height="174" rx="14" stroke="#FFA518" stroke-width="4"/>
<path d="M115.104 91.9166L105.312 73.1666C102.847 73.2708 100.721 72.5589 98.9333 71.0312C97.1458 69.5034 96.2514 67.4374 96.25 64.8333C96.25 63.0624 96.7625 61.4652 97.7875 60.0416C98.8125 58.618 100.106 57.611 101.667 57.0208C102.292 53.861 103.846 51.2478 106.329 49.1812C108.812 47.1145 111.703 46.0819 115 46.0833C118.297 46.0846 121.188 47.118 123.673 49.1833C126.158 51.2485 127.711 53.861 128.333 57.0208C129.896 57.611 131.19 58.618 132.215 60.0416C133.24 61.4652 133.751 63.0624 133.75 64.8333C133.75 67.4374 132.83 69.5034 130.99 71.0312C129.149 72.5589 127.083 73.2708 124.792 73.1666L115.104 91.9166ZM115.104 82.8541L120.729 71.9166C119.896 72.3333 118.993 72.6458 118.021 72.8541C117.049 73.0624 116.042 73.1666 115 73.1666C114.062 73.1666 113.117 73.0624 112.162 72.8541C111.208 72.6458 110.279 72.3333 109.375 71.9166L115.104 82.8541Z" fill="#FFA518"/>
<path d="M59.2891 112.938V130H56.3477V112.938H59.2891ZM67.8438 127.984C68.3047 127.984 68.7188 127.895 69.0859 127.715C69.4609 127.527 69.7617 127.27 69.9883 126.941C70.2227 126.613 70.3516 126.234 70.375 125.805H73.0352C73.0195 126.625 72.7773 127.371 72.3086 128.043C71.8398 128.715 71.2188 129.25 70.4453 129.648C69.6719 130.039 68.8164 130.234 67.8789 130.234C66.9102 130.234 66.0664 130.07 65.3477 129.742C64.6289 129.406 64.0312 128.945 63.5547 128.359C63.0781 127.773 62.7188 127.098 62.4766 126.332C62.2422 125.566 62.125 124.746 62.125 123.871V123.461C62.125 122.586 62.2422 121.766 62.4766 121C62.7188 120.227 63.0781 119.547 63.5547 118.961C64.0312 118.375 64.6289 117.918 65.3477 117.59C66.0664 117.254 66.9062 117.086 67.8672 117.086C68.8828 117.086 69.7734 117.289 70.5391 117.695C71.3047 118.094 71.9062 118.652 72.3438 119.371C72.7891 120.082 73.0195 120.91 73.0352 121.855H70.375C70.3516 121.387 70.2344 120.965 70.0234 120.59C69.8203 120.207 69.5312 119.902 69.1562 119.676C68.7891 119.449 68.3477 119.336 67.832 119.336C67.2617 119.336 66.7891 119.453 66.4141 119.688C66.0391 119.914 65.7461 120.227 65.5352 120.625C65.3242 121.016 65.1719 121.457 65.0781 121.949C64.9922 122.434 64.9492 122.938 64.9492 123.461V123.871C64.9492 124.395 64.9922 124.902 65.0781 125.395C65.1641 125.887 65.3125 126.328 65.5234 126.719C65.7422 127.102 66.0391 127.41 66.4141 127.645C66.7891 127.871 67.2656 127.984 67.8438 127.984ZM80.793 130.234C79.8555 130.234 79.0078 130.082 78.25 129.777C77.5 129.465 76.8594 129.031 76.3281 128.477C75.8047 127.922 75.4023 127.27 75.1211 126.52C74.8398 125.77 74.6992 124.961 74.6992 124.094V123.625C74.6992 122.633 74.8438 121.734 75.1328 120.93C75.4219 120.125 75.8242 119.438 76.3398 118.867C76.8555 118.289 77.4648 117.848 78.168 117.543C78.8711 117.238 79.6328 117.086 80.4531 117.086C81.3594 117.086 82.1523 117.238 82.832 117.543C83.5117 117.848 84.0742 118.277 84.5195 118.832C84.9727 119.379 85.3086 120.031 85.5273 120.789C85.7539 121.547 85.8672 122.383 85.8672 123.297V124.504H76.0703V122.477H83.0781V122.254C83.0625 121.746 82.9609 121.27 82.7734 120.824C82.5938 120.379 82.3164 120.02 81.9414 119.746C81.5664 119.473 81.0664 119.336 80.4414 119.336C79.9727 119.336 79.5547 119.438 79.1875 119.641C78.8281 119.836 78.5273 120.121 78.2852 120.496C78.043 120.871 77.8555 121.324 77.7227 121.855C77.5977 122.379 77.5352 122.969 77.5352 123.625V124.094C77.5352 124.648 77.6094 125.164 77.7578 125.641C77.9141 126.109 78.1406 126.52 78.4375 126.871C78.7344 127.223 79.0938 127.5 79.5156 127.703C79.9375 127.898 80.418 127.996 80.957 127.996C81.6367 127.996 82.2422 127.859 82.7734 127.586C83.3047 127.312 83.7656 126.926 84.1562 126.426L85.6445 127.867C85.3711 128.266 85.0156 128.648 84.5781 129.016C84.1406 129.375 83.6055 129.668 82.9727 129.895C82.3477 130.121 81.6211 130.234 80.793 130.234ZM104.406 124.445H107.336C107.242 125.562 106.93 126.559 106.398 127.434C105.867 128.301 105.121 128.984 104.16 129.484C103.199 129.984 102.031 130.234 100.656 130.234C99.6016 130.234 98.6523 130.047 97.8086 129.672C96.9648 129.289 96.2422 128.75 95.6406 128.055C95.0391 127.352 94.5781 126.504 94.2578 125.512C93.9453 124.52 93.7891 123.41 93.7891 122.184V120.766C93.7891 119.539 93.9492 118.43 94.2695 117.438C94.5977 116.445 95.0664 115.598 95.6758 114.895C96.2852 114.184 97.0156 113.641 97.8672 113.266C98.7266 112.891 99.6914 112.703 100.762 112.703C102.121 112.703 103.27 112.953 104.207 113.453C105.145 113.953 105.871 114.645 106.387 115.527C106.91 116.41 107.23 117.422 107.348 118.562H104.418C104.34 117.828 104.168 117.199 103.902 116.676C103.645 116.152 103.262 115.754 102.754 115.48C102.246 115.199 101.582 115.059 100.762 115.059C100.09 115.059 99.5039 115.184 99.0039 115.434C98.5039 115.684 98.0859 116.051 97.75 116.535C97.4141 117.02 97.1602 117.617 96.9883 118.328C96.8242 119.031 96.7422 119.836 96.7422 120.742V122.184C96.7422 123.043 96.8164 123.824 96.9648 124.527C97.1211 125.223 97.3555 125.82 97.668 126.32C97.9883 126.82 98.3945 127.207 98.8867 127.48C99.3789 127.754 99.9688 127.891 100.656 127.891C101.492 127.891 102.168 127.758 102.684 127.492C103.207 127.227 103.602 126.84 103.867 126.332C104.141 125.816 104.32 125.188 104.406 124.445ZM112.562 119.734V130H109.738V117.32H112.434L112.562 119.734ZM116.441 117.238L116.418 119.863C116.246 119.832 116.059 119.809 115.855 119.793C115.66 119.777 115.465 119.77 115.27 119.77C114.785 119.77 114.359 119.84 113.992 119.98C113.625 120.113 113.316 120.309 113.066 120.566C112.824 120.816 112.637 121.121 112.504 121.48C112.371 121.84 112.293 122.242 112.27 122.688L111.625 122.734C111.625 121.938 111.703 121.199 111.859 120.52C112.016 119.84 112.25 119.242 112.562 118.727C112.883 118.211 113.281 117.809 113.758 117.52C114.242 117.23 114.801 117.086 115.434 117.086C115.605 117.086 115.789 117.102 115.984 117.133C116.188 117.164 116.34 117.199 116.441 117.238ZM123.566 130.234C122.629 130.234 121.781 130.082 121.023 129.777C120.273 129.465 119.633 129.031 119.102 128.477C118.578 127.922 118.176 127.27 117.895 126.52C117.613 125.77 117.473 124.961 117.473 124.094V123.625C117.473 122.633 117.617 121.734 117.906 120.93C118.195 120.125 118.598 119.438 119.113 118.867C119.629 118.289 120.238 117.848 120.941 117.543C121.645 117.238 122.406 117.086 123.227 117.086C124.133 117.086 124.926 117.238 125.605 117.543C126.285 117.848 126.848 118.277 127.293 118.832C127.746 119.379 128.082 120.031 128.301 120.789C128.527 121.547 128.641 122.383 128.641 123.297V124.504H118.844V122.477H125.852V122.254C125.836 121.746 125.734 121.27 125.547 120.824C125.367 120.379 125.09 120.02 124.715 119.746C124.34 119.473 123.84 119.336 123.215 119.336C122.746 119.336 122.328 119.438 121.961 119.641C121.602 119.836 121.301 120.121 121.059 120.496C120.816 120.871 120.629 121.324 120.496 121.855C120.371 122.379 120.309 122.969 120.309 123.625V124.094C120.309 124.648 120.383 125.164 120.531 125.641C120.688 126.109 120.914 126.52 121.211 126.871C121.508 127.223 121.867 127.5 122.289 127.703C122.711 127.898 123.191 127.996 123.73 127.996C124.41 127.996 125.016 127.859 125.547 127.586C126.078 127.312 126.539 126.926 126.93 126.426L128.418 127.867C128.145 128.266 127.789 128.648 127.352 129.016C126.914 129.375 126.379 129.668 125.746 129.895C125.121 130.121 124.395 130.234 123.566 130.234ZM137.992 127.457V121.41C137.992 120.957 137.91 120.566 137.746 120.238C137.582 119.91 137.332 119.656 136.996 119.477C136.668 119.297 136.254 119.207 135.754 119.207C135.293 119.207 134.895 119.285 134.559 119.441C134.223 119.598 133.961 119.809 133.773 120.074C133.586 120.34 133.492 120.641 133.492 120.977H130.68C130.68 120.477 130.801 119.992 131.043 119.523C131.285 119.055 131.637 118.637 132.098 118.27C132.559 117.902 133.109 117.613 133.75 117.402C134.391 117.191 135.109 117.086 135.906 117.086C136.859 117.086 137.703 117.246 138.438 117.566C139.18 117.887 139.762 118.371 140.184 119.02C140.613 119.66 140.828 120.465 140.828 121.434V127.07C140.828 127.648 140.867 128.168 140.945 128.629C141.031 129.082 141.152 129.477 141.309 129.812V130H138.414C138.281 129.695 138.176 129.309 138.098 128.84C138.027 128.363 137.992 127.902 137.992 127.457ZM138.402 122.289L138.426 124.035H136.398C135.875 124.035 135.414 124.086 135.016 124.188C134.617 124.281 134.285 124.422 134.02 124.609C133.754 124.797 133.555 125.023 133.422 125.289C133.289 125.555 133.223 125.855 133.223 126.191C133.223 126.527 133.301 126.836 133.457 127.117C133.613 127.391 133.84 127.605 134.137 127.762C134.441 127.918 134.809 127.996 135.238 127.996C135.816 127.996 136.32 127.879 136.75 127.645C137.188 127.402 137.531 127.109 137.781 126.766C138.031 126.414 138.164 126.082 138.18 125.77L139.094 127.023C139 127.344 138.84 127.688 138.613 128.055C138.387 128.422 138.09 128.773 137.723 129.109C137.363 129.438 136.93 129.707 136.422 129.918C135.922 130.129 135.344 130.234 134.688 130.234C133.859 130.234 133.121 130.07 132.473 129.742C131.824 129.406 131.316 128.957 130.949 128.395C130.582 127.824 130.398 127.18 130.398 126.461C130.398 125.789 130.523 125.195 130.773 124.68C131.031 124.156 131.406 123.719 131.898 123.367C132.398 123.016 133.008 122.75 133.727 122.57C134.445 122.383 135.266 122.289 136.188 122.289H138.402ZM146.605 119.898V130H143.781V117.32H146.441L146.605 119.898ZM146.148 123.191L145.188 123.18C145.188 122.305 145.297 121.496 145.516 120.754C145.734 120.012 146.055 119.367 146.477 118.82C146.898 118.266 147.422 117.84 148.047 117.543C148.68 117.238 149.41 117.086 150.238 117.086C150.816 117.086 151.344 117.172 151.82 117.344C152.305 117.508 152.723 117.77 153.074 118.129C153.434 118.488 153.707 118.949 153.895 119.512C154.09 120.074 154.188 120.754 154.188 121.551V130H151.363V121.797C151.363 121.18 151.27 120.695 151.082 120.344C150.902 119.992 150.641 119.742 150.297 119.594C149.961 119.438 149.559 119.359 149.09 119.359C148.559 119.359 148.105 119.461 147.73 119.664C147.363 119.867 147.062 120.145 146.828 120.496C146.594 120.848 146.422 121.254 146.312 121.715C146.203 122.176 146.148 122.668 146.148 123.191ZM154.012 122.441L152.688 122.734C152.688 121.969 152.793 121.246 153.004 120.566C153.223 119.879 153.539 119.277 153.953 118.762C154.375 118.238 154.895 117.828 155.512 117.531C156.129 117.234 156.836 117.086 157.633 117.086C158.281 117.086 158.859 117.176 159.367 117.355C159.883 117.527 160.32 117.801 160.68 118.176C161.039 118.551 161.312 119.039 161.5 119.641C161.688 120.234 161.781 120.953 161.781 121.797V130H158.945V121.785C158.945 121.145 158.852 120.648 158.664 120.297C158.484 119.945 158.227 119.703 157.891 119.57C157.555 119.43 157.152 119.359 156.684 119.359C156.246 119.359 155.859 119.441 155.523 119.605C155.195 119.762 154.918 119.984 154.691 120.273C154.465 120.555 154.293 120.879 154.176 121.246C154.066 121.613 154.012 122.012 154.012 122.441ZM171.801 126.566C171.801 126.285 171.73 126.031 171.59 125.805C171.449 125.57 171.18 125.359 170.781 125.172C170.391 124.984 169.812 124.812 169.047 124.656C168.375 124.508 167.758 124.332 167.195 124.129C166.641 123.918 166.164 123.664 165.766 123.367C165.367 123.07 165.059 122.719 164.84 122.312C164.621 121.906 164.512 121.438 164.512 120.906C164.512 120.391 164.625 119.902 164.852 119.441C165.078 118.98 165.402 118.574 165.824 118.223C166.246 117.871 166.758 117.594 167.359 117.391C167.969 117.188 168.648 117.086 169.398 117.086C170.461 117.086 171.371 117.266 172.129 117.625C172.895 117.977 173.48 118.457 173.887 119.066C174.293 119.668 174.496 120.348 174.496 121.105H171.672C171.672 120.77 171.586 120.457 171.414 120.168C171.25 119.871 171 119.633 170.664 119.453C170.328 119.266 169.906 119.172 169.398 119.172C168.914 119.172 168.512 119.25 168.191 119.406C167.879 119.555 167.645 119.75 167.488 119.992C167.34 120.234 167.266 120.5 167.266 120.789C167.266 121 167.305 121.191 167.383 121.363C167.469 121.527 167.609 121.68 167.805 121.82C168 121.953 168.266 122.078 168.602 122.195C168.945 122.312 169.375 122.426 169.891 122.535C170.859 122.738 171.691 123 172.387 123.32C173.09 123.633 173.629 124.039 174.004 124.539C174.379 125.031 174.566 125.656 174.566 126.414C174.566 126.977 174.445 127.492 174.203 127.961C173.969 128.422 173.625 128.824 173.172 129.168C172.719 129.504 172.176 129.766 171.543 129.953C170.918 130.141 170.215 130.234 169.434 130.234C168.285 130.234 167.312 130.031 166.516 129.625C165.719 129.211 165.113 128.684 164.699 128.043C164.293 127.395 164.09 126.723 164.09 126.027H166.82C166.852 126.551 166.996 126.969 167.254 127.281C167.52 127.586 167.848 127.809 168.238 127.949C168.637 128.082 169.047 128.148 169.469 128.148C169.977 128.148 170.402 128.082 170.746 127.949C171.09 127.809 171.352 127.621 171.531 127.387C171.711 127.145 171.801 126.871 171.801 126.566Z" fill="#FFA518"/>
</svg>
