<svg width="230" height="176" viewBox="0 0 230 176" fill="none" xmlns="http://www.w3.org/2000/svg">
<rect x="2" y="2" width="226" height="172" rx="14" stroke="#FFA518" stroke-width="4"/>
<path d="M117.11 54.7058C117.308 54.7058 117.497 54.6273 117.637 54.4875C117.777 54.3477 117.856 54.158 117.856 53.9603C117.856 53.7626 117.777 53.573 117.637 53.4332C117.497 53.2934 117.308 53.2148 117.11 53.2148C116.912 53.2148 116.723 53.2934 116.583 53.4332C116.443 53.573 116.365 53.7626 116.365 53.9603C116.365 54.158 116.443 54.3477 116.583 54.4875C116.723 54.6273 116.912 54.7058 117.11 54.7058ZM100.09 61.3223C100.09 61.4202 100.07 61.5172 100.033 61.6076C99.9954 61.6981 99.9405 61.7802 99.8713 61.8495C99.8021 61.9187 99.7199 61.9736 99.6294 62.0111C99.539 62.0485 99.442 62.0678 99.3441 62.0678C99.2462 62.0678 99.1493 62.0485 99.0588 62.0111C98.9684 61.9736 98.8862 61.9187 98.817 61.8495C98.7478 61.7802 98.6928 61.6981 98.6554 61.6076C98.6179 61.5172 98.5986 61.4202 98.5986 61.3223C98.5986 61.1246 98.6772 60.935 98.817 60.7952C98.9568 60.6554 99.1464 60.5768 99.3441 60.5768C99.5419 60.5768 99.7315 60.6554 99.8713 60.7952C100.011 60.935 100.09 61.1246 100.09 61.3223ZM110.494 71.7413C110.494 71.939 110.415 72.1287 110.275 72.2685C110.135 72.4083 109.946 72.4868 109.748 72.4868C109.55 72.4868 109.361 72.4083 109.221 72.2685C109.081 72.1287 109.003 71.939 109.003 71.7413C109.011 71.5496 109.093 71.3685 109.232 71.2359C109.371 71.1033 109.555 71.0292 109.747 71.0292C109.939 71.0292 110.124 71.1033 110.263 71.2359C110.401 71.3685 110.484 71.5496 110.492 71.7413M108.049 55.1378C108.049 55.3355 107.97 55.5252 107.83 55.665C107.69 55.8048 107.501 55.8833 107.303 55.8833C107.105 55.8833 106.916 55.8048 106.776 55.665C106.636 55.5252 106.558 55.3355 106.558 55.1378C106.558 54.9401 106.636 54.7505 106.776 54.6107C106.916 54.4709 107.105 54.3923 107.303 54.3923C107.501 54.3923 107.69 54.4709 107.83 54.6107C107.97 54.7505 108.049 54.9401 108.049 55.1378ZM112.207 68.2688C112.404 68.2688 112.594 68.1903 112.734 68.0505C112.874 67.9107 112.952 67.721 112.952 67.5233C112.952 67.3256 112.874 67.136 112.734 66.9962C112.594 66.8564 112.404 66.7778 112.207 66.7778C112.009 66.7778 111.819 66.8564 111.679 66.9962C111.54 67.136 111.461 67.3256 111.461 67.5233C111.461 67.721 111.54 67.9107 111.679 68.0505C111.819 68.1903 112.009 68.2688 112.207 68.2688ZM104.293 63.7823C104.293 63.8802 104.273 63.9772 104.236 64.0676C104.198 64.1581 104.144 64.2402 104.074 64.3095C104.005 64.3787 103.923 64.4336 103.832 64.4711C103.742 64.5085 103.645 64.5278 103.547 64.5278C103.449 64.5278 103.352 64.5085 103.262 64.4711C103.171 64.4336 103.089 64.3787 103.02 64.3095C102.951 64.2402 102.896 64.1581 102.858 64.0676C102.821 63.9772 102.802 63.8802 102.802 63.7823C102.802 63.5846 102.88 63.395 103.02 63.2552C103.16 63.1154 103.349 63.0368 103.547 63.0368C103.745 63.0368 103.934 63.1154 104.074 63.2552C104.214 63.395 104.293 63.5846 104.293 63.7823ZM115.948 59.6243C116.145 59.6243 116.335 59.5458 116.475 59.406C116.615 59.2662 116.693 59.0765 116.693 58.8788C116.693 58.6811 116.615 58.4915 116.475 58.3517C116.335 58.2119 116.145 58.1333 115.948 58.1333C115.756 58.1419 115.575 58.2241 115.442 58.3629C115.31 58.5016 115.236 58.6861 115.236 58.8781C115.236 59.07 115.31 59.2545 115.442 59.3933C115.575 59.532 115.756 59.6142 115.948 59.6228M109.748 51.6653C109.946 51.6653 110.135 51.5868 110.275 51.447C110.415 51.3072 110.494 51.1175 110.494 50.9198C110.494 50.7221 110.415 50.5325 110.275 50.3927C110.135 50.2529 109.946 50.1743 109.748 50.1743C109.55 50.1743 109.361 50.2529 109.221 50.3927C109.081 50.5325 109.003 50.7221 109.003 50.9198C109.003 51.1175 109.081 51.3072 109.221 51.447C109.361 51.5868 109.55 51.6653 109.748 51.6653ZM102.385 54.7058C102.582 54.7058 102.772 54.6273 102.912 54.4875C103.052 54.3477 103.13 54.158 103.13 53.9603C103.13 53.7626 103.052 53.573 102.912 53.4332C102.772 53.2934 102.582 53.2148 102.385 53.2148C102.187 53.2148 101.997 53.2934 101.857 53.4332C101.718 53.573 101.639 53.7626 101.639 53.9603C101.639 54.158 101.718 54.3477 101.857 54.4875C101.997 54.6273 102.187 54.7058 102.385 54.7058ZM117.856 68.6858C117.856 68.8835 117.777 69.0732 117.637 69.213C117.497 69.3528 117.308 69.4313 117.11 69.4313C116.912 69.4313 116.723 69.3528 116.583 69.213C116.443 69.0732 116.365 68.8835 116.365 68.6858C116.365 68.4881 116.443 68.2985 116.583 68.1587C116.723 68.0189 116.912 67.9403 117.11 67.9403C117.308 67.9403 117.497 68.0189 117.637 68.1587C117.777 68.2985 117.856 68.4881 117.856 68.6858ZM120.166 62.0678C120.363 62.0678 120.553 61.9893 120.693 61.8495C120.833 61.7097 120.911 61.52 120.911 61.3223C120.911 61.1246 120.833 60.935 120.693 60.7952C120.553 60.6554 120.363 60.5768 120.166 60.5768C119.968 60.5768 119.778 60.6554 119.638 60.7952C119.499 60.935 119.42 61.1246 119.42 61.3223C119.42 61.52 119.499 61.7097 119.638 61.8495C119.778 61.9893 119.968 62.0678 120.166 62.0678ZM103.13 68.6858C103.13 68.7837 103.111 68.8807 103.073 68.9711C103.036 69.0616 102.981 69.1437 102.912 69.213C102.843 69.2822 102.76 69.3371 102.67 69.3746C102.579 69.412 102.483 69.4313 102.385 69.4313C102.287 69.4313 102.19 69.412 102.099 69.3746C102.009 69.3371 101.927 69.2822 101.857 69.213C101.788 69.1437 101.733 69.0616 101.696 68.9711C101.658 68.8807 101.639 68.7837 101.639 68.6858C101.639 68.4881 101.718 68.2985 101.857 68.1587C101.997 68.0189 102.187 67.9403 102.385 67.9403C102.582 67.9403 102.772 68.0189 102.912 68.1587C103.052 68.2985 103.13 68.4881 103.13 68.6858ZM103.637 59.4293C103.738 59.4338 103.838 59.4179 103.933 59.3825C104.027 59.3471 104.113 59.293 104.186 59.2234C104.259 59.1538 104.316 59.0702 104.356 58.9776C104.396 58.885 104.416 58.7853 104.416 58.6846C104.416 58.5839 104.396 58.4842 104.356 58.3916C104.316 58.299 104.259 58.2153 104.186 58.1457C104.113 58.0761 104.027 58.022 103.933 57.9866C103.838 57.9512 103.738 57.9353 103.637 57.9398C103.445 57.9484 103.264 58.0306 103.132 58.1694C102.999 58.3081 102.925 58.4926 102.925 58.6846C102.925 58.8765 102.999 59.061 103.132 59.1998C103.264 59.3385 103.445 59.4207 103.637 59.4293ZM116.62 63.9758C116.62 64.1735 116.541 64.3632 116.401 64.503C116.261 64.6428 116.072 64.7213 115.874 64.7213C115.676 64.7213 115.487 64.6428 115.347 64.503C115.207 64.3632 115.129 64.1735 115.129 63.9758C115.137 63.7841 115.219 63.603 115.358 63.4704C115.497 63.3378 115.681 63.2637 115.873 63.2637C116.065 63.2637 116.25 63.3378 116.389 63.4704C116.527 63.603 116.611 63.7841 116.62 63.9758ZM107.095 68.1938C107.292 68.1938 107.482 68.1153 107.622 67.9755C107.762 67.8357 107.84 67.646 107.84 67.4483C107.84 67.2506 107.762 67.061 107.622 66.9212C107.482 66.7814 107.292 66.7028 107.095 66.7028C106.897 66.7028 106.707 66.7814 106.567 66.9212C106.428 67.061 106.349 67.2506 106.349 67.4483C106.349 67.646 106.428 67.8357 106.567 67.9755C106.707 68.1153 106.897 68.1938 107.095 68.1938ZM113.146 55.2113C113.15 55.3119 113.134 55.4124 113.099 55.5067C113.063 55.601 113.009 55.6871 112.94 55.7599C112.87 55.8327 112.786 55.8907 112.694 55.9303C112.601 55.9698 112.502 55.9902 112.401 55.9902C112.3 55.9902 112.2 55.9698 112.108 55.9303C112.015 55.8907 111.932 55.8327 111.862 55.7599C111.792 55.6871 111.738 55.601 111.703 55.5067C111.668 55.4124 111.652 55.3119 111.656 55.2113C111.665 55.0196 111.747 54.8385 111.886 54.7059C112.024 54.5733 112.209 54.4992 112.401 54.4992C112.593 54.4992 112.777 54.5733 112.916 54.7059C113.055 54.8385 113.137 55.0196 113.146 55.2113ZM109.136 64.9448H110.642C111.116 64.9456 111.585 64.8528 112.023 64.6718C112.461 64.4908 112.859 64.225 113.194 63.8899C113.529 63.5547 113.795 63.1567 113.976 62.7187C114.157 62.2806 114.249 61.8112 114.248 61.3373C114.247 60.3812 113.867 59.4644 113.191 58.7884C112.515 58.1123 111.598 57.7321 110.642 57.7313H109.135C108.179 57.7325 107.262 58.1128 106.586 58.7888C105.91 59.4648 105.53 60.3813 105.529 61.3373C105.529 62.2936 105.91 63.2105 106.586 63.8868C107.262 64.5631 108.18 64.9436 109.136 64.9448Z" fill="#FFA518"/>
<path d="M103.015 47.0573C110.786 43.3043 120.163 46.5698 123.929 54.3173L124.009 54.4853C125.134 54.6503 126.202 55.1198 127.093 55.8548L127.097 55.8578L129.08 57.4718C129.179 57.5513 129.283 57.6233 129.422 57.7223L131.563 59.0948C132.894 59.9523 133.855 61.2774 134.257 62.8088V62.8133L134.917 65.3108C134.943 65.4158 134.98 65.5348 135.028 65.6678L135.913 67.9313H135.988V68.1263C136.525 69.5729 136.52 71.1649 135.974 72.6083V75.8483H135.941C135.413 84.0143 128.611 90.5003 120.301 90.5003H120.136C111.907 90.5003 105.13 84.1268 104.509 76.0403C100.774 74.7413 97.6689 72.0761 95.8193 68.5808L95.8178 68.5763C95.7236 68.409 95.6375 68.2373 95.5598 68.0618C91.8008 60.2873 95.0693 50.9243 102.815 47.1428L102.865 47.1173L103.015 47.0573ZM123.349 69.1073C123.765 69.4448 124.101 69.8712 124.332 70.3552C124.563 70.8392 124.682 71.3686 124.682 71.9048C124.683 72.3788 124.591 72.8483 124.41 73.2865C124.229 73.7246 123.963 74.1227 123.628 74.4579C123.293 74.793 122.895 75.0587 122.456 75.2397C122.018 75.4206 121.549 75.5133 121.075 75.5123H119.57C118.828 75.5125 118.103 75.283 117.496 74.8553C117.23 75.0032 116.96 75.1438 116.686 75.2768L116.528 75.3563C114.029 76.5712 111.25 77.0963 108.479 76.8773L108.548 77.1368C108.749 77.9198 109.258 78.6218 109.964 79.0793L109.966 79.0808L112.148 80.4803L112.184 80.5058C112.327 80.6063 112.51 80.7338 112.697 80.8838L112.706 80.8913L114.712 82.5218C115.358 83.0558 116.177 83.3213 117.004 83.2703H117.01L119.57 83.1203C119.823 83.1042 120.077 83.1042 120.329 83.1203L122.884 83.2703C123.721 83.3079 124.544 83.0392 125.198 82.5143L127.202 80.8838C127.388 80.7338 127.571 80.6063 127.712 80.5088L127.751 80.4803L129.934 79.0808H129.935C130.631 78.6293 131.137 77.9303 131.356 77.1218V77.1188L132.008 74.6453C132.061 74.4398 132.128 74.2358 132.176 74.0993L132.202 74.0243L132.214 73.9868L133.165 71.5583C133.463 70.7783 133.463 69.9157 133.165 69.1358L132.22 66.7253L132.215 66.7103C132.136 66.4931 132.067 66.2723 132.008 66.0488L131.351 63.5588C131.138 62.757 130.633 62.0637 129.935 61.6148L129.934 61.6133L127.751 60.2138L127.714 60.1883C127.573 60.0878 127.39 59.9603 127.204 59.8118L127.193 59.8043L125.222 58.1993C125.937 61.9419 125.271 65.8167 123.347 69.1058M121.229 55.6268C118.18 49.3553 110.567 46.7153 104.279 49.7783L104.23 49.8023L104.083 49.8623C97.8383 52.9433 95.2223 60.5198 98.2778 66.7913L98.3018 66.8408L98.3228 66.8918C98.3408 66.9383 98.3678 66.9923 98.4503 67.1378L98.4578 67.1528L98.4653 67.1663C101.635 73.1723 109.057 75.6398 115.211 72.6608L115.367 72.5828C121.655 69.5318 124.283 61.9208 121.232 55.6283" fill="#FFA518"/>
<path d="M86.6055 120.289H82.2578L82.2344 118.145H86.0312C86.6719 118.145 87.2148 118.051 87.6602 117.863C88.1133 117.668 88.457 117.391 88.6914 117.031C88.9258 116.664 89.043 116.223 89.043 115.707C89.043 115.137 88.9336 114.672 88.7148 114.312C88.4961 113.953 88.1602 113.691 87.707 113.527C87.2617 113.363 86.6914 113.281 85.9961 113.281H83.1484V128H80.207V110.938H85.9961C86.9336 110.938 87.7695 111.027 88.5039 111.207C89.2461 111.387 89.875 111.668 90.3906 112.051C90.9141 112.426 91.3086 112.902 91.5742 113.48C91.8477 114.059 91.9844 114.746 91.9844 115.543C91.9844 116.246 91.8164 116.891 91.4805 117.477C91.1445 118.055 90.6484 118.527 89.9922 118.895C89.3359 119.262 88.5195 119.48 87.543 119.551L86.6055 120.289ZM86.4766 128H81.332L82.6562 125.668H86.4766C87.1406 125.668 87.6953 125.559 88.1406 125.34C88.5859 125.113 88.918 124.805 89.1367 124.414C89.3633 124.016 89.4766 123.551 89.4766 123.02C89.4766 122.465 89.3789 121.984 89.1836 121.578C88.9883 121.164 88.6797 120.848 88.2578 120.629C87.8359 120.402 87.2852 120.289 86.6055 120.289H83.3008L83.3242 118.145H87.625L88.293 118.953C89.2305 118.984 90 119.191 90.6016 119.574C91.2109 119.957 91.6641 120.453 91.9609 121.062C92.2578 121.672 92.4062 122.328 92.4062 123.031C92.4062 124.117 92.168 125.027 91.6914 125.762C91.2227 126.496 90.5469 127.055 89.6641 127.438C88.7812 127.812 87.7188 128 86.4766 128ZM102.238 125.457V119.41C102.238 118.957 102.156 118.566 101.992 118.238C101.828 117.91 101.578 117.656 101.242 117.477C100.914 117.297 100.5 117.207 100 117.207C99.5391 117.207 99.1406 117.285 98.8047 117.441C98.4688 117.598 98.207 117.809 98.0195 118.074C97.832 118.34 97.7383 118.641 97.7383 118.977H94.9258C94.9258 118.477 95.0469 117.992 95.2891 117.523C95.5312 117.055 95.8828 116.637 96.3438 116.27C96.8047 115.902 97.3555 115.613 97.9961 115.402C98.6367 115.191 99.3555 115.086 100.152 115.086C101.105 115.086 101.949 115.246 102.684 115.566C103.426 115.887 104.008 116.371 104.43 117.02C104.859 117.66 105.074 118.465 105.074 119.434V125.07C105.074 125.648 105.113 126.168 105.191 126.629C105.277 127.082 105.398 127.477 105.555 127.812V128H102.66C102.527 127.695 102.422 127.309 102.344 126.84C102.273 126.363 102.238 125.902 102.238 125.457ZM102.648 120.289L102.672 122.035H100.645C100.121 122.035 99.6602 122.086 99.2617 122.188C98.8633 122.281 98.5312 122.422 98.2656 122.609C98 122.797 97.8008 123.023 97.668 123.289C97.5352 123.555 97.4688 123.855 97.4688 124.191C97.4688 124.527 97.5469 124.836 97.7031 125.117C97.8594 125.391 98.0859 125.605 98.3828 125.762C98.6875 125.918 99.0547 125.996 99.4844 125.996C100.062 125.996 100.566 125.879 100.996 125.645C101.434 125.402 101.777 125.109 102.027 124.766C102.277 124.414 102.41 124.082 102.426 123.77L103.34 125.023C103.246 125.344 103.086 125.688 102.859 126.055C102.633 126.422 102.336 126.773 101.969 127.109C101.609 127.438 101.176 127.707 100.668 127.918C100.168 128.129 99.5898 128.234 98.9336 128.234C98.1055 128.234 97.3672 128.07 96.7188 127.742C96.0703 127.406 95.5625 126.957 95.1953 126.395C94.8281 125.824 94.6445 125.18 94.6445 124.461C94.6445 123.789 94.7695 123.195 95.0195 122.68C95.2773 122.156 95.6523 121.719 96.1445 121.367C96.6445 121.016 97.2539 120.75 97.9727 120.57C98.6914 120.383 99.5117 120.289 100.434 120.289H102.648ZM116.148 115.32H118.715V127.648C118.715 128.789 118.473 129.758 117.988 130.555C117.504 131.352 116.828 131.957 115.961 132.371C115.094 132.793 114.09 133.004 112.949 133.004C112.465 133.004 111.926 132.934 111.332 132.793C110.746 132.652 110.176 132.426 109.621 132.113C109.074 131.809 108.617 131.406 108.25 130.906L109.574 129.242C110.027 129.781 110.527 130.176 111.074 130.426C111.621 130.676 112.195 130.801 112.797 130.801C113.445 130.801 113.996 130.68 114.449 130.438C114.91 130.203 115.266 129.855 115.516 129.395C115.766 128.934 115.891 128.371 115.891 127.707V118.191L116.148 115.32ZM107.535 121.801V121.555C107.535 120.594 107.652 119.719 107.887 118.93C108.121 118.133 108.457 117.449 108.895 116.879C109.332 116.301 109.863 115.859 110.488 115.555C111.113 115.242 111.82 115.086 112.609 115.086C113.43 115.086 114.129 115.234 114.707 115.531C115.293 115.828 115.781 116.254 116.172 116.809C116.562 117.355 116.867 118.012 117.086 118.777C117.312 119.535 117.48 120.379 117.59 121.309V122.094C117.488 123 117.316 123.828 117.074 124.578C116.832 125.328 116.512 125.977 116.113 126.523C115.715 127.07 115.223 127.492 114.637 127.789C114.059 128.086 113.375 128.234 112.586 128.234C111.812 128.234 111.113 128.074 110.488 127.754C109.871 127.434 109.34 126.984 108.895 126.406C108.457 125.828 108.121 125.148 107.887 124.367C107.652 123.578 107.535 122.723 107.535 121.801ZM110.359 121.555V121.801C110.359 122.379 110.414 122.918 110.523 123.418C110.641 123.918 110.816 124.359 111.051 124.742C111.293 125.117 111.598 125.414 111.965 125.633C112.34 125.844 112.781 125.949 113.289 125.949C113.953 125.949 114.496 125.809 114.918 125.527C115.348 125.246 115.676 124.867 115.902 124.391C116.137 123.906 116.301 123.367 116.395 122.773V120.652C116.348 120.191 116.25 119.762 116.102 119.363C115.961 118.965 115.77 118.617 115.527 118.32C115.285 118.016 114.98 117.781 114.613 117.617C114.246 117.445 113.812 117.359 113.312 117.359C112.805 117.359 112.363 117.469 111.988 117.688C111.613 117.906 111.305 118.207 111.062 118.59C110.828 118.973 110.652 119.418 110.535 119.926C110.418 120.434 110.359 120.977 110.359 121.555ZM127.234 128.234C126.297 128.234 125.449 128.082 124.691 127.777C123.941 127.465 123.301 127.031 122.77 126.477C122.246 125.922 121.844 125.27 121.562 124.52C121.281 123.77 121.141 122.961 121.141 122.094V121.625C121.141 120.633 121.285 119.734 121.574 118.93C121.863 118.125 122.266 117.438 122.781 116.867C123.297 116.289 123.906 115.848 124.609 115.543C125.312 115.238 126.074 115.086 126.895 115.086C127.801 115.086 128.594 115.238 129.273 115.543C129.953 115.848 130.516 116.277 130.961 116.832C131.414 117.379 131.75 118.031 131.969 118.789C132.195 119.547 132.309 120.383 132.309 121.297V122.504H122.512V120.477H129.52V120.254C129.504 119.746 129.402 119.27 129.215 118.824C129.035 118.379 128.758 118.02 128.383 117.746C128.008 117.473 127.508 117.336 126.883 117.336C126.414 117.336 125.996 117.438 125.629 117.641C125.27 117.836 124.969 118.121 124.727 118.496C124.484 118.871 124.297 119.324 124.164 119.855C124.039 120.379 123.977 120.969 123.977 121.625V122.094C123.977 122.648 124.051 123.164 124.199 123.641C124.355 124.109 124.582 124.52 124.879 124.871C125.176 125.223 125.535 125.5 125.957 125.703C126.379 125.898 126.859 125.996 127.398 125.996C128.078 125.996 128.684 125.859 129.215 125.586C129.746 125.312 130.207 124.926 130.598 124.426L132.086 125.867C131.812 126.266 131.457 126.648 131.02 127.016C130.582 127.375 130.047 127.668 129.414 127.895C128.789 128.121 128.062 128.234 127.234 128.234ZM137.535 110V128H134.699V110H137.535ZM147.742 124.566C147.742 124.285 147.672 124.031 147.531 123.805C147.391 123.57 147.121 123.359 146.723 123.172C146.332 122.984 145.754 122.812 144.988 122.656C144.316 122.508 143.699 122.332 143.137 122.129C142.582 121.918 142.105 121.664 141.707 121.367C141.309 121.07 141 120.719 140.781 120.312C140.562 119.906 140.453 119.438 140.453 118.906C140.453 118.391 140.566 117.902 140.793 117.441C141.02 116.98 141.344 116.574 141.766 116.223C142.188 115.871 142.699 115.594 143.301 115.391C143.91 115.188 144.59 115.086 145.34 115.086C146.402 115.086 147.312 115.266 148.07 115.625C148.836 115.977 149.422 116.457 149.828 117.066C150.234 117.668 150.438 118.348 150.438 119.105H147.613C147.613 118.77 147.527 118.457 147.355 118.168C147.191 117.871 146.941 117.633 146.605 117.453C146.27 117.266 145.848 117.172 145.34 117.172C144.855 117.172 144.453 117.25 144.133 117.406C143.82 117.555 143.586 117.75 143.43 117.992C143.281 118.234 143.207 118.5 143.207 118.789C143.207 119 143.246 119.191 143.324 119.363C143.41 119.527 143.551 119.68 143.746 119.82C143.941 119.953 144.207 120.078 144.543 120.195C144.887 120.312 145.316 120.426 145.832 120.535C146.801 120.738 147.633 121 148.328 121.32C149.031 121.633 149.57 122.039 149.945 122.539C150.32 123.031 150.508 123.656 150.508 124.414C150.508 124.977 150.387 125.492 150.145 125.961C149.91 126.422 149.566 126.824 149.113 127.168C148.66 127.504 148.117 127.766 147.484 127.953C146.859 128.141 146.156 128.234 145.375 128.234C144.227 128.234 143.254 128.031 142.457 127.625C141.66 127.211 141.055 126.684 140.641 126.043C140.234 125.395 140.031 124.723 140.031 124.027H142.762C142.793 124.551 142.938 124.969 143.195 125.281C143.461 125.586 143.789 125.809 144.18 125.949C144.578 126.082 144.988 126.148 145.41 126.148C145.918 126.148 146.344 126.082 146.688 125.949C147.031 125.809 147.293 125.621 147.473 125.387C147.652 125.145 147.742 124.871 147.742 124.566Z" fill="#FFA518"/>
</svg>
