<svg width="230" height="176" viewBox="0 0 230 176" fill="none" xmlns="http://www.w3.org/2000/svg">
<rect x="2" y="2" width="226" height="172" rx="14" stroke="#FFA518" stroke-width="4"/>
<path d="M98.0762 78.0002H113.1M128.126 78.0002H133.134M116.07 54.0002C117.396 54.0002 118.668 54.527 119.606 55.4647C120.543 56.4024 121.07 57.6742 121.07 59.0002C121.07 60.3263 120.543 61.5981 119.606 62.5358C118.668 63.4735 117.396 64.0002 116.07 64.0002C114.744 64.0002 113.472 63.4735 112.535 62.5358C111.597 61.5981 111.07 60.3263 111.07 59.0002C111.07 57.6742 111.597 56.4024 112.535 55.4647C113.472 54.527 114.744 54.0002 116.07 54.0002ZM116.07 54.0002C116.404 53.0002 117.87 50.8002 121.07 50.0002" stroke="#FFA518" stroke-width="2.25" stroke-linecap="round" stroke-linejoin="round"/>
<path d="M111.039 60.0304C99.1415 64.5284 94.3435 66.6044 95.0715 68.0924C99.0295 69.9624 106.301 69.4824 113.741 69.2024C115.789 69.1264 117.809 70.1424 118.273 72.1564C118.601 73.5784 118.689 74.8204 119.335 75.6084C119.705 76.0604 120.335 76.2124 120.899 76.0664C122.419 75.6664 123.049 73.9684 123.799 70.9864C123.945 70.4064 124.153 69.7804 124.717 69.5864C127.237 68.7104 134.995 70.6384 134.995 67.0864C134.869 63.3864 133.523 61.0804 129.197 57.6504C127.811 56.5432 126.055 56.0042 124.285 56.1424C122.433 56.2904 121.571 56.5324 121.021 57.0064" stroke="#FFA518" stroke-width="2.25" stroke-linecap="round" stroke-linejoin="round"/>
<path d="M95.0254 67.9863L96.9754 76.5963C97.9754 81.1043 98.4754 83.3583 100.119 84.6803C101.765 86.0003 104.073 86.0003 108.689 86.0003H125.845C129.289 86.0003 131.011 86.0003 132.155 84.9643C133.299 83.9283 133.467 82.2143 133.805 78.7843L134.985 67.2683" stroke="#FFA518" stroke-width="2.25" stroke-linecap="round" stroke-linejoin="round"/>
<path d="M50.7812 122.445H53.7109C53.6172 123.562 53.3047 124.559 52.7734 125.434C52.2422 126.301 51.4961 126.984 50.5352 127.484C49.5742 127.984 48.4062 128.234 47.0312 128.234C45.9766 128.234 45.0273 128.047 44.1836 127.672C43.3398 127.289 42.6172 126.75 42.0156 126.055C41.4141 125.352 40.9531 124.504 40.6328 123.512C40.3203 122.52 40.1641 121.41 40.1641 120.184V118.766C40.1641 117.539 40.3242 116.43 40.6445 115.438C40.9727 114.445 41.4414 113.598 42.0508 112.895C42.6602 112.184 43.3906 111.641 44.2422 111.266C45.1016 110.891 46.0664 110.703 47.1367 110.703C48.4961 110.703 49.6445 110.953 50.582 111.453C51.5195 111.953 52.2461 112.645 52.7617 113.527C53.2852 114.41 53.6055 115.422 53.7227 116.562H50.793C50.7148 115.828 50.543 115.199 50.2773 114.676C50.0195 114.152 49.6367 113.754 49.1289 113.48C48.6211 113.199 47.957 113.059 47.1367 113.059C46.4648 113.059 45.8789 113.184 45.3789 113.434C44.8789 113.684 44.4609 114.051 44.125 114.535C43.7891 115.02 43.5352 115.617 43.3633 116.328C43.1992 117.031 43.1172 117.836 43.1172 118.742V120.184C43.1172 121.043 43.1914 121.824 43.3398 122.527C43.4961 123.223 43.7305 123.82 44.043 124.32C44.3633 124.82 44.7695 125.207 45.2617 125.48C45.7539 125.754 46.3438 125.891 47.0312 125.891C47.8672 125.891 48.543 125.758 49.0586 125.492C49.582 125.227 49.9766 124.84 50.2422 124.332C50.5156 123.816 50.6953 123.188 50.7812 122.445ZM58.8906 110V128H56.0781V110H58.8906ZM58.3984 121.191L57.4844 121.18C57.4922 120.305 57.6133 119.496 57.8477 118.754C58.0898 118.012 58.4258 117.367 58.8555 116.82C59.293 116.266 59.8164 115.84 60.4258 115.543C61.0352 115.238 61.7109 115.086 62.4531 115.086C63.0781 115.086 63.6406 115.172 64.1406 115.344C64.6484 115.516 65.0859 115.793 65.4531 116.176C65.8203 116.551 66.0977 117.043 66.2852 117.652C66.4805 118.254 66.5781 118.988 66.5781 119.855V128H63.7422V119.832C63.7422 119.223 63.6523 118.738 63.4727 118.379C63.3008 118.02 63.0469 117.762 62.7109 117.605C62.375 117.441 61.9648 117.359 61.4805 117.359C60.9727 117.359 60.5234 117.461 60.1328 117.664C59.75 117.867 59.4297 118.145 59.1719 118.496C58.9141 118.848 58.7188 119.254 58.5859 119.715C58.4609 120.176 58.3984 120.668 58.3984 121.191ZM75.0273 128.234C74.0898 128.234 73.2422 128.082 72.4844 127.777C71.7344 127.465 71.0938 127.031 70.5625 126.477C70.0391 125.922 69.6367 125.27 69.3555 124.52C69.0742 123.77 68.9336 122.961 68.9336 122.094V121.625C68.9336 120.633 69.0781 119.734 69.3672 118.93C69.6562 118.125 70.0586 117.438 70.5742 116.867C71.0898 116.289 71.6992 115.848 72.4023 115.543C73.1055 115.238 73.8672 115.086 74.6875 115.086C75.5938 115.086 76.3867 115.238 77.0664 115.543C77.7461 115.848 78.3086 116.277 78.7539 116.832C79.207 117.379 79.543 118.031 79.7617 118.789C79.9883 119.547 80.1016 120.383 80.1016 121.297V122.504H70.3047V120.477H77.3125V120.254C77.2969 119.746 77.1953 119.27 77.0078 118.824C76.8281 118.379 76.5508 118.02 76.1758 117.746C75.8008 117.473 75.3008 117.336 74.6758 117.336C74.207 117.336 73.7891 117.438 73.4219 117.641C73.0625 117.836 72.7617 118.121 72.5195 118.496C72.2773 118.871 72.0898 119.324 71.957 119.855C71.832 120.379 71.7695 120.969 71.7695 121.625V122.094C71.7695 122.648 71.8438 123.164 71.9922 123.641C72.1484 124.109 72.375 124.52 72.6719 124.871C72.9688 125.223 73.3281 125.5 73.75 125.703C74.1719 125.898 74.6523 125.996 75.1914 125.996C75.8711 125.996 76.4766 125.859 77.0078 125.586C77.5391 125.312 78 124.926 78.3906 124.426L79.8789 125.867C79.6055 126.266 79.25 126.648 78.8125 127.016C78.375 127.375 77.8398 127.668 77.207 127.895C76.582 128.121 75.8555 128.234 75.0273 128.234ZM87.8945 128.234C86.957 128.234 86.1094 128.082 85.3516 127.777C84.6016 127.465 83.9609 127.031 83.4297 126.477C82.9062 125.922 82.5039 125.27 82.2227 124.52C81.9414 123.77 81.8008 122.961 81.8008 122.094V121.625C81.8008 120.633 81.9453 119.734 82.2344 118.93C82.5234 118.125 82.9258 117.438 83.4414 116.867C83.957 116.289 84.5664 115.848 85.2695 115.543C85.9727 115.238 86.7344 115.086 87.5547 115.086C88.4609 115.086 89.2539 115.238 89.9336 115.543C90.6133 115.848 91.1758 116.277 91.6211 116.832C92.0742 117.379 92.4102 118.031 92.6289 118.789C92.8555 119.547 92.9688 120.383 92.9688 121.297V122.504H83.1719V120.477H90.1797V120.254C90.1641 119.746 90.0625 119.27 89.875 118.824C89.6953 118.379 89.418 118.02 89.043 117.746C88.668 117.473 88.168 117.336 87.543 117.336C87.0742 117.336 86.6562 117.438 86.2891 117.641C85.9297 117.836 85.6289 118.121 85.3867 118.496C85.1445 118.871 84.957 119.324 84.8242 119.855C84.6992 120.379 84.6367 120.969 84.6367 121.625V122.094C84.6367 122.648 84.7109 123.164 84.8594 123.641C85.0156 124.109 85.2422 124.52 85.5391 124.871C85.8359 125.223 86.1953 125.5 86.6172 125.703C87.0391 125.898 87.5195 125.996 88.0586 125.996C88.7383 125.996 89.3438 125.859 89.875 125.586C90.4062 125.312 90.8672 124.926 91.2578 124.426L92.7461 125.867C92.4727 126.266 92.1172 126.648 91.6797 127.016C91.2422 127.375 90.707 127.668 90.0742 127.895C89.4492 128.121 88.7227 128.234 87.8945 128.234ZM102.285 124.566C102.285 124.285 102.215 124.031 102.074 123.805C101.934 123.57 101.664 123.359 101.266 123.172C100.875 122.984 100.297 122.812 99.5312 122.656C98.8594 122.508 98.2422 122.332 97.6797 122.129C97.125 121.918 96.6484 121.664 96.25 121.367C95.8516 121.07 95.543 120.719 95.3242 120.312C95.1055 119.906 94.9961 119.438 94.9961 118.906C94.9961 118.391 95.1094 117.902 95.3359 117.441C95.5625 116.98 95.8867 116.574 96.3086 116.223C96.7305 115.871 97.2422 115.594 97.8438 115.391C98.4531 115.188 99.1328 115.086 99.8828 115.086C100.945 115.086 101.855 115.266 102.613 115.625C103.379 115.977 103.965 116.457 104.371 117.066C104.777 117.668 104.98 118.348 104.98 119.105H102.156C102.156 118.77 102.07 118.457 101.898 118.168C101.734 117.871 101.484 117.633 101.148 117.453C100.812 117.266 100.391 117.172 99.8828 117.172C99.3984 117.172 98.9961 117.25 98.6758 117.406C98.3633 117.555 98.1289 117.75 97.9727 117.992C97.8242 118.234 97.75 118.5 97.75 118.789C97.75 119 97.7891 119.191 97.8672 119.363C97.9531 119.527 98.0938 119.68 98.2891 119.82C98.4844 119.953 98.75 120.078 99.0859 120.195C99.4297 120.312 99.8594 120.426 100.375 120.535C101.344 120.738 102.176 121 102.871 121.32C103.574 121.633 104.113 122.039 104.488 122.539C104.863 123.031 105.051 123.656 105.051 124.414C105.051 124.977 104.93 125.492 104.688 125.961C104.453 126.422 104.109 126.824 103.656 127.168C103.203 127.504 102.66 127.766 102.027 127.953C101.402 128.141 100.699 128.234 99.918 128.234C98.7695 128.234 97.7969 128.031 97 127.625C96.2031 127.211 95.5977 126.684 95.1836 126.043C94.7773 125.395 94.5742 124.723 94.5742 124.027H97.3047C97.3359 124.551 97.4805 124.969 97.7383 125.281C98.0039 125.586 98.332 125.809 98.7227 125.949C99.1211 126.082 99.5312 126.148 99.9531 126.148C100.461 126.148 100.887 126.082 101.23 125.949C101.574 125.809 101.836 125.621 102.016 125.387C102.195 125.145 102.285 124.871 102.285 124.566ZM113.113 128.234C112.176 128.234 111.328 128.082 110.57 127.777C109.82 127.465 109.18 127.031 108.648 126.477C108.125 125.922 107.723 125.27 107.441 124.52C107.16 123.77 107.02 122.961 107.02 122.094V121.625C107.02 120.633 107.164 119.734 107.453 118.93C107.742 118.125 108.145 117.438 108.66 116.867C109.176 116.289 109.785 115.848 110.488 115.543C111.191 115.238 111.953 115.086 112.773 115.086C113.68 115.086 114.473 115.238 115.152 115.543C115.832 115.848 116.395 116.277 116.84 116.832C117.293 117.379 117.629 118.031 117.848 118.789C118.074 119.547 118.188 120.383 118.188 121.297V122.504H108.391V120.477H115.398V120.254C115.383 119.746 115.281 119.27 115.094 118.824C114.914 118.379 114.637 118.02 114.262 117.746C113.887 117.473 113.387 117.336 112.762 117.336C112.293 117.336 111.875 117.438 111.508 117.641C111.148 117.836 110.848 118.121 110.605 118.496C110.363 118.871 110.176 119.324 110.043 119.855C109.918 120.379 109.855 120.969 109.855 121.625V122.094C109.855 122.648 109.93 123.164 110.078 123.641C110.234 124.109 110.461 124.52 110.758 124.871C111.055 125.223 111.414 125.5 111.836 125.703C112.258 125.898 112.738 125.996 113.277 125.996C113.957 125.996 114.562 125.859 115.094 125.586C115.625 125.312 116.086 124.926 116.477 124.426L117.965 125.867C117.691 126.266 117.336 126.648 116.898 127.016C116.461 127.375 115.926 127.668 115.293 127.895C114.668 128.121 113.941 128.234 113.113 128.234ZM136.727 122.445H139.656C139.562 123.562 139.25 124.559 138.719 125.434C138.188 126.301 137.441 126.984 136.48 127.484C135.52 127.984 134.352 128.234 132.977 128.234C131.922 128.234 130.973 128.047 130.129 127.672C129.285 127.289 128.562 126.75 127.961 126.055C127.359 125.352 126.898 124.504 126.578 123.512C126.266 122.52 126.109 121.41 126.109 120.184V118.766C126.109 117.539 126.27 116.43 126.59 115.438C126.918 114.445 127.387 113.598 127.996 112.895C128.605 112.184 129.336 111.641 130.188 111.266C131.047 110.891 132.012 110.703 133.082 110.703C134.441 110.703 135.59 110.953 136.527 111.453C137.465 111.953 138.191 112.645 138.707 113.527C139.23 114.41 139.551 115.422 139.668 116.562H136.738C136.66 115.828 136.488 115.199 136.223 114.676C135.965 114.152 135.582 113.754 135.074 113.48C134.566 113.199 133.902 113.059 133.082 113.059C132.41 113.059 131.824 113.184 131.324 113.434C130.824 113.684 130.406 114.051 130.07 114.535C129.734 115.02 129.48 115.617 129.309 116.328C129.145 117.031 129.062 117.836 129.062 118.742V120.184C129.062 121.043 129.137 121.824 129.285 122.527C129.441 123.223 129.676 123.82 129.988 124.32C130.309 124.82 130.715 125.207 131.207 125.48C131.699 125.754 132.289 125.891 132.977 125.891C133.812 125.891 134.488 125.758 135.004 125.492C135.527 125.227 135.922 124.84 136.188 124.332C136.461 123.816 136.641 123.188 136.727 122.445ZM149.195 125.457V119.41C149.195 118.957 149.113 118.566 148.949 118.238C148.785 117.91 148.535 117.656 148.199 117.477C147.871 117.297 147.457 117.207 146.957 117.207C146.496 117.207 146.098 117.285 145.762 117.441C145.426 117.598 145.164 117.809 144.977 118.074C144.789 118.34 144.695 118.641 144.695 118.977H141.883C141.883 118.477 142.004 117.992 142.246 117.523C142.488 117.055 142.84 116.637 143.301 116.27C143.762 115.902 144.312 115.613 144.953 115.402C145.594 115.191 146.312 115.086 147.109 115.086C148.062 115.086 148.906 115.246 149.641 115.566C150.383 115.887 150.965 116.371 151.387 117.02C151.816 117.66 152.031 118.465 152.031 119.434V125.07C152.031 125.648 152.07 126.168 152.148 126.629C152.234 127.082 152.355 127.477 152.512 127.812V128H149.617C149.484 127.695 149.379 127.309 149.301 126.84C149.23 126.363 149.195 125.902 149.195 125.457ZM149.605 120.289L149.629 122.035H147.602C147.078 122.035 146.617 122.086 146.219 122.188C145.82 122.281 145.488 122.422 145.223 122.609C144.957 122.797 144.758 123.023 144.625 123.289C144.492 123.555 144.426 123.855 144.426 124.191C144.426 124.527 144.504 124.836 144.66 125.117C144.816 125.391 145.043 125.605 145.34 125.762C145.645 125.918 146.012 125.996 146.441 125.996C147.02 125.996 147.523 125.879 147.953 125.645C148.391 125.402 148.734 125.109 148.984 124.766C149.234 124.414 149.367 124.082 149.383 123.77L150.297 125.023C150.203 125.344 150.043 125.688 149.816 126.055C149.59 126.422 149.293 126.773 148.926 127.109C148.566 127.438 148.133 127.707 147.625 127.918C147.125 128.129 146.547 128.234 145.891 128.234C145.062 128.234 144.324 128.07 143.676 127.742C143.027 127.406 142.52 126.957 142.152 126.395C141.785 125.824 141.602 125.18 141.602 124.461C141.602 123.789 141.727 123.195 141.977 122.68C142.234 122.156 142.609 121.719 143.102 121.367C143.602 121.016 144.211 120.75 144.93 120.57C145.648 120.383 146.469 120.289 147.391 120.289H149.605ZM157.832 110V128H154.996V110H157.832ZM165.707 115.32L160.188 121.438L157.164 124.531L156.426 122.141L158.711 119.316L162.297 115.32H165.707ZM162.906 128L158.793 122.047L160.574 120.066L166.176 128H162.906ZM172.855 128.234C171.918 128.234 171.07 128.082 170.312 127.777C169.562 127.465 168.922 127.031 168.391 126.477C167.867 125.922 167.465 125.27 167.184 124.52C166.902 123.77 166.762 122.961 166.762 122.094V121.625C166.762 120.633 166.906 119.734 167.195 118.93C167.484 118.125 167.887 117.438 168.402 116.867C168.918 116.289 169.527 115.848 170.23 115.543C170.934 115.238 171.695 115.086 172.516 115.086C173.422 115.086 174.215 115.238 174.895 115.543C175.574 115.848 176.137 116.277 176.582 116.832C177.035 117.379 177.371 118.031 177.59 118.789C177.816 119.547 177.93 120.383 177.93 121.297V122.504H168.133V120.477H175.141V120.254C175.125 119.746 175.023 119.27 174.836 118.824C174.656 118.379 174.379 118.02 174.004 117.746C173.629 117.473 173.129 117.336 172.504 117.336C172.035 117.336 171.617 117.438 171.25 117.641C170.891 117.836 170.59 118.121 170.348 118.496C170.105 118.871 169.918 119.324 169.785 119.855C169.66 120.379 169.598 120.969 169.598 121.625V122.094C169.598 122.648 169.672 123.164 169.82 123.641C169.977 124.109 170.203 124.52 170.5 124.871C170.797 125.223 171.156 125.5 171.578 125.703C172 125.898 172.48 125.996 173.02 125.996C173.699 125.996 174.305 125.859 174.836 125.586C175.367 125.312 175.828 124.926 176.219 124.426L177.707 125.867C177.434 126.266 177.078 126.648 176.641 127.016C176.203 127.375 175.668 127.668 175.035 127.895C174.41 128.121 173.684 128.234 172.855 128.234ZM187.246 124.566C187.246 124.285 187.176 124.031 187.035 123.805C186.895 123.57 186.625 123.359 186.227 123.172C185.836 122.984 185.258 122.812 184.492 122.656C183.82 122.508 183.203 122.332 182.641 122.129C182.086 121.918 181.609 121.664 181.211 121.367C180.812 121.07 180.504 120.719 180.285 120.312C180.066 119.906 179.957 119.438 179.957 118.906C179.957 118.391 180.07 117.902 180.297 117.441C180.523 116.98 180.848 116.574 181.27 116.223C181.691 115.871 182.203 115.594 182.805 115.391C183.414 115.188 184.094 115.086 184.844 115.086C185.906 115.086 186.816 115.266 187.574 115.625C188.34 115.977 188.926 116.457 189.332 117.066C189.738 117.668 189.941 118.348 189.941 119.105H187.117C187.117 118.77 187.031 118.457 186.859 118.168C186.695 117.871 186.445 117.633 186.109 117.453C185.773 117.266 185.352 117.172 184.844 117.172C184.359 117.172 183.957 117.25 183.637 117.406C183.324 117.555 183.09 117.75 182.934 117.992C182.785 118.234 182.711 118.5 182.711 118.789C182.711 119 182.75 119.191 182.828 119.363C182.914 119.527 183.055 119.68 183.25 119.82C183.445 119.953 183.711 120.078 184.047 120.195C184.391 120.312 184.82 120.426 185.336 120.535C186.305 120.738 187.137 121 187.832 121.32C188.535 121.633 189.074 122.039 189.449 122.539C189.824 123.031 190.012 123.656 190.012 124.414C190.012 124.977 189.891 125.492 189.648 125.961C189.414 126.422 189.07 126.824 188.617 127.168C188.164 127.504 187.621 127.766 186.988 127.953C186.363 128.141 185.66 128.234 184.879 128.234C183.73 128.234 182.758 128.031 181.961 127.625C181.164 127.211 180.559 126.684 180.145 126.043C179.738 125.395 179.535 124.723 179.535 124.027H182.266C182.297 124.551 182.441 124.969 182.699 125.281C182.965 125.586 183.293 125.809 183.684 125.949C184.082 126.082 184.492 126.148 184.914 126.148C185.422 126.148 185.848 126.082 186.191 125.949C186.535 125.809 186.797 125.621 186.977 125.387C187.156 125.145 187.246 124.871 187.246 124.566Z" fill="#FFA518"/>
</svg>
