<svg width="230" height="176" viewBox="0 0 230 176" fill="none" xmlns="http://www.w3.org/2000/svg">
<rect x="2" y="2" width="226" height="172" rx="14" stroke="#FFA518" stroke-width="4"/>
<g clip-path="url(#clip0_2255_2600)">
<path fill-rule="evenodd" clip-rule="evenodd" d="M119.71 50.0599L117.679 48.5689C115.867 47.2369 115.606 47.1109 115.42 47.0629C115.139 46.9937 114.844 46.9937 114.562 47.0629C114.379 47.1109 114.118 47.2369 112.303 48.5689L110.272 50.0599L110.17 50.1349C109.717 50.4679 109.27 50.7979 108.772 51.0649C108.335 51.2958 107.877 51.4846 107.404 51.6289C106.865 51.7781 106.315 51.8894 105.76 51.9619L105.634 51.9829L103.144 52.3639C100.921 52.7059 100.645 52.7989 100.483 52.8949C100.236 53.0451 100.028 53.253 99.8774 53.5009C99.7814 53.6629 99.6854 53.9389 99.3464 56.1619L98.9654 58.6519L98.9444 58.7779C98.8728 59.3329 98.7626 59.8822 98.6144 60.4219C98.4682 60.8949 98.2773 61.353 98.0444 61.7899C97.7804 62.2879 97.4504 62.7349 97.1174 63.1879L97.0424 63.2899L95.5514 65.3209C94.2194 67.1329 94.0934 67.3939 94.0454 67.5799C93.9762 67.8617 93.9762 68.1561 94.0454 68.4379C94.0934 68.6209 94.2194 68.8819 95.5514 70.6969L97.0424 72.7279L97.1174 72.8299C97.4504 73.2829 97.7804 73.7299 98.0474 74.2279C98.2794 74.6659 98.4674 75.1219 98.6114 75.5959C98.7606 76.1354 98.8718 76.6848 98.9444 77.2399L98.9654 77.3659L99.3464 79.8559C99.6884 82.0789 99.7814 82.3549 99.8774 82.5169C100.028 82.7647 100.236 82.9726 100.483 83.1229C100.645 83.2189 100.921 83.3149 103.144 83.6539L105.634 84.0349L105.76 84.0559C106.315 84.1399 106.864 84.2239 107.404 84.3859C107.878 84.5339 108.334 84.7239 108.772 84.9559C109.27 85.2199 109.717 85.5499 110.17 85.8829L110.272 85.9579L112.303 87.4489C114.115 88.7809 114.376 88.9069 114.562 88.9549C114.844 89.024 115.139 89.024 115.42 88.9549C115.603 88.9069 115.864 88.7809 117.679 87.4489L119.71 85.9579L119.812 85.8829C120.265 85.5499 120.712 85.2229 121.21 84.9529C121.65 84.7209 122.106 84.5329 122.578 84.3889C123.118 84.2397 123.667 84.1284 124.222 84.0559L124.348 84.0349L126.838 83.6539C129.061 83.3119 129.337 83.2189 129.499 83.1229C129.747 82.9726 129.955 82.7647 130.105 82.5169C130.201 82.3549 130.297 82.0789 130.636 79.8559L131.017 77.3659L131.038 77.2399C131.122 76.6849 131.206 76.1359 131.368 75.5959C131.516 75.1219 131.706 74.6659 131.938 74.2279C132.202 73.7299 132.532 73.2829 132.865 72.8299L132.94 72.7279L134.431 70.6969C135.763 68.8849 135.889 68.6239 135.937 68.4379C136.007 68.1561 136.007 67.8617 135.937 67.5799C135.889 67.3969 135.763 67.1359 134.431 65.3209L132.94 63.2899L132.865 63.1879C132.523 62.7442 132.212 62.277 131.935 61.7899C131.704 61.3528 131.516 60.8947 131.371 60.4219C131.222 59.8823 131.111 59.333 131.038 58.7779L131.017 58.6519L130.636 56.1619C130.294 53.9389 130.201 53.6629 130.105 53.5009C129.955 53.253 129.747 53.0451 129.499 52.8949C129.337 52.7989 129.061 52.7029 126.838 52.3639L124.348 51.9829L124.222 51.9619C123.667 51.8903 123.118 51.7801 122.578 51.6319C122.105 51.4857 121.647 51.2949 121.21 51.0619C120.712 50.7979 120.265 50.4679 119.812 50.1349L119.71 50.0599ZM113.8 44.1499C112.924 44.3779 112.12 44.9659 110.53 46.1419L108.499 47.6329C108.142 47.9183 107.762 48.1761 107.365 48.4039C107.098 48.546 106.818 48.6625 106.528 48.7519C106.201 48.8509 105.862 48.9019 105.181 49.0069L102.691 49.3879C100.726 49.6879 99.7424 49.8409 98.9714 50.2999C98.2814 50.7049 97.7084 51.2809 97.3004 51.9709C96.8414 52.7509 96.6914 53.7349 96.3884 55.6909L96.0074 58.1809C95.9024 58.8619 95.8514 59.2039 95.7524 59.5309C95.6624 59.8209 95.5464 60.0989 95.4044 60.3649C95.2424 60.6649 95.0414 60.9439 94.6334 61.4989L93.1424 63.5299C91.9664 65.1319 91.3784 65.9329 91.1504 66.7999C90.9538 67.5746 90.9538 68.3861 91.1504 69.1609C91.3754 70.0369 91.9664 70.8409 93.1424 72.4309L94.6334 74.4619C95.0414 75.0169 95.2454 75.2959 95.4044 75.5959C95.5444 75.8639 95.6604 76.1439 95.7524 76.4359C95.8514 76.7599 95.9024 77.0989 96.0074 77.7799L96.3884 80.2699C96.6884 82.2349 96.8414 83.2159 97.3004 83.9899C97.7054 84.6799 98.2814 85.2529 98.9714 85.6609C99.7514 86.1199 100.735 86.2729 102.691 86.5729L105.181 86.9539C105.862 87.0589 106.204 87.1129 106.528 87.2119C106.818 87.2999 107.097 87.4159 107.365 87.5599C107.665 87.7189 107.944 87.9199 108.499 88.3309L110.53 89.8219C112.132 90.9979 112.933 91.5859 113.8 91.8139C114.574 92.0149 115.39 92.0149 116.161 91.8139C117.037 91.5859 117.841 90.9979 119.431 89.8219L121.462 88.3309C122.017 87.9229 122.296 87.7189 122.596 87.5599C122.864 87.4159 123.144 87.2999 123.436 87.2119C123.76 87.1129 124.099 87.0619 124.78 86.9539L127.27 86.5729C129.235 86.2729 130.216 86.1229 130.99 85.6609C131.68 85.2559 132.256 84.6799 132.661 83.9899C133.12 83.2099 133.27 82.2259 133.573 80.2699L133.954 77.7799C134.059 77.0989 134.11 76.7599 134.212 76.4329C134.3 76.1429 134.416 75.8639 134.56 75.5959C134.719 75.2959 134.92 75.0169 135.331 74.4619L136.822 72.4309C137.998 70.8289 138.586 70.0309 138.814 69.1609C139.011 68.3861 139.011 67.5746 138.814 66.7999C138.586 65.9239 137.998 65.1199 136.822 63.5299L135.331 61.4989C135.046 61.141 134.788 60.7619 134.56 60.3649C134.418 60.0975 134.302 59.8172 134.212 59.5279C134.092 59.0861 134.006 58.6358 133.954 58.1809L133.573 55.6909C133.273 53.7259 133.123 52.7449 132.661 51.9709C132.252 51.2833 131.678 50.7089 130.99 50.2999C130.21 49.8409 129.226 49.6909 127.27 49.3879L124.78 49.0069C124.326 48.9562 123.875 48.871 123.433 48.7519C123.143 48.6643 122.863 48.5477 122.596 48.4039C122.199 48.1761 121.82 47.9183 121.462 47.6329L119.431 46.1419C117.829 44.9659 117.031 44.3779 116.161 44.1499C115.387 43.9533 114.575 43.9533 113.8 44.1499Z" fill="#FFA518"/>
</g>
<path d="M70.6445 110.938H73.2695L78.2031 124.098L83.125 110.938H85.75L79.2344 128H77.1484L70.6445 110.938ZM69.4492 110.938H71.9453L72.3789 122.328V128H69.4492V110.938ZM84.4492 110.938H86.957V128H84.0156V122.328L84.4492 110.938ZM97.3164 125.457V119.41C97.3164 118.957 97.2344 118.566 97.0703 118.238C96.9062 117.91 96.6562 117.656 96.3203 117.477C95.9922 117.297 95.5781 117.207 95.0781 117.207C94.6172 117.207 94.2188 117.285 93.8828 117.441C93.5469 117.598 93.2852 117.809 93.0977 118.074C92.9102 118.34 92.8164 118.641 92.8164 118.977H90.0039C90.0039 118.477 90.125 117.992 90.3672 117.523C90.6094 117.055 90.9609 116.637 91.4219 116.27C91.8828 115.902 92.4336 115.613 93.0742 115.402C93.7148 115.191 94.4336 115.086 95.2305 115.086C96.1836 115.086 97.0273 115.246 97.7617 115.566C98.5039 115.887 99.0859 116.371 99.5078 117.02C99.9375 117.66 100.152 118.465 100.152 119.434V125.07C100.152 125.648 100.191 126.168 100.27 126.629C100.355 127.082 100.477 127.477 100.633 127.812V128H97.7383C97.6055 127.695 97.5 127.309 97.4219 126.84C97.3516 126.363 97.3164 125.902 97.3164 125.457ZM97.7266 120.289L97.75 122.035H95.7227C95.1992 122.035 94.7383 122.086 94.3398 122.188C93.9414 122.281 93.6094 122.422 93.3438 122.609C93.0781 122.797 92.8789 123.023 92.7461 123.289C92.6133 123.555 92.5469 123.855 92.5469 124.191C92.5469 124.527 92.625 124.836 92.7812 125.117C92.9375 125.391 93.1641 125.605 93.4609 125.762C93.7656 125.918 94.1328 125.996 94.5625 125.996C95.1406 125.996 95.6445 125.879 96.0742 125.645C96.5117 125.402 96.8555 125.109 97.1055 124.766C97.3555 124.414 97.4883 124.082 97.5039 123.77L98.418 125.023C98.3242 125.344 98.1641 125.688 97.9375 126.055C97.7109 126.422 97.4141 126.773 97.0469 127.109C96.6875 127.438 96.2539 127.707 95.7461 127.918C95.2461 128.129 94.668 128.234 94.0117 128.234C93.1836 128.234 92.4453 128.07 91.7969 127.742C91.1484 127.406 90.6406 126.957 90.2734 126.395C89.9062 125.824 89.7227 125.18 89.7227 124.461C89.7227 123.789 89.8477 123.195 90.0977 122.68C90.3555 122.156 90.7305 121.719 91.2227 121.367C91.7227 121.016 92.332 120.75 93.0508 120.57C93.7695 120.383 94.5898 120.289 95.5117 120.289H97.7266ZM108.285 125.984C108.746 125.984 109.16 125.895 109.527 125.715C109.902 125.527 110.203 125.27 110.43 124.941C110.664 124.613 110.793 124.234 110.816 123.805H113.477C113.461 124.625 113.219 125.371 112.75 126.043C112.281 126.715 111.66 127.25 110.887 127.648C110.113 128.039 109.258 128.234 108.32 128.234C107.352 128.234 106.508 128.07 105.789 127.742C105.07 127.406 104.473 126.945 103.996 126.359C103.52 125.773 103.16 125.098 102.918 124.332C102.684 123.566 102.566 122.746 102.566 121.871V121.461C102.566 120.586 102.684 119.766 102.918 119C103.16 118.227 103.52 117.547 103.996 116.961C104.473 116.375 105.07 115.918 105.789 115.59C106.508 115.254 107.348 115.086 108.309 115.086C109.324 115.086 110.215 115.289 110.98 115.695C111.746 116.094 112.348 116.652 112.785 117.371C113.23 118.082 113.461 118.91 113.477 119.855H110.816C110.793 119.387 110.676 118.965 110.465 118.59C110.262 118.207 109.973 117.902 109.598 117.676C109.23 117.449 108.789 117.336 108.273 117.336C107.703 117.336 107.23 117.453 106.855 117.688C106.48 117.914 106.188 118.227 105.977 118.625C105.766 119.016 105.613 119.457 105.52 119.949C105.434 120.434 105.391 120.938 105.391 121.461V121.871C105.391 122.395 105.434 122.902 105.52 123.395C105.605 123.887 105.754 124.328 105.965 124.719C106.184 125.102 106.48 125.41 106.855 125.645C107.23 125.871 107.707 125.984 108.285 125.984ZM122.793 125.457V119.41C122.793 118.957 122.711 118.566 122.547 118.238C122.383 117.91 122.133 117.656 121.797 117.477C121.469 117.297 121.055 117.207 120.555 117.207C120.094 117.207 119.695 117.285 119.359 117.441C119.023 117.598 118.762 117.809 118.574 118.074C118.387 118.34 118.293 118.641 118.293 118.977H115.48C115.48 118.477 115.602 117.992 115.844 117.523C116.086 117.055 116.438 116.637 116.898 116.27C117.359 115.902 117.91 115.613 118.551 115.402C119.191 115.191 119.91 115.086 120.707 115.086C121.66 115.086 122.504 115.246 123.238 115.566C123.98 115.887 124.562 116.371 124.984 117.02C125.414 117.66 125.629 118.465 125.629 119.434V125.07C125.629 125.648 125.668 126.168 125.746 126.629C125.832 127.082 125.953 127.477 126.109 127.812V128H123.215C123.082 127.695 122.977 127.309 122.898 126.84C122.828 126.363 122.793 125.902 122.793 125.457ZM123.203 120.289L123.227 122.035H121.199C120.676 122.035 120.215 122.086 119.816 122.188C119.418 122.281 119.086 122.422 118.82 122.609C118.555 122.797 118.355 123.023 118.223 123.289C118.09 123.555 118.023 123.855 118.023 124.191C118.023 124.527 118.102 124.836 118.258 125.117C118.414 125.391 118.641 125.605 118.938 125.762C119.242 125.918 119.609 125.996 120.039 125.996C120.617 125.996 121.121 125.879 121.551 125.645C121.988 125.402 122.332 125.109 122.582 124.766C122.832 124.414 122.965 124.082 122.98 123.77L123.895 125.023C123.801 125.344 123.641 125.688 123.414 126.055C123.188 126.422 122.891 126.773 122.523 127.109C122.164 127.438 121.73 127.707 121.223 127.918C120.723 128.129 120.145 128.234 119.488 128.234C118.66 128.234 117.922 128.07 117.273 127.742C116.625 127.406 116.117 126.957 115.75 126.395C115.383 125.824 115.199 125.18 115.199 124.461C115.199 123.789 115.324 123.195 115.574 122.68C115.832 122.156 116.207 121.719 116.699 121.367C117.199 121.016 117.809 120.75 118.527 120.57C119.246 120.383 120.066 120.289 120.988 120.289H123.203ZM131.418 117.734V128H128.594V115.32H131.289L131.418 117.734ZM135.297 115.238L135.273 117.863C135.102 117.832 134.914 117.809 134.711 117.793C134.516 117.777 134.32 117.77 134.125 117.77C133.641 117.77 133.215 117.84 132.848 117.98C132.48 118.113 132.172 118.309 131.922 118.566C131.68 118.816 131.492 119.121 131.359 119.48C131.227 119.84 131.148 120.242 131.125 120.688L130.48 120.734C130.48 119.938 130.559 119.199 130.715 118.52C130.871 117.84 131.105 117.242 131.418 116.727C131.738 116.211 132.137 115.809 132.613 115.52C133.098 115.23 133.656 115.086 134.289 115.086C134.461 115.086 134.645 115.102 134.84 115.133C135.043 115.164 135.195 115.199 135.297 115.238ZM136.223 121.801V121.531C136.223 120.617 136.355 119.77 136.621 118.988C136.887 118.199 137.27 117.516 137.77 116.938C138.277 116.352 138.895 115.898 139.621 115.578C140.355 115.25 141.184 115.086 142.105 115.086C143.035 115.086 143.863 115.25 144.59 115.578C145.324 115.898 145.945 116.352 146.453 116.938C146.961 117.516 147.348 118.199 147.613 118.988C147.879 119.77 148.012 120.617 148.012 121.531V121.801C148.012 122.715 147.879 123.562 147.613 124.344C147.348 125.125 146.961 125.809 146.453 126.395C145.945 126.973 145.328 127.426 144.602 127.754C143.875 128.074 143.051 128.234 142.129 128.234C141.199 128.234 140.367 128.074 139.633 127.754C138.906 127.426 138.289 126.973 137.781 126.395C137.273 125.809 136.887 125.125 136.621 124.344C136.355 123.562 136.223 122.715 136.223 121.801ZM139.047 121.531V121.801C139.047 122.371 139.105 122.91 139.223 123.418C139.34 123.926 139.523 124.371 139.773 124.754C140.023 125.137 140.344 125.438 140.734 125.656C141.125 125.875 141.59 125.984 142.129 125.984C142.652 125.984 143.105 125.875 143.488 125.656C143.879 125.438 144.199 125.137 144.449 124.754C144.699 124.371 144.883 123.926 145 123.418C145.125 122.91 145.188 122.371 145.188 121.801V121.531C145.188 120.969 145.125 120.438 145 119.938C144.883 119.43 144.695 118.98 144.438 118.59C144.188 118.199 143.867 117.895 143.477 117.676C143.094 117.449 142.637 117.336 142.105 117.336C141.574 117.336 141.113 117.449 140.723 117.676C140.34 117.895 140.023 118.199 139.773 118.59C139.523 118.98 139.34 119.43 139.223 119.938C139.105 120.438 139.047 120.969 139.047 121.531ZM153.18 118.027V128H150.355V115.32H153.016L153.18 118.027ZM152.676 121.191L151.762 121.18C151.77 120.281 151.895 119.457 152.137 118.707C152.387 117.957 152.73 117.312 153.168 116.773C153.613 116.234 154.145 115.82 154.762 115.531C155.379 115.234 156.066 115.086 156.824 115.086C157.434 115.086 157.984 115.172 158.477 115.344C158.977 115.508 159.402 115.777 159.754 116.152C160.113 116.527 160.387 117.016 160.574 117.617C160.762 118.211 160.855 118.941 160.855 119.809V128H158.02V119.797C158.02 119.188 157.93 118.707 157.75 118.355C157.578 117.996 157.324 117.742 156.988 117.594C156.66 117.438 156.25 117.359 155.758 117.359C155.273 117.359 154.84 117.461 154.457 117.664C154.074 117.867 153.75 118.145 153.484 118.496C153.227 118.848 153.027 119.254 152.887 119.715C152.746 120.176 152.676 120.668 152.676 121.191Z" fill="#FFA518"/>
<defs>
<clipPath id="clip0_2255_2600">
<rect width="48" height="48" fill="white" transform="translate(91 44)"/>
</clipPath>
</defs>
</svg>
