<svg width="230" height="176" viewBox="0 0 230 176" fill="none" xmlns="http://www.w3.org/2000/svg">
<rect x="2" y="2" width="226" height="172" rx="14" stroke="#FFA518" stroke-width="4"/>
<path d="M113 80C109.1 80 105.792 78.642 103.076 75.926C100.36 73.21 99.0013 69.9013 99 66V54C99 52.9 99.392 51.9587 100.176 51.176C100.96 50.3933 101.901 50.0013 103 50H128C129.933 50 131.583 50.6833 132.95 52.05C134.317 53.4167 135 55.0667 135 57C135 58.9333 134.317 60.5833 132.95 61.95C131.583 63.3167 129.933 64 128 64H127V66C127 69.9 125.642 73.2087 122.926 75.926C120.21 78.6433 116.901 80.0013 113 80ZM103 60H123V54H103V60ZM127 60H128C128.833 60 129.542 59.7087 130.126 59.126C130.71 58.5433 131.001 57.8347 131 57C130.999 56.1653 130.707 55.4573 130.126 54.876C129.545 54.2947 128.836 54.0027 128 54H127V60ZM99 86V82H131V86H99Z" fill="#FFA518"/>
<path d="M95.793 122.445H98.7227C98.6289 123.562 98.3164 124.559 97.7852 125.434C97.2539 126.301 96.5078 126.984 95.5469 127.484C94.5859 127.984 93.418 128.234 92.043 128.234C90.9883 128.234 90.0391 128.047 89.1953 127.672C88.3516 127.289 87.6289 126.75 87.0273 126.055C86.4258 125.352 85.9648 124.504 85.6445 123.512C85.332 122.52 85.1758 121.41 85.1758 120.184V118.766C85.1758 117.539 85.3359 116.43 85.6562 115.438C85.9844 114.445 86.4531 113.598 87.0625 112.895C87.6719 112.184 88.4023 111.641 89.2539 111.266C90.1133 110.891 91.0781 110.703 92.1484 110.703C93.5078 110.703 94.6562 110.953 95.5938 111.453C96.5312 111.953 97.2578 112.645 97.7734 113.527C98.2969 114.41 98.6172 115.422 98.7344 116.562H95.8047C95.7266 115.828 95.5547 115.199 95.2891 114.676C95.0312 114.152 94.6484 113.754 94.1406 113.48C93.6328 113.199 92.9688 113.059 92.1484 113.059C91.4766 113.059 90.8906 113.184 90.3906 113.434C89.8906 113.684 89.4727 114.051 89.1367 114.535C88.8008 115.02 88.5469 115.617 88.375 116.328C88.2109 117.031 88.1289 117.836 88.1289 118.742V120.184C88.1289 121.043 88.2031 121.824 88.3516 122.527C88.5078 123.223 88.7422 123.82 89.0547 124.32C89.375 124.82 89.7812 125.207 90.2734 125.48C90.7656 125.754 91.3555 125.891 92.043 125.891C92.8789 125.891 93.5547 125.758 94.0703 125.492C94.5938 125.227 94.9883 124.84 95.2539 124.332C95.5273 123.816 95.707 123.188 95.793 122.445ZM108.262 125.457V119.41C108.262 118.957 108.18 118.566 108.016 118.238C107.852 117.91 107.602 117.656 107.266 117.477C106.938 117.297 106.523 117.207 106.023 117.207C105.562 117.207 105.164 117.285 104.828 117.441C104.492 117.598 104.23 117.809 104.043 118.074C103.855 118.34 103.762 118.641 103.762 118.977H100.949C100.949 118.477 101.07 117.992 101.312 117.523C101.555 117.055 101.906 116.637 102.367 116.27C102.828 115.902 103.379 115.613 104.02 115.402C104.66 115.191 105.379 115.086 106.176 115.086C107.129 115.086 107.973 115.246 108.707 115.566C109.449 115.887 110.031 116.371 110.453 117.02C110.883 117.66 111.098 118.465 111.098 119.434V125.07C111.098 125.648 111.137 126.168 111.215 126.629C111.301 127.082 111.422 127.477 111.578 127.812V128H108.684C108.551 127.695 108.445 127.309 108.367 126.84C108.297 126.363 108.262 125.902 108.262 125.457ZM108.672 120.289L108.695 122.035H106.668C106.145 122.035 105.684 122.086 105.285 122.188C104.887 122.281 104.555 122.422 104.289 122.609C104.023 122.797 103.824 123.023 103.691 123.289C103.559 123.555 103.492 123.855 103.492 124.191C103.492 124.527 103.57 124.836 103.727 125.117C103.883 125.391 104.109 125.605 104.406 125.762C104.711 125.918 105.078 125.996 105.508 125.996C106.086 125.996 106.59 125.879 107.02 125.645C107.457 125.402 107.801 125.109 108.051 124.766C108.301 124.414 108.434 124.082 108.449 123.77L109.363 125.023C109.27 125.344 109.109 125.688 108.883 126.055C108.656 126.422 108.359 126.773 107.992 127.109C107.633 127.438 107.199 127.707 106.691 127.918C106.191 128.129 105.613 128.234 104.957 128.234C104.129 128.234 103.391 128.07 102.742 127.742C102.094 127.406 101.586 126.957 101.219 126.395C100.852 125.824 100.668 125.18 100.668 124.461C100.668 123.789 100.793 123.195 101.043 122.68C101.301 122.156 101.676 121.719 102.168 121.367C102.668 121.016 103.277 120.75 103.996 120.57C104.715 120.383 105.535 120.289 106.457 120.289H108.672ZM117.871 128H115.047V114.102C115.047 113.156 115.223 112.363 115.574 111.723C115.934 111.074 116.445 110.586 117.109 110.258C117.773 109.922 118.559 109.754 119.465 109.754C119.746 109.754 120.023 109.773 120.297 109.812C120.57 109.844 120.836 109.895 121.094 109.965L121.023 112.145C120.867 112.105 120.695 112.078 120.508 112.062C120.328 112.047 120.133 112.039 119.922 112.039C119.492 112.039 119.121 112.121 118.809 112.285C118.504 112.441 118.27 112.672 118.105 112.977C117.949 113.281 117.871 113.656 117.871 114.102V128ZM120.484 115.32V117.383H113.102V115.32H120.484ZM127.844 128.234C126.906 128.234 126.059 128.082 125.301 127.777C124.551 127.465 123.91 127.031 123.379 126.477C122.855 125.922 122.453 125.27 122.172 124.52C121.891 123.77 121.75 122.961 121.75 122.094V121.625C121.75 120.633 121.895 119.734 122.184 118.93C122.473 118.125 122.875 117.438 123.391 116.867C123.906 116.289 124.516 115.848 125.219 115.543C125.922 115.238 126.684 115.086 127.504 115.086C128.41 115.086 129.203 115.238 129.883 115.543C130.562 115.848 131.125 116.277 131.57 116.832C132.023 117.379 132.359 118.031 132.578 118.789C132.805 119.547 132.918 120.383 132.918 121.297V122.504H123.121V120.477H130.129V120.254C130.113 119.746 130.012 119.27 129.824 118.824C129.645 118.379 129.367 118.02 128.992 117.746C128.617 117.473 128.117 117.336 127.492 117.336C127.023 117.336 126.605 117.438 126.238 117.641C125.879 117.836 125.578 118.121 125.336 118.496C125.094 118.871 124.906 119.324 124.773 119.855C124.648 120.379 124.586 120.969 124.586 121.625V122.094C124.586 122.648 124.66 123.164 124.809 123.641C124.965 124.109 125.191 124.52 125.488 124.871C125.785 125.223 126.145 125.5 126.566 125.703C126.988 125.898 127.469 125.996 128.008 125.996C128.688 125.996 129.293 125.859 129.824 125.586C130.355 125.312 130.816 124.926 131.207 124.426L132.695 125.867C132.422 126.266 132.066 126.648 131.629 127.016C131.191 127.375 130.656 127.668 130.023 127.895C129.398 128.121 128.672 128.234 127.844 128.234ZM142.234 124.566C142.234 124.285 142.164 124.031 142.023 123.805C141.883 123.57 141.613 123.359 141.215 123.172C140.824 122.984 140.246 122.812 139.48 122.656C138.809 122.508 138.191 122.332 137.629 122.129C137.074 121.918 136.598 121.664 136.199 121.367C135.801 121.07 135.492 120.719 135.273 120.312C135.055 119.906 134.945 119.438 134.945 118.906C134.945 118.391 135.059 117.902 135.285 117.441C135.512 116.98 135.836 116.574 136.258 116.223C136.68 115.871 137.191 115.594 137.793 115.391C138.402 115.188 139.082 115.086 139.832 115.086C140.895 115.086 141.805 115.266 142.562 115.625C143.328 115.977 143.914 116.457 144.32 117.066C144.727 117.668 144.93 118.348 144.93 119.105H142.105C142.105 118.77 142.02 118.457 141.848 118.168C141.684 117.871 141.434 117.633 141.098 117.453C140.762 117.266 140.34 117.172 139.832 117.172C139.348 117.172 138.945 117.25 138.625 117.406C138.312 117.555 138.078 117.75 137.922 117.992C137.773 118.234 137.699 118.5 137.699 118.789C137.699 119 137.738 119.191 137.816 119.363C137.902 119.527 138.043 119.68 138.238 119.82C138.434 119.953 138.699 120.078 139.035 120.195C139.379 120.312 139.809 120.426 140.324 120.535C141.293 120.738 142.125 121 142.82 121.32C143.523 121.633 144.062 122.039 144.438 122.539C144.812 123.031 145 123.656 145 124.414C145 124.977 144.879 125.492 144.637 125.961C144.402 126.422 144.059 126.824 143.605 127.168C143.152 127.504 142.609 127.766 141.977 127.953C141.352 128.141 140.648 128.234 139.867 128.234C138.719 128.234 137.746 128.031 136.949 127.625C136.152 127.211 135.547 126.684 135.133 126.043C134.727 125.395 134.523 124.723 134.523 124.027H137.254C137.285 124.551 137.43 124.969 137.688 125.281C137.953 125.586 138.281 125.809 138.672 125.949C139.07 126.082 139.48 126.148 139.902 126.148C140.41 126.148 140.836 126.082 141.18 125.949C141.523 125.809 141.785 125.621 141.965 125.387C142.145 125.145 142.234 124.871 142.234 124.566Z" fill="#FFA518"/>
</svg>
