<svg width="230" height="178" viewBox="0 0 230 178" fill="none" xmlns="http://www.w3.org/2000/svg">
<rect x="2" y="2" width="226" height="174" rx="14" stroke="#FFA518" stroke-width="4"/>
<path d="M107.708 54.4166L105.625 49.2083C103.368 50.076 98.5416 55.2499 99.3749 62.7499M122.292 54.4166L124.375 49.2083C126.632 50.076 131.458 55.2499 130.625 62.7499" stroke="#FFA518" stroke-width="3.0303" stroke-linecap="round" stroke-linejoin="round"/>
<path d="M133.75 73.6875C133.75 83.7552 125.355 88.7917 115 88.7917C104.645 88.7917 96.25 83.7552 96.25 73.6875C96.25 63.6198 104.645 53.375 115 53.375C125.355 53.375 133.75 63.6198 133.75 73.6875Z" stroke="#FFA518" stroke-width="3.0303"/>
<path d="M110.833 63.7917C111.984 63.7917 112.917 62.8589 112.917 61.7083C112.917 60.5577 111.984 59.625 110.833 59.625C109.683 59.625 108.75 60.5577 108.75 61.7083C108.75 62.8589 109.683 63.7917 110.833 63.7917Z" fill="#FFA518"/>
<path d="M119.166 63.7917C120.317 63.7917 121.25 62.8589 121.25 61.7083C121.25 60.5577 120.317 59.625 119.166 59.625C118.016 59.625 117.083 60.5577 117.083 61.7083C117.083 62.8589 118.016 63.7917 119.166 63.7917Z" fill="#FFA518"/>
<path d="M115 71.0833C115 72.8093 115.521 76.8124 111.875 76.8124C111.046 76.8124 110.251 76.4832 109.665 75.8971C109.079 75.3111 108.75 74.5162 108.75 73.6874" stroke="#FFA518" stroke-width="3.0303" stroke-linecap="round" stroke-linejoin="round"/>
<path d="M115.026 71.0833C115.026 72.8093 114.505 76.8124 118.151 76.8124C118.98 76.8124 119.774 76.4832 120.36 75.8971C120.946 75.3111 121.276 74.5162 121.276 73.6874" stroke="#FFA518" stroke-width="3.0303" stroke-linecap="round" stroke-linejoin="round"/>
<path d="M117.084 70.8228C117.084 71.5416 115 72.6458 115 72.6458C115 72.6458 112.917 71.5416 112.917 70.8228C112.917 70.1041 113.438 69.5208 115 69.5208C116.563 69.5208 117.084 70.1041 117.084 70.8228Z" stroke="#FFA518" stroke-width="3.0303" stroke-linejoin="round"/>
<path d="M47.4121 113.32C49.1881 113.32 50.7401 113.664 52.0681 114.352C53.4121 115.024 54.4441 116 55.1641 117.28C55.9001 118.544 56.2681 120.024 56.2681 121.72C56.2681 123.416 55.9001 124.888 55.1641 126.136C54.4441 127.384 53.4121 128.344 52.0681 129.016C50.7401 129.672 49.1881 130 47.4121 130H41.9641V113.32H47.4121ZM47.4121 127.768C49.3641 127.768 50.8601 127.24 51.9001 126.184C52.9401 125.128 53.4601 123.64 53.4601 121.72C53.4601 119.784 52.9401 118.272 51.9001 117.184C50.8601 116.096 49.3641 115.552 47.4121 115.552H44.7001V127.768H47.4121ZM64.7157 130.216C63.4677 130.216 62.3397 129.936 61.3317 129.376C60.3237 128.8 59.5317 128 58.9557 126.976C58.3797 125.936 58.0917 124.736 58.0917 123.376C58.0917 122.032 58.3877 120.84 58.9797 119.8C59.5717 118.76 60.3797 117.96 61.4037 117.4C62.4277 116.84 63.5717 116.56 64.8357 116.56C66.0997 116.56 67.2437 116.84 68.2677 117.4C69.2917 117.96 70.0997 118.76 70.6917 119.8C71.2837 120.84 71.5797 122.032 71.5797 123.376C71.5797 124.72 71.2757 125.912 70.6677 126.952C70.0597 127.992 69.2277 128.8 68.1717 129.376C67.1317 129.936 65.9797 130.216 64.7157 130.216ZM64.7157 127.84C65.4197 127.84 66.0757 127.672 66.6837 127.336C67.3077 127 67.8117 126.496 68.1957 125.824C68.5797 125.152 68.7717 124.336 68.7717 123.376C68.7717 122.416 68.5877 121.608 68.2197 120.952C67.8517 120.28 67.3637 119.776 66.7557 119.44C66.1477 119.104 65.4917 118.936 64.7877 118.936C64.0837 118.936 63.4277 119.104 62.8197 119.44C62.2277 119.776 61.7557 120.28 61.4037 120.952C61.0517 121.608 60.8757 122.416 60.8757 123.376C60.8757 124.8 61.2357 125.904 61.9557 126.688C62.6917 127.456 63.6117 127.84 64.7157 127.84ZM79.6124 116.56C80.6364 116.56 81.5404 116.768 82.3244 117.184C83.1244 117.584 83.7484 118.088 84.1964 118.696V116.776H86.9564V130.216C86.9564 131.432 86.7004 132.512 86.1884 133.456C85.6764 134.416 84.9324 135.168 83.9564 135.712C82.9964 136.256 81.8444 136.528 80.5004 136.528C78.7084 136.528 77.2204 136.104 76.0364 135.256C74.8524 134.424 74.1804 133.288 74.0204 131.848H76.7324C76.9404 132.536 77.3804 133.088 78.0524 133.504C78.7404 133.936 79.5564 134.152 80.5004 134.152C81.6044 134.152 82.4924 133.816 83.1644 133.144C83.8524 132.472 84.1964 131.496 84.1964 130.216V128.008C83.7324 128.632 83.1004 129.16 82.3004 129.592C81.5164 130.008 80.6204 130.216 79.6124 130.216C78.4604 130.216 77.4044 129.928 76.4444 129.352C75.5004 128.76 74.7484 127.944 74.1884 126.904C73.6444 125.848 73.3724 124.656 73.3724 123.328C73.3724 122 73.6444 120.824 74.1884 119.8C74.7484 118.776 75.5004 117.984 76.4444 117.424C77.4044 116.848 78.4604 116.56 79.6124 116.56ZM84.1964 123.376C84.1964 122.464 84.0044 121.672 83.6204 121C83.2524 120.328 82.7644 119.816 82.1564 119.464C81.5484 119.112 80.8924 118.936 80.1884 118.936C79.4844 118.936 78.8284 119.112 78.2204 119.464C77.6124 119.8 77.1164 120.304 76.7324 120.976C76.3644 121.632 76.1804 122.416 76.1804 123.328C76.1804 124.24 76.3644 125.04 76.7324 125.728C77.1164 126.416 77.6124 126.944 78.2204 127.312C78.8444 127.664 79.5004 127.84 80.1884 127.84C80.8924 127.84 81.5484 127.664 82.1564 127.312C82.7644 126.96 83.2524 126.448 83.6204 125.776C84.0044 125.088 84.1964 124.288 84.1964 123.376ZM106.6 113.32V115.552H99.5204V120.472H105.04V122.704H99.5204V130H96.7844V113.32H106.6ZM111.872 118.696C112.272 118.024 112.8 117.504 113.456 117.136C114.128 116.752 114.92 116.56 115.832 116.56V119.392H115.136C114.064 119.392 113.248 119.664 112.688 120.208C112.144 120.752 111.872 121.696 111.872 123.04V130H109.136V116.776H111.872V118.696ZM119.739 115.024C119.243 115.024 118.827 114.856 118.491 114.52C118.155 114.184 117.987 113.768 117.987 113.272C117.987 112.776 118.155 112.36 118.491 112.024C118.827 111.688 119.243 111.52 119.739 111.52C120.219 111.52 120.627 111.688 120.963 112.024C121.299 112.36 121.467 112.776 121.467 113.272C121.467 113.768 121.299 114.184 120.963 114.52C120.627 114.856 120.219 115.024 119.739 115.024ZM121.083 116.776V130H118.347V116.776H121.083ZM136.795 123.064C136.795 123.56 136.763 124.008 136.699 124.408H126.595C126.675 125.464 127.067 126.312 127.771 126.952C128.475 127.592 129.339 127.912 130.363 127.912C131.835 127.912 132.875 127.296 133.483 126.064H136.435C136.035 127.28 135.307 128.28 134.251 129.064C133.211 129.832 131.915 130.216 130.363 130.216C129.099 130.216 127.963 129.936 126.955 129.376C125.963 128.8 125.179 128 124.603 126.976C124.043 125.936 123.763 124.736 123.763 123.376C123.763 122.016 124.035 120.824 124.579 119.8C125.139 118.76 125.915 117.96 126.907 117.4C127.915 116.84 129.067 116.56 130.363 116.56C131.611 116.56 132.723 116.832 133.699 117.376C134.675 117.92 135.435 118.688 135.979 119.68C136.523 120.656 136.795 121.784 136.795 123.064ZM133.939 122.2C133.923 121.192 133.563 120.384 132.859 119.776C132.155 119.168 131.283 118.864 130.243 118.864C129.299 118.864 128.491 119.168 127.819 119.776C127.147 120.368 126.747 121.176 126.619 122.2H133.939ZM146.16 116.56C147.2 116.56 148.128 116.776 148.944 117.208C149.776 117.64 150.424 118.28 150.888 119.128C151.352 119.976 151.584 121 151.584 122.2V130H148.872V122.608C148.872 121.424 148.576 120.52 147.984 119.896C147.392 119.256 146.584 118.936 145.56 118.936C144.536 118.936 143.72 119.256 143.112 119.896C142.52 120.52 142.224 121.424 142.224 122.608V130H139.488V116.776H142.224V118.288C142.672 117.744 143.24 117.32 143.928 117.016C144.632 116.712 145.376 116.56 146.16 116.56ZM154.161 123.328C154.161 122 154.433 120.824 154.977 119.8C155.537 118.776 156.289 117.984 157.233 117.424C158.193 116.848 159.257 116.56 160.425 116.56C161.289 116.56 162.137 116.752 162.969 117.136C163.817 117.504 164.489 118 164.985 118.624V112.24H167.745V130H164.985V128.008C164.537 128.648 163.913 129.176 163.113 129.592C162.329 130.008 161.425 130.216 160.401 130.216C159.249 130.216 158.193 129.928 157.233 129.352C156.289 128.76 155.537 127.944 154.977 126.904C154.433 125.848 154.161 124.656 154.161 123.328ZM164.985 123.376C164.985 122.464 164.793 121.672 164.409 121C164.041 120.328 163.553 119.816 162.945 119.464C162.337 119.112 161.681 118.936 160.977 118.936C160.273 118.936 159.617 119.112 159.009 119.464C158.401 119.8 157.905 120.304 157.521 120.976C157.153 121.632 156.969 122.416 156.969 123.328C156.969 124.24 157.153 125.04 157.521 125.728C157.905 126.416 158.401 126.944 159.009 127.312C159.633 127.664 160.289 127.84 160.977 127.84C161.681 127.84 162.337 127.664 162.945 127.312C163.553 126.96 164.041 126.448 164.409 125.776C164.793 125.088 164.985 124.288 164.985 123.376ZM174.075 112.24V130H171.339V112.24H174.075ZM189.571 116.776L181.459 136.216H178.627L181.315 129.784L176.107 116.776H179.155L182.875 126.856L186.739 116.776H189.571Z" fill="#FFA518"/>
</svg>
