<svg width="230" height="176" viewBox="0 0 230 176" fill="none" xmlns="http://www.w3.org/2000/svg">
<rect x="2" y="2" width="226" height="172" rx="14" stroke="#FFA518" stroke-width="4"/>
<path d="M103.83 75.2514L100.148 88.1634M95.0596 86.7097L105.232 89.6102M98.471 64.6091L105.105 47.0205L117.63 50.5862L113.989 69.0319C113.776 70.1341 113.336 71.18 112.697 72.1032C112.058 73.0263 111.234 73.8065 110.278 74.3944C109.322 74.9822 108.253 75.3647 107.141 75.5178C106.029 75.6708 104.897 75.5909 103.818 75.2832C102.738 74.9755 101.734 74.4466 100.87 73.7303C100.006 73.014 99.2997 72.1257 98.7969 71.122C98.2942 70.1183 98.0055 69.021 97.9494 67.8998C97.8933 66.7786 98.0709 65.658 98.471 64.6091Z" stroke="#FFA518" stroke-width="1.5" stroke-linecap="round" stroke-linejoin="round"/>
<path d="M101.793 55.7871L115.802 59.8157" stroke="#FFA518" stroke-width="1.5"/>
<path d="M120.372 74.7302C121.829 75.4492 123.469 75.7131 125.078 75.4877C126.688 75.2623 128.192 74.5581 129.395 73.4665C130.599 72.3748 131.447 70.9464 131.828 69.3668C132.209 67.7871 132.106 66.1294 131.532 64.6091L124.891 47.0205L122.916 47.5794M126.17 75.2514L129.852 88.1634M134.94 86.7097L124.767 89.6102M128.206 55.8285L122.484 57.4742" stroke="#FFA518" stroke-width="1.5" stroke-linecap="round" stroke-linejoin="round"/>
<path d="M39.7305 113.211L34.6328 128H31.5508L37.9727 110.938H39.9414L39.7305 113.211ZM43.9961 128L38.8867 113.211L38.6641 110.938H40.6445L47.0898 128H43.9961ZM43.75 121.672V124.004H34.4688V121.672H43.75ZM51.7422 110V128H48.9062V110H51.7422ZM60.0156 125.984C60.4766 125.984 60.8906 125.895 61.2578 125.715C61.6328 125.527 61.9336 125.27 62.1602 124.941C62.3945 124.613 62.5234 124.234 62.5469 123.805H65.207C65.1914 124.625 64.9492 125.371 64.4805 126.043C64.0117 126.715 63.3906 127.25 62.6172 127.648C61.8438 128.039 60.9883 128.234 60.0508 128.234C59.082 128.234 58.2383 128.07 57.5195 127.742C56.8008 127.406 56.2031 126.945 55.7266 126.359C55.25 125.773 54.8906 125.098 54.6484 124.332C54.4141 123.566 54.2969 122.746 54.2969 121.871V121.461C54.2969 120.586 54.4141 119.766 54.6484 119C54.8906 118.227 55.25 117.547 55.7266 116.961C56.2031 116.375 56.8008 115.918 57.5195 115.59C58.2383 115.254 59.0781 115.086 60.0391 115.086C61.0547 115.086 61.9453 115.289 62.7109 115.695C63.4766 116.094 64.0781 116.652 64.5156 117.371C64.9609 118.082 65.1914 118.91 65.207 119.855H62.5469C62.5234 119.387 62.4062 118.965 62.1953 118.59C61.9922 118.207 61.7031 117.902 61.3281 117.676C60.9609 117.449 60.5195 117.336 60.0039 117.336C59.4336 117.336 58.9609 117.453 58.5859 117.688C58.2109 117.914 57.918 118.227 57.707 118.625C57.4961 119.016 57.3438 119.457 57.25 119.949C57.1641 120.434 57.1211 120.938 57.1211 121.461V121.871C57.1211 122.395 57.1641 122.902 57.25 123.395C57.3359 123.887 57.4844 124.328 57.6953 124.719C57.9141 125.102 58.2109 125.41 58.5859 125.645C58.9609 125.871 59.4375 125.984 60.0156 125.984ZM66.8359 121.801V121.531C66.8359 120.617 66.9688 119.77 67.2344 118.988C67.5 118.199 67.8828 117.516 68.3828 116.938C68.8906 116.352 69.5078 115.898 70.2344 115.578C70.9688 115.25 71.7969 115.086 72.7188 115.086C73.6484 115.086 74.4766 115.25 75.2031 115.578C75.9375 115.898 76.5586 116.352 77.0664 116.938C77.5742 117.516 77.9609 118.199 78.2266 118.988C78.4922 119.77 78.625 120.617 78.625 121.531V121.801C78.625 122.715 78.4922 123.562 78.2266 124.344C77.9609 125.125 77.5742 125.809 77.0664 126.395C76.5586 126.973 75.9414 127.426 75.2148 127.754C74.4883 128.074 73.6641 128.234 72.7422 128.234C71.8125 128.234 70.9805 128.074 70.2461 127.754C69.5195 127.426 68.9023 126.973 68.3945 126.395C67.8867 125.809 67.5 125.125 67.2344 124.344C66.9688 123.562 66.8359 122.715 66.8359 121.801ZM69.6602 121.531V121.801C69.6602 122.371 69.7188 122.91 69.8359 123.418C69.9531 123.926 70.1367 124.371 70.3867 124.754C70.6367 125.137 70.957 125.438 71.3477 125.656C71.7383 125.875 72.2031 125.984 72.7422 125.984C73.2656 125.984 73.7188 125.875 74.1016 125.656C74.4922 125.438 74.8125 125.137 75.0625 124.754C75.3125 124.371 75.4961 123.926 75.6133 123.418C75.7383 122.91 75.8008 122.371 75.8008 121.801V121.531C75.8008 120.969 75.7383 120.438 75.6133 119.938C75.4961 119.43 75.3086 118.98 75.0508 118.59C74.8008 118.199 74.4805 117.895 74.0898 117.676C73.707 117.449 73.25 117.336 72.7188 117.336C72.1875 117.336 71.7266 117.449 71.3359 117.676C70.9531 117.895 70.6367 118.199 70.3867 118.59C70.1367 118.98 69.9531 119.43 69.8359 119.938C69.7188 120.438 69.6602 120.969 69.6602 121.531ZM83.7812 110V128H80.9688V110H83.7812ZM83.2891 121.191L82.375 121.18C82.3828 120.305 82.5039 119.496 82.7383 118.754C82.9805 118.012 83.3164 117.367 83.7461 116.82C84.1836 116.266 84.707 115.84 85.3164 115.543C85.9258 115.238 86.6016 115.086 87.3438 115.086C87.9688 115.086 88.5312 115.172 89.0312 115.344C89.5391 115.516 89.9766 115.793 90.3438 116.176C90.7109 116.551 90.9883 117.043 91.1758 117.652C91.3711 118.254 91.4688 118.988 91.4688 119.855V128H88.6328V119.832C88.6328 119.223 88.543 118.738 88.3633 118.379C88.1914 118.02 87.9375 117.762 87.6016 117.605C87.2656 117.441 86.8555 117.359 86.3711 117.359C85.8633 117.359 85.4141 117.461 85.0234 117.664C84.6406 117.867 84.3203 118.145 84.0625 118.496C83.8047 118.848 83.6094 119.254 83.4766 119.715C83.3516 120.176 83.2891 120.668 83.2891 121.191ZM93.7891 121.801V121.531C93.7891 120.617 93.9219 119.77 94.1875 118.988C94.4531 118.199 94.8359 117.516 95.3359 116.938C95.8438 116.352 96.4609 115.898 97.1875 115.578C97.9219 115.25 98.75 115.086 99.6719 115.086C100.602 115.086 101.43 115.25 102.156 115.578C102.891 115.898 103.512 116.352 104.02 116.938C104.527 117.516 104.914 118.199 105.18 118.988C105.445 119.77 105.578 120.617 105.578 121.531V121.801C105.578 122.715 105.445 123.562 105.18 124.344C104.914 125.125 104.527 125.809 104.02 126.395C103.512 126.973 102.895 127.426 102.168 127.754C101.441 128.074 100.617 128.234 99.6953 128.234C98.7656 128.234 97.9336 128.074 97.1992 127.754C96.4727 127.426 95.8555 126.973 95.3477 126.395C94.8398 125.809 94.4531 125.125 94.1875 124.344C93.9219 123.562 93.7891 122.715 93.7891 121.801ZM96.6133 121.531V121.801C96.6133 122.371 96.6719 122.91 96.7891 123.418C96.9062 123.926 97.0898 124.371 97.3398 124.754C97.5898 125.137 97.9102 125.438 98.3008 125.656C98.6914 125.875 99.1562 125.984 99.6953 125.984C100.219 125.984 100.672 125.875 101.055 125.656C101.445 125.438 101.766 125.137 102.016 124.754C102.266 124.371 102.449 123.926 102.566 123.418C102.691 122.91 102.754 122.371 102.754 121.801V121.531C102.754 120.969 102.691 120.438 102.566 119.938C102.449 119.43 102.262 118.98 102.004 118.59C101.754 118.199 101.434 117.895 101.043 117.676C100.66 117.449 100.203 117.336 99.6719 117.336C99.1406 117.336 98.6797 117.449 98.2891 117.676C97.9062 117.895 97.5898 118.199 97.3398 118.59C97.0898 118.98 96.9062 119.43 96.7891 119.938C96.6719 120.438 96.6133 120.969 96.6133 121.531ZM110.969 110V128H108.133V110H110.969ZM123.062 115.32V128H120.227V115.32H123.062ZM120.039 111.992C120.039 111.562 120.18 111.207 120.461 110.926C120.75 110.637 121.148 110.492 121.656 110.492C122.156 110.492 122.551 110.637 122.84 110.926C123.129 111.207 123.273 111.562 123.273 111.992C123.273 112.414 123.129 112.766 122.84 113.047C122.551 113.328 122.156 113.469 121.656 113.469C121.148 113.469 120.75 113.328 120.461 113.047C120.18 112.766 120.039 112.414 120.039 111.992ZM128.957 118.027V128H126.133V115.32H128.793L128.957 118.027ZM128.453 121.191L127.539 121.18C127.547 120.281 127.672 119.457 127.914 118.707C128.164 117.957 128.508 117.312 128.945 116.773C129.391 116.234 129.922 115.82 130.539 115.531C131.156 115.234 131.844 115.086 132.602 115.086C133.211 115.086 133.762 115.172 134.254 115.344C134.754 115.508 135.18 115.777 135.531 116.152C135.891 116.527 136.164 117.016 136.352 117.617C136.539 118.211 136.633 118.941 136.633 119.809V128H133.797V119.797C133.797 119.188 133.707 118.707 133.527 118.355C133.355 117.996 133.102 117.742 132.766 117.594C132.438 117.438 132.027 117.359 131.535 117.359C131.051 117.359 130.617 117.461 130.234 117.664C129.852 117.867 129.527 118.145 129.262 118.496C129.004 118.848 128.805 119.254 128.664 119.715C128.523 120.176 128.453 120.668 128.453 121.191ZM143.336 128H140.512V114.102C140.512 113.156 140.688 112.363 141.039 111.723C141.398 111.074 141.91 110.586 142.574 110.258C143.238 109.922 144.023 109.754 144.93 109.754C145.211 109.754 145.488 109.773 145.762 109.812C146.035 109.844 146.301 109.895 146.559 109.965L146.488 112.145C146.332 112.105 146.16 112.078 145.973 112.062C145.793 112.047 145.598 112.039 145.387 112.039C144.957 112.039 144.586 112.121 144.273 112.285C143.969 112.441 143.734 112.672 143.57 112.977C143.414 113.281 143.336 113.656 143.336 114.102V128ZM145.949 115.32V117.383H138.566V115.32H145.949ZM155.629 125.012V115.32H158.465V128H155.793L155.629 125.012ZM156.027 122.375L156.977 122.352C156.977 123.203 156.883 123.988 156.695 124.707C156.508 125.418 156.219 126.039 155.828 126.57C155.438 127.094 154.938 127.504 154.328 127.801C153.719 128.09 152.988 128.234 152.137 128.234C151.52 128.234 150.953 128.145 150.438 127.965C149.922 127.785 149.477 127.508 149.102 127.133C148.734 126.758 148.449 126.27 148.246 125.668C148.043 125.066 147.941 124.348 147.941 123.512V115.32H150.766V123.535C150.766 123.996 150.82 124.383 150.93 124.695C151.039 125 151.188 125.246 151.375 125.434C151.562 125.621 151.781 125.754 152.031 125.832C152.281 125.91 152.547 125.949 152.828 125.949C153.633 125.949 154.266 125.793 154.727 125.48C155.195 125.16 155.527 124.73 155.723 124.191C155.926 123.652 156.027 123.047 156.027 122.375ZM168.473 124.566C168.473 124.285 168.402 124.031 168.262 123.805C168.121 123.57 167.852 123.359 167.453 123.172C167.062 122.984 166.484 122.812 165.719 122.656C165.047 122.508 164.43 122.332 163.867 122.129C163.312 121.918 162.836 121.664 162.438 121.367C162.039 121.07 161.73 120.719 161.512 120.312C161.293 119.906 161.184 119.438 161.184 118.906C161.184 118.391 161.297 117.902 161.523 117.441C161.75 116.98 162.074 116.574 162.496 116.223C162.918 115.871 163.43 115.594 164.031 115.391C164.641 115.188 165.32 115.086 166.07 115.086C167.133 115.086 168.043 115.266 168.801 115.625C169.566 115.977 170.152 116.457 170.559 117.066C170.965 117.668 171.168 118.348 171.168 119.105H168.344C168.344 118.77 168.258 118.457 168.086 118.168C167.922 117.871 167.672 117.633 167.336 117.453C167 117.266 166.578 117.172 166.07 117.172C165.586 117.172 165.184 117.25 164.863 117.406C164.551 117.555 164.316 117.75 164.16 117.992C164.012 118.234 163.938 118.5 163.938 118.789C163.938 119 163.977 119.191 164.055 119.363C164.141 119.527 164.281 119.68 164.477 119.82C164.672 119.953 164.938 120.078 165.273 120.195C165.617 120.312 166.047 120.426 166.562 120.535C167.531 120.738 168.363 121 169.059 121.32C169.762 121.633 170.301 122.039 170.676 122.539C171.051 123.031 171.238 123.656 171.238 124.414C171.238 124.977 171.117 125.492 170.875 125.961C170.641 126.422 170.297 126.824 169.844 127.168C169.391 127.504 168.848 127.766 168.215 127.953C167.59 128.141 166.887 128.234 166.105 128.234C164.957 128.234 163.984 128.031 163.188 127.625C162.391 127.211 161.785 126.684 161.371 126.043C160.965 125.395 160.762 124.723 160.762 124.027H163.492C163.523 124.551 163.668 124.969 163.926 125.281C164.191 125.586 164.52 125.809 164.91 125.949C165.309 126.082 165.719 126.148 166.141 126.148C166.648 126.148 167.074 126.082 167.418 125.949C167.762 125.809 168.023 125.621 168.203 125.387C168.383 125.145 168.473 124.871 168.473 124.566ZM179.301 128.234C178.363 128.234 177.516 128.082 176.758 127.777C176.008 127.465 175.367 127.031 174.836 126.477C174.312 125.922 173.91 125.27 173.629 124.52C173.348 123.77 173.207 122.961 173.207 122.094V121.625C173.207 120.633 173.352 119.734 173.641 118.93C173.93 118.125 174.332 117.438 174.848 116.867C175.363 116.289 175.973 115.848 176.676 115.543C177.379 115.238 178.141 115.086 178.961 115.086C179.867 115.086 180.66 115.238 181.34 115.543C182.02 115.848 182.582 116.277 183.027 116.832C183.48 117.379 183.816 118.031 184.035 118.789C184.262 119.547 184.375 120.383 184.375 121.297V122.504H174.578V120.477H181.586V120.254C181.57 119.746 181.469 119.27 181.281 118.824C181.102 118.379 180.824 118.02 180.449 117.746C180.074 117.473 179.574 117.336 178.949 117.336C178.48 117.336 178.062 117.438 177.695 117.641C177.336 117.836 177.035 118.121 176.793 118.496C176.551 118.871 176.363 119.324 176.23 119.855C176.105 120.379 176.043 120.969 176.043 121.625V122.094C176.043 122.648 176.117 123.164 176.266 123.641C176.422 124.109 176.648 124.52 176.945 124.871C177.242 125.223 177.602 125.5 178.023 125.703C178.445 125.898 178.926 125.996 179.465 125.996C180.145 125.996 180.75 125.859 181.281 125.586C181.812 125.312 182.273 124.926 182.664 124.426L184.152 125.867C183.879 126.266 183.523 126.648 183.086 127.016C182.648 127.375 182.113 127.668 181.48 127.895C180.855 128.121 180.129 128.234 179.301 128.234ZM194.312 125.375V110H197.148V128H194.582L194.312 125.375ZM186.062 121.801V121.555C186.062 120.594 186.176 119.719 186.402 118.93C186.629 118.133 186.957 117.449 187.387 116.879C187.816 116.301 188.34 115.859 188.957 115.555C189.574 115.242 190.27 115.086 191.043 115.086C191.809 115.086 192.48 115.234 193.059 115.531C193.637 115.828 194.129 116.254 194.535 116.809C194.941 117.355 195.266 118.012 195.508 118.777C195.75 119.535 195.922 120.379 196.023 121.309V122.094C195.922 123 195.75 123.828 195.508 124.578C195.266 125.328 194.941 125.977 194.535 126.523C194.129 127.07 193.633 127.492 193.047 127.789C192.469 128.086 191.793 128.234 191.02 128.234C190.254 128.234 189.562 128.074 188.945 127.754C188.336 127.434 187.816 126.984 187.387 126.406C186.957 125.828 186.629 125.148 186.402 124.367C186.176 123.578 186.062 122.723 186.062 121.801ZM188.887 121.555V121.801C188.887 122.379 188.938 122.918 189.039 123.418C189.148 123.918 189.316 124.359 189.543 124.742C189.77 125.117 190.062 125.414 190.422 125.633C190.789 125.844 191.227 125.949 191.734 125.949C192.375 125.949 192.902 125.809 193.316 125.527C193.73 125.246 194.055 124.867 194.289 124.391C194.531 123.906 194.695 123.367 194.781 122.773V120.652C194.734 120.191 194.637 119.762 194.488 119.363C194.348 118.965 194.156 118.617 193.914 118.32C193.672 118.016 193.371 117.781 193.012 117.617C192.66 117.445 192.242 117.359 191.758 117.359C191.242 117.359 190.805 117.469 190.445 117.688C190.086 117.906 189.789 118.207 189.555 118.59C189.328 118.973 189.16 119.418 189.051 119.926C188.941 120.434 188.887 120.977 188.887 121.555Z" fill="#FFA518"/>
</svg>
