<svg width="66" height="49" viewBox="0 0 66 49" fill="none" xmlns="http://www.w3.org/2000/svg">
<rect x="8" y="3.1665" width="50" height="43.6667" rx="6.66667" stroke="#FFA518" stroke-width="3.11111"/>
<path d="M58.2253 8.91393C58.2253 12.7629 52.7534 15.8825 46.0031 15.8825C39.2528 15.8825 33.7809 12.7629 33.7809 8.91393C33.7809 5.06493 39.2528 1.94531 46.0031 1.94531C52.7534 1.94531 58.2253 5.06493 58.2253 8.91393Z" stroke="#FFA518" stroke-width="2.93333" stroke-linecap="round" stroke-linejoin="round"/>
<path d="M46.0004 6.42197C49.6671 4.78086 52.1115 7.42429 52.1115 8.66122C52.1115 12.343 39.8893 12.1513 39.8893 7.61593C39.8893 4.84707 42.3337 1.9458 46.0004 1.9458" stroke="#FFA518" stroke-width="2.93333" stroke-linecap="round" stroke-linejoin="round"/>
<rect x="8" y="3.1665" width="50" height="43.6667" rx="6.66667" stroke="#FFA518" stroke-width="3.5"/>
<path d="M58.2253 8.91393C58.2253 12.7629 52.7534 15.8825 46.0031 15.8825C39.2528 15.8825 33.7809 12.7629 33.7809 8.91393C33.7809 5.06493 39.2528 1.94531 46.0031 1.94531C52.7534 1.94531 58.2253 5.06493 58.2253 8.91393Z" stroke="#FFA518" stroke-width="2.93333" stroke-linecap="round" stroke-linejoin="round"/>
<path d="M46.0004 6.42197C49.6671 4.78086 52.1115 7.42429 52.1115 8.66122C52.1115 12.343 39.8893 12.1513 39.8893 7.61593C39.8893 4.84707 42.3337 1.9458 46.0004 1.9458" stroke="#FFA518" stroke-width="2.93333" stroke-linecap="round" stroke-linejoin="round"/>
<mask id="path-7-outside-1_2181_11158" maskUnits="userSpaceOnUse" x="13.999" y="33.2974" width="10" height="9" fill="black">
<rect fill="white" x="13.999" y="33.2974" width="10" height="9"/>
<path d="M16.4017 36.2224V34.7947C15.9872 34.8868 15.5819 34.9605 15.2227 35.0158C15.2043 35.0158 15.1767 35.0158 15.1582 35.0158C14.9924 35.0158 14.8819 34.9053 14.8727 34.7395C14.8635 34.7118 14.8635 34.6842 14.8635 34.6658C14.8635 34.5092 14.9464 34.3987 15.1306 34.3803C16.0056 34.2605 17.2122 33.9566 17.9306 33.6158C17.9859 33.5789 18.0411 33.5697 18.0964 33.5697C18.2253 33.5697 18.3267 33.6434 18.3819 33.7724C18.4003 33.8184 18.4095 33.8737 18.4095 33.9197C18.4095 34.0579 18.3267 34.1776 18.1977 34.2421C17.8938 34.371 17.4977 34.5092 17.0648 34.6289V36.2224H18.3727C18.5385 36.2224 18.6306 36.3697 18.6306 36.5447C18.6306 36.7382 18.5477 36.8579 18.3819 36.8579H17.0648V38.3316H17.5898C18.0964 38.3316 18.3359 38.525 18.3359 39.0408V41.0855C18.3359 41.6197 18.0872 41.8224 17.5622 41.8224H15.8767C15.3517 41.8224 15.103 41.6197 15.103 41.0855V39.0408C15.103 38.525 15.3424 38.3316 15.849 38.3316H16.4017V36.8579H15.0201C14.8543 36.8579 14.7622 36.7289 14.7622 36.5355C14.7622 36.3513 14.8543 36.2224 15.0201 36.2224H16.4017ZM15.7845 39.1789V40.9566C15.7845 41.1408 15.8674 41.196 16.0517 41.196H17.4332C17.6082 41.196 17.6543 41.1408 17.6543 40.9566V39.1789C17.6543 38.9855 17.6082 38.9395 17.4332 38.9395H16.0517C15.8674 38.9395 15.7845 38.9855 15.7845 39.1789ZM19.1556 35.9184H18.5938C18.4372 35.9184 18.3359 35.7803 18.3359 35.596C18.3359 35.4026 18.428 35.2829 18.5845 35.2829H19.1556V33.8645C19.1556 33.6895 19.2938 33.6066 19.5056 33.6066C19.7174 33.6066 19.8556 33.6895 19.8556 33.8645V35.2829H21.8635V33.8645C21.8635 33.6895 22.0017 33.6066 22.2135 33.6066C22.4253 33.6066 22.5635 33.6895 22.5635 33.8645V35.2829H23.0977C23.2635 35.2829 23.3556 35.4118 23.3556 35.6053C23.3556 35.7895 23.2635 35.9184 23.0977 35.9184H22.5635V41.0763C22.5635 41.6105 22.3148 41.8132 21.7898 41.8132H19.9201C19.4043 41.8132 19.1556 41.6105 19.1556 41.0763V35.9184ZM19.8556 38.6632V40.9382C19.8556 41.1224 19.9385 41.1776 20.1227 41.1776H21.5872C21.7714 41.1776 21.8635 41.1224 21.8635 40.9382V38.6632H19.8556ZM21.8635 38.0368V35.9184H19.8556V38.0368H21.8635Z"/>
</mask>
<path d="M16.4017 36.2224V34.7947C15.9872 34.8868 15.5819 34.9605 15.2227 35.0158C15.2043 35.0158 15.1767 35.0158 15.1582 35.0158C14.9924 35.0158 14.8819 34.9053 14.8727 34.7395C14.8635 34.7118 14.8635 34.6842 14.8635 34.6658C14.8635 34.5092 14.9464 34.3987 15.1306 34.3803C16.0056 34.2605 17.2122 33.9566 17.9306 33.6158C17.9859 33.5789 18.0411 33.5697 18.0964 33.5697C18.2253 33.5697 18.3267 33.6434 18.3819 33.7724C18.4003 33.8184 18.4095 33.8737 18.4095 33.9197C18.4095 34.0579 18.3267 34.1776 18.1977 34.2421C17.8938 34.371 17.4977 34.5092 17.0648 34.6289V36.2224H18.3727C18.5385 36.2224 18.6306 36.3697 18.6306 36.5447C18.6306 36.7382 18.5477 36.8579 18.3819 36.8579H17.0648V38.3316H17.5898C18.0964 38.3316 18.3359 38.525 18.3359 39.0408V41.0855C18.3359 41.6197 18.0872 41.8224 17.5622 41.8224H15.8767C15.3517 41.8224 15.103 41.6197 15.103 41.0855V39.0408C15.103 38.525 15.3424 38.3316 15.849 38.3316H16.4017V36.8579H15.0201C14.8543 36.8579 14.7622 36.7289 14.7622 36.5355C14.7622 36.3513 14.8543 36.2224 15.0201 36.2224H16.4017ZM15.7845 39.1789V40.9566C15.7845 41.1408 15.8674 41.196 16.0517 41.196H17.4332C17.6082 41.196 17.6543 41.1408 17.6543 40.9566V39.1789C17.6543 38.9855 17.6082 38.9395 17.4332 38.9395H16.0517C15.8674 38.9395 15.7845 38.9855 15.7845 39.1789ZM19.1556 35.9184H18.5938C18.4372 35.9184 18.3359 35.7803 18.3359 35.596C18.3359 35.4026 18.428 35.2829 18.5845 35.2829H19.1556V33.8645C19.1556 33.6895 19.2938 33.6066 19.5056 33.6066C19.7174 33.6066 19.8556 33.6895 19.8556 33.8645V35.2829H21.8635V33.8645C21.8635 33.6895 22.0017 33.6066 22.2135 33.6066C22.4253 33.6066 22.5635 33.6895 22.5635 33.8645V35.2829H23.0977C23.2635 35.2829 23.3556 35.4118 23.3556 35.6053C23.3556 35.7895 23.2635 35.9184 23.0977 35.9184H22.5635V41.0763C22.5635 41.6105 22.3148 41.8132 21.7898 41.8132H19.9201C19.4043 41.8132 19.1556 41.6105 19.1556 41.0763V35.9184ZM19.8556 38.6632V40.9382C19.8556 41.1224 19.9385 41.1776 20.1227 41.1776H21.5872C21.7714 41.1776 21.8635 41.1224 21.8635 40.9382V38.6632H19.8556ZM21.8635 38.0368V35.9184H19.8556V38.0368H21.8635Z" fill="#FFA518"/>
<path d="M16.4017 36.2224V36.3868H16.5661V36.2224H16.4017ZM16.4017 34.7947H16.5661V34.5897L16.366 34.6342L16.4017 34.7947ZM15.2227 35.0158V35.1803H15.2353L15.2477 35.1783L15.2227 35.0158ZM14.8727 34.7395L15.0369 34.7303L15.0357 34.7084L15.0287 34.6875L14.8727 34.7395ZM15.1306 34.3803L15.147 34.544L15.1529 34.5432L15.1306 34.3803ZM17.9306 33.6158L18.0011 33.7644L18.0119 33.7593L18.0218 33.7526L17.9306 33.6158ZM18.3819 33.7724L18.5347 33.7113L18.5331 33.7076L18.3819 33.7724ZM18.1977 34.2421L18.2621 34.3938L18.2713 34.3892L18.1977 34.2421ZM17.0648 34.6289L17.021 34.4704L16.9003 34.5038V34.6289H17.0648ZM17.0648 36.2224H16.9003V36.3868H17.0648V36.2224ZM17.0648 36.8579V36.6934H16.9003V36.8579H17.0648ZM17.0648 38.3316H16.9003V38.496H17.0648V38.3316ZM16.4017 38.3316V38.496H16.5661V38.3316H16.4017ZM16.4017 36.8579H16.5661V36.6934H16.4017V36.8579ZM19.1556 35.9184H19.3201V35.7539H19.1556V35.9184ZM19.1556 35.2829V35.4474H19.3201V35.2829H19.1556ZM19.8556 35.2829H19.6911V35.4474H19.8556V35.2829ZM21.8635 35.2829V35.4474H22.028V35.2829H21.8635ZM22.5635 35.2829H22.399V35.4474H22.5635V35.2829ZM22.5635 35.9184V35.7539H22.399V35.9184H22.5635ZM19.8556 38.6632V38.4987H19.6911V38.6632H19.8556ZM21.8635 38.6632H22.028V38.4987H21.8635V38.6632ZM21.8635 38.0368V38.2013H22.028V38.0368H21.8635ZM21.8635 35.9184H22.028V35.7539H21.8635V35.9184ZM19.8556 35.9184V35.7539H19.6911V35.9184H19.8556ZM19.8556 38.0368H19.6911V38.2013H19.8556V38.0368ZM16.5661 36.2224V34.7947H16.2372V36.2224H16.5661ZM16.366 34.6342C15.9554 34.7254 15.5537 34.7985 15.1977 34.8532L15.2477 35.1783C15.6101 35.1226 16.019 35.0483 16.4373 34.9553L16.366 34.6342ZM15.2227 34.8513C15.2227 34.8513 15.2226 34.8513 15.2226 34.8513C15.2226 34.8513 15.2225 34.8513 15.2225 34.8513C15.2225 34.8513 15.2224 34.8513 15.2224 34.8513C15.2223 34.8513 15.2223 34.8513 15.2223 34.8513C15.2222 34.8513 15.2222 34.8513 15.2222 34.8513C15.2221 34.8513 15.2221 34.8513 15.2221 34.8513C15.222 34.8513 15.222 34.8513 15.2219 34.8513C15.2219 34.8513 15.2219 34.8513 15.2218 34.8513C15.2218 34.8513 15.2218 34.8513 15.2217 34.8513C15.2217 34.8513 15.2217 34.8513 15.2216 34.8513C15.2216 34.8513 15.2215 34.8513 15.2215 34.8513C15.2215 34.8513 15.2214 34.8513 15.2214 34.8513C15.2214 34.8513 15.2213 34.8513 15.2213 34.8513C15.2212 34.8513 15.2212 34.8513 15.2212 34.8513C15.2211 34.8513 15.2211 34.8513 15.2211 34.8513C15.221 34.8513 15.221 34.8513 15.221 34.8513C15.2209 34.8513 15.2209 34.8513 15.2208 34.8513C15.2208 34.8513 15.2208 34.8513 15.2207 34.8513C15.2207 34.8513 15.2207 34.8513 15.2206 34.8513C15.2206 34.8513 15.2205 34.8513 15.2205 34.8513C15.2205 34.8513 15.2204 34.8513 15.2204 34.8513C15.2204 34.8513 15.2203 34.8513 15.2203 34.8513C15.2202 34.8513 15.2202 34.8513 15.2202 34.8513C15.2201 34.8513 15.2201 34.8513 15.2201 34.8513C15.22 34.8513 15.22 34.8513 15.2199 34.8513C15.2199 34.8513 15.2199 34.8513 15.2198 34.8513C15.2198 34.8513 15.2198 34.8513 15.2197 34.8513C15.2197 34.8513 15.2196 34.8513 15.2196 34.8513C15.2196 34.8513 15.2195 34.8513 15.2195 34.8513C15.2195 34.8513 15.2194 34.8513 15.2194 34.8513C15.2193 34.8513 15.2193 34.8513 15.2193 34.8513C15.2192 34.8513 15.2192 34.8513 15.2191 34.8513C15.2191 34.8513 15.2191 34.8513 15.219 34.8513C15.219 34.8513 15.219 34.8513 15.2189 34.8513C15.2189 34.8513 15.2188 34.8513 15.2188 34.8513C15.2188 34.8513 15.2187 34.8513 15.2187 34.8513C15.2187 34.8513 15.2186 34.8513 15.2186 34.8513C15.2185 34.8513 15.2185 34.8513 15.2185 34.8513C15.2184 34.8513 15.2184 34.8513 15.2183 34.8513C15.2183 34.8513 15.2183 34.8513 15.2182 34.8513C15.2182 34.8513 15.2182 34.8513 15.2181 34.8513C15.2181 34.8513 15.218 34.8513 15.218 34.8513C15.218 34.8513 15.2179 34.8513 15.2179 34.8513C15.2178 34.8513 15.2178 34.8513 15.2178 34.8513C15.2177 34.8513 15.2177 34.8513 15.2176 34.8513C15.2176 34.8513 15.2176 34.8513 15.2175 34.8513C15.2175 34.8513 15.2175 34.8513 15.2174 34.8513C15.2174 34.8513 15.2173 34.8513 15.2173 34.8513C15.2173 34.8513 15.2172 34.8513 15.2172 34.8513C15.2171 34.8513 15.2171 34.8513 15.2171 34.8513C15.217 34.8513 15.217 34.8513 15.2169 34.8513C15.2169 34.8513 15.2169 34.8513 15.2168 34.8513C15.2168 34.8513 15.2167 34.8513 15.2167 34.8513C15.2167 34.8513 15.2166 34.8513 15.2166 34.8513C15.2166 34.8513 15.2165 34.8513 15.2165 34.8513C15.2164 34.8513 15.2164 34.8513 15.2164 34.8513C15.2163 34.8513 15.2163 34.8513 15.2162 34.8513C15.2162 34.8513 15.2162 34.8513 15.2161 34.8513C15.2161 34.8513 15.216 34.8513 15.216 34.8513C15.216 34.8513 15.2159 34.8513 15.2159 34.8513C15.2158 34.8513 15.2158 34.8513 15.2158 34.8513C15.2157 34.8513 15.2157 34.8513 15.2156 34.8513C15.2156 34.8513 15.2156 34.8513 15.2155 34.8513C15.2155 34.8513 15.2154 34.8513 15.2154 34.8513C15.2154 34.8513 15.2153 34.8513 15.2153 34.8513C15.2152 34.8513 15.2152 34.8513 15.2152 34.8513C15.2151 34.8513 15.2151 34.8513 15.215 34.8513C15.215 34.8513 15.215 34.8513 15.2149 34.8513C15.2149 34.8513 15.2148 34.8513 15.2148 34.8513C15.2148 34.8513 15.2147 34.8513 15.2147 34.8513C15.2146 34.8513 15.2146 34.8513 15.2146 34.8513C15.2145 34.8513 15.2145 34.8513 15.2144 34.8513C15.2144 34.8513 15.2144 34.8513 15.2143 34.8513C15.2143 34.8513 15.2142 34.8513 15.2142 34.8513C15.2142 34.8513 15.2141 34.8513 15.2141 34.8513C15.214 34.8513 15.214 34.8513 15.214 34.8513C15.2139 34.8513 15.2139 34.8513 15.2138 34.8513C15.2138 34.8513 15.2138 34.8513 15.2137 34.8513C15.2137 34.8513 15.2136 34.8513 15.2136 34.8513C15.2135 34.8513 15.2135 34.8513 15.2135 34.8513C15.2134 34.8513 15.2134 34.8513 15.2133 34.8513C15.2133 34.8513 15.2133 34.8513 15.2132 34.8513C15.2132 34.8513 15.2131 34.8513 15.2131 34.8513C15.2131 34.8513 15.213 34.8513 15.213 34.8513C15.2129 34.8513 15.2129 34.8513 15.2129 34.8513C15.2128 34.8513 15.2128 34.8513 15.2127 34.8513C15.2127 34.8513 15.2127 34.8513 15.2126 34.8513C15.2126 34.8513 15.2125 34.8513 15.2125 34.8513C15.2124 34.8513 15.2124 34.8513 15.2124 34.8513C15.2123 34.8513 15.2123 34.8513 15.2122 34.8513C15.2122 34.8513 15.2122 34.8513 15.2121 34.8513C15.2121 34.8513 15.212 34.8513 15.212 34.8513C15.212 34.8513 15.2119 34.8513 15.2119 34.8513C15.2118 34.8513 15.2118 34.8513 15.2117 34.8513C15.2117 34.8513 15.2117 34.8513 15.2116 34.8513C15.2116 34.8513 15.2115 34.8513 15.2115 34.8513C15.2115 34.8513 15.2114 34.8513 15.2114 34.8513C15.2113 34.8513 15.2113 34.8513 15.2112 34.8513C15.2112 34.8513 15.2112 34.8513 15.2111 34.8513C15.2111 34.8513 15.211 34.8513 15.211 34.8513C15.211 34.8513 15.2109 34.8513 15.2109 34.8513C15.2108 34.8513 15.2108 34.8513 15.2107 34.8513C15.2107 34.8513 15.2107 34.8513 15.2106 34.8513C15.2106 34.8513 15.2105 34.8513 15.2105 34.8513C15.2105 34.8513 15.2104 34.8513 15.2104 34.8513C15.2103 34.8513 15.2103 34.8513 15.2102 34.8513C15.2102 34.8513 15.2102 34.8513 15.2101 34.8513C15.2101 34.8513 15.21 34.8513 15.21 34.8513C15.21 34.8513 15.2099 34.8513 15.2099 34.8513C15.2098 34.8513 15.2098 34.8513 15.2097 34.8513C15.2097 34.8513 15.2097 34.8513 15.2096 34.8513C15.2096 34.8513 15.2095 34.8513 15.2095 34.8513C15.2094 34.8513 15.2094 34.8513 15.2094 34.8513C15.2093 34.8513 15.2093 34.8513 15.2092 34.8513C15.2092 34.8513 15.2092 34.8513 15.2091 34.8513C15.2091 34.8513 15.209 34.8513 15.209 34.8513C15.2089 34.8513 15.2089 34.8513 15.2089 34.8513C15.2088 34.8513 15.2088 34.8513 15.2087 34.8513C15.2087 34.8513 15.2086 34.8513 15.2086 34.8513C15.2086 34.8513 15.2085 34.8513 15.2085 34.8513C15.2084 34.8513 15.2084 34.8513 15.2083 34.8513C15.2083 34.8513 15.2083 34.8513 15.2082 34.8513C15.2082 34.8513 15.2081 34.8513 15.2081 34.8513C15.208 34.8513 15.208 34.8513 15.208 34.8513C15.2079 34.8513 15.2079 34.8513 15.2078 34.8513C15.2078 34.8513 15.2078 34.8513 15.2077 34.8513C15.2077 34.8513 15.2076 34.8513 15.2076 34.8513C15.2075 34.8513 15.2075 34.8513 15.2075 34.8513C15.2074 34.8513 15.2074 34.8513 15.2073 34.8513C15.2073 34.8513 15.2072 34.8513 15.2072 34.8513C15.2072 34.8513 15.2071 34.8513 15.2071 34.8513C15.207 34.8513 15.207 34.8513 15.2069 34.8513C15.2069 34.8513 15.2069 34.8513 15.2068 34.8513C15.2068 34.8513 15.2067 34.8513 15.2067 34.8513C15.2066 34.8513 15.2066 34.8513 15.2066 34.8513C15.2065 34.8513 15.2065 34.8513 15.2064 34.8513C15.2064 34.8513 15.2063 34.8513 15.2063 34.8513C15.2063 34.8513 15.2062 34.8513 15.2062 34.8513C15.2061 34.8513 15.2061 34.8513 15.206 34.8513C15.206 34.8513 15.2059 34.8513 15.2059 34.8513C15.2059 34.8513 15.2058 34.8513 15.2058 34.8513C15.2057 34.8513 15.2057 34.8513 15.2056 34.8513C15.2056 34.8513 15.2056 34.8513 15.2055 34.8513C15.2055 34.8513 15.2054 34.8513 15.2054 34.8513C15.2053 34.8513 15.2053 34.8513 15.2053 34.8513C15.2052 34.8513 15.2052 34.8513 15.2051 34.8513C15.2051 34.8513 15.205 34.8513 15.205 34.8513C15.205 34.8513 15.2049 34.8513 15.2049 34.8513C15.2048 34.8513 15.2048 34.8513 15.2047 34.8513C15.2047 34.8513 15.2047 34.8513 15.2046 34.8513C15.2046 34.8513 15.2045 34.8513 15.2045 34.8513C15.2044 34.8513 15.2044 34.8513 15.2043 34.8513C15.2043 34.8513 15.2043 34.8513 15.2042 34.8513C15.2042 34.8513 15.2041 34.8513 15.2041 34.8513C15.204 34.8513 15.204 34.8513 15.204 34.8513C15.2039 34.8513 15.2039 34.8513 15.2038 34.8513C15.2038 34.8513 15.2037 34.8513 15.2037 34.8513C15.2037 34.8513 15.2036 34.8513 15.2036 34.8513C15.2035 34.8513 15.2035 34.8513 15.2034 34.8513C15.2034 34.8513 15.2033 34.8513 15.2033 34.8513C15.2033 34.8513 15.2032 34.8513 15.2032 34.8513C15.2031 34.8513 15.2031 34.8513 15.203 34.8513C15.203 34.8513 15.203 34.8513 15.2029 34.8513C15.2029 34.8513 15.2028 34.8513 15.2028 34.8513C15.2027 34.8513 15.2027 34.8513 15.2026 34.8513C15.2026 34.8513 15.2026 34.8513 15.2025 34.8513C15.2025 34.8513 15.2024 34.8513 15.2024 34.8513C15.2023 34.8513 15.2023 34.8513 15.2022 34.8513C15.2022 34.8513 15.2022 34.8513 15.2021 34.8513C15.2021 34.8513 15.202 34.8513 15.202 34.8513C15.2019 34.8513 15.2019 34.8513 15.2019 34.8513C15.2018 34.8513 15.2018 34.8513 15.2017 34.8513C15.2017 34.8513 15.2016 34.8513 15.2016 34.8513C15.2015 34.8513 15.2015 34.8513 15.2015 34.8513C15.2014 34.8513 15.2014 34.8513 15.2013 34.8513C15.2013 34.8513 15.2012 34.8513 15.2012 34.8513C15.2011 34.8513 15.2011 34.8513 15.2011 34.8513C15.201 34.8513 15.201 34.8513 15.2009 34.8513C15.2009 34.8513 15.2008 34.8513 15.2008 34.8513C15.2008 34.8513 15.2007 34.8513 15.2007 34.8513C15.2006 34.8513 15.2006 34.8513 15.2005 34.8513C15.2005 34.8513 15.2004 34.8513 15.2004 34.8513C15.2004 34.8513 15.2003 34.8513 15.2003 34.8513C15.2002 34.8513 15.2002 34.8513 15.2001 34.8513C15.2001 34.8513 15.2 34.8513 15.2 34.8513C15.2 34.8513 15.1999 34.8513 15.1999 34.8513C15.1998 34.8513 15.1998 34.8513 15.1997 34.8513C15.1997 34.8513 15.1996 34.8513 15.1996 34.8513C15.1996 34.8513 15.1995 34.8513 15.1995 34.8513C15.1994 34.8513 15.1994 34.8513 15.1993 34.8513C15.1993 34.8513 15.1992 34.8513 15.1992 34.8513C15.1992 34.8513 15.1991 34.8513 15.1991 34.8513C15.199 34.8513 15.199 34.8513 15.1989 34.8513C15.1989 34.8513 15.1988 34.8513 15.1988 34.8513C15.1988 34.8513 15.1987 34.8513 15.1987 34.8513C15.1986 34.8513 15.1986 34.8513 15.1985 34.8513C15.1985 34.8513 15.1984 34.8513 15.1984 34.8513C15.1984 34.8513 15.1983 34.8513 15.1983 34.8513C15.1982 34.8513 15.1982 34.8513 15.1981 34.8513C15.1981 34.8513 15.198 34.8513 15.198 34.8513C15.198 34.8513 15.1979 34.8513 15.1979 34.8513C15.1978 34.8513 15.1978 34.8513 15.1977 34.8513C15.1977 34.8513 15.1976 34.8513 15.1976 34.8513C15.1976 34.8513 15.1975 34.8513 15.1975 34.8513C15.1974 34.8513 15.1974 34.8513 15.1973 34.8513C15.1973 34.8513 15.1972 34.8513 15.1972 34.8513C15.1972 34.8513 15.1971 34.8513 15.1971 34.8513C15.197 34.8513 15.197 34.8513 15.1969 34.8513C15.1969 34.8513 15.1968 34.8513 15.1968 34.8513C15.1968 34.8513 15.1967 34.8513 15.1967 34.8513C15.1966 34.8513 15.1966 34.8513 15.1965 34.8513C15.1965 34.8513 15.1964 34.8513 15.1964 34.8513C15.1964 34.8513 15.1963 34.8513 15.1963 34.8513C15.1962 34.8513 15.1962 34.8513 15.1961 34.8513C15.1961 34.8513 15.196 34.8513 15.196 34.8513C15.1959 34.8513 15.1959 34.8513 15.1959 34.8513C15.1958 34.8513 15.1958 34.8513 15.1957 34.8513C15.1957 34.8513 15.1956 34.8513 15.1956 34.8513C15.1955 34.8513 15.1955 34.8513 15.1955 34.8513C15.1954 34.8513 15.1954 34.8513 15.1953 34.8513C15.1953 34.8513 15.1952 34.8513 15.1952 34.8513C15.1951 34.8513 15.1951 34.8513 15.1951 34.8513C15.195 34.8513 15.195 34.8513 15.1949 34.8513C15.1949 34.8513 15.1948 34.8513 15.1948 34.8513C15.1947 34.8513 15.1947 34.8513 15.1946 34.8513C15.1946 34.8513 15.1946 34.8513 15.1945 34.8513C15.1945 34.8513 15.1944 34.8513 15.1944 34.8513C15.1943 34.8513 15.1943 34.8513 15.1942 34.8513C15.1942 34.8513 15.1942 34.8513 15.1941 34.8513C15.1941 34.8513 15.194 34.8513 15.194 34.8513C15.1939 34.8513 15.1939 34.8513 15.1938 34.8513C15.1938 34.8513 15.1938 34.8513 15.1937 34.8513C15.1937 34.8513 15.1936 34.8513 15.1936 34.8513C15.1935 34.8513 15.1935 34.8513 15.1934 34.8513C15.1934 34.8513 15.1933 34.8513 15.1933 34.8513C15.1933 34.8513 15.1932 34.8513 15.1932 34.8513C15.1931 34.8513 15.1931 34.8513 15.193 34.8513C15.193 34.8513 15.1929 34.8513 15.1929 34.8513C15.1929 34.8513 15.1928 34.8513 15.1928 34.8513C15.1927 34.8513 15.1927 34.8513 15.1926 34.8513C15.1926 34.8513 15.1925 34.8513 15.1925 34.8513C15.1924 34.8513 15.1924 34.8513 15.1924 34.8513C15.1923 34.8513 15.1923 34.8513 15.1922 34.8513C15.1922 34.8513 15.1921 34.8513 15.1921 34.8513C15.192 34.8513 15.192 34.8513 15.192 34.8513C15.1919 34.8513 15.1919 34.8513 15.1918 34.8513C15.1918 34.8513 15.1917 34.8513 15.1917 34.8513C15.1916 34.8513 15.1916 34.8513 15.1915 34.8513C15.1915 34.8513 15.1915 34.8513 15.1914 34.8513C15.1914 34.8513 15.1913 34.8513 15.1913 34.8513C15.1912 34.8513 15.1912 34.8513 15.1911 34.8513C15.1911 34.8513 15.1911 34.8513 15.191 34.8513C15.191 34.8513 15.1909 34.8513 15.1909 34.8513C15.1908 34.8513 15.1908 34.8513 15.1907 34.8513C15.1907 34.8513 15.1906 34.8513 15.1906 34.8513C15.1906 34.8513 15.1905 34.8513 15.1905 34.8513C15.1904 34.8513 15.1904 34.8513 15.1903 34.8513C15.1903 34.8513 15.1902 34.8513 15.1902 34.8513C15.1902 34.8513 15.1901 34.8513 15.1901 34.8513C15.19 34.8513 15.19 34.8513 15.1899 34.8513C15.1899 34.8513 15.1898 34.8513 15.1898 34.8513C15.1898 34.8513 15.1897 34.8513 15.1897 34.8513C15.1896 34.8513 15.1896 34.8513 15.1895 34.8513C15.1895 34.8513 15.1894 34.8513 15.1894 34.8513C15.1893 34.8513 15.1893 34.8513 15.1893 34.8513C15.1892 34.8513 15.1892 34.8513 15.1891 34.8513C15.1891 34.8513 15.189 34.8513 15.189 34.8513C15.1889 34.8513 15.1889 34.8513 15.1889 34.8513C15.1888 34.8513 15.1888 34.8513 15.1887 34.8513C15.1887 34.8513 15.1886 34.8513 15.1886 34.8513C15.1885 34.8513 15.1885 34.8513 15.1884 34.8513C15.1884 34.8513 15.1884 34.8513 15.1883 34.8513C15.1883 34.8513 15.1882 34.8513 15.1882 34.8513C15.1881 34.8513 15.1881 34.8513 15.188 34.8513C15.188 34.8513 15.188 34.8513 15.1879 34.8513C15.1879 34.8513 15.1878 34.8513 15.1878 34.8513C15.1877 34.8513 15.1877 34.8513 15.1876 34.8513C15.1876 34.8513 15.1875 34.8513 15.1875 34.8513C15.1875 34.8513 15.1874 34.8513 15.1874 34.8513C15.1873 34.8513 15.1873 34.8513 15.1872 34.8513C15.1872 34.8513 15.1871 34.8513 15.1871 34.8513C15.1871 34.8513 15.187 34.8513 15.187 34.8513C15.1869 34.8513 15.1869 34.8513 15.1868 34.8513C15.1868 34.8513 15.1867 34.8513 15.1867 34.8513C15.1867 34.8513 15.1866 34.8513 15.1866 34.8513C15.1865 34.8513 15.1865 34.8513 15.1864 34.8513C15.1864 34.8513 15.1863 34.8513 15.1863 34.8513C15.1862 34.8513 15.1862 34.8513 15.1862 34.8513C15.1861 34.8513 15.1861 34.8513 15.186 34.8513C15.186 34.8513 15.1859 34.8513 15.1859 34.8513C15.1858 34.8513 15.1858 34.8513 15.1858 34.8513C15.1857 34.8513 15.1857 34.8513 15.1856 34.8513C15.1856 34.8513 15.1855 34.8513 15.1855 34.8513C15.1854 34.8513 15.1854 34.8513 15.1854 34.8513C15.1853 34.8513 15.1853 34.8513 15.1852 34.8513C15.1852 34.8513 15.1851 34.8513 15.1851 34.8513C15.185 34.8513 15.185 34.8513 15.1849 34.8513C15.1849 34.8513 15.1849 34.8513 15.1848 34.8513C15.1848 34.8513 15.1847 34.8513 15.1847 34.8513C15.1846 34.8513 15.1846 34.8513 15.1845 34.8513C15.1845 34.8513 15.1845 34.8513 15.1844 34.8513C15.1844 34.8513 15.1843 34.8513 15.1843 34.8513C15.1842 34.8513 15.1842 34.8513 15.1841 34.8513C15.1841 34.8513 15.1841 34.8513 15.184 34.8513C15.184 34.8513 15.1839 34.8513 15.1839 34.8513C15.1838 34.8513 15.1838 34.8513 15.1837 34.8513C15.1837 34.8513 15.1837 34.8513 15.1836 34.8513C15.1836 34.8513 15.1835 34.8513 15.1835 34.8513C15.1834 34.8513 15.1834 34.8513 15.1833 34.8513C15.1833 34.8513 15.1833 34.8513 15.1832 34.8513C15.1832 34.8513 15.1831 34.8513 15.1831 34.8513C15.183 34.8513 15.183 34.8513 15.1829 34.8513C15.1829 34.8513 15.1828 34.8513 15.1828 34.8513C15.1828 34.8513 15.1827 34.8513 15.1827 34.8513C15.1826 34.8513 15.1826 34.8513 15.1825 34.8513C15.1825 34.8513 15.1824 34.8513 15.1824 34.8513C15.1824 34.8513 15.1823 34.8513 15.1823 34.8513C15.1822 34.8513 15.1822 34.8513 15.1821 34.8513C15.1821 34.8513 15.182 34.8513 15.182 34.8513C15.182 34.8513 15.1819 34.8513 15.1819 34.8513C15.1818 34.8513 15.1818 34.8513 15.1817 34.8513C15.1817 34.8513 15.1816 34.8513 15.1816 34.8513C15.1816 34.8513 15.1815 34.8513 15.1815 34.8513C15.1814 34.8513 15.1814 34.8513 15.1813 34.8513C15.1813 34.8513 15.1812 34.8513 15.1812 34.8513C15.1812 34.8513 15.1811 34.8513 15.1811 34.8513C15.181 34.8513 15.181 34.8513 15.1809 34.8513C15.1809 34.8513 15.1809 34.8513 15.1808 34.8513C15.1808 34.8513 15.1807 34.8513 15.1807 34.8513C15.1806 34.8513 15.1806 34.8513 15.1805 34.8513C15.1805 34.8513 15.1805 34.8513 15.1804 34.8513C15.1804 34.8513 15.1803 34.8513 15.1803 34.8513C15.1802 34.8513 15.1802 34.8513 15.1801 34.8513C15.1801 34.8513 15.1801 34.8513 15.18 34.8513C15.18 34.8513 15.1799 34.8513 15.1799 34.8513C15.1798 34.8513 15.1798 34.8513 15.1797 34.8513C15.1797 34.8513 15.1797 34.8513 15.1796 34.8513C15.1796 34.8513 15.1795 34.8513 15.1795 34.8513C15.1794 34.8513 15.1794 34.8513 15.1794 34.8513C15.1793 34.8513 15.1793 34.8513 15.1792 34.8513C15.1792 34.8513 15.1791 34.8513 15.1791 34.8513C15.179 34.8513 15.179 34.8513 15.179 34.8513C15.1789 34.8513 15.1789 34.8513 15.1788 34.8513C15.1788 34.8513 15.1787 34.8513 15.1787 34.8513C15.1786 34.8513 15.1786 34.8513 15.1786 34.8513C15.1785 34.8513 15.1785 34.8513 15.1784 34.8513C15.1784 34.8513 15.1783 34.8513 15.1783 34.8513C15.1783 34.8513 15.1782 34.8513 15.1782 34.8513C15.1781 34.8513 15.1781 34.8513 15.178 34.8513C15.178 34.8513 15.1779 34.8513 15.1779 34.8513C15.1779 34.8513 15.1778 34.8513 15.1778 34.8513C15.1777 34.8513 15.1777 34.8513 15.1776 34.8513C15.1776 34.8513 15.1776 34.8513 15.1775 34.8513C15.1775 34.8513 15.1774 34.8513 15.1774 34.8513C15.1773 34.8513 15.1773 34.8513 15.1772 34.8513C15.1772 34.8513 15.1772 34.8513 15.1771 34.8513C15.1771 34.8513 15.177 34.8513 15.177 34.8513C15.1769 34.8513 15.1769 34.8513 15.1769 34.8513C15.1768 34.8513 15.1768 34.8513 15.1767 34.8513C15.1767 34.8513 15.1766 34.8513 15.1766 34.8513C15.1765 34.8513 15.1765 34.8513 15.1765 34.8513C15.1764 34.8513 15.1764 34.8513 15.1763 34.8513C15.1763 34.8513 15.1762 34.8513 15.1762 34.8513C15.1762 34.8513 15.1761 34.8513 15.1761 34.8513C15.176 34.8513 15.176 34.8513 15.1759 34.8513C15.1759 34.8513 15.1759 34.8513 15.1758 34.8513C15.1758 34.8513 15.1757 34.8513 15.1757 34.8513C15.1756 34.8513 15.1756 34.8513 15.1756 34.8513C15.1755 34.8513 15.1755 34.8513 15.1754 34.8513C15.1754 34.8513 15.1753 34.8513 15.1753 34.8513C15.1752 34.8513 15.1752 34.8513 15.1752 34.8513C15.1751 34.8513 15.1751 34.8513 15.175 34.8513C15.175 34.8513 15.1749 34.8513 15.1749 34.8513C15.1749 34.8513 15.1748 34.8513 15.1748 34.8513C15.1747 34.8513 15.1747 34.8513 15.1746 34.8513C15.1746 34.8513 15.1746 34.8513 15.1745 34.8513C15.1745 34.8513 15.1744 34.8513 15.1744 34.8513C15.1743 34.8513 15.1743 34.8513 15.1743 34.8513C15.1742 34.8513 15.1742 34.8513 15.1741 34.8513C15.1741 34.8513 15.174 34.8513 15.174 34.8513C15.174 34.8513 15.1739 34.8513 15.1739 34.8513C15.1738 34.8513 15.1738 34.8513 15.1737 34.8513C15.1737 34.8513 15.1737 34.8513 15.1736 34.8513C15.1736 34.8513 15.1735 34.8513 15.1735 34.8513C15.1734 34.8513 15.1734 34.8513 15.1734 34.8513C15.1733 34.8513 15.1733 34.8513 15.1732 34.8513C15.1732 34.8513 15.1731 34.8513 15.1731 34.8513C15.1731 34.8513 15.173 34.8513 15.173 34.8513C15.1729 34.8513 15.1729 34.8513 15.1728 34.8513C15.1728 34.8513 15.1728 34.8513 15.1727 34.8513C15.1727 34.8513 15.1726 34.8513 15.1726 34.8513C15.1726 34.8513 15.1725 34.8513 15.1725 34.8513C15.1724 34.8513 15.1724 34.8513 15.1723 34.8513C15.1723 34.8513 15.1723 34.8513 15.1722 34.8513C15.1722 34.8513 15.1721 34.8513 15.1721 34.8513C15.172 34.8513 15.172 34.8513 15.172 34.8513C15.1719 34.8513 15.1719 34.8513 15.1718 34.8513C15.1718 34.8513 15.1717 34.8513 15.1717 34.8513C15.1717 34.8513 15.1716 34.8513 15.1716 34.8513C15.1715 34.8513 15.1715 34.8513 15.1715 34.8513C15.1714 34.8513 15.1714 34.8513 15.1713 34.8513C15.1713 34.8513 15.1712 34.8513 15.1712 34.8513C15.1712 34.8513 15.1711 34.8513 15.1711 34.8513C15.171 34.8513 15.171 34.8513 15.1709 34.8513C15.1709 34.8513 15.1709 34.8513 15.1708 34.8513C15.1708 34.8513 15.1707 34.8513 15.1707 34.8513C15.1707 34.8513 15.1706 34.8513 15.1706 34.8513C15.1705 34.8513 15.1705 34.8513 15.1704 34.8513C15.1704 34.8513 15.1704 34.8513 15.1703 34.8513C15.1703 34.8513 15.1702 34.8513 15.1702 34.8513C15.1702 34.8513 15.1701 34.8513 15.1701 34.8513C15.17 34.8513 15.17 34.8513 15.1699 34.8513C15.1699 34.8513 15.1699 34.8513 15.1698 34.8513C15.1698 34.8513 15.1697 34.8513 15.1697 34.8513C15.1697 34.8513 15.1696 34.8513 15.1696 34.8513C15.1695 34.8513 15.1695 34.8513 15.1694 34.8513C15.1694 34.8513 15.1694 34.8513 15.1693 34.8513C15.1693 34.8513 15.1692 34.8513 15.1692 34.8513C15.1692 34.8513 15.1691 34.8513 15.1691 34.8513C15.169 34.8513 15.169 34.8513 15.1689 34.8513C15.1689 34.8513 15.1689 34.8513 15.1688 34.8513C15.1688 34.8513 15.1687 34.8513 15.1687 34.8513C15.1687 34.8513 15.1686 34.8513 15.1686 34.8513C15.1685 34.8513 15.1685 34.8513 15.1685 34.8513C15.1684 34.8513 15.1684 34.8513 15.1683 34.8513C15.1683 34.8513 15.1682 34.8513 15.1682 34.8513C15.1682 34.8513 15.1681 34.8513 15.1681 34.8513C15.168 34.8513 15.168 34.8513 15.168 34.8513C15.1679 34.8513 15.1679 34.8513 15.1678 34.8513C15.1678 34.8513 15.1678 34.8513 15.1677 34.8513C15.1677 34.8513 15.1676 34.8513 15.1676 34.8513C15.1676 34.8513 15.1675 34.8513 15.1675 34.8513C15.1674 34.8513 15.1674 34.8513 15.1674 34.8513C15.1673 34.8513 15.1673 34.8513 15.1672 34.8513C15.1672 34.8513 15.1671 34.8513 15.1671 34.8513C15.1671 34.8513 15.167 34.8513 15.167 34.8513C15.1669 34.8513 15.1669 34.8513 15.1669 34.8513C15.1668 34.8513 15.1668 34.8513 15.1667 34.8513C15.1667 34.8513 15.1667 34.8513 15.1666 34.8513C15.1666 34.8513 15.1665 34.8513 15.1665 34.8513C15.1665 34.8513 15.1664 34.8513 15.1664 34.8513C15.1663 34.8513 15.1663 34.8513 15.1663 34.8513C15.1662 34.8513 15.1662 34.8513 15.1661 34.8513C15.1661 34.8513 15.1661 34.8513 15.166 34.8513C15.166 34.8513 15.1659 34.8513 15.1659 34.8513C15.1659 34.8513 15.1658 34.8513 15.1658 34.8513C15.1657 34.8513 15.1657 34.8513 15.1657 34.8513C15.1656 34.8513 15.1656 34.8513 15.1655 34.8513C15.1655 34.8513 15.1655 34.8513 15.1654 34.8513C15.1654 34.8513 15.1653 34.8513 15.1653 34.8513C15.1653 34.8513 15.1652 34.8513 15.1652 34.8513C15.1651 34.8513 15.1651 34.8513 15.1651 34.8513C15.165 34.8513 15.165 34.8513 15.1649 34.8513C15.1649 34.8513 15.1649 34.8513 15.1648 34.8513C15.1648 34.8513 15.1647 34.8513 15.1647 34.8513C15.1647 34.8513 15.1646 34.8513 15.1646 34.8513C15.1645 34.8513 15.1645 34.8513 15.1645 34.8513C15.1644 34.8513 15.1644 34.8513 15.1643 34.8513C15.1643 34.8513 15.1643 34.8513 15.1642 34.8513C15.1642 34.8513 15.1642 34.8513 15.1641 34.8513C15.1641 34.8513 15.164 34.8513 15.164 34.8513C15.164 34.8513 15.1639 34.8513 15.1639 34.8513C15.1638 34.8513 15.1638 34.8513 15.1638 34.8513C15.1637 34.8513 15.1637 34.8513 15.1636 34.8513C15.1636 34.8513 15.1636 34.8513 15.1635 34.8513C15.1635 34.8513 15.1634 34.8513 15.1634 34.8513C15.1634 34.8513 15.1633 34.8513 15.1633 34.8513C15.1633 34.8513 15.1632 34.8513 15.1632 34.8513C15.1631 34.8513 15.1631 34.8513 15.1631 34.8513C15.163 34.8513 15.163 34.8513 15.1629 34.8513C15.1629 34.8513 15.1629 34.8513 15.1628 34.8513C15.1628 34.8513 15.1627 34.8513 15.1627 34.8513C15.1627 34.8513 15.1626 34.8513 15.1626 34.8513C15.1626 34.8513 15.1625 34.8513 15.1625 34.8513C15.1624 34.8513 15.1624 34.8513 15.1624 34.8513C15.1623 34.8513 15.1623 34.8513 15.1622 34.8513C15.1622 34.8513 15.1622 34.8513 15.1621 34.8513C15.1621 34.8513 15.1621 34.8513 15.162 34.8513C15.162 34.8513 15.1619 34.8513 15.1619 34.8513C15.1619 34.8513 15.1618 34.8513 15.1618 34.8513C15.1618 34.8513 15.1617 34.8513 15.1617 34.8513C15.1616 34.8513 15.1616 34.8513 15.1616 34.8513C15.1615 34.8513 15.1615 34.8513 15.1614 34.8513C15.1614 34.8513 15.1614 34.8513 15.1613 34.8513C15.1613 34.8513 15.1613 34.8513 15.1612 34.8513C15.1612 34.8513 15.1611 34.8513 15.1611 34.8513C15.1611 34.8513 15.161 34.8513 15.161 34.8513C15.161 34.8513 15.1609 34.8513 15.1609 34.8513C15.1608 34.8513 15.1608 34.8513 15.1608 34.8513C15.1607 34.8513 15.1607 34.8513 15.1607 34.8513C15.1606 34.8513 15.1606 34.8513 15.1605 34.8513C15.1605 34.8513 15.1605 34.8513 15.1604 34.8513C15.1604 34.8513 15.1604 34.8513 15.1603 34.8513C15.1603 34.8513 15.1602 34.8513 15.1602 34.8513C15.1602 34.8513 15.1601 34.8513 15.1601 34.8513C15.1601 34.8513 15.16 34.8513 15.16 34.8513C15.1599 34.8513 15.1599 34.8513 15.1599 34.8513C15.1598 34.8513 15.1598 34.8513 15.1598 34.8513C15.1597 34.8513 15.1597 34.8513 15.1597 34.8513C15.1596 34.8513 15.1596 34.8513 15.1595 34.8513C15.1595 34.8513 15.1595 34.8513 15.1594 34.8513C15.1594 34.8513 15.1594 34.8513 15.1593 34.8513C15.1593 34.8513 15.1592 34.8513 15.1592 34.8513C15.1592 34.8513 15.1591 34.8513 15.1591 34.8513C15.1591 34.8513 15.159 34.8513 15.159 34.8513C15.159 34.8513 15.1589 34.8513 15.1589 34.8513C15.1588 34.8513 15.1588 34.8513 15.1588 34.8513C15.1587 34.8513 15.1587 34.8513 15.1587 34.8513C15.1586 34.8513 15.1586 34.8513 15.1586 34.8513C15.1585 34.8513 15.1585 34.8513 15.1584 34.8513C15.1584 34.8513 15.1584 34.8513 15.1583 34.8513C15.1583 34.8513 15.1583 34.8513 15.1582 34.8513V35.1803C15.1583 35.1803 15.1583 35.1803 15.1583 35.1803C15.1584 35.1803 15.1584 35.1803 15.1584 35.1803C15.1585 35.1803 15.1585 35.1803 15.1586 35.1803C15.1586 35.1803 15.1586 35.1803 15.1587 35.1803C15.1587 35.1803 15.1587 35.1803 15.1588 35.1803C15.1588 35.1803 15.1588 35.1803 15.1589 35.1803C15.1589 35.1803 15.159 35.1803 15.159 35.1803C15.159 35.1803 15.1591 35.1803 15.1591 35.1803C15.1591 35.1803 15.1592 35.1803 15.1592 35.1803C15.1592 35.1803 15.1593 35.1803 15.1593 35.1803C15.1594 35.1803 15.1594 35.1803 15.1594 35.1803C15.1595 35.1803 15.1595 35.1803 15.1595 35.1803C15.1596 35.1803 15.1596 35.1803 15.1597 35.1803C15.1597 35.1803 15.1597 35.1803 15.1598 35.1803C15.1598 35.1803 15.1598 35.1803 15.1599 35.1803C15.1599 35.1803 15.1599 35.1803 15.16 35.1803C15.16 35.1803 15.1601 35.1803 15.1601 35.1803C15.1601 35.1803 15.1602 35.1803 15.1602 35.1803C15.1602 35.1803 15.1603 35.1803 15.1603 35.1803C15.1604 35.1803 15.1604 35.1803 15.1604 35.1803C15.1605 35.1803 15.1605 35.1803 15.1605 35.1803C15.1606 35.1803 15.1606 35.1803 15.1607 35.1803C15.1607 35.1803 15.1607 35.1803 15.1608 35.1803C15.1608 35.1803 15.1608 35.1803 15.1609 35.1803C15.1609 35.1803 15.161 35.1803 15.161 35.1803C15.161 35.1803 15.1611 35.1803 15.1611 35.1803C15.1611 35.1803 15.1612 35.1803 15.1612 35.1803C15.1613 35.1803 15.1613 35.1803 15.1613 35.1803C15.1614 35.1803 15.1614 35.1803 15.1614 35.1803C15.1615 35.1803 15.1615 35.1803 15.1616 35.1803C15.1616 35.1803 15.1616 35.1803 15.1617 35.1803C15.1617 35.1803 15.1618 35.1803 15.1618 35.1803C15.1618 35.1803 15.1619 35.1803 15.1619 35.1803C15.1619 35.1803 15.162 35.1803 15.162 35.1803C15.1621 35.1803 15.1621 35.1803 15.1621 35.1803C15.1622 35.1803 15.1622 35.1803 15.1622 35.1803C15.1623 35.1803 15.1623 35.1803 15.1624 35.1803C15.1624 35.1803 15.1624 35.1803 15.1625 35.1803C15.1625 35.1803 15.1626 35.1803 15.1626 35.1803C15.1626 35.1803 15.1627 35.1803 15.1627 35.1803C15.1627 35.1803 15.1628 35.1803 15.1628 35.1803C15.1629 35.1803 15.1629 35.1803 15.1629 35.1803C15.163 35.1803 15.163 35.1803 15.1631 35.1803C15.1631 35.1803 15.1631 35.1803 15.1632 35.1803C15.1632 35.1803 15.1633 35.1803 15.1633 35.1803C15.1633 35.1803 15.1634 35.1803 15.1634 35.1803C15.1634 35.1803 15.1635 35.1803 15.1635 35.1803C15.1636 35.1803 15.1636 35.1803 15.1636 35.1803C15.1637 35.1803 15.1637 35.1803 15.1638 35.1803C15.1638 35.1803 15.1638 35.1803 15.1639 35.1803C15.1639 35.1803 15.164 35.1803 15.164 35.1803C15.164 35.1803 15.1641 35.1803 15.1641 35.1803C15.1642 35.1803 15.1642 35.1803 15.1642 35.1803C15.1643 35.1803 15.1643 35.1803 15.1643 35.1803C15.1644 35.1803 15.1644 35.1803 15.1645 35.1803C15.1645 35.1803 15.1645 35.1803 15.1646 35.1803C15.1646 35.1803 15.1647 35.1803 15.1647 35.1803C15.1647 35.1803 15.1648 35.1803 15.1648 35.1803C15.1649 35.1803 15.1649 35.1803 15.1649 35.1803C15.165 35.1803 15.165 35.1803 15.1651 35.1803C15.1651 35.1803 15.1651 35.1803 15.1652 35.1803C15.1652 35.1803 15.1653 35.1803 15.1653 35.1803C15.1653 35.1803 15.1654 35.1803 15.1654 35.1803C15.1655 35.1803 15.1655 35.1803 15.1655 35.1803C15.1656 35.1803 15.1656 35.1803 15.1657 35.1803C15.1657 35.1803 15.1657 35.1803 15.1658 35.1803C15.1658 35.1803 15.1659 35.1803 15.1659 35.1803C15.1659 35.1803 15.166 35.1803 15.166 35.1803C15.1661 35.1803 15.1661 35.1803 15.1661 35.1803C15.1662 35.1803 15.1662 35.1803 15.1663 35.1803C15.1663 35.1803 15.1663 35.1803 15.1664 35.1803C15.1664 35.1803 15.1665 35.1803 15.1665 35.1803C15.1665 35.1803 15.1666 35.1803 15.1666 35.1803C15.1667 35.1803 15.1667 35.1803 15.1667 35.1803C15.1668 35.1803 15.1668 35.1803 15.1669 35.1803C15.1669 35.1803 15.1669 35.1803 15.167 35.1803C15.167 35.1803 15.1671 35.1803 15.1671 35.1803C15.1671 35.1803 15.1672 35.1803 15.1672 35.1803C15.1673 35.1803 15.1673 35.1803 15.1674 35.1803C15.1674 35.1803 15.1674 35.1803 15.1675 35.1803C15.1675 35.1803 15.1676 35.1803 15.1676 35.1803C15.1676 35.1803 15.1677 35.1803 15.1677 35.1803C15.1678 35.1803 15.1678 35.1803 15.1678 35.1803C15.1679 35.1803 15.1679 35.1803 15.168 35.1803C15.168 35.1803 15.168 35.1803 15.1681 35.1803C15.1681 35.1803 15.1682 35.1803 15.1682 35.1803C15.1682 35.1803 15.1683 35.1803 15.1683 35.1803C15.1684 35.1803 15.1684 35.1803 15.1685 35.1803C15.1685 35.1803 15.1685 35.1803 15.1686 35.1803C15.1686 35.1803 15.1687 35.1803 15.1687 35.1803C15.1687 35.1803 15.1688 35.1803 15.1688 35.1803C15.1689 35.1803 15.1689 35.1803 15.1689 35.1803C15.169 35.1803 15.169 35.1803 15.1691 35.1803C15.1691 35.1803 15.1692 35.1803 15.1692 35.1803C15.1692 35.1803 15.1693 35.1803 15.1693 35.1803C15.1694 35.1803 15.1694 35.1803 15.1694 35.1803C15.1695 35.1803 15.1695 35.1803 15.1696 35.1803C15.1696 35.1803 15.1697 35.1803 15.1697 35.1803C15.1697 35.1803 15.1698 35.1803 15.1698 35.1803C15.1699 35.1803 15.1699 35.1803 15.1699 35.1803C15.17 35.1803 15.17 35.1803 15.1701 35.1803C15.1701 35.1803 15.1702 35.1803 15.1702 35.1803C15.1702 35.1803 15.1703 35.1803 15.1703 35.1803C15.1704 35.1803 15.1704 35.1803 15.1704 35.1803C15.1705 35.1803 15.1705 35.1803 15.1706 35.1803C15.1706 35.1803 15.1707 35.1803 15.1707 35.1803C15.1707 35.1803 15.1708 35.1803 15.1708 35.1803C15.1709 35.1803 15.1709 35.1803 15.1709 35.1803C15.171 35.1803 15.171 35.1803 15.1711 35.1803C15.1711 35.1803 15.1712 35.1803 15.1712 35.1803C15.1712 35.1803 15.1713 35.1803 15.1713 35.1803C15.1714 35.1803 15.1714 35.1803 15.1715 35.1803C15.1715 35.1803 15.1715 35.1803 15.1716 35.1803C15.1716 35.1803 15.1717 35.1803 15.1717 35.1803C15.1717 35.1803 15.1718 35.1803 15.1718 35.1803C15.1719 35.1803 15.1719 35.1803 15.172 35.1803C15.172 35.1803 15.172 35.1803 15.1721 35.1803C15.1721 35.1803 15.1722 35.1803 15.1722 35.1803C15.1723 35.1803 15.1723 35.1803 15.1723 35.1803C15.1724 35.1803 15.1724 35.1803 15.1725 35.1803C15.1725 35.1803 15.1726 35.1803 15.1726 35.1803C15.1726 35.1803 15.1727 35.1803 15.1727 35.1803C15.1728 35.1803 15.1728 35.1803 15.1728 35.1803C15.1729 35.1803 15.1729 35.1803 15.173 35.1803C15.173 35.1803 15.1731 35.1803 15.1731 35.1803C15.1731 35.1803 15.1732 35.1803 15.1732 35.1803C15.1733 35.1803 15.1733 35.1803 15.1734 35.1803C15.1734 35.1803 15.1734 35.1803 15.1735 35.1803C15.1735 35.1803 15.1736 35.1803 15.1736 35.1803C15.1737 35.1803 15.1737 35.1803 15.1737 35.1803C15.1738 35.1803 15.1738 35.1803 15.1739 35.1803C15.1739 35.1803 15.174 35.1803 15.174 35.1803C15.174 35.1803 15.1741 35.1803 15.1741 35.1803C15.1742 35.1803 15.1742 35.1803 15.1743 35.1803C15.1743 35.1803 15.1743 35.1803 15.1744 35.1803C15.1744 35.1803 15.1745 35.1803 15.1745 35.1803C15.1746 35.1803 15.1746 35.1803 15.1746 35.1803C15.1747 35.1803 15.1747 35.1803 15.1748 35.1803C15.1748 35.1803 15.1749 35.1803 15.1749 35.1803C15.1749 35.1803 15.175 35.1803 15.175 35.1803C15.1751 35.1803 15.1751 35.1803 15.1752 35.1803C15.1752 35.1803 15.1752 35.1803 15.1753 35.1803C15.1753 35.1803 15.1754 35.1803 15.1754 35.1803C15.1755 35.1803 15.1755 35.1803 15.1756 35.1803C15.1756 35.1803 15.1756 35.1803 15.1757 35.1803C15.1757 35.1803 15.1758 35.1803 15.1758 35.1803C15.1759 35.1803 15.1759 35.1803 15.1759 35.1803C15.176 35.1803 15.176 35.1803 15.1761 35.1803C15.1761 35.1803 15.1762 35.1803 15.1762 35.1803C15.1762 35.1803 15.1763 35.1803 15.1763 35.1803C15.1764 35.1803 15.1764 35.1803 15.1765 35.1803C15.1765 35.1803 15.1765 35.1803 15.1766 35.1803C15.1766 35.1803 15.1767 35.1803 15.1767 35.1803C15.1768 35.1803 15.1768 35.1803 15.1769 35.1803C15.1769 35.1803 15.1769 35.1803 15.177 35.1803C15.177 35.1803 15.1771 35.1803 15.1771 35.1803C15.1772 35.1803 15.1772 35.1803 15.1772 35.1803C15.1773 35.1803 15.1773 35.1803 15.1774 35.1803C15.1774 35.1803 15.1775 35.1803 15.1775 35.1803C15.1776 35.1803 15.1776 35.1803 15.1776 35.1803C15.1777 35.1803 15.1777 35.1803 15.1778 35.1803C15.1778 35.1803 15.1779 35.1803 15.1779 35.1803C15.1779 35.1803 15.178 35.1803 15.178 35.1803C15.1781 35.1803 15.1781 35.1803 15.1782 35.1803C15.1782 35.1803 15.1783 35.1803 15.1783 35.1803C15.1783 35.1803 15.1784 35.1803 15.1784 35.1803C15.1785 35.1803 15.1785 35.1803 15.1786 35.1803C15.1786 35.1803 15.1786 35.1803 15.1787 35.1803C15.1787 35.1803 15.1788 35.1803 15.1788 35.1803C15.1789 35.1803 15.1789 35.1803 15.179 35.1803C15.179 35.1803 15.179 35.1803 15.1791 35.1803C15.1791 35.1803 15.1792 35.1803 15.1792 35.1803C15.1793 35.1803 15.1793 35.1803 15.1794 35.1803C15.1794 35.1803 15.1794 35.1803 15.1795 35.1803C15.1795 35.1803 15.1796 35.1803 15.1796 35.1803C15.1797 35.1803 15.1797 35.1803 15.1797 35.1803C15.1798 35.1803 15.1798 35.1803 15.1799 35.1803C15.1799 35.1803 15.18 35.1803 15.18 35.1803C15.1801 35.1803 15.1801 35.1803 15.1801 35.1803C15.1802 35.1803 15.1802 35.1803 15.1803 35.1803C15.1803 35.1803 15.1804 35.1803 15.1804 35.1803C15.1805 35.1803 15.1805 35.1803 15.1805 35.1803C15.1806 35.1803 15.1806 35.1803 15.1807 35.1803C15.1807 35.1803 15.1808 35.1803 15.1808 35.1803C15.1809 35.1803 15.1809 35.1803 15.1809 35.1803C15.181 35.1803 15.181 35.1803 15.1811 35.1803C15.1811 35.1803 15.1812 35.1803 15.1812 35.1803C15.1812 35.1803 15.1813 35.1803 15.1813 35.1803C15.1814 35.1803 15.1814 35.1803 15.1815 35.1803C15.1815 35.1803 15.1816 35.1803 15.1816 35.1803C15.1816 35.1803 15.1817 35.1803 15.1817 35.1803C15.1818 35.1803 15.1818 35.1803 15.1819 35.1803C15.1819 35.1803 15.182 35.1803 15.182 35.1803C15.182 35.1803 15.1821 35.1803 15.1821 35.1803C15.1822 35.1803 15.1822 35.1803 15.1823 35.1803C15.1823 35.1803 15.1824 35.1803 15.1824 35.1803C15.1824 35.1803 15.1825 35.1803 15.1825 35.1803C15.1826 35.1803 15.1826 35.1803 15.1827 35.1803C15.1827 35.1803 15.1828 35.1803 15.1828 35.1803C15.1828 35.1803 15.1829 35.1803 15.1829 35.1803C15.183 35.1803 15.183 35.1803 15.1831 35.1803C15.1831 35.1803 15.1832 35.1803 15.1832 35.1803C15.1833 35.1803 15.1833 35.1803 15.1833 35.1803C15.1834 35.1803 15.1834 35.1803 15.1835 35.1803C15.1835 35.1803 15.1836 35.1803 15.1836 35.1803C15.1837 35.1803 15.1837 35.1803 15.1837 35.1803C15.1838 35.1803 15.1838 35.1803 15.1839 35.1803C15.1839 35.1803 15.184 35.1803 15.184 35.1803C15.1841 35.1803 15.1841 35.1803 15.1841 35.1803C15.1842 35.1803 15.1842 35.1803 15.1843 35.1803C15.1843 35.1803 15.1844 35.1803 15.1844 35.1803C15.1845 35.1803 15.1845 35.1803 15.1845 35.1803C15.1846 35.1803 15.1846 35.1803 15.1847 35.1803C15.1847 35.1803 15.1848 35.1803 15.1848 35.1803C15.1849 35.1803 15.1849 35.1803 15.1849 35.1803C15.185 35.1803 15.185 35.1803 15.1851 35.1803C15.1851 35.1803 15.1852 35.1803 15.1852 35.1803C15.1853 35.1803 15.1853 35.1803 15.1854 35.1803C15.1854 35.1803 15.1854 35.1803 15.1855 35.1803C15.1855 35.1803 15.1856 35.1803 15.1856 35.1803C15.1857 35.1803 15.1857 35.1803 15.1858 35.1803C15.1858 35.1803 15.1858 35.1803 15.1859 35.1803C15.1859 35.1803 15.186 35.1803 15.186 35.1803C15.1861 35.1803 15.1861 35.1803 15.1862 35.1803C15.1862 35.1803 15.1862 35.1803 15.1863 35.1803C15.1863 35.1803 15.1864 35.1803 15.1864 35.1803C15.1865 35.1803 15.1865 35.1803 15.1866 35.1803C15.1866 35.1803 15.1867 35.1803 15.1867 35.1803C15.1867 35.1803 15.1868 35.1803 15.1868 35.1803C15.1869 35.1803 15.1869 35.1803 15.187 35.1803C15.187 35.1803 15.1871 35.1803 15.1871 35.1803C15.1871 35.1803 15.1872 35.1803 15.1872 35.1803C15.1873 35.1803 15.1873 35.1803 15.1874 35.1803C15.1874 35.1803 15.1875 35.1803 15.1875 35.1803C15.1875 35.1803 15.1876 35.1803 15.1876 35.1803C15.1877 35.1803 15.1877 35.1803 15.1878 35.1803C15.1878 35.1803 15.1879 35.1803 15.1879 35.1803C15.188 35.1803 15.188 35.1803 15.188 35.1803C15.1881 35.1803 15.1881 35.1803 15.1882 35.1803C15.1882 35.1803 15.1883 35.1803 15.1883 35.1803C15.1884 35.1803 15.1884 35.1803 15.1884 35.1803C15.1885 35.1803 15.1885 35.1803 15.1886 35.1803C15.1886 35.1803 15.1887 35.1803 15.1887 35.1803C15.1888 35.1803 15.1888 35.1803 15.1889 35.1803C15.1889 35.1803 15.1889 35.1803 15.189 35.1803C15.189 35.1803 15.1891 35.1803 15.1891 35.1803C15.1892 35.1803 15.1892 35.1803 15.1893 35.1803C15.1893 35.1803 15.1893 35.1803 15.1894 35.1803C15.1894 35.1803 15.1895 35.1803 15.1895 35.1803C15.1896 35.1803 15.1896 35.1803 15.1897 35.1803C15.1897 35.1803 15.1898 35.1803 15.1898 35.1803C15.1898 35.1803 15.1899 35.1803 15.1899 35.1803C15.19 35.1803 15.19 35.1803 15.1901 35.1803C15.1901 35.1803 15.1902 35.1803 15.1902 35.1803C15.1902 35.1803 15.1903 35.1803 15.1903 35.1803C15.1904 35.1803 15.1904 35.1803 15.1905 35.1803C15.1905 35.1803 15.1906 35.1803 15.1906 35.1803C15.1906 35.1803 15.1907 35.1803 15.1907 35.1803C15.1908 35.1803 15.1908 35.1803 15.1909 35.1803C15.1909 35.1803 15.191 35.1803 15.191 35.1803C15.1911 35.1803 15.1911 35.1803 15.1911 35.1803C15.1912 35.1803 15.1912 35.1803 15.1913 35.1803C15.1913 35.1803 15.1914 35.1803 15.1914 35.1803C15.1915 35.1803 15.1915 35.1803 15.1915 35.1803C15.1916 35.1803 15.1916 35.1803 15.1917 35.1803C15.1917 35.1803 15.1918 35.1803 15.1918 35.1803C15.1919 35.1803 15.1919 35.1803 15.192 35.1803C15.192 35.1803 15.192 35.1803 15.1921 35.1803C15.1921 35.1803 15.1922 35.1803 15.1922 35.1803C15.1923 35.1803 15.1923 35.1803 15.1924 35.1803C15.1924 35.1803 15.1924 35.1803 15.1925 35.1803C15.1925 35.1803 15.1926 35.1803 15.1926 35.1803C15.1927 35.1803 15.1927 35.1803 15.1928 35.1803C15.1928 35.1803 15.1929 35.1803 15.1929 35.1803C15.1929 35.1803 15.193 35.1803 15.193 35.1803C15.1931 35.1803 15.1931 35.1803 15.1932 35.1803C15.1932 35.1803 15.1933 35.1803 15.1933 35.1803C15.1933 35.1803 15.1934 35.1803 15.1934 35.1803C15.1935 35.1803 15.1935 35.1803 15.1936 35.1803C15.1936 35.1803 15.1937 35.1803 15.1937 35.1803C15.1938 35.1803 15.1938 35.1803 15.1938 35.1803C15.1939 35.1803 15.1939 35.1803 15.194 35.1803C15.194 35.1803 15.1941 35.1803 15.1941 35.1803C15.1942 35.1803 15.1942 35.1803 15.1942 35.1803C15.1943 35.1803 15.1943 35.1803 15.1944 35.1803C15.1944 35.1803 15.1945 35.1803 15.1945 35.1803C15.1946 35.1803 15.1946 35.1803 15.1946 35.1803C15.1947 35.1803 15.1947 35.1803 15.1948 35.1803C15.1948 35.1803 15.1949 35.1803 15.1949 35.1803C15.195 35.1803 15.195 35.1803 15.1951 35.1803C15.1951 35.1803 15.1951 35.1803 15.1952 35.1803C15.1952 35.1803 15.1953 35.1803 15.1953 35.1803C15.1954 35.1803 15.1954 35.1803 15.1955 35.1803C15.1955 35.1803 15.1955 35.1803 15.1956 35.1803C15.1956 35.1803 15.1957 35.1803 15.1957 35.1803C15.1958 35.1803 15.1958 35.1803 15.1959 35.1803C15.1959 35.1803 15.1959 35.1803 15.196 35.1803C15.196 35.1803 15.1961 35.1803 15.1961 35.1803C15.1962 35.1803 15.1962 35.1803 15.1963 35.1803C15.1963 35.1803 15.1964 35.1803 15.1964 35.1803C15.1964 35.1803 15.1965 35.1803 15.1965 35.1803C15.1966 35.1803 15.1966 35.1803 15.1967 35.1803C15.1967 35.1803 15.1968 35.1803 15.1968 35.1803C15.1968 35.1803 15.1969 35.1803 15.1969 35.1803C15.197 35.1803 15.197 35.1803 15.1971 35.1803C15.1971 35.1803 15.1972 35.1803 15.1972 35.1803C15.1972 35.1803 15.1973 35.1803 15.1973 35.1803C15.1974 35.1803 15.1974 35.1803 15.1975 35.1803C15.1975 35.1803 15.1976 35.1803 15.1976 35.1803C15.1976 35.1803 15.1977 35.1803 15.1977 35.1803C15.1978 35.1803 15.1978 35.1803 15.1979 35.1803C15.1979 35.1803 15.198 35.1803 15.198 35.1803C15.198 35.1803 15.1981 35.1803 15.1981 35.1803C15.1982 35.1803 15.1982 35.1803 15.1983 35.1803C15.1983 35.1803 15.1984 35.1803 15.1984 35.1803C15.1984 35.1803 15.1985 35.1803 15.1985 35.1803C15.1986 35.1803 15.1986 35.1803 15.1987 35.1803C15.1987 35.1803 15.1988 35.1803 15.1988 35.1803C15.1988 35.1803 15.1989 35.1803 15.1989 35.1803C15.199 35.1803 15.199 35.1803 15.1991 35.1803C15.1991 35.1803 15.1992 35.1803 15.1992 35.1803C15.1992 35.1803 15.1993 35.1803 15.1993 35.1803C15.1994 35.1803 15.1994 35.1803 15.1995 35.1803C15.1995 35.1803 15.1996 35.1803 15.1996 35.1803C15.1996 35.1803 15.1997 35.1803 15.1997 35.1803C15.1998 35.1803 15.1998 35.1803 15.1999 35.1803C15.1999 35.1803 15.2 35.1803 15.2 35.1803C15.2 35.1803 15.2001 35.1803 15.2001 35.1803C15.2002 35.1803 15.2002 35.1803 15.2003 35.1803C15.2003 35.1803 15.2004 35.1803 15.2004 35.1803C15.2004 35.1803 15.2005 35.1803 15.2005 35.1803C15.2006 35.1803 15.2006 35.1803 15.2007 35.1803C15.2007 35.1803 15.2008 35.1803 15.2008 35.1803C15.2008 35.1803 15.2009 35.1803 15.2009 35.1803C15.201 35.1803 15.201 35.1803 15.2011 35.1803C15.2011 35.1803 15.2011 35.1803 15.2012 35.1803C15.2012 35.1803 15.2013 35.1803 15.2013 35.1803C15.2014 35.1803 15.2014 35.1803 15.2015 35.1803C15.2015 35.1803 15.2015 35.1803 15.2016 35.1803C15.2016 35.1803 15.2017 35.1803 15.2017 35.1803C15.2018 35.1803 15.2018 35.1803 15.2019 35.1803C15.2019 35.1803 15.2019 35.1803 15.202 35.1803C15.202 35.1803 15.2021 35.1803 15.2021 35.1803C15.2022 35.1803 15.2022 35.1803 15.2022 35.1803C15.2023 35.1803 15.2023 35.1803 15.2024 35.1803C15.2024 35.1803 15.2025 35.1803 15.2025 35.1803C15.2026 35.1803 15.2026 35.1803 15.2026 35.1803C15.2027 35.1803 15.2027 35.1803 15.2028 35.1803C15.2028 35.1803 15.2029 35.1803 15.2029 35.1803C15.203 35.1803 15.203 35.1803 15.203 35.1803C15.2031 35.1803 15.2031 35.1803 15.2032 35.1803C15.2032 35.1803 15.2033 35.1803 15.2033 35.1803C15.2033 35.1803 15.2034 35.1803 15.2034 35.1803C15.2035 35.1803 15.2035 35.1803 15.2036 35.1803C15.2036 35.1803 15.2037 35.1803 15.2037 35.1803C15.2037 35.1803 15.2038 35.1803 15.2038 35.1803C15.2039 35.1803 15.2039 35.1803 15.204 35.1803C15.204 35.1803 15.204 35.1803 15.2041 35.1803C15.2041 35.1803 15.2042 35.1803 15.2042 35.1803C15.2043 35.1803 15.2043 35.1803 15.2043 35.1803C15.2044 35.1803 15.2044 35.1803 15.2045 35.1803C15.2045 35.1803 15.2046 35.1803 15.2046 35.1803C15.2047 35.1803 15.2047 35.1803 15.2047 35.1803C15.2048 35.1803 15.2048 35.1803 15.2049 35.1803C15.2049 35.1803 15.205 35.1803 15.205 35.1803C15.205 35.1803 15.2051 35.1803 15.2051 35.1803C15.2052 35.1803 15.2052 35.1803 15.2053 35.1803C15.2053 35.1803 15.2053 35.1803 15.2054 35.1803C15.2054 35.1803 15.2055 35.1803 15.2055 35.1803C15.2056 35.1803 15.2056 35.1803 15.2056 35.1803C15.2057 35.1803 15.2057 35.1803 15.2058 35.1803C15.2058 35.1803 15.2059 35.1803 15.2059 35.1803C15.2059 35.1803 15.206 35.1803 15.206 35.1803C15.2061 35.1803 15.2061 35.1803 15.2062 35.1803C15.2062 35.1803 15.2063 35.1803 15.2063 35.1803C15.2063 35.1803 15.2064 35.1803 15.2064 35.1803C15.2065 35.1803 15.2065 35.1803 15.2066 35.1803C15.2066 35.1803 15.2066 35.1803 15.2067 35.1803C15.2067 35.1803 15.2068 35.1803 15.2068 35.1803C15.2069 35.1803 15.2069 35.1803 15.2069 35.1803C15.207 35.1803 15.207 35.1803 15.2071 35.1803C15.2071 35.1803 15.2072 35.1803 15.2072 35.1803C15.2072 35.1803 15.2073 35.1803 15.2073 35.1803C15.2074 35.1803 15.2074 35.1803 15.2075 35.1803C15.2075 35.1803 15.2075 35.1803 15.2076 35.1803C15.2076 35.1803 15.2077 35.1803 15.2077 35.1803C15.2078 35.1803 15.2078 35.1803 15.2078 35.1803C15.2079 35.1803 15.2079 35.1803 15.208 35.1803C15.208 35.1803 15.208 35.1803 15.2081 35.1803C15.2081 35.1803 15.2082 35.1803 15.2082 35.1803C15.2083 35.1803 15.2083 35.1803 15.2083 35.1803C15.2084 35.1803 15.2084 35.1803 15.2085 35.1803C15.2085 35.1803 15.2086 35.1803 15.2086 35.1803C15.2086 35.1803 15.2087 35.1803 15.2087 35.1803C15.2088 35.1803 15.2088 35.1803 15.2089 35.1803C15.2089 35.1803 15.2089 35.1803 15.209 35.1803C15.209 35.1803 15.2091 35.1803 15.2091 35.1803C15.2092 35.1803 15.2092 35.1803 15.2092 35.1803C15.2093 35.1803 15.2093 35.1803 15.2094 35.1803C15.2094 35.1803 15.2094 35.1803 15.2095 35.1803C15.2095 35.1803 15.2096 35.1803 15.2096 35.1803C15.2097 35.1803 15.2097 35.1803 15.2097 35.1803C15.2098 35.1803 15.2098 35.1803 15.2099 35.1803C15.2099 35.1803 15.21 35.1803 15.21 35.1803C15.21 35.1803 15.2101 35.1803 15.2101 35.1803C15.2102 35.1803 15.2102 35.1803 15.2102 35.1803C15.2103 35.1803 15.2103 35.1803 15.2104 35.1803C15.2104 35.1803 15.2105 35.1803 15.2105 35.1803C15.2105 35.1803 15.2106 35.1803 15.2106 35.1803C15.2107 35.1803 15.2107 35.1803 15.2107 35.1803C15.2108 35.1803 15.2108 35.1803 15.2109 35.1803C15.2109 35.1803 15.211 35.1803 15.211 35.1803C15.211 35.1803 15.2111 35.1803 15.2111 35.1803C15.2112 35.1803 15.2112 35.1803 15.2112 35.1803C15.2113 35.1803 15.2113 35.1803 15.2114 35.1803C15.2114 35.1803 15.2115 35.1803 15.2115 35.1803C15.2115 35.1803 15.2116 35.1803 15.2116 35.1803C15.2117 35.1803 15.2117 35.1803 15.2117 35.1803C15.2118 35.1803 15.2118 35.1803 15.2119 35.1803C15.2119 35.1803 15.212 35.1803 15.212 35.1803C15.212 35.1803 15.2121 35.1803 15.2121 35.1803C15.2122 35.1803 15.2122 35.1803 15.2122 35.1803C15.2123 35.1803 15.2123 35.1803 15.2124 35.1803C15.2124 35.1803 15.2124 35.1803 15.2125 35.1803C15.2125 35.1803 15.2126 35.1803 15.2126 35.1803C15.2127 35.1803 15.2127 35.1803 15.2127 35.1803C15.2128 35.1803 15.2128 35.1803 15.2129 35.1803C15.2129 35.1803 15.2129 35.1803 15.213 35.1803C15.213 35.1803 15.2131 35.1803 15.2131 35.1803C15.2131 35.1803 15.2132 35.1803 15.2132 35.1803C15.2133 35.1803 15.2133 35.1803 15.2133 35.1803C15.2134 35.1803 15.2134 35.1803 15.2135 35.1803C15.2135 35.1803 15.2135 35.1803 15.2136 35.1803C15.2136 35.1803 15.2137 35.1803 15.2137 35.1803C15.2138 35.1803 15.2138 35.1803 15.2138 35.1803C15.2139 35.1803 15.2139 35.1803 15.214 35.1803C15.214 35.1803 15.214 35.1803 15.2141 35.1803C15.2141 35.1803 15.2142 35.1803 15.2142 35.1803C15.2142 35.1803 15.2143 35.1803 15.2143 35.1803C15.2144 35.1803 15.2144 35.1803 15.2144 35.1803C15.2145 35.1803 15.2145 35.1803 15.2146 35.1803C15.2146 35.1803 15.2146 35.1803 15.2147 35.1803C15.2147 35.1803 15.2148 35.1803 15.2148 35.1803C15.2148 35.1803 15.2149 35.1803 15.2149 35.1803C15.215 35.1803 15.215 35.1803 15.215 35.1803C15.2151 35.1803 15.2151 35.1803 15.2152 35.1803C15.2152 35.1803 15.2152 35.1803 15.2153 35.1803C15.2153 35.1803 15.2154 35.1803 15.2154 35.1803C15.2154 35.1803 15.2155 35.1803 15.2155 35.1803C15.2156 35.1803 15.2156 35.1803 15.2156 35.1803C15.2157 35.1803 15.2157 35.1803 15.2158 35.1803C15.2158 35.1803 15.2158 35.1803 15.2159 35.1803C15.2159 35.1803 15.216 35.1803 15.216 35.1803C15.216 35.1803 15.2161 35.1803 15.2161 35.1803C15.2162 35.1803 15.2162 35.1803 15.2162 35.1803C15.2163 35.1803 15.2163 35.1803 15.2164 35.1803C15.2164 35.1803 15.2164 35.1803 15.2165 35.1803C15.2165 35.1803 15.2166 35.1803 15.2166 35.1803C15.2166 35.1803 15.2167 35.1803 15.2167 35.1803C15.2167 35.1803 15.2168 35.1803 15.2168 35.1803C15.2169 35.1803 15.2169 35.1803 15.2169 35.1803C15.217 35.1803 15.217 35.1803 15.2171 35.1803C15.2171 35.1803 15.2171 35.1803 15.2172 35.1803C15.2172 35.1803 15.2173 35.1803 15.2173 35.1803C15.2173 35.1803 15.2174 35.1803 15.2174 35.1803C15.2175 35.1803 15.2175 35.1803 15.2175 35.1803C15.2176 35.1803 15.2176 35.1803 15.2176 35.1803C15.2177 35.1803 15.2177 35.1803 15.2178 35.1803C15.2178 35.1803 15.2178 35.1803 15.2179 35.1803C15.2179 35.1803 15.218 35.1803 15.218 35.1803C15.218 35.1803 15.2181 35.1803 15.2181 35.1803C15.2182 35.1803 15.2182 35.1803 15.2182 35.1803C15.2183 35.1803 15.2183 35.1803 15.2183 35.1803C15.2184 35.1803 15.2184 35.1803 15.2185 35.1803C15.2185 35.1803 15.2185 35.1803 15.2186 35.1803C15.2186 35.1803 15.2187 35.1803 15.2187 35.1803C15.2187 35.1803 15.2188 35.1803 15.2188 35.1803C15.2188 35.1803 15.2189 35.1803 15.2189 35.1803C15.219 35.1803 15.219 35.1803 15.219 35.1803C15.2191 35.1803 15.2191 35.1803 15.2191 35.1803C15.2192 35.1803 15.2192 35.1803 15.2193 35.1803C15.2193 35.1803 15.2193 35.1803 15.2194 35.1803C15.2194 35.1803 15.2195 35.1803 15.2195 35.1803C15.2195 35.1803 15.2196 35.1803 15.2196 35.1803C15.2196 35.1803 15.2197 35.1803 15.2197 35.1803C15.2198 35.1803 15.2198 35.1803 15.2198 35.1803C15.2199 35.1803 15.2199 35.1803 15.2199 35.1803C15.22 35.1803 15.22 35.1803 15.2201 35.1803C15.2201 35.1803 15.2201 35.1803 15.2202 35.1803C15.2202 35.1803 15.2202 35.1803 15.2203 35.1803C15.2203 35.1803 15.2204 35.1803 15.2204 35.1803C15.2204 35.1803 15.2205 35.1803 15.2205 35.1803C15.2205 35.1803 15.2206 35.1803 15.2206 35.1803C15.2207 35.1803 15.2207 35.1803 15.2207 35.1803C15.2208 35.1803 15.2208 35.1803 15.2208 35.1803C15.2209 35.1803 15.2209 35.1803 15.221 35.1803C15.221 35.1803 15.221 35.1803 15.2211 35.1803C15.2211 35.1803 15.2211 35.1803 15.2212 35.1803C15.2212 35.1803 15.2212 35.1803 15.2213 35.1803C15.2213 35.1803 15.2214 35.1803 15.2214 35.1803C15.2214 35.1803 15.2215 35.1803 15.2215 35.1803C15.2215 35.1803 15.2216 35.1803 15.2216 35.1803C15.2217 35.1803 15.2217 35.1803 15.2217 35.1803C15.2218 35.1803 15.2218 35.1803 15.2218 35.1803C15.2219 35.1803 15.2219 35.1803 15.2219 35.1803C15.222 35.1803 15.222 35.1803 15.2221 35.1803C15.2221 35.1803 15.2221 35.1803 15.2222 35.1803C15.2222 35.1803 15.2222 35.1803 15.2223 35.1803C15.2223 35.1803 15.2223 35.1803 15.2224 35.1803C15.2224 35.1803 15.2225 35.1803 15.2225 35.1803C15.2225 35.1803 15.2226 35.1803 15.2226 35.1803C15.2226 35.1803 15.2227 35.1803 15.2227 35.1803V34.8513ZM15.1582 34.8513C15.1132 34.8513 15.087 34.8371 15.0717 34.8221C15.0558 34.8067 15.0396 34.7785 15.0369 34.7303L14.7085 34.7486C14.715 34.8662 14.7587 34.9762 14.8418 35.0575C14.9255 35.1392 15.0375 35.1803 15.1582 35.1803V34.8513ZM15.0287 34.6875C15.0292 34.689 15.0288 34.6883 15.0284 34.6843C15.0281 34.6799 15.028 34.6753 15.028 34.6658H14.699C14.699 34.6829 14.698 34.7355 14.7167 34.7915L15.0287 34.6875ZM15.028 34.6658C15.028 34.616 15.0408 34.5919 15.0512 34.5801C15.061 34.5691 15.0851 34.5501 15.147 34.5439L15.1142 34.2166C14.9919 34.2288 14.8825 34.2743 14.8047 34.3623C14.7276 34.4496 14.699 34.559 14.699 34.6658H15.028ZM15.1529 34.5432C16.0377 34.4221 17.2622 34.1149 18.0011 33.7644L17.8601 33.4672C17.1622 33.7983 15.9735 34.0989 15.1083 34.2173L15.1529 34.5432ZM18.0218 33.7526C18.0415 33.7395 18.0615 33.7342 18.0964 33.7342V33.4053C18.0208 33.4053 17.9302 33.4184 17.8394 33.4789L18.0218 33.7526ZM18.0964 33.7342C18.15 33.7342 18.1974 33.7594 18.2307 33.8372L18.5331 33.7076C18.4559 33.5274 18.3007 33.4053 18.0964 33.4053V33.7342ZM18.2292 33.8334C18.239 33.858 18.2451 33.8922 18.2451 33.9197H18.574C18.574 33.8551 18.5617 33.7789 18.5346 33.7113L18.2292 33.8334ZM18.2451 33.9197C18.2451 33.987 18.2055 34.0543 18.1242 34.095L18.2713 34.3892C18.4478 34.301 18.574 34.1288 18.574 33.9197H18.2451ZM18.1335 34.0907C17.8371 34.2164 17.448 34.3523 17.021 34.4704L17.1087 34.7875C17.5474 34.6661 17.9504 34.5257 18.2619 34.3935L18.1335 34.0907ZM16.9003 34.6289V36.2224H17.2293V34.6289H16.9003ZM17.0648 36.3868H18.3727V36.0579H17.0648V36.3868ZM18.3727 36.3868C18.4006 36.3868 18.4173 36.3966 18.4319 36.4162C18.4498 36.4402 18.4661 36.4839 18.4661 36.5447H18.7951C18.7951 36.4306 18.7653 36.3131 18.6957 36.2197C18.6228 36.1218 18.5106 36.0579 18.3727 36.0579V36.3868ZM18.4661 36.5447C18.4661 36.6213 18.4492 36.659 18.4379 36.6738C18.4317 36.6819 18.4209 36.6934 18.3819 36.6934V37.0224C18.5087 37.0224 18.6223 36.974 18.699 36.8739C18.7705 36.7805 18.7951 36.6615 18.7951 36.5447H18.4661ZM18.3819 36.6934H17.0648V37.0224H18.3819V36.6934ZM16.9003 36.8579V38.3316H17.2293V36.8579H16.9003ZM17.0648 38.496H17.5898V38.1671H17.0648V38.496ZM17.5898 38.496C17.8279 38.496 17.9637 38.5426 18.0417 38.614C18.1164 38.6825 18.1714 38.8049 18.1714 39.0408H18.5003C18.5003 38.7609 18.4356 38.5287 18.2639 38.3715C18.0955 38.2173 17.8583 38.1671 17.5898 38.1671V38.496ZM18.1714 39.0408V41.0855H18.5003V39.0408H18.1714ZM18.1714 41.0855C18.1714 41.3305 18.1142 41.46 18.0346 41.5332C17.9519 41.6092 17.8092 41.6579 17.5622 41.6579V41.9868C17.8402 41.9868 18.0843 41.9342 18.2572 41.7754C18.4332 41.6136 18.5003 41.3747 18.5003 41.0855H18.1714ZM17.5622 41.6579H15.8767V41.9868H17.5622V41.6579ZM15.8767 41.6579C15.6297 41.6579 15.4869 41.6092 15.4042 41.5332C15.3246 41.46 15.2674 41.3305 15.2674 41.0855H14.9385C14.9385 41.3747 15.0056 41.6136 15.1817 41.7754C15.3545 41.9342 15.5986 41.9868 15.8767 41.9868V41.6579ZM15.2674 41.0855V39.0408H14.9385V41.0855H15.2674ZM15.2674 39.0408C15.2674 38.8049 15.3224 38.6825 15.3971 38.614C15.4751 38.5426 15.6109 38.496 15.849 38.496V38.1671C15.5806 38.1671 15.3433 38.2173 15.1749 38.3715C15.0033 38.5287 14.9385 38.7609 14.9385 39.0408H15.2674ZM15.849 38.496H16.4017V38.1671H15.849V38.496ZM16.5661 38.3316V36.8579H16.2372V38.3316H16.5661ZM16.4017 36.6934H15.0201V37.0224H16.4017V36.6934ZM15.0201 36.6934C14.9846 36.6934 14.9695 36.6821 14.9589 36.6684C14.9443 36.6496 14.9267 36.6086 14.9267 36.5355H14.5977C14.5977 36.6559 14.6261 36.7761 14.699 36.87C14.7759 36.9692 14.8898 37.0224 15.0201 37.0224V36.6934ZM14.9267 36.5355C14.9267 36.4687 14.9435 36.4301 14.9579 36.412C14.9686 36.3984 14.9844 36.3868 15.0201 36.3868V36.0579C14.89 36.0579 14.7768 36.1108 14.7 36.2078C14.6269 36.3002 14.5977 36.4181 14.5977 36.5355H14.9267ZM15.0201 36.3868H16.4017V36.0579H15.0201V36.3868ZM15.6201 39.1789V40.9566H15.949V39.1789H15.6201ZM15.6201 40.9566C15.6201 41.0689 15.645 41.1886 15.7431 41.2712C15.8337 41.3475 15.9518 41.3605 16.0517 41.3605V41.0316C16.0127 41.0316 15.987 41.0285 15.9705 41.0246C15.9547 41.0208 15.9524 41.0174 15.955 41.0196C15.9656 41.0285 15.949 41.0285 15.949 40.9566H15.6201ZM16.0517 41.3605H17.4332V41.0316H16.0517V41.3605ZM17.4332 41.3605C17.5266 41.3605 17.6472 41.3486 17.7313 41.2558C17.8106 41.1683 17.8188 41.0491 17.8188 40.9566H17.4898C17.4898 40.9974 17.4871 41.0215 17.484 41.0353C17.4811 41.048 17.4798 41.0435 17.4875 41.0349C17.4961 41.0255 17.5035 41.0244 17.4975 41.0261C17.489 41.0285 17.4701 41.0316 17.4332 41.0316V41.3605ZM17.8188 40.9566V39.1789H17.4898V40.9566H17.8188ZM17.8188 39.1789C17.8188 39.0844 17.8115 38.9619 17.7295 38.8743C17.6437 38.7826 17.5209 38.775 17.4332 38.775V39.1039C17.4718 39.1039 17.4917 39.1067 17.5012 39.1091C17.5082 39.1109 17.4994 39.1099 17.4893 39.099C17.4799 39.089 17.4809 39.0829 17.4839 39.0958C17.487 39.1101 17.4898 39.1354 17.4898 39.1789H17.8188ZM17.4332 38.775H16.0517V39.1039H17.4332V38.775ZM16.0517 38.775C15.9566 38.775 15.837 38.7842 15.7451 38.8592C15.6437 38.9419 15.6201 39.0648 15.6201 39.1789H15.949C15.949 39.0997 15.9668 39.1028 15.953 39.1141C15.9492 39.1172 15.9506 39.114 15.9672 39.1104C15.9846 39.1066 16.0112 39.1039 16.0517 39.1039V38.775ZM19.1556 35.7539H18.5938V36.0829H19.1556V35.7539ZM18.5938 35.7539C18.5689 35.7539 18.5512 35.745 18.5358 35.7252C18.5179 35.7022 18.5003 35.6595 18.5003 35.596H18.1714C18.1714 35.7168 18.2045 35.8353 18.2764 35.9275C18.3508 36.0228 18.4621 36.0829 18.5938 36.0829V35.7539ZM18.5003 35.596C18.5003 35.5231 18.5179 35.4849 18.5307 35.4687C18.5396 35.4573 18.5525 35.4474 18.5845 35.4474V35.1184C18.46 35.1184 18.3485 35.1683 18.2723 35.2652C18.1998 35.3572 18.1714 35.4756 18.1714 35.596H18.5003ZM18.5845 35.4474H19.1556V35.1184H18.5845V35.4474ZM19.3201 35.2829V33.8645H18.9911V35.2829H19.3201ZM19.3201 33.8645C19.3201 33.8427 19.3243 33.8306 19.3275 33.8242C19.3305 33.8181 19.3354 33.8116 19.3453 33.8048C19.3679 33.789 19.4172 33.771 19.5056 33.771V33.4421C19.3821 33.4421 19.2564 33.4656 19.157 33.535C19.0489 33.6105 18.9911 33.727 18.9911 33.8645H19.3201ZM19.5056 33.771C19.594 33.771 19.6433 33.789 19.6659 33.8048C19.6758 33.8116 19.6807 33.8181 19.6837 33.8242C19.6869 33.8306 19.6911 33.8427 19.6911 33.8645H20.0201C20.0201 33.727 19.9623 33.6105 19.8542 33.535C19.7548 33.4656 19.6291 33.4421 19.5056 33.4421V33.771ZM19.6911 33.8645V35.2829H20.0201V33.8645H19.6911ZM19.8556 35.4474H21.8635V35.1184H19.8556V35.4474ZM22.028 35.2829V33.8645H21.699V35.2829H22.028ZM22.028 33.8645C22.028 33.8427 22.0322 33.8306 22.0354 33.8242C22.0384 33.8181 22.0433 33.8116 22.0532 33.8048C22.0758 33.789 22.1251 33.771 22.2135 33.771V33.4421C22.09 33.4421 21.9643 33.4656 21.8649 33.535C21.7568 33.6105 21.699 33.727 21.699 33.8645H22.028ZM22.2135 33.771C22.3019 33.771 22.3512 33.789 22.3738 33.8048C22.3837 33.8116 22.3886 33.8181 22.3916 33.8242C22.3948 33.8306 22.399 33.8427 22.399 33.8645H22.728C22.728 33.727 22.6702 33.6105 22.5621 33.535C22.4627 33.4656 22.337 33.4421 22.2135 33.4421V33.771ZM22.399 33.8645V35.2829H22.728V33.8645H22.399ZM22.5635 35.4474H23.0977V35.1184H22.5635V35.4474ZM23.0977 35.4474C23.1332 35.4474 23.1483 35.4587 23.1589 35.4723C23.1735 35.4912 23.1911 35.5322 23.1911 35.6053H23.5201C23.5201 35.4849 23.4917 35.3647 23.4188 35.2707C23.3419 35.1715 23.228 35.1184 23.0977 35.1184V35.4474ZM23.1911 35.6053C23.1911 35.6721 23.1742 35.7107 23.1599 35.7288C23.1492 35.7423 23.1334 35.7539 23.0977 35.7539V36.0829C23.2278 36.0829 23.341 36.03 23.4178 35.933C23.4909 35.8406 23.5201 35.7226 23.5201 35.6053H23.1911ZM23.0977 35.7539H22.5635V36.0829H23.0977V35.7539ZM22.399 35.9184V41.0763H22.728V35.9184H22.399ZM22.399 41.0763C22.399 41.3213 22.3418 41.4508 22.2622 41.524C22.1795 41.6 22.0368 41.6487 21.7898 41.6487V41.9776C22.0678 41.9776 22.312 41.925 22.4848 41.7662C22.6608 41.6044 22.728 41.3655 22.728 41.0763H22.399ZM21.7898 41.6487H19.9201V41.9776H21.7898V41.6487ZM19.9201 41.6487C19.6783 41.6487 19.538 41.6002 19.4563 41.5245C19.3773 41.4512 19.3201 41.3213 19.3201 41.0763H18.9911C18.9911 41.3655 19.0583 41.604 19.2326 41.7657C19.4042 41.9248 19.646 41.9776 19.9201 41.9776V41.6487ZM19.3201 41.0763V35.9184H18.9911V41.0763H19.3201ZM19.6911 38.6632V40.9382H20.0201V38.6632H19.6911ZM19.6911 40.9382C19.6911 41.0504 19.716 41.1702 19.8141 41.2528C19.9048 41.3291 20.0229 41.3421 20.1227 41.3421V41.0132C20.0838 41.0132 20.0581 41.0101 20.0415 41.0062C20.0258 41.0024 20.0235 40.999 20.026 41.0012C20.0366 41.0101 20.0201 41.0101 20.0201 40.9382H19.6911ZM20.1227 41.3421H21.5872V41.0132H20.1227V41.3421ZM21.5872 41.3421C21.6877 41.3421 21.8054 41.3288 21.8972 41.2554C21.9982 41.1746 22.028 41.0553 22.028 40.9382H21.699C21.699 41.0052 21.6827 41.0057 21.6917 40.9985C21.6926 40.9978 21.6881 41.0019 21.6707 41.0059C21.6527 41.0101 21.626 41.0132 21.5872 41.0132V41.3421ZM22.028 40.9382V38.6632H21.699V40.9382H22.028ZM21.8635 38.4987H19.8556V38.8276H21.8635V38.4987ZM22.028 38.0368V35.9184H21.699V38.0368H22.028ZM21.8635 35.7539H19.8556V36.0829H21.8635V35.7539ZM19.6911 35.9184V38.0368H20.0201V35.9184H19.6911ZM19.8556 38.2013H21.8635V37.8724H19.8556V38.2013Z" fill="#FFA518" mask="url(#path-7-outside-1_2181_11158)"/>
<ellipse cx="1.64474" cy="1.67562" rx="1.64474" ry="1.67562" transform="matrix(0.999947 -0.0103167 -0.0173517 0.999849 33.1196 23.2432)" fill="#FFA518"/>
<ellipse cx="1.64474" cy="1.67562" rx="1.64474" ry="1.67562" transform="matrix(0.999947 -0.0103167 -0.0173517 0.999849 48.0591 23.5103)" fill="#FFA518"/>
<path d="M36.1109 31.8664C37.9978 32.8331 40.024 33.2798 42.0389 33.1683C44.1043 33.0541 46.0955 32.357 47.8582 31.1367C48.1974 30.9018 48.2681 30.3767 48.039 29.9534C47.7807 29.4761 47.2502 29.3159 46.8727 29.5678C45.3538 30.5815 43.6513 31.1603 41.8889 31.2577C40.1392 31.3545 38.3809 30.9741 36.7401 30.1494C36.3013 29.9288 35.8097 30.095 35.633 30.5681C35.4574 31.0385 35.6629 31.6369 36.1109 31.8664Z" fill="#FFA518" stroke="#FFA518" stroke-width="0.164474"/>
</svg>
