<svg width="2017" height="439" viewBox="0 0 2017 439" fill="none" xmlns="http://www.w3.org/2000/svg">
<rect x="14" y="24.5" width="450" height="393" rx="60" fill="#FCDC94"/>
<rect x="14" y="24.5" width="450" height="393" rx="60" stroke="#59391D" stroke-width="28"/>
<path d="M466 76.2292C466 110.87 416.753 138.947 356 138.947C295.247 138.947 246 110.87 246 76.2292C246 41.5883 295.247 13.5117 356 13.5117C416.753 13.5117 466 41.5883 466 76.2292Z" fill="#FCDC94" stroke="#59391D" stroke-width="26.4" stroke-linecap="round" stroke-linejoin="round"/>
<path d="M356 53.7973C389 39.0273 411 62.8181 411 73.9505C411 107.086 301 105.362 301 64.5429C301 39.6231 323 13.5117 356 13.5117" fill="#FCDC94"/>
<path d="M356 53.7973C389 39.0273 411 62.8181 411 73.9505C411 107.086 301 105.362 301 64.5429C301 39.6231 323 13.5117 356 13.5117" stroke="#59391D" stroke-width="26.4" stroke-linecap="round" stroke-linejoin="round"/>
<mask id="path-5-outside-1_280_4083" maskUnits="userSpaceOnUse" x="69" y="292.678" width="82" height="79" fill="black">
<rect fill="white" x="69" y="292.678" width="82" height="79"/>
<path d="M86.1237 319.003V306.154C82.3934 306.983 78.7461 307.646 75.5132 308.144C75.3474 308.144 75.0987 308.144 74.9329 308.144C73.4408 308.144 72.446 307.149 72.3632 305.657C72.2803 305.408 72.2803 305.159 72.2803 304.994C72.2803 303.584 73.0263 302.59 74.6842 302.424C82.5592 301.346 93.4184 298.611 99.8842 295.544C100.382 295.212 100.879 295.129 101.376 295.129C102.537 295.129 103.449 295.792 103.946 296.953C104.112 297.367 104.195 297.865 104.195 298.279C104.195 299.522 103.449 300.6 102.288 301.18C99.5526 302.341 95.9882 303.584 92.0921 304.662V319.003H103.863C105.355 319.003 106.184 320.329 106.184 321.904C106.184 323.645 105.438 324.722 103.946 324.722H92.0921V337.986H96.8171C101.376 337.986 103.532 339.726 103.532 344.369V362.771C103.532 367.579 101.293 369.403 96.5684 369.403H81.3987C76.6737 369.403 74.4355 367.579 74.4355 362.771V344.369C74.4355 339.726 76.5908 337.986 81.15 337.986H86.1237V324.722H73.6895C72.1974 324.722 71.3684 323.562 71.3684 321.821C71.3684 320.163 72.1974 319.003 73.6895 319.003H86.1237ZM80.5697 345.612V361.611C80.5697 363.269 81.3158 363.766 82.9737 363.766H95.4079C96.9829 363.766 97.3974 363.269 97.3974 361.611V345.612C97.3974 343.871 96.9829 343.457 95.4079 343.457H82.9737C81.3158 343.457 80.5697 343.871 80.5697 345.612ZM110.909 316.267H105.853C104.443 316.267 103.532 315.024 103.532 313.366C103.532 311.625 104.361 310.547 105.77 310.547H110.909V297.782C110.909 296.207 112.153 295.461 114.059 295.461C115.966 295.461 117.209 296.207 117.209 297.782V310.547H135.28V297.782C135.28 296.207 136.524 295.461 138.43 295.461C140.337 295.461 141.58 296.207 141.58 297.782V310.547H146.388C147.88 310.547 148.709 311.708 148.709 313.449C148.709 315.107 147.88 316.267 146.388 316.267H141.58V362.688C141.58 367.496 139.342 369.32 134.617 369.32H117.789C113.147 369.32 110.909 367.496 110.909 362.688V316.267ZM117.209 340.97V361.445C117.209 363.103 117.955 363.6 119.613 363.6H132.793C134.451 363.6 135.28 363.103 135.28 361.445V340.97H117.209ZM135.28 335.333V316.267H117.209V335.333H135.28Z"/>
</mask>
<path d="M86.1237 319.003V306.154C82.3934 306.983 78.7461 307.646 75.5132 308.144C75.3474 308.144 75.0987 308.144 74.9329 308.144C73.4408 308.144 72.446 307.149 72.3632 305.657C72.2803 305.408 72.2803 305.159 72.2803 304.994C72.2803 303.584 73.0263 302.59 74.6842 302.424C82.5592 301.346 93.4184 298.611 99.8842 295.544C100.382 295.212 100.879 295.129 101.376 295.129C102.537 295.129 103.449 295.792 103.946 296.953C104.112 297.367 104.195 297.865 104.195 298.279C104.195 299.522 103.449 300.6 102.288 301.18C99.5526 302.341 95.9882 303.584 92.0921 304.662V319.003H103.863C105.355 319.003 106.184 320.329 106.184 321.904C106.184 323.645 105.438 324.722 103.946 324.722H92.0921V337.986H96.8171C101.376 337.986 103.532 339.726 103.532 344.369V362.771C103.532 367.579 101.293 369.403 96.5684 369.403H81.3987C76.6737 369.403 74.4355 367.579 74.4355 362.771V344.369C74.4355 339.726 76.5908 337.986 81.15 337.986H86.1237V324.722H73.6895C72.1974 324.722 71.3684 323.562 71.3684 321.821C71.3684 320.163 72.1974 319.003 73.6895 319.003H86.1237ZM80.5697 345.612V361.611C80.5697 363.269 81.3158 363.766 82.9737 363.766H95.4079C96.9829 363.766 97.3974 363.269 97.3974 361.611V345.612C97.3974 343.871 96.9829 343.457 95.4079 343.457H82.9737C81.3158 343.457 80.5697 343.871 80.5697 345.612ZM110.909 316.267H105.853C104.443 316.267 103.532 315.024 103.532 313.366C103.532 311.625 104.361 310.547 105.77 310.547H110.909V297.782C110.909 296.207 112.153 295.461 114.059 295.461C115.966 295.461 117.209 296.207 117.209 297.782V310.547H135.28V297.782C135.28 296.207 136.524 295.461 138.43 295.461C140.337 295.461 141.58 296.207 141.58 297.782V310.547H146.388C147.88 310.547 148.709 311.708 148.709 313.449C148.709 315.107 147.88 316.267 146.388 316.267H141.58V362.688C141.58 367.496 139.342 369.32 134.617 369.32H117.789C113.147 369.32 110.909 367.496 110.909 362.688V316.267ZM117.209 340.97V361.445C117.209 363.103 117.955 363.6 119.613 363.6H132.793C134.451 363.6 135.28 363.103 135.28 361.445V340.97H117.209ZM135.28 335.333V316.267H117.209V335.333H135.28Z" fill="#59391D"/>
<path d="M86.1237 319.003V320.483H87.6039V319.003H86.1237ZM86.1237 306.154H87.6039V304.309L85.8026 304.709L86.1237 306.154ZM75.5132 308.144V309.624H75.6264L75.7382 309.607L75.5132 308.144ZM72.3632 305.657L73.8411 305.575L73.8301 305.377L73.7675 305.189L72.3632 305.657ZM74.6842 302.424L74.8315 303.897L74.8583 303.894L74.8849 303.89L74.6842 302.424ZM99.8842 295.544L100.519 296.881L100.616 296.835L100.705 296.775L99.8842 295.544ZM103.946 296.953L105.32 296.403L105.314 296.386L105.307 296.37L103.946 296.953ZM102.288 301.18L102.866 302.543L102.909 302.525L102.95 302.504L102.288 301.18ZM92.0921 304.662L91.6975 303.235L90.6118 303.536V304.662H92.0921ZM92.0921 319.003H90.6118V320.483H92.0921V319.003ZM92.0921 324.722V323.242H90.6118V324.722H92.0921ZM92.0921 337.986H90.6118V339.466H92.0921V337.986ZM86.1237 337.986V339.466H87.6039V337.986H86.1237ZM86.1237 324.722H87.6039V323.242H86.1237V324.722ZM110.909 316.267H112.389V314.787H110.909V316.267ZM110.909 310.547V312.028H112.389V310.547H110.909ZM117.209 310.547H115.729V312.028H117.209V310.547ZM135.28 310.547V312.028H136.761V310.547H135.28ZM141.58 310.547H140.1V312.028H141.58V310.547ZM141.58 316.267V314.787H140.1V316.267H141.58ZM117.209 340.97V339.49H115.729V340.97H117.209ZM135.28 340.97H136.761V339.49H135.28V340.97ZM135.28 335.333V336.813H136.761V335.333H135.28ZM135.28 316.267H136.761V314.787H135.28V316.267ZM117.209 316.267V314.787H115.729V316.267H117.209ZM117.209 335.333H115.729V336.813H117.209V335.333ZM87.6039 319.003V306.154H84.6434V319.003H87.6039ZM85.8026 304.709C82.1073 305.53 78.4922 306.188 75.2881 306.68L75.7382 309.607C78.9999 309.105 82.6795 308.436 86.4448 307.599L85.8026 304.709ZM75.5132 306.663C75.5128 306.663 75.5125 306.663 75.5122 306.663C75.5119 306.663 75.5115 306.663 75.5112 306.663C75.5109 306.663 75.5106 306.663 75.5102 306.663C75.5099 306.663 75.5096 306.663 75.5093 306.663C75.5089 306.663 75.5086 306.663 75.5083 306.663C75.5079 306.663 75.5076 306.663 75.5073 306.663C75.507 306.663 75.5066 306.663 75.5063 306.663C75.506 306.663 75.5057 306.663 75.5053 306.663C75.505 306.663 75.5047 306.663 75.5043 306.663C75.504 306.663 75.5037 306.663 75.5033 306.663C75.503 306.663 75.5027 306.663 75.5024 306.663C75.502 306.663 75.5017 306.663 75.5014 306.663C75.501 306.663 75.5007 306.663 75.5004 306.663C75.5 306.663 75.4997 306.663 75.4994 306.663C75.499 306.663 75.4987 306.663 75.4984 306.663C75.498 306.663 75.4977 306.663 75.4974 306.663C75.497 306.663 75.4967 306.663 75.4964 306.663C75.496 306.663 75.4957 306.663 75.4954 306.663C75.495 306.663 75.4947 306.663 75.4944 306.663C75.494 306.663 75.4937 306.663 75.4934 306.663C75.493 306.663 75.4927 306.663 75.4923 306.663C75.492 306.663 75.4917 306.663 75.4913 306.663C75.491 306.663 75.4907 306.663 75.4903 306.663C75.49 306.663 75.4896 306.663 75.4893 306.663C75.489 306.663 75.4886 306.663 75.4883 306.663C75.488 306.663 75.4876 306.663 75.4873 306.663C75.4869 306.663 75.4866 306.663 75.4863 306.663C75.4859 306.663 75.4856 306.663 75.4852 306.663C75.4849 306.663 75.4846 306.663 75.4842 306.663C75.4839 306.663 75.4835 306.663 75.4832 306.663C75.4829 306.663 75.4825 306.663 75.4822 306.663C75.4818 306.663 75.4815 306.663 75.4811 306.663C75.4808 306.663 75.4805 306.663 75.4801 306.663C75.4798 306.663 75.4794 306.663 75.4791 306.663C75.4787 306.663 75.4784 306.663 75.478 306.663C75.4777 306.663 75.4774 306.663 75.477 306.663C75.4767 306.663 75.4763 306.663 75.476 306.663C75.4756 306.663 75.4753 306.663 75.4749 306.663C75.4746 306.663 75.4742 306.663 75.4739 306.663C75.4736 306.663 75.4732 306.663 75.4729 306.663C75.4725 306.663 75.4722 306.663 75.4718 306.663C75.4715 306.663 75.4711 306.663 75.4708 306.663C75.4704 306.663 75.4701 306.663 75.4697 306.663C75.4694 306.663 75.469 306.663 75.4687 306.663C75.4683 306.663 75.468 306.663 75.4676 306.663C75.4673 306.663 75.4669 306.663 75.4666 306.663C75.4662 306.663 75.4659 306.663 75.4655 306.663C75.4652 306.663 75.4648 306.663 75.4645 306.663C75.4641 306.663 75.4638 306.663 75.4634 306.663C75.4631 306.663 75.4627 306.663 75.4624 306.663C75.462 306.663 75.4617 306.663 75.4613 306.663C75.461 306.663 75.4606 306.663 75.4602 306.663C75.4599 306.663 75.4595 306.663 75.4592 306.663C75.4588 306.663 75.4585 306.663 75.4581 306.663C75.4578 306.663 75.4574 306.663 75.4571 306.663C75.4567 306.663 75.4564 306.663 75.456 306.663C75.4556 306.663 75.4553 306.663 75.4549 306.663C75.4546 306.663 75.4542 306.663 75.4539 306.663C75.4535 306.663 75.4531 306.663 75.4528 306.663C75.4524 306.663 75.4521 306.663 75.4517 306.663C75.4514 306.663 75.451 306.663 75.4506 306.663C75.4503 306.663 75.4499 306.663 75.4496 306.663C75.4492 306.663 75.4489 306.663 75.4485 306.663C75.4481 306.663 75.4478 306.663 75.4474 306.663C75.4471 306.663 75.4467 306.663 75.4463 306.663C75.446 306.663 75.4456 306.663 75.4453 306.663C75.4449 306.663 75.4445 306.663 75.4442 306.663C75.4438 306.663 75.4435 306.663 75.4431 306.663C75.4427 306.663 75.4424 306.663 75.442 306.663C75.4417 306.663 75.4413 306.663 75.4409 306.663C75.4406 306.663 75.4402 306.663 75.4398 306.663C75.4395 306.663 75.4391 306.663 75.4388 306.663C75.4384 306.663 75.438 306.663 75.4377 306.663C75.4373 306.663 75.4369 306.663 75.4366 306.663C75.4362 306.663 75.4358 306.663 75.4355 306.663C75.4351 306.663 75.4348 306.663 75.4344 306.663C75.434 306.663 75.4337 306.663 75.4333 306.663C75.4329 306.663 75.4326 306.663 75.4322 306.663C75.4318 306.663 75.4315 306.663 75.4311 306.663C75.4307 306.663 75.4304 306.663 75.43 306.663C75.4296 306.663 75.4293 306.663 75.4289 306.663C75.4285 306.663 75.4282 306.663 75.4278 306.663C75.4274 306.663 75.4271 306.663 75.4267 306.663C75.4263 306.663 75.426 306.663 75.4256 306.663C75.4252 306.663 75.4249 306.663 75.4245 306.663C75.4241 306.663 75.4238 306.663 75.4234 306.663C75.423 306.663 75.4226 306.663 75.4223 306.663C75.4219 306.663 75.4215 306.663 75.4212 306.663C75.4208 306.663 75.4204 306.663 75.4201 306.663C75.4197 306.663 75.4193 306.663 75.4189 306.663C75.4186 306.663 75.4182 306.663 75.4178 306.663C75.4175 306.663 75.4171 306.663 75.4167 306.663C75.4163 306.663 75.416 306.663 75.4156 306.663C75.4152 306.663 75.4149 306.663 75.4145 306.663C75.4141 306.663 75.4137 306.663 75.4134 306.663C75.413 306.663 75.4126 306.663 75.4122 306.663C75.4119 306.663 75.4115 306.663 75.4111 306.663C75.4108 306.663 75.4104 306.663 75.41 306.663C75.4096 306.663 75.4093 306.663 75.4089 306.663C75.4085 306.663 75.4081 306.663 75.4078 306.663C75.4074 306.663 75.407 306.663 75.4066 306.663C75.4063 306.663 75.4059 306.663 75.4055 306.663C75.4051 306.663 75.4048 306.663 75.4044 306.663C75.404 306.663 75.4036 306.663 75.4033 306.663C75.4029 306.663 75.4025 306.663 75.4021 306.663C75.4018 306.663 75.4014 306.663 75.401 306.663C75.4006 306.663 75.4002 306.663 75.3999 306.663C75.3995 306.663 75.3991 306.663 75.3987 306.663C75.3984 306.663 75.398 306.663 75.3976 306.663C75.3972 306.663 75.3968 306.663 75.3965 306.663C75.3961 306.663 75.3957 306.663 75.3953 306.663C75.3949 306.663 75.3946 306.663 75.3942 306.663C75.3938 306.663 75.3934 306.663 75.3931 306.663C75.3927 306.663 75.3923 306.663 75.3919 306.663C75.3915 306.663 75.3912 306.663 75.3908 306.663C75.3904 306.663 75.39 306.663 75.3896 306.663C75.3893 306.663 75.3889 306.663 75.3885 306.663C75.3881 306.663 75.3877 306.663 75.3873 306.663C75.387 306.663 75.3866 306.663 75.3862 306.663C75.3858 306.663 75.3854 306.663 75.3851 306.663C75.3847 306.663 75.3843 306.663 75.3839 306.663C75.3835 306.663 75.3831 306.663 75.3828 306.663C75.3824 306.663 75.382 306.663 75.3816 306.663C75.3812 306.663 75.3809 306.663 75.3805 306.663C75.3801 306.663 75.3797 306.663 75.3793 306.663C75.3789 306.663 75.3785 306.663 75.3782 306.663C75.3778 306.663 75.3774 306.663 75.377 306.663C75.3766 306.663 75.3762 306.663 75.3759 306.663C75.3755 306.663 75.3751 306.663 75.3747 306.663C75.3743 306.663 75.3739 306.663 75.3736 306.663C75.3732 306.663 75.3728 306.663 75.3724 306.663C75.372 306.663 75.3716 306.663 75.3712 306.663C75.3709 306.663 75.3705 306.663 75.3701 306.663C75.3697 306.663 75.3693 306.663 75.3689 306.663C75.3685 306.663 75.3681 306.663 75.3678 306.663C75.3674 306.663 75.367 306.663 75.3666 306.663C75.3662 306.663 75.3658 306.663 75.3654 306.663C75.3651 306.663 75.3647 306.663 75.3643 306.663C75.3639 306.663 75.3635 306.663 75.3631 306.663C75.3627 306.663 75.3623 306.663 75.362 306.663C75.3616 306.663 75.3612 306.663 75.3608 306.663C75.3604 306.663 75.36 306.663 75.3596 306.663C75.3592 306.663 75.3588 306.663 75.3585 306.663C75.3581 306.663 75.3577 306.663 75.3573 306.663C75.3569 306.663 75.3565 306.663 75.3561 306.663C75.3557 306.663 75.3553 306.663 75.3549 306.663C75.3546 306.663 75.3542 306.663 75.3538 306.663C75.3534 306.663 75.353 306.663 75.3526 306.663C75.3522 306.663 75.3518 306.663 75.3514 306.663C75.351 306.663 75.3507 306.663 75.3503 306.663C75.3499 306.663 75.3495 306.663 75.3491 306.663C75.3487 306.663 75.3483 306.663 75.3479 306.663C75.3475 306.663 75.3471 306.663 75.3467 306.663C75.3464 306.663 75.346 306.663 75.3456 306.663C75.3452 306.663 75.3448 306.663 75.3444 306.663C75.344 306.663 75.3436 306.663 75.3432 306.663C75.3428 306.663 75.3424 306.663 75.342 306.663C75.3416 306.663 75.3413 306.663 75.3409 306.663C75.3405 306.663 75.3401 306.663 75.3397 306.663C75.3393 306.663 75.3389 306.663 75.3385 306.663C75.3381 306.663 75.3377 306.663 75.3373 306.663C75.3369 306.663 75.3365 306.663 75.3361 306.663C75.3357 306.663 75.3354 306.663 75.335 306.663C75.3346 306.663 75.3342 306.663 75.3338 306.663C75.3334 306.663 75.333 306.663 75.3326 306.663C75.3322 306.663 75.3318 306.663 75.3314 306.663C75.331 306.663 75.3306 306.663 75.3302 306.663C75.3298 306.663 75.3294 306.663 75.329 306.663C75.3286 306.663 75.3282 306.663 75.3279 306.663C75.3275 306.663 75.3271 306.663 75.3267 306.663C75.3263 306.663 75.3259 306.663 75.3255 306.663C75.3251 306.663 75.3247 306.663 75.3243 306.663C75.3239 306.663 75.3235 306.663 75.3231 306.663C75.3227 306.663 75.3223 306.663 75.3219 306.663C75.3215 306.663 75.3211 306.663 75.3207 306.663C75.3203 306.663 75.3199 306.663 75.3195 306.663C75.3191 306.663 75.3187 306.663 75.3183 306.663C75.3179 306.663 75.3175 306.663 75.3172 306.663C75.3168 306.663 75.3164 306.663 75.316 306.663C75.3156 306.663 75.3152 306.663 75.3148 306.663C75.3144 306.663 75.314 306.663 75.3136 306.663C75.3132 306.663 75.3128 306.663 75.3124 306.663C75.312 306.663 75.3116 306.663 75.3112 306.663C75.3108 306.663 75.3104 306.663 75.31 306.663C75.3096 306.663 75.3092 306.663 75.3088 306.663C75.3084 306.663 75.308 306.663 75.3076 306.663C75.3072 306.663 75.3068 306.663 75.3064 306.663C75.306 306.663 75.3056 306.663 75.3052 306.663C75.3048 306.663 75.3044 306.663 75.304 306.663C75.3036 306.663 75.3032 306.663 75.3028 306.663C75.3024 306.663 75.302 306.663 75.3016 306.663C75.3012 306.663 75.3008 306.663 75.3004 306.663C75.3 306.663 75.2996 306.663 75.2992 306.663C75.2988 306.663 75.2984 306.663 75.298 306.663C75.2976 306.663 75.2972 306.663 75.2968 306.663C75.2964 306.663 75.296 306.663 75.2956 306.663C75.2952 306.663 75.2948 306.663 75.2944 306.663C75.294 306.663 75.2936 306.663 75.2932 306.663C75.2928 306.663 75.2924 306.663 75.292 306.663C75.2916 306.663 75.2912 306.663 75.2908 306.663C75.2904 306.663 75.29 306.663 75.2896 306.663C75.2892 306.663 75.2888 306.663 75.2884 306.663C75.288 306.663 75.2876 306.663 75.2872 306.663C75.2868 306.663 75.2864 306.663 75.286 306.663C75.2856 306.663 75.2852 306.663 75.2848 306.663C75.2844 306.663 75.284 306.663 75.2836 306.663C75.2832 306.663 75.2828 306.663 75.2824 306.663C75.282 306.663 75.2816 306.663 75.2812 306.663C75.2808 306.663 75.2804 306.663 75.28 306.663C75.2796 306.663 75.2792 306.663 75.2788 306.663C75.2784 306.663 75.278 306.663 75.2776 306.663C75.2772 306.663 75.2767 306.663 75.2763 306.663C75.2759 306.663 75.2755 306.663 75.2751 306.663C75.2747 306.663 75.2743 306.663 75.2739 306.663C75.2735 306.663 75.2731 306.663 75.2727 306.663C75.2723 306.663 75.2719 306.663 75.2715 306.663C75.2711 306.663 75.2707 306.663 75.2703 306.663C75.2699 306.663 75.2695 306.663 75.2691 306.663C75.2687 306.663 75.2683 306.663 75.2679 306.663C75.2675 306.663 75.2671 306.663 75.2667 306.663C75.2663 306.663 75.2659 306.663 75.2655 306.663C75.2651 306.663 75.2647 306.663 75.2643 306.663C75.2639 306.663 75.2635 306.663 75.2631 306.663C75.2626 306.663 75.2622 306.663 75.2618 306.663C75.2614 306.663 75.261 306.663 75.2606 306.663C75.2602 306.663 75.2598 306.663 75.2594 306.663C75.259 306.663 75.2586 306.663 75.2582 306.663C75.2578 306.663 75.2574 306.663 75.257 306.663C75.2566 306.663 75.2562 306.663 75.2558 306.663C75.2554 306.663 75.255 306.663 75.2546 306.663C75.2542 306.663 75.2538 306.663 75.2534 306.663C75.253 306.663 75.2526 306.663 75.2521 306.663C75.2517 306.663 75.2513 306.663 75.2509 306.663C75.2505 306.663 75.2501 306.663 75.2497 306.663C75.2493 306.663 75.2489 306.663 75.2485 306.663C75.2481 306.663 75.2477 306.663 75.2473 306.663C75.2469 306.663 75.2465 306.663 75.2461 306.663C75.2457 306.663 75.2453 306.663 75.2449 306.663C75.2445 306.663 75.2441 306.663 75.2437 306.663C75.2433 306.663 75.2429 306.663 75.2424 306.663C75.242 306.663 75.2416 306.663 75.2412 306.663C75.2408 306.663 75.2404 306.663 75.24 306.663C75.2396 306.663 75.2392 306.663 75.2388 306.663C75.2384 306.663 75.238 306.663 75.2376 306.663C75.2372 306.663 75.2368 306.663 75.2364 306.663C75.236 306.663 75.2356 306.663 75.2352 306.663C75.2348 306.663 75.2344 306.663 75.234 306.663C75.2335 306.663 75.2331 306.663 75.2327 306.663C75.2323 306.663 75.2319 306.663 75.2315 306.663C75.2311 306.663 75.2307 306.663 75.2303 306.663C75.2299 306.663 75.2295 306.663 75.2291 306.663C75.2287 306.663 75.2283 306.663 75.2279 306.663C75.2275 306.663 75.2271 306.663 75.2267 306.663C75.2263 306.663 75.2259 306.663 75.2255 306.663C75.225 306.663 75.2246 306.663 75.2242 306.663C75.2238 306.663 75.2234 306.663 75.223 306.663C75.2226 306.663 75.2222 306.663 75.2218 306.663C75.2214 306.663 75.221 306.663 75.2206 306.663C75.2202 306.663 75.2198 306.663 75.2194 306.663C75.219 306.663 75.2186 306.663 75.2182 306.663C75.2178 306.663 75.2174 306.663 75.217 306.663C75.2165 306.663 75.2161 306.663 75.2157 306.663C75.2153 306.663 75.2149 306.663 75.2145 306.663C75.2141 306.663 75.2137 306.663 75.2133 306.663C75.2129 306.663 75.2125 306.663 75.2121 306.663C75.2117 306.663 75.2113 306.663 75.2109 306.663C75.2105 306.663 75.2101 306.663 75.2097 306.663C75.2093 306.663 75.2089 306.663 75.2085 306.663C75.208 306.663 75.2076 306.663 75.2072 306.663C75.2068 306.663 75.2064 306.663 75.206 306.663C75.2056 306.663 75.2052 306.663 75.2048 306.663C75.2044 306.663 75.204 306.663 75.2036 306.663C75.2032 306.663 75.2028 306.663 75.2024 306.663C75.202 306.663 75.2016 306.663 75.2012 306.663C75.2008 306.663 75.2004 306.663 75.2 306.663C75.1996 306.663 75.1992 306.663 75.1987 306.663C75.1983 306.663 75.1979 306.663 75.1975 306.663C75.1971 306.663 75.1967 306.663 75.1963 306.663C75.1959 306.663 75.1955 306.663 75.1951 306.663C75.1947 306.663 75.1943 306.663 75.1939 306.663C75.1935 306.663 75.1931 306.663 75.1927 306.663C75.1923 306.663 75.1919 306.663 75.1915 306.663C75.1911 306.663 75.1907 306.663 75.1903 306.663C75.1899 306.663 75.1895 306.663 75.1891 306.663C75.1886 306.663 75.1882 306.663 75.1878 306.663C75.1874 306.663 75.187 306.663 75.1866 306.663C75.1862 306.663 75.1858 306.663 75.1854 306.663C75.185 306.663 75.1846 306.663 75.1842 306.663C75.1838 306.663 75.1834 306.663 75.183 306.663C75.1826 306.663 75.1822 306.663 75.1818 306.663C75.1814 306.663 75.181 306.663 75.1806 306.663C75.1802 306.663 75.1798 306.663 75.1794 306.663C75.179 306.663 75.1786 306.663 75.1782 306.663C75.1778 306.663 75.1774 306.663 75.1769 306.663C75.1765 306.663 75.1761 306.663 75.1757 306.663C75.1753 306.663 75.1749 306.663 75.1745 306.663C75.1741 306.663 75.1737 306.663 75.1733 306.663C75.1729 306.663 75.1725 306.663 75.1721 306.663C75.1717 306.663 75.1713 306.663 75.1709 306.663C75.1705 306.663 75.1701 306.663 75.1697 306.663C75.1693 306.663 75.1689 306.663 75.1685 306.663C75.1681 306.663 75.1677 306.663 75.1673 306.663C75.1669 306.663 75.1665 306.663 75.1661 306.663C75.1657 306.663 75.1653 306.663 75.1649 306.663C75.1645 306.663 75.1641 306.663 75.1637 306.663C75.1633 306.663 75.1629 306.663 75.1625 306.663C75.1621 306.663 75.1617 306.663 75.1613 306.663C75.1609 306.663 75.1605 306.663 75.1601 306.663C75.1597 306.663 75.1593 306.663 75.1589 306.663C75.1584 306.663 75.158 306.663 75.1576 306.663C75.1572 306.663 75.1568 306.663 75.1564 306.663C75.156 306.663 75.1556 306.663 75.1552 306.663C75.1548 306.663 75.1544 306.663 75.154 306.663C75.1536 306.663 75.1532 306.663 75.1528 306.663C75.1524 306.663 75.152 306.663 75.1516 306.663C75.1512 306.663 75.1508 306.663 75.1504 306.663C75.15 306.663 75.1496 306.663 75.1492 306.663C75.1488 306.663 75.1484 306.663 75.148 306.663C75.1476 306.663 75.1472 306.663 75.1468 306.663C75.1464 306.663 75.146 306.663 75.1456 306.663C75.1452 306.663 75.1448 306.663 75.1444 306.663C75.144 306.663 75.1436 306.663 75.1432 306.663C75.1428 306.663 75.1424 306.663 75.142 306.663C75.1416 306.663 75.1412 306.663 75.1408 306.663C75.1404 306.663 75.14 306.663 75.1396 306.663C75.1392 306.663 75.1388 306.663 75.1384 306.663C75.138 306.663 75.1377 306.663 75.1373 306.663C75.1369 306.663 75.1365 306.663 75.1361 306.663C75.1357 306.663 75.1353 306.663 75.1349 306.663C75.1345 306.663 75.1341 306.663 75.1337 306.663C75.1333 306.663 75.1329 306.663 75.1325 306.663C75.1321 306.663 75.1317 306.663 75.1313 306.663C75.1309 306.663 75.1305 306.663 75.1301 306.663C75.1297 306.663 75.1293 306.663 75.1289 306.663C75.1285 306.663 75.1281 306.663 75.1277 306.663C75.1273 306.663 75.1269 306.663 75.1265 306.663C75.1261 306.663 75.1257 306.663 75.1253 306.663C75.1249 306.663 75.1245 306.663 75.1241 306.663C75.1237 306.663 75.1233 306.663 75.1229 306.663C75.1225 306.663 75.1222 306.663 75.1218 306.663C75.1214 306.663 75.121 306.663 75.1206 306.663C75.1202 306.663 75.1198 306.663 75.1194 306.663C75.119 306.663 75.1186 306.663 75.1182 306.663C75.1178 306.663 75.1174 306.663 75.117 306.663C75.1166 306.663 75.1162 306.663 75.1158 306.663C75.1154 306.663 75.115 306.663 75.1146 306.663C75.1142 306.663 75.1138 306.663 75.1135 306.663C75.1131 306.663 75.1127 306.663 75.1123 306.663C75.1119 306.663 75.1115 306.663 75.1111 306.663C75.1107 306.663 75.1103 306.663 75.1099 306.663C75.1095 306.663 75.1091 306.663 75.1087 306.663C75.1083 306.663 75.1079 306.663 75.1075 306.663C75.1072 306.663 75.1068 306.663 75.1064 306.663C75.106 306.663 75.1056 306.663 75.1052 306.663C75.1048 306.663 75.1044 306.663 75.104 306.663C75.1036 306.663 75.1032 306.663 75.1028 306.663C75.1024 306.663 75.102 306.663 75.1017 306.663C75.1013 306.663 75.1009 306.663 75.1005 306.663C75.1001 306.663 75.0997 306.663 75.0993 306.663C75.0989 306.663 75.0985 306.663 75.0981 306.663C75.0977 306.663 75.0973 306.663 75.097 306.663C75.0966 306.663 75.0962 306.663 75.0958 306.663C75.0954 306.663 75.095 306.663 75.0946 306.663C75.0942 306.663 75.0938 306.663 75.0934 306.663C75.093 306.663 75.0927 306.663 75.0923 306.663C75.0919 306.663 75.0915 306.663 75.0911 306.663C75.0907 306.663 75.0903 306.663 75.0899 306.663C75.0895 306.663 75.0891 306.663 75.0888 306.663C75.0884 306.663 75.088 306.663 75.0876 306.663C75.0872 306.663 75.0868 306.663 75.0864 306.663C75.086 306.663 75.0856 306.663 75.0853 306.663C75.0849 306.663 75.0845 306.663 75.0841 306.663C75.0837 306.663 75.0833 306.663 75.0829 306.663C75.0825 306.663 75.0822 306.663 75.0818 306.663C75.0814 306.663 75.081 306.663 75.0806 306.663C75.0802 306.663 75.0798 306.663 75.0794 306.663C75.0791 306.663 75.0787 306.663 75.0783 306.663C75.0779 306.663 75.0775 306.663 75.0771 306.663C75.0767 306.663 75.0764 306.663 75.076 306.663C75.0756 306.663 75.0752 306.663 75.0748 306.663C75.0744 306.663 75.074 306.663 75.0737 306.663C75.0733 306.663 75.0729 306.663 75.0725 306.663C75.0721 306.663 75.0717 306.663 75.0713 306.663C75.071 306.663 75.0706 306.663 75.0702 306.663C75.0698 306.663 75.0694 306.663 75.069 306.663C75.0686 306.663 75.0683 306.663 75.0679 306.663C75.0675 306.663 75.0671 306.663 75.0667 306.663C75.0663 306.663 75.066 306.663 75.0656 306.663C75.0652 306.663 75.0648 306.663 75.0644 306.663C75.064 306.663 75.0637 306.663 75.0633 306.663C75.0629 306.663 75.0625 306.663 75.0621 306.663C75.0618 306.663 75.0614 306.663 75.061 306.663C75.0606 306.663 75.0602 306.663 75.0598 306.663C75.0595 306.663 75.0591 306.663 75.0587 306.663C75.0583 306.663 75.0579 306.663 75.0576 306.663C75.0572 306.663 75.0568 306.663 75.0564 306.663C75.056 306.663 75.0557 306.663 75.0553 306.663C75.0549 306.663 75.0545 306.663 75.0541 306.663C75.0538 306.663 75.0534 306.663 75.053 306.663C75.0526 306.663 75.0522 306.663 75.0519 306.663C75.0515 306.663 75.0511 306.663 75.0507 306.663C75.0503 306.663 75.05 306.663 75.0496 306.663C75.0492 306.663 75.0488 306.663 75.0484 306.663C75.0481 306.663 75.0477 306.663 75.0473 306.663C75.0469 306.663 75.0466 306.663 75.0462 306.663C75.0458 306.663 75.0454 306.663 75.0451 306.663C75.0447 306.663 75.0443 306.663 75.0439 306.663C75.0435 306.663 75.0432 306.663 75.0428 306.663C75.0424 306.663 75.042 306.663 75.0417 306.663C75.0413 306.663 75.0409 306.663 75.0405 306.663C75.0402 306.663 75.0398 306.663 75.0394 306.663C75.039 306.663 75.0387 306.663 75.0383 306.663C75.0379 306.663 75.0375 306.663 75.0372 306.663C75.0368 306.663 75.0364 306.663 75.036 306.663C75.0357 306.663 75.0353 306.663 75.0349 306.663C75.0345 306.663 75.0342 306.663 75.0338 306.663C75.0334 306.663 75.0331 306.663 75.0327 306.663C75.0323 306.663 75.0319 306.663 75.0316 306.663C75.0312 306.663 75.0308 306.663 75.0304 306.663C75.0301 306.663 75.0297 306.663 75.0293 306.663C75.029 306.663 75.0286 306.663 75.0282 306.663C75.0278 306.663 75.0275 306.663 75.0271 306.663C75.0267 306.663 75.0264 306.663 75.026 306.663C75.0256 306.663 75.0253 306.663 75.0249 306.663C75.0245 306.663 75.0241 306.663 75.0238 306.663C75.0234 306.663 75.023 306.663 75.0227 306.663C75.0223 306.663 75.0219 306.663 75.0216 306.663C75.0212 306.663 75.0208 306.663 75.0205 306.663C75.0201 306.663 75.0197 306.663 75.0193 306.663C75.019 306.663 75.0186 306.663 75.0182 306.663C75.0179 306.663 75.0175 306.663 75.0171 306.663C75.0168 306.663 75.0164 306.663 75.016 306.663C75.0157 306.663 75.0153 306.663 75.0149 306.663C75.0146 306.663 75.0142 306.663 75.0138 306.663C75.0135 306.663 75.0131 306.663 75.0128 306.663C75.0124 306.663 75.012 306.663 75.0117 306.663C75.0113 306.663 75.0109 306.663 75.0106 306.663C75.0102 306.663 75.0098 306.663 75.0095 306.663C75.0091 306.663 75.0087 306.663 75.0084 306.663C75.008 306.663 75.0077 306.663 75.0073 306.663C75.0069 306.663 75.0066 306.663 75.0062 306.663C75.0058 306.663 75.0055 306.663 75.0051 306.663C75.0048 306.663 75.0044 306.663 75.004 306.663C75.0037 306.663 75.0033 306.663 75.0029 306.663C75.0026 306.663 75.0022 306.663 75.0019 306.663C75.0015 306.663 75.0011 306.663 75.0008 306.663C75.0004 306.663 75.0001 306.663 74.9997 306.663C74.9993 306.663 74.999 306.663 74.9986 306.663C74.9983 306.663 74.9979 306.663 74.9975 306.663C74.9972 306.663 74.9968 306.663 74.9965 306.663C74.9961 306.663 74.9958 306.663 74.9954 306.663C74.995 306.663 74.9947 306.663 74.9943 306.663C74.994 306.663 74.9936 306.663 74.9933 306.663C74.9929 306.663 74.9925 306.663 74.9922 306.663C74.9918 306.663 74.9915 306.663 74.9911 306.663C74.9908 306.663 74.9904 306.663 74.99 306.663C74.9897 306.663 74.9893 306.663 74.989 306.663C74.9886 306.663 74.9883 306.663 74.9879 306.663C74.9876 306.663 74.9872 306.663 74.9869 306.663C74.9865 306.663 74.9862 306.663 74.9858 306.663C74.9854 306.663 74.9851 306.663 74.9847 306.663C74.9844 306.663 74.984 306.663 74.9837 306.663C74.9833 306.663 74.983 306.663 74.9826 306.663C74.9823 306.663 74.9819 306.663 74.9816 306.663C74.9812 306.663 74.9809 306.663 74.9805 306.663C74.9802 306.663 74.9798 306.663 74.9795 306.663C74.9791 306.663 74.9788 306.663 74.9784 306.663C74.9781 306.663 74.9777 306.663 74.9774 306.663C74.977 306.663 74.9767 306.663 74.9763 306.663C74.976 306.663 74.9756 306.663 74.9753 306.663C74.9749 306.663 74.9746 306.663 74.9742 306.663C74.9739 306.663 74.9735 306.663 74.9732 306.663C74.9728 306.663 74.9725 306.663 74.9721 306.663C74.9718 306.663 74.9715 306.663 74.9711 306.663C74.9708 306.663 74.9704 306.663 74.9701 306.663C74.9697 306.663 74.9694 306.663 74.969 306.663C74.9687 306.663 74.9683 306.663 74.968 306.663C74.9677 306.663 74.9673 306.663 74.967 306.663C74.9666 306.663 74.9663 306.663 74.9659 306.663C74.9656 306.663 74.9653 306.663 74.9649 306.663C74.9646 306.663 74.9642 306.663 74.9639 306.663C74.9635 306.663 74.9632 306.663 74.9629 306.663C74.9625 306.663 74.9622 306.663 74.9618 306.663C74.9615 306.663 74.9611 306.663 74.9608 306.663C74.9605 306.663 74.9601 306.663 74.9598 306.663C74.9594 306.663 74.9591 306.663 74.9588 306.663C74.9584 306.663 74.9581 306.663 74.9578 306.663C74.9574 306.663 74.9571 306.663 74.9567 306.663C74.9564 306.663 74.9561 306.663 74.9557 306.663C74.9554 306.663 74.955 306.663 74.9547 306.663C74.9544 306.663 74.954 306.663 74.9537 306.663C74.9534 306.663 74.953 306.663 74.9527 306.663C74.9524 306.663 74.952 306.663 74.9517 306.663C74.9513 306.663 74.951 306.663 74.9507 306.663C74.9503 306.663 74.95 306.663 74.9497 306.663C74.9493 306.663 74.949 306.663 74.9487 306.663C74.9483 306.663 74.948 306.663 74.9477 306.663C74.9473 306.663 74.947 306.663 74.9467 306.663C74.9463 306.663 74.946 306.663 74.9457 306.663C74.9453 306.663 74.945 306.663 74.9447 306.663C74.9444 306.663 74.944 306.663 74.9437 306.663C74.9434 306.663 74.943 306.663 74.9427 306.663C74.9424 306.663 74.942 306.663 74.9417 306.663C74.9414 306.663 74.9411 306.663 74.9407 306.663C74.9404 306.663 74.9401 306.663 74.9397 306.663C74.9394 306.663 74.9391 306.663 74.9388 306.663C74.9384 306.663 74.9381 306.663 74.9378 306.663C74.9374 306.663 74.9371 306.663 74.9368 306.663C74.9365 306.663 74.9361 306.663 74.9358 306.663C74.9355 306.663 74.9352 306.663 74.9348 306.663C74.9345 306.663 74.9342 306.663 74.9339 306.663C74.9335 306.663 74.9332 306.663 74.9329 306.663V309.624C74.9332 309.624 74.9335 309.624 74.9339 309.624C74.9342 309.624 74.9345 309.624 74.9348 309.624C74.9352 309.624 74.9355 309.624 74.9358 309.624C74.9361 309.624 74.9365 309.624 74.9368 309.624C74.9371 309.624 74.9374 309.624 74.9378 309.624C74.9381 309.624 74.9384 309.624 74.9388 309.624C74.9391 309.624 74.9394 309.624 74.9397 309.624C74.9401 309.624 74.9404 309.624 74.9407 309.624C74.9411 309.624 74.9414 309.624 74.9417 309.624C74.942 309.624 74.9424 309.624 74.9427 309.624C74.943 309.624 74.9434 309.624 74.9437 309.624C74.944 309.624 74.9444 309.624 74.9447 309.624C74.945 309.624 74.9453 309.624 74.9457 309.624C74.946 309.624 74.9463 309.624 74.9467 309.624C74.947 309.624 74.9473 309.624 74.9477 309.624C74.948 309.624 74.9483 309.624 74.9487 309.624C74.949 309.624 74.9493 309.624 74.9497 309.624C74.95 309.624 74.9503 309.624 74.9507 309.624C74.951 309.624 74.9513 309.624 74.9517 309.624C74.952 309.624 74.9524 309.624 74.9527 309.624C74.953 309.624 74.9534 309.624 74.9537 309.624C74.954 309.624 74.9544 309.624 74.9547 309.624C74.955 309.624 74.9554 309.624 74.9557 309.624C74.9561 309.624 74.9564 309.624 74.9567 309.624C74.9571 309.624 74.9574 309.624 74.9578 309.624C74.9581 309.624 74.9584 309.624 74.9588 309.624C74.9591 309.624 74.9594 309.624 74.9598 309.624C74.9601 309.624 74.9605 309.624 74.9608 309.624C74.9611 309.624 74.9615 309.624 74.9618 309.624C74.9622 309.624 74.9625 309.624 74.9629 309.624C74.9632 309.624 74.9635 309.624 74.9639 309.624C74.9642 309.624 74.9646 309.624 74.9649 309.624C74.9653 309.624 74.9656 309.624 74.9659 309.624C74.9663 309.624 74.9666 309.624 74.967 309.624C74.9673 309.624 74.9677 309.624 74.968 309.624C74.9683 309.624 74.9687 309.624 74.969 309.624C74.9694 309.624 74.9697 309.624 74.9701 309.624C74.9704 309.624 74.9708 309.624 74.9711 309.624C74.9715 309.624 74.9718 309.624 74.9721 309.624C74.9725 309.624 74.9728 309.624 74.9732 309.624C74.9735 309.624 74.9739 309.624 74.9742 309.624C74.9746 309.624 74.9749 309.624 74.9753 309.624C74.9756 309.624 74.976 309.624 74.9763 309.624C74.9767 309.624 74.977 309.624 74.9774 309.624C74.9777 309.624 74.9781 309.624 74.9784 309.624C74.9788 309.624 74.9791 309.624 74.9795 309.624C74.9798 309.624 74.9802 309.624 74.9805 309.624C74.9809 309.624 74.9812 309.624 74.9816 309.624C74.9819 309.624 74.9823 309.624 74.9826 309.624C74.983 309.624 74.9833 309.624 74.9837 309.624C74.984 309.624 74.9844 309.624 74.9847 309.624C74.9851 309.624 74.9854 309.624 74.9858 309.624C74.9862 309.624 74.9865 309.624 74.9869 309.624C74.9872 309.624 74.9876 309.624 74.9879 309.624C74.9883 309.624 74.9886 309.624 74.989 309.624C74.9893 309.624 74.9897 309.624 74.99 309.624C74.9904 309.624 74.9908 309.624 74.9911 309.624C74.9915 309.624 74.9918 309.624 74.9922 309.624C74.9925 309.624 74.9929 309.624 74.9933 309.624C74.9936 309.624 74.994 309.624 74.9943 309.624C74.9947 309.624 74.995 309.624 74.9954 309.624C74.9958 309.624 74.9961 309.624 74.9965 309.624C74.9968 309.624 74.9972 309.624 74.9975 309.624C74.9979 309.624 74.9983 309.624 74.9986 309.624C74.999 309.624 74.9993 309.624 74.9997 309.624C75.0001 309.624 75.0004 309.624 75.0008 309.624C75.0011 309.624 75.0015 309.624 75.0019 309.624C75.0022 309.624 75.0026 309.624 75.0029 309.624C75.0033 309.624 75.0037 309.624 75.004 309.624C75.0044 309.624 75.0048 309.624 75.0051 309.624C75.0055 309.624 75.0058 309.624 75.0062 309.624C75.0066 309.624 75.0069 309.624 75.0073 309.624C75.0077 309.624 75.008 309.624 75.0084 309.624C75.0087 309.624 75.0091 309.624 75.0095 309.624C75.0098 309.624 75.0102 309.624 75.0106 309.624C75.0109 309.624 75.0113 309.624 75.0117 309.624C75.012 309.624 75.0124 309.624 75.0128 309.624C75.0131 309.624 75.0135 309.624 75.0138 309.624C75.0142 309.624 75.0146 309.624 75.0149 309.624C75.0153 309.624 75.0157 309.624 75.016 309.624C75.0164 309.624 75.0168 309.624 75.0171 309.624C75.0175 309.624 75.0179 309.624 75.0182 309.624C75.0186 309.624 75.019 309.624 75.0193 309.624C75.0197 309.624 75.0201 309.624 75.0205 309.624C75.0208 309.624 75.0212 309.624 75.0216 309.624C75.0219 309.624 75.0223 309.624 75.0227 309.624C75.023 309.624 75.0234 309.624 75.0238 309.624C75.0241 309.624 75.0245 309.624 75.0249 309.624C75.0253 309.624 75.0256 309.624 75.026 309.624C75.0264 309.624 75.0267 309.624 75.0271 309.624C75.0275 309.624 75.0278 309.624 75.0282 309.624C75.0286 309.624 75.029 309.624 75.0293 309.624C75.0297 309.624 75.0301 309.624 75.0304 309.624C75.0308 309.624 75.0312 309.624 75.0316 309.624C75.0319 309.624 75.0323 309.624 75.0327 309.624C75.0331 309.624 75.0334 309.624 75.0338 309.624C75.0342 309.624 75.0345 309.624 75.0349 309.624C75.0353 309.624 75.0357 309.624 75.036 309.624C75.0364 309.624 75.0368 309.624 75.0372 309.624C75.0375 309.624 75.0379 309.624 75.0383 309.624C75.0387 309.624 75.039 309.624 75.0394 309.624C75.0398 309.624 75.0402 309.624 75.0405 309.624C75.0409 309.624 75.0413 309.624 75.0417 309.624C75.042 309.624 75.0424 309.624 75.0428 309.624C75.0432 309.624 75.0435 309.624 75.0439 309.624C75.0443 309.624 75.0447 309.624 75.0451 309.624C75.0454 309.624 75.0458 309.624 75.0462 309.624C75.0466 309.624 75.0469 309.624 75.0473 309.624C75.0477 309.624 75.0481 309.624 75.0484 309.624C75.0488 309.624 75.0492 309.624 75.0496 309.624C75.05 309.624 75.0503 309.624 75.0507 309.624C75.0511 309.624 75.0515 309.624 75.0519 309.624C75.0522 309.624 75.0526 309.624 75.053 309.624C75.0534 309.624 75.0538 309.624 75.0541 309.624C75.0545 309.624 75.0549 309.624 75.0553 309.624C75.0557 309.624 75.056 309.624 75.0564 309.624C75.0568 309.624 75.0572 309.624 75.0576 309.624C75.0579 309.624 75.0583 309.624 75.0587 309.624C75.0591 309.624 75.0595 309.624 75.0598 309.624C75.0602 309.624 75.0606 309.624 75.061 309.624C75.0614 309.624 75.0618 309.624 75.0621 309.624C75.0625 309.624 75.0629 309.624 75.0633 309.624C75.0637 309.624 75.064 309.624 75.0644 309.624C75.0648 309.624 75.0652 309.624 75.0656 309.624C75.066 309.624 75.0663 309.624 75.0667 309.624C75.0671 309.624 75.0675 309.624 75.0679 309.624C75.0683 309.624 75.0686 309.624 75.069 309.624C75.0694 309.624 75.0698 309.624 75.0702 309.624C75.0706 309.624 75.071 309.624 75.0713 309.624C75.0717 309.624 75.0721 309.624 75.0725 309.624C75.0729 309.624 75.0733 309.624 75.0737 309.624C75.074 309.624 75.0744 309.624 75.0748 309.624C75.0752 309.624 75.0756 309.624 75.076 309.624C75.0764 309.624 75.0767 309.624 75.0771 309.624C75.0775 309.624 75.0779 309.624 75.0783 309.624C75.0787 309.624 75.0791 309.624 75.0794 309.624C75.0798 309.624 75.0802 309.624 75.0806 309.624C75.081 309.624 75.0814 309.624 75.0818 309.624C75.0822 309.624 75.0825 309.624 75.0829 309.624C75.0833 309.624 75.0837 309.624 75.0841 309.624C75.0845 309.624 75.0849 309.624 75.0853 309.624C75.0856 309.624 75.086 309.624 75.0864 309.624C75.0868 309.624 75.0872 309.624 75.0876 309.624C75.088 309.624 75.0884 309.624 75.0888 309.624C75.0891 309.624 75.0895 309.624 75.0899 309.624C75.0903 309.624 75.0907 309.624 75.0911 309.624C75.0915 309.624 75.0919 309.624 75.0923 309.624C75.0927 309.624 75.093 309.624 75.0934 309.624C75.0938 309.624 75.0942 309.624 75.0946 309.624C75.095 309.624 75.0954 309.624 75.0958 309.624C75.0962 309.624 75.0966 309.624 75.097 309.624C75.0973 309.624 75.0977 309.624 75.0981 309.624C75.0985 309.624 75.0989 309.624 75.0993 309.624C75.0997 309.624 75.1001 309.624 75.1005 309.624C75.1009 309.624 75.1013 309.624 75.1017 309.624C75.102 309.624 75.1024 309.624 75.1028 309.624C75.1032 309.624 75.1036 309.624 75.104 309.624C75.1044 309.624 75.1048 309.624 75.1052 309.624C75.1056 309.624 75.106 309.624 75.1064 309.624C75.1068 309.624 75.1072 309.624 75.1075 309.624C75.1079 309.624 75.1083 309.624 75.1087 309.624C75.1091 309.624 75.1095 309.624 75.1099 309.624C75.1103 309.624 75.1107 309.624 75.1111 309.624C75.1115 309.624 75.1119 309.624 75.1123 309.624C75.1127 309.624 75.1131 309.624 75.1135 309.624C75.1138 309.624 75.1142 309.624 75.1146 309.624C75.115 309.624 75.1154 309.624 75.1158 309.624C75.1162 309.624 75.1166 309.624 75.117 309.624C75.1174 309.624 75.1178 309.624 75.1182 309.624C75.1186 309.624 75.119 309.624 75.1194 309.624C75.1198 309.624 75.1202 309.624 75.1206 309.624C75.121 309.624 75.1214 309.624 75.1218 309.624C75.1222 309.624 75.1225 309.624 75.1229 309.624C75.1233 309.624 75.1237 309.624 75.1241 309.624C75.1245 309.624 75.1249 309.624 75.1253 309.624C75.1257 309.624 75.1261 309.624 75.1265 309.624C75.1269 309.624 75.1273 309.624 75.1277 309.624C75.1281 309.624 75.1285 309.624 75.1289 309.624C75.1293 309.624 75.1297 309.624 75.1301 309.624C75.1305 309.624 75.1309 309.624 75.1313 309.624C75.1317 309.624 75.1321 309.624 75.1325 309.624C75.1329 309.624 75.1333 309.624 75.1337 309.624C75.1341 309.624 75.1345 309.624 75.1349 309.624C75.1353 309.624 75.1357 309.624 75.1361 309.624C75.1365 309.624 75.1369 309.624 75.1373 309.624C75.1377 309.624 75.138 309.624 75.1384 309.624C75.1388 309.624 75.1392 309.624 75.1396 309.624C75.14 309.624 75.1404 309.624 75.1408 309.624C75.1412 309.624 75.1416 309.624 75.142 309.624C75.1424 309.624 75.1428 309.624 75.1432 309.624C75.1436 309.624 75.144 309.624 75.1444 309.624C75.1448 309.624 75.1452 309.624 75.1456 309.624C75.146 309.624 75.1464 309.624 75.1468 309.624C75.1472 309.624 75.1476 309.624 75.148 309.624C75.1484 309.624 75.1488 309.624 75.1492 309.624C75.1496 309.624 75.15 309.624 75.1504 309.624C75.1508 309.624 75.1512 309.624 75.1516 309.624C75.152 309.624 75.1524 309.624 75.1528 309.624C75.1532 309.624 75.1536 309.624 75.154 309.624C75.1544 309.624 75.1548 309.624 75.1552 309.624C75.1556 309.624 75.156 309.624 75.1564 309.624C75.1568 309.624 75.1572 309.624 75.1576 309.624C75.158 309.624 75.1584 309.624 75.1589 309.624C75.1593 309.624 75.1597 309.624 75.1601 309.624C75.1605 309.624 75.1609 309.624 75.1613 309.624C75.1617 309.624 75.1621 309.624 75.1625 309.624C75.1629 309.624 75.1633 309.624 75.1637 309.624C75.1641 309.624 75.1645 309.624 75.1649 309.624C75.1653 309.624 75.1657 309.624 75.1661 309.624C75.1665 309.624 75.1669 309.624 75.1673 309.624C75.1677 309.624 75.1681 309.624 75.1685 309.624C75.1689 309.624 75.1693 309.624 75.1697 309.624C75.1701 309.624 75.1705 309.624 75.1709 309.624C75.1713 309.624 75.1717 309.624 75.1721 309.624C75.1725 309.624 75.1729 309.624 75.1733 309.624C75.1737 309.624 75.1741 309.624 75.1745 309.624C75.1749 309.624 75.1753 309.624 75.1757 309.624C75.1761 309.624 75.1765 309.624 75.1769 309.624C75.1774 309.624 75.1778 309.624 75.1782 309.624C75.1786 309.624 75.179 309.624 75.1794 309.624C75.1798 309.624 75.1802 309.624 75.1806 309.624C75.181 309.624 75.1814 309.624 75.1818 309.624C75.1822 309.624 75.1826 309.624 75.183 309.624C75.1834 309.624 75.1838 309.624 75.1842 309.624C75.1846 309.624 75.185 309.624 75.1854 309.624C75.1858 309.624 75.1862 309.624 75.1866 309.624C75.187 309.624 75.1874 309.624 75.1878 309.624C75.1882 309.624 75.1886 309.624 75.1891 309.624C75.1895 309.624 75.1899 309.624 75.1903 309.624C75.1907 309.624 75.1911 309.624 75.1915 309.624C75.1919 309.624 75.1923 309.624 75.1927 309.624C75.1931 309.624 75.1935 309.624 75.1939 309.624C75.1943 309.624 75.1947 309.624 75.1951 309.624C75.1955 309.624 75.1959 309.624 75.1963 309.624C75.1967 309.624 75.1971 309.624 75.1975 309.624C75.1979 309.624 75.1983 309.624 75.1987 309.624C75.1992 309.624 75.1996 309.624 75.2 309.624C75.2004 309.624 75.2008 309.624 75.2012 309.624C75.2016 309.624 75.202 309.624 75.2024 309.624C75.2028 309.624 75.2032 309.624 75.2036 309.624C75.204 309.624 75.2044 309.624 75.2048 309.624C75.2052 309.624 75.2056 309.624 75.206 309.624C75.2064 309.624 75.2068 309.624 75.2072 309.624C75.2076 309.624 75.208 309.624 75.2085 309.624C75.2089 309.624 75.2093 309.624 75.2097 309.624C75.2101 309.624 75.2105 309.624 75.2109 309.624C75.2113 309.624 75.2117 309.624 75.2121 309.624C75.2125 309.624 75.2129 309.624 75.2133 309.624C75.2137 309.624 75.2141 309.624 75.2145 309.624C75.2149 309.624 75.2153 309.624 75.2157 309.624C75.2161 309.624 75.2165 309.624 75.217 309.624C75.2174 309.624 75.2178 309.624 75.2182 309.624C75.2186 309.624 75.219 309.624 75.2194 309.624C75.2198 309.624 75.2202 309.624 75.2206 309.624C75.221 309.624 75.2214 309.624 75.2218 309.624C75.2222 309.624 75.2226 309.624 75.223 309.624C75.2234 309.624 75.2238 309.624 75.2242 309.624C75.2246 309.624 75.225 309.624 75.2255 309.624C75.2259 309.624 75.2263 309.624 75.2267 309.624C75.2271 309.624 75.2275 309.624 75.2279 309.624C75.2283 309.624 75.2287 309.624 75.2291 309.624C75.2295 309.624 75.2299 309.624 75.2303 309.624C75.2307 309.624 75.2311 309.624 75.2315 309.624C75.2319 309.624 75.2323 309.624 75.2327 309.624C75.2331 309.624 75.2335 309.624 75.234 309.624C75.2344 309.624 75.2348 309.624 75.2352 309.624C75.2356 309.624 75.236 309.624 75.2364 309.624C75.2368 309.624 75.2372 309.624 75.2376 309.624C75.238 309.624 75.2384 309.624 75.2388 309.624C75.2392 309.624 75.2396 309.624 75.24 309.624C75.2404 309.624 75.2408 309.624 75.2412 309.624C75.2416 309.624 75.242 309.624 75.2424 309.624C75.2429 309.624 75.2433 309.624 75.2437 309.624C75.2441 309.624 75.2445 309.624 75.2449 309.624C75.2453 309.624 75.2457 309.624 75.2461 309.624C75.2465 309.624 75.2469 309.624 75.2473 309.624C75.2477 309.624 75.2481 309.624 75.2485 309.624C75.2489 309.624 75.2493 309.624 75.2497 309.624C75.2501 309.624 75.2505 309.624 75.2509 309.624C75.2513 309.624 75.2517 309.624 75.2521 309.624C75.2526 309.624 75.253 309.624 75.2534 309.624C75.2538 309.624 75.2542 309.624 75.2546 309.624C75.255 309.624 75.2554 309.624 75.2558 309.624C75.2562 309.624 75.2566 309.624 75.257 309.624C75.2574 309.624 75.2578 309.624 75.2582 309.624C75.2586 309.624 75.259 309.624 75.2594 309.624C75.2598 309.624 75.2602 309.624 75.2606 309.624C75.261 309.624 75.2614 309.624 75.2618 309.624C75.2622 309.624 75.2626 309.624 75.2631 309.624C75.2635 309.624 75.2639 309.624 75.2643 309.624C75.2647 309.624 75.2651 309.624 75.2655 309.624C75.2659 309.624 75.2663 309.624 75.2667 309.624C75.2671 309.624 75.2675 309.624 75.2679 309.624C75.2683 309.624 75.2687 309.624 75.2691 309.624C75.2695 309.624 75.2699 309.624 75.2703 309.624C75.2707 309.624 75.2711 309.624 75.2715 309.624C75.2719 309.624 75.2723 309.624 75.2727 309.624C75.2731 309.624 75.2735 309.624 75.2739 309.624C75.2743 309.624 75.2747 309.624 75.2751 309.624C75.2755 309.624 75.2759 309.624 75.2763 309.624C75.2767 309.624 75.2772 309.624 75.2776 309.624C75.278 309.624 75.2784 309.624 75.2788 309.624C75.2792 309.624 75.2796 309.624 75.28 309.624C75.2804 309.624 75.2808 309.624 75.2812 309.624C75.2816 309.624 75.282 309.624 75.2824 309.624C75.2828 309.624 75.2832 309.624 75.2836 309.624C75.284 309.624 75.2844 309.624 75.2848 309.624C75.2852 309.624 75.2856 309.624 75.286 309.624C75.2864 309.624 75.2868 309.624 75.2872 309.624C75.2876 309.624 75.288 309.624 75.2884 309.624C75.2888 309.624 75.2892 309.624 75.2896 309.624C75.29 309.624 75.2904 309.624 75.2908 309.624C75.2912 309.624 75.2916 309.624 75.292 309.624C75.2924 309.624 75.2928 309.624 75.2932 309.624C75.2936 309.624 75.294 309.624 75.2944 309.624C75.2948 309.624 75.2952 309.624 75.2956 309.624C75.296 309.624 75.2964 309.624 75.2968 309.624C75.2972 309.624 75.2976 309.624 75.298 309.624C75.2984 309.624 75.2988 309.624 75.2992 309.624C75.2996 309.624 75.3 309.624 75.3004 309.624C75.3008 309.624 75.3012 309.624 75.3016 309.624C75.302 309.624 75.3024 309.624 75.3028 309.624C75.3032 309.624 75.3036 309.624 75.304 309.624C75.3044 309.624 75.3048 309.624 75.3052 309.624C75.3056 309.624 75.306 309.624 75.3064 309.624C75.3068 309.624 75.3072 309.624 75.3076 309.624C75.308 309.624 75.3084 309.624 75.3088 309.624C75.3092 309.624 75.3096 309.624 75.31 309.624C75.3104 309.624 75.3108 309.624 75.3112 309.624C75.3116 309.624 75.312 309.624 75.3124 309.624C75.3128 309.624 75.3132 309.624 75.3136 309.624C75.314 309.624 75.3144 309.624 75.3148 309.624C75.3152 309.624 75.3156 309.624 75.316 309.624C75.3164 309.624 75.3168 309.624 75.3172 309.624C75.3175 309.624 75.3179 309.624 75.3183 309.624C75.3187 309.624 75.3191 309.624 75.3195 309.624C75.3199 309.624 75.3203 309.624 75.3207 309.624C75.3211 309.624 75.3215 309.624 75.3219 309.624C75.3223 309.624 75.3227 309.624 75.3231 309.624C75.3235 309.624 75.3239 309.624 75.3243 309.624C75.3247 309.624 75.3251 309.624 75.3255 309.624C75.3259 309.624 75.3263 309.624 75.3267 309.624C75.3271 309.624 75.3275 309.624 75.3279 309.624C75.3282 309.624 75.3286 309.624 75.329 309.624C75.3294 309.624 75.3298 309.624 75.3302 309.624C75.3306 309.624 75.331 309.624 75.3314 309.624C75.3318 309.624 75.3322 309.624 75.3326 309.624C75.333 309.624 75.3334 309.624 75.3338 309.624C75.3342 309.624 75.3346 309.624 75.335 309.624C75.3354 309.624 75.3357 309.624 75.3361 309.624C75.3365 309.624 75.3369 309.624 75.3373 309.624C75.3377 309.624 75.3381 309.624 75.3385 309.624C75.3389 309.624 75.3393 309.624 75.3397 309.624C75.3401 309.624 75.3405 309.624 75.3409 309.624C75.3413 309.624 75.3416 309.624 75.342 309.624C75.3424 309.624 75.3428 309.624 75.3432 309.624C75.3436 309.624 75.344 309.624 75.3444 309.624C75.3448 309.624 75.3452 309.624 75.3456 309.624C75.346 309.624 75.3464 309.624 75.3467 309.624C75.3471 309.624 75.3475 309.624 75.3479 309.624C75.3483 309.624 75.3487 309.624 75.3491 309.624C75.3495 309.624 75.3499 309.624 75.3503 309.624C75.3507 309.624 75.351 309.624 75.3514 309.624C75.3518 309.624 75.3522 309.624 75.3526 309.624C75.353 309.624 75.3534 309.624 75.3538 309.624C75.3542 309.624 75.3546 309.624 75.3549 309.624C75.3553 309.624 75.3557 309.624 75.3561 309.624C75.3565 309.624 75.3569 309.624 75.3573 309.624C75.3577 309.624 75.3581 309.624 75.3585 309.624C75.3588 309.624 75.3592 309.624 75.3596 309.624C75.36 309.624 75.3604 309.624 75.3608 309.624C75.3612 309.624 75.3616 309.624 75.362 309.624C75.3623 309.624 75.3627 309.624 75.3631 309.624C75.3635 309.624 75.3639 309.624 75.3643 309.624C75.3647 309.624 75.3651 309.624 75.3654 309.624C75.3658 309.624 75.3662 309.624 75.3666 309.624C75.367 309.624 75.3674 309.624 75.3678 309.624C75.3681 309.624 75.3685 309.624 75.3689 309.624C75.3693 309.624 75.3697 309.624 75.3701 309.624C75.3705 309.624 75.3709 309.624 75.3712 309.624C75.3716 309.624 75.372 309.624 75.3724 309.624C75.3728 309.624 75.3732 309.624 75.3736 309.624C75.3739 309.624 75.3743 309.624 75.3747 309.624C75.3751 309.624 75.3755 309.624 75.3759 309.624C75.3762 309.624 75.3766 309.624 75.377 309.624C75.3774 309.624 75.3778 309.624 75.3782 309.624C75.3785 309.624 75.3789 309.624 75.3793 309.624C75.3797 309.624 75.3801 309.624 75.3805 309.624C75.3809 309.624 75.3812 309.624 75.3816 309.624C75.382 309.624 75.3824 309.624 75.3828 309.624C75.3831 309.624 75.3835 309.624 75.3839 309.624C75.3843 309.624 75.3847 309.624 75.3851 309.624C75.3854 309.624 75.3858 309.624 75.3862 309.624C75.3866 309.624 75.387 309.624 75.3873 309.624C75.3877 309.624 75.3881 309.624 75.3885 309.624C75.3889 309.624 75.3893 309.624 75.3896 309.624C75.39 309.624 75.3904 309.624 75.3908 309.624C75.3912 309.624 75.3915 309.624 75.3919 309.624C75.3923 309.624 75.3927 309.624 75.3931 309.624C75.3934 309.624 75.3938 309.624 75.3942 309.624C75.3946 309.624 75.3949 309.624 75.3953 309.624C75.3957 309.624 75.3961 309.624 75.3965 309.624C75.3968 309.624 75.3972 309.624 75.3976 309.624C75.398 309.624 75.3984 309.624 75.3987 309.624C75.3991 309.624 75.3995 309.624 75.3999 309.624C75.4002 309.624 75.4006 309.624 75.401 309.624C75.4014 309.624 75.4018 309.624 75.4021 309.624C75.4025 309.624 75.4029 309.624 75.4033 309.624C75.4036 309.624 75.404 309.624 75.4044 309.624C75.4048 309.624 75.4051 309.624 75.4055 309.624C75.4059 309.624 75.4063 309.624 75.4066 309.624C75.407 309.624 75.4074 309.624 75.4078 309.624C75.4081 309.624 75.4085 309.624 75.4089 309.624C75.4093 309.624 75.4096 309.624 75.41 309.624C75.4104 309.624 75.4108 309.624 75.4111 309.624C75.4115 309.624 75.4119 309.624 75.4122 309.624C75.4126 309.624 75.413 309.624 75.4134 309.624C75.4137 309.624 75.4141 309.624 75.4145 309.624C75.4149 309.624 75.4152 309.624 75.4156 309.624C75.416 309.624 75.4163 309.624 75.4167 309.624C75.4171 309.624 75.4175 309.624 75.4178 309.624C75.4182 309.624 75.4186 309.624 75.4189 309.624C75.4193 309.624 75.4197 309.624 75.4201 309.624C75.4204 309.624 75.4208 309.624 75.4212 309.624C75.4215 309.624 75.4219 309.624 75.4223 309.624C75.4226 309.624 75.423 309.624 75.4234 309.624C75.4238 309.624 75.4241 309.624 75.4245 309.624C75.4249 309.624 75.4252 309.624 75.4256 309.624C75.426 309.624 75.4263 309.624 75.4267 309.624C75.4271 309.624 75.4274 309.624 75.4278 309.624C75.4282 309.624 75.4285 309.624 75.4289 309.624C75.4293 309.624 75.4296 309.624 75.43 309.624C75.4304 309.624 75.4307 309.624 75.4311 309.624C75.4315 309.624 75.4318 309.624 75.4322 309.624C75.4326 309.624 75.4329 309.624 75.4333 309.624C75.4337 309.624 75.434 309.624 75.4344 309.624C75.4348 309.624 75.4351 309.624 75.4355 309.624C75.4358 309.624 75.4362 309.624 75.4366 309.624C75.4369 309.624 75.4373 309.624 75.4377 309.624C75.438 309.624 75.4384 309.624 75.4388 309.624C75.4391 309.624 75.4395 309.624 75.4398 309.624C75.4402 309.624 75.4406 309.624 75.4409 309.624C75.4413 309.624 75.4417 309.624 75.442 309.624C75.4424 309.624 75.4427 309.624 75.4431 309.624C75.4435 309.624 75.4438 309.624 75.4442 309.624C75.4445 309.624 75.4449 309.624 75.4453 309.624C75.4456 309.624 75.446 309.624 75.4463 309.624C75.4467 309.624 75.4471 309.624 75.4474 309.624C75.4478 309.624 75.4481 309.624 75.4485 309.624C75.4489 309.624 75.4492 309.624 75.4496 309.624C75.4499 309.624 75.4503 309.624 75.4506 309.624C75.451 309.624 75.4514 309.624 75.4517 309.624C75.4521 309.624 75.4524 309.624 75.4528 309.624C75.4531 309.624 75.4535 309.624 75.4539 309.624C75.4542 309.624 75.4546 309.624 75.4549 309.624C75.4553 309.624 75.4556 309.624 75.456 309.624C75.4564 309.624 75.4567 309.624 75.4571 309.624C75.4574 309.624 75.4578 309.624 75.4581 309.624C75.4585 309.624 75.4588 309.624 75.4592 309.624C75.4595 309.624 75.4599 309.624 75.4602 309.624C75.4606 309.624 75.461 309.624 75.4613 309.624C75.4617 309.624 75.462 309.624 75.4624 309.624C75.4627 309.624 75.4631 309.624 75.4634 309.624C75.4638 309.624 75.4641 309.624 75.4645 309.624C75.4648 309.624 75.4652 309.624 75.4655 309.624C75.4659 309.624 75.4662 309.624 75.4666 309.624C75.4669 309.624 75.4673 309.624 75.4676 309.624C75.468 309.624 75.4683 309.624 75.4687 309.624C75.469 309.624 75.4694 309.624 75.4697 309.624C75.4701 309.624 75.4704 309.624 75.4708 309.624C75.4711 309.624 75.4715 309.624 75.4718 309.624C75.4722 309.624 75.4725 309.624 75.4729 309.624C75.4732 309.624 75.4736 309.624 75.4739 309.624C75.4742 309.624 75.4746 309.624 75.4749 309.624C75.4753 309.624 75.4756 309.624 75.476 309.624C75.4763 309.624 75.4767 309.624 75.477 309.624C75.4774 309.624 75.4777 309.624 75.478 309.624C75.4784 309.624 75.4787 309.624 75.4791 309.624C75.4794 309.624 75.4798 309.624 75.4801 309.624C75.4805 309.624 75.4808 309.624 75.4811 309.624C75.4815 309.624 75.4818 309.624 75.4822 309.624C75.4825 309.624 75.4829 309.624 75.4832 309.624C75.4835 309.624 75.4839 309.624 75.4842 309.624C75.4846 309.624 75.4849 309.624 75.4852 309.624C75.4856 309.624 75.4859 309.624 75.4863 309.624C75.4866 309.624 75.4869 309.624 75.4873 309.624C75.4876 309.624 75.488 309.624 75.4883 309.624C75.4886 309.624 75.489 309.624 75.4893 309.624C75.4896 309.624 75.49 309.624 75.4903 309.624C75.4907 309.624 75.491 309.624 75.4913 309.624C75.4917 309.624 75.492 309.624 75.4923 309.624C75.4927 309.624 75.493 309.624 75.4934 309.624C75.4937 309.624 75.494 309.624 75.4944 309.624C75.4947 309.624 75.495 309.624 75.4954 309.624C75.4957 309.624 75.496 309.624 75.4964 309.624C75.4967 309.624 75.497 309.624 75.4974 309.624C75.4977 309.624 75.498 309.624 75.4984 309.624C75.4987 309.624 75.499 309.624 75.4994 309.624C75.4997 309.624 75.5 309.624 75.5004 309.624C75.5007 309.624 75.501 309.624 75.5014 309.624C75.5017 309.624 75.502 309.624 75.5024 309.624C75.5027 309.624 75.503 309.624 75.5033 309.624C75.5037 309.624 75.504 309.624 75.5043 309.624C75.5047 309.624 75.505 309.624 75.5053 309.624C75.5057 309.624 75.506 309.624 75.5063 309.624C75.5066 309.624 75.507 309.624 75.5073 309.624C75.5076 309.624 75.5079 309.624 75.5083 309.624C75.5086 309.624 75.5089 309.624 75.5093 309.624C75.5096 309.624 75.5099 309.624 75.5102 309.624C75.5106 309.624 75.5109 309.624 75.5112 309.624C75.5115 309.624 75.5119 309.624 75.5122 309.624C75.5125 309.624 75.5128 309.624 75.5132 309.624V306.663ZM74.9329 306.663C74.5273 306.663 74.2916 306.535 74.1539 306.401C74.0114 306.261 73.8652 306.008 73.8411 305.575L70.8852 305.739C70.944 306.797 71.3367 307.787 72.0853 308.519C72.8386 309.254 73.8463 309.624 74.9329 309.624V306.663ZM73.7675 305.189C73.772 305.202 73.7681 305.196 73.7648 305.16C73.7613 305.121 73.7605 305.079 73.7605 304.994H70.8C70.8 305.148 70.7909 305.621 70.9589 306.125L73.7675 305.189ZM73.7605 304.994C73.7605 304.545 73.8763 304.328 73.9697 304.223C74.0575 304.123 74.2747 303.952 74.8315 303.897L74.5369 300.951C73.4358 301.061 72.451 301.47 71.7513 302.262C71.0572 303.048 70.8 304.033 70.8 304.994H73.7605ZM74.8849 303.89C82.8478 302.801 93.8685 300.035 100.519 296.881L99.2498 294.206C92.9683 297.186 82.2706 299.892 74.4835 300.957L74.8849 303.89ZM100.705 296.775C100.882 296.657 101.062 296.609 101.376 296.609V293.649C100.696 293.649 99.8809 293.767 99.0631 294.312L100.705 296.775ZM101.376 296.609C101.859 296.609 102.286 296.836 102.585 297.536L105.307 296.37C104.612 294.748 103.215 293.649 101.376 293.649V296.609ZM102.572 297.502C102.66 297.723 102.714 298.031 102.714 298.279H105.675C105.675 297.698 105.564 297.011 105.32 296.403L102.572 297.502ZM102.714 298.279C102.714 298.884 102.359 299.49 101.626 299.856L102.95 302.504C104.539 301.71 105.675 300.161 105.675 298.279H102.714ZM101.71 299.818C99.0426 300.949 95.5405 302.172 91.6975 303.235L92.4867 306.089C96.4358 304.996 100.063 303.732 102.866 302.543L101.71 299.818ZM90.6118 304.662V319.003H93.5724V304.662H90.6118ZM92.0921 320.483H103.863V317.522H92.0921V320.483ZM103.863 320.483C104.114 320.483 104.265 320.571 104.396 320.747C104.557 320.963 104.704 321.356 104.704 321.904H107.664C107.664 320.877 107.397 319.819 106.77 318.978C106.114 318.098 105.105 317.522 103.863 317.522V320.483ZM104.704 321.904C104.704 322.593 104.552 322.932 104.45 323.066C104.394 323.138 104.297 323.242 103.946 323.242V326.203C105.087 326.203 106.109 325.768 106.8 324.866C107.444 324.026 107.664 322.955 107.664 321.904H104.704ZM103.946 323.242H92.0921V326.203H103.946V323.242ZM90.6118 324.722V337.986H93.5724V324.722H90.6118ZM92.0921 339.466H96.8171V336.505H92.0921V339.466ZM96.8171 339.466C98.9603 339.466 100.182 339.885 100.884 340.528C101.557 341.144 102.051 342.245 102.051 344.369H105.012C105.012 341.85 104.429 339.76 102.884 338.345C101.368 336.957 99.2331 336.505 96.8171 336.505V339.466ZM102.051 344.369V362.771H105.012V344.369H102.051ZM102.051 362.771C102.051 364.976 101.537 366.142 100.82 366.8C100.076 367.484 98.7912 367.922 96.5684 367.922V370.883C99.0707 370.883 101.268 370.41 102.823 368.98C104.408 367.524 105.012 365.374 105.012 362.771H102.051ZM96.5684 367.922H81.3987V370.883H96.5684V367.922ZM81.3987 367.922C79.1759 367.922 77.8913 367.484 77.1468 366.8C76.4306 366.142 75.9158 364.976 75.9158 362.771H72.9553C72.9553 365.374 73.5595 367.524 75.1436 368.98C76.6994 370.41 78.8964 370.883 81.3987 370.883V367.922ZM75.9158 362.771V344.369H72.9553V362.771H75.9158ZM75.9158 344.369C75.9158 342.245 76.4104 341.144 77.0828 340.528C77.7849 339.885 79.0068 339.466 81.15 339.466V336.505C78.734 336.505 76.5986 336.957 75.0833 338.345C73.5383 339.76 72.9553 341.85 72.9553 344.369H75.9158ZM81.15 339.466H86.1237V336.505H81.15V339.466ZM87.6039 337.986V324.722H84.6434V337.986H87.6039ZM86.1237 323.242H73.6895V326.203H86.1237V323.242ZM73.6895 323.242C73.3702 323.242 73.2342 323.14 73.1391 323.017C73.0075 322.848 72.8487 322.479 72.8487 321.821H69.8882C69.8882 322.904 70.1438 323.986 70.7997 324.832C71.4921 325.725 72.5166 326.203 73.6895 326.203V323.242ZM72.8487 321.821C72.8487 321.22 73.0007 320.872 73.13 320.709C73.2262 320.587 73.368 320.483 73.6895 320.483V317.522C72.5188 317.522 71.5001 317.998 70.8088 318.871C70.1506 319.703 69.8882 320.765 69.8882 321.821H72.8487ZM73.6895 320.483H86.1237V317.522H73.6895V320.483ZM79.0895 345.612V361.611H82.05V345.612H79.0895ZM79.0895 361.611C79.0895 362.621 79.3135 363.699 80.1965 364.442C81.0125 365.129 82.0751 365.246 82.9737 365.246V362.286C82.6234 362.286 82.3922 362.258 82.2432 362.223C82.1012 362.189 82.0804 362.158 82.1035 362.178C82.199 362.258 82.05 362.258 82.05 361.611H79.0895ZM82.9737 365.246H95.4079V362.286H82.9737V365.246ZM95.4079 365.246C96.2486 365.246 97.3333 365.139 98.0901 364.304C98.804 363.516 98.8776 362.444 98.8776 361.611H95.9171C95.9171 361.978 95.8927 362.195 95.8644 362.319C95.8386 362.433 95.8267 362.393 95.8964 362.316C95.9738 362.231 96.0406 362.221 95.9859 362.236C95.9096 362.258 95.7394 362.286 95.4079 362.286V365.246ZM98.8776 361.611V345.612H95.9171V361.611H98.8776ZM98.8776 345.612C98.8776 344.761 98.8119 343.659 98.0742 342.87C97.3022 342.045 96.1965 341.976 95.4079 341.976V344.937C95.7546 344.937 95.9338 344.962 96.0191 344.983C96.0824 344.999 96.0038 344.991 95.9123 344.893C95.8277 344.802 95.8373 344.747 95.8634 344.864C95.8922 344.992 95.9171 345.22 95.9171 345.612H98.8776ZM95.4079 341.976H82.9737V344.937H95.4079V341.976ZM82.9737 341.976C82.1181 341.976 81.0417 342.059 80.2143 342.735C79.3022 343.479 79.0895 344.584 79.0895 345.612H82.05C82.05 344.899 82.2103 344.927 82.0857 345.029C82.0515 345.056 82.0644 345.028 82.2139 344.995C82.3702 344.961 82.6093 344.937 82.9737 344.937V341.976ZM110.909 314.787H105.853V317.747H110.909V314.787ZM105.853 314.787C105.629 314.787 105.47 314.706 105.331 314.528C105.17 314.322 105.012 313.937 105.012 313.366H102.051C102.051 314.453 102.349 315.519 102.996 316.349C103.666 317.207 104.667 317.747 105.853 317.747V314.787ZM105.012 313.366C105.012 312.709 105.17 312.366 105.285 312.22C105.366 312.118 105.481 312.028 105.77 312.028V309.067C104.649 309.067 103.646 309.516 102.959 310.388C102.307 311.216 102.051 312.282 102.051 313.366H105.012ZM105.77 312.028H110.909V309.067H105.77V312.028ZM112.389 310.547V297.782H109.429V310.547H112.389ZM112.389 297.782C112.389 297.586 112.427 297.477 112.456 297.419C112.484 297.364 112.528 297.306 112.617 297.244C112.82 297.102 113.264 296.941 114.059 296.941V293.98C112.948 293.98 111.817 294.192 110.922 294.817C109.949 295.496 109.429 296.545 109.429 297.782H112.389ZM114.059 296.941C114.855 296.941 115.298 297.102 115.502 297.244C115.591 297.306 115.635 297.364 115.662 297.419C115.691 297.477 115.729 297.586 115.729 297.782H118.689C118.689 296.545 118.17 295.496 117.197 294.817C116.302 294.192 115.17 293.98 114.059 293.98V296.941ZM115.729 297.782V310.547H118.689V297.782H115.729ZM117.209 312.028H135.28V309.067H117.209V312.028ZM136.761 310.547V297.782H133.8V310.547H136.761ZM136.761 297.782C136.761 297.586 136.798 297.477 136.827 297.419C136.855 297.364 136.899 297.306 136.988 297.244C137.191 297.102 137.635 296.941 138.43 296.941V293.98C137.319 293.98 136.188 294.192 135.293 294.817C134.32 295.496 133.8 296.545 133.8 297.782H136.761ZM138.43 296.941C139.226 296.941 139.669 297.102 139.873 297.244C139.962 297.306 140.006 297.364 140.033 297.419C140.062 297.477 140.1 297.586 140.1 297.782H143.061C143.061 296.545 142.541 295.496 141.568 294.817C140.673 294.192 139.542 293.98 138.43 293.98V296.941ZM140.1 297.782V310.547H143.061V297.782H140.1ZM141.58 312.028H146.388V309.067H141.58V312.028ZM146.388 312.028C146.707 312.028 146.843 312.13 146.938 312.252C147.07 312.422 147.229 312.791 147.229 313.449H150.189C150.189 312.365 149.934 311.284 149.278 310.438C148.586 309.545 147.561 309.067 146.388 309.067V312.028ZM147.229 313.449C147.229 314.05 147.077 314.398 146.948 314.561C146.851 314.682 146.71 314.787 146.388 314.787V317.747C147.559 317.747 148.578 317.272 149.269 316.399C149.927 315.567 150.189 314.505 150.189 313.449H147.229ZM146.388 314.787H141.58V317.747H146.388V314.787ZM140.1 316.267V362.688H143.061V316.267H140.1ZM140.1 362.688C140.1 364.893 139.585 366.059 138.869 366.717C138.124 367.401 136.84 367.84 134.617 367.84V370.8C137.119 370.8 139.316 370.327 140.872 368.897C142.456 367.441 143.061 365.291 143.061 362.688H140.1ZM134.617 367.84H117.789V370.8H134.617V367.84ZM117.789 367.84C115.614 367.84 114.35 367.403 113.615 366.722C112.904 366.063 112.389 364.893 112.389 362.688H109.429C109.429 365.291 110.033 367.438 111.602 368.892C113.146 370.324 115.323 370.8 117.789 370.8V367.84ZM112.389 362.688V316.267H109.429V362.688H112.389ZM115.729 340.97V361.445H118.689V340.97H115.729ZM115.729 361.445C115.729 362.455 115.953 363.533 116.836 364.276C117.652 364.964 118.715 365.08 119.613 365.08V362.12C119.263 362.12 119.032 362.093 118.883 362.057C118.741 362.023 118.72 361.992 118.743 362.012C118.839 362.092 118.689 362.092 118.689 361.445H115.729ZM119.613 365.08H132.793V362.12H119.613V365.08ZM132.793 365.08C133.698 365.08 134.757 364.961 135.583 364.3C136.493 363.572 136.761 362.5 136.761 361.445H133.8C133.8 362.048 133.653 362.053 133.734 361.988C133.742 361.982 133.702 362.018 133.545 362.055C133.383 362.093 133.143 362.12 132.793 362.12V365.08ZM136.761 361.445V340.97H133.8V361.445H136.761ZM135.28 339.49H117.209V342.45H135.28V339.49ZM136.761 335.333V316.267H133.8V335.333H136.761ZM135.28 314.787H117.209V317.747H135.28V314.787ZM115.729 316.267V335.333H118.689V316.267H115.729ZM117.209 336.813H135.28V333.853H117.209V336.813Z" fill="#59391D" mask="url(#path-5-outside-1_280_4083)"/>
<ellipse cx="14.8026" cy="15.0806" rx="14.8026" ry="15.0806" transform="matrix(0.999947 -0.0103167 -0.0173517 0.999849 240.066 205.191)" fill="#59391D"/>
<ellipse cx="14.8026" cy="15.0806" rx="14.8026" ry="15.0806" transform="matrix(0.999947 -0.0103167 -0.0173517 0.999849 374.531 207.591)" fill="#59391D"/>
<path d="M262.696 271.114C261.116 275.348 262.965 280.733 266.997 282.799C283.979 291.499 302.215 295.519 320.35 294.516C338.937 293.488 356.858 287.214 372.723 276.231C375.776 274.117 376.412 269.392 374.35 265.582C372.025 261.287 367.251 259.845 363.854 262.112C350.184 271.235 334.861 276.444 318.999 277.321C303.252 278.191 287.427 274.768 272.66 267.346C268.711 265.361 264.286 266.856 262.696 271.114Z" fill="#59391D" stroke="#59391D" stroke-width="1.48026"/>
<path d="M611.459 217.75C598.626 217.75 587.126 215.667 576.959 211.5C566.792 207.333 558.626 201.167 552.459 193C546.459 184.833 543.292 175 542.959 163.5H588.459C589.126 170 591.376 175 595.209 178.5C599.042 181.833 604.042 183.5 610.209 183.5C616.542 183.5 621.542 182.083 625.209 179.25C628.876 176.25 630.709 172.167 630.709 167C630.709 162.667 629.209 159.083 626.209 156.25C623.376 153.417 619.792 151.083 615.459 149.25C611.292 147.417 605.292 145.333 597.459 143C586.126 139.5 576.876 136 569.709 132.5C562.542 129 556.376 123.833 551.209 117C546.042 110.167 543.459 101.25 543.459 90.25C543.459 73.9167 549.376 61.1667 561.209 52C573.042 42.6667 588.459 38 607.459 38C626.792 38 642.376 42.6667 654.209 52C666.042 61.1667 672.376 74 673.209 90.5H626.959C626.626 84.8333 624.542 80.4167 620.709 77.25C616.876 73.9167 611.959 72.25 605.959 72.25C600.792 72.25 596.626 73.6667 593.459 76.5C590.292 79.1667 588.709 83.0833 588.709 88.25C588.709 93.9167 591.376 98.3333 596.709 101.5C602.042 104.667 610.376 108.083 621.709 111.75C633.042 115.583 642.209 119.25 649.209 122.75C656.376 126.25 662.542 131.333 667.709 138C672.876 144.667 675.459 153.25 675.459 163.75C675.459 173.75 672.876 182.833 667.709 191C662.709 199.167 655.376 205.667 645.709 210.5C636.042 215.333 624.626 217.75 611.459 217.75ZM832.018 76.5V216H789.268V197C784.934 203.167 779.018 208.167 771.518 212C764.184 215.667 756.018 217.5 747.018 217.5C736.351 217.5 726.934 215.167 718.768 210.5C710.601 205.667 704.268 198.75 699.768 189.75C695.268 180.75 693.018 170.167 693.018 158V76.5H735.518V152.25C735.518 161.583 737.934 168.833 742.768 174C747.601 179.167 754.101 181.75 762.268 181.75C770.601 181.75 777.184 179.167 782.018 174C786.851 168.833 789.268 161.583 789.268 152.25V76.5H832.018ZM908.225 74.5C918.058 74.5 926.641 76.5 933.975 80.5C941.475 84.5 947.225 89.75 951.225 96.25V76.5H993.975V215.75C993.975 228.583 991.391 240.167 986.225 250.5C981.225 261 973.475 269.333 962.975 275.5C952.641 281.667 939.725 284.75 924.225 284.75C903.558 284.75 886.808 279.833 873.975 270C861.141 260.333 853.808 247.167 851.975 230.5H894.225C895.558 235.833 898.725 240 903.725 243C908.725 246.167 914.891 247.75 922.225 247.75C931.058 247.75 938.058 245.167 943.225 240C948.558 235 951.225 226.917 951.225 215.75V196C947.058 202.5 941.308 207.833 933.975 212C926.641 216 918.058 218 908.225 218C896.725 218 886.308 215.083 876.975 209.25C867.641 203.25 860.225 194.833 854.725 184C849.391 173 846.725 160.333 846.725 146C846.725 131.667 849.391 119.083 854.725 108.25C860.225 97.4167 867.641 89.0833 876.975 83.25C886.308 77.4167 896.725 74.5 908.225 74.5ZM951.225 146.25C951.225 135.583 948.225 127.167 942.225 121C936.391 114.833 929.225 111.75 920.725 111.75C912.225 111.75 904.975 114.833 898.975 121C893.141 127 890.225 135.333 890.225 146C890.225 156.667 893.141 165.167 898.975 171.5C904.975 177.667 912.225 180.75 920.725 180.75C929.225 180.75 936.391 177.667 942.225 171.5C948.225 165.333 951.225 156.917 951.225 146.25ZM1008.9 146C1008.9 131.667 1011.57 119.083 1016.9 108.25C1022.4 97.4167 1029.82 89.0833 1039.15 83.25C1048.49 77.4167 1058.9 74.5 1070.4 74.5C1080.24 74.5 1088.82 76.5 1096.15 80.5C1103.65 84.5 1109.4 89.75 1113.4 96.25V76.5H1156.15V216H1113.4V196.25C1109.24 202.75 1103.4 208 1095.9 212C1088.57 216 1079.99 218 1070.15 218C1058.82 218 1048.49 215.083 1039.15 209.25C1029.82 203.25 1022.4 194.833 1016.9 184C1011.57 173 1008.9 160.333 1008.9 146ZM1113.4 146.25C1113.4 135.583 1110.4 127.167 1104.4 121C1098.57 114.833 1091.4 111.75 1082.9 111.75C1074.4 111.75 1067.15 114.833 1061.15 121C1055.32 127 1052.4 135.333 1052.4 146C1052.4 156.667 1055.32 165.167 1061.15 171.5C1067.15 177.667 1074.4 180.75 1082.9 180.75C1091.4 180.75 1098.57 177.667 1104.4 171.5C1110.4 165.333 1113.4 156.917 1113.4 146.25ZM1222.33 99.75C1227.33 92.0833 1233.58 86.0833 1241.08 81.75C1248.58 77.25 1256.91 75 1266.08 75V120.25H1254.33C1243.66 120.25 1235.66 122.583 1230.33 127.25C1225 131.75 1222.33 139.75 1222.33 151.25V216H1179.58V76.5H1222.33V99.75ZM1299.01 218C1291.51 218 1285.35 215.833 1280.51 211.5C1275.85 207 1273.51 201.5 1273.51 195C1273.51 188.333 1275.85 182.75 1280.51 178.25C1285.35 173.75 1291.51 171.5 1299.01 171.5C1306.35 171.5 1312.35 173.75 1317.01 178.25C1321.85 182.75 1324.26 188.333 1324.26 195C1324.26 201.5 1321.85 207 1317.01 211.5C1312.35 215.833 1306.35 218 1299.01 218ZM1468.32 40.5V74.75H1421.82V216H1379.07V74.75H1332.57V40.5H1468.32ZM1545.78 218C1532.11 218 1519.78 215.083 1508.78 209.25C1497.94 203.417 1489.36 195.083 1483.03 184.25C1476.86 173.417 1473.78 160.75 1473.78 146.25C1473.78 131.917 1476.94 119.333 1483.28 108.5C1489.61 97.5 1498.28 89.0833 1509.28 83.25C1520.28 77.4167 1532.61 74.5 1546.28 74.5C1559.94 74.5 1572.28 77.4167 1583.28 83.25C1594.28 89.0833 1602.94 97.5 1609.28 108.5C1615.61 119.333 1618.78 131.917 1618.78 146.25C1618.78 160.583 1615.53 173.25 1609.03 184.25C1602.69 195.083 1593.94 203.417 1582.78 209.25C1571.78 215.083 1559.44 218 1545.78 218ZM1545.78 181C1553.94 181 1560.86 178 1566.53 172C1572.36 166 1575.28 157.417 1575.28 146.25C1575.28 135.083 1572.44 126.5 1566.78 120.5C1561.28 114.5 1554.44 111.5 1546.28 111.5C1537.94 111.5 1531.03 114.5 1525.53 120.5C1520.03 126.333 1517.28 134.917 1517.28 146.25C1517.28 157.417 1519.94 166 1525.28 172C1530.78 178 1537.61 181 1545.78 181ZM1676.71 96.25C1680.87 89.75 1686.62 84.5 1693.96 80.5C1701.29 76.5 1709.87 74.5 1719.71 74.5C1731.21 74.5 1741.62 77.4167 1750.96 83.25C1760.29 89.0833 1767.62 97.4167 1772.96 108.25C1778.46 119.083 1781.21 131.667 1781.21 146C1781.21 160.333 1778.46 173 1772.96 184C1767.62 194.833 1760.29 203.25 1750.96 209.25C1741.62 215.083 1731.21 218 1719.71 218C1710.04 218 1701.46 216 1693.96 212C1686.62 208 1680.87 202.833 1676.71 196.5V282.5H1633.96V76.5H1676.71V96.25ZM1737.71 146C1737.71 135.333 1734.71 127 1728.71 121C1722.87 114.833 1715.62 111.75 1706.96 111.75C1698.46 111.75 1691.21 114.833 1685.21 121C1679.37 127.167 1676.46 135.583 1676.46 146.25C1676.46 156.917 1679.37 165.333 1685.21 171.5C1691.21 177.667 1698.46 180.75 1706.96 180.75C1715.46 180.75 1722.71 177.667 1728.71 171.5C1734.71 165.167 1737.71 156.667 1737.71 146ZM1817.63 62C1810.13 62 1803.97 59.8333 1799.13 55.5C1794.47 51 1792.13 45.5 1792.13 39C1792.13 32.3333 1794.47 26.8333 1799.13 22.5C1803.97 18 1810.13 15.75 1817.63 15.75C1824.97 15.75 1830.97 18 1835.63 22.5C1840.47 26.8333 1842.88 32.3333 1842.88 39C1842.88 45.5 1840.47 51 1835.63 55.5C1830.97 59.8333 1824.97 62 1817.63 62ZM1838.88 76.5V216H1796.13V76.5H1838.88ZM1853.86 146C1853.86 131.667 1856.53 119.083 1861.86 108.25C1867.36 97.4167 1874.78 89.0833 1884.11 83.25C1893.45 77.4167 1903.86 74.5 1915.36 74.5C1925.2 74.5 1933.78 76.5 1941.11 80.5C1948.61 84.5 1954.36 89.75 1958.36 96.25V76.5H2001.11V216H1958.36V196.25C1954.2 202.75 1948.36 208 1940.86 212C1933.53 216 1924.95 218 1915.11 218C1903.78 218 1893.45 215.083 1884.11 209.25C1874.78 203.25 1867.36 194.833 1861.86 184C1856.53 173 1853.86 160.333 1853.86 146ZM1958.36 146.25C1958.36 135.583 1955.36 127.167 1949.36 121C1943.53 114.833 1936.36 111.75 1927.86 111.75C1919.36 111.75 1912.11 114.833 1906.11 121C1900.28 127 1897.36 135.333 1897.36 146C1897.36 156.667 1900.28 165.167 1906.11 171.5C1912.11 177.667 1919.36 180.75 1927.86 180.75C1936.36 180.75 1943.53 177.667 1949.36 171.5C1955.36 165.333 1958.36 156.917 1958.36 146.25Z" fill="#59391D"/>
<path d="M631.572 322.6L603.972 375.76V406H590.292V375.76L562.572 322.6H577.812L597.132 363.52L616.452 322.6H631.572ZM668.708 407.08C662.468 407.08 656.828 405.68 651.788 402.88C646.748 400 642.788 396 639.908 390.88C637.028 385.68 635.588 379.68 635.588 372.88C635.588 366.16 637.068 360.2 640.028 355C642.988 349.8 647.028 345.8 652.148 343C657.268 340.2 662.988 338.8 669.308 338.8C675.628 338.8 681.348 340.2 686.468 343C691.588 345.8 695.628 349.8 698.588 355C701.548 360.2 703.028 366.16 703.028 372.88C703.028 379.6 701.508 385.56 698.468 390.76C695.428 395.96 691.268 400 685.988 402.88C680.788 405.68 675.028 407.08 668.708 407.08ZM668.708 395.2C672.228 395.2 675.508 394.36 678.548 392.68C681.668 391 684.188 388.48 686.108 385.12C688.028 381.76 688.988 377.68 688.988 372.88C688.988 368.08 688.068 364.04 686.228 360.76C684.388 357.4 681.948 354.88 678.908 353.2C675.868 351.52 672.588 350.68 669.068 350.68C665.548 350.68 662.268 351.52 659.228 353.2C656.268 354.88 653.908 357.4 652.148 360.76C650.388 364.04 649.508 368.08 649.508 372.88C649.508 380 651.308 385.52 654.908 389.44C658.588 393.28 663.188 395.2 668.708 395.2ZM774.032 339.88V406H760.352V398.2C758.192 400.92 755.352 403.08 751.832 404.68C748.392 406.2 744.712 406.96 740.792 406.96C735.592 406.96 730.912 405.88 726.752 403.72C722.672 401.56 719.432 398.36 717.032 394.12C714.712 389.88 713.552 384.76 713.552 378.76V339.88H727.112V376.72C727.112 382.64 728.592 387.2 731.552 390.4C734.512 393.52 738.552 395.08 743.672 395.08C748.792 395.08 752.832 393.52 755.792 390.4C758.832 387.2 760.352 382.64 760.352 376.72V339.88H774.032ZM803.361 349.48C805.361 346.12 808.001 343.52 811.281 341.68C814.641 339.76 818.601 338.8 823.161 338.8V352.96H819.681C814.321 352.96 810.241 354.32 807.441 357.04C804.721 359.76 803.361 364.48 803.361 371.2V406H789.681V339.88H803.361V349.48ZM889.588 406.84C883.988 406.84 878.948 405.88 874.468 403.96C869.988 401.96 866.468 399.16 863.908 395.56C861.348 391.96 860.068 387.76 860.068 382.96H874.708C875.028 386.56 876.428 389.52 878.908 391.84C881.468 394.16 885.028 395.32 889.588 395.32C894.308 395.32 897.988 394.2 900.628 391.96C903.268 389.64 904.588 386.68 904.588 383.08C904.588 380.28 903.748 378 902.068 376.24C900.468 374.48 898.428 373.12 895.948 372.16C893.548 371.2 890.188 370.16 885.868 369.04C880.428 367.6 875.988 366.16 872.548 364.72C869.188 363.2 866.308 360.88 863.908 357.76C861.508 354.64 860.308 350.48 860.308 345.28C860.308 340.48 861.508 336.28 863.908 332.68C866.308 329.08 869.668 326.32 873.988 324.4C878.308 322.48 883.308 321.52 888.988 321.52C897.068 321.52 903.668 323.56 908.788 327.64C913.988 331.64 916.868 337.16 917.428 344.2H902.308C902.068 341.16 900.628 338.56 897.988 336.4C895.348 334.24 891.868 333.16 887.548 333.16C883.628 333.16 880.428 334.16 877.948 336.16C875.468 338.16 874.228 341.04 874.228 344.8C874.228 347.36 874.988 349.48 876.508 351.16C878.108 352.76 880.108 354.04 882.508 355C884.908 355.96 888.188 357 892.348 358.12C897.868 359.64 902.348 361.16 905.788 362.68C909.308 364.2 912.268 366.56 914.668 369.76C917.148 372.88 918.388 377.08 918.388 382.36C918.388 386.6 917.228 390.6 914.908 394.36C912.668 398.12 909.348 401.16 904.948 403.48C900.628 405.72 895.508 406.84 889.588 406.84ZM1020.93 339.88L1000.41 406H986.01L972.69 357.16L959.37 406H944.97L924.33 339.88H938.25L952.05 393.04L966.09 339.88H980.37L993.81 392.8L1007.49 339.88H1020.93ZM1089.35 371.32C1089.35 373.8 1089.19 376.04 1088.87 378.04H1038.35C1038.75 383.32 1040.71 387.56 1044.23 390.76C1047.75 393.96 1052.07 395.56 1057.19 395.56C1064.55 395.56 1069.75 392.48 1072.79 386.32H1087.55C1085.55 392.4 1081.91 397.4 1076.63 401.32C1071.43 405.16 1064.95 407.08 1057.19 407.08C1050.87 407.08 1045.19 405.68 1040.15 402.88C1035.19 400 1031.27 396 1028.39 390.88C1025.59 385.68 1024.19 379.68 1024.19 372.88C1024.19 366.08 1025.55 360.12 1028.27 355C1031.07 349.8 1034.95 345.8 1039.91 343C1044.95 340.2 1050.71 338.8 1057.19 338.8C1063.43 338.8 1068.99 340.16 1073.87 342.88C1078.75 345.6 1082.55 349.44 1085.27 354.4C1087.99 359.28 1089.35 364.92 1089.35 371.32ZM1075.07 367C1074.99 361.96 1073.19 357.92 1069.67 354.88C1066.15 351.84 1061.79 350.32 1056.59 350.32C1051.87 350.32 1047.83 351.84 1044.47 354.88C1041.11 357.84 1039.11 361.88 1038.47 367H1075.07ZM1161.02 371.32C1161.02 373.8 1160.86 376.04 1160.54 378.04H1110.02C1110.42 383.32 1112.38 387.56 1115.9 390.76C1119.42 393.96 1123.74 395.56 1128.86 395.56C1136.22 395.56 1141.42 392.48 1144.46 386.32H1159.22C1157.22 392.4 1153.58 397.4 1148.3 401.32C1143.1 405.16 1136.62 407.08 1128.86 407.08C1122.54 407.08 1116.86 405.68 1111.82 402.88C1106.86 400 1102.94 396 1100.06 390.88C1097.26 385.68 1095.86 379.68 1095.86 372.88C1095.86 366.08 1097.22 360.12 1099.94 355C1102.74 349.8 1106.62 345.8 1111.58 343C1116.62 340.2 1122.38 338.8 1128.86 338.8C1135.1 338.8 1140.66 340.16 1145.54 342.88C1150.42 345.6 1154.22 349.44 1156.94 354.4C1159.66 359.28 1161.02 364.92 1161.02 371.32ZM1146.74 367C1146.66 361.96 1144.86 357.92 1141.34 354.88C1137.82 351.84 1133.46 350.32 1128.26 350.32C1123.54 350.32 1119.5 351.84 1116.14 354.88C1112.78 357.84 1110.78 361.88 1110.14 367H1146.74ZM1188.04 351.04V387.64C1188.04 390.12 1188.6 391.92 1189.72 393.04C1190.92 394.08 1192.92 394.6 1195.72 394.6H1204.12V406H1193.32C1187.16 406 1182.44 404.56 1179.16 401.68C1175.88 398.8 1174.24 394.12 1174.24 387.64V351.04H1166.44V339.88H1174.24V323.44H1188.04V339.88H1204.12V351.04H1188.04ZM1303.46 346.6C1301.3 342.44 1298.3 339.32 1294.46 337.24C1290.62 335.08 1286.18 334 1281.14 334C1275.62 334 1270.7 335.24 1266.38 337.72C1262.06 340.2 1258.66 343.72 1256.18 348.28C1253.78 352.84 1252.58 358.12 1252.58 364.12C1252.58 370.12 1253.78 375.44 1256.18 380.08C1258.66 384.64 1262.06 388.16 1266.38 390.64C1270.7 393.12 1275.62 394.36 1281.14 394.36C1288.58 394.36 1294.62 392.28 1299.26 388.12C1303.9 383.96 1306.74 378.32 1307.78 371.2H1276.46V360.28H1322.42V370.96C1321.54 377.44 1319.22 383.4 1315.46 388.84C1311.78 394.28 1306.94 398.64 1300.94 401.92C1295.02 405.12 1288.42 406.72 1281.14 406.72C1273.3 406.72 1266.14 404.92 1259.66 401.32C1253.18 397.64 1248.02 392.56 1244.18 386.08C1240.42 379.6 1238.54 372.28 1238.54 364.12C1238.54 355.96 1240.42 348.64 1244.18 342.16C1248.02 335.68 1253.18 330.64 1259.66 327.04C1266.22 323.36 1273.38 321.52 1281.14 321.52C1290.02 321.52 1297.9 323.72 1304.78 328.12C1311.74 332.44 1316.78 338.6 1319.9 346.6H1303.46ZM1393.39 339.88V406H1379.71V398.2C1377.55 400.92 1374.71 403.08 1371.19 404.68C1367.75 406.2 1364.07 406.96 1360.15 406.96C1354.95 406.96 1350.27 405.88 1346.11 403.72C1342.03 401.56 1338.79 398.36 1336.39 394.12C1334.07 389.88 1332.91 384.76 1332.91 378.76V339.88H1346.47V376.72C1346.47 382.64 1347.95 387.2 1350.91 390.4C1353.87 393.52 1357.91 395.08 1363.03 395.08C1368.15 395.08 1372.19 393.52 1375.15 390.4C1378.19 387.2 1379.71 382.64 1379.71 376.72V339.88H1393.39ZM1416 331.12C1413.52 331.12 1411.44 330.28 1409.76 328.6C1408.08 326.92 1407.24 324.84 1407.24 322.36C1407.24 319.88 1408.08 317.8 1409.76 316.12C1411.44 314.44 1413.52 313.6 1416 313.6C1418.4 313.6 1420.44 314.44 1422.12 316.12C1423.8 317.8 1424.64 319.88 1424.64 322.36C1424.64 324.84 1423.8 326.92 1422.12 328.6C1420.44 330.28 1418.4 331.12 1416 331.12ZM1422.72 339.88V406H1409.04V339.88H1422.72ZM1433.72 372.64C1433.72 366 1435.08 360.12 1437.8 355C1440.6 349.88 1444.36 345.92 1449.08 343.12C1453.88 340.24 1459.2 338.8 1465.04 338.8C1469.36 338.8 1473.6 339.76 1477.76 341.68C1482 343.52 1485.36 346 1487.84 349.12V317.2H1501.64V406H1487.84V396.04C1485.6 399.24 1482.48 401.88 1478.48 403.96C1474.56 406.04 1470.04 407.08 1464.92 407.08C1459.16 407.08 1453.88 405.64 1449.08 402.76C1444.36 399.8 1440.6 395.72 1437.8 390.52C1435.08 385.24 1433.72 379.28 1433.72 372.64ZM1487.84 372.88C1487.84 368.32 1486.88 364.36 1484.96 361C1483.12 357.64 1480.68 355.08 1477.64 353.32C1474.6 351.56 1471.32 350.68 1467.8 350.68C1464.28 350.68 1461 351.56 1457.96 353.32C1454.92 355 1452.44 357.52 1450.52 360.88C1448.68 364.16 1447.76 368.08 1447.76 372.64C1447.76 377.2 1448.68 381.2 1450.52 384.64C1452.44 388.08 1454.92 390.72 1457.96 392.56C1461.08 394.32 1464.36 395.2 1467.8 395.2C1471.32 395.2 1474.6 394.32 1477.64 392.56C1480.68 390.8 1483.12 388.24 1484.96 384.88C1486.88 381.44 1487.84 377.44 1487.84 372.88ZM1577.81 371.32C1577.81 373.8 1577.65 376.04 1577.33 378.04H1526.81C1527.21 383.32 1529.17 387.56 1532.69 390.76C1536.21 393.96 1540.53 395.56 1545.65 395.56C1553.01 395.56 1558.21 392.48 1561.25 386.32H1576.01C1574.01 392.4 1570.37 397.4 1565.09 401.32C1559.89 405.16 1553.41 407.08 1545.65 407.08C1539.33 407.08 1533.65 405.68 1528.61 402.88C1523.65 400 1519.73 396 1516.85 390.88C1514.05 385.68 1512.65 379.68 1512.65 372.88C1512.65 366.08 1514.01 360.12 1516.73 355C1519.53 349.8 1523.41 345.8 1528.37 343C1533.41 340.2 1539.17 338.8 1545.65 338.8C1551.89 338.8 1557.45 340.16 1562.33 342.88C1567.21 345.6 1571.01 349.44 1573.73 354.4C1576.45 359.28 1577.81 364.92 1577.81 371.32ZM1563.53 367C1563.45 361.96 1561.65 357.92 1558.13 354.88C1554.61 351.84 1550.25 350.32 1545.05 350.32C1540.33 350.32 1536.29 351.84 1532.93 354.88C1529.57 357.84 1527.57 361.88 1526.93 367H1563.53Z" fill="#59391D"/>
</svg>
