<svg width="1485" height="937" viewBox="0 0 1485 937" fill="none" xmlns="http://www.w3.org/2000/svg">
<rect x="517.5" y="20" width="450" height="393" rx="60" fill="#FCDC94"/>
<rect x="517.5" y="20" width="450" height="393" rx="60" stroke="#59391D" stroke-width="28"/>
<path d="M969.5 71.7292C969.5 106.37 920.253 134.447 859.5 134.447C798.747 134.447 749.5 106.37 749.5 71.7292C749.5 37.0883 798.747 9.01172 859.5 9.01172C920.253 9.01172 969.5 37.0883 969.5 71.7292Z" fill="#FCDC94" stroke="#59391D" stroke-width="26.4" stroke-linecap="round" stroke-linejoin="round"/>
<path d="M859.5 49.2973C892.5 34.5273 914.5 58.3181 914.5 69.4505C914.5 102.586 804.5 100.862 804.5 60.0429C804.5 35.1231 826.5 9.01172 859.5 9.01172" fill="#FCDC94"/>
<path d="M859.5 49.2973C892.5 34.5273 914.5 58.3181 914.5 69.4505C914.5 102.586 804.5 100.862 804.5 60.0429C804.5 35.1231 826.5 9.01172 859.5 9.01172" stroke="#59391D" stroke-width="26.4" stroke-linecap="round" stroke-linejoin="round"/>
<mask id="path-5-outside-1_280_2440" maskUnits="userSpaceOnUse" x="572.5" y="288.178" width="82" height="79" fill="black">
<rect fill="white" x="572.5" y="288.178" width="82" height="79"/>
<path d="M589.624 314.503V301.654C585.893 302.483 582.246 303.146 579.013 303.644C578.847 303.644 578.599 303.644 578.433 303.644C576.941 303.644 575.946 302.649 575.863 301.157C575.78 300.908 575.78 300.659 575.78 300.494C575.78 299.084 576.526 298.09 578.184 297.924C586.059 296.846 596.918 294.111 603.384 291.044C603.882 290.712 604.379 290.629 604.876 290.629C606.037 290.629 606.949 291.292 607.446 292.453C607.612 292.867 607.695 293.365 607.695 293.779C607.695 295.022 606.949 296.1 605.788 296.68C603.053 297.841 599.488 299.084 595.592 300.162V314.503H607.363C608.855 314.503 609.684 315.829 609.684 317.404C609.684 319.145 608.938 320.222 607.446 320.222H595.592V333.486H600.317C604.876 333.486 607.032 335.226 607.032 339.869V358.271C607.032 363.079 604.793 364.903 600.068 364.903H584.899C580.174 364.903 577.936 363.079 577.936 358.271V339.869C577.936 335.226 580.091 333.486 584.65 333.486H589.624V320.222H577.189C575.697 320.222 574.868 319.062 574.868 317.321C574.868 315.663 575.697 314.503 577.189 314.503H589.624ZM584.07 341.112V357.111C584.07 358.769 584.816 359.266 586.474 359.266H598.908C600.483 359.266 600.897 358.769 600.897 357.111V341.112C600.897 339.371 600.483 338.957 598.908 338.957H586.474C584.816 338.957 584.07 339.371 584.07 341.112ZM614.409 311.767H609.353C607.943 311.767 607.032 310.524 607.032 308.866C607.032 307.125 607.861 306.047 609.27 306.047H614.409V293.282C614.409 291.707 615.653 290.961 617.559 290.961C619.466 290.961 620.709 291.707 620.709 293.282V306.047H638.78V293.282C638.78 291.707 640.024 290.961 641.93 290.961C643.837 290.961 645.08 291.707 645.08 293.282V306.047H649.888C651.38 306.047 652.209 307.208 652.209 308.949C652.209 310.607 651.38 311.767 649.888 311.767H645.08V358.188C645.08 362.996 642.842 364.82 638.117 364.82H621.289C616.647 364.82 614.409 362.996 614.409 358.188V311.767ZM620.709 336.47V356.945C620.709 358.603 621.455 359.1 623.113 359.1H636.293C637.951 359.1 638.78 358.603 638.78 356.945V336.47H620.709ZM638.78 330.833V311.767H620.709V330.833H638.78Z"/>
</mask>
<path d="M589.624 314.503V301.654C585.893 302.483 582.246 303.146 579.013 303.644C578.847 303.644 578.599 303.644 578.433 303.644C576.941 303.644 575.946 302.649 575.863 301.157C575.78 300.908 575.78 300.659 575.78 300.494C575.78 299.084 576.526 298.09 578.184 297.924C586.059 296.846 596.918 294.111 603.384 291.044C603.882 290.712 604.379 290.629 604.876 290.629C606.037 290.629 606.949 291.292 607.446 292.453C607.612 292.867 607.695 293.365 607.695 293.779C607.695 295.022 606.949 296.1 605.788 296.68C603.053 297.841 599.488 299.084 595.592 300.162V314.503H607.363C608.855 314.503 609.684 315.829 609.684 317.404C609.684 319.145 608.938 320.222 607.446 320.222H595.592V333.486H600.317C604.876 333.486 607.032 335.226 607.032 339.869V358.271C607.032 363.079 604.793 364.903 600.068 364.903H584.899C580.174 364.903 577.936 363.079 577.936 358.271V339.869C577.936 335.226 580.091 333.486 584.65 333.486H589.624V320.222H577.189C575.697 320.222 574.868 319.062 574.868 317.321C574.868 315.663 575.697 314.503 577.189 314.503H589.624ZM584.07 341.112V357.111C584.07 358.769 584.816 359.266 586.474 359.266H598.908C600.483 359.266 600.897 358.769 600.897 357.111V341.112C600.897 339.371 600.483 338.957 598.908 338.957H586.474C584.816 338.957 584.07 339.371 584.07 341.112ZM614.409 311.767H609.353C607.943 311.767 607.032 310.524 607.032 308.866C607.032 307.125 607.861 306.047 609.27 306.047H614.409V293.282C614.409 291.707 615.653 290.961 617.559 290.961C619.466 290.961 620.709 291.707 620.709 293.282V306.047H638.78V293.282C638.78 291.707 640.024 290.961 641.93 290.961C643.837 290.961 645.08 291.707 645.08 293.282V306.047H649.888C651.38 306.047 652.209 307.208 652.209 308.949C652.209 310.607 651.38 311.767 649.888 311.767H645.08V358.188C645.08 362.996 642.842 364.82 638.117 364.82H621.289C616.647 364.82 614.409 362.996 614.409 358.188V311.767ZM620.709 336.47V356.945C620.709 358.603 621.455 359.1 623.113 359.1H636.293C637.951 359.1 638.78 358.603 638.78 356.945V336.47H620.709ZM638.78 330.833V311.767H620.709V330.833H638.78Z" fill="#59391D"/>
<path d="M589.624 314.503V315.983H591.104V314.503H589.624ZM589.624 301.654H591.104V299.809L589.303 300.209L589.624 301.654ZM579.013 303.644V305.124H579.126L579.238 305.107L579.013 303.644ZM575.863 301.157L577.341 301.075L577.33 300.877L577.267 300.689L575.863 301.157ZM578.184 297.924L578.332 299.397L578.358 299.394L578.385 299.39L578.184 297.924ZM603.384 291.044L604.019 292.381L604.116 292.335L604.205 292.275L603.384 291.044ZM607.446 292.453L608.82 291.903L608.814 291.886L608.807 291.87L607.446 292.453ZM605.788 296.68L606.366 298.043L606.409 298.025L606.45 298.004L605.788 296.68ZM595.592 300.162L595.197 298.735L594.112 299.036V300.162H595.592ZM595.592 314.503H594.112V315.983H595.592V314.503ZM595.592 320.222V318.742H594.112V320.222H595.592ZM595.592 333.486H594.112V334.966H595.592V333.486ZM589.624 333.486V334.966H591.104V333.486H589.624ZM589.624 320.222H591.104V318.742H589.624V320.222ZM614.409 311.767H615.889V310.287H614.409V311.767ZM614.409 306.047V307.528H615.889V306.047H614.409ZM620.709 306.047H619.229V307.528H620.709V306.047ZM638.78 306.047V307.528H640.261V306.047H638.78ZM645.08 306.047H643.6V307.528H645.08V306.047ZM645.08 311.767V310.287H643.6V311.767H645.08ZM620.709 336.47V334.99H619.229V336.47H620.709ZM638.78 336.47H640.261V334.99H638.78V336.47ZM638.78 330.833V332.313H640.261V330.833H638.78ZM638.78 311.767H640.261V310.287H638.78V311.767ZM620.709 311.767V310.287H619.229V311.767H620.709ZM620.709 330.833H619.229V332.313H620.709V330.833ZM591.104 314.503V301.654H588.143V314.503H591.104ZM589.303 300.209C585.607 301.03 581.992 301.688 578.788 302.18L579.238 305.107C582.5 304.605 586.18 303.936 589.945 303.099L589.303 300.209ZM579.013 302.163C579.013 302.163 579.013 302.163 579.012 302.163C579.012 302.163 579.012 302.163 579.011 302.163C579.011 302.163 579.011 302.163 579.01 302.163C579.01 302.163 579.01 302.163 579.009 302.163C579.009 302.163 579.009 302.163 579.008 302.163C579.008 302.163 579.008 302.163 579.007 302.163C579.007 302.163 579.007 302.163 579.006 302.163C579.006 302.163 579.006 302.163 579.005 302.163C579.005 302.163 579.005 302.163 579.004 302.163C579.004 302.163 579.004 302.163 579.003 302.163C579.003 302.163 579.003 302.163 579.002 302.163C579.002 302.163 579.002 302.163 579.001 302.163C579.001 302.163 579.001 302.163 579 302.163C579 302.163 579 302.163 578.999 302.163C578.999 302.163 578.999 302.163 578.998 302.163C578.998 302.163 578.998 302.163 578.997 302.163C578.997 302.163 578.997 302.163 578.996 302.163C578.996 302.163 578.996 302.163 578.995 302.163C578.995 302.163 578.995 302.163 578.994 302.163C578.994 302.163 578.994 302.163 578.993 302.163C578.993 302.163 578.993 302.163 578.992 302.163C578.992 302.163 578.992 302.163 578.991 302.163C578.991 302.163 578.991 302.163 578.99 302.163C578.99 302.163 578.99 302.163 578.989 302.163C578.989 302.163 578.989 302.163 578.988 302.163C578.988 302.163 578.988 302.163 578.987 302.163C578.987 302.163 578.987 302.163 578.986 302.163C578.986 302.163 578.986 302.163 578.985 302.163C578.985 302.163 578.985 302.163 578.984 302.163C578.984 302.163 578.984 302.163 578.983 302.163C578.983 302.163 578.983 302.163 578.982 302.163C578.982 302.163 578.981 302.163 578.981 302.163C578.981 302.163 578.98 302.163 578.98 302.163C578.98 302.163 578.979 302.163 578.979 302.163C578.979 302.163 578.978 302.163 578.978 302.163C578.978 302.163 578.977 302.163 578.977 302.163C578.977 302.163 578.976 302.163 578.976 302.163C578.976 302.163 578.975 302.163 578.975 302.163C578.975 302.163 578.974 302.163 578.974 302.163C578.974 302.163 578.973 302.163 578.973 302.163C578.973 302.163 578.972 302.163 578.972 302.163C578.971 302.163 578.971 302.163 578.971 302.163C578.97 302.163 578.97 302.163 578.97 302.163C578.969 302.163 578.969 302.163 578.969 302.163C578.968 302.163 578.968 302.163 578.968 302.163C578.967 302.163 578.967 302.163 578.967 302.163C578.966 302.163 578.966 302.163 578.966 302.163C578.965 302.163 578.965 302.163 578.964 302.163C578.964 302.163 578.964 302.163 578.963 302.163C578.963 302.163 578.963 302.163 578.962 302.163C578.962 302.163 578.962 302.163 578.961 302.163C578.961 302.163 578.961 302.163 578.96 302.163C578.96 302.163 578.96 302.163 578.959 302.163C578.959 302.163 578.958 302.163 578.958 302.163C578.958 302.163 578.957 302.163 578.957 302.163C578.957 302.163 578.956 302.163 578.956 302.163C578.956 302.163 578.955 302.163 578.955 302.163C578.955 302.163 578.954 302.163 578.954 302.163C578.954 302.163 578.953 302.163 578.953 302.163C578.952 302.163 578.952 302.163 578.952 302.163C578.951 302.163 578.951 302.163 578.951 302.163C578.95 302.163 578.95 302.163 578.95 302.163C578.949 302.163 578.949 302.163 578.948 302.163C578.948 302.163 578.948 302.163 578.947 302.163C578.947 302.163 578.947 302.163 578.946 302.163C578.946 302.163 578.946 302.163 578.945 302.163C578.945 302.163 578.945 302.163 578.944 302.163C578.944 302.163 578.943 302.163 578.943 302.163C578.943 302.163 578.942 302.163 578.942 302.163C578.942 302.163 578.941 302.163 578.941 302.163C578.941 302.163 578.94 302.163 578.94 302.163C578.939 302.163 578.939 302.163 578.939 302.163C578.938 302.163 578.938 302.163 578.938 302.163C578.937 302.163 578.937 302.163 578.937 302.163C578.936 302.163 578.936 302.163 578.935 302.163C578.935 302.163 578.935 302.163 578.934 302.163C578.934 302.163 578.934 302.163 578.933 302.163C578.933 302.163 578.933 302.163 578.932 302.163C578.932 302.163 578.931 302.163 578.931 302.163C578.931 302.163 578.93 302.163 578.93 302.163C578.93 302.163 578.929 302.163 578.929 302.163C578.929 302.163 578.928 302.163 578.928 302.163C578.927 302.163 578.927 302.163 578.927 302.163C578.926 302.163 578.926 302.163 578.926 302.163C578.925 302.163 578.925 302.163 578.924 302.163C578.924 302.163 578.924 302.163 578.923 302.163C578.923 302.163 578.923 302.163 578.922 302.163C578.922 302.163 578.922 302.163 578.921 302.163C578.921 302.163 578.92 302.163 578.92 302.163C578.92 302.163 578.919 302.163 578.919 302.163C578.919 302.163 578.918 302.163 578.918 302.163C578.917 302.163 578.917 302.163 578.917 302.163C578.916 302.163 578.916 302.163 578.916 302.163C578.915 302.163 578.915 302.163 578.914 302.163C578.914 302.163 578.914 302.163 578.913 302.163C578.913 302.163 578.913 302.163 578.912 302.163C578.912 302.163 578.912 302.163 578.911 302.163C578.911 302.163 578.91 302.163 578.91 302.163C578.91 302.163 578.909 302.163 578.909 302.163C578.909 302.163 578.908 302.163 578.908 302.163C578.907 302.163 578.907 302.163 578.907 302.163C578.906 302.163 578.906 302.163 578.906 302.163C578.905 302.163 578.905 302.163 578.904 302.163C578.904 302.163 578.904 302.163 578.903 302.163C578.903 302.163 578.903 302.163 578.902 302.163C578.902 302.163 578.901 302.163 578.901 302.163C578.901 302.163 578.9 302.163 578.9 302.163C578.899 302.163 578.899 302.163 578.899 302.163C578.898 302.163 578.898 302.163 578.898 302.163C578.897 302.163 578.897 302.163 578.896 302.163C578.896 302.163 578.896 302.163 578.895 302.163C578.895 302.163 578.895 302.163 578.894 302.163C578.894 302.163 578.893 302.163 578.893 302.163C578.893 302.163 578.892 302.163 578.892 302.163C578.892 302.163 578.891 302.163 578.891 302.163C578.89 302.163 578.89 302.163 578.89 302.163C578.889 302.163 578.889 302.163 578.888 302.163C578.888 302.163 578.888 302.163 578.887 302.163C578.887 302.163 578.887 302.163 578.886 302.163C578.886 302.163 578.885 302.163 578.885 302.163C578.885 302.163 578.884 302.163 578.884 302.163C578.884 302.163 578.883 302.163 578.883 302.163C578.882 302.163 578.882 302.163 578.882 302.163C578.881 302.163 578.881 302.163 578.88 302.163C578.88 302.163 578.88 302.163 578.879 302.163C578.879 302.163 578.879 302.163 578.878 302.163C578.878 302.163 578.877 302.163 578.877 302.163C578.877 302.163 578.876 302.163 578.876 302.163C578.875 302.163 578.875 302.163 578.875 302.163C578.874 302.163 578.874 302.163 578.874 302.163C578.873 302.163 578.873 302.163 578.872 302.163C578.872 302.163 578.872 302.163 578.871 302.163C578.871 302.163 578.87 302.163 578.87 302.163C578.87 302.163 578.869 302.163 578.869 302.163C578.869 302.163 578.868 302.163 578.868 302.163C578.867 302.163 578.867 302.163 578.867 302.163C578.866 302.163 578.866 302.163 578.865 302.163C578.865 302.163 578.865 302.163 578.864 302.163C578.864 302.163 578.864 302.163 578.863 302.163C578.863 302.163 578.862 302.163 578.862 302.163C578.862 302.163 578.861 302.163 578.861 302.163C578.86 302.163 578.86 302.163 578.86 302.163C578.859 302.163 578.859 302.163 578.858 302.163C578.858 302.163 578.858 302.163 578.857 302.163C578.857 302.163 578.857 302.163 578.856 302.163C578.856 302.163 578.855 302.163 578.855 302.163C578.855 302.163 578.854 302.163 578.854 302.163C578.853 302.163 578.853 302.163 578.853 302.163C578.852 302.163 578.852 302.163 578.851 302.163C578.851 302.163 578.851 302.163 578.85 302.163C578.85 302.163 578.849 302.163 578.849 302.163C578.849 302.163 578.848 302.163 578.848 302.163C578.848 302.163 578.847 302.163 578.847 302.163C578.846 302.163 578.846 302.163 578.846 302.163C578.845 302.163 578.845 302.163 578.844 302.163C578.844 302.163 578.844 302.163 578.843 302.163C578.843 302.163 578.842 302.163 578.842 302.163C578.842 302.163 578.841 302.163 578.841 302.163C578.84 302.163 578.84 302.163 578.84 302.163C578.839 302.163 578.839 302.163 578.839 302.163C578.838 302.163 578.838 302.163 578.837 302.163C578.837 302.163 578.837 302.163 578.836 302.163C578.836 302.163 578.835 302.163 578.835 302.163C578.835 302.163 578.834 302.163 578.834 302.163C578.833 302.163 578.833 302.163 578.833 302.163C578.832 302.163 578.832 302.163 578.831 302.163C578.831 302.163 578.831 302.163 578.83 302.163C578.83 302.163 578.829 302.163 578.829 302.163C578.829 302.163 578.828 302.163 578.828 302.163C578.827 302.163 578.827 302.163 578.827 302.163C578.826 302.163 578.826 302.163 578.825 302.163C578.825 302.163 578.825 302.163 578.824 302.163C578.824 302.163 578.823 302.163 578.823 302.163C578.823 302.163 578.822 302.163 578.822 302.163C578.822 302.163 578.821 302.163 578.821 302.163C578.82 302.163 578.82 302.163 578.82 302.163C578.819 302.163 578.819 302.163 578.818 302.163C578.818 302.163 578.818 302.163 578.817 302.163C578.817 302.163 578.816 302.163 578.816 302.163C578.816 302.163 578.815 302.163 578.815 302.163C578.814 302.163 578.814 302.163 578.814 302.163C578.813 302.163 578.813 302.163 578.812 302.163C578.812 302.163 578.812 302.163 578.811 302.163C578.811 302.163 578.81 302.163 578.81 302.163C578.81 302.163 578.809 302.163 578.809 302.163C578.808 302.163 578.808 302.163 578.808 302.163C578.807 302.163 578.807 302.163 578.806 302.163C578.806 302.163 578.806 302.163 578.805 302.163C578.805 302.163 578.804 302.163 578.804 302.163C578.804 302.163 578.803 302.163 578.803 302.163C578.802 302.163 578.802 302.163 578.802 302.163C578.801 302.163 578.801 302.163 578.8 302.163C578.8 302.163 578.8 302.163 578.799 302.163C578.799 302.163 578.798 302.163 578.798 302.163C578.798 302.163 578.797 302.163 578.797 302.163C578.796 302.163 578.796 302.163 578.796 302.163C578.795 302.163 578.795 302.163 578.794 302.163C578.794 302.163 578.794 302.163 578.793 302.163C578.793 302.163 578.792 302.163 578.792 302.163C578.792 302.163 578.791 302.163 578.791 302.163C578.79 302.163 578.79 302.163 578.79 302.163C578.789 302.163 578.789 302.163 578.788 302.163C578.788 302.163 578.788 302.163 578.787 302.163C578.787 302.163 578.786 302.163 578.786 302.163C578.786 302.163 578.785 302.163 578.785 302.163C578.784 302.163 578.784 302.163 578.784 302.163C578.783 302.163 578.783 302.163 578.782 302.163C578.782 302.163 578.782 302.163 578.781 302.163C578.781 302.163 578.78 302.163 578.78 302.163C578.78 302.163 578.779 302.163 578.779 302.163C578.778 302.163 578.778 302.163 578.778 302.163C578.777 302.163 578.777 302.163 578.776 302.163C578.776 302.163 578.776 302.163 578.775 302.163C578.775 302.163 578.774 302.163 578.774 302.163C578.774 302.163 578.773 302.163 578.773 302.163C578.772 302.163 578.772 302.163 578.772 302.163C578.771 302.163 578.771 302.163 578.77 302.163C578.77 302.163 578.77 302.163 578.769 302.163C578.769 302.163 578.768 302.163 578.768 302.163C578.767 302.163 578.767 302.163 578.767 302.163C578.766 302.163 578.766 302.163 578.765 302.163C578.765 302.163 578.765 302.163 578.764 302.163C578.764 302.163 578.763 302.163 578.763 302.163C578.763 302.163 578.762 302.163 578.762 302.163C578.761 302.163 578.761 302.163 578.761 302.163C578.76 302.163 578.76 302.163 578.759 302.163C578.759 302.163 578.759 302.163 578.758 302.163C578.758 302.163 578.757 302.163 578.757 302.163C578.757 302.163 578.756 302.163 578.756 302.163C578.755 302.163 578.755 302.163 578.755 302.163C578.754 302.163 578.754 302.163 578.753 302.163C578.753 302.163 578.753 302.163 578.752 302.163C578.752 302.163 578.751 302.163 578.751 302.163C578.751 302.163 578.75 302.163 578.75 302.163C578.749 302.163 578.749 302.163 578.749 302.163C578.748 302.163 578.748 302.163 578.747 302.163C578.747 302.163 578.746 302.163 578.746 302.163C578.746 302.163 578.745 302.163 578.745 302.163C578.744 302.163 578.744 302.163 578.744 302.163C578.743 302.163 578.743 302.163 578.742 302.163C578.742 302.163 578.742 302.163 578.741 302.163C578.741 302.163 578.74 302.163 578.74 302.163C578.74 302.163 578.739 302.163 578.739 302.163C578.738 302.163 578.738 302.163 578.738 302.163C578.737 302.163 578.737 302.163 578.736 302.163C578.736 302.163 578.736 302.163 578.735 302.163C578.735 302.163 578.734 302.163 578.734 302.163C578.734 302.163 578.733 302.163 578.733 302.163C578.732 302.163 578.732 302.163 578.732 302.163C578.731 302.163 578.731 302.163 578.73 302.163C578.73 302.163 578.729 302.163 578.729 302.163C578.729 302.163 578.728 302.163 578.728 302.163C578.727 302.163 578.727 302.163 578.727 302.163C578.726 302.163 578.726 302.163 578.725 302.163C578.725 302.163 578.725 302.163 578.724 302.163C578.724 302.163 578.723 302.163 578.723 302.163C578.723 302.163 578.722 302.163 578.722 302.163C578.721 302.163 578.721 302.163 578.721 302.163C578.72 302.163 578.72 302.163 578.719 302.163C578.719 302.163 578.719 302.163 578.718 302.163C578.718 302.163 578.717 302.163 578.717 302.163C578.717 302.163 578.716 302.163 578.716 302.163C578.715 302.163 578.715 302.163 578.715 302.163C578.714 302.163 578.714 302.163 578.713 302.163C578.713 302.163 578.713 302.163 578.712 302.163C578.712 302.163 578.711 302.163 578.711 302.163C578.71 302.163 578.71 302.163 578.71 302.163C578.709 302.163 578.709 302.163 578.708 302.163C578.708 302.163 578.708 302.163 578.707 302.163C578.707 302.163 578.706 302.163 578.706 302.163C578.706 302.163 578.705 302.163 578.705 302.163C578.704 302.163 578.704 302.163 578.704 302.163C578.703 302.163 578.703 302.163 578.702 302.163C578.702 302.163 578.702 302.163 578.701 302.163C578.701 302.163 578.7 302.163 578.7 302.163C578.7 302.163 578.699 302.163 578.699 302.163C578.698 302.163 578.698 302.163 578.698 302.163C578.697 302.163 578.697 302.163 578.696 302.163C578.696 302.163 578.696 302.163 578.695 302.163C578.695 302.163 578.694 302.163 578.694 302.163C578.693 302.163 578.693 302.163 578.693 302.163C578.692 302.163 578.692 302.163 578.691 302.163C578.691 302.163 578.691 302.163 578.69 302.163C578.69 302.163 578.689 302.163 578.689 302.163C578.689 302.163 578.688 302.163 578.688 302.163C578.687 302.163 578.687 302.163 578.687 302.163C578.686 302.163 578.686 302.163 578.685 302.163C578.685 302.163 578.685 302.163 578.684 302.163C578.684 302.163 578.683 302.163 578.683 302.163C578.683 302.163 578.682 302.163 578.682 302.163C578.681 302.163 578.681 302.163 578.681 302.163C578.68 302.163 578.68 302.163 578.679 302.163C578.679 302.163 578.679 302.163 578.678 302.163C578.678 302.163 578.677 302.163 578.677 302.163C578.677 302.163 578.676 302.163 578.676 302.163C578.675 302.163 578.675 302.163 578.675 302.163C578.674 302.163 578.674 302.163 578.673 302.163C578.673 302.163 578.673 302.163 578.672 302.163C578.672 302.163 578.671 302.163 578.671 302.163C578.671 302.163 578.67 302.163 578.67 302.163C578.669 302.163 578.669 302.163 578.668 302.163C578.668 302.163 578.668 302.163 578.667 302.163C578.667 302.163 578.666 302.163 578.666 302.163C578.666 302.163 578.665 302.163 578.665 302.163C578.664 302.163 578.664 302.163 578.664 302.163C578.663 302.163 578.663 302.163 578.662 302.163C578.662 302.163 578.662 302.163 578.661 302.163C578.661 302.163 578.66 302.163 578.66 302.163C578.66 302.163 578.659 302.163 578.659 302.163C578.658 302.163 578.658 302.163 578.658 302.163C578.657 302.163 578.657 302.163 578.656 302.163C578.656 302.163 578.656 302.163 578.655 302.163C578.655 302.163 578.654 302.163 578.654 302.163C578.654 302.163 578.653 302.163 578.653 302.163C578.652 302.163 578.652 302.163 578.652 302.163C578.651 302.163 578.651 302.163 578.65 302.163C578.65 302.163 578.65 302.163 578.649 302.163C578.649 302.163 578.648 302.163 578.648 302.163C578.648 302.163 578.647 302.163 578.647 302.163C578.646 302.163 578.646 302.163 578.646 302.163C578.645 302.163 578.645 302.163 578.644 302.163C578.644 302.163 578.644 302.163 578.643 302.163C578.643 302.163 578.642 302.163 578.642 302.163C578.642 302.163 578.641 302.163 578.641 302.163C578.64 302.163 578.64 302.163 578.64 302.163C578.639 302.163 578.639 302.163 578.638 302.163C578.638 302.163 578.638 302.163 578.637 302.163C578.637 302.163 578.636 302.163 578.636 302.163C578.636 302.163 578.635 302.163 578.635 302.163C578.634 302.163 578.634 302.163 578.634 302.163C578.633 302.163 578.633 302.163 578.632 302.163C578.632 302.163 578.632 302.163 578.631 302.163C578.631 302.163 578.63 302.163 578.63 302.163C578.63 302.163 578.629 302.163 578.629 302.163C578.628 302.163 578.628 302.163 578.628 302.163C578.627 302.163 578.627 302.163 578.627 302.163C578.626 302.163 578.626 302.163 578.625 302.163C578.625 302.163 578.625 302.163 578.624 302.163C578.624 302.163 578.623 302.163 578.623 302.163C578.623 302.163 578.622 302.163 578.622 302.163C578.621 302.163 578.621 302.163 578.621 302.163C578.62 302.163 578.62 302.163 578.619 302.163C578.619 302.163 578.619 302.163 578.618 302.163C578.618 302.163 578.617 302.163 578.617 302.163C578.617 302.163 578.616 302.163 578.616 302.163C578.615 302.163 578.615 302.163 578.615 302.163C578.614 302.163 578.614 302.163 578.613 302.163C578.613 302.163 578.613 302.163 578.612 302.163C578.612 302.163 578.611 302.163 578.611 302.163C578.611 302.163 578.61 302.163 578.61 302.163C578.61 302.163 578.609 302.163 578.609 302.163C578.608 302.163 578.608 302.163 578.608 302.163C578.607 302.163 578.607 302.163 578.606 302.163C578.606 302.163 578.606 302.163 578.605 302.163C578.605 302.163 578.604 302.163 578.604 302.163C578.604 302.163 578.603 302.163 578.603 302.163C578.602 302.163 578.602 302.163 578.602 302.163C578.601 302.163 578.601 302.163 578.6 302.163C578.6 302.163 578.6 302.163 578.599 302.163C578.599 302.163 578.599 302.163 578.598 302.163C578.598 302.163 578.597 302.163 578.597 302.163C578.597 302.163 578.596 302.163 578.596 302.163C578.595 302.163 578.595 302.163 578.595 302.163C578.594 302.163 578.594 302.163 578.593 302.163C578.593 302.163 578.593 302.163 578.592 302.163C578.592 302.163 578.591 302.163 578.591 302.163C578.591 302.163 578.59 302.163 578.59 302.163C578.59 302.163 578.589 302.163 578.589 302.163C578.588 302.163 578.588 302.163 578.588 302.163C578.587 302.163 578.587 302.163 578.586 302.163C578.586 302.163 578.586 302.163 578.585 302.163C578.585 302.163 578.584 302.163 578.584 302.163C578.584 302.163 578.583 302.163 578.583 302.163C578.583 302.163 578.582 302.163 578.582 302.163C578.581 302.163 578.581 302.163 578.581 302.163C578.58 302.163 578.58 302.163 578.579 302.163C578.579 302.163 578.579 302.163 578.578 302.163C578.578 302.163 578.578 302.163 578.577 302.163C578.577 302.163 578.576 302.163 578.576 302.163C578.576 302.163 578.575 302.163 578.575 302.163C578.574 302.163 578.574 302.163 578.574 302.163C578.573 302.163 578.573 302.163 578.572 302.163C578.572 302.163 578.572 302.163 578.571 302.163C578.571 302.163 578.571 302.163 578.57 302.163C578.57 302.163 578.569 302.163 578.569 302.163C578.569 302.163 578.568 302.163 578.568 302.163C578.567 302.163 578.567 302.163 578.567 302.163C578.566 302.163 578.566 302.163 578.566 302.163C578.565 302.163 578.565 302.163 578.564 302.163C578.564 302.163 578.564 302.163 578.563 302.163C578.563 302.163 578.563 302.163 578.562 302.163C578.562 302.163 578.561 302.163 578.561 302.163C578.561 302.163 578.56 302.163 578.56 302.163C578.559 302.163 578.559 302.163 578.559 302.163C578.558 302.163 578.558 302.163 578.558 302.163C578.557 302.163 578.557 302.163 578.556 302.163C578.556 302.163 578.556 302.163 578.555 302.163C578.555 302.163 578.555 302.163 578.554 302.163C578.554 302.163 578.553 302.163 578.553 302.163C578.553 302.163 578.552 302.163 578.552 302.163C578.551 302.163 578.551 302.163 578.551 302.163C578.55 302.163 578.55 302.163 578.55 302.163C578.549 302.163 578.549 302.163 578.548 302.163C578.548 302.163 578.548 302.163 578.547 302.163C578.547 302.163 578.547 302.163 578.546 302.163C578.546 302.163 578.545 302.163 578.545 302.163C578.545 302.163 578.544 302.163 578.544 302.163C578.544 302.163 578.543 302.163 578.543 302.163C578.542 302.163 578.542 302.163 578.542 302.163C578.541 302.163 578.541 302.163 578.541 302.163C578.54 302.163 578.54 302.163 578.539 302.163C578.539 302.163 578.539 302.163 578.538 302.163C578.538 302.163 578.538 302.163 578.537 302.163C578.537 302.163 578.536 302.163 578.536 302.163C578.536 302.163 578.535 302.163 578.535 302.163C578.535 302.163 578.534 302.163 578.534 302.163C578.533 302.163 578.533 302.163 578.533 302.163C578.532 302.163 578.532 302.163 578.532 302.163C578.531 302.163 578.531 302.163 578.53 302.163C578.53 302.163 578.53 302.163 578.529 302.163C578.529 302.163 578.529 302.163 578.528 302.163C578.528 302.163 578.527 302.163 578.527 302.163C578.527 302.163 578.526 302.163 578.526 302.163C578.526 302.163 578.525 302.163 578.525 302.163C578.525 302.163 578.524 302.163 578.524 302.163C578.523 302.163 578.523 302.163 578.523 302.163C578.522 302.163 578.522 302.163 578.522 302.163C578.521 302.163 578.521 302.163 578.52 302.163C578.52 302.163 578.52 302.163 578.519 302.163C578.519 302.163 578.519 302.163 578.518 302.163C578.518 302.163 578.518 302.163 578.517 302.163C578.517 302.163 578.516 302.163 578.516 302.163C578.516 302.163 578.515 302.163 578.515 302.163C578.515 302.163 578.514 302.163 578.514 302.163C578.513 302.163 578.513 302.163 578.513 302.163C578.512 302.163 578.512 302.163 578.512 302.163C578.511 302.163 578.511 302.163 578.511 302.163C578.51 302.163 578.51 302.163 578.509 302.163C578.509 302.163 578.509 302.163 578.508 302.163C578.508 302.163 578.508 302.163 578.507 302.163C578.507 302.163 578.507 302.163 578.506 302.163C578.506 302.163 578.505 302.163 578.505 302.163C578.505 302.163 578.504 302.163 578.504 302.163C578.504 302.163 578.503 302.163 578.503 302.163C578.503 302.163 578.502 302.163 578.502 302.163C578.502 302.163 578.501 302.163 578.501 302.163C578.5 302.163 578.5 302.163 578.5 302.163C578.499 302.163 578.499 302.163 578.499 302.163C578.498 302.163 578.498 302.163 578.498 302.163C578.497 302.163 578.497 302.163 578.496 302.163C578.496 302.163 578.496 302.163 578.495 302.163C578.495 302.163 578.495 302.163 578.494 302.163C578.494 302.163 578.494 302.163 578.493 302.163C578.493 302.163 578.493 302.163 578.492 302.163C578.492 302.163 578.491 302.163 578.491 302.163C578.491 302.163 578.49 302.163 578.49 302.163C578.49 302.163 578.489 302.163 578.489 302.163C578.489 302.163 578.488 302.163 578.488 302.163C578.488 302.163 578.487 302.163 578.487 302.163C578.487 302.163 578.486 302.163 578.486 302.163C578.485 302.163 578.485 302.163 578.485 302.163C578.484 302.163 578.484 302.163 578.484 302.163C578.483 302.163 578.483 302.163 578.483 302.163C578.482 302.163 578.482 302.163 578.482 302.163C578.481 302.163 578.481 302.163 578.481 302.163C578.48 302.163 578.48 302.163 578.479 302.163C578.479 302.163 578.479 302.163 578.478 302.163C578.478 302.163 578.478 302.163 578.477 302.163C578.477 302.163 578.477 302.163 578.476 302.163C578.476 302.163 578.476 302.163 578.475 302.163C578.475 302.163 578.475 302.163 578.474 302.163C578.474 302.163 578.474 302.163 578.473 302.163C578.473 302.163 578.472 302.163 578.472 302.163C578.472 302.163 578.471 302.163 578.471 302.163C578.471 302.163 578.47 302.163 578.47 302.163C578.47 302.163 578.469 302.163 578.469 302.163C578.469 302.163 578.468 302.163 578.468 302.163C578.468 302.163 578.467 302.163 578.467 302.163C578.467 302.163 578.466 302.163 578.466 302.163C578.466 302.163 578.465 302.163 578.465 302.163C578.465 302.163 578.464 302.163 578.464 302.163C578.464 302.163 578.463 302.163 578.463 302.163C578.463 302.163 578.462 302.163 578.462 302.163C578.461 302.163 578.461 302.163 578.461 302.163C578.46 302.163 578.46 302.163 578.46 302.163C578.459 302.163 578.459 302.163 578.459 302.163C578.458 302.163 578.458 302.163 578.458 302.163C578.457 302.163 578.457 302.163 578.457 302.163C578.456 302.163 578.456 302.163 578.456 302.163C578.455 302.163 578.455 302.163 578.455 302.163C578.454 302.163 578.454 302.163 578.454 302.163C578.453 302.163 578.453 302.163 578.453 302.163C578.452 302.163 578.452 302.163 578.452 302.163C578.451 302.163 578.451 302.163 578.451 302.163C578.45 302.163 578.45 302.163 578.45 302.163C578.449 302.163 578.449 302.163 578.449 302.163C578.448 302.163 578.448 302.163 578.448 302.163C578.447 302.163 578.447 302.163 578.447 302.163C578.446 302.163 578.446 302.163 578.446 302.163C578.445 302.163 578.445 302.163 578.445 302.163C578.444 302.163 578.444 302.163 578.444 302.163C578.443 302.163 578.443 302.163 578.443 302.163C578.442 302.163 578.442 302.163 578.442 302.163C578.441 302.163 578.441 302.163 578.441 302.163C578.44 302.163 578.44 302.163 578.44 302.163C578.439 302.163 578.439 302.163 578.439 302.163C578.438 302.163 578.438 302.163 578.438 302.163C578.437 302.163 578.437 302.163 578.437 302.163C578.436 302.163 578.436 302.163 578.436 302.163C578.435 302.163 578.435 302.163 578.435 302.163C578.435 302.163 578.434 302.163 578.434 302.163C578.434 302.163 578.433 302.163 578.433 302.163V305.124C578.433 305.124 578.434 305.124 578.434 305.124C578.434 305.124 578.435 305.124 578.435 305.124C578.435 305.124 578.435 305.124 578.436 305.124C578.436 305.124 578.436 305.124 578.437 305.124C578.437 305.124 578.437 305.124 578.438 305.124C578.438 305.124 578.438 305.124 578.439 305.124C578.439 305.124 578.439 305.124 578.44 305.124C578.44 305.124 578.44 305.124 578.441 305.124C578.441 305.124 578.441 305.124 578.442 305.124C578.442 305.124 578.442 305.124 578.443 305.124C578.443 305.124 578.443 305.124 578.444 305.124C578.444 305.124 578.444 305.124 578.445 305.124C578.445 305.124 578.445 305.124 578.446 305.124C578.446 305.124 578.446 305.124 578.447 305.124C578.447 305.124 578.447 305.124 578.448 305.124C578.448 305.124 578.448 305.124 578.449 305.124C578.449 305.124 578.449 305.124 578.45 305.124C578.45 305.124 578.45 305.124 578.451 305.124C578.451 305.124 578.451 305.124 578.452 305.124C578.452 305.124 578.452 305.124 578.453 305.124C578.453 305.124 578.453 305.124 578.454 305.124C578.454 305.124 578.454 305.124 578.455 305.124C578.455 305.124 578.455 305.124 578.456 305.124C578.456 305.124 578.456 305.124 578.457 305.124C578.457 305.124 578.457 305.124 578.458 305.124C578.458 305.124 578.458 305.124 578.459 305.124C578.459 305.124 578.459 305.124 578.46 305.124C578.46 305.124 578.46 305.124 578.461 305.124C578.461 305.124 578.461 305.124 578.462 305.124C578.462 305.124 578.463 305.124 578.463 305.124C578.463 305.124 578.464 305.124 578.464 305.124C578.464 305.124 578.465 305.124 578.465 305.124C578.465 305.124 578.466 305.124 578.466 305.124C578.466 305.124 578.467 305.124 578.467 305.124C578.467 305.124 578.468 305.124 578.468 305.124C578.468 305.124 578.469 305.124 578.469 305.124C578.469 305.124 578.47 305.124 578.47 305.124C578.47 305.124 578.471 305.124 578.471 305.124C578.471 305.124 578.472 305.124 578.472 305.124C578.472 305.124 578.473 305.124 578.473 305.124C578.474 305.124 578.474 305.124 578.474 305.124C578.475 305.124 578.475 305.124 578.475 305.124C578.476 305.124 578.476 305.124 578.476 305.124C578.477 305.124 578.477 305.124 578.477 305.124C578.478 305.124 578.478 305.124 578.478 305.124C578.479 305.124 578.479 305.124 578.479 305.124C578.48 305.124 578.48 305.124 578.481 305.124C578.481 305.124 578.481 305.124 578.482 305.124C578.482 305.124 578.482 305.124 578.483 305.124C578.483 305.124 578.483 305.124 578.484 305.124C578.484 305.124 578.484 305.124 578.485 305.124C578.485 305.124 578.485 305.124 578.486 305.124C578.486 305.124 578.487 305.124 578.487 305.124C578.487 305.124 578.488 305.124 578.488 305.124C578.488 305.124 578.489 305.124 578.489 305.124C578.489 305.124 578.49 305.124 578.49 305.124C578.49 305.124 578.491 305.124 578.491 305.124C578.491 305.124 578.492 305.124 578.492 305.124C578.493 305.124 578.493 305.124 578.493 305.124C578.494 305.124 578.494 305.124 578.494 305.124C578.495 305.124 578.495 305.124 578.495 305.124C578.496 305.124 578.496 305.124 578.496 305.124C578.497 305.124 578.497 305.124 578.498 305.124C578.498 305.124 578.498 305.124 578.499 305.124C578.499 305.124 578.499 305.124 578.5 305.124C578.5 305.124 578.5 305.124 578.501 305.124C578.501 305.124 578.502 305.124 578.502 305.124C578.502 305.124 578.503 305.124 578.503 305.124C578.503 305.124 578.504 305.124 578.504 305.124C578.504 305.124 578.505 305.124 578.505 305.124C578.505 305.124 578.506 305.124 578.506 305.124C578.507 305.124 578.507 305.124 578.507 305.124C578.508 305.124 578.508 305.124 578.508 305.124C578.509 305.124 578.509 305.124 578.509 305.124C578.51 305.124 578.51 305.124 578.511 305.124C578.511 305.124 578.511 305.124 578.512 305.124C578.512 305.124 578.512 305.124 578.513 305.124C578.513 305.124 578.513 305.124 578.514 305.124C578.514 305.124 578.515 305.124 578.515 305.124C578.515 305.124 578.516 305.124 578.516 305.124C578.516 305.124 578.517 305.124 578.517 305.124C578.518 305.124 578.518 305.124 578.518 305.124C578.519 305.124 578.519 305.124 578.519 305.124C578.52 305.124 578.52 305.124 578.52 305.124C578.521 305.124 578.521 305.124 578.522 305.124C578.522 305.124 578.522 305.124 578.523 305.124C578.523 305.124 578.523 305.124 578.524 305.124C578.524 305.124 578.525 305.124 578.525 305.124C578.525 305.124 578.526 305.124 578.526 305.124C578.526 305.124 578.527 305.124 578.527 305.124C578.527 305.124 578.528 305.124 578.528 305.124C578.529 305.124 578.529 305.124 578.529 305.124C578.53 305.124 578.53 305.124 578.53 305.124C578.531 305.124 578.531 305.124 578.532 305.124C578.532 305.124 578.532 305.124 578.533 305.124C578.533 305.124 578.533 305.124 578.534 305.124C578.534 305.124 578.535 305.124 578.535 305.124C578.535 305.124 578.536 305.124 578.536 305.124C578.536 305.124 578.537 305.124 578.537 305.124C578.538 305.124 578.538 305.124 578.538 305.124C578.539 305.124 578.539 305.124 578.539 305.124C578.54 305.124 578.54 305.124 578.541 305.124C578.541 305.124 578.541 305.124 578.542 305.124C578.542 305.124 578.542 305.124 578.543 305.124C578.543 305.124 578.544 305.124 578.544 305.124C578.544 305.124 578.545 305.124 578.545 305.124C578.545 305.124 578.546 305.124 578.546 305.124C578.547 305.124 578.547 305.124 578.547 305.124C578.548 305.124 578.548 305.124 578.548 305.124C578.549 305.124 578.549 305.124 578.55 305.124C578.55 305.124 578.55 305.124 578.551 305.124C578.551 305.124 578.551 305.124 578.552 305.124C578.552 305.124 578.553 305.124 578.553 305.124C578.553 305.124 578.554 305.124 578.554 305.124C578.555 305.124 578.555 305.124 578.555 305.124C578.556 305.124 578.556 305.124 578.556 305.124C578.557 305.124 578.557 305.124 578.558 305.124C578.558 305.124 578.558 305.124 578.559 305.124C578.559 305.124 578.559 305.124 578.56 305.124C578.56 305.124 578.561 305.124 578.561 305.124C578.561 305.124 578.562 305.124 578.562 305.124C578.563 305.124 578.563 305.124 578.563 305.124C578.564 305.124 578.564 305.124 578.564 305.124C578.565 305.124 578.565 305.124 578.566 305.124C578.566 305.124 578.566 305.124 578.567 305.124C578.567 305.124 578.567 305.124 578.568 305.124C578.568 305.124 578.569 305.124 578.569 305.124C578.569 305.124 578.57 305.124 578.57 305.124C578.571 305.124 578.571 305.124 578.571 305.124C578.572 305.124 578.572 305.124 578.572 305.124C578.573 305.124 578.573 305.124 578.574 305.124C578.574 305.124 578.574 305.124 578.575 305.124C578.575 305.124 578.576 305.124 578.576 305.124C578.576 305.124 578.577 305.124 578.577 305.124C578.578 305.124 578.578 305.124 578.578 305.124C578.579 305.124 578.579 305.124 578.579 305.124C578.58 305.124 578.58 305.124 578.581 305.124C578.581 305.124 578.581 305.124 578.582 305.124C578.582 305.124 578.583 305.124 578.583 305.124C578.583 305.124 578.584 305.124 578.584 305.124C578.584 305.124 578.585 305.124 578.585 305.124C578.586 305.124 578.586 305.124 578.586 305.124C578.587 305.124 578.587 305.124 578.588 305.124C578.588 305.124 578.588 305.124 578.589 305.124C578.589 305.124 578.59 305.124 578.59 305.124C578.59 305.124 578.591 305.124 578.591 305.124C578.591 305.124 578.592 305.124 578.592 305.124C578.593 305.124 578.593 305.124 578.593 305.124C578.594 305.124 578.594 305.124 578.595 305.124C578.595 305.124 578.595 305.124 578.596 305.124C578.596 305.124 578.597 305.124 578.597 305.124C578.597 305.124 578.598 305.124 578.598 305.124C578.599 305.124 578.599 305.124 578.599 305.124C578.6 305.124 578.6 305.124 578.6 305.124C578.601 305.124 578.601 305.124 578.602 305.124C578.602 305.124 578.602 305.124 578.603 305.124C578.603 305.124 578.604 305.124 578.604 305.124C578.604 305.124 578.605 305.124 578.605 305.124C578.606 305.124 578.606 305.124 578.606 305.124C578.607 305.124 578.607 305.124 578.608 305.124C578.608 305.124 578.608 305.124 578.609 305.124C578.609 305.124 578.61 305.124 578.61 305.124C578.61 305.124 578.611 305.124 578.611 305.124C578.611 305.124 578.612 305.124 578.612 305.124C578.613 305.124 578.613 305.124 578.613 305.124C578.614 305.124 578.614 305.124 578.615 305.124C578.615 305.124 578.615 305.124 578.616 305.124C578.616 305.124 578.617 305.124 578.617 305.124C578.617 305.124 578.618 305.124 578.618 305.124C578.619 305.124 578.619 305.124 578.619 305.124C578.62 305.124 578.62 305.124 578.621 305.124C578.621 305.124 578.621 305.124 578.622 305.124C578.622 305.124 578.623 305.124 578.623 305.124C578.623 305.124 578.624 305.124 578.624 305.124C578.625 305.124 578.625 305.124 578.625 305.124C578.626 305.124 578.626 305.124 578.627 305.124C578.627 305.124 578.627 305.124 578.628 305.124C578.628 305.124 578.628 305.124 578.629 305.124C578.629 305.124 578.63 305.124 578.63 305.124C578.63 305.124 578.631 305.124 578.631 305.124C578.632 305.124 578.632 305.124 578.632 305.124C578.633 305.124 578.633 305.124 578.634 305.124C578.634 305.124 578.634 305.124 578.635 305.124C578.635 305.124 578.636 305.124 578.636 305.124C578.636 305.124 578.637 305.124 578.637 305.124C578.638 305.124 578.638 305.124 578.638 305.124C578.639 305.124 578.639 305.124 578.64 305.124C578.64 305.124 578.64 305.124 578.641 305.124C578.641 305.124 578.642 305.124 578.642 305.124C578.642 305.124 578.643 305.124 578.643 305.124C578.644 305.124 578.644 305.124 578.644 305.124C578.645 305.124 578.645 305.124 578.646 305.124C578.646 305.124 578.646 305.124 578.647 305.124C578.647 305.124 578.648 305.124 578.648 305.124C578.648 305.124 578.649 305.124 578.649 305.124C578.65 305.124 578.65 305.124 578.65 305.124C578.651 305.124 578.651 305.124 578.652 305.124C578.652 305.124 578.652 305.124 578.653 305.124C578.653 305.124 578.654 305.124 578.654 305.124C578.654 305.124 578.655 305.124 578.655 305.124C578.656 305.124 578.656 305.124 578.656 305.124C578.657 305.124 578.657 305.124 578.658 305.124C578.658 305.124 578.658 305.124 578.659 305.124C578.659 305.124 578.66 305.124 578.66 305.124C578.66 305.124 578.661 305.124 578.661 305.124C578.662 305.124 578.662 305.124 578.662 305.124C578.663 305.124 578.663 305.124 578.664 305.124C578.664 305.124 578.664 305.124 578.665 305.124C578.665 305.124 578.666 305.124 578.666 305.124C578.666 305.124 578.667 305.124 578.667 305.124C578.668 305.124 578.668 305.124 578.668 305.124C578.669 305.124 578.669 305.124 578.67 305.124C578.67 305.124 578.671 305.124 578.671 305.124C578.671 305.124 578.672 305.124 578.672 305.124C578.673 305.124 578.673 305.124 578.673 305.124C578.674 305.124 578.674 305.124 578.675 305.124C578.675 305.124 578.675 305.124 578.676 305.124C578.676 305.124 578.677 305.124 578.677 305.124C578.677 305.124 578.678 305.124 578.678 305.124C578.679 305.124 578.679 305.124 578.679 305.124C578.68 305.124 578.68 305.124 578.681 305.124C578.681 305.124 578.681 305.124 578.682 305.124C578.682 305.124 578.683 305.124 578.683 305.124C578.683 305.124 578.684 305.124 578.684 305.124C578.685 305.124 578.685 305.124 578.685 305.124C578.686 305.124 578.686 305.124 578.687 305.124C578.687 305.124 578.687 305.124 578.688 305.124C578.688 305.124 578.689 305.124 578.689 305.124C578.689 305.124 578.69 305.124 578.69 305.124C578.691 305.124 578.691 305.124 578.691 305.124C578.692 305.124 578.692 305.124 578.693 305.124C578.693 305.124 578.693 305.124 578.694 305.124C578.694 305.124 578.695 305.124 578.695 305.124C578.696 305.124 578.696 305.124 578.696 305.124C578.697 305.124 578.697 305.124 578.698 305.124C578.698 305.124 578.698 305.124 578.699 305.124C578.699 305.124 578.7 305.124 578.7 305.124C578.7 305.124 578.701 305.124 578.701 305.124C578.702 305.124 578.702 305.124 578.702 305.124C578.703 305.124 578.703 305.124 578.704 305.124C578.704 305.124 578.704 305.124 578.705 305.124C578.705 305.124 578.706 305.124 578.706 305.124C578.706 305.124 578.707 305.124 578.707 305.124C578.708 305.124 578.708 305.124 578.708 305.124C578.709 305.124 578.709 305.124 578.71 305.124C578.71 305.124 578.71 305.124 578.711 305.124C578.711 305.124 578.712 305.124 578.712 305.124C578.713 305.124 578.713 305.124 578.713 305.124C578.714 305.124 578.714 305.124 578.715 305.124C578.715 305.124 578.715 305.124 578.716 305.124C578.716 305.124 578.717 305.124 578.717 305.124C578.717 305.124 578.718 305.124 578.718 305.124C578.719 305.124 578.719 305.124 578.719 305.124C578.72 305.124 578.72 305.124 578.721 305.124C578.721 305.124 578.721 305.124 578.722 305.124C578.722 305.124 578.723 305.124 578.723 305.124C578.723 305.124 578.724 305.124 578.724 305.124C578.725 305.124 578.725 305.124 578.725 305.124C578.726 305.124 578.726 305.124 578.727 305.124C578.727 305.124 578.727 305.124 578.728 305.124C578.728 305.124 578.729 305.124 578.729 305.124C578.729 305.124 578.73 305.124 578.73 305.124C578.731 305.124 578.731 305.124 578.732 305.124C578.732 305.124 578.732 305.124 578.733 305.124C578.733 305.124 578.734 305.124 578.734 305.124C578.734 305.124 578.735 305.124 578.735 305.124C578.736 305.124 578.736 305.124 578.736 305.124C578.737 305.124 578.737 305.124 578.738 305.124C578.738 305.124 578.738 305.124 578.739 305.124C578.739 305.124 578.74 305.124 578.74 305.124C578.74 305.124 578.741 305.124 578.741 305.124C578.742 305.124 578.742 305.124 578.742 305.124C578.743 305.124 578.743 305.124 578.744 305.124C578.744 305.124 578.744 305.124 578.745 305.124C578.745 305.124 578.746 305.124 578.746 305.124C578.746 305.124 578.747 305.124 578.747 305.124C578.748 305.124 578.748 305.124 578.749 305.124C578.749 305.124 578.749 305.124 578.75 305.124C578.75 305.124 578.751 305.124 578.751 305.124C578.751 305.124 578.752 305.124 578.752 305.124C578.753 305.124 578.753 305.124 578.753 305.124C578.754 305.124 578.754 305.124 578.755 305.124C578.755 305.124 578.755 305.124 578.756 305.124C578.756 305.124 578.757 305.124 578.757 305.124C578.757 305.124 578.758 305.124 578.758 305.124C578.759 305.124 578.759 305.124 578.759 305.124C578.76 305.124 578.76 305.124 578.761 305.124C578.761 305.124 578.761 305.124 578.762 305.124C578.762 305.124 578.763 305.124 578.763 305.124C578.763 305.124 578.764 305.124 578.764 305.124C578.765 305.124 578.765 305.124 578.765 305.124C578.766 305.124 578.766 305.124 578.767 305.124C578.767 305.124 578.767 305.124 578.768 305.124C578.768 305.124 578.769 305.124 578.769 305.124C578.77 305.124 578.77 305.124 578.77 305.124C578.771 305.124 578.771 305.124 578.772 305.124C578.772 305.124 578.772 305.124 578.773 305.124C578.773 305.124 578.774 305.124 578.774 305.124C578.774 305.124 578.775 305.124 578.775 305.124C578.776 305.124 578.776 305.124 578.776 305.124C578.777 305.124 578.777 305.124 578.778 305.124C578.778 305.124 578.778 305.124 578.779 305.124C578.779 305.124 578.78 305.124 578.78 305.124C578.78 305.124 578.781 305.124 578.781 305.124C578.782 305.124 578.782 305.124 578.782 305.124C578.783 305.124 578.783 305.124 578.784 305.124C578.784 305.124 578.784 305.124 578.785 305.124C578.785 305.124 578.786 305.124 578.786 305.124C578.786 305.124 578.787 305.124 578.787 305.124C578.788 305.124 578.788 305.124 578.788 305.124C578.789 305.124 578.789 305.124 578.79 305.124C578.79 305.124 578.79 305.124 578.791 305.124C578.791 305.124 578.792 305.124 578.792 305.124C578.792 305.124 578.793 305.124 578.793 305.124C578.794 305.124 578.794 305.124 578.794 305.124C578.795 305.124 578.795 305.124 578.796 305.124C578.796 305.124 578.796 305.124 578.797 305.124C578.797 305.124 578.798 305.124 578.798 305.124C578.798 305.124 578.799 305.124 578.799 305.124C578.8 305.124 578.8 305.124 578.8 305.124C578.801 305.124 578.801 305.124 578.802 305.124C578.802 305.124 578.802 305.124 578.803 305.124C578.803 305.124 578.804 305.124 578.804 305.124C578.804 305.124 578.805 305.124 578.805 305.124C578.806 305.124 578.806 305.124 578.806 305.124C578.807 305.124 578.807 305.124 578.808 305.124C578.808 305.124 578.808 305.124 578.809 305.124C578.809 305.124 578.81 305.124 578.81 305.124C578.81 305.124 578.811 305.124 578.811 305.124C578.812 305.124 578.812 305.124 578.812 305.124C578.813 305.124 578.813 305.124 578.814 305.124C578.814 305.124 578.814 305.124 578.815 305.124C578.815 305.124 578.816 305.124 578.816 305.124C578.816 305.124 578.817 305.124 578.817 305.124C578.818 305.124 578.818 305.124 578.818 305.124C578.819 305.124 578.819 305.124 578.82 305.124C578.82 305.124 578.82 305.124 578.821 305.124C578.821 305.124 578.822 305.124 578.822 305.124C578.822 305.124 578.823 305.124 578.823 305.124C578.823 305.124 578.824 305.124 578.824 305.124C578.825 305.124 578.825 305.124 578.825 305.124C578.826 305.124 578.826 305.124 578.827 305.124C578.827 305.124 578.827 305.124 578.828 305.124C578.828 305.124 578.829 305.124 578.829 305.124C578.829 305.124 578.83 305.124 578.83 305.124C578.831 305.124 578.831 305.124 578.831 305.124C578.832 305.124 578.832 305.124 578.833 305.124C578.833 305.124 578.833 305.124 578.834 305.124C578.834 305.124 578.835 305.124 578.835 305.124C578.835 305.124 578.836 305.124 578.836 305.124C578.837 305.124 578.837 305.124 578.837 305.124C578.838 305.124 578.838 305.124 578.839 305.124C578.839 305.124 578.839 305.124 578.84 305.124C578.84 305.124 578.84 305.124 578.841 305.124C578.841 305.124 578.842 305.124 578.842 305.124C578.842 305.124 578.843 305.124 578.843 305.124C578.844 305.124 578.844 305.124 578.844 305.124C578.845 305.124 578.845 305.124 578.846 305.124C578.846 305.124 578.846 305.124 578.847 305.124C578.847 305.124 578.848 305.124 578.848 305.124C578.848 305.124 578.849 305.124 578.849 305.124C578.849 305.124 578.85 305.124 578.85 305.124C578.851 305.124 578.851 305.124 578.851 305.124C578.852 305.124 578.852 305.124 578.853 305.124C578.853 305.124 578.853 305.124 578.854 305.124C578.854 305.124 578.855 305.124 578.855 305.124C578.855 305.124 578.856 305.124 578.856 305.124C578.857 305.124 578.857 305.124 578.857 305.124C578.858 305.124 578.858 305.124 578.858 305.124C578.859 305.124 578.859 305.124 578.86 305.124C578.86 305.124 578.86 305.124 578.861 305.124C578.861 305.124 578.862 305.124 578.862 305.124C578.862 305.124 578.863 305.124 578.863 305.124C578.864 305.124 578.864 305.124 578.864 305.124C578.865 305.124 578.865 305.124 578.865 305.124C578.866 305.124 578.866 305.124 578.867 305.124C578.867 305.124 578.867 305.124 578.868 305.124C578.868 305.124 578.869 305.124 578.869 305.124C578.869 305.124 578.87 305.124 578.87 305.124C578.87 305.124 578.871 305.124 578.871 305.124C578.872 305.124 578.872 305.124 578.872 305.124C578.873 305.124 578.873 305.124 578.874 305.124C578.874 305.124 578.874 305.124 578.875 305.124C578.875 305.124 578.875 305.124 578.876 305.124C578.876 305.124 578.877 305.124 578.877 305.124C578.877 305.124 578.878 305.124 578.878 305.124C578.879 305.124 578.879 305.124 578.879 305.124C578.88 305.124 578.88 305.124 578.88 305.124C578.881 305.124 578.881 305.124 578.882 305.124C578.882 305.124 578.882 305.124 578.883 305.124C578.883 305.124 578.884 305.124 578.884 305.124C578.884 305.124 578.885 305.124 578.885 305.124C578.885 305.124 578.886 305.124 578.886 305.124C578.887 305.124 578.887 305.124 578.887 305.124C578.888 305.124 578.888 305.124 578.888 305.124C578.889 305.124 578.889 305.124 578.89 305.124C578.89 305.124 578.89 305.124 578.891 305.124C578.891 305.124 578.892 305.124 578.892 305.124C578.892 305.124 578.893 305.124 578.893 305.124C578.893 305.124 578.894 305.124 578.894 305.124C578.895 305.124 578.895 305.124 578.895 305.124C578.896 305.124 578.896 305.124 578.896 305.124C578.897 305.124 578.897 305.124 578.898 305.124C578.898 305.124 578.898 305.124 578.899 305.124C578.899 305.124 578.899 305.124 578.9 305.124C578.9 305.124 578.901 305.124 578.901 305.124C578.901 305.124 578.902 305.124 578.902 305.124C578.903 305.124 578.903 305.124 578.903 305.124C578.904 305.124 578.904 305.124 578.904 305.124C578.905 305.124 578.905 305.124 578.906 305.124C578.906 305.124 578.906 305.124 578.907 305.124C578.907 305.124 578.907 305.124 578.908 305.124C578.908 305.124 578.909 305.124 578.909 305.124C578.909 305.124 578.91 305.124 578.91 305.124C578.91 305.124 578.911 305.124 578.911 305.124C578.912 305.124 578.912 305.124 578.912 305.124C578.913 305.124 578.913 305.124 578.913 305.124C578.914 305.124 578.914 305.124 578.914 305.124C578.915 305.124 578.915 305.124 578.916 305.124C578.916 305.124 578.916 305.124 578.917 305.124C578.917 305.124 578.917 305.124 578.918 305.124C578.918 305.124 578.919 305.124 578.919 305.124C578.919 305.124 578.92 305.124 578.92 305.124C578.92 305.124 578.921 305.124 578.921 305.124C578.922 305.124 578.922 305.124 578.922 305.124C578.923 305.124 578.923 305.124 578.923 305.124C578.924 305.124 578.924 305.124 578.924 305.124C578.925 305.124 578.925 305.124 578.926 305.124C578.926 305.124 578.926 305.124 578.927 305.124C578.927 305.124 578.927 305.124 578.928 305.124C578.928 305.124 578.929 305.124 578.929 305.124C578.929 305.124 578.93 305.124 578.93 305.124C578.93 305.124 578.931 305.124 578.931 305.124C578.931 305.124 578.932 305.124 578.932 305.124C578.933 305.124 578.933 305.124 578.933 305.124C578.934 305.124 578.934 305.124 578.934 305.124C578.935 305.124 578.935 305.124 578.935 305.124C578.936 305.124 578.936 305.124 578.937 305.124C578.937 305.124 578.937 305.124 578.938 305.124C578.938 305.124 578.938 305.124 578.939 305.124C578.939 305.124 578.939 305.124 578.94 305.124C578.94 305.124 578.941 305.124 578.941 305.124C578.941 305.124 578.942 305.124 578.942 305.124C578.942 305.124 578.943 305.124 578.943 305.124C578.943 305.124 578.944 305.124 578.944 305.124C578.945 305.124 578.945 305.124 578.945 305.124C578.946 305.124 578.946 305.124 578.946 305.124C578.947 305.124 578.947 305.124 578.947 305.124C578.948 305.124 578.948 305.124 578.948 305.124C578.949 305.124 578.949 305.124 578.95 305.124C578.95 305.124 578.95 305.124 578.951 305.124C578.951 305.124 578.951 305.124 578.952 305.124C578.952 305.124 578.952 305.124 578.953 305.124C578.953 305.124 578.954 305.124 578.954 305.124C578.954 305.124 578.955 305.124 578.955 305.124C578.955 305.124 578.956 305.124 578.956 305.124C578.956 305.124 578.957 305.124 578.957 305.124C578.957 305.124 578.958 305.124 578.958 305.124C578.958 305.124 578.959 305.124 578.959 305.124C578.96 305.124 578.96 305.124 578.96 305.124C578.961 305.124 578.961 305.124 578.961 305.124C578.962 305.124 578.962 305.124 578.962 305.124C578.963 305.124 578.963 305.124 578.963 305.124C578.964 305.124 578.964 305.124 578.964 305.124C578.965 305.124 578.965 305.124 578.966 305.124C578.966 305.124 578.966 305.124 578.967 305.124C578.967 305.124 578.967 305.124 578.968 305.124C578.968 305.124 578.968 305.124 578.969 305.124C578.969 305.124 578.969 305.124 578.97 305.124C578.97 305.124 578.97 305.124 578.971 305.124C578.971 305.124 578.971 305.124 578.972 305.124C578.972 305.124 578.973 305.124 578.973 305.124C578.973 305.124 578.974 305.124 578.974 305.124C578.974 305.124 578.975 305.124 578.975 305.124C578.975 305.124 578.976 305.124 578.976 305.124C578.976 305.124 578.977 305.124 578.977 305.124C578.977 305.124 578.978 305.124 578.978 305.124C578.978 305.124 578.979 305.124 578.979 305.124C578.979 305.124 578.98 305.124 578.98 305.124C578.98 305.124 578.981 305.124 578.981 305.124C578.981 305.124 578.982 305.124 578.982 305.124C578.983 305.124 578.983 305.124 578.983 305.124C578.984 305.124 578.984 305.124 578.984 305.124C578.985 305.124 578.985 305.124 578.985 305.124C578.986 305.124 578.986 305.124 578.986 305.124C578.987 305.124 578.987 305.124 578.987 305.124C578.988 305.124 578.988 305.124 578.988 305.124C578.989 305.124 578.989 305.124 578.989 305.124C578.99 305.124 578.99 305.124 578.99 305.124C578.991 305.124 578.991 305.124 578.991 305.124C578.992 305.124 578.992 305.124 578.992 305.124C578.993 305.124 578.993 305.124 578.993 305.124C578.994 305.124 578.994 305.124 578.994 305.124C578.995 305.124 578.995 305.124 578.995 305.124C578.996 305.124 578.996 305.124 578.996 305.124C578.997 305.124 578.997 305.124 578.997 305.124C578.998 305.124 578.998 305.124 578.998 305.124C578.999 305.124 578.999 305.124 578.999 305.124C579 305.124 579 305.124 579 305.124C579.001 305.124 579.001 305.124 579.001 305.124C579.002 305.124 579.002 305.124 579.002 305.124C579.003 305.124 579.003 305.124 579.003 305.124C579.004 305.124 579.004 305.124 579.004 305.124C579.005 305.124 579.005 305.124 579.005 305.124C579.006 305.124 579.006 305.124 579.006 305.124C579.007 305.124 579.007 305.124 579.007 305.124C579.008 305.124 579.008 305.124 579.008 305.124C579.009 305.124 579.009 305.124 579.009 305.124C579.01 305.124 579.01 305.124 579.01 305.124C579.011 305.124 579.011 305.124 579.011 305.124C579.012 305.124 579.012 305.124 579.012 305.124C579.013 305.124 579.013 305.124 579.013 305.124V302.163ZM578.433 302.163C578.027 302.163 577.792 302.035 577.654 301.901C577.511 301.761 577.365 301.508 577.341 301.075L574.385 301.239C574.444 302.297 574.837 303.287 575.585 304.019C576.339 304.754 577.346 305.124 578.433 305.124V302.163ZM577.267 300.689C577.272 300.702 577.268 300.696 577.265 300.66C577.261 300.621 577.261 300.579 577.261 300.494H574.3C574.3 300.648 574.291 301.121 574.459 301.625L577.267 300.689ZM577.261 300.494C577.261 300.045 577.376 299.828 577.47 299.723C577.558 299.623 577.775 299.452 578.332 299.397L578.037 296.451C576.936 296.561 575.951 296.97 575.251 297.762C574.557 298.548 574.3 299.533 574.3 300.494H577.261ZM578.385 299.39C586.348 298.301 597.369 295.535 604.019 292.381L602.75 289.706C596.468 292.686 585.771 295.392 577.984 296.457L578.385 299.39ZM604.205 292.275C604.382 292.157 604.562 292.109 604.876 292.109V289.149C604.196 289.149 603.381 289.267 602.563 289.812L604.205 292.275ZM604.876 292.109C605.359 292.109 605.786 292.336 606.085 293.036L608.807 291.87C608.112 290.248 606.715 289.149 604.876 289.149V292.109ZM606.072 293.002C606.16 293.223 606.214 293.531 606.214 293.779H609.175C609.175 293.198 609.064 292.511 608.82 291.903L606.072 293.002ZM606.214 293.779C606.214 294.384 605.859 294.99 605.126 295.356L606.45 298.004C608.039 297.21 609.175 295.661 609.175 293.779H606.214ZM605.21 295.318C602.543 296.449 599.04 297.672 595.197 298.735L595.987 301.589C599.936 300.496 603.563 299.232 606.366 298.043L605.21 295.318ZM594.112 300.162V314.503H597.072V300.162H594.112ZM595.592 315.983H607.363V313.022H595.592V315.983ZM607.363 315.983C607.614 315.983 607.765 316.071 607.896 316.247C608.057 316.463 608.204 316.856 608.204 317.404H611.164C611.164 316.377 610.897 315.319 610.27 314.478C609.614 313.598 608.605 313.022 607.363 313.022V315.983ZM608.204 317.404C608.204 318.093 608.052 318.432 607.95 318.566C607.894 318.638 607.797 318.742 607.446 318.742V321.703C608.587 321.703 609.609 321.268 610.3 320.366C610.944 319.526 611.164 318.455 611.164 317.404H608.204ZM607.446 318.742H595.592V321.703H607.446V318.742ZM594.112 320.222V333.486H597.072V320.222H594.112ZM595.592 334.966H600.317V332.005H595.592V334.966ZM600.317 334.966C602.46 334.966 603.682 335.385 604.384 336.028C605.057 336.644 605.551 337.745 605.551 339.869H608.512C608.512 337.35 607.929 335.26 606.384 333.845C604.868 332.457 602.733 332.005 600.317 332.005V334.966ZM605.551 339.869V358.271H608.512V339.869H605.551ZM605.551 358.271C605.551 360.476 605.037 361.642 604.32 362.3C603.576 362.984 602.291 363.422 600.068 363.422V366.383C602.571 366.383 604.768 365.91 606.323 364.48C607.908 363.024 608.512 360.874 608.512 358.271H605.551ZM600.068 363.422H584.899V366.383H600.068V363.422ZM584.899 363.422C582.676 363.422 581.391 362.984 580.647 362.3C579.931 361.642 579.416 360.476 579.416 358.271H576.455C576.455 360.874 577.06 363.024 578.644 364.48C580.199 365.91 582.396 366.383 584.899 366.383V363.422ZM579.416 358.271V339.869H576.455V358.271H579.416ZM579.416 339.869C579.416 337.745 579.91 336.644 580.583 336.028C581.285 335.385 582.507 334.966 584.65 334.966V332.005C582.234 332.005 580.099 332.457 578.583 333.845C577.038 335.26 576.455 337.35 576.455 339.869H579.416ZM584.65 334.966H589.624V332.005H584.65V334.966ZM591.104 333.486V320.222H588.143V333.486H591.104ZM589.624 318.742H577.189V321.703H589.624V318.742ZM577.189 318.742C576.87 318.742 576.734 318.64 576.639 318.517C576.508 318.348 576.349 317.979 576.349 317.321H573.388C573.388 318.404 573.644 319.486 574.3 320.332C574.992 321.225 576.017 321.703 577.189 321.703V318.742ZM576.349 317.321C576.349 316.72 576.501 316.372 576.63 316.209C576.726 316.087 576.868 315.983 577.189 315.983V313.022C576.019 313.022 575 313.498 574.309 314.371C573.651 315.203 573.388 316.265 573.388 317.321H576.349ZM577.189 315.983H589.624V313.022H577.189V315.983ZM582.589 341.112V357.111H585.55V341.112H582.589ZM582.589 357.111C582.589 358.121 582.813 359.199 583.697 359.942C584.513 360.629 585.575 360.746 586.474 360.746V357.786C586.123 357.786 585.892 357.758 585.743 357.723C585.601 357.689 585.58 357.658 585.603 357.678C585.699 357.758 585.55 357.758 585.55 357.111H582.589ZM586.474 360.746H598.908V357.786H586.474V360.746ZM598.908 360.746C599.749 360.746 600.833 360.639 601.59 359.804C602.304 359.016 602.378 357.944 602.378 357.111H599.417C599.417 357.478 599.393 357.695 599.364 357.819C599.339 357.933 599.327 357.893 599.396 357.816C599.474 357.731 599.541 357.721 599.486 357.736C599.41 357.758 599.239 357.786 598.908 357.786V360.746ZM602.378 357.111V341.112H599.417V357.111H602.378ZM602.378 341.112C602.378 340.261 602.312 339.159 601.574 338.37C600.802 337.545 599.696 337.476 598.908 337.476V340.437C599.255 340.437 599.434 340.462 599.519 340.483C599.582 340.499 599.504 340.491 599.412 340.393C599.328 340.302 599.337 340.247 599.363 340.364C599.392 340.492 599.417 340.72 599.417 341.112H602.378ZM598.908 337.476H586.474V340.437H598.908V337.476ZM586.474 337.476C585.618 337.476 584.542 337.559 583.714 338.235C582.802 338.979 582.589 340.084 582.589 341.112H585.55C585.55 340.399 585.71 340.427 585.586 340.529C585.552 340.556 585.564 340.528 585.714 340.495C585.87 340.461 586.109 340.437 586.474 340.437V337.476ZM614.409 310.287H609.353V313.247H614.409V310.287ZM609.353 310.287C609.129 310.287 608.97 310.206 608.831 310.028C608.67 309.822 608.512 309.437 608.512 308.866H605.551C605.551 309.953 605.849 311.019 606.496 311.849C607.166 312.707 608.167 313.247 609.353 313.247V310.287ZM608.512 308.866C608.512 308.209 608.67 307.866 608.785 307.72C608.866 307.618 608.981 307.528 609.27 307.528V304.567C608.149 304.567 607.146 305.016 606.459 305.888C605.807 306.716 605.551 307.782 605.551 308.866H608.512ZM609.27 307.528H614.409V304.567H609.27V307.528ZM615.889 306.047V293.282H612.929V306.047H615.889ZM615.889 293.282C615.889 293.086 615.927 292.977 615.956 292.919C615.984 292.864 616.028 292.806 616.117 292.744C616.32 292.602 616.764 292.441 617.559 292.441V289.48C616.448 289.48 615.317 289.692 614.422 290.317C613.449 290.996 612.929 292.045 612.929 293.282H615.889ZM617.559 292.441C618.355 292.441 618.798 292.602 619.002 292.744C619.091 292.806 619.135 292.864 619.162 292.919C619.191 292.977 619.229 293.086 619.229 293.282H622.189C622.189 292.045 621.67 290.996 620.697 290.317C619.802 289.692 618.67 289.48 617.559 289.48V292.441ZM619.229 293.282V306.047H622.189V293.282H619.229ZM620.709 307.528H638.78V304.567H620.709V307.528ZM640.261 306.047V293.282H637.3V306.047H640.261ZM640.261 293.282C640.261 293.086 640.298 292.977 640.327 292.919C640.355 292.864 640.399 292.806 640.488 292.744C640.691 292.602 641.135 292.441 641.93 292.441V289.48C640.819 289.48 639.688 289.692 638.793 290.317C637.82 290.996 637.3 292.045 637.3 293.282H640.261ZM641.93 292.441C642.726 292.441 643.169 292.602 643.373 292.744C643.462 292.806 643.506 292.864 643.533 292.919C643.562 292.977 643.6 293.086 643.6 293.282H646.561C646.561 292.045 646.041 290.996 645.068 290.317C644.173 289.692 643.042 289.48 641.93 289.48V292.441ZM643.6 293.282V306.047H646.561V293.282H643.6ZM645.08 307.528H649.888V304.567H645.08V307.528ZM649.888 307.528C650.207 307.528 650.343 307.63 650.438 307.752C650.57 307.922 650.729 308.291 650.729 308.949H653.689C653.689 307.865 653.434 306.784 652.778 305.938C652.086 305.045 651.061 304.567 649.888 304.567V307.528ZM650.729 308.949C650.729 309.55 650.577 309.898 650.448 310.061C650.351 310.182 650.21 310.287 649.888 310.287V313.247C651.059 313.247 652.078 312.772 652.769 311.899C653.427 311.067 653.689 310.005 653.689 308.949H650.729ZM649.888 310.287H645.08V313.247H649.888V310.287ZM643.6 311.767V358.188H646.561V311.767H643.6ZM643.6 358.188C643.6 360.393 643.085 361.559 642.369 362.217C641.624 362.901 640.34 363.34 638.117 363.34V366.3C640.619 366.3 642.816 365.827 644.372 364.397C645.956 362.941 646.561 360.791 646.561 358.188H643.6ZM638.117 363.34H621.289V366.3H638.117V363.34ZM621.289 363.34C619.114 363.34 617.85 362.903 617.115 362.222C616.404 361.563 615.889 360.393 615.889 358.188H612.929C612.929 360.791 613.533 362.938 615.102 364.392C616.646 365.824 618.823 366.3 621.289 366.3V363.34ZM615.889 358.188V311.767H612.929V358.188H615.889ZM619.229 336.47V356.945H622.189V336.47H619.229ZM619.229 356.945C619.229 357.955 619.453 359.033 620.336 359.776C621.152 360.464 622.215 360.58 623.113 360.58V357.62C622.763 357.62 622.532 357.593 622.383 357.557C622.241 357.523 622.22 357.492 622.243 357.512C622.339 357.592 622.189 357.592 622.189 356.945H619.229ZM623.113 360.58H636.293V357.62H623.113V360.58ZM636.293 360.58C637.198 360.58 638.257 360.461 639.083 359.8C639.993 359.072 640.261 358 640.261 356.945H637.3C637.3 357.548 637.153 357.553 637.234 357.488C637.242 357.482 637.202 357.518 637.045 357.555C636.883 357.593 636.643 357.62 636.293 357.62V360.58ZM640.261 356.945V336.47H637.3V356.945H640.261ZM638.78 334.99H620.709V337.95H638.78V334.99ZM640.261 330.833V311.767H637.3V330.833H640.261ZM638.78 310.287H620.709V313.247H638.78V310.287ZM619.229 311.767V330.833H622.189V311.767H619.229ZM620.709 332.313H638.78V329.353H620.709V332.313Z" fill="#59391D" mask="url(#path-5-outside-1_280_2440)"/>
<ellipse cx="14.8026" cy="15.0806" rx="14.8026" ry="15.0806" transform="matrix(0.999947 -0.0103167 -0.0173517 0.999849 743.566 200.691)" fill="#59391D"/>
<ellipse cx="14.8026" cy="15.0806" rx="14.8026" ry="15.0806" transform="matrix(0.999947 -0.0103167 -0.0173517 0.999849 878.031 203.091)" fill="#59391D"/>
<path d="M766.196 266.614C764.616 270.848 766.465 276.233 770.497 278.299C787.479 286.999 805.715 291.019 823.85 290.016C842.437 288.988 860.358 282.714 876.223 271.731C879.276 269.617 879.912 264.892 877.85 261.082C875.525 256.787 870.751 255.345 867.354 257.612C853.684 266.735 838.361 271.944 822.499 272.821C806.752 273.691 790.927 270.268 776.16 262.846C772.211 260.861 767.786 262.356 766.196 266.614Z" fill="#59391D" stroke="#59391D" stroke-width="1.48026"/>
<path d="M79.459 679.75C66.6257 679.75 55.1257 677.667 44.959 673.5C34.7923 669.333 26.6257 663.167 20.459 655C14.459 646.833 11.2923 637 10.959 625.5H56.459C57.1257 632 59.3757 637 63.209 640.5C67.0423 643.833 72.0423 645.5 78.209 645.5C84.5423 645.5 89.5423 644.083 93.209 641.25C96.8757 638.25 98.709 634.167 98.709 629C98.709 624.667 97.209 621.083 94.209 618.25C91.3757 615.417 87.7923 613.083 83.459 611.25C79.2923 609.417 73.2923 607.333 65.459 605C54.1257 601.5 44.8757 598 37.709 594.5C30.5423 591 24.3757 585.833 19.209 579C14.0423 572.167 11.459 563.25 11.459 552.25C11.459 535.917 17.3757 523.167 29.209 514C41.0423 504.667 56.459 500 75.459 500C94.7923 500 110.376 504.667 122.209 514C134.042 523.167 140.376 536 141.209 552.5H94.959C94.6257 546.833 92.5423 542.417 88.709 539.25C84.8757 535.917 79.959 534.25 73.959 534.25C68.7923 534.25 64.6257 535.667 61.459 538.5C58.2923 541.167 56.709 545.083 56.709 550.25C56.709 555.917 59.3757 560.333 64.709 563.5C70.0423 566.667 78.3757 570.083 89.709 573.75C101.042 577.583 110.209 581.25 117.209 584.75C124.376 588.25 130.542 593.333 135.709 600C140.876 606.667 143.459 615.25 143.459 625.75C143.459 635.75 140.876 644.833 135.709 653C130.709 661.167 123.376 667.667 113.709 672.5C104.042 677.333 92.6257 679.75 79.459 679.75ZM300.018 538.5V678H257.268V659C252.934 665.167 247.018 670.167 239.518 674C232.184 677.667 224.018 679.5 215.018 679.5C204.351 679.5 194.934 677.167 186.768 672.5C178.601 667.667 172.268 660.75 167.768 651.75C163.268 642.75 161.018 632.167 161.018 620V538.5H203.518V614.25C203.518 623.583 205.934 630.833 210.768 636C215.601 641.167 222.101 643.75 230.268 643.75C238.601 643.75 245.184 641.167 250.018 636C254.851 630.833 257.268 623.583 257.268 614.25V538.5H300.018ZM376.225 536.5C386.058 536.5 394.641 538.5 401.975 542.5C409.475 546.5 415.225 551.75 419.225 558.25V538.5H461.975V677.75C461.975 690.583 459.391 702.167 454.225 712.5C449.225 723 441.475 731.333 430.975 737.5C420.641 743.667 407.725 746.75 392.225 746.75C371.558 746.75 354.808 741.833 341.975 732C329.141 722.333 321.808 709.167 319.975 692.5H362.225C363.558 697.833 366.725 702 371.725 705C376.725 708.167 382.891 709.75 390.225 709.75C399.058 709.75 406.058 707.167 411.225 702C416.558 697 419.225 688.917 419.225 677.75V658C415.058 664.5 409.308 669.833 401.975 674C394.641 678 386.058 680 376.225 680C364.725 680 354.308 677.083 344.975 671.25C335.641 665.25 328.225 656.833 322.725 646C317.391 635 314.725 622.333 314.725 608C314.725 593.667 317.391 581.083 322.725 570.25C328.225 559.417 335.641 551.083 344.975 545.25C354.308 539.417 364.725 536.5 376.225 536.5ZM419.225 608.25C419.225 597.583 416.225 589.167 410.225 583C404.391 576.833 397.225 573.75 388.725 573.75C380.225 573.75 372.975 576.833 366.975 583C361.141 589 358.225 597.333 358.225 608C358.225 618.667 361.141 627.167 366.975 633.5C372.975 639.667 380.225 642.75 388.725 642.75C397.225 642.75 404.391 639.667 410.225 633.5C416.225 627.333 419.225 618.917 419.225 608.25ZM476.902 608C476.902 593.667 479.569 581.083 484.902 570.25C490.402 559.417 497.819 551.083 507.152 545.25C516.486 539.417 526.902 536.5 538.402 536.5C548.236 536.5 556.819 538.5 564.152 542.5C571.652 546.5 577.402 551.75 581.402 558.25V538.5H624.152V678H581.402V658.25C577.236 664.75 571.402 670 563.902 674C556.569 678 547.986 680 538.152 680C526.819 680 516.486 677.083 507.152 671.25C497.819 665.25 490.402 656.833 484.902 646C479.569 635 476.902 622.333 476.902 608ZM581.402 608.25C581.402 597.583 578.402 589.167 572.402 583C566.569 576.833 559.402 573.75 550.902 573.75C542.402 573.75 535.152 576.833 529.152 583C523.319 589 520.402 597.333 520.402 608C520.402 618.667 523.319 627.167 529.152 633.5C535.152 639.667 542.402 642.75 550.902 642.75C559.402 642.75 566.569 639.667 572.402 633.5C578.402 627.333 581.402 618.917 581.402 608.25ZM690.33 561.75C695.33 554.083 701.58 548.083 709.08 543.75C716.58 539.25 724.913 537 734.08 537V582.25H722.33C711.663 582.25 703.663 584.583 698.33 589.25C692.997 593.75 690.33 601.75 690.33 613.25V678H647.58V538.5H690.33V561.75ZM767.014 680C759.514 680 753.347 677.833 748.514 673.5C743.847 669 741.514 663.5 741.514 657C741.514 650.333 743.847 644.75 748.514 640.25C753.347 635.75 759.514 633.5 767.014 633.5C774.347 633.5 780.347 635.75 785.014 640.25C789.847 644.75 792.264 650.333 792.264 657C792.264 663.5 789.847 669 785.014 673.5C780.347 677.833 774.347 680 767.014 680ZM936.32 502.5V536.75H889.82V678H847.07V536.75H800.57V502.5H936.32ZM1013.78 680C1000.11 680 987.775 677.083 976.775 671.25C965.942 665.417 957.359 657.083 951.025 646.25C944.859 635.417 941.775 622.75 941.775 608.25C941.775 593.917 944.942 581.333 951.275 570.5C957.609 559.5 966.275 551.083 977.275 545.25C988.275 539.417 1000.61 536.5 1014.28 536.5C1027.94 536.5 1040.28 539.417 1051.28 545.25C1062.28 551.083 1070.94 559.5 1077.28 570.5C1083.61 581.333 1086.78 593.917 1086.78 608.25C1086.78 622.583 1083.53 635.25 1077.03 646.25C1070.69 657.083 1061.94 665.417 1050.78 671.25C1039.78 677.083 1027.44 680 1013.78 680ZM1013.78 643C1021.94 643 1028.86 640 1034.53 634C1040.36 628 1043.28 619.417 1043.28 608.25C1043.28 597.083 1040.44 588.5 1034.78 582.5C1029.28 576.5 1022.44 573.5 1014.28 573.5C1005.94 573.5 999.025 576.5 993.525 582.5C988.025 588.333 985.275 596.917 985.275 608.25C985.275 619.417 987.942 628 993.275 634C998.775 640 1005.61 643 1013.78 643ZM1144.71 558.25C1148.87 551.75 1154.62 546.5 1161.96 542.5C1169.29 538.5 1177.87 536.5 1187.71 536.5C1199.21 536.5 1209.62 539.417 1218.96 545.25C1228.29 551.083 1235.62 559.417 1240.96 570.25C1246.46 581.083 1249.21 593.667 1249.21 608C1249.21 622.333 1246.46 635 1240.96 646C1235.62 656.833 1228.29 665.25 1218.96 671.25C1209.62 677.083 1199.21 680 1187.71 680C1178.04 680 1169.46 678 1161.96 674C1154.62 670 1148.87 664.833 1144.71 658.5V744.5H1101.96V538.5H1144.71V558.25ZM1205.71 608C1205.71 597.333 1202.71 589 1196.71 583C1190.87 576.833 1183.62 573.75 1174.96 573.75C1166.46 573.75 1159.21 576.833 1153.21 583C1147.37 589.167 1144.46 597.583 1144.46 608.25C1144.46 618.917 1147.37 627.333 1153.21 633.5C1159.21 639.667 1166.46 642.75 1174.96 642.75C1183.46 642.75 1190.71 639.667 1196.71 633.5C1202.71 627.167 1205.71 618.667 1205.71 608ZM1285.63 524C1278.13 524 1271.97 521.833 1267.13 517.5C1262.47 513 1260.13 507.5 1260.13 501C1260.13 494.333 1262.47 488.833 1267.13 484.5C1271.97 480 1278.13 477.75 1285.63 477.75C1292.97 477.75 1298.97 480 1303.63 484.5C1308.47 488.833 1310.88 494.333 1310.88 501C1310.88 507.5 1308.47 513 1303.63 517.5C1298.97 521.833 1292.97 524 1285.63 524ZM1306.88 538.5V678H1264.13V538.5H1306.88ZM1321.86 608C1321.86 593.667 1324.53 581.083 1329.86 570.25C1335.36 559.417 1342.78 551.083 1352.11 545.25C1361.45 539.417 1371.86 536.5 1383.36 536.5C1393.2 536.5 1401.78 538.5 1409.11 542.5C1416.61 546.5 1422.36 551.75 1426.36 558.25V538.5H1469.11V678H1426.36V658.25C1422.2 664.75 1416.36 670 1408.86 674C1401.53 678 1392.95 680 1383.11 680C1371.78 680 1361.45 677.083 1352.11 671.25C1342.78 665.25 1335.36 656.833 1329.86 646C1324.53 635 1321.86 622.333 1321.86 608ZM1426.36 608.25C1426.36 597.583 1423.36 589.167 1417.36 583C1411.53 576.833 1404.36 573.75 1395.86 573.75C1387.36 573.75 1380.11 576.833 1374.11 583C1368.28 589 1365.36 597.333 1365.36 608C1365.36 618.667 1368.28 627.167 1374.11 633.5C1380.11 639.667 1387.36 642.75 1395.86 642.75C1404.36 642.75 1411.53 639.667 1417.36 633.5C1423.36 627.333 1426.36 618.917 1426.36 608.25Z" fill="#59391D"/>
<path d="M302.55 810.6L274.95 863.76V894H261.27V863.76L233.55 810.6H248.79L268.11 851.52L287.43 810.6H302.55ZM339.686 895.08C333.446 895.08 327.806 893.68 322.766 890.88C317.726 888 313.766 884 310.886 878.88C308.006 873.68 306.566 867.68 306.566 860.88C306.566 854.16 308.046 848.2 311.006 843C313.966 837.8 318.006 833.8 323.126 831C328.246 828.2 333.966 826.8 340.286 826.8C346.606 826.8 352.326 828.2 357.446 831C362.566 833.8 366.606 837.8 369.566 843C372.526 848.2 374.006 854.16 374.006 860.88C374.006 867.6 372.486 873.56 369.446 878.76C366.406 883.96 362.246 888 356.966 890.88C351.766 893.68 346.006 895.08 339.686 895.08ZM339.686 883.2C343.206 883.2 346.486 882.36 349.526 880.68C352.646 879 355.166 876.48 357.086 873.12C359.006 869.76 359.966 865.68 359.966 860.88C359.966 856.08 359.046 852.04 357.206 848.76C355.366 845.4 352.926 842.88 349.886 841.2C346.846 839.52 343.566 838.68 340.046 838.68C336.526 838.68 333.246 839.52 330.206 841.2C327.246 842.88 324.886 845.4 323.126 848.76C321.366 852.04 320.486 856.08 320.486 860.88C320.486 868 322.286 873.52 325.886 877.44C329.566 881.28 334.166 883.2 339.686 883.2ZM445.01 827.88V894H431.33V886.2C429.17 888.92 426.33 891.08 422.81 892.68C419.37 894.2 415.69 894.96 411.77 894.96C406.57 894.96 401.89 893.88 397.73 891.72C393.65 889.56 390.41 886.36 388.01 882.12C385.69 877.88 384.53 872.76 384.53 866.76V827.88H398.09V864.72C398.09 870.64 399.57 875.2 402.53 878.4C405.49 881.52 409.53 883.08 414.65 883.08C419.77 883.08 423.81 881.52 426.77 878.4C429.81 875.2 431.33 870.64 431.33 864.72V827.88H445.01ZM474.339 837.48C476.339 834.12 478.979 831.52 482.259 829.68C485.619 827.76 489.579 826.8 494.139 826.8V840.96H490.659C485.299 840.96 481.219 842.32 478.419 845.04C475.699 847.76 474.339 852.48 474.339 859.2V894H460.659V827.88H474.339V837.48ZM560.566 894.84C554.966 894.84 549.926 893.88 545.446 891.96C540.966 889.96 537.446 887.16 534.886 883.56C532.326 879.96 531.046 875.76 531.046 870.96H545.686C546.006 874.56 547.406 877.52 549.886 879.84C552.446 882.16 556.006 883.32 560.566 883.32C565.286 883.32 568.966 882.2 571.606 879.96C574.246 877.64 575.566 874.68 575.566 871.08C575.566 868.28 574.726 866 573.046 864.24C571.446 862.48 569.406 861.12 566.926 860.16C564.526 859.2 561.166 858.16 556.846 857.04C551.406 855.6 546.966 854.16 543.526 852.72C540.166 851.2 537.286 848.88 534.886 845.76C532.486 842.64 531.286 838.48 531.286 833.28C531.286 828.48 532.486 824.28 534.886 820.68C537.286 817.08 540.646 814.32 544.966 812.4C549.286 810.48 554.286 809.52 559.966 809.52C568.046 809.52 574.646 811.56 579.766 815.64C584.966 819.64 587.846 825.16 588.406 832.2H573.286C573.046 829.16 571.606 826.56 568.966 824.4C566.326 822.24 562.846 821.16 558.526 821.16C554.606 821.16 551.406 822.16 548.926 824.16C546.446 826.16 545.206 829.04 545.206 832.8C545.206 835.36 545.966 837.48 547.486 839.16C549.086 840.76 551.086 842.04 553.486 843C555.886 843.96 559.166 845 563.326 846.12C568.846 847.64 573.326 849.16 576.766 850.68C580.286 852.2 583.246 854.56 585.646 857.76C588.126 860.88 589.366 865.08 589.366 870.36C589.366 874.6 588.206 878.6 585.886 882.36C583.646 886.12 580.326 889.16 575.926 891.48C571.606 893.72 566.486 894.84 560.566 894.84ZM691.908 827.88L671.388 894H656.988L643.668 845.16L630.348 894H615.948L595.308 827.88H609.228L623.028 881.04L637.068 827.88H651.348L664.788 880.8L678.468 827.88H691.908ZM760.331 859.32C760.331 861.8 760.171 864.04 759.851 866.04H709.331C709.731 871.32 711.691 875.56 715.211 878.76C718.731 881.96 723.051 883.56 728.171 883.56C735.531 883.56 740.731 880.48 743.771 874.32H758.531C756.531 880.4 752.891 885.4 747.611 889.32C742.411 893.16 735.931 895.08 728.171 895.08C721.851 895.08 716.171 893.68 711.131 890.88C706.171 888 702.251 884 699.371 878.88C696.571 873.68 695.171 867.68 695.171 860.88C695.171 854.08 696.531 848.12 699.251 843C702.051 837.8 705.931 833.8 710.891 831C715.931 828.2 721.691 826.8 728.171 826.8C734.411 826.8 739.971 828.16 744.851 830.88C749.731 833.6 753.531 837.44 756.251 842.4C758.971 847.28 760.331 852.92 760.331 859.32ZM746.051 855C745.971 849.96 744.171 845.92 740.651 842.88C737.131 839.84 732.771 838.32 727.571 838.32C722.851 838.32 718.811 839.84 715.451 842.88C712.091 845.84 710.091 849.88 709.451 855H746.051ZM831.994 859.32C831.994 861.8 831.834 864.04 831.514 866.04H780.994C781.394 871.32 783.354 875.56 786.874 878.76C790.394 881.96 794.714 883.56 799.834 883.56C807.194 883.56 812.394 880.48 815.434 874.32H830.194C828.194 880.4 824.554 885.4 819.274 889.32C814.074 893.16 807.594 895.08 799.834 895.08C793.514 895.08 787.834 893.68 782.794 890.88C777.834 888 773.914 884 771.034 878.88C768.234 873.68 766.834 867.68 766.834 860.88C766.834 854.08 768.194 848.12 770.914 843C773.714 837.8 777.594 833.8 782.554 831C787.594 828.2 793.354 826.8 799.834 826.8C806.074 826.8 811.634 828.16 816.514 830.88C821.394 833.6 825.194 837.44 827.914 842.4C830.634 847.28 831.994 852.92 831.994 859.32ZM817.714 855C817.634 849.96 815.834 845.92 812.314 842.88C808.794 839.84 804.434 838.32 799.234 838.32C794.514 838.32 790.474 839.84 787.114 842.88C783.754 845.84 781.754 849.88 781.114 855H817.714ZM859.016 839.04V875.64C859.016 878.12 859.576 879.92 860.696 881.04C861.896 882.08 863.896 882.6 866.696 882.6H875.096V894H864.296C858.136 894 853.416 892.56 850.136 889.68C846.856 886.8 845.216 882.12 845.216 875.64V839.04H837.416V827.88H845.216V811.44H859.016V827.88H875.096V839.04H859.016ZM974.437 834.6C972.277 830.44 969.277 827.32 965.437 825.24C961.597 823.08 957.157 822 952.117 822C946.597 822 941.677 823.24 937.357 825.72C933.037 828.2 929.637 831.72 927.157 836.28C924.757 840.84 923.557 846.12 923.557 852.12C923.557 858.12 924.757 863.44 927.157 868.08C929.637 872.64 933.037 876.16 937.357 878.64C941.677 881.12 946.597 882.36 952.117 882.36C959.557 882.36 965.597 880.28 970.237 876.12C974.877 871.96 977.717 866.32 978.757 859.2H947.437V848.28H993.397V858.96C992.517 865.44 990.197 871.4 986.437 876.84C982.757 882.28 977.917 886.64 971.917 889.92C965.997 893.12 959.397 894.72 952.117 894.72C944.277 894.72 937.117 892.92 930.637 889.32C924.157 885.64 918.997 880.56 915.157 874.08C911.397 867.6 909.517 860.28 909.517 852.12C909.517 843.96 911.397 836.64 915.157 830.16C918.997 823.68 924.157 818.64 930.637 815.04C937.197 811.36 944.357 809.52 952.117 809.52C960.997 809.52 968.877 811.72 975.757 816.12C982.717 820.44 987.757 826.6 990.877 834.6H974.437ZM1064.37 827.88V894H1050.69V886.2C1048.53 888.92 1045.69 891.08 1042.17 892.68C1038.73 894.2 1035.05 894.96 1031.13 894.96C1025.93 894.96 1021.25 893.88 1017.09 891.72C1013.01 889.56 1009.77 886.36 1007.37 882.12C1005.05 877.88 1003.89 872.76 1003.89 866.76V827.88H1017.45V864.72C1017.45 870.64 1018.93 875.2 1021.89 878.4C1024.85 881.52 1028.89 883.08 1034.01 883.08C1039.13 883.08 1043.17 881.52 1046.13 878.4C1049.17 875.2 1050.69 870.64 1050.69 864.72V827.88H1064.37ZM1086.98 819.12C1084.5 819.12 1082.42 818.28 1080.74 816.6C1079.06 814.92 1078.22 812.84 1078.22 810.36C1078.22 807.88 1079.06 805.8 1080.74 804.12C1082.42 802.44 1084.5 801.6 1086.98 801.6C1089.38 801.6 1091.42 802.44 1093.1 804.12C1094.78 805.8 1095.62 807.88 1095.62 810.36C1095.62 812.84 1094.78 814.92 1093.1 816.6C1091.42 818.28 1089.38 819.12 1086.98 819.12ZM1093.7 827.88V894H1080.02V827.88H1093.7ZM1104.7 860.64C1104.7 854 1106.06 848.12 1108.78 843C1111.58 837.88 1115.34 833.92 1120.06 831.12C1124.86 828.24 1130.18 826.8 1136.02 826.8C1140.34 826.8 1144.58 827.76 1148.74 829.68C1152.98 831.52 1156.34 834 1158.82 837.12V805.2H1172.62V894H1158.82V884.04C1156.58 887.24 1153.46 889.88 1149.46 891.96C1145.54 894.04 1141.02 895.08 1135.9 895.08C1130.14 895.08 1124.86 893.64 1120.06 890.76C1115.34 887.8 1111.58 883.72 1108.78 878.52C1106.06 873.24 1104.7 867.28 1104.7 860.64ZM1158.82 860.88C1158.82 856.32 1157.86 852.36 1155.94 849C1154.1 845.64 1151.66 843.08 1148.62 841.32C1145.58 839.56 1142.3 838.68 1138.78 838.68C1135.26 838.68 1131.98 839.56 1128.94 841.32C1125.9 843 1123.42 845.52 1121.5 848.88C1119.66 852.16 1118.74 856.08 1118.74 860.64C1118.74 865.2 1119.66 869.2 1121.5 872.64C1123.42 876.08 1125.9 878.72 1128.94 880.56C1132.06 882.32 1135.34 883.2 1138.78 883.2C1142.3 883.2 1145.58 882.32 1148.62 880.56C1151.66 878.8 1154.1 876.24 1155.94 872.88C1157.86 869.44 1158.82 865.44 1158.82 860.88ZM1248.79 859.32C1248.79 861.8 1248.63 864.04 1248.31 866.04H1197.79C1198.19 871.32 1200.15 875.56 1203.67 878.76C1207.19 881.96 1211.51 883.56 1216.63 883.56C1223.99 883.56 1229.19 880.48 1232.23 874.32H1246.99C1244.99 880.4 1241.35 885.4 1236.07 889.32C1230.87 893.16 1224.39 895.08 1216.63 895.08C1210.31 895.08 1204.63 893.68 1199.59 890.88C1194.63 888 1190.71 884 1187.83 878.88C1185.03 873.68 1183.63 867.68 1183.63 860.88C1183.63 854.08 1184.99 848.12 1187.71 843C1190.51 837.8 1194.39 833.8 1199.35 831C1204.39 828.2 1210.15 826.8 1216.63 826.8C1222.87 826.8 1228.43 828.16 1233.31 830.88C1238.19 833.6 1241.99 837.44 1244.71 842.4C1247.43 847.28 1248.79 852.92 1248.79 859.32ZM1234.51 855C1234.43 849.96 1232.63 845.92 1229.11 842.88C1225.59 839.84 1221.23 838.32 1216.03 838.32C1211.31 838.32 1207.27 839.84 1203.91 842.88C1200.55 845.84 1198.55 849.88 1197.91 855H1234.51Z" fill="#59391D"/>
</svg>
