<svg width="53" height="49" viewBox="0 0 53 49" fill="none" xmlns="http://www.w3.org/2000/svg">
<rect x="1" y="3" width="50" height="43.6667" rx="6.66667" stroke="#FFA518" stroke-width="3.11111"/>
<path d="M51.2257 8.74754C51.2257 12.5965 45.7538 15.7162 39.0035 15.7162C32.2531 15.7162 26.7812 12.5965 26.7812 8.74754C26.7812 4.89855 32.2531 1.77893 39.0035 1.77893C45.7538 1.77893 51.2257 4.89855 51.2257 8.74754Z" stroke="#FFA518" stroke-width="2.93333" stroke-linecap="round" stroke-linejoin="round"/>
<path d="M39.0008 6.25535C42.6674 4.61424 45.1119 7.25766 45.1119 8.49459C45.1119 12.1763 32.8896 11.9847 32.8896 7.4493C32.8896 4.68044 35.3341 1.77917 39.0008 1.77917" stroke="#FFA518" stroke-width="2.93333" stroke-linecap="round" stroke-linejoin="round"/>
<rect x="1" y="3" width="50" height="43.6667" rx="6.66667" stroke="#FFA518" stroke-width="3.11111"/>
<path d="M51.2257 8.74754C51.2257 12.5965 45.7538 15.7162 39.0035 15.7162C32.2531 15.7162 26.7812 12.5965 26.7812 8.74754C26.7812 4.89855 32.2531 1.77893 39.0035 1.77893C45.7538 1.77893 51.2257 4.89855 51.2257 8.74754Z" stroke="#FFA518" stroke-width="2.93333" stroke-linecap="round" stroke-linejoin="round"/>
<path d="M39.0008 6.25535C42.6674 4.61424 45.1119 7.25766 45.1119 8.49459C45.1119 12.1763 32.8896 11.9847 32.8896 7.4493C32.8896 4.68044 35.3341 1.77917 39.0008 1.77917" stroke="#FFA518" stroke-width="2.93333" stroke-linecap="round" stroke-linejoin="round"/>
<mask id="path-7-outside-1_2181_11132" maskUnits="userSpaceOnUse" x="6.99902" y="33.1309" width="10" height="9" fill="black">
<rect fill="white" x="6.99902" y="33.1309" width="10" height="9"/>
<path d="M9.40165 36.0559V34.6282C8.98718 34.7203 8.58192 34.794 8.22271 34.8493C8.20429 34.8493 8.17665 34.8493 8.15823 34.8493C7.99244 34.8493 7.88192 34.7388 7.87271 34.573C7.8635 34.5453 7.8635 34.5177 7.8635 34.4993C7.8635 34.3427 7.94639 34.2322 8.1306 34.2138C9.0056 34.094 10.2122 33.7901 10.9306 33.4493C10.9859 33.4124 11.0411 33.4032 11.0964 33.4032C11.2253 33.4032 11.3267 33.4769 11.3819 33.6059C11.4003 33.6519 11.4095 33.7072 11.4095 33.7532C11.4095 33.8914 11.3267 34.0111 11.1977 34.0756C10.8938 34.2045 10.4977 34.3427 10.0648 34.4624V36.0559H11.3727C11.5385 36.0559 11.6306 36.2032 11.6306 36.3782C11.6306 36.5716 11.5477 36.6914 11.3819 36.6914H10.0648V38.1651H10.5898C11.0964 38.1651 11.3359 38.3585 11.3359 38.8743V40.919C11.3359 41.4532 11.0872 41.6559 10.5622 41.6559H8.87665C8.35165 41.6559 8.10297 41.4532 8.10297 40.919V38.8743C8.10297 38.3585 8.34244 38.1651 8.84902 38.1651H9.40165V36.6914H8.02008C7.85429 36.6914 7.76218 36.5624 7.76218 36.369C7.76218 36.1848 7.85429 36.0559 8.02008 36.0559H9.40165ZM8.78455 39.0124V40.7901C8.78455 40.9743 8.86744 41.0295 9.05165 41.0295H10.4332C10.6082 41.0295 10.6543 40.9743 10.6543 40.7901V39.0124C10.6543 38.819 10.6082 38.773 10.4332 38.773H9.05165C8.86744 38.773 8.78455 38.819 8.78455 39.0124ZM12.1556 35.7519H11.5938C11.4372 35.7519 11.3359 35.6138 11.3359 35.4295C11.3359 35.2361 11.428 35.1164 11.5845 35.1164H12.1556V33.698C12.1556 33.523 12.2938 33.4401 12.5056 33.4401C12.7174 33.4401 12.8556 33.523 12.8556 33.698V35.1164H14.8635V33.698C14.8635 33.523 15.0017 33.4401 15.2135 33.4401C15.4253 33.4401 15.5635 33.523 15.5635 33.698V35.1164H16.0977C16.2635 35.1164 16.3556 35.2453 16.3556 35.4388C16.3556 35.623 16.2635 35.7519 16.0977 35.7519H15.5635V40.9098C15.5635 41.444 15.3148 41.6466 14.7898 41.6466H12.9201C12.4043 41.6466 12.1556 41.444 12.1556 40.9098V35.7519ZM12.8556 38.4966V40.7716C12.8556 40.9559 12.9385 41.0111 13.1227 41.0111H14.5872C14.7714 41.0111 14.8635 40.9559 14.8635 40.7716V38.4966H12.8556ZM14.8635 37.8703V35.7519H12.8556V37.8703H14.8635Z"/>
</mask>
<path d="M9.40165 36.0559V34.6282C8.98718 34.7203 8.58192 34.794 8.22271 34.8493C8.20429 34.8493 8.17665 34.8493 8.15823 34.8493C7.99244 34.8493 7.88192 34.7388 7.87271 34.573C7.8635 34.5453 7.8635 34.5177 7.8635 34.4993C7.8635 34.3427 7.94639 34.2322 8.1306 34.2138C9.0056 34.094 10.2122 33.7901 10.9306 33.4493C10.9859 33.4124 11.0411 33.4032 11.0964 33.4032C11.2253 33.4032 11.3267 33.4769 11.3819 33.6059C11.4003 33.6519 11.4095 33.7072 11.4095 33.7532C11.4095 33.8914 11.3267 34.0111 11.1977 34.0756C10.8938 34.2045 10.4977 34.3427 10.0648 34.4624V36.0559H11.3727C11.5385 36.0559 11.6306 36.2032 11.6306 36.3782C11.6306 36.5716 11.5477 36.6914 11.3819 36.6914H10.0648V38.1651H10.5898C11.0964 38.1651 11.3359 38.3585 11.3359 38.8743V40.919C11.3359 41.4532 11.0872 41.6559 10.5622 41.6559H8.87665C8.35165 41.6559 8.10297 41.4532 8.10297 40.919V38.8743C8.10297 38.3585 8.34244 38.1651 8.84902 38.1651H9.40165V36.6914H8.02008C7.85429 36.6914 7.76218 36.5624 7.76218 36.369C7.76218 36.1848 7.85429 36.0559 8.02008 36.0559H9.40165ZM8.78455 39.0124V40.7901C8.78455 40.9743 8.86744 41.0295 9.05165 41.0295H10.4332C10.6082 41.0295 10.6543 40.9743 10.6543 40.7901V39.0124C10.6543 38.819 10.6082 38.773 10.4332 38.773H9.05165C8.86744 38.773 8.78455 38.819 8.78455 39.0124ZM12.1556 35.7519H11.5938C11.4372 35.7519 11.3359 35.6138 11.3359 35.4295C11.3359 35.2361 11.428 35.1164 11.5845 35.1164H12.1556V33.698C12.1556 33.523 12.2938 33.4401 12.5056 33.4401C12.7174 33.4401 12.8556 33.523 12.8556 33.698V35.1164H14.8635V33.698C14.8635 33.523 15.0017 33.4401 15.2135 33.4401C15.4253 33.4401 15.5635 33.523 15.5635 33.698V35.1164H16.0977C16.2635 35.1164 16.3556 35.2453 16.3556 35.4388C16.3556 35.623 16.2635 35.7519 16.0977 35.7519H15.5635V40.9098C15.5635 41.444 15.3148 41.6466 14.7898 41.6466H12.9201C12.4043 41.6466 12.1556 41.444 12.1556 40.9098V35.7519ZM12.8556 38.4966V40.7716C12.8556 40.9559 12.9385 41.0111 13.1227 41.0111H14.5872C14.7714 41.0111 14.8635 40.9559 14.8635 40.7716V38.4966H12.8556ZM14.8635 37.8703V35.7519H12.8556V37.8703H14.8635Z" fill="#FFA518"/>
<path d="M9.40165 36.0559V36.2203H9.56613V36.0559H9.40165ZM9.40165 34.6282H9.56613V34.4232L9.36598 34.4677L9.40165 34.6282ZM8.22271 34.8493V35.0138H8.23528L8.24772 35.0118L8.22271 34.8493ZM7.87271 34.573L8.03693 34.5638L8.03571 34.5418L8.02874 34.521L7.87271 34.573ZM8.1306 34.2138L8.14698 34.3775L8.1529 34.3767L8.1306 34.2138ZM10.9306 33.4493L11.0011 33.5979L11.0119 33.5928L11.0218 33.5861L10.9306 33.4493ZM11.3819 33.6059L11.5347 33.5448L11.5331 33.5411L11.3819 33.6059ZM11.1977 34.0756L11.2621 34.2273L11.2713 34.2227L11.1977 34.0756ZM10.0648 34.4624L10.021 34.3039L9.90034 34.3373V34.4624H10.0648ZM10.0648 36.0559H9.90034V36.2203H10.0648V36.0559ZM10.0648 36.6914V36.5269H9.90034V36.6914H10.0648ZM10.0648 38.1651H9.90034V38.3295H10.0648V38.1651ZM9.40165 38.1651V38.3295H9.56613V38.1651H9.40165ZM9.40165 36.6914H9.56613V36.5269H9.40165V36.6914ZM12.1556 35.7519H12.3201V35.5874H12.1556V35.7519ZM12.1556 35.1164V35.2809H12.3201V35.1164H12.1556ZM12.8556 35.1164H12.6911V35.2809H12.8556V35.1164ZM14.8635 35.1164V35.2809H15.028V35.1164H14.8635ZM15.5635 35.1164H15.399V35.2809H15.5635V35.1164ZM15.5635 35.7519V35.5874H15.399V35.7519H15.5635ZM12.8556 38.4966V38.3322H12.6911V38.4966H12.8556ZM14.8635 38.4966H15.028V38.3322H14.8635V38.4966ZM14.8635 37.8703V38.0348H15.028V37.8703H14.8635ZM14.8635 35.7519H15.028V35.5874H14.8635V35.7519ZM12.8556 35.7519V35.5874H12.6911V35.7519H12.8556ZM12.8556 37.8703H12.6911V38.0348H12.8556V37.8703ZM9.56613 36.0559V34.6282H9.23718V36.0559H9.56613ZM9.36598 34.4677C8.95539 34.5589 8.55371 34.6319 8.1977 34.6867L8.24772 35.0118C8.61012 34.9561 9.01897 34.8818 9.43733 34.7888L9.36598 34.4677ZM8.22271 34.6848C8.22267 34.6848 8.22263 34.6848 8.2226 34.6848C8.22256 34.6848 8.22253 34.6848 8.22249 34.6848C8.22245 34.6848 8.22242 34.6848 8.22238 34.6848C8.22235 34.6848 8.22231 34.6848 8.22227 34.6848C8.22224 34.6848 8.2222 34.6848 8.22216 34.6848C8.22213 34.6848 8.22209 34.6848 8.22206 34.6848C8.22202 34.6848 8.22198 34.6848 8.22195 34.6848C8.22191 34.6848 8.22187 34.6848 8.22184 34.6848C8.2218 34.6848 8.22176 34.6848 8.22173 34.6848C8.22169 34.6848 8.22165 34.6848 8.22162 34.6848C8.22158 34.6848 8.22154 34.6848 8.22151 34.6848C8.22147 34.6848 8.22143 34.6848 8.2214 34.6848C8.22136 34.6848 8.22132 34.6848 8.22129 34.6848C8.22125 34.6848 8.22121 34.6848 8.22118 34.6848C8.22114 34.6848 8.2211 34.6848 8.22106 34.6848C8.22103 34.6848 8.22099 34.6848 8.22095 34.6848C8.22092 34.6848 8.22088 34.6848 8.22084 34.6848C8.22081 34.6848 8.22077 34.6848 8.22073 34.6848C8.22069 34.6848 8.22066 34.6848 8.22062 34.6848C8.22058 34.6848 8.22054 34.6848 8.22051 34.6848C8.22047 34.6848 8.22043 34.6848 8.22039 34.6848C8.22036 34.6848 8.22032 34.6848 8.22028 34.6848C8.22025 34.6848 8.22021 34.6848 8.22017 34.6848C8.22013 34.6848 8.2201 34.6848 8.22006 34.6848C8.22002 34.6848 8.21998 34.6848 8.21994 34.6848C8.21991 34.6848 8.21987 34.6848 8.21983 34.6848C8.21979 34.6848 8.21976 34.6848 8.21972 34.6848C8.21968 34.6848 8.21964 34.6848 8.2196 34.6848C8.21957 34.6848 8.21953 34.6848 8.21949 34.6848C8.21945 34.6848 8.21942 34.6848 8.21938 34.6848C8.21934 34.6848 8.2193 34.6848 8.21926 34.6848C8.21923 34.6848 8.21919 34.6848 8.21915 34.6848C8.21911 34.6848 8.21907 34.6848 8.21904 34.6848C8.219 34.6848 8.21896 34.6848 8.21892 34.6848C8.21888 34.6848 8.21884 34.6848 8.21881 34.6848C8.21877 34.6848 8.21873 34.6848 8.21869 34.6848C8.21865 34.6848 8.21861 34.6848 8.21858 34.6848C8.21854 34.6848 8.2185 34.6848 8.21846 34.6848C8.21842 34.6848 8.21838 34.6848 8.21835 34.6848C8.21831 34.6848 8.21827 34.6848 8.21823 34.6848C8.21819 34.6848 8.21815 34.6848 8.21811 34.6848C8.21808 34.6848 8.21804 34.6848 8.218 34.6848C8.21796 34.6848 8.21792 34.6848 8.21788 34.6848C8.21784 34.6848 8.2178 34.6848 8.21777 34.6848C8.21773 34.6848 8.21769 34.6848 8.21765 34.6848C8.21761 34.6848 8.21757 34.6848 8.21753 34.6848C8.21749 34.6848 8.21745 34.6848 8.21742 34.6848C8.21738 34.6848 8.21734 34.6848 8.2173 34.6848C8.21726 34.6848 8.21722 34.6848 8.21718 34.6848C8.21714 34.6848 8.2171 34.6848 8.21706 34.6848C8.21702 34.6848 8.21699 34.6848 8.21695 34.6848C8.21691 34.6848 8.21687 34.6848 8.21683 34.6848C8.21679 34.6848 8.21675 34.6848 8.21671 34.6848C8.21667 34.6848 8.21663 34.6848 8.21659 34.6848C8.21655 34.6848 8.21651 34.6848 8.21647 34.6848C8.21643 34.6848 8.2164 34.6848 8.21636 34.6848C8.21632 34.6848 8.21628 34.6848 8.21624 34.6848C8.2162 34.6848 8.21616 34.6848 8.21612 34.6848C8.21608 34.6848 8.21604 34.6848 8.216 34.6848C8.21596 34.6848 8.21592 34.6848 8.21588 34.6848C8.21584 34.6848 8.2158 34.6848 8.21576 34.6848C8.21572 34.6848 8.21568 34.6848 8.21564 34.6848C8.2156 34.6848 8.21556 34.6848 8.21552 34.6848C8.21548 34.6848 8.21544 34.6848 8.2154 34.6848C8.21536 34.6848 8.21532 34.6848 8.21528 34.6848C8.21524 34.6848 8.2152 34.6848 8.21516 34.6848C8.21512 34.6848 8.21508 34.6848 8.21504 34.6848C8.215 34.6848 8.21496 34.6848 8.21492 34.6848C8.21488 34.6848 8.21484 34.6848 8.2148 34.6848C8.21476 34.6848 8.21472 34.6848 8.21468 34.6848C8.21464 34.6848 8.2146 34.6848 8.21456 34.6848C8.21452 34.6848 8.21448 34.6848 8.21444 34.6848C8.2144 34.6848 8.21436 34.6848 8.21432 34.6848C8.21428 34.6848 8.21424 34.6848 8.2142 34.6848C8.21416 34.6848 8.21412 34.6848 8.21408 34.6848C8.21404 34.6848 8.214 34.6848 8.21396 34.6848C8.21391 34.6848 8.21387 34.6848 8.21383 34.6848C8.21379 34.6848 8.21375 34.6848 8.21371 34.6848C8.21367 34.6848 8.21363 34.6848 8.21359 34.6848C8.21355 34.6848 8.21351 34.6848 8.21347 34.6848C8.21343 34.6848 8.21339 34.6848 8.21335 34.6848C8.2133 34.6848 8.21326 34.6848 8.21322 34.6848C8.21318 34.6848 8.21314 34.6848 8.2131 34.6848C8.21306 34.6848 8.21302 34.6848 8.21298 34.6848C8.21294 34.6848 8.2129 34.6848 8.21285 34.6848C8.21281 34.6848 8.21277 34.6848 8.21273 34.6848C8.21269 34.6848 8.21265 34.6848 8.21261 34.6848C8.21257 34.6848 8.21253 34.6848 8.21249 34.6848C8.21244 34.6848 8.2124 34.6848 8.21236 34.6848C8.21232 34.6848 8.21228 34.6848 8.21224 34.6848C8.2122 34.6848 8.21216 34.6848 8.21212 34.6848C8.21207 34.6848 8.21203 34.6848 8.21199 34.6848C8.21195 34.6848 8.21191 34.6848 8.21187 34.6848C8.21183 34.6848 8.21178 34.6848 8.21174 34.6848C8.2117 34.6848 8.21166 34.6848 8.21162 34.6848C8.21158 34.6848 8.21154 34.6848 8.2115 34.6848C8.21145 34.6848 8.21141 34.6848 8.21137 34.6848C8.21133 34.6848 8.21129 34.6848 8.21125 34.6848C8.2112 34.6848 8.21116 34.6848 8.21112 34.6848C8.21108 34.6848 8.21104 34.6848 8.211 34.6848C8.21095 34.6848 8.21091 34.6848 8.21087 34.6848C8.21083 34.6848 8.21079 34.6848 8.21075 34.6848C8.2107 34.6848 8.21066 34.6848 8.21062 34.6848C8.21058 34.6848 8.21054 34.6848 8.2105 34.6848C8.21045 34.6848 8.21041 34.6848 8.21037 34.6848C8.21033 34.6848 8.21029 34.6848 8.21024 34.6848C8.2102 34.6848 8.21016 34.6848 8.21012 34.6848C8.21008 34.6848 8.21004 34.6848 8.20999 34.6848C8.20995 34.6848 8.20991 34.6848 8.20987 34.6848C8.20983 34.6848 8.20978 34.6848 8.20974 34.6848C8.2097 34.6848 8.20966 34.6848 8.20961 34.6848C8.20957 34.6848 8.20953 34.6848 8.20949 34.6848C8.20945 34.6848 8.2094 34.6848 8.20936 34.6848C8.20932 34.6848 8.20928 34.6848 8.20924 34.6848C8.20919 34.6848 8.20915 34.6848 8.20911 34.6848C8.20907 34.6848 8.20902 34.6848 8.20898 34.6848C8.20894 34.6848 8.2089 34.6848 8.20886 34.6848C8.20881 34.6848 8.20877 34.6848 8.20873 34.6848C8.20869 34.6848 8.20864 34.6848 8.2086 34.6848C8.20856 34.6848 8.20852 34.6848 8.20847 34.6848C8.20843 34.6848 8.20839 34.6848 8.20835 34.6848C8.2083 34.6848 8.20826 34.6848 8.20822 34.6848C8.20818 34.6848 8.20813 34.6848 8.20809 34.6848C8.20805 34.6848 8.20801 34.6848 8.20796 34.6848C8.20792 34.6848 8.20788 34.6848 8.20784 34.6848C8.20779 34.6848 8.20775 34.6848 8.20771 34.6848C8.20767 34.6848 8.20762 34.6848 8.20758 34.6848C8.20754 34.6848 8.20749 34.6848 8.20745 34.6848C8.20741 34.6848 8.20737 34.6848 8.20732 34.6848C8.20728 34.6848 8.20724 34.6848 8.2072 34.6848C8.20715 34.6848 8.20711 34.6848 8.20707 34.6848C8.20702 34.6848 8.20698 34.6848 8.20694 34.6848C8.2069 34.6848 8.20685 34.6848 8.20681 34.6848C8.20677 34.6848 8.20672 34.6848 8.20668 34.6848C8.20664 34.6848 8.2066 34.6848 8.20655 34.6848C8.20651 34.6848 8.20647 34.6848 8.20642 34.6848C8.20638 34.6848 8.20634 34.6848 8.20629 34.6848C8.20625 34.6848 8.20621 34.6848 8.20617 34.6848C8.20612 34.6848 8.20608 34.6848 8.20604 34.6848C8.20599 34.6848 8.20595 34.6848 8.20591 34.6848C8.20586 34.6848 8.20582 34.6848 8.20578 34.6848C8.20573 34.6848 8.20569 34.6848 8.20565 34.6848C8.2056 34.6848 8.20556 34.6848 8.20552 34.6848C8.20547 34.6848 8.20543 34.6848 8.20539 34.6848C8.20534 34.6848 8.2053 34.6848 8.20526 34.6848C8.20522 34.6848 8.20517 34.6848 8.20513 34.6848C8.20509 34.6848 8.20504 34.6848 8.205 34.6848C8.20496 34.6848 8.20491 34.6848 8.20487 34.6848C8.20483 34.6848 8.20478 34.6848 8.20474 34.6848C8.20469 34.6848 8.20465 34.6848 8.20461 34.6848C8.20456 34.6848 8.20452 34.6848 8.20448 34.6848C8.20443 34.6848 8.20439 34.6848 8.20435 34.6848C8.2043 34.6848 8.20426 34.6848 8.20422 34.6848C8.20417 34.6848 8.20413 34.6848 8.20409 34.6848C8.20404 34.6848 8.204 34.6848 8.20396 34.6848C8.20391 34.6848 8.20387 34.6848 8.20382 34.6848C8.20378 34.6848 8.20374 34.6848 8.20369 34.6848C8.20365 34.6848 8.20361 34.6848 8.20356 34.6848C8.20352 34.6848 8.20348 34.6848 8.20343 34.6848C8.20339 34.6848 8.20334 34.6848 8.2033 34.6848C8.20326 34.6848 8.20321 34.6848 8.20317 34.6848C8.20313 34.6848 8.20308 34.6848 8.20304 34.6848C8.20299 34.6848 8.20295 34.6848 8.20291 34.6848C8.20286 34.6848 8.20282 34.6848 8.20278 34.6848C8.20273 34.6848 8.20269 34.6848 8.20264 34.6848C8.2026 34.6848 8.20256 34.6848 8.20251 34.6848C8.20247 34.6848 8.20243 34.6848 8.20238 34.6848C8.20234 34.6848 8.20229 34.6848 8.20225 34.6848C8.20221 34.6848 8.20216 34.6848 8.20212 34.6848C8.20207 34.6848 8.20203 34.6848 8.20199 34.6848C8.20194 34.6848 8.2019 34.6848 8.20185 34.6848C8.20181 34.6848 8.20177 34.6848 8.20172 34.6848C8.20168 34.6848 8.20163 34.6848 8.20159 34.6848C8.20155 34.6848 8.2015 34.6848 8.20146 34.6848C8.20141 34.6848 8.20137 34.6848 8.20133 34.6848C8.20128 34.6848 8.20124 34.6848 8.20119 34.6848C8.20115 34.6848 8.20111 34.6848 8.20106 34.6848C8.20102 34.6848 8.20097 34.6848 8.20093 34.6848C8.20088 34.6848 8.20084 34.6848 8.2008 34.6848C8.20075 34.6848 8.20071 34.6848 8.20066 34.6848C8.20062 34.6848 8.20058 34.6848 8.20053 34.6848C8.20049 34.6848 8.20044 34.6848 8.2004 34.6848C8.20035 34.6848 8.20031 34.6848 8.20027 34.6848C8.20022 34.6848 8.20018 34.6848 8.20013 34.6848C8.20009 34.6848 8.20004 34.6848 8.2 34.6848C8.19996 34.6848 8.19991 34.6848 8.19987 34.6848C8.19982 34.6848 8.19978 34.6848 8.19973 34.6848C8.19969 34.6848 8.19965 34.6848 8.1996 34.6848C8.19956 34.6848 8.19951 34.6848 8.19947 34.6848C8.19942 34.6848 8.19938 34.6848 8.19934 34.6848C8.19929 34.6848 8.19925 34.6848 8.1992 34.6848C8.19916 34.6848 8.19911 34.6848 8.19907 34.6848C8.19902 34.6848 8.19898 34.6848 8.19894 34.6848C8.19889 34.6848 8.19885 34.6848 8.1988 34.6848C8.19876 34.6848 8.19871 34.6848 8.19867 34.6848C8.19862 34.6848 8.19858 34.6848 8.19854 34.6848C8.19849 34.6848 8.19845 34.6848 8.1984 34.6848C8.19836 34.6848 8.19831 34.6848 8.19827 34.6848C8.19822 34.6848 8.19818 34.6848 8.19814 34.6848C8.19809 34.6848 8.19805 34.6848 8.198 34.6848C8.19796 34.6848 8.19791 34.6848 8.19787 34.6848C8.19782 34.6848 8.19778 34.6848 8.19773 34.6848C8.19769 34.6848 8.19764 34.6848 8.1976 34.6848C8.19756 34.6848 8.19751 34.6848 8.19747 34.6848C8.19742 34.6848 8.19738 34.6848 8.19733 34.6848C8.19729 34.6848 8.19724 34.6848 8.1972 34.6848C8.19715 34.6848 8.19711 34.6848 8.19706 34.6848C8.19702 34.6848 8.19698 34.6848 8.19693 34.6848C8.19689 34.6848 8.19684 34.6848 8.1968 34.6848C8.19675 34.6848 8.19671 34.6848 8.19666 34.6848C8.19662 34.6848 8.19657 34.6848 8.19653 34.6848C8.19648 34.6848 8.19644 34.6848 8.19639 34.6848C8.19635 34.6848 8.19631 34.6848 8.19626 34.6848C8.19622 34.6848 8.19617 34.6848 8.19613 34.6848C8.19608 34.6848 8.19604 34.6848 8.19599 34.6848C8.19595 34.6848 8.1959 34.6848 8.19586 34.6848C8.19581 34.6848 8.19577 34.6848 8.19572 34.6848C8.19568 34.6848 8.19563 34.6848 8.19559 34.6848C8.19554 34.6848 8.1955 34.6848 8.19546 34.6848C8.19541 34.6848 8.19537 34.6848 8.19532 34.6848C8.19528 34.6848 8.19523 34.6848 8.19519 34.6848C8.19514 34.6848 8.1951 34.6848 8.19505 34.6848C8.19501 34.6848 8.19496 34.6848 8.19492 34.6848C8.19487 34.6848 8.19483 34.6848 8.19478 34.6848C8.19474 34.6848 8.19469 34.6848 8.19465 34.6848C8.1946 34.6848 8.19456 34.6848 8.19451 34.6848C8.19447 34.6848 8.19442 34.6848 8.19438 34.6848C8.19433 34.6848 8.19429 34.6848 8.19424 34.6848C8.1942 34.6848 8.19415 34.6848 8.19411 34.6848C8.19407 34.6848 8.19402 34.6848 8.19398 34.6848C8.19393 34.6848 8.19389 34.6848 8.19384 34.6848C8.1938 34.6848 8.19375 34.6848 8.19371 34.6848C8.19366 34.6848 8.19362 34.6848 8.19357 34.6848C8.19353 34.6848 8.19348 34.6848 8.19344 34.6848C8.19339 34.6848 8.19335 34.6848 8.1933 34.6848C8.19326 34.6848 8.19321 34.6848 8.19317 34.6848C8.19312 34.6848 8.19308 34.6848 8.19303 34.6848C8.19299 34.6848 8.19294 34.6848 8.1929 34.6848C8.19285 34.6848 8.19281 34.6848 8.19276 34.6848C8.19272 34.6848 8.19267 34.6848 8.19263 34.6848C8.19258 34.6848 8.19254 34.6848 8.19249 34.6848C8.19245 34.6848 8.1924 34.6848 8.19236 34.6848C8.19231 34.6848 8.19227 34.6848 8.19222 34.6848C8.19218 34.6848 8.19213 34.6848 8.19209 34.6848C8.19204 34.6848 8.192 34.6848 8.19195 34.6848C8.19191 34.6848 8.19186 34.6848 8.19182 34.6848C8.19177 34.6848 8.19173 34.6848 8.19168 34.6848C8.19164 34.6848 8.19159 34.6848 8.19155 34.6848C8.1915 34.6848 8.19146 34.6848 8.19141 34.6848C8.19137 34.6848 8.19132 34.6848 8.19128 34.6848C8.19123 34.6848 8.19119 34.6848 8.19114 34.6848C8.1911 34.6848 8.19105 34.6848 8.19101 34.6848C8.19096 34.6848 8.19092 34.6848 8.19087 34.6848C8.19083 34.6848 8.19078 34.6848 8.19074 34.6848C8.19069 34.6848 8.19065 34.6848 8.1906 34.6848C8.19056 34.6848 8.19051 34.6848 8.19047 34.6848C8.19043 34.6848 8.19038 34.6848 8.19034 34.6848C8.19029 34.6848 8.19025 34.6848 8.1902 34.6848C8.19016 34.6848 8.19011 34.6848 8.19007 34.6848C8.19002 34.6848 8.18998 34.6848 8.18993 34.6848C8.18989 34.6848 8.18984 34.6848 8.1898 34.6848C8.18975 34.6848 8.18971 34.6848 8.18966 34.6848C8.18962 34.6848 8.18957 34.6848 8.18953 34.6848C8.18948 34.6848 8.18944 34.6848 8.18939 34.6848C8.18935 34.6848 8.1893 34.6848 8.18926 34.6848C8.18921 34.6848 8.18917 34.6848 8.18912 34.6848C8.18908 34.6848 8.18903 34.6848 8.18899 34.6848C8.18894 34.6848 8.1889 34.6848 8.18885 34.6848C8.18881 34.6848 8.18876 34.6848 8.18872 34.6848C8.18867 34.6848 8.18863 34.6848 8.18858 34.6848C8.18854 34.6848 8.18849 34.6848 8.18845 34.6848C8.1884 34.6848 8.18836 34.6848 8.18831 34.6848C8.18827 34.6848 8.18822 34.6848 8.18818 34.6848C8.18813 34.6848 8.18809 34.6848 8.18804 34.6848C8.188 34.6848 8.18795 34.6848 8.18791 34.6848C8.18786 34.6848 8.18782 34.6848 8.18777 34.6848C8.18773 34.6848 8.18768 34.6848 8.18764 34.6848C8.18759 34.6848 8.18755 34.6848 8.1875 34.6848C8.18746 34.6848 8.18741 34.6848 8.18737 34.6848C8.18732 34.6848 8.18728 34.6848 8.18723 34.6848C8.18719 34.6848 8.18714 34.6848 8.1871 34.6848C8.18705 34.6848 8.18701 34.6848 8.18696 34.6848C8.18692 34.6848 8.18687 34.6848 8.18683 34.6848C8.18678 34.6848 8.18674 34.6848 8.1867 34.6848C8.18665 34.6848 8.18661 34.6848 8.18656 34.6848C8.18652 34.6848 8.18647 34.6848 8.18643 34.6848C8.18638 34.6848 8.18634 34.6848 8.18629 34.6848C8.18625 34.6848 8.1862 34.6848 8.18616 34.6848C8.18611 34.6848 8.18607 34.6848 8.18602 34.6848C8.18598 34.6848 8.18593 34.6848 8.18589 34.6848C8.18584 34.6848 8.1858 34.6848 8.18575 34.6848C8.18571 34.6848 8.18566 34.6848 8.18562 34.6848C8.18557 34.6848 8.18553 34.6848 8.18548 34.6848C8.18544 34.6848 8.1854 34.6848 8.18535 34.6848C8.18531 34.6848 8.18526 34.6848 8.18522 34.6848C8.18517 34.6848 8.18513 34.6848 8.18508 34.6848C8.18504 34.6848 8.18499 34.6848 8.18495 34.6848C8.1849 34.6848 8.18486 34.6848 8.18481 34.6848C8.18477 34.6848 8.18472 34.6848 8.18468 34.6848C8.18463 34.6848 8.18459 34.6848 8.18455 34.6848C8.1845 34.6848 8.18446 34.6848 8.18441 34.6848C8.18437 34.6848 8.18432 34.6848 8.18428 34.6848C8.18423 34.6848 8.18419 34.6848 8.18414 34.6848C8.1841 34.6848 8.18405 34.6848 8.18401 34.6848C8.18396 34.6848 8.18392 34.6848 8.18388 34.6848C8.18383 34.6848 8.18379 34.6848 8.18374 34.6848C8.1837 34.6848 8.18365 34.6848 8.18361 34.6848C8.18356 34.6848 8.18352 34.6848 8.18347 34.6848C8.18343 34.6848 8.18338 34.6848 8.18334 34.6848C8.1833 34.6848 8.18325 34.6848 8.18321 34.6848C8.18316 34.6848 8.18312 34.6848 8.18307 34.6848C8.18303 34.6848 8.18298 34.6848 8.18294 34.6848C8.18289 34.6848 8.18285 34.6848 8.1828 34.6848C8.18276 34.6848 8.18272 34.6848 8.18267 34.6848C8.18263 34.6848 8.18258 34.6848 8.18254 34.6848C8.18249 34.6848 8.18245 34.6848 8.1824 34.6848C8.18236 34.6848 8.18232 34.6848 8.18227 34.6848C8.18223 34.6848 8.18218 34.6848 8.18214 34.6848C8.18209 34.6848 8.18205 34.6848 8.182 34.6848C8.18196 34.6848 8.18192 34.6848 8.18187 34.6848C8.18183 34.6848 8.18178 34.6848 8.18174 34.6848C8.18169 34.6848 8.18165 34.6848 8.1816 34.6848C8.18156 34.6848 8.18152 34.6848 8.18147 34.6848C8.18143 34.6848 8.18138 34.6848 8.18134 34.6848C8.18129 34.6848 8.18125 34.6848 8.18121 34.6848C8.18116 34.6848 8.18112 34.6848 8.18107 34.6848C8.18103 34.6848 8.18098 34.6848 8.18094 34.6848C8.1809 34.6848 8.18085 34.6848 8.18081 34.6848C8.18076 34.6848 8.18072 34.6848 8.18067 34.6848C8.18063 34.6848 8.18059 34.6848 8.18054 34.6848C8.1805 34.6848 8.18045 34.6848 8.18041 34.6848C8.18036 34.6848 8.18032 34.6848 8.18028 34.6848C8.18023 34.6848 8.18019 34.6848 8.18014 34.6848C8.1801 34.6848 8.18006 34.6848 8.18001 34.6848C8.17997 34.6848 8.17992 34.6848 8.17988 34.6848C8.17983 34.6848 8.17979 34.6848 8.17975 34.6848C8.1797 34.6848 8.17966 34.6848 8.17961 34.6848C8.17957 34.6848 8.17953 34.6848 8.17948 34.6848C8.17944 34.6848 8.17939 34.6848 8.17935 34.6848C8.17931 34.6848 8.17926 34.6848 8.17922 34.6848C8.17917 34.6848 8.17913 34.6848 8.17909 34.6848C8.17904 34.6848 8.179 34.6848 8.17895 34.6848C8.17891 34.6848 8.17887 34.6848 8.17882 34.6848C8.17878 34.6848 8.17873 34.6848 8.17869 34.6848C8.17865 34.6848 8.1786 34.6848 8.17856 34.6848C8.17851 34.6848 8.17847 34.6848 8.17843 34.6848C8.17838 34.6848 8.17834 34.6848 8.1783 34.6848C8.17825 34.6848 8.17821 34.6848 8.17816 34.6848C8.17812 34.6848 8.17808 34.6848 8.17803 34.6848C8.17799 34.6848 8.17795 34.6848 8.1779 34.6848C8.17786 34.6848 8.17781 34.6848 8.17777 34.6848C8.17773 34.6848 8.17768 34.6848 8.17764 34.6848C8.1776 34.6848 8.17755 34.6848 8.17751 34.6848C8.17746 34.6848 8.17742 34.6848 8.17738 34.6848C8.17733 34.6848 8.17729 34.6848 8.17725 34.6848C8.1772 34.6848 8.17716 34.6848 8.17712 34.6848C8.17707 34.6848 8.17703 34.6848 8.17698 34.6848C8.17694 34.6848 8.1769 34.6848 8.17685 34.6848C8.17681 34.6848 8.17677 34.6848 8.17672 34.6848C8.17668 34.6848 8.17664 34.6848 8.17659 34.6848C8.17655 34.6848 8.17651 34.6848 8.17646 34.6848C8.17642 34.6848 8.17638 34.6848 8.17633 34.6848C8.17629 34.6848 8.17625 34.6848 8.1762 34.6848C8.17616 34.6848 8.17611 34.6848 8.17607 34.6848C8.17603 34.6848 8.17598 34.6848 8.17594 34.6848C8.1759 34.6848 8.17585 34.6848 8.17581 34.6848C8.17577 34.6848 8.17572 34.6848 8.17568 34.6848C8.17564 34.6848 8.1756 34.6848 8.17555 34.6848C8.17551 34.6848 8.17547 34.6848 8.17542 34.6848C8.17538 34.6848 8.17534 34.6848 8.17529 34.6848C8.17525 34.6848 8.17521 34.6848 8.17516 34.6848C8.17512 34.6848 8.17508 34.6848 8.17503 34.6848C8.17499 34.6848 8.17495 34.6848 8.1749 34.6848C8.17486 34.6848 8.17482 34.6848 8.17477 34.6848C8.17473 34.6848 8.17469 34.6848 8.17465 34.6848C8.1746 34.6848 8.17456 34.6848 8.17452 34.6848C8.17447 34.6848 8.17443 34.6848 8.17439 34.6848C8.17434 34.6848 8.1743 34.6848 8.17426 34.6848C8.17422 34.6848 8.17417 34.6848 8.17413 34.6848C8.17409 34.6848 8.17404 34.6848 8.174 34.6848C8.17396 34.6848 8.17392 34.6848 8.17387 34.6848C8.17383 34.6848 8.17379 34.6848 8.17374 34.6848C8.1737 34.6848 8.17366 34.6848 8.17362 34.6848C8.17357 34.6848 8.17353 34.6848 8.17349 34.6848C8.17345 34.6848 8.1734 34.6848 8.17336 34.6848C8.17332 34.6848 8.17327 34.6848 8.17323 34.6848C8.17319 34.6848 8.17315 34.6848 8.1731 34.6848C8.17306 34.6848 8.17302 34.6848 8.17298 34.6848C8.17293 34.6848 8.17289 34.6848 8.17285 34.6848C8.17281 34.6848 8.17276 34.6848 8.17272 34.6848C8.17268 34.6848 8.17264 34.6848 8.17259 34.6848C8.17255 34.6848 8.17251 34.6848 8.17247 34.6848C8.17242 34.6848 8.17238 34.6848 8.17234 34.6848C8.1723 34.6848 8.17225 34.6848 8.17221 34.6848C8.17217 34.6848 8.17213 34.6848 8.17208 34.6848C8.17204 34.6848 8.172 34.6848 8.17196 34.6848C8.17192 34.6848 8.17187 34.6848 8.17183 34.6848C8.17179 34.6848 8.17175 34.6848 8.1717 34.6848C8.17166 34.6848 8.17162 34.6848 8.17158 34.6848C8.17154 34.6848 8.17149 34.6848 8.17145 34.6848C8.17141 34.6848 8.17137 34.6848 8.17132 34.6848C8.17128 34.6848 8.17124 34.6848 8.1712 34.6848C8.17116 34.6848 8.17111 34.6848 8.17107 34.6848C8.17103 34.6848 8.17099 34.6848 8.17095 34.6848C8.1709 34.6848 8.17086 34.6848 8.17082 34.6848C8.17078 34.6848 8.17074 34.6848 8.1707 34.6848C8.17065 34.6848 8.17061 34.6848 8.17057 34.6848C8.17053 34.6848 8.17049 34.6848 8.17044 34.6848C8.1704 34.6848 8.17036 34.6848 8.17032 34.6848C8.17028 34.6848 8.17024 34.6848 8.17019 34.6848C8.17015 34.6848 8.17011 34.6848 8.17007 34.6848C8.17003 34.6848 8.16999 34.6848 8.16994 34.6848C8.1699 34.6848 8.16986 34.6848 8.16982 34.6848C8.16978 34.6848 8.16974 34.6848 8.16969 34.6848C8.16965 34.6848 8.16961 34.6848 8.16957 34.6848C8.16953 34.6848 8.16949 34.6848 8.16944 34.6848C8.1694 34.6848 8.16936 34.6848 8.16932 34.6848C8.16928 34.6848 8.16924 34.6848 8.1692 34.6848C8.16916 34.6848 8.16911 34.6848 8.16907 34.6848C8.16903 34.6848 8.16899 34.6848 8.16895 34.6848C8.16891 34.6848 8.16887 34.6848 8.16882 34.6848C8.16878 34.6848 8.16874 34.6848 8.1687 34.6848C8.16866 34.6848 8.16862 34.6848 8.16858 34.6848C8.16854 34.6848 8.1685 34.6848 8.16845 34.6848C8.16841 34.6848 8.16837 34.6848 8.16833 34.6848C8.16829 34.6848 8.16825 34.6848 8.16821 34.6848C8.16817 34.6848 8.16813 34.6848 8.16808 34.6848C8.16804 34.6848 8.168 34.6848 8.16796 34.6848C8.16792 34.6848 8.16788 34.6848 8.16784 34.6848C8.1678 34.6848 8.16776 34.6848 8.16772 34.6848C8.16768 34.6848 8.16764 34.6848 8.16759 34.6848C8.16755 34.6848 8.16751 34.6848 8.16747 34.6848C8.16743 34.6848 8.16739 34.6848 8.16735 34.6848C8.16731 34.6848 8.16727 34.6848 8.16723 34.6848C8.16719 34.6848 8.16715 34.6848 8.16711 34.6848C8.16707 34.6848 8.16703 34.6848 8.16698 34.6848C8.16694 34.6848 8.1669 34.6848 8.16686 34.6848C8.16682 34.6848 8.16678 34.6848 8.16674 34.6848C8.1667 34.6848 8.16666 34.6848 8.16662 34.6848C8.16658 34.6848 8.16654 34.6848 8.1665 34.6848C8.16646 34.6848 8.16642 34.6848 8.16638 34.6848C8.16634 34.6848 8.1663 34.6848 8.16626 34.6848C8.16622 34.6848 8.16618 34.6848 8.16614 34.6848C8.1661 34.6848 8.16606 34.6848 8.16602 34.6848C8.16598 34.6848 8.16594 34.6848 8.1659 34.6848C8.16586 34.6848 8.16582 34.6848 8.16578 34.6848C8.16574 34.6848 8.1657 34.6848 8.16566 34.6848C8.16562 34.6848 8.16558 34.6848 8.16554 34.6848C8.1655 34.6848 8.16546 34.6848 8.16542 34.6848C8.16538 34.6848 8.16534 34.6848 8.1653 34.6848C8.16526 34.6848 8.16522 34.6848 8.16518 34.6848C8.16514 34.6848 8.1651 34.6848 8.16506 34.6848C8.16502 34.6848 8.16498 34.6848 8.16494 34.6848C8.1649 34.6848 8.16486 34.6848 8.16482 34.6848C8.16478 34.6848 8.16474 34.6848 8.1647 34.6848C8.16466 34.6848 8.16462 34.6848 8.16458 34.6848C8.16454 34.6848 8.16451 34.6848 8.16447 34.6848C8.16443 34.6848 8.16439 34.6848 8.16435 34.6848C8.16431 34.6848 8.16427 34.6848 8.16423 34.6848C8.16419 34.6848 8.16415 34.6848 8.16411 34.6848C8.16407 34.6848 8.16403 34.6848 8.16399 34.6848C8.16395 34.6848 8.16392 34.6848 8.16388 34.6848C8.16384 34.6848 8.1638 34.6848 8.16376 34.6848C8.16372 34.6848 8.16368 34.6848 8.16364 34.6848C8.1636 34.6848 8.16356 34.6848 8.16352 34.6848C8.16349 34.6848 8.16345 34.6848 8.16341 34.6848C8.16337 34.6848 8.16333 34.6848 8.16329 34.6848C8.16325 34.6848 8.16321 34.6848 8.16317 34.6848C8.16314 34.6848 8.1631 34.6848 8.16306 34.6848C8.16302 34.6848 8.16298 34.6848 8.16294 34.6848C8.1629 34.6848 8.16286 34.6848 8.16283 34.6848C8.16279 34.6848 8.16275 34.6848 8.16271 34.6848C8.16267 34.6848 8.16263 34.6848 8.16259 34.6848C8.16256 34.6848 8.16252 34.6848 8.16248 34.6848C8.16244 34.6848 8.1624 34.6848 8.16236 34.6848C8.16233 34.6848 8.16229 34.6848 8.16225 34.6848C8.16221 34.6848 8.16217 34.6848 8.16213 34.6848C8.1621 34.6848 8.16206 34.6848 8.16202 34.6848C8.16198 34.6848 8.16194 34.6848 8.1619 34.6848C8.16187 34.6848 8.16183 34.6848 8.16179 34.6848C8.16175 34.6848 8.16171 34.6848 8.16168 34.6848C8.16164 34.6848 8.1616 34.6848 8.16156 34.6848C8.16152 34.6848 8.16149 34.6848 8.16145 34.6848C8.16141 34.6848 8.16137 34.6848 8.16133 34.6848C8.1613 34.6848 8.16126 34.6848 8.16122 34.6848C8.16118 34.6848 8.16115 34.6848 8.16111 34.6848C8.16107 34.6848 8.16103 34.6848 8.161 34.6848C8.16096 34.6848 8.16092 34.6848 8.16088 34.6848C8.16084 34.6848 8.16081 34.6848 8.16077 34.6848C8.16073 34.6848 8.16069 34.6848 8.16066 34.6848C8.16062 34.6848 8.16058 34.6848 8.16054 34.6848C8.16051 34.6848 8.16047 34.6848 8.16043 34.6848C8.1604 34.6848 8.16036 34.6848 8.16032 34.6848C8.16028 34.6848 8.16025 34.6848 8.16021 34.6848C8.16017 34.6848 8.16014 34.6848 8.1601 34.6848C8.16006 34.6848 8.16002 34.6848 8.15999 34.6848C8.15995 34.6848 8.15991 34.6848 8.15988 34.6848C8.15984 34.6848 8.1598 34.6848 8.15976 34.6848C8.15973 34.6848 8.15969 34.6848 8.15965 34.6848C8.15962 34.6848 8.15958 34.6848 8.15954 34.6848C8.15951 34.6848 8.15947 34.6848 8.15943 34.6848C8.1594 34.6848 8.15936 34.6848 8.15932 34.6848C8.15929 34.6848 8.15925 34.6848 8.15921 34.6848C8.15918 34.6848 8.15914 34.6848 8.1591 34.6848C8.15907 34.6848 8.15903 34.6848 8.15899 34.6848C8.15896 34.6848 8.15892 34.6848 8.15888 34.6848C8.15885 34.6848 8.15881 34.6848 8.15878 34.6848C8.15874 34.6848 8.1587 34.6848 8.15867 34.6848C8.15863 34.6848 8.15859 34.6848 8.15856 34.6848C8.15852 34.6848 8.15849 34.6848 8.15845 34.6848C8.15841 34.6848 8.15838 34.6848 8.15834 34.6848C8.15831 34.6848 8.15827 34.6848 8.15823 34.6848V35.0138C8.15827 35.0138 8.15831 35.0138 8.15834 35.0138C8.15838 35.0138 8.15841 35.0138 8.15845 35.0138C8.15849 35.0138 8.15852 35.0138 8.15856 35.0138C8.15859 35.0138 8.15863 35.0138 8.15867 35.0138C8.1587 35.0138 8.15874 35.0138 8.15878 35.0138C8.15881 35.0138 8.15885 35.0138 8.15888 35.0138C8.15892 35.0138 8.15896 35.0138 8.15899 35.0138C8.15903 35.0138 8.15907 35.0138 8.1591 35.0138C8.15914 35.0138 8.15918 35.0138 8.15921 35.0138C8.15925 35.0138 8.15929 35.0138 8.15932 35.0138C8.15936 35.0138 8.1594 35.0138 8.15943 35.0138C8.15947 35.0138 8.15951 35.0138 8.15954 35.0138C8.15958 35.0138 8.15962 35.0138 8.15965 35.0138C8.15969 35.0138 8.15973 35.0138 8.15976 35.0138C8.1598 35.0138 8.15984 35.0138 8.15988 35.0138C8.15991 35.0138 8.15995 35.0138 8.15999 35.0138C8.16002 35.0138 8.16006 35.0138 8.1601 35.0138C8.16014 35.0138 8.16017 35.0138 8.16021 35.0138C8.16025 35.0138 8.16028 35.0138 8.16032 35.0138C8.16036 35.0138 8.1604 35.0138 8.16043 35.0138C8.16047 35.0138 8.16051 35.0138 8.16054 35.0138C8.16058 35.0138 8.16062 35.0138 8.16066 35.0138C8.16069 35.0138 8.16073 35.0138 8.16077 35.0138C8.16081 35.0138 8.16084 35.0138 8.16088 35.0138C8.16092 35.0138 8.16096 35.0138 8.161 35.0138C8.16103 35.0138 8.16107 35.0138 8.16111 35.0138C8.16115 35.0138 8.16118 35.0138 8.16122 35.0138C8.16126 35.0138 8.1613 35.0138 8.16133 35.0138C8.16137 35.0138 8.16141 35.0138 8.16145 35.0138C8.16149 35.0138 8.16152 35.0138 8.16156 35.0138C8.1616 35.0138 8.16164 35.0138 8.16168 35.0138C8.16171 35.0138 8.16175 35.0138 8.16179 35.0138C8.16183 35.0138 8.16187 35.0138 8.1619 35.0138C8.16194 35.0138 8.16198 35.0138 8.16202 35.0138C8.16206 35.0138 8.1621 35.0138 8.16213 35.0138C8.16217 35.0138 8.16221 35.0138 8.16225 35.0138C8.16229 35.0138 8.16233 35.0138 8.16236 35.0138C8.1624 35.0138 8.16244 35.0138 8.16248 35.0138C8.16252 35.0138 8.16256 35.0138 8.16259 35.0138C8.16263 35.0138 8.16267 35.0138 8.16271 35.0138C8.16275 35.0138 8.16279 35.0138 8.16283 35.0138C8.16286 35.0138 8.1629 35.0138 8.16294 35.0138C8.16298 35.0138 8.16302 35.0138 8.16306 35.0138C8.1631 35.0138 8.16314 35.0138 8.16317 35.0138C8.16321 35.0138 8.16325 35.0138 8.16329 35.0138C8.16333 35.0138 8.16337 35.0138 8.16341 35.0138C8.16345 35.0138 8.16349 35.0138 8.16352 35.0138C8.16356 35.0138 8.1636 35.0138 8.16364 35.0138C8.16368 35.0138 8.16372 35.0138 8.16376 35.0138C8.1638 35.0138 8.16384 35.0138 8.16388 35.0138C8.16392 35.0138 8.16395 35.0138 8.16399 35.0138C8.16403 35.0138 8.16407 35.0138 8.16411 35.0138C8.16415 35.0138 8.16419 35.0138 8.16423 35.0138C8.16427 35.0138 8.16431 35.0138 8.16435 35.0138C8.16439 35.0138 8.16443 35.0138 8.16447 35.0138C8.16451 35.0138 8.16454 35.0138 8.16458 35.0138C8.16462 35.0138 8.16466 35.0138 8.1647 35.0138C8.16474 35.0138 8.16478 35.0138 8.16482 35.0138C8.16486 35.0138 8.1649 35.0138 8.16494 35.0138C8.16498 35.0138 8.16502 35.0138 8.16506 35.0138C8.1651 35.0138 8.16514 35.0138 8.16518 35.0138C8.16522 35.0138 8.16526 35.0138 8.1653 35.0138C8.16534 35.0138 8.16538 35.0138 8.16542 35.0138C8.16546 35.0138 8.1655 35.0138 8.16554 35.0138C8.16558 35.0138 8.16562 35.0138 8.16566 35.0138C8.1657 35.0138 8.16574 35.0138 8.16578 35.0138C8.16582 35.0138 8.16586 35.0138 8.1659 35.0138C8.16594 35.0138 8.16598 35.0138 8.16602 35.0138C8.16606 35.0138 8.1661 35.0138 8.16614 35.0138C8.16618 35.0138 8.16622 35.0138 8.16626 35.0138C8.1663 35.0138 8.16634 35.0138 8.16638 35.0138C8.16642 35.0138 8.16646 35.0138 8.1665 35.0138C8.16654 35.0138 8.16658 35.0138 8.16662 35.0138C8.16666 35.0138 8.1667 35.0138 8.16674 35.0138C8.16678 35.0138 8.16682 35.0138 8.16686 35.0138C8.1669 35.0138 8.16694 35.0138 8.16698 35.0138C8.16703 35.0138 8.16707 35.0138 8.16711 35.0138C8.16715 35.0138 8.16719 35.0138 8.16723 35.0138C8.16727 35.0138 8.16731 35.0138 8.16735 35.0138C8.16739 35.0138 8.16743 35.0138 8.16747 35.0138C8.16751 35.0138 8.16755 35.0138 8.16759 35.0138C8.16764 35.0138 8.16768 35.0138 8.16772 35.0138C8.16776 35.0138 8.1678 35.0138 8.16784 35.0138C8.16788 35.0138 8.16792 35.0138 8.16796 35.0138C8.168 35.0138 8.16804 35.0138 8.16808 35.0138C8.16813 35.0138 8.16817 35.0138 8.16821 35.0138C8.16825 35.0138 8.16829 35.0138 8.16833 35.0138C8.16837 35.0138 8.16841 35.0138 8.16845 35.0138C8.1685 35.0138 8.16854 35.0138 8.16858 35.0138C8.16862 35.0138 8.16866 35.0138 8.1687 35.0138C8.16874 35.0138 8.16878 35.0138 8.16882 35.0138C8.16887 35.0138 8.16891 35.0138 8.16895 35.0138C8.16899 35.0138 8.16903 35.0138 8.16907 35.0138C8.16911 35.0138 8.16916 35.0138 8.1692 35.0138C8.16924 35.0138 8.16928 35.0138 8.16932 35.0138C8.16936 35.0138 8.1694 35.0138 8.16944 35.0138C8.16949 35.0138 8.16953 35.0138 8.16957 35.0138C8.16961 35.0138 8.16965 35.0138 8.16969 35.0138C8.16974 35.0138 8.16978 35.0138 8.16982 35.0138C8.16986 35.0138 8.1699 35.0138 8.16994 35.0138C8.16999 35.0138 8.17003 35.0138 8.17007 35.0138C8.17011 35.0138 8.17015 35.0138 8.17019 35.0138C8.17024 35.0138 8.17028 35.0138 8.17032 35.0138C8.17036 35.0138 8.1704 35.0138 8.17044 35.0138C8.17049 35.0138 8.17053 35.0138 8.17057 35.0138C8.17061 35.0138 8.17065 35.0138 8.1707 35.0138C8.17074 35.0138 8.17078 35.0138 8.17082 35.0138C8.17086 35.0138 8.1709 35.0138 8.17095 35.0138C8.17099 35.0138 8.17103 35.0138 8.17107 35.0138C8.17111 35.0138 8.17116 35.0138 8.1712 35.0138C8.17124 35.0138 8.17128 35.0138 8.17132 35.0138C8.17137 35.0138 8.17141 35.0138 8.17145 35.0138C8.17149 35.0138 8.17154 35.0138 8.17158 35.0138C8.17162 35.0138 8.17166 35.0138 8.1717 35.0138C8.17175 35.0138 8.17179 35.0138 8.17183 35.0138C8.17187 35.0138 8.17192 35.0138 8.17196 35.0138C8.172 35.0138 8.17204 35.0138 8.17208 35.0138C8.17213 35.0138 8.17217 35.0138 8.17221 35.0138C8.17225 35.0138 8.1723 35.0138 8.17234 35.0138C8.17238 35.0138 8.17242 35.0138 8.17247 35.0138C8.17251 35.0138 8.17255 35.0138 8.17259 35.0138C8.17264 35.0138 8.17268 35.0138 8.17272 35.0138C8.17276 35.0138 8.17281 35.0138 8.17285 35.0138C8.17289 35.0138 8.17293 35.0138 8.17298 35.0138C8.17302 35.0138 8.17306 35.0138 8.1731 35.0138C8.17315 35.0138 8.17319 35.0138 8.17323 35.0138C8.17327 35.0138 8.17332 35.0138 8.17336 35.0138C8.1734 35.0138 8.17345 35.0138 8.17349 35.0138C8.17353 35.0138 8.17357 35.0138 8.17362 35.0138C8.17366 35.0138 8.1737 35.0138 8.17374 35.0138C8.17379 35.0138 8.17383 35.0138 8.17387 35.0138C8.17392 35.0138 8.17396 35.0138 8.174 35.0138C8.17404 35.0138 8.17409 35.0138 8.17413 35.0138C8.17417 35.0138 8.17422 35.0138 8.17426 35.0138C8.1743 35.0138 8.17434 35.0138 8.17439 35.0138C8.17443 35.0138 8.17447 35.0138 8.17452 35.0138C8.17456 35.0138 8.1746 35.0138 8.17465 35.0138C8.17469 35.0138 8.17473 35.0138 8.17477 35.0138C8.17482 35.0138 8.17486 35.0138 8.1749 35.0138C8.17495 35.0138 8.17499 35.0138 8.17503 35.0138C8.17508 35.0138 8.17512 35.0138 8.17516 35.0138C8.17521 35.0138 8.17525 35.0138 8.17529 35.0138C8.17534 35.0138 8.17538 35.0138 8.17542 35.0138C8.17547 35.0138 8.17551 35.0138 8.17555 35.0138C8.1756 35.0138 8.17564 35.0138 8.17568 35.0138C8.17572 35.0138 8.17577 35.0138 8.17581 35.0138C8.17585 35.0138 8.1759 35.0138 8.17594 35.0138C8.17598 35.0138 8.17603 35.0138 8.17607 35.0138C8.17611 35.0138 8.17616 35.0138 8.1762 35.0138C8.17625 35.0138 8.17629 35.0138 8.17633 35.0138C8.17638 35.0138 8.17642 35.0138 8.17646 35.0138C8.17651 35.0138 8.17655 35.0138 8.17659 35.0138C8.17664 35.0138 8.17668 35.0138 8.17672 35.0138C8.17677 35.0138 8.17681 35.0138 8.17685 35.0138C8.1769 35.0138 8.17694 35.0138 8.17698 35.0138C8.17703 35.0138 8.17707 35.0138 8.17712 35.0138C8.17716 35.0138 8.1772 35.0138 8.17725 35.0138C8.17729 35.0138 8.17733 35.0138 8.17738 35.0138C8.17742 35.0138 8.17746 35.0138 8.17751 35.0138C8.17755 35.0138 8.1776 35.0138 8.17764 35.0138C8.17768 35.0138 8.17773 35.0138 8.17777 35.0138C8.17781 35.0138 8.17786 35.0138 8.1779 35.0138C8.17795 35.0138 8.17799 35.0138 8.17803 35.0138C8.17808 35.0138 8.17812 35.0138 8.17816 35.0138C8.17821 35.0138 8.17825 35.0138 8.1783 35.0138C8.17834 35.0138 8.17838 35.0138 8.17843 35.0138C8.17847 35.0138 8.17851 35.0138 8.17856 35.0138C8.1786 35.0138 8.17865 35.0138 8.17869 35.0138C8.17873 35.0138 8.17878 35.0138 8.17882 35.0138C8.17887 35.0138 8.17891 35.0138 8.17895 35.0138C8.179 35.0138 8.17904 35.0138 8.17909 35.0138C8.17913 35.0138 8.17917 35.0138 8.17922 35.0138C8.17926 35.0138 8.17931 35.0138 8.17935 35.0138C8.17939 35.0138 8.17944 35.0138 8.17948 35.0138C8.17953 35.0138 8.17957 35.0138 8.17961 35.0138C8.17966 35.0138 8.1797 35.0138 8.17975 35.0138C8.17979 35.0138 8.17983 35.0138 8.17988 35.0138C8.17992 35.0138 8.17997 35.0138 8.18001 35.0138C8.18006 35.0138 8.1801 35.0138 8.18014 35.0138C8.18019 35.0138 8.18023 35.0138 8.18028 35.0138C8.18032 35.0138 8.18036 35.0138 8.18041 35.0138C8.18045 35.0138 8.1805 35.0138 8.18054 35.0138C8.18059 35.0138 8.18063 35.0138 8.18067 35.0138C8.18072 35.0138 8.18076 35.0138 8.18081 35.0138C8.18085 35.0138 8.1809 35.0138 8.18094 35.0138C8.18098 35.0138 8.18103 35.0138 8.18107 35.0138C8.18112 35.0138 8.18116 35.0138 8.18121 35.0138C8.18125 35.0138 8.18129 35.0138 8.18134 35.0138C8.18138 35.0138 8.18143 35.0138 8.18147 35.0138C8.18152 35.0138 8.18156 35.0138 8.1816 35.0138C8.18165 35.0138 8.18169 35.0138 8.18174 35.0138C8.18178 35.0138 8.18183 35.0138 8.18187 35.0138C8.18192 35.0138 8.18196 35.0138 8.182 35.0138C8.18205 35.0138 8.18209 35.0138 8.18214 35.0138C8.18218 35.0138 8.18223 35.0138 8.18227 35.0138C8.18232 35.0138 8.18236 35.0138 8.1824 35.0138C8.18245 35.0138 8.18249 35.0138 8.18254 35.0138C8.18258 35.0138 8.18263 35.0138 8.18267 35.0138C8.18272 35.0138 8.18276 35.0138 8.1828 35.0138C8.18285 35.0138 8.18289 35.0138 8.18294 35.0138C8.18298 35.0138 8.18303 35.0138 8.18307 35.0138C8.18312 35.0138 8.18316 35.0138 8.18321 35.0138C8.18325 35.0138 8.1833 35.0138 8.18334 35.0138C8.18338 35.0138 8.18343 35.0138 8.18347 35.0138C8.18352 35.0138 8.18356 35.0138 8.18361 35.0138C8.18365 35.0138 8.1837 35.0138 8.18374 35.0138C8.18379 35.0138 8.18383 35.0138 8.18388 35.0138C8.18392 35.0138 8.18396 35.0138 8.18401 35.0138C8.18405 35.0138 8.1841 35.0138 8.18414 35.0138C8.18419 35.0138 8.18423 35.0138 8.18428 35.0138C8.18432 35.0138 8.18437 35.0138 8.18441 35.0138C8.18446 35.0138 8.1845 35.0138 8.18455 35.0138C8.18459 35.0138 8.18463 35.0138 8.18468 35.0138C8.18472 35.0138 8.18477 35.0138 8.18481 35.0138C8.18486 35.0138 8.1849 35.0138 8.18495 35.0138C8.18499 35.0138 8.18504 35.0138 8.18508 35.0138C8.18513 35.0138 8.18517 35.0138 8.18522 35.0138C8.18526 35.0138 8.18531 35.0138 8.18535 35.0138C8.1854 35.0138 8.18544 35.0138 8.18548 35.0138C8.18553 35.0138 8.18557 35.0138 8.18562 35.0138C8.18566 35.0138 8.18571 35.0138 8.18575 35.0138C8.1858 35.0138 8.18584 35.0138 8.18589 35.0138C8.18593 35.0138 8.18598 35.0138 8.18602 35.0138C8.18607 35.0138 8.18611 35.0138 8.18616 35.0138C8.1862 35.0138 8.18625 35.0138 8.18629 35.0138C8.18634 35.0138 8.18638 35.0138 8.18643 35.0138C8.18647 35.0138 8.18652 35.0138 8.18656 35.0138C8.18661 35.0138 8.18665 35.0138 8.1867 35.0138C8.18674 35.0138 8.18678 35.0138 8.18683 35.0138C8.18687 35.0138 8.18692 35.0138 8.18696 35.0138C8.18701 35.0138 8.18705 35.0138 8.1871 35.0138C8.18714 35.0138 8.18719 35.0138 8.18723 35.0138C8.18728 35.0138 8.18732 35.0138 8.18737 35.0138C8.18741 35.0138 8.18746 35.0138 8.1875 35.0138C8.18755 35.0138 8.18759 35.0138 8.18764 35.0138C8.18768 35.0138 8.18773 35.0138 8.18777 35.0138C8.18782 35.0138 8.18786 35.0138 8.18791 35.0138C8.18795 35.0138 8.188 35.0138 8.18804 35.0138C8.18809 35.0138 8.18813 35.0138 8.18818 35.0138C8.18822 35.0138 8.18827 35.0138 8.18831 35.0138C8.18836 35.0138 8.1884 35.0138 8.18845 35.0138C8.18849 35.0138 8.18854 35.0138 8.18858 35.0138C8.18863 35.0138 8.18867 35.0138 8.18872 35.0138C8.18876 35.0138 8.18881 35.0138 8.18885 35.0138C8.1889 35.0138 8.18894 35.0138 8.18899 35.0138C8.18903 35.0138 8.18908 35.0138 8.18912 35.0138C8.18917 35.0138 8.18921 35.0138 8.18926 35.0138C8.1893 35.0138 8.18935 35.0138 8.18939 35.0138C8.18944 35.0138 8.18948 35.0138 8.18953 35.0138C8.18957 35.0138 8.18962 35.0138 8.18966 35.0138C8.18971 35.0138 8.18975 35.0138 8.1898 35.0138C8.18984 35.0138 8.18989 35.0138 8.18993 35.0138C8.18998 35.0138 8.19002 35.0138 8.19007 35.0138C8.19011 35.0138 8.19016 35.0138 8.1902 35.0138C8.19025 35.0138 8.19029 35.0138 8.19034 35.0138C8.19038 35.0138 8.19043 35.0138 8.19047 35.0138C8.19051 35.0138 8.19056 35.0138 8.1906 35.0138C8.19065 35.0138 8.19069 35.0138 8.19074 35.0138C8.19078 35.0138 8.19083 35.0138 8.19087 35.0138C8.19092 35.0138 8.19096 35.0138 8.19101 35.0138C8.19105 35.0138 8.1911 35.0138 8.19114 35.0138C8.19119 35.0138 8.19123 35.0138 8.19128 35.0138C8.19132 35.0138 8.19137 35.0138 8.19141 35.0138C8.19146 35.0138 8.1915 35.0138 8.19155 35.0138C8.19159 35.0138 8.19164 35.0138 8.19168 35.0138C8.19173 35.0138 8.19177 35.0138 8.19182 35.0138C8.19186 35.0138 8.19191 35.0138 8.19195 35.0138C8.192 35.0138 8.19204 35.0138 8.19209 35.0138C8.19213 35.0138 8.19218 35.0138 8.19222 35.0138C8.19227 35.0138 8.19231 35.0138 8.19236 35.0138C8.1924 35.0138 8.19245 35.0138 8.19249 35.0138C8.19254 35.0138 8.19258 35.0138 8.19263 35.0138C8.19267 35.0138 8.19272 35.0138 8.19276 35.0138C8.19281 35.0138 8.19285 35.0138 8.1929 35.0138C8.19294 35.0138 8.19299 35.0138 8.19303 35.0138C8.19308 35.0138 8.19312 35.0138 8.19317 35.0138C8.19321 35.0138 8.19326 35.0138 8.1933 35.0138C8.19335 35.0138 8.19339 35.0138 8.19344 35.0138C8.19348 35.0138 8.19353 35.0138 8.19357 35.0138C8.19362 35.0138 8.19366 35.0138 8.19371 35.0138C8.19375 35.0138 8.1938 35.0138 8.19384 35.0138C8.19389 35.0138 8.19393 35.0138 8.19398 35.0138C8.19402 35.0138 8.19407 35.0138 8.19411 35.0138C8.19415 35.0138 8.1942 35.0138 8.19424 35.0138C8.19429 35.0138 8.19433 35.0138 8.19438 35.0138C8.19442 35.0138 8.19447 35.0138 8.19451 35.0138C8.19456 35.0138 8.1946 35.0138 8.19465 35.0138C8.19469 35.0138 8.19474 35.0138 8.19478 35.0138C8.19483 35.0138 8.19487 35.0138 8.19492 35.0138C8.19496 35.0138 8.19501 35.0138 8.19505 35.0138C8.1951 35.0138 8.19514 35.0138 8.19519 35.0138C8.19523 35.0138 8.19528 35.0138 8.19532 35.0138C8.19537 35.0138 8.19541 35.0138 8.19546 35.0138C8.1955 35.0138 8.19554 35.0138 8.19559 35.0138C8.19563 35.0138 8.19568 35.0138 8.19572 35.0138C8.19577 35.0138 8.19581 35.0138 8.19586 35.0138C8.1959 35.0138 8.19595 35.0138 8.19599 35.0138C8.19604 35.0138 8.19608 35.0138 8.19613 35.0138C8.19617 35.0138 8.19622 35.0138 8.19626 35.0138C8.19631 35.0138 8.19635 35.0138 8.19639 35.0138C8.19644 35.0138 8.19648 35.0138 8.19653 35.0138C8.19657 35.0138 8.19662 35.0138 8.19666 35.0138C8.19671 35.0138 8.19675 35.0138 8.1968 35.0138C8.19684 35.0138 8.19689 35.0138 8.19693 35.0138C8.19698 35.0138 8.19702 35.0138 8.19706 35.0138C8.19711 35.0138 8.19715 35.0138 8.1972 35.0138C8.19724 35.0138 8.19729 35.0138 8.19733 35.0138C8.19738 35.0138 8.19742 35.0138 8.19747 35.0138C8.19751 35.0138 8.19756 35.0138 8.1976 35.0138C8.19764 35.0138 8.19769 35.0138 8.19773 35.0138C8.19778 35.0138 8.19782 35.0138 8.19787 35.0138C8.19791 35.0138 8.19796 35.0138 8.198 35.0138C8.19805 35.0138 8.19809 35.0138 8.19814 35.0138C8.19818 35.0138 8.19822 35.0138 8.19827 35.0138C8.19831 35.0138 8.19836 35.0138 8.1984 35.0138C8.19845 35.0138 8.19849 35.0138 8.19854 35.0138C8.19858 35.0138 8.19862 35.0138 8.19867 35.0138C8.19871 35.0138 8.19876 35.0138 8.1988 35.0138C8.19885 35.0138 8.19889 35.0138 8.19894 35.0138C8.19898 35.0138 8.19902 35.0138 8.19907 35.0138C8.19911 35.0138 8.19916 35.0138 8.1992 35.0138C8.19925 35.0138 8.19929 35.0138 8.19934 35.0138C8.19938 35.0138 8.19942 35.0138 8.19947 35.0138C8.19951 35.0138 8.19956 35.0138 8.1996 35.0138C8.19965 35.0138 8.19969 35.0138 8.19973 35.0138C8.19978 35.0138 8.19982 35.0138 8.19987 35.0138C8.19991 35.0138 8.19996 35.0138 8.2 35.0138C8.20004 35.0138 8.20009 35.0138 8.20013 35.0138C8.20018 35.0138 8.20022 35.0138 8.20027 35.0138C8.20031 35.0138 8.20035 35.0138 8.2004 35.0138C8.20044 35.0138 8.20049 35.0138 8.20053 35.0138C8.20058 35.0138 8.20062 35.0138 8.20066 35.0138C8.20071 35.0138 8.20075 35.0138 8.2008 35.0138C8.20084 35.0138 8.20088 35.0138 8.20093 35.0138C8.20097 35.0138 8.20102 35.0138 8.20106 35.0138C8.20111 35.0138 8.20115 35.0138 8.20119 35.0138C8.20124 35.0138 8.20128 35.0138 8.20133 35.0138C8.20137 35.0138 8.20141 35.0138 8.20146 35.0138C8.2015 35.0138 8.20155 35.0138 8.20159 35.0138C8.20163 35.0138 8.20168 35.0138 8.20172 35.0138C8.20177 35.0138 8.20181 35.0138 8.20185 35.0138C8.2019 35.0138 8.20194 35.0138 8.20199 35.0138C8.20203 35.0138 8.20207 35.0138 8.20212 35.0138C8.20216 35.0138 8.20221 35.0138 8.20225 35.0138C8.20229 35.0138 8.20234 35.0138 8.20238 35.0138C8.20243 35.0138 8.20247 35.0138 8.20251 35.0138C8.20256 35.0138 8.2026 35.0138 8.20264 35.0138C8.20269 35.0138 8.20273 35.0138 8.20278 35.0138C8.20282 35.0138 8.20286 35.0138 8.20291 35.0138C8.20295 35.0138 8.20299 35.0138 8.20304 35.0138C8.20308 35.0138 8.20313 35.0138 8.20317 35.0138C8.20321 35.0138 8.20326 35.0138 8.2033 35.0138C8.20334 35.0138 8.20339 35.0138 8.20343 35.0138C8.20348 35.0138 8.20352 35.0138 8.20356 35.0138C8.20361 35.0138 8.20365 35.0138 8.20369 35.0138C8.20374 35.0138 8.20378 35.0138 8.20382 35.0138C8.20387 35.0138 8.20391 35.0138 8.20396 35.0138C8.204 35.0138 8.20404 35.0138 8.20409 35.0138C8.20413 35.0138 8.20417 35.0138 8.20422 35.0138C8.20426 35.0138 8.2043 35.0138 8.20435 35.0138C8.20439 35.0138 8.20443 35.0138 8.20448 35.0138C8.20452 35.0138 8.20456 35.0138 8.20461 35.0138C8.20465 35.0138 8.20469 35.0138 8.20474 35.0138C8.20478 35.0138 8.20483 35.0138 8.20487 35.0138C8.20491 35.0138 8.20496 35.0138 8.205 35.0138C8.20504 35.0138 8.20509 35.0138 8.20513 35.0138C8.20517 35.0138 8.20522 35.0138 8.20526 35.0138C8.2053 35.0138 8.20534 35.0138 8.20539 35.0138C8.20543 35.0138 8.20547 35.0138 8.20552 35.0138C8.20556 35.0138 8.2056 35.0138 8.20565 35.0138C8.20569 35.0138 8.20573 35.0138 8.20578 35.0138C8.20582 35.0138 8.20586 35.0138 8.20591 35.0138C8.20595 35.0138 8.20599 35.0138 8.20604 35.0138C8.20608 35.0138 8.20612 35.0138 8.20617 35.0138C8.20621 35.0138 8.20625 35.0138 8.20629 35.0138C8.20634 35.0138 8.20638 35.0138 8.20642 35.0138C8.20647 35.0138 8.20651 35.0138 8.20655 35.0138C8.2066 35.0138 8.20664 35.0138 8.20668 35.0138C8.20672 35.0138 8.20677 35.0138 8.20681 35.0138C8.20685 35.0138 8.2069 35.0138 8.20694 35.0138C8.20698 35.0138 8.20702 35.0138 8.20707 35.0138C8.20711 35.0138 8.20715 35.0138 8.2072 35.0138C8.20724 35.0138 8.20728 35.0138 8.20732 35.0138C8.20737 35.0138 8.20741 35.0138 8.20745 35.0138C8.20749 35.0138 8.20754 35.0138 8.20758 35.0138C8.20762 35.0138 8.20767 35.0138 8.20771 35.0138C8.20775 35.0138 8.20779 35.0138 8.20784 35.0138C8.20788 35.0138 8.20792 35.0138 8.20796 35.0138C8.20801 35.0138 8.20805 35.0138 8.20809 35.0138C8.20813 35.0138 8.20818 35.0138 8.20822 35.0138C8.20826 35.0138 8.2083 35.0138 8.20835 35.0138C8.20839 35.0138 8.20843 35.0138 8.20847 35.0138C8.20852 35.0138 8.20856 35.0138 8.2086 35.0138C8.20864 35.0138 8.20869 35.0138 8.20873 35.0138C8.20877 35.0138 8.20881 35.0138 8.20886 35.0138C8.2089 35.0138 8.20894 35.0138 8.20898 35.0138C8.20902 35.0138 8.20907 35.0138 8.20911 35.0138C8.20915 35.0138 8.20919 35.0138 8.20924 35.0138C8.20928 35.0138 8.20932 35.0138 8.20936 35.0138C8.2094 35.0138 8.20945 35.0138 8.20949 35.0138C8.20953 35.0138 8.20957 35.0138 8.20961 35.0138C8.20966 35.0138 8.2097 35.0138 8.20974 35.0138C8.20978 35.0138 8.20983 35.0138 8.20987 35.0138C8.20991 35.0138 8.20995 35.0138 8.20999 35.0138C8.21004 35.0138 8.21008 35.0138 8.21012 35.0138C8.21016 35.0138 8.2102 35.0138 8.21024 35.0138C8.21029 35.0138 8.21033 35.0138 8.21037 35.0138C8.21041 35.0138 8.21045 35.0138 8.2105 35.0138C8.21054 35.0138 8.21058 35.0138 8.21062 35.0138C8.21066 35.0138 8.2107 35.0138 8.21075 35.0138C8.21079 35.0138 8.21083 35.0138 8.21087 35.0138C8.21091 35.0138 8.21095 35.0138 8.211 35.0138C8.21104 35.0138 8.21108 35.0138 8.21112 35.0138C8.21116 35.0138 8.2112 35.0138 8.21125 35.0138C8.21129 35.0138 8.21133 35.0138 8.21137 35.0138C8.21141 35.0138 8.21145 35.0138 8.2115 35.0138C8.21154 35.0138 8.21158 35.0138 8.21162 35.0138C8.21166 35.0138 8.2117 35.0138 8.21174 35.0138C8.21178 35.0138 8.21183 35.0138 8.21187 35.0138C8.21191 35.0138 8.21195 35.0138 8.21199 35.0138C8.21203 35.0138 8.21207 35.0138 8.21212 35.0138C8.21216 35.0138 8.2122 35.0138 8.21224 35.0138C8.21228 35.0138 8.21232 35.0138 8.21236 35.0138C8.2124 35.0138 8.21244 35.0138 8.21249 35.0138C8.21253 35.0138 8.21257 35.0138 8.21261 35.0138C8.21265 35.0138 8.21269 35.0138 8.21273 35.0138C8.21277 35.0138 8.21281 35.0138 8.21285 35.0138C8.2129 35.0138 8.21294 35.0138 8.21298 35.0138C8.21302 35.0138 8.21306 35.0138 8.2131 35.0138C8.21314 35.0138 8.21318 35.0138 8.21322 35.0138C8.21326 35.0138 8.2133 35.0138 8.21335 35.0138C8.21339 35.0138 8.21343 35.0138 8.21347 35.0138C8.21351 35.0138 8.21355 35.0138 8.21359 35.0138C8.21363 35.0138 8.21367 35.0138 8.21371 35.0138C8.21375 35.0138 8.21379 35.0138 8.21383 35.0138C8.21387 35.0138 8.21391 35.0138 8.21396 35.0138C8.214 35.0138 8.21404 35.0138 8.21408 35.0138C8.21412 35.0138 8.21416 35.0138 8.2142 35.0138C8.21424 35.0138 8.21428 35.0138 8.21432 35.0138C8.21436 35.0138 8.2144 35.0138 8.21444 35.0138C8.21448 35.0138 8.21452 35.0138 8.21456 35.0138C8.2146 35.0138 8.21464 35.0138 8.21468 35.0138C8.21472 35.0138 8.21476 35.0138 8.2148 35.0138C8.21484 35.0138 8.21488 35.0138 8.21492 35.0138C8.21496 35.0138 8.215 35.0138 8.21504 35.0138C8.21508 35.0138 8.21512 35.0138 8.21516 35.0138C8.2152 35.0138 8.21524 35.0138 8.21528 35.0138C8.21532 35.0138 8.21536 35.0138 8.2154 35.0138C8.21544 35.0138 8.21548 35.0138 8.21552 35.0138C8.21556 35.0138 8.2156 35.0138 8.21564 35.0138C8.21568 35.0138 8.21572 35.0138 8.21576 35.0138C8.2158 35.0138 8.21584 35.0138 8.21588 35.0138C8.21592 35.0138 8.21596 35.0138 8.216 35.0138C8.21604 35.0138 8.21608 35.0138 8.21612 35.0138C8.21616 35.0138 8.2162 35.0138 8.21624 35.0138C8.21628 35.0138 8.21632 35.0138 8.21636 35.0138C8.2164 35.0138 8.21643 35.0138 8.21647 35.0138C8.21651 35.0138 8.21655 35.0138 8.21659 35.0138C8.21663 35.0138 8.21667 35.0138 8.21671 35.0138C8.21675 35.0138 8.21679 35.0138 8.21683 35.0138C8.21687 35.0138 8.21691 35.0138 8.21695 35.0138C8.21699 35.0138 8.21702 35.0138 8.21706 35.0138C8.2171 35.0138 8.21714 35.0138 8.21718 35.0138C8.21722 35.0138 8.21726 35.0138 8.2173 35.0138C8.21734 35.0138 8.21738 35.0138 8.21742 35.0138C8.21745 35.0138 8.21749 35.0138 8.21753 35.0138C8.21757 35.0138 8.21761 35.0138 8.21765 35.0138C8.21769 35.0138 8.21773 35.0138 8.21777 35.0138C8.2178 35.0138 8.21784 35.0138 8.21788 35.0138C8.21792 35.0138 8.21796 35.0138 8.218 35.0138C8.21804 35.0138 8.21808 35.0138 8.21811 35.0138C8.21815 35.0138 8.21819 35.0138 8.21823 35.0138C8.21827 35.0138 8.21831 35.0138 8.21835 35.0138C8.21838 35.0138 8.21842 35.0138 8.21846 35.0138C8.2185 35.0138 8.21854 35.0138 8.21858 35.0138C8.21861 35.0138 8.21865 35.0138 8.21869 35.0138C8.21873 35.0138 8.21877 35.0138 8.21881 35.0138C8.21884 35.0138 8.21888 35.0138 8.21892 35.0138C8.21896 35.0138 8.219 35.0138 8.21904 35.0138C8.21907 35.0138 8.21911 35.0138 8.21915 35.0138C8.21919 35.0138 8.21923 35.0138 8.21926 35.0138C8.2193 35.0138 8.21934 35.0138 8.21938 35.0138C8.21942 35.0138 8.21945 35.0138 8.21949 35.0138C8.21953 35.0138 8.21957 35.0138 8.2196 35.0138C8.21964 35.0138 8.21968 35.0138 8.21972 35.0138C8.21976 35.0138 8.21979 35.0138 8.21983 35.0138C8.21987 35.0138 8.21991 35.0138 8.21994 35.0138C8.21998 35.0138 8.22002 35.0138 8.22006 35.0138C8.2201 35.0138 8.22013 35.0138 8.22017 35.0138C8.22021 35.0138 8.22025 35.0138 8.22028 35.0138C8.22032 35.0138 8.22036 35.0138 8.22039 35.0138C8.22043 35.0138 8.22047 35.0138 8.22051 35.0138C8.22054 35.0138 8.22058 35.0138 8.22062 35.0138C8.22066 35.0138 8.22069 35.0138 8.22073 35.0138C8.22077 35.0138 8.22081 35.0138 8.22084 35.0138C8.22088 35.0138 8.22092 35.0138 8.22095 35.0138C8.22099 35.0138 8.22103 35.0138 8.22106 35.0138C8.2211 35.0138 8.22114 35.0138 8.22118 35.0138C8.22121 35.0138 8.22125 35.0138 8.22129 35.0138C8.22132 35.0138 8.22136 35.0138 8.2214 35.0138C8.22143 35.0138 8.22147 35.0138 8.22151 35.0138C8.22154 35.0138 8.22158 35.0138 8.22162 35.0138C8.22165 35.0138 8.22169 35.0138 8.22173 35.0138C8.22176 35.0138 8.2218 35.0138 8.22184 35.0138C8.22187 35.0138 8.22191 35.0138 8.22195 35.0138C8.22198 35.0138 8.22202 35.0138 8.22206 35.0138C8.22209 35.0138 8.22213 35.0138 8.22216 35.0138C8.2222 35.0138 8.22224 35.0138 8.22227 35.0138C8.22231 35.0138 8.22235 35.0138 8.22238 35.0138C8.22242 35.0138 8.22245 35.0138 8.22249 35.0138C8.22253 35.0138 8.22256 35.0138 8.2226 35.0138C8.22263 35.0138 8.22267 35.0138 8.22271 35.0138V34.6848ZM8.15823 34.6848C8.11317 34.6848 8.08698 34.6706 8.07168 34.6556C8.05584 34.6402 8.0396 34.612 8.03693 34.5638L7.70849 34.5821C7.71502 34.6997 7.75865 34.8097 7.84183 34.891C7.92554 34.9727 8.03751 35.0138 8.15823 35.0138V34.6848ZM8.02874 34.521C8.02925 34.5225 8.02881 34.5218 8.02845 34.5178C8.02805 34.5134 8.02797 34.5088 8.02797 34.4993H7.69902C7.69902 34.5164 7.69801 34.569 7.71667 34.625L8.02874 34.521ZM8.02797 34.4993C8.02797 34.4495 8.04084 34.4254 8.05121 34.4136C8.06097 34.4026 8.0851 34.3836 8.14697 34.3774L8.11424 34.0501C7.99189 34.0623 7.88247 34.1078 7.80472 34.1958C7.7276 34.2831 7.69902 34.3925 7.69902 34.4993H8.02797ZM8.1529 34.3767C9.03767 34.2556 10.2622 33.9484 11.0011 33.5979L10.8601 33.3007C10.1622 33.6318 8.97353 33.9324 8.1083 34.0508L8.1529 34.3767ZM11.0218 33.5861C11.0415 33.573 11.0615 33.5677 11.0964 33.5677V33.2388C11.0208 33.2388 10.9302 33.2518 10.8394 33.3124L11.0218 33.5861ZM11.0964 33.5677C11.15 33.5677 11.1974 33.5929 11.2307 33.6706L11.5331 33.5411C11.4559 33.3609 11.3007 33.2388 11.0964 33.2388V33.5677ZM11.2292 33.6669C11.239 33.6915 11.2451 33.7257 11.2451 33.7532H11.574C11.574 33.6886 11.5617 33.6124 11.5346 33.5448L11.2292 33.6669ZM11.2451 33.7532C11.2451 33.8205 11.2055 33.8878 11.1242 33.9285L11.2713 34.2227C11.4478 34.1344 11.574 33.9623 11.574 33.7532H11.2451ZM11.1335 33.9242C10.8371 34.0499 10.448 34.1858 10.021 34.3039L10.1087 34.621C10.5474 34.4996 10.9504 34.3592 11.2619 34.227L11.1335 33.9242ZM9.90034 34.4624V36.0559H10.2293V34.4624H9.90034ZM10.0648 36.2203H11.3727V35.8914H10.0648V36.2203ZM11.3727 36.2203C11.4006 36.2203 11.4173 36.2301 11.4319 36.2497C11.4498 36.2737 11.4661 36.3174 11.4661 36.3782H11.7951C11.7951 36.2641 11.7653 36.1466 11.6957 36.0531C11.6228 35.9553 11.5106 35.8914 11.3727 35.8914V36.2203ZM11.4661 36.3782C11.4661 36.4548 11.4492 36.4925 11.4379 36.5073C11.4317 36.5154 11.4209 36.5269 11.3819 36.5269V36.8559C11.5087 36.8559 11.6223 36.8075 11.699 36.7074C11.7705 36.614 11.7951 36.495 11.7951 36.3782H11.4661ZM11.3819 36.5269H10.0648V36.8559H11.3819V36.5269ZM9.90034 36.6914V38.1651H10.2293V36.6914H9.90034ZM10.0648 38.3295H10.5898V38.0006H10.0648V38.3295ZM10.5898 38.3295C10.8279 38.3295 10.9637 38.3761 11.0417 38.4475C11.1164 38.516 11.1714 38.6384 11.1714 38.8743H11.5003C11.5003 38.5944 11.4356 38.3622 11.2639 38.205C11.0955 38.0508 10.8583 38.0006 10.5898 38.0006V38.3295ZM11.1714 38.8743V40.919H11.5003V38.8743H11.1714ZM11.1714 40.919C11.1714 41.164 11.1142 41.2935 11.0346 41.3667C10.9519 41.4427 10.8092 41.4914 10.5622 41.4914V41.8203C10.8402 41.8203 11.0843 41.7677 11.2572 41.6089C11.4332 41.4471 11.5003 41.2082 11.5003 40.919H11.1714ZM10.5622 41.4914H8.87665V41.8203H10.5622V41.4914ZM8.87665 41.4914C8.62968 41.4914 8.48695 41.4427 8.40422 41.3667C8.32465 41.2935 8.26744 41.164 8.26744 40.919H7.9385C7.9385 41.2082 8.00564 41.4471 8.18165 41.6089C8.35452 41.7677 8.59863 41.8203 8.87665 41.8203V41.4914ZM8.26744 40.919V38.8743H7.9385V40.919H8.26744ZM8.26744 38.8743C8.26744 38.6384 8.3224 38.516 8.39712 38.4475C8.47513 38.3761 8.61089 38.3295 8.84902 38.3295V38.0006C8.58058 38.0006 8.34332 38.0508 8.17494 38.205C8.00328 38.3622 7.9385 38.5944 7.9385 38.8743H8.26744ZM8.84902 38.3295H9.40165V38.0006H8.84902V38.3295ZM9.56613 38.1651V36.6914H9.23718V38.1651H9.56613ZM9.40165 36.5269H8.02008V36.8559H9.40165V36.5269ZM8.02008 36.5269C7.9846 36.5269 7.96949 36.5156 7.95893 36.5019C7.94431 36.4831 7.92665 36.4421 7.92665 36.369H7.59771C7.59771 36.4894 7.62611 36.6096 7.69899 36.7035C7.77593 36.8027 7.88976 36.8559 8.02008 36.8559V36.5269ZM7.92665 36.369C7.92665 36.3022 7.94355 36.2636 7.95791 36.2454C7.9686 36.2319 7.98436 36.2203 8.02008 36.2203V35.8914C7.89 35.8914 7.77681 35.9442 7.7 36.0413C7.62687 36.1336 7.59771 36.2516 7.59771 36.369H7.92665ZM8.02008 36.2203H9.40165V35.8914H8.02008V36.2203ZM8.62008 39.0124V40.7901H8.94902V39.0124H8.62008ZM8.62008 40.7901C8.62008 40.9024 8.64496 41.0221 8.74308 41.1047C8.83375 41.181 8.95181 41.194 9.05165 41.194V40.8651C9.01274 40.8651 8.98705 40.862 8.97049 40.8581C8.95471 40.8543 8.9524 40.8509 8.95497 40.8531C8.96558 40.862 8.94902 40.862 8.94902 40.7901H8.62008ZM9.05165 41.194H10.4332V40.8651H9.05165V41.194ZM10.4332 41.194C10.5266 41.194 10.6472 41.1821 10.7313 41.0893C10.8106 41.0018 10.8188 40.8826 10.8188 40.7901H10.4898C10.4898 40.8309 10.4871 40.855 10.484 40.8688C10.4811 40.8815 10.4798 40.877 10.4875 40.8684C10.4961 40.859 10.5035 40.8579 10.4975 40.8596C10.489 40.862 10.4701 40.8651 10.4332 40.8651V41.194ZM10.8188 40.7901V39.0124H10.4898V40.7901H10.8188ZM10.8188 39.0124C10.8188 38.9179 10.8115 38.7954 10.7295 38.7078C10.6437 38.6161 10.5209 38.6085 10.4332 38.6085V38.9374C10.4718 38.9374 10.4917 38.9402 10.5012 38.9426C10.5082 38.9444 10.4994 38.9434 10.4893 38.9325C10.4799 38.9225 10.4809 38.9164 10.4839 38.9293C10.487 38.9436 10.4898 38.9689 10.4898 39.0124H10.8188ZM10.4332 38.6085H9.05165V38.9374H10.4332V38.6085ZM9.05165 38.6085C8.95659 38.6085 8.83699 38.6177 8.74505 38.6927C8.64371 38.7754 8.62008 38.8983 8.62008 39.0124H8.94902C8.94902 38.9332 8.96684 38.9363 8.95299 38.9476C8.9492 38.9507 8.95063 38.9475 8.96723 38.9439C8.9846 38.9401 9.01117 38.9374 9.05165 38.9374V38.6085ZM12.1556 35.5874H11.5938V35.9164H12.1556V35.5874ZM11.5938 35.5874C11.5689 35.5874 11.5512 35.5785 11.5358 35.5586C11.5179 35.5357 11.5003 35.493 11.5003 35.4295H11.1714C11.1714 35.5503 11.2045 35.6688 11.2764 35.761C11.3508 35.8563 11.4621 35.9164 11.5938 35.9164V35.5874ZM11.5003 35.4295C11.5003 35.3566 11.5179 35.3184 11.5307 35.3022C11.5396 35.2908 11.5525 35.2809 11.5845 35.2809V34.9519C11.46 34.9519 11.3485 35.0018 11.2723 35.0987C11.1998 35.1907 11.1714 35.3091 11.1714 35.4295H11.5003ZM11.5845 35.2809H12.1556V34.9519H11.5845V35.2809ZM12.3201 35.1164V33.698H11.9911V35.1164H12.3201ZM12.3201 33.698C12.3201 33.6762 12.3243 33.6641 12.3275 33.6577C12.3305 33.6515 12.3354 33.6451 12.3453 33.6383C12.3679 33.6225 12.4172 33.6045 12.5056 33.6045V33.2756C12.3821 33.2756 12.2564 33.2991 12.157 33.3685C12.0489 33.444 11.9911 33.5605 11.9911 33.698H12.3201ZM12.5056 33.6045C12.594 33.6045 12.6433 33.6225 12.6659 33.6383C12.6758 33.6451 12.6807 33.6515 12.6837 33.6577C12.6869 33.6641 12.6911 33.6762 12.6911 33.698H13.0201C13.0201 33.5605 12.9623 33.444 12.8542 33.3685C12.7548 33.2991 12.6291 33.2756 12.5056 33.2756V33.6045ZM12.6911 33.698V35.1164H13.0201V33.698H12.6911ZM12.8556 35.2809H14.8635V34.9519H12.8556V35.2809ZM15.028 35.1164V33.698H14.699V35.1164H15.028ZM15.028 33.698C15.028 33.6762 15.0322 33.6641 15.0354 33.6577C15.0384 33.6515 15.0433 33.6451 15.0532 33.6383C15.0758 33.6225 15.1251 33.6045 15.2135 33.6045V33.2756C15.09 33.2756 14.9643 33.2991 14.8649 33.3685C14.7568 33.444 14.699 33.5605 14.699 33.698H15.028ZM15.2135 33.6045C15.3019 33.6045 15.3512 33.6225 15.3738 33.6383C15.3837 33.6451 15.3886 33.6515 15.3916 33.6577C15.3948 33.6641 15.399 33.6762 15.399 33.698H15.728C15.728 33.5605 15.6702 33.444 15.5621 33.3685C15.4627 33.2991 15.337 33.2756 15.2135 33.2756V33.6045ZM15.399 33.698V35.1164H15.728V33.698H15.399ZM15.5635 35.2809H16.0977V34.9519H15.5635V35.2809ZM16.0977 35.2809C16.1332 35.2809 16.1483 35.2922 16.1589 35.3058C16.1735 35.3247 16.1911 35.3657 16.1911 35.4388H16.5201C16.5201 35.3184 16.4917 35.1982 16.4188 35.1042C16.3419 35.005 16.228 34.9519 16.0977 34.9519V35.2809ZM16.1911 35.4388C16.1911 35.5056 16.1742 35.5442 16.1599 35.5623C16.1492 35.5758 16.1334 35.5874 16.0977 35.5874V35.9164C16.2278 35.9164 16.341 35.8635 16.4178 35.7665C16.4909 35.6741 16.5201 35.5561 16.5201 35.4388H16.1911ZM16.0977 35.5874H15.5635V35.9164H16.0977V35.5874ZM15.399 35.7519V40.9098H15.728V35.7519H15.399ZM15.399 40.9098C15.399 41.1548 15.3418 41.2843 15.2622 41.3575C15.1795 41.4335 15.0368 41.4822 14.7898 41.4822V41.8111C15.0678 41.8111 15.312 41.7585 15.4848 41.5997C15.6608 41.4379 15.728 41.199 15.728 40.9098H15.399ZM14.7898 41.4822H12.9201V41.8111H14.7898V41.4822ZM12.9201 41.4822C12.6783 41.4822 12.538 41.4337 12.4563 41.358C12.3773 41.2847 12.3201 41.1548 12.3201 40.9098H11.9911C11.9911 41.199 12.0583 41.4375 12.2326 41.5992C12.4042 41.7583 12.646 41.8111 12.9201 41.8111V41.4822ZM12.3201 40.9098V35.7519H11.9911V40.9098H12.3201ZM12.6911 38.4966V40.7716H13.0201V38.4966H12.6911ZM12.6911 40.7716C12.6911 40.8839 12.716 41.0036 12.8141 41.0863C12.9048 41.1626 13.0229 41.1756 13.1227 41.1756V40.8466C13.0838 40.8466 13.0581 40.8436 13.0415 40.8397C13.0258 40.8359 13.0235 40.8325 13.026 40.8347C13.0366 40.8436 13.0201 40.8436 13.0201 40.7716H12.6911ZM13.1227 41.1756H14.5872V40.8466H13.1227V41.1756ZM14.5872 41.1756C14.6877 41.1756 14.8054 41.1623 14.8972 41.0889C14.9982 41.0081 15.028 40.8888 15.028 40.7716H14.699C14.699 40.8387 14.6827 40.8392 14.6917 40.832C14.6926 40.8313 14.6881 40.8354 14.6707 40.8394C14.6527 40.8436 14.626 40.8466 14.5872 40.8466V41.1756ZM15.028 40.7716V38.4966H14.699V40.7716H15.028ZM14.8635 38.3322H12.8556V38.6611H14.8635V38.3322ZM15.028 37.8703V35.7519H14.699V37.8703H15.028ZM14.8635 35.5874H12.8556V35.9164H14.8635V35.5874ZM12.6911 35.7519V37.8703H13.0201V35.7519H12.6911ZM12.8556 38.0348H14.8635V37.7059H12.8556V38.0348Z" fill="#FFA518" mask="url(#path-7-outside-1_2181_11132)"/>
<ellipse cx="1.64474" cy="1.67562" rx="1.64474" ry="1.67562" transform="matrix(0.999947 -0.0103167 -0.0173517 0.999849 26.1191 23.0767)" fill="#FFA518"/>
<ellipse cx="1.64474" cy="1.67562" rx="1.64474" ry="1.67562" transform="matrix(0.999947 -0.0103167 -0.0173517 0.999849 41.0586 23.3435)" fill="#FFA518"/>
<path d="M28.6325 30.4016C28.4569 30.872 28.6624 31.4704 29.1104 31.6999C30.9973 32.6666 33.0236 33.1133 35.0385 33.0018C37.1038 32.8876 39.095 32.1905 40.8577 30.9702C41.197 30.7353 41.2676 30.2102 41.0385 29.7869C40.7802 29.3096 40.2497 29.1494 39.8723 29.4013C38.3533 30.415 36.6508 30.9938 34.8884 31.0912C33.1387 31.188 31.3804 30.8076 29.7396 29.9829C29.3008 29.7623 28.8092 29.9285 28.6325 30.4016Z" fill="#FFA518" stroke="#FFA518" stroke-width="0.164474"/>
</svg>
